%TF.GenerationSoftware,KiCad,Pcbnew,8.0.4*%
%TF.CreationDate,2024-09-21T14:55:01-03:00*%
%TF.ProjectId,DongleALIVEv2.0,446f6e67-6c65-4414-9c49-564576322e30,2.0*%
%TF.SameCoordinates,Original*%
%TF.FileFunction,Profile,NP*%
%FSLAX46Y46*%
G04 Gerber Fmt 4.6, Leading zero omitted, Abs format (unit mm)*
G04 Created by KiCad (PCBNEW 8.0.4) date 2024-09-21 14:55:01*
%MOMM*%
%LPD*%
G01*
G04 APERTURE LIST*
%TA.AperFunction,Profile*%
%ADD10C,0.050000*%
%TD*%
%ADD11C,0.350000*%
%ADD12C,0.300000*%
G04 APERTURE END LIST*
D10*
X199077890Y-69763886D02*
G75*
G02*
X201079014Y-71764941I-190J-2001314D01*
G01*
X201080000Y-122768945D02*
G75*
G02*
X199078945Y-124770000I-2001100J45D01*
G01*
X201078945Y-71764941D02*
X201078945Y-122768945D01*
X158080000Y-124770000D02*
G75*
G02*
X156079000Y-122768945I0J2001000D01*
G01*
X158080000Y-69763903D02*
X199077890Y-69763903D01*
X156078945Y-71764958D02*
G75*
G02*
X158080000Y-69763845I2001155J-42D01*
G01*
X156078945Y-122768945D02*
X156078945Y-71764958D01*
X199078945Y-124770000D02*
X158080000Y-124770000D01*
D11*
X164710000Y-104300000D03*
X164710000Y-101760000D03*
X164710000Y-99220000D03*
X164710000Y-96680000D03*
X164710000Y-94140000D03*
X158210000Y-95450000D03*
X158210000Y-103650000D03*
X158210000Y-97550000D03*
X158210000Y-99550000D03*
X158210000Y-101550000D03*
X166380000Y-114180000D03*
X166863274Y-113013274D03*
X166863274Y-115346726D03*
X168030000Y-112530000D03*
X168030000Y-114180000D03*
X168030000Y-115830000D03*
X169196726Y-113013274D03*
X169196726Y-115346726D03*
X169680000Y-114180000D03*
X193180000Y-71460000D03*
X189180000Y-71460000D03*
X185180000Y-71460000D03*
X181180000Y-71460000D03*
X177180000Y-71460000D03*
X173180000Y-71460000D03*
X169180000Y-71460000D03*
X165180000Y-71460000D03*
X193180000Y-74460000D03*
X189180000Y-74460000D03*
X185180000Y-74460000D03*
X181180000Y-74460000D03*
X177180000Y-74460000D03*
X173180000Y-74460000D03*
X169180000Y-74460000D03*
X165180000Y-74460000D03*
X196140000Y-73020000D03*
X196623274Y-71853274D03*
X196623274Y-74186726D03*
X197790000Y-71370000D03*
X197790000Y-73020000D03*
X197790000Y-74670000D03*
X198956726Y-71853274D03*
X198956726Y-74186726D03*
X199440000Y-73020000D03*
D12*
X192365000Y-110417500D03*
X192365000Y-108892500D03*
X191602500Y-111180000D03*
X191602500Y-109655000D03*
X191602500Y-108130000D03*
X190840000Y-110417500D03*
X190840000Y-108892500D03*
X190077500Y-111180000D03*
X190077500Y-109655000D03*
X190077500Y-108130000D03*
X189315000Y-110417500D03*
X189315000Y-108892500D03*
D11*
X159650000Y-71300000D03*
X159650000Y-76300000D03*
X159650000Y-86300000D03*
X159650000Y-91300000D03*
X198630000Y-85300000D03*
X198630000Y-87840000D03*
X198630000Y-90380000D03*
X198630000Y-92920000D03*
X198630000Y-95460000D03*
M02*
