M48
METRIC,TZ
T1C0.300
T2C0.300
T3C0.400
T4C0.400
T5C0.900
T6C1.000
T7C1.050
T8C1.500
T9C2.200
%
G90
G05
T1
X157060Y-105840
X157710Y-118780
X157710Y-121810
X158935Y-109788
X159110Y-93330
X159150Y-115330
X160530Y-117300
X160550Y-120300
X160560Y-123300
X160570Y-115120
X161378Y-109547
X161380Y-85290
X161820Y-95960
X162020Y-112580
X162170Y-106050
X162510Y-83760
X163060Y-80260
X163290Y-112480
X163550Y-90870
X163550Y-106030
X163970Y-108260
X164460Y-121810
X164600Y-114830
X165070Y-115810
X165100Y-107760
X165590Y-80260
X165650Y-90860
X165720Y-121070
X165720Y-122070
X165720Y-123070
X165720Y-124070
X165820Y-117040
X166790Y-100270
X166875Y-85905
X167160Y-72870
X167455Y-104359
X167770Y-100440
X167780Y-103520
X168270Y-84340
X169220Y-100460
X170600Y-93190
X170740Y-85920
X170740Y-88250
X171370Y-72890
X172180Y-118020
X172260Y-110710
X172870Y-114220
X173180Y-118020
X173240Y-99430
X174180Y-118020
X174240Y-109950
X174300Y-114360
X174400Y-99360
X175180Y-70560
X175180Y-118020
X175500Y-100410
X175650Y-113910
X175970Y-106260
X176180Y-118020
X176590Y-86690
X177050Y-110580
X177180Y-118020
X177600Y-82360
X177660Y-108720
X177980Y-106180
X178180Y-118020
X178250Y-89290
X178560Y-108720
X179180Y-118020
X179200Y-72830
X179710Y-106070
X179710Y-108120
X180160Y-111930
X180190Y-113210
X180650Y-99200
X181410Y-117970
X182130Y-99440
X182640Y-114460
X182680Y-110640
X183190Y-72880
X183940Y-97520
X184420Y-88900
X184510Y-103110
X185000Y-108030
X185270Y-100600
X185380Y-110740
X185510Y-113660
X185665Y-108725
X185960Y-115070
X186320Y-100590
X186800Y-113770
X186960Y-115070
X187219Y-100620
X187220Y-72880
X187340Y-113050
X187400Y-89670
X187400Y-90670
X187400Y-91530
X187400Y-92530
X187410Y-88740
X187960Y-115070
X188310Y-89670
X188310Y-90670
X188320Y-88740
X189310Y-89670
X189310Y-90670
X189800Y-100870
X189920Y-88180
X190170Y-89670
X190170Y-90670
X190550Y-92350
X190760Y-84340
X191010Y-72960
X191170Y-89670
X191170Y-90670
X191600Y-97830
X193090Y-90080
X193500Y-82110
X193660Y-102390
X194930Y-88570
X194930Y-89570
X194930Y-90430
X194930Y-91430
X195480Y-95700
X196690Y-86750
X196690Y-89110
X197440Y-115310
X197610Y-112300
X198910Y-117970
X198940Y-99160
X199910Y-98280
T2
X189315Y-108893
X189315Y-110418
X190078Y-108130
X190078Y-109655
X190078Y-111180
X190840Y-108893
X190840Y-110418
X191603Y-108130
X191603Y-109655
X191603Y-111180
X192365Y-108893
X192365Y-110418
T3
X157520Y-83750
X160600Y-93200
X164330Y-79270
X164330Y-81420
X168700Y-106710
X168700Y-108920
X183610Y-117590
X186150Y-117590
X188690Y-117590
X191230Y-117590
X193770Y-117590
X196310Y-117590
T4
X166380Y-114180
X166863Y-113013
X166863Y-115347
X168030Y-112530
X168030Y-115830
X169197Y-113013
X169197Y-115347
X169680Y-114180
X196140Y-73020
X196623Y-71853
X196623Y-74187
X197790Y-71370
X197790Y-74670
X198957Y-71853
X198957Y-74187
X199440Y-73020
T5
X158210Y-97550
X158210Y-99550
X158210Y-101550
T6
X164710Y-94140
X164710Y-96680
X164710Y-99220
X164710Y-101760
X164710Y-104300
X198630Y-85300
X198630Y-87840
X198630Y-90380
X198630Y-92920
X198630Y-95460
T7
X159650Y-71300
X159650Y-76300
X159650Y-86300
X159650Y-91300
T8
X158210Y-95450
X158210Y-103650
X165180Y-71460
X165180Y-74460
X169180Y-71460
X169180Y-74460
X173180Y-71460
X173180Y-74460
X177180Y-71460
X177180Y-74460
X181180Y-71460
X181180Y-74460
X185180Y-71460
X185180Y-74460
X189180Y-71460
X189180Y-74460
X193180Y-71460
X193180Y-74460
T9
X168030Y-114180
X197790Y-73020
M30
