M48
; DRILL file {KiCad 8.0.4} date 2024-09-21T14:55:02-0300
; FORMAT={-:-/ absolute / metric / decimal}
; #@! TF.CreationDate,2024-09-21T14:55:02-03:00
; #@! TF.GenerationSoftware,Kicad,Pcbnew,8.0.4
; #@! TF.FileFunction,Plated,1,2,PTH
FMAT,2
METRIC
; #@! TA.AperFunction,Plated,PTH,ViaDrill
T1C0.300
; #@! TA.AperFunction,Plated,PTH,ComponentDrill
T2C0.300
; #@! TA.AperFunction,Plated,PTH,ViaDrill
T3C0.400
; #@! TA.AperFunction,Plated,PTH,ComponentDrill
T4C0.400
; #@! TA.AperFunction,Plated,PTH,ComponentDrill
T5C0.900
; #@! TA.AperFunction,Plated,PTH,ComponentDrill
T6C1.000
; #@! TA.AperFunction,Plated,PTH,ComponentDrill
T7C1.050
; #@! TA.AperFunction,Plated,PTH,ComponentDrill
T8C1.500
; #@! TA.AperFunction,Plated,PTH,ComponentDrill
T9C2.200
%
G90
G05
T1
X157.06Y-105.84
X157.71Y-118.78
X157.71Y-121.81
X158.935Y-109.788
X159.11Y-93.33
X159.15Y-115.33
X160.53Y-117.3
X160.55Y-120.3
X160.56Y-123.3
X160.57Y-115.12
X161.378Y-109.547
X161.38Y-85.29
X161.82Y-95.96
X162.02Y-112.58
X162.17Y-106.05
X162.51Y-83.76
X163.06Y-80.26
X163.29Y-112.48
X163.55Y-90.87
X163.55Y-106.03
X163.97Y-108.26
X164.46Y-121.81
X164.6Y-114.83
X165.07Y-115.81
X165.1Y-107.76
X165.59Y-80.26
X165.65Y-90.86
X165.72Y-121.07
X165.72Y-122.07
X165.72Y-123.07
X165.72Y-124.07
X165.82Y-117.04
X166.79Y-100.27
X166.875Y-85.905
X167.16Y-72.87
X167.455Y-104.359
X167.77Y-100.44
X167.78Y-103.52
X168.27Y-84.34
X169.22Y-100.46
X170.6Y-93.19
X170.74Y-85.92
X170.74Y-88.25
X171.37Y-72.89
X172.18Y-118.02
X172.26Y-110.71
X172.87Y-114.22
X173.18Y-118.02
X173.24Y-99.43
X174.18Y-118.02
X174.24Y-109.95
X174.3Y-114.36
X174.4Y-99.36
X175.18Y-70.56
X175.18Y-118.02
X175.5Y-100.41
X175.65Y-113.91
X175.97Y-106.26
X176.18Y-118.02
X176.59Y-86.69
X177.05Y-110.58
X177.18Y-118.02
X177.6Y-82.36
X177.66Y-108.72
X177.98Y-106.18
X178.18Y-118.02
X178.25Y-89.29
X178.56Y-108.72
X179.18Y-118.02
X179.2Y-72.83
X179.71Y-106.07
X179.71Y-108.12
X180.16Y-111.93
X180.19Y-113.21
X180.65Y-99.2
X181.41Y-117.97
X182.13Y-99.44
X182.64Y-114.46
X182.68Y-110.64
X183.19Y-72.88
X183.94Y-97.52
X184.42Y-88.9
X184.51Y-103.11
X185.0Y-108.03
X185.27Y-100.6
X185.38Y-110.74
X185.51Y-113.66
X185.665Y-108.725
X185.96Y-115.07
X186.32Y-100.59
X186.8Y-113.77
X186.96Y-115.07
X187.219Y-100.62
X187.22Y-72.88
X187.34Y-113.05
X187.4Y-89.67
X187.4Y-90.67
X187.4Y-91.53
X187.4Y-92.53
X187.41Y-88.74
X187.96Y-115.07
X188.31Y-89.67
X188.31Y-90.67
X188.32Y-88.74
X189.31Y-89.67
X189.31Y-90.67
X189.8Y-100.87
X189.92Y-88.18
X190.17Y-89.67
X190.17Y-90.67
X190.55Y-92.35
X190.76Y-84.34
X191.01Y-72.96
X191.17Y-89.67
X191.17Y-90.67
X191.6Y-97.83
X193.09Y-90.08
X193.5Y-82.11
X193.66Y-102.39
X194.93Y-88.57
X194.93Y-89.57
X194.93Y-90.43
X194.93Y-91.43
X195.48Y-95.7
X196.69Y-86.75
X196.69Y-89.11
X197.44Y-115.31
X197.61Y-112.3
X198.91Y-117.97
X198.94Y-99.16
X199.91Y-98.28
T2
X189.315Y-108.892
X189.315Y-110.417
X190.077Y-108.13
X190.077Y-109.655
X190.077Y-111.18
X190.84Y-108.892
X190.84Y-110.417
X191.602Y-108.13
X191.602Y-109.655
X191.602Y-111.18
X192.365Y-108.892
X192.365Y-110.417
T3
X157.52Y-83.75
X160.6Y-93.2
X164.33Y-79.27
X164.33Y-81.42
X168.7Y-106.71
X168.7Y-108.92
X183.61Y-117.59
X186.15Y-117.59
X188.69Y-117.59
X191.23Y-117.59
X193.77Y-117.59
X196.31Y-117.59
T4
X166.38Y-114.18
X166.863Y-113.013
X166.863Y-115.347
X168.03Y-112.53
X168.03Y-115.83
X169.197Y-113.013
X169.197Y-115.347
X169.68Y-114.18
X196.14Y-73.02
X196.623Y-71.853
X196.623Y-74.187
X197.79Y-71.37
X197.79Y-74.67
X198.957Y-71.853
X198.957Y-74.187
X199.44Y-73.02
T5
X158.21Y-97.55
X158.21Y-99.55
X158.21Y-101.55
T6
X164.71Y-94.14
X164.71Y-96.68
X164.71Y-99.22
X164.71Y-101.76
X164.71Y-104.3
X198.63Y-85.3
X198.63Y-87.84
X198.63Y-90.38
X198.63Y-92.92
X198.63Y-95.46
T7
X159.65Y-71.3
X159.65Y-76.3
X159.65Y-86.3
X159.65Y-91.3
T8
X158.21Y-95.45
X158.21Y-103.65
X165.18Y-71.46
X165.18Y-74.46
X169.18Y-71.46
X169.18Y-74.46
X173.18Y-71.46
X173.18Y-74.46
X177.18Y-71.46
X177.18Y-74.46
X181.18Y-71.46
X181.18Y-74.46
X185.18Y-71.46
X185.18Y-74.46
X189.18Y-71.46
X189.18Y-74.46
X193.18Y-71.46
X193.18Y-74.46
T9
X168.03Y-114.18
X197.79Y-73.02
M30
