%TF.GenerationSoftware,KiCad,Pcbnew,8.0.4*%
%TF.CreationDate,2024-09-22T00:56:18-03:00*%
%TF.ProjectId,DongleALIVEv2.0,446f6e67-6c65-4414-9c49-564576322e30,2.0*%
%TF.SameCoordinates,Original*%
%TF.FileFunction,Drillmap*%
%TF.FilePolarity,Positive*%
%FSLAX45Y45*%
G04 Gerber Fmt 4.5, Leading zero omitted, Abs format (unit mm)*
G04 Created by KiCad (PCBNEW 8.0.4) date 2024-09-22 00:56:18*
%MOMM*%
%LPD*%
G01*
G04 APERTURE LIST*
%ADD10C,0.050000*%
%ADD11C,0.200000*%
%ADD12C,0.100000*%
%ADD13C,0.105000*%
%ADD14C,0.150000*%
%ADD15C,0.220000*%
G04 APERTURE END LIST*
D10*
X19907789Y-6976389D02*
G75*
G02*
X20107901Y-7176494I-19J-200131D01*
G01*
X20108000Y-12276894D02*
G75*
G02*
X19907895Y-12477000I-200110J5D01*
G01*
X20107895Y-7176494D02*
X20107895Y-12276894D01*
X15808000Y-12477000D02*
G75*
G02*
X15607900Y-12276894I0J200100D01*
G01*
X15808000Y-6976390D02*
X19907789Y-6976390D01*
X15607894Y-7176496D02*
G75*
G02*
X15808000Y-6976384I200116J-4D01*
G01*
X15607894Y-12276894D02*
X15607894Y-7176496D01*
X19907895Y-12477000D02*
X15808000Y-12477000D01*
D11*
D12*
X15691000Y-10569000D02*
X15721000Y-10599000D01*
X15721000Y-10569000D02*
X15691000Y-10599000D01*
X15756000Y-11863000D02*
X15786000Y-11893000D01*
X15786000Y-11863000D02*
X15756000Y-11893000D01*
X15756000Y-12166000D02*
X15786000Y-12196000D01*
X15786000Y-12166000D02*
X15756000Y-12196000D01*
X15878500Y-10963848D02*
X15908500Y-10993848D01*
X15908500Y-10963848D02*
X15878500Y-10993848D01*
X15896000Y-9318000D02*
X15926000Y-9348000D01*
X15926000Y-9318000D02*
X15896000Y-9348000D01*
X15900000Y-11518000D02*
X15930000Y-11548000D01*
X15930000Y-11518000D02*
X15900000Y-11548000D01*
X16038000Y-11715000D02*
X16068000Y-11745000D01*
X16068000Y-11715000D02*
X16038000Y-11745000D01*
X16040000Y-12015000D02*
X16070000Y-12045000D01*
X16070000Y-12015000D02*
X16040000Y-12045000D01*
X16041000Y-12315000D02*
X16071000Y-12345000D01*
X16071000Y-12315000D02*
X16041000Y-12345000D01*
X16042000Y-11497000D02*
X16072000Y-11527000D01*
X16072000Y-11497000D02*
X16042000Y-11527000D01*
X16122823Y-10939673D02*
X16152823Y-10969673D01*
X16152823Y-10939673D02*
X16122823Y-10969673D01*
X16123000Y-8514000D02*
X16153000Y-8544000D01*
X16153000Y-8514000D02*
X16123000Y-8544000D01*
X16167000Y-9581000D02*
X16197000Y-9611000D01*
X16197000Y-9581000D02*
X16167000Y-9611000D01*
X16187000Y-11243000D02*
X16217000Y-11273000D01*
X16217000Y-11243000D02*
X16187000Y-11273000D01*
X16202000Y-10590000D02*
X16232000Y-10620000D01*
X16232000Y-10590000D02*
X16202000Y-10620000D01*
X16236000Y-8361000D02*
X16266000Y-8391000D01*
X16266000Y-8361000D02*
X16236000Y-8391000D01*
X16291000Y-8011000D02*
X16321000Y-8041000D01*
X16321000Y-8011000D02*
X16291000Y-8041000D01*
X16314000Y-11233000D02*
X16344000Y-11263000D01*
X16344000Y-11233000D02*
X16314000Y-11263000D01*
X16340000Y-9072000D02*
X16370000Y-9102000D01*
X16370000Y-9072000D02*
X16340000Y-9102000D01*
X16340000Y-10588000D02*
X16370000Y-10618000D01*
X16370000Y-10588000D02*
X16340000Y-10618000D01*
X16382000Y-10811000D02*
X16412000Y-10841000D01*
X16412000Y-10811000D02*
X16382000Y-10841000D01*
X16431000Y-12166000D02*
X16461000Y-12196000D01*
X16461000Y-12166000D02*
X16431000Y-12196000D01*
X16445000Y-11468000D02*
X16475000Y-11498000D01*
X16475000Y-11468000D02*
X16445000Y-11498000D01*
X16492000Y-11566000D02*
X16522000Y-11596000D01*
X16522000Y-11566000D02*
X16492000Y-11596000D01*
X16495000Y-10761000D02*
X16525000Y-10791000D01*
X16525000Y-10761000D02*
X16495000Y-10791000D01*
X16544000Y-8011000D02*
X16574000Y-8041000D01*
X16574000Y-8011000D02*
X16544000Y-8041000D01*
X16550000Y-9071000D02*
X16580000Y-9101000D01*
X16580000Y-9071000D02*
X16550000Y-9101000D01*
X16557000Y-12092000D02*
X16587000Y-12122000D01*
X16587000Y-12092000D02*
X16557000Y-12122000D01*
X16557000Y-12192000D02*
X16587000Y-12222000D01*
X16587000Y-12192000D02*
X16557000Y-12222000D01*
X16557000Y-12292000D02*
X16587000Y-12322000D01*
X16587000Y-12292000D02*
X16557000Y-12322000D01*
X16557000Y-12392000D02*
X16587000Y-12422000D01*
X16587000Y-12392000D02*
X16557000Y-12422000D01*
X16567000Y-11689000D02*
X16597000Y-11719000D01*
X16597000Y-11689000D02*
X16567000Y-11719000D01*
X16664000Y-10012000D02*
X16694000Y-10042000D01*
X16694000Y-10012000D02*
X16664000Y-10042000D01*
X16672500Y-8575500D02*
X16702500Y-8605500D01*
X16702500Y-8575500D02*
X16672500Y-8605500D01*
X16701000Y-7272000D02*
X16731000Y-7302000D01*
X16731000Y-7272000D02*
X16701000Y-7302000D01*
X16730481Y-10420920D02*
X16760481Y-10450920D01*
X16760481Y-10420920D02*
X16730481Y-10450920D01*
X16762000Y-10029000D02*
X16792000Y-10059000D01*
X16792000Y-10029000D02*
X16762000Y-10059000D01*
X16763000Y-10337000D02*
X16793000Y-10367000D01*
X16793000Y-10337000D02*
X16763000Y-10367000D01*
X16812000Y-8419000D02*
X16842000Y-8449000D01*
X16842000Y-8419000D02*
X16812000Y-8449000D01*
X16907000Y-10031000D02*
X16937000Y-10061000D01*
X16937000Y-10031000D02*
X16907000Y-10061000D01*
X17045000Y-9304000D02*
X17075000Y-9334000D01*
X17075000Y-9304000D02*
X17045000Y-9334000D01*
X17059000Y-8577000D02*
X17089000Y-8607000D01*
X17089000Y-8577000D02*
X17059000Y-8607000D01*
X17059000Y-8810000D02*
X17089000Y-8840000D01*
X17089000Y-8810000D02*
X17059000Y-8840000D01*
X17122000Y-7274000D02*
X17152000Y-7304000D01*
X17152000Y-7274000D02*
X17122000Y-7304000D01*
X17203000Y-11787000D02*
X17233000Y-11817000D01*
X17233000Y-11787000D02*
X17203000Y-11817000D01*
X17211000Y-11056000D02*
X17241000Y-11086000D01*
X17241000Y-11056000D02*
X17211000Y-11086000D01*
X17272000Y-11407000D02*
X17302000Y-11437000D01*
X17302000Y-11407000D02*
X17272000Y-11437000D01*
X17303000Y-11787000D02*
X17333000Y-11817000D01*
X17333000Y-11787000D02*
X17303000Y-11817000D01*
X17309000Y-9928000D02*
X17339000Y-9958000D01*
X17339000Y-9928000D02*
X17309000Y-9958000D01*
X17403000Y-11787000D02*
X17433000Y-11817000D01*
X17433000Y-11787000D02*
X17403000Y-11817000D01*
X17409000Y-10980000D02*
X17439000Y-11010000D01*
X17439000Y-10980000D02*
X17409000Y-11010000D01*
X17415000Y-11421000D02*
X17445000Y-11451000D01*
X17445000Y-11421000D02*
X17415000Y-11451000D01*
X17425000Y-9921000D02*
X17455000Y-9951000D01*
X17455000Y-9921000D02*
X17425000Y-9951000D01*
X17503000Y-7041000D02*
X17533000Y-7071000D01*
X17533000Y-7041000D02*
X17503000Y-7071000D01*
X17503000Y-11787000D02*
X17533000Y-11817000D01*
X17533000Y-11787000D02*
X17503000Y-11817000D01*
X17535000Y-10026000D02*
X17565000Y-10056000D01*
X17565000Y-10026000D02*
X17535000Y-10056000D01*
X17550000Y-11376000D02*
X17580000Y-11406000D01*
X17580000Y-11376000D02*
X17550000Y-11406000D01*
X17582000Y-10611000D02*
X17612000Y-10641000D01*
X17612000Y-10611000D02*
X17582000Y-10641000D01*
X17603000Y-11787000D02*
X17633000Y-11817000D01*
X17633000Y-11787000D02*
X17603000Y-11817000D01*
X17644000Y-8654000D02*
X17674000Y-8684000D01*
X17674000Y-8654000D02*
X17644000Y-8684000D01*
X17690000Y-11043000D02*
X17720000Y-11073000D01*
X17720000Y-11043000D02*
X17690000Y-11073000D01*
X17703000Y-11787000D02*
X17733000Y-11817000D01*
X17733000Y-11787000D02*
X17703000Y-11817000D01*
X17745000Y-8221000D02*
X17775000Y-8251000D01*
X17775000Y-8221000D02*
X17745000Y-8251000D01*
X17751000Y-10857000D02*
X17781000Y-10887000D01*
X17781000Y-10857000D02*
X17751000Y-10887000D01*
X17783000Y-10603000D02*
X17813000Y-10633000D01*
X17813000Y-10603000D02*
X17783000Y-10633000D01*
X17803000Y-11787000D02*
X17833000Y-11817000D01*
X17833000Y-11787000D02*
X17803000Y-11817000D01*
X17810000Y-8914000D02*
X17840000Y-8944000D01*
X17840000Y-8914000D02*
X17810000Y-8944000D01*
X17841000Y-10857000D02*
X17871000Y-10887000D01*
X17871000Y-10857000D02*
X17841000Y-10887000D01*
X17903000Y-11787000D02*
X17933000Y-11817000D01*
X17933000Y-11787000D02*
X17903000Y-11817000D01*
X17905000Y-7268000D02*
X17935000Y-7298000D01*
X17935000Y-7268000D02*
X17905000Y-7298000D01*
X17956000Y-10592000D02*
X17986000Y-10622000D01*
X17986000Y-10592000D02*
X17956000Y-10622000D01*
X17956000Y-10797000D02*
X17986000Y-10827000D01*
X17986000Y-10797000D02*
X17956000Y-10827000D01*
X18001000Y-11178000D02*
X18031000Y-11208000D01*
X18031000Y-11178000D02*
X18001000Y-11208000D01*
X18004000Y-11306000D02*
X18034000Y-11336000D01*
X18034000Y-11306000D02*
X18004000Y-11336000D01*
X18050000Y-9905000D02*
X18080000Y-9935000D01*
X18080000Y-9905000D02*
X18050000Y-9935000D01*
X18126000Y-11782000D02*
X18156000Y-11812000D01*
X18156000Y-11782000D02*
X18126000Y-11812000D01*
X18198000Y-9929000D02*
X18228000Y-9959000D01*
X18228000Y-9929000D02*
X18198000Y-9959000D01*
X18249000Y-11431000D02*
X18279000Y-11461000D01*
X18279000Y-11431000D02*
X18249000Y-11461000D01*
X18253000Y-11049000D02*
X18283000Y-11079000D01*
X18283000Y-11049000D02*
X18253000Y-11079000D01*
X18304000Y-7273000D02*
X18334000Y-7303000D01*
X18334000Y-7273000D02*
X18304000Y-7303000D01*
X18379000Y-9737000D02*
X18409000Y-9767000D01*
X18409000Y-9737000D02*
X18379000Y-9767000D01*
X18427000Y-8875000D02*
X18457000Y-8905000D01*
X18457000Y-8875000D02*
X18427000Y-8905000D01*
X18436000Y-10296000D02*
X18466000Y-10326000D01*
X18466000Y-10296000D02*
X18436000Y-10326000D01*
X18485000Y-10788000D02*
X18515000Y-10818000D01*
X18515000Y-10788000D02*
X18485000Y-10818000D01*
X18512000Y-10045000D02*
X18542000Y-10075000D01*
X18542000Y-10045000D02*
X18512000Y-10075000D01*
X18523000Y-11059000D02*
X18553000Y-11089000D01*
X18553000Y-11059000D02*
X18523000Y-11089000D01*
X18536000Y-11351000D02*
X18566000Y-11381000D01*
X18566000Y-11351000D02*
X18536000Y-11381000D01*
X18551500Y-10857500D02*
X18581500Y-10887500D01*
X18581500Y-10857500D02*
X18551500Y-10887500D01*
X18581000Y-11492000D02*
X18611000Y-11522000D01*
X18611000Y-11492000D02*
X18581000Y-11522000D01*
X18617000Y-10044000D02*
X18647000Y-10074000D01*
X18647000Y-10044000D02*
X18617000Y-10074000D01*
X18665000Y-11362000D02*
X18695000Y-11392000D01*
X18695000Y-11362000D02*
X18665000Y-11392000D01*
X18681000Y-11492000D02*
X18711000Y-11522000D01*
X18711000Y-11492000D02*
X18681000Y-11522000D01*
X18706949Y-10047032D02*
X18736949Y-10077032D01*
X18736949Y-10047032D02*
X18706949Y-10077032D01*
X18707000Y-7273000D02*
X18737000Y-7303000D01*
X18737000Y-7273000D02*
X18707000Y-7303000D01*
X18719000Y-11290000D02*
X18749000Y-11320000D01*
X18749000Y-11290000D02*
X18719000Y-11320000D01*
X18725000Y-8952000D02*
X18755000Y-8982000D01*
X18755000Y-8952000D02*
X18725000Y-8982000D01*
X18725000Y-9052000D02*
X18755000Y-9082000D01*
X18755000Y-9052000D02*
X18725000Y-9082000D01*
X18725000Y-9138000D02*
X18755000Y-9168000D01*
X18755000Y-9138000D02*
X18725000Y-9168000D01*
X18725000Y-9238000D02*
X18755000Y-9268000D01*
X18755000Y-9238000D02*
X18725000Y-9268000D01*
X18726000Y-8859000D02*
X18756000Y-8889000D01*
X18756000Y-8859000D02*
X18726000Y-8889000D01*
X18781000Y-11492000D02*
X18811000Y-11522000D01*
X18811000Y-11492000D02*
X18781000Y-11522000D01*
X18816000Y-8952000D02*
X18846000Y-8982000D01*
X18846000Y-8952000D02*
X18816000Y-8982000D01*
X18816000Y-9052000D02*
X18846000Y-9082000D01*
X18846000Y-9052000D02*
X18816000Y-9082000D01*
X18817000Y-8859000D02*
X18847000Y-8889000D01*
X18847000Y-8859000D02*
X18817000Y-8889000D01*
X18916000Y-8952000D02*
X18946000Y-8982000D01*
X18946000Y-8952000D02*
X18916000Y-8982000D01*
X18916000Y-9052000D02*
X18946000Y-9082000D01*
X18946000Y-9052000D02*
X18916000Y-9082000D01*
X18965000Y-10072000D02*
X18995000Y-10102000D01*
X18995000Y-10072000D02*
X18965000Y-10102000D01*
X18977000Y-8803000D02*
X19007000Y-8833000D01*
X19007000Y-8803000D02*
X18977000Y-8833000D01*
X19002000Y-8952000D02*
X19032000Y-8982000D01*
X19032000Y-8952000D02*
X19002000Y-8982000D01*
X19002000Y-9052000D02*
X19032000Y-9082000D01*
X19032000Y-9052000D02*
X19002000Y-9082000D01*
X19040000Y-9220000D02*
X19070000Y-9250000D01*
X19070000Y-9220000D02*
X19040000Y-9250000D01*
X19061000Y-8419000D02*
X19091000Y-8449000D01*
X19091000Y-8419000D02*
X19061000Y-8449000D01*
X19086000Y-7281000D02*
X19116000Y-7311000D01*
X19116000Y-7281000D02*
X19086000Y-7311000D01*
X19102000Y-8952000D02*
X19132000Y-8982000D01*
X19132000Y-8952000D02*
X19102000Y-8982000D01*
X19102000Y-9052000D02*
X19132000Y-9082000D01*
X19132000Y-9052000D02*
X19102000Y-9082000D01*
X19145000Y-9768000D02*
X19175000Y-9798000D01*
X19175000Y-9768000D02*
X19145000Y-9798000D01*
X19294000Y-8993000D02*
X19324000Y-9023000D01*
X19324000Y-8993000D02*
X19294000Y-9023000D01*
X19335000Y-8196000D02*
X19365000Y-8226000D01*
X19365000Y-8196000D02*
X19335000Y-8226000D01*
X19351000Y-10224000D02*
X19381000Y-10254000D01*
X19381000Y-10224000D02*
X19351000Y-10254000D01*
X19478000Y-8842000D02*
X19508000Y-8872000D01*
X19508000Y-8842000D02*
X19478000Y-8872000D01*
X19478000Y-8942000D02*
X19508000Y-8972000D01*
X19508000Y-8942000D02*
X19478000Y-8972000D01*
X19478000Y-9028000D02*
X19508000Y-9058000D01*
X19508000Y-9028000D02*
X19478000Y-9058000D01*
X19478000Y-9128000D02*
X19508000Y-9158000D01*
X19508000Y-9128000D02*
X19478000Y-9158000D01*
X19533000Y-9555000D02*
X19563000Y-9585000D01*
X19563000Y-9555000D02*
X19533000Y-9585000D01*
X19654000Y-8660000D02*
X19684000Y-8690000D01*
X19684000Y-8660000D02*
X19654000Y-8690000D01*
X19654000Y-8896000D02*
X19684000Y-8926000D01*
X19684000Y-8896000D02*
X19654000Y-8926000D01*
X19729000Y-11516000D02*
X19759000Y-11546000D01*
X19759000Y-11516000D02*
X19729000Y-11546000D01*
X19746000Y-11215000D02*
X19776000Y-11245000D01*
X19776000Y-11215000D02*
X19746000Y-11245000D01*
X19876000Y-11782000D02*
X19906000Y-11812000D01*
X19906000Y-11782000D02*
X19876000Y-11812000D01*
X19879000Y-9901000D02*
X19909000Y-9931000D01*
X19909000Y-9901000D02*
X19879000Y-9931000D01*
X19976000Y-9813000D02*
X20006000Y-9843000D01*
X20006000Y-9813000D02*
X19976000Y-9843000D01*
X18946500Y-10889250D02*
G75*
G02*
X18916500Y-10889250I-15000J0D01*
G01*
X18916500Y-10889250D02*
G75*
G02*
X18946500Y-10889250I15000J0D01*
G01*
X18946500Y-11041750D02*
G75*
G02*
X18916500Y-11041750I-15000J0D01*
G01*
X18916500Y-11041750D02*
G75*
G02*
X18946500Y-11041750I15000J0D01*
G01*
X19022750Y-10813000D02*
G75*
G02*
X18992750Y-10813000I-15000J0D01*
G01*
X18992750Y-10813000D02*
G75*
G02*
X19022750Y-10813000I15000J0D01*
G01*
X19022750Y-10965500D02*
G75*
G02*
X18992750Y-10965500I-15000J0D01*
G01*
X18992750Y-10965500D02*
G75*
G02*
X19022750Y-10965500I15000J0D01*
G01*
X19022750Y-11118000D02*
G75*
G02*
X18992750Y-11118000I-15000J0D01*
G01*
X18992750Y-11118000D02*
G75*
G02*
X19022750Y-11118000I15000J0D01*
G01*
X19099000Y-10889250D02*
G75*
G02*
X19069000Y-10889250I-15000J0D01*
G01*
X19069000Y-10889250D02*
G75*
G02*
X19099000Y-10889250I15000J0D01*
G01*
X19099000Y-11041750D02*
G75*
G02*
X19069000Y-11041750I-15000J0D01*
G01*
X19069000Y-11041750D02*
G75*
G02*
X19099000Y-11041750I15000J0D01*
G01*
X19175250Y-10813000D02*
G75*
G02*
X19145250Y-10813000I-15000J0D01*
G01*
X19145250Y-10813000D02*
G75*
G02*
X19175250Y-10813000I15000J0D01*
G01*
X19175250Y-10965500D02*
G75*
G02*
X19145250Y-10965500I-15000J0D01*
G01*
X19145250Y-10965500D02*
G75*
G02*
X19175250Y-10965500I15000J0D01*
G01*
X19175250Y-11118000D02*
G75*
G02*
X19145250Y-11118000I-15000J0D01*
G01*
X19145250Y-11118000D02*
G75*
G02*
X19175250Y-11118000I15000J0D01*
G01*
X19251500Y-10889250D02*
G75*
G02*
X19221500Y-10889250I-15000J0D01*
G01*
X19221500Y-10889250D02*
G75*
G02*
X19251500Y-10889250I15000J0D01*
G01*
X19251500Y-11041750D02*
G75*
G02*
X19221500Y-11041750I-15000J0D01*
G01*
X19221500Y-11041750D02*
G75*
G02*
X19251500Y-11041750I15000J0D01*
G01*
X15752000Y-8355000D02*
X15752000Y-8395000D01*
X15732000Y-8375000D02*
X15772000Y-8375000D01*
X16060000Y-9300000D02*
X16060000Y-9340000D01*
X16040000Y-9320000D02*
X16080000Y-9320000D01*
X16433000Y-7907000D02*
X16433000Y-7947000D01*
X16413000Y-7927000D02*
X16453000Y-7927000D01*
X16433000Y-8122000D02*
X16433000Y-8162000D01*
X16413000Y-8142000D02*
X16453000Y-8142000D01*
X16870000Y-10651000D02*
X16870000Y-10691000D01*
X16850000Y-10671000D02*
X16890000Y-10671000D01*
X16870000Y-10872000D02*
X16870000Y-10912000D01*
X16850000Y-10892000D02*
X16890000Y-10892000D01*
X18361000Y-11739000D02*
X18361000Y-11779000D01*
X18341000Y-11759000D02*
X18381000Y-11759000D01*
X18615000Y-11739000D02*
X18615000Y-11779000D01*
X18595000Y-11759000D02*
X18635000Y-11759000D01*
X18869000Y-11739000D02*
X18869000Y-11779000D01*
X18849000Y-11759000D02*
X18889000Y-11759000D01*
X19123000Y-11739000D02*
X19123000Y-11779000D01*
X19103000Y-11759000D02*
X19143000Y-11759000D01*
X19377000Y-11739000D02*
X19377000Y-11779000D01*
X19357000Y-11759000D02*
X19397000Y-11759000D01*
X19631000Y-11739000D02*
X19631000Y-11779000D01*
X19611000Y-11759000D02*
X19651000Y-11759000D01*
X16652142Y-11432142D02*
X16652142Y-11403858D01*
X16623858Y-11403858D01*
X16623858Y-11432142D01*
X16652142Y-11432142D01*
X16700470Y-11315470D02*
X16700470Y-11287185D01*
X16672185Y-11287185D01*
X16672185Y-11315470D01*
X16700470Y-11315470D01*
X16700470Y-11548815D02*
X16700470Y-11520530D01*
X16672185Y-11520530D01*
X16672185Y-11548815D01*
X16700470Y-11548815D01*
X16817142Y-11267142D02*
X16817142Y-11238858D01*
X16788858Y-11238858D01*
X16788858Y-11267142D01*
X16817142Y-11267142D01*
X16817142Y-11597142D02*
X16817142Y-11568858D01*
X16788858Y-11568858D01*
X16788858Y-11597142D01*
X16817142Y-11597142D01*
X16933815Y-11315470D02*
X16933815Y-11287185D01*
X16905530Y-11287185D01*
X16905530Y-11315470D01*
X16933815Y-11315470D01*
X16933815Y-11548815D02*
X16933815Y-11520530D01*
X16905530Y-11520530D01*
X16905530Y-11548815D01*
X16933815Y-11548815D01*
X16982142Y-11432142D02*
X16982142Y-11403858D01*
X16953858Y-11403858D01*
X16953858Y-11432142D01*
X16982142Y-11432142D01*
X19628142Y-7316142D02*
X19628142Y-7287858D01*
X19599858Y-7287858D01*
X19599858Y-7316142D01*
X19628142Y-7316142D01*
X19676470Y-7199470D02*
X19676470Y-7171185D01*
X19648185Y-7171185D01*
X19648185Y-7199470D01*
X19676470Y-7199470D01*
X19676470Y-7432815D02*
X19676470Y-7404530D01*
X19648185Y-7404530D01*
X19648185Y-7432815D01*
X19676470Y-7432815D01*
X19793142Y-7151142D02*
X19793142Y-7122858D01*
X19764858Y-7122858D01*
X19764858Y-7151142D01*
X19793142Y-7151142D01*
X19793142Y-7481142D02*
X19793142Y-7452858D01*
X19764858Y-7452858D01*
X19764858Y-7481142D01*
X19793142Y-7481142D01*
X19909815Y-7199470D02*
X19909815Y-7171185D01*
X19881530Y-7171185D01*
X19881530Y-7199470D01*
X19909815Y-7199470D01*
X19909815Y-7432815D02*
X19909815Y-7404530D01*
X19881530Y-7404530D01*
X19881530Y-7432815D01*
X19909815Y-7432815D01*
X19958142Y-7316142D02*
X19958142Y-7287858D01*
X19929858Y-7287858D01*
X19929858Y-7316142D01*
X19958142Y-7316142D01*
X15821000Y-9800000D02*
X15866000Y-9755000D01*
X15821000Y-9710000D01*
X15776000Y-9755000D01*
X15821000Y-9800000D01*
X15821000Y-10000000D02*
X15866000Y-9955000D01*
X15821000Y-9910000D01*
X15776000Y-9955000D01*
X15821000Y-10000000D01*
X15821000Y-10200000D02*
X15866000Y-10155000D01*
X15821000Y-10110000D01*
X15776000Y-10155000D01*
X15821000Y-10200000D01*
X16421000Y-9364000D02*
X16521000Y-9464000D01*
X16521000Y-9364000D02*
X16421000Y-9464000D01*
X16521000Y-9414000D02*
G75*
G02*
X16421000Y-9414000I-50000J0D01*
G01*
X16421000Y-9414000D02*
G75*
G02*
X16521000Y-9414000I50000J0D01*
G01*
X16421000Y-9618000D02*
X16521000Y-9718000D01*
X16521000Y-9618000D02*
X16421000Y-9718000D01*
X16521000Y-9668000D02*
G75*
G02*
X16421000Y-9668000I-50000J0D01*
G01*
X16421000Y-9668000D02*
G75*
G02*
X16521000Y-9668000I50000J0D01*
G01*
X16421000Y-9872000D02*
X16521000Y-9972000D01*
X16521000Y-9872000D02*
X16421000Y-9972000D01*
X16521000Y-9922000D02*
G75*
G02*
X16421000Y-9922000I-50000J0D01*
G01*
X16421000Y-9922000D02*
G75*
G02*
X16521000Y-9922000I50000J0D01*
G01*
X16421000Y-10126000D02*
X16521000Y-10226000D01*
X16521000Y-10126000D02*
X16421000Y-10226000D01*
X16521000Y-10176000D02*
G75*
G02*
X16421000Y-10176000I-50000J0D01*
G01*
X16421000Y-10176000D02*
G75*
G02*
X16521000Y-10176000I50000J0D01*
G01*
X16421000Y-10380000D02*
X16521000Y-10480000D01*
X16521000Y-10380000D02*
X16421000Y-10480000D01*
X16521000Y-10430000D02*
G75*
G02*
X16421000Y-10430000I-50000J0D01*
G01*
X16421000Y-10430000D02*
G75*
G02*
X16521000Y-10430000I50000J0D01*
G01*
X19813000Y-8480000D02*
X19913000Y-8580000D01*
X19913000Y-8480000D02*
X19813000Y-8580000D01*
X19913000Y-8530000D02*
G75*
G02*
X19813000Y-8530000I-50000J0D01*
G01*
X19813000Y-8530000D02*
G75*
G02*
X19913000Y-8530000I50000J0D01*
G01*
X19813000Y-8734000D02*
X19913000Y-8834000D01*
X19913000Y-8734000D02*
X19813000Y-8834000D01*
X19913000Y-8784000D02*
G75*
G02*
X19813000Y-8784000I-50000J0D01*
G01*
X19813000Y-8784000D02*
G75*
G02*
X19913000Y-8784000I50000J0D01*
G01*
X19813000Y-8988000D02*
X19913000Y-9088000D01*
X19913000Y-8988000D02*
X19813000Y-9088000D01*
X19913000Y-9038000D02*
G75*
G02*
X19813000Y-9038000I-50000J0D01*
G01*
X19813000Y-9038000D02*
G75*
G02*
X19913000Y-9038000I50000J0D01*
G01*
X19813000Y-9242000D02*
X19913000Y-9342000D01*
X19913000Y-9242000D02*
X19813000Y-9342000D01*
X19913000Y-9292000D02*
G75*
G02*
X19813000Y-9292000I-50000J0D01*
G01*
X19813000Y-9292000D02*
G75*
G02*
X19913000Y-9292000I50000J0D01*
G01*
X19813000Y-9496000D02*
X19913000Y-9596000D01*
X19913000Y-9496000D02*
X19813000Y-9596000D01*
X19913000Y-9546000D02*
G75*
G02*
X19813000Y-9546000I-50000J0D01*
G01*
X19813000Y-9546000D02*
G75*
G02*
X19913000Y-9546000I50000J0D01*
G01*
D13*
X15912500Y-7077500D02*
X16017500Y-7182500D01*
X16017500Y-7077500D02*
X15912500Y-7182500D01*
X15965000Y-7077500D02*
X15965000Y-7182500D01*
X15912500Y-7130000D02*
X16017500Y-7130000D01*
X15912500Y-7577500D02*
X16017500Y-7682500D01*
X16017500Y-7577500D02*
X15912500Y-7682500D01*
X15965000Y-7577500D02*
X15965000Y-7682500D01*
X15912500Y-7630000D02*
X16017500Y-7630000D01*
X15912500Y-8577500D02*
X16017500Y-8682500D01*
X16017500Y-8577500D02*
X15912500Y-8682500D01*
X15965000Y-8577500D02*
X15965000Y-8682500D01*
X15912500Y-8630000D02*
X16017500Y-8630000D01*
X15912500Y-9077500D02*
X16017500Y-9182500D01*
X16017500Y-9077500D02*
X15912500Y-9182500D01*
X15965000Y-9077500D02*
X15965000Y-9182500D01*
X15912500Y-9130000D02*
X16017500Y-9130000D01*
D14*
X15746000Y-9470000D02*
X15896000Y-9620000D01*
X15896000Y-9470000D02*
X15746000Y-9620000D01*
X15874033Y-9598034D02*
X15874033Y-9491967D01*
X15767966Y-9491967D01*
X15767966Y-9598034D01*
X15874033Y-9598034D01*
X15746000Y-10290000D02*
X15896000Y-10440000D01*
X15896000Y-10290000D02*
X15746000Y-10440000D01*
X15874033Y-10418034D02*
X15874033Y-10311967D01*
X15767966Y-10311967D01*
X15767966Y-10418034D01*
X15874033Y-10418034D01*
X16443000Y-7071000D02*
X16593000Y-7221000D01*
X16593000Y-7071000D02*
X16443000Y-7221000D01*
X16571033Y-7199033D02*
X16571033Y-7092966D01*
X16464966Y-7092966D01*
X16464966Y-7199033D01*
X16571033Y-7199033D01*
X16443000Y-7371000D02*
X16593000Y-7521000D01*
X16593000Y-7371000D02*
X16443000Y-7521000D01*
X16571033Y-7499033D02*
X16571033Y-7392966D01*
X16464966Y-7392966D01*
X16464966Y-7499033D01*
X16571033Y-7499033D01*
X16843000Y-7071000D02*
X16993000Y-7221000D01*
X16993000Y-7071000D02*
X16843000Y-7221000D01*
X16971034Y-7199033D02*
X16971034Y-7092966D01*
X16864967Y-7092966D01*
X16864967Y-7199033D01*
X16971034Y-7199033D01*
X16843000Y-7371000D02*
X16993000Y-7521000D01*
X16993000Y-7371000D02*
X16843000Y-7521000D01*
X16971034Y-7499033D02*
X16971034Y-7392966D01*
X16864967Y-7392966D01*
X16864967Y-7499033D01*
X16971034Y-7499033D01*
X17243000Y-7071000D02*
X17393000Y-7221000D01*
X17393000Y-7071000D02*
X17243000Y-7221000D01*
X17371034Y-7199033D02*
X17371034Y-7092966D01*
X17264967Y-7092966D01*
X17264967Y-7199033D01*
X17371034Y-7199033D01*
X17243000Y-7371000D02*
X17393000Y-7521000D01*
X17393000Y-7371000D02*
X17243000Y-7521000D01*
X17371034Y-7499033D02*
X17371034Y-7392966D01*
X17264967Y-7392966D01*
X17264967Y-7499033D01*
X17371034Y-7499033D01*
X17643000Y-7071000D02*
X17793000Y-7221000D01*
X17793000Y-7071000D02*
X17643000Y-7221000D01*
X17771034Y-7199033D02*
X17771034Y-7092966D01*
X17664967Y-7092966D01*
X17664967Y-7199033D01*
X17771034Y-7199033D01*
X17643000Y-7371000D02*
X17793000Y-7521000D01*
X17793000Y-7371000D02*
X17643000Y-7521000D01*
X17771034Y-7499033D02*
X17771034Y-7392966D01*
X17664967Y-7392966D01*
X17664967Y-7499033D01*
X17771034Y-7499033D01*
X18043000Y-7071000D02*
X18193000Y-7221000D01*
X18193000Y-7071000D02*
X18043000Y-7221000D01*
X18171034Y-7199033D02*
X18171034Y-7092966D01*
X18064967Y-7092966D01*
X18064967Y-7199033D01*
X18171034Y-7199033D01*
X18043000Y-7371000D02*
X18193000Y-7521000D01*
X18193000Y-7371000D02*
X18043000Y-7521000D01*
X18171034Y-7499033D02*
X18171034Y-7392966D01*
X18064967Y-7392966D01*
X18064967Y-7499033D01*
X18171034Y-7499033D01*
X18443000Y-7071000D02*
X18593000Y-7221000D01*
X18593000Y-7071000D02*
X18443000Y-7221000D01*
X18571034Y-7199033D02*
X18571034Y-7092966D01*
X18464967Y-7092966D01*
X18464967Y-7199033D01*
X18571034Y-7199033D01*
X18443000Y-7371000D02*
X18593000Y-7521000D01*
X18593000Y-7371000D02*
X18443000Y-7521000D01*
X18571034Y-7499033D02*
X18571034Y-7392966D01*
X18464967Y-7392966D01*
X18464967Y-7499033D01*
X18571034Y-7499033D01*
X18843000Y-7071000D02*
X18993000Y-7221000D01*
X18993000Y-7071000D02*
X18843000Y-7221000D01*
X18971034Y-7199033D02*
X18971034Y-7092966D01*
X18864967Y-7092966D01*
X18864967Y-7199033D01*
X18971034Y-7199033D01*
X18843000Y-7371000D02*
X18993000Y-7521000D01*
X18993000Y-7371000D02*
X18843000Y-7521000D01*
X18971034Y-7499033D02*
X18971034Y-7392966D01*
X18864967Y-7392966D01*
X18864967Y-7499033D01*
X18971034Y-7499033D01*
X19243000Y-7071000D02*
X19393000Y-7221000D01*
X19393000Y-7071000D02*
X19243000Y-7221000D01*
X19371034Y-7199033D02*
X19371034Y-7092966D01*
X19264967Y-7092966D01*
X19264967Y-7199033D01*
X19371034Y-7199033D01*
X19243000Y-7371000D02*
X19393000Y-7521000D01*
X19393000Y-7371000D02*
X19243000Y-7521000D01*
X19371034Y-7499033D02*
X19371034Y-7392966D01*
X19264967Y-7392966D01*
X19264967Y-7499033D01*
X19371034Y-7499033D01*
D15*
X16693000Y-11308000D02*
X16913000Y-11528000D01*
X16913000Y-11308000D02*
X16693000Y-11528000D01*
X16803000Y-11528000D02*
X16913000Y-11418000D01*
X16803000Y-11308000D01*
X16693000Y-11418000D01*
X16803000Y-11528000D01*
X19669000Y-7192000D02*
X19889000Y-7412000D01*
X19889000Y-7192000D02*
X19669000Y-7412000D01*
X19779000Y-7412000D02*
X19889000Y-7302000D01*
X19779000Y-7192000D01*
X19669000Y-7302000D01*
X19779000Y-7412000D01*
D11*
X15866171Y-12790984D02*
X15866171Y-12590984D01*
X15866171Y-12590984D02*
X15913790Y-12590984D01*
X15913790Y-12590984D02*
X15942362Y-12600508D01*
X15942362Y-12600508D02*
X15961409Y-12619555D01*
X15961409Y-12619555D02*
X15970933Y-12638603D01*
X15970933Y-12638603D02*
X15980457Y-12676698D01*
X15980457Y-12676698D02*
X15980457Y-12705269D01*
X15980457Y-12705269D02*
X15970933Y-12743365D01*
X15970933Y-12743365D02*
X15961409Y-12762412D01*
X15961409Y-12762412D02*
X15942362Y-12781460D01*
X15942362Y-12781460D02*
X15913790Y-12790984D01*
X15913790Y-12790984D02*
X15866171Y-12790984D01*
X16066171Y-12790984D02*
X16066171Y-12657650D01*
X16066171Y-12695746D02*
X16075695Y-12676698D01*
X16075695Y-12676698D02*
X16085219Y-12667174D01*
X16085219Y-12667174D02*
X16104266Y-12657650D01*
X16104266Y-12657650D02*
X16123314Y-12657650D01*
X16189981Y-12790984D02*
X16189981Y-12657650D01*
X16189981Y-12590984D02*
X16180457Y-12600508D01*
X16180457Y-12600508D02*
X16189981Y-12610031D01*
X16189981Y-12610031D02*
X16199505Y-12600508D01*
X16199505Y-12600508D02*
X16189981Y-12590984D01*
X16189981Y-12590984D02*
X16189981Y-12610031D01*
X16313790Y-12790984D02*
X16294743Y-12781460D01*
X16294743Y-12781460D02*
X16285219Y-12762412D01*
X16285219Y-12762412D02*
X16285219Y-12590984D01*
X16418552Y-12790984D02*
X16399505Y-12781460D01*
X16399505Y-12781460D02*
X16389981Y-12762412D01*
X16389981Y-12762412D02*
X16389981Y-12590984D01*
X16647124Y-12790984D02*
X16647124Y-12590984D01*
X16647124Y-12590984D02*
X16713790Y-12733841D01*
X16713790Y-12733841D02*
X16780457Y-12590984D01*
X16780457Y-12590984D02*
X16780457Y-12790984D01*
X16961409Y-12790984D02*
X16961409Y-12686222D01*
X16961409Y-12686222D02*
X16951886Y-12667174D01*
X16951886Y-12667174D02*
X16932838Y-12657650D01*
X16932838Y-12657650D02*
X16894743Y-12657650D01*
X16894743Y-12657650D02*
X16875695Y-12667174D01*
X16961409Y-12781460D02*
X16942362Y-12790984D01*
X16942362Y-12790984D02*
X16894743Y-12790984D01*
X16894743Y-12790984D02*
X16875695Y-12781460D01*
X16875695Y-12781460D02*
X16866171Y-12762412D01*
X16866171Y-12762412D02*
X16866171Y-12743365D01*
X16866171Y-12743365D02*
X16875695Y-12724317D01*
X16875695Y-12724317D02*
X16894743Y-12714793D01*
X16894743Y-12714793D02*
X16942362Y-12714793D01*
X16942362Y-12714793D02*
X16961409Y-12705269D01*
X17056648Y-12657650D02*
X17056648Y-12857650D01*
X17056648Y-12667174D02*
X17075695Y-12657650D01*
X17075695Y-12657650D02*
X17113790Y-12657650D01*
X17113790Y-12657650D02*
X17132838Y-12667174D01*
X17132838Y-12667174D02*
X17142362Y-12676698D01*
X17142362Y-12676698D02*
X17151886Y-12695746D01*
X17151886Y-12695746D02*
X17151886Y-12752888D01*
X17151886Y-12752888D02*
X17142362Y-12771936D01*
X17142362Y-12771936D02*
X17132838Y-12781460D01*
X17132838Y-12781460D02*
X17113790Y-12790984D01*
X17113790Y-12790984D02*
X17075695Y-12790984D01*
X17075695Y-12790984D02*
X17056648Y-12781460D01*
X17237600Y-12771936D02*
X17247124Y-12781460D01*
X17247124Y-12781460D02*
X17237600Y-12790984D01*
X17237600Y-12790984D02*
X17228076Y-12781460D01*
X17228076Y-12781460D02*
X17237600Y-12771936D01*
X17237600Y-12771936D02*
X17237600Y-12790984D01*
X17237600Y-12667174D02*
X17247124Y-12676698D01*
X17247124Y-12676698D02*
X17237600Y-12686222D01*
X17237600Y-12686222D02*
X17228076Y-12676698D01*
X17228076Y-12676698D02*
X17237600Y-12667174D01*
X17237600Y-12667174D02*
X17237600Y-12686222D01*
D12*
X15575394Y-13104500D02*
X15605394Y-13134500D01*
X15605394Y-13104500D02*
X15575394Y-13134500D01*
D11*
X15904266Y-13010984D02*
X15923314Y-13010984D01*
X15923314Y-13010984D02*
X15942362Y-13020508D01*
X15942362Y-13020508D02*
X15951886Y-13030031D01*
X15951886Y-13030031D02*
X15961409Y-13049079D01*
X15961409Y-13049079D02*
X15970933Y-13087174D01*
X15970933Y-13087174D02*
X15970933Y-13134793D01*
X15970933Y-13134793D02*
X15961409Y-13172888D01*
X15961409Y-13172888D02*
X15951886Y-13191936D01*
X15951886Y-13191936D02*
X15942362Y-13201460D01*
X15942362Y-13201460D02*
X15923314Y-13210984D01*
X15923314Y-13210984D02*
X15904266Y-13210984D01*
X15904266Y-13210984D02*
X15885219Y-13201460D01*
X15885219Y-13201460D02*
X15875695Y-13191936D01*
X15875695Y-13191936D02*
X15866171Y-13172888D01*
X15866171Y-13172888D02*
X15856647Y-13134793D01*
X15856647Y-13134793D02*
X15856647Y-13087174D01*
X15856647Y-13087174D02*
X15866171Y-13049079D01*
X15866171Y-13049079D02*
X15875695Y-13030031D01*
X15875695Y-13030031D02*
X15885219Y-13020508D01*
X15885219Y-13020508D02*
X15904266Y-13010984D01*
X16056647Y-13191936D02*
X16066171Y-13201460D01*
X16066171Y-13201460D02*
X16056647Y-13210984D01*
X16056647Y-13210984D02*
X16047124Y-13201460D01*
X16047124Y-13201460D02*
X16056647Y-13191936D01*
X16056647Y-13191936D02*
X16056647Y-13210984D01*
X16132838Y-13010984D02*
X16256647Y-13010984D01*
X16256647Y-13010984D02*
X16189981Y-13087174D01*
X16189981Y-13087174D02*
X16218552Y-13087174D01*
X16218552Y-13087174D02*
X16237600Y-13096698D01*
X16237600Y-13096698D02*
X16247124Y-13106222D01*
X16247124Y-13106222D02*
X16256647Y-13125269D01*
X16256647Y-13125269D02*
X16256647Y-13172888D01*
X16256647Y-13172888D02*
X16247124Y-13191936D01*
X16247124Y-13191936D02*
X16237600Y-13201460D01*
X16237600Y-13201460D02*
X16218552Y-13210984D01*
X16218552Y-13210984D02*
X16161409Y-13210984D01*
X16161409Y-13210984D02*
X16142362Y-13201460D01*
X16142362Y-13201460D02*
X16132838Y-13191936D01*
X16380457Y-13010984D02*
X16399505Y-13010984D01*
X16399505Y-13010984D02*
X16418552Y-13020508D01*
X16418552Y-13020508D02*
X16428076Y-13030031D01*
X16428076Y-13030031D02*
X16437600Y-13049079D01*
X16437600Y-13049079D02*
X16447124Y-13087174D01*
X16447124Y-13087174D02*
X16447124Y-13134793D01*
X16447124Y-13134793D02*
X16437600Y-13172888D01*
X16437600Y-13172888D02*
X16428076Y-13191936D01*
X16428076Y-13191936D02*
X16418552Y-13201460D01*
X16418552Y-13201460D02*
X16399505Y-13210984D01*
X16399505Y-13210984D02*
X16380457Y-13210984D01*
X16380457Y-13210984D02*
X16361409Y-13201460D01*
X16361409Y-13201460D02*
X16351886Y-13191936D01*
X16351886Y-13191936D02*
X16342362Y-13172888D01*
X16342362Y-13172888D02*
X16332838Y-13134793D01*
X16332838Y-13134793D02*
X16332838Y-13087174D01*
X16332838Y-13087174D02*
X16342362Y-13049079D01*
X16342362Y-13049079D02*
X16351886Y-13030031D01*
X16351886Y-13030031D02*
X16361409Y-13020508D01*
X16361409Y-13020508D02*
X16380457Y-13010984D01*
X16570933Y-13010984D02*
X16589981Y-13010984D01*
X16589981Y-13010984D02*
X16609028Y-13020508D01*
X16609028Y-13020508D02*
X16618552Y-13030031D01*
X16618552Y-13030031D02*
X16628076Y-13049079D01*
X16628076Y-13049079D02*
X16637600Y-13087174D01*
X16637600Y-13087174D02*
X16637600Y-13134793D01*
X16637600Y-13134793D02*
X16628076Y-13172888D01*
X16628076Y-13172888D02*
X16618552Y-13191936D01*
X16618552Y-13191936D02*
X16609028Y-13201460D01*
X16609028Y-13201460D02*
X16589981Y-13210984D01*
X16589981Y-13210984D02*
X16570933Y-13210984D01*
X16570933Y-13210984D02*
X16551886Y-13201460D01*
X16551886Y-13201460D02*
X16542362Y-13191936D01*
X16542362Y-13191936D02*
X16532838Y-13172888D01*
X16532838Y-13172888D02*
X16523314Y-13134793D01*
X16523314Y-13134793D02*
X16523314Y-13087174D01*
X16523314Y-13087174D02*
X16532838Y-13049079D01*
X16532838Y-13049079D02*
X16542362Y-13030031D01*
X16542362Y-13030031D02*
X16551886Y-13020508D01*
X16551886Y-13020508D02*
X16570933Y-13010984D01*
X16723314Y-13210984D02*
X16723314Y-13077650D01*
X16723314Y-13096698D02*
X16732838Y-13087174D01*
X16732838Y-13087174D02*
X16751886Y-13077650D01*
X16751886Y-13077650D02*
X16780457Y-13077650D01*
X16780457Y-13077650D02*
X16799505Y-13087174D01*
X16799505Y-13087174D02*
X16809029Y-13106222D01*
X16809029Y-13106222D02*
X16809029Y-13210984D01*
X16809029Y-13106222D02*
X16818552Y-13087174D01*
X16818552Y-13087174D02*
X16837600Y-13077650D01*
X16837600Y-13077650D02*
X16866171Y-13077650D01*
X16866171Y-13077650D02*
X16885219Y-13087174D01*
X16885219Y-13087174D02*
X16894743Y-13106222D01*
X16894743Y-13106222D02*
X16894743Y-13210984D01*
X16989981Y-13210984D02*
X16989981Y-13077650D01*
X16989981Y-13096698D02*
X16999505Y-13087174D01*
X16999505Y-13087174D02*
X17018552Y-13077650D01*
X17018552Y-13077650D02*
X17047124Y-13077650D01*
X17047124Y-13077650D02*
X17066171Y-13087174D01*
X17066171Y-13087174D02*
X17075695Y-13106222D01*
X17075695Y-13106222D02*
X17075695Y-13210984D01*
X17075695Y-13106222D02*
X17085219Y-13087174D01*
X17085219Y-13087174D02*
X17104267Y-13077650D01*
X17104267Y-13077650D02*
X17132838Y-13077650D01*
X17132838Y-13077650D02*
X17151886Y-13087174D01*
X17151886Y-13087174D02*
X17161410Y-13106222D01*
X17161410Y-13106222D02*
X17161410Y-13210984D01*
X17551886Y-13001460D02*
X17380457Y-13258603D01*
X17809029Y-13010984D02*
X17828076Y-13010984D01*
X17828076Y-13010984D02*
X17847124Y-13020508D01*
X17847124Y-13020508D02*
X17856648Y-13030031D01*
X17856648Y-13030031D02*
X17866172Y-13049079D01*
X17866172Y-13049079D02*
X17875695Y-13087174D01*
X17875695Y-13087174D02*
X17875695Y-13134793D01*
X17875695Y-13134793D02*
X17866172Y-13172888D01*
X17866172Y-13172888D02*
X17856648Y-13191936D01*
X17856648Y-13191936D02*
X17847124Y-13201460D01*
X17847124Y-13201460D02*
X17828076Y-13210984D01*
X17828076Y-13210984D02*
X17809029Y-13210984D01*
X17809029Y-13210984D02*
X17789981Y-13201460D01*
X17789981Y-13201460D02*
X17780457Y-13191936D01*
X17780457Y-13191936D02*
X17770933Y-13172888D01*
X17770933Y-13172888D02*
X17761410Y-13134793D01*
X17761410Y-13134793D02*
X17761410Y-13087174D01*
X17761410Y-13087174D02*
X17770933Y-13049079D01*
X17770933Y-13049079D02*
X17780457Y-13030031D01*
X17780457Y-13030031D02*
X17789981Y-13020508D01*
X17789981Y-13020508D02*
X17809029Y-13010984D01*
X17961410Y-13191936D02*
X17970933Y-13201460D01*
X17970933Y-13201460D02*
X17961410Y-13210984D01*
X17961410Y-13210984D02*
X17951886Y-13201460D01*
X17951886Y-13201460D02*
X17961410Y-13191936D01*
X17961410Y-13191936D02*
X17961410Y-13210984D01*
X18094743Y-13010984D02*
X18113791Y-13010984D01*
X18113791Y-13010984D02*
X18132838Y-13020508D01*
X18132838Y-13020508D02*
X18142362Y-13030031D01*
X18142362Y-13030031D02*
X18151886Y-13049079D01*
X18151886Y-13049079D02*
X18161410Y-13087174D01*
X18161410Y-13087174D02*
X18161410Y-13134793D01*
X18161410Y-13134793D02*
X18151886Y-13172888D01*
X18151886Y-13172888D02*
X18142362Y-13191936D01*
X18142362Y-13191936D02*
X18132838Y-13201460D01*
X18132838Y-13201460D02*
X18113791Y-13210984D01*
X18113791Y-13210984D02*
X18094743Y-13210984D01*
X18094743Y-13210984D02*
X18075695Y-13201460D01*
X18075695Y-13201460D02*
X18066172Y-13191936D01*
X18066172Y-13191936D02*
X18056648Y-13172888D01*
X18056648Y-13172888D02*
X18047124Y-13134793D01*
X18047124Y-13134793D02*
X18047124Y-13087174D01*
X18047124Y-13087174D02*
X18056648Y-13049079D01*
X18056648Y-13049079D02*
X18066172Y-13030031D01*
X18066172Y-13030031D02*
X18075695Y-13020508D01*
X18075695Y-13020508D02*
X18094743Y-13010984D01*
X18351886Y-13210984D02*
X18237600Y-13210984D01*
X18294743Y-13210984D02*
X18294743Y-13010984D01*
X18294743Y-13010984D02*
X18275695Y-13039555D01*
X18275695Y-13039555D02*
X18256648Y-13058603D01*
X18256648Y-13058603D02*
X18237600Y-13068127D01*
X18542362Y-13210984D02*
X18428076Y-13210984D01*
X18485219Y-13210984D02*
X18485219Y-13010984D01*
X18485219Y-13010984D02*
X18466172Y-13039555D01*
X18466172Y-13039555D02*
X18447124Y-13058603D01*
X18447124Y-13058603D02*
X18428076Y-13068127D01*
X18656648Y-13096698D02*
X18637600Y-13087174D01*
X18637600Y-13087174D02*
X18628076Y-13077650D01*
X18628076Y-13077650D02*
X18618553Y-13058603D01*
X18618553Y-13058603D02*
X18618553Y-13049079D01*
X18618553Y-13049079D02*
X18628076Y-13030031D01*
X18628076Y-13030031D02*
X18637600Y-13020508D01*
X18637600Y-13020508D02*
X18656648Y-13010984D01*
X18656648Y-13010984D02*
X18694743Y-13010984D01*
X18694743Y-13010984D02*
X18713791Y-13020508D01*
X18713791Y-13020508D02*
X18723314Y-13030031D01*
X18723314Y-13030031D02*
X18732838Y-13049079D01*
X18732838Y-13049079D02*
X18732838Y-13058603D01*
X18732838Y-13058603D02*
X18723314Y-13077650D01*
X18723314Y-13077650D02*
X18713791Y-13087174D01*
X18713791Y-13087174D02*
X18694743Y-13096698D01*
X18694743Y-13096698D02*
X18656648Y-13096698D01*
X18656648Y-13096698D02*
X18637600Y-13106222D01*
X18637600Y-13106222D02*
X18628076Y-13115746D01*
X18628076Y-13115746D02*
X18618553Y-13134793D01*
X18618553Y-13134793D02*
X18618553Y-13172888D01*
X18618553Y-13172888D02*
X18628076Y-13191936D01*
X18628076Y-13191936D02*
X18637600Y-13201460D01*
X18637600Y-13201460D02*
X18656648Y-13210984D01*
X18656648Y-13210984D02*
X18694743Y-13210984D01*
X18694743Y-13210984D02*
X18713791Y-13201460D01*
X18713791Y-13201460D02*
X18723314Y-13191936D01*
X18723314Y-13191936D02*
X18732838Y-13172888D01*
X18732838Y-13172888D02*
X18732838Y-13134793D01*
X18732838Y-13134793D02*
X18723314Y-13115746D01*
X18723314Y-13115746D02*
X18713791Y-13106222D01*
X18713791Y-13106222D02*
X18694743Y-13096698D01*
X18809029Y-13010984D02*
X18809029Y-13049079D01*
X18885219Y-13010984D02*
X18885219Y-13049079D01*
X19180457Y-13287174D02*
X19170934Y-13277650D01*
X19170934Y-13277650D02*
X19151886Y-13249079D01*
X19151886Y-13249079D02*
X19142362Y-13230031D01*
X19142362Y-13230031D02*
X19132838Y-13201460D01*
X19132838Y-13201460D02*
X19123315Y-13153841D01*
X19123315Y-13153841D02*
X19123315Y-13115746D01*
X19123315Y-13115746D02*
X19132838Y-13068127D01*
X19132838Y-13068127D02*
X19142362Y-13039555D01*
X19142362Y-13039555D02*
X19151886Y-13020508D01*
X19151886Y-13020508D02*
X19170934Y-12991936D01*
X19170934Y-12991936D02*
X19180457Y-12982412D01*
X19361410Y-13210984D02*
X19247124Y-13210984D01*
X19304267Y-13210984D02*
X19304267Y-13010984D01*
X19304267Y-13010984D02*
X19285219Y-13039555D01*
X19285219Y-13039555D02*
X19266172Y-13058603D01*
X19266172Y-13058603D02*
X19247124Y-13068127D01*
X19428076Y-13010984D02*
X19551886Y-13010984D01*
X19551886Y-13010984D02*
X19485219Y-13087174D01*
X19485219Y-13087174D02*
X19513791Y-13087174D01*
X19513791Y-13087174D02*
X19532838Y-13096698D01*
X19532838Y-13096698D02*
X19542362Y-13106222D01*
X19542362Y-13106222D02*
X19551886Y-13125269D01*
X19551886Y-13125269D02*
X19551886Y-13172888D01*
X19551886Y-13172888D02*
X19542362Y-13191936D01*
X19542362Y-13191936D02*
X19532838Y-13201460D01*
X19532838Y-13201460D02*
X19513791Y-13210984D01*
X19513791Y-13210984D02*
X19456648Y-13210984D01*
X19456648Y-13210984D02*
X19437600Y-13201460D01*
X19437600Y-13201460D02*
X19428076Y-13191936D01*
X19742362Y-13210984D02*
X19628076Y-13210984D01*
X19685219Y-13210984D02*
X19685219Y-13010984D01*
X19685219Y-13010984D02*
X19666172Y-13039555D01*
X19666172Y-13039555D02*
X19647124Y-13058603D01*
X19647124Y-13058603D02*
X19628076Y-13068127D01*
X19980457Y-13210984D02*
X19980457Y-13010984D01*
X20066172Y-13210984D02*
X20066172Y-13106222D01*
X20066172Y-13106222D02*
X20056648Y-13087174D01*
X20056648Y-13087174D02*
X20037600Y-13077650D01*
X20037600Y-13077650D02*
X20009029Y-13077650D01*
X20009029Y-13077650D02*
X19989981Y-13087174D01*
X19989981Y-13087174D02*
X19980457Y-13096698D01*
X20189981Y-13210984D02*
X20170934Y-13201460D01*
X20170934Y-13201460D02*
X20161410Y-13191936D01*
X20161410Y-13191936D02*
X20151886Y-13172888D01*
X20151886Y-13172888D02*
X20151886Y-13115746D01*
X20151886Y-13115746D02*
X20161410Y-13096698D01*
X20161410Y-13096698D02*
X20170934Y-13087174D01*
X20170934Y-13087174D02*
X20189981Y-13077650D01*
X20189981Y-13077650D02*
X20218553Y-13077650D01*
X20218553Y-13077650D02*
X20237600Y-13087174D01*
X20237600Y-13087174D02*
X20247124Y-13096698D01*
X20247124Y-13096698D02*
X20256648Y-13115746D01*
X20256648Y-13115746D02*
X20256648Y-13172888D01*
X20256648Y-13172888D02*
X20247124Y-13191936D01*
X20247124Y-13191936D02*
X20237600Y-13201460D01*
X20237600Y-13201460D02*
X20218553Y-13210984D01*
X20218553Y-13210984D02*
X20189981Y-13210984D01*
X20370934Y-13210984D02*
X20351886Y-13201460D01*
X20351886Y-13201460D02*
X20342362Y-13182412D01*
X20342362Y-13182412D02*
X20342362Y-13010984D01*
X20523315Y-13201460D02*
X20504267Y-13210984D01*
X20504267Y-13210984D02*
X20466172Y-13210984D01*
X20466172Y-13210984D02*
X20447124Y-13201460D01*
X20447124Y-13201460D02*
X20437600Y-13182412D01*
X20437600Y-13182412D02*
X20437600Y-13106222D01*
X20437600Y-13106222D02*
X20447124Y-13087174D01*
X20447124Y-13087174D02*
X20466172Y-13077650D01*
X20466172Y-13077650D02*
X20504267Y-13077650D01*
X20504267Y-13077650D02*
X20523315Y-13087174D01*
X20523315Y-13087174D02*
X20532838Y-13106222D01*
X20532838Y-13106222D02*
X20532838Y-13125269D01*
X20532838Y-13125269D02*
X20437600Y-13144317D01*
X20609029Y-13201460D02*
X20628077Y-13210984D01*
X20628077Y-13210984D02*
X20666172Y-13210984D01*
X20666172Y-13210984D02*
X20685219Y-13201460D01*
X20685219Y-13201460D02*
X20694743Y-13182412D01*
X20694743Y-13182412D02*
X20694743Y-13172888D01*
X20694743Y-13172888D02*
X20685219Y-13153841D01*
X20685219Y-13153841D02*
X20666172Y-13144317D01*
X20666172Y-13144317D02*
X20637600Y-13144317D01*
X20637600Y-13144317D02*
X20618553Y-13134793D01*
X20618553Y-13134793D02*
X20609029Y-13115746D01*
X20609029Y-13115746D02*
X20609029Y-13106222D01*
X20609029Y-13106222D02*
X20618553Y-13087174D01*
X20618553Y-13087174D02*
X20637600Y-13077650D01*
X20637600Y-13077650D02*
X20666172Y-13077650D01*
X20666172Y-13077650D02*
X20685219Y-13087174D01*
X20761410Y-13287174D02*
X20770934Y-13277650D01*
X20770934Y-13277650D02*
X20789981Y-13249079D01*
X20789981Y-13249079D02*
X20799505Y-13230031D01*
X20799505Y-13230031D02*
X20809029Y-13201460D01*
X20809029Y-13201460D02*
X20818553Y-13153841D01*
X20818553Y-13153841D02*
X20818553Y-13115746D01*
X20818553Y-13115746D02*
X20809029Y-13068127D01*
X20809029Y-13068127D02*
X20799505Y-13039555D01*
X20799505Y-13039555D02*
X20789981Y-13020508D01*
X20789981Y-13020508D02*
X20770934Y-12991936D01*
X20770934Y-12991936D02*
X20761410Y-12982412D01*
D12*
X15605394Y-13383500D02*
G75*
G02*
X15575394Y-13383500I-15000J0D01*
G01*
X15575394Y-13383500D02*
G75*
G02*
X15605394Y-13383500I15000J0D01*
G01*
D11*
X15904266Y-13274984D02*
X15923314Y-13274984D01*
X15923314Y-13274984D02*
X15942362Y-13284508D01*
X15942362Y-13284508D02*
X15951886Y-13294031D01*
X15951886Y-13294031D02*
X15961409Y-13313079D01*
X15961409Y-13313079D02*
X15970933Y-13351174D01*
X15970933Y-13351174D02*
X15970933Y-13398793D01*
X15970933Y-13398793D02*
X15961409Y-13436888D01*
X15961409Y-13436888D02*
X15951886Y-13455936D01*
X15951886Y-13455936D02*
X15942362Y-13465460D01*
X15942362Y-13465460D02*
X15923314Y-13474984D01*
X15923314Y-13474984D02*
X15904266Y-13474984D01*
X15904266Y-13474984D02*
X15885219Y-13465460D01*
X15885219Y-13465460D02*
X15875695Y-13455936D01*
X15875695Y-13455936D02*
X15866171Y-13436888D01*
X15866171Y-13436888D02*
X15856647Y-13398793D01*
X15856647Y-13398793D02*
X15856647Y-13351174D01*
X15856647Y-13351174D02*
X15866171Y-13313079D01*
X15866171Y-13313079D02*
X15875695Y-13294031D01*
X15875695Y-13294031D02*
X15885219Y-13284508D01*
X15885219Y-13284508D02*
X15904266Y-13274984D01*
X16056647Y-13455936D02*
X16066171Y-13465460D01*
X16066171Y-13465460D02*
X16056647Y-13474984D01*
X16056647Y-13474984D02*
X16047124Y-13465460D01*
X16047124Y-13465460D02*
X16056647Y-13455936D01*
X16056647Y-13455936D02*
X16056647Y-13474984D01*
X16132838Y-13274984D02*
X16256647Y-13274984D01*
X16256647Y-13274984D02*
X16189981Y-13351174D01*
X16189981Y-13351174D02*
X16218552Y-13351174D01*
X16218552Y-13351174D02*
X16237600Y-13360698D01*
X16237600Y-13360698D02*
X16247124Y-13370222D01*
X16247124Y-13370222D02*
X16256647Y-13389269D01*
X16256647Y-13389269D02*
X16256647Y-13436888D01*
X16256647Y-13436888D02*
X16247124Y-13455936D01*
X16247124Y-13455936D02*
X16237600Y-13465460D01*
X16237600Y-13465460D02*
X16218552Y-13474984D01*
X16218552Y-13474984D02*
X16161409Y-13474984D01*
X16161409Y-13474984D02*
X16142362Y-13465460D01*
X16142362Y-13465460D02*
X16132838Y-13455936D01*
X16380457Y-13274984D02*
X16399505Y-13274984D01*
X16399505Y-13274984D02*
X16418552Y-13284508D01*
X16418552Y-13284508D02*
X16428076Y-13294031D01*
X16428076Y-13294031D02*
X16437600Y-13313079D01*
X16437600Y-13313079D02*
X16447124Y-13351174D01*
X16447124Y-13351174D02*
X16447124Y-13398793D01*
X16447124Y-13398793D02*
X16437600Y-13436888D01*
X16437600Y-13436888D02*
X16428076Y-13455936D01*
X16428076Y-13455936D02*
X16418552Y-13465460D01*
X16418552Y-13465460D02*
X16399505Y-13474984D01*
X16399505Y-13474984D02*
X16380457Y-13474984D01*
X16380457Y-13474984D02*
X16361409Y-13465460D01*
X16361409Y-13465460D02*
X16351886Y-13455936D01*
X16351886Y-13455936D02*
X16342362Y-13436888D01*
X16342362Y-13436888D02*
X16332838Y-13398793D01*
X16332838Y-13398793D02*
X16332838Y-13351174D01*
X16332838Y-13351174D02*
X16342362Y-13313079D01*
X16342362Y-13313079D02*
X16351886Y-13294031D01*
X16351886Y-13294031D02*
X16361409Y-13284508D01*
X16361409Y-13284508D02*
X16380457Y-13274984D01*
X16570933Y-13274984D02*
X16589981Y-13274984D01*
X16589981Y-13274984D02*
X16609028Y-13284508D01*
X16609028Y-13284508D02*
X16618552Y-13294031D01*
X16618552Y-13294031D02*
X16628076Y-13313079D01*
X16628076Y-13313079D02*
X16637600Y-13351174D01*
X16637600Y-13351174D02*
X16637600Y-13398793D01*
X16637600Y-13398793D02*
X16628076Y-13436888D01*
X16628076Y-13436888D02*
X16618552Y-13455936D01*
X16618552Y-13455936D02*
X16609028Y-13465460D01*
X16609028Y-13465460D02*
X16589981Y-13474984D01*
X16589981Y-13474984D02*
X16570933Y-13474984D01*
X16570933Y-13474984D02*
X16551886Y-13465460D01*
X16551886Y-13465460D02*
X16542362Y-13455936D01*
X16542362Y-13455936D02*
X16532838Y-13436888D01*
X16532838Y-13436888D02*
X16523314Y-13398793D01*
X16523314Y-13398793D02*
X16523314Y-13351174D01*
X16523314Y-13351174D02*
X16532838Y-13313079D01*
X16532838Y-13313079D02*
X16542362Y-13294031D01*
X16542362Y-13294031D02*
X16551886Y-13284508D01*
X16551886Y-13284508D02*
X16570933Y-13274984D01*
X16723314Y-13474984D02*
X16723314Y-13341650D01*
X16723314Y-13360698D02*
X16732838Y-13351174D01*
X16732838Y-13351174D02*
X16751886Y-13341650D01*
X16751886Y-13341650D02*
X16780457Y-13341650D01*
X16780457Y-13341650D02*
X16799505Y-13351174D01*
X16799505Y-13351174D02*
X16809029Y-13370222D01*
X16809029Y-13370222D02*
X16809029Y-13474984D01*
X16809029Y-13370222D02*
X16818552Y-13351174D01*
X16818552Y-13351174D02*
X16837600Y-13341650D01*
X16837600Y-13341650D02*
X16866171Y-13341650D01*
X16866171Y-13341650D02*
X16885219Y-13351174D01*
X16885219Y-13351174D02*
X16894743Y-13370222D01*
X16894743Y-13370222D02*
X16894743Y-13474984D01*
X16989981Y-13474984D02*
X16989981Y-13341650D01*
X16989981Y-13360698D02*
X16999505Y-13351174D01*
X16999505Y-13351174D02*
X17018552Y-13341650D01*
X17018552Y-13341650D02*
X17047124Y-13341650D01*
X17047124Y-13341650D02*
X17066171Y-13351174D01*
X17066171Y-13351174D02*
X17075695Y-13370222D01*
X17075695Y-13370222D02*
X17075695Y-13474984D01*
X17075695Y-13370222D02*
X17085219Y-13351174D01*
X17085219Y-13351174D02*
X17104267Y-13341650D01*
X17104267Y-13341650D02*
X17132838Y-13341650D01*
X17132838Y-13341650D02*
X17151886Y-13351174D01*
X17151886Y-13351174D02*
X17161410Y-13370222D01*
X17161410Y-13370222D02*
X17161410Y-13474984D01*
X17551886Y-13265460D02*
X17380457Y-13522603D01*
X17809029Y-13274984D02*
X17828076Y-13274984D01*
X17828076Y-13274984D02*
X17847124Y-13284508D01*
X17847124Y-13284508D02*
X17856648Y-13294031D01*
X17856648Y-13294031D02*
X17866172Y-13313079D01*
X17866172Y-13313079D02*
X17875695Y-13351174D01*
X17875695Y-13351174D02*
X17875695Y-13398793D01*
X17875695Y-13398793D02*
X17866172Y-13436888D01*
X17866172Y-13436888D02*
X17856648Y-13455936D01*
X17856648Y-13455936D02*
X17847124Y-13465460D01*
X17847124Y-13465460D02*
X17828076Y-13474984D01*
X17828076Y-13474984D02*
X17809029Y-13474984D01*
X17809029Y-13474984D02*
X17789981Y-13465460D01*
X17789981Y-13465460D02*
X17780457Y-13455936D01*
X17780457Y-13455936D02*
X17770933Y-13436888D01*
X17770933Y-13436888D02*
X17761410Y-13398793D01*
X17761410Y-13398793D02*
X17761410Y-13351174D01*
X17761410Y-13351174D02*
X17770933Y-13313079D01*
X17770933Y-13313079D02*
X17780457Y-13294031D01*
X17780457Y-13294031D02*
X17789981Y-13284508D01*
X17789981Y-13284508D02*
X17809029Y-13274984D01*
X17961410Y-13455936D02*
X17970933Y-13465460D01*
X17970933Y-13465460D02*
X17961410Y-13474984D01*
X17961410Y-13474984D02*
X17951886Y-13465460D01*
X17951886Y-13465460D02*
X17961410Y-13455936D01*
X17961410Y-13455936D02*
X17961410Y-13474984D01*
X18094743Y-13274984D02*
X18113791Y-13274984D01*
X18113791Y-13274984D02*
X18132838Y-13284508D01*
X18132838Y-13284508D02*
X18142362Y-13294031D01*
X18142362Y-13294031D02*
X18151886Y-13313079D01*
X18151886Y-13313079D02*
X18161410Y-13351174D01*
X18161410Y-13351174D02*
X18161410Y-13398793D01*
X18161410Y-13398793D02*
X18151886Y-13436888D01*
X18151886Y-13436888D02*
X18142362Y-13455936D01*
X18142362Y-13455936D02*
X18132838Y-13465460D01*
X18132838Y-13465460D02*
X18113791Y-13474984D01*
X18113791Y-13474984D02*
X18094743Y-13474984D01*
X18094743Y-13474984D02*
X18075695Y-13465460D01*
X18075695Y-13465460D02*
X18066172Y-13455936D01*
X18066172Y-13455936D02*
X18056648Y-13436888D01*
X18056648Y-13436888D02*
X18047124Y-13398793D01*
X18047124Y-13398793D02*
X18047124Y-13351174D01*
X18047124Y-13351174D02*
X18056648Y-13313079D01*
X18056648Y-13313079D02*
X18066172Y-13294031D01*
X18066172Y-13294031D02*
X18075695Y-13284508D01*
X18075695Y-13284508D02*
X18094743Y-13274984D01*
X18351886Y-13474984D02*
X18237600Y-13474984D01*
X18294743Y-13474984D02*
X18294743Y-13274984D01*
X18294743Y-13274984D02*
X18275695Y-13303555D01*
X18275695Y-13303555D02*
X18256648Y-13322603D01*
X18256648Y-13322603D02*
X18237600Y-13332127D01*
X18542362Y-13474984D02*
X18428076Y-13474984D01*
X18485219Y-13474984D02*
X18485219Y-13274984D01*
X18485219Y-13274984D02*
X18466172Y-13303555D01*
X18466172Y-13303555D02*
X18447124Y-13322603D01*
X18447124Y-13322603D02*
X18428076Y-13332127D01*
X18656648Y-13360698D02*
X18637600Y-13351174D01*
X18637600Y-13351174D02*
X18628076Y-13341650D01*
X18628076Y-13341650D02*
X18618553Y-13322603D01*
X18618553Y-13322603D02*
X18618553Y-13313079D01*
X18618553Y-13313079D02*
X18628076Y-13294031D01*
X18628076Y-13294031D02*
X18637600Y-13284508D01*
X18637600Y-13284508D02*
X18656648Y-13274984D01*
X18656648Y-13274984D02*
X18694743Y-13274984D01*
X18694743Y-13274984D02*
X18713791Y-13284508D01*
X18713791Y-13284508D02*
X18723314Y-13294031D01*
X18723314Y-13294031D02*
X18732838Y-13313079D01*
X18732838Y-13313079D02*
X18732838Y-13322603D01*
X18732838Y-13322603D02*
X18723314Y-13341650D01*
X18723314Y-13341650D02*
X18713791Y-13351174D01*
X18713791Y-13351174D02*
X18694743Y-13360698D01*
X18694743Y-13360698D02*
X18656648Y-13360698D01*
X18656648Y-13360698D02*
X18637600Y-13370222D01*
X18637600Y-13370222D02*
X18628076Y-13379746D01*
X18628076Y-13379746D02*
X18618553Y-13398793D01*
X18618553Y-13398793D02*
X18618553Y-13436888D01*
X18618553Y-13436888D02*
X18628076Y-13455936D01*
X18628076Y-13455936D02*
X18637600Y-13465460D01*
X18637600Y-13465460D02*
X18656648Y-13474984D01*
X18656648Y-13474984D02*
X18694743Y-13474984D01*
X18694743Y-13474984D02*
X18713791Y-13465460D01*
X18713791Y-13465460D02*
X18723314Y-13455936D01*
X18723314Y-13455936D02*
X18732838Y-13436888D01*
X18732838Y-13436888D02*
X18732838Y-13398793D01*
X18732838Y-13398793D02*
X18723314Y-13379746D01*
X18723314Y-13379746D02*
X18713791Y-13370222D01*
X18713791Y-13370222D02*
X18694743Y-13360698D01*
X18809029Y-13274984D02*
X18809029Y-13313079D01*
X18885219Y-13274984D02*
X18885219Y-13313079D01*
X19180457Y-13551174D02*
X19170934Y-13541650D01*
X19170934Y-13541650D02*
X19151886Y-13513079D01*
X19151886Y-13513079D02*
X19142362Y-13494031D01*
X19142362Y-13494031D02*
X19132838Y-13465460D01*
X19132838Y-13465460D02*
X19123315Y-13417841D01*
X19123315Y-13417841D02*
X19123315Y-13379746D01*
X19123315Y-13379746D02*
X19132838Y-13332127D01*
X19132838Y-13332127D02*
X19142362Y-13303555D01*
X19142362Y-13303555D02*
X19151886Y-13284508D01*
X19151886Y-13284508D02*
X19170934Y-13255936D01*
X19170934Y-13255936D02*
X19180457Y-13246412D01*
X19361410Y-13474984D02*
X19247124Y-13474984D01*
X19304267Y-13474984D02*
X19304267Y-13274984D01*
X19304267Y-13274984D02*
X19285219Y-13303555D01*
X19285219Y-13303555D02*
X19266172Y-13322603D01*
X19266172Y-13322603D02*
X19247124Y-13332127D01*
X19437600Y-13294031D02*
X19447124Y-13284508D01*
X19447124Y-13284508D02*
X19466172Y-13274984D01*
X19466172Y-13274984D02*
X19513791Y-13274984D01*
X19513791Y-13274984D02*
X19532838Y-13284508D01*
X19532838Y-13284508D02*
X19542362Y-13294031D01*
X19542362Y-13294031D02*
X19551886Y-13313079D01*
X19551886Y-13313079D02*
X19551886Y-13332127D01*
X19551886Y-13332127D02*
X19542362Y-13360698D01*
X19542362Y-13360698D02*
X19428076Y-13474984D01*
X19428076Y-13474984D02*
X19551886Y-13474984D01*
X19789981Y-13474984D02*
X19789981Y-13274984D01*
X19875696Y-13474984D02*
X19875696Y-13370222D01*
X19875696Y-13370222D02*
X19866172Y-13351174D01*
X19866172Y-13351174D02*
X19847124Y-13341650D01*
X19847124Y-13341650D02*
X19818553Y-13341650D01*
X19818553Y-13341650D02*
X19799505Y-13351174D01*
X19799505Y-13351174D02*
X19789981Y-13360698D01*
X19999505Y-13474984D02*
X19980457Y-13465460D01*
X19980457Y-13465460D02*
X19970934Y-13455936D01*
X19970934Y-13455936D02*
X19961410Y-13436888D01*
X19961410Y-13436888D02*
X19961410Y-13379746D01*
X19961410Y-13379746D02*
X19970934Y-13360698D01*
X19970934Y-13360698D02*
X19980457Y-13351174D01*
X19980457Y-13351174D02*
X19999505Y-13341650D01*
X19999505Y-13341650D02*
X20028077Y-13341650D01*
X20028077Y-13341650D02*
X20047124Y-13351174D01*
X20047124Y-13351174D02*
X20056648Y-13360698D01*
X20056648Y-13360698D02*
X20066172Y-13379746D01*
X20066172Y-13379746D02*
X20066172Y-13436888D01*
X20066172Y-13436888D02*
X20056648Y-13455936D01*
X20056648Y-13455936D02*
X20047124Y-13465460D01*
X20047124Y-13465460D02*
X20028077Y-13474984D01*
X20028077Y-13474984D02*
X19999505Y-13474984D01*
X20180457Y-13474984D02*
X20161410Y-13465460D01*
X20161410Y-13465460D02*
X20151886Y-13446412D01*
X20151886Y-13446412D02*
X20151886Y-13274984D01*
X20332838Y-13465460D02*
X20313791Y-13474984D01*
X20313791Y-13474984D02*
X20275696Y-13474984D01*
X20275696Y-13474984D02*
X20256648Y-13465460D01*
X20256648Y-13465460D02*
X20247124Y-13446412D01*
X20247124Y-13446412D02*
X20247124Y-13370222D01*
X20247124Y-13370222D02*
X20256648Y-13351174D01*
X20256648Y-13351174D02*
X20275696Y-13341650D01*
X20275696Y-13341650D02*
X20313791Y-13341650D01*
X20313791Y-13341650D02*
X20332838Y-13351174D01*
X20332838Y-13351174D02*
X20342362Y-13370222D01*
X20342362Y-13370222D02*
X20342362Y-13389269D01*
X20342362Y-13389269D02*
X20247124Y-13408317D01*
X20418553Y-13465460D02*
X20437600Y-13474984D01*
X20437600Y-13474984D02*
X20475696Y-13474984D01*
X20475696Y-13474984D02*
X20494743Y-13465460D01*
X20494743Y-13465460D02*
X20504267Y-13446412D01*
X20504267Y-13446412D02*
X20504267Y-13436888D01*
X20504267Y-13436888D02*
X20494743Y-13417841D01*
X20494743Y-13417841D02*
X20475696Y-13408317D01*
X20475696Y-13408317D02*
X20447124Y-13408317D01*
X20447124Y-13408317D02*
X20428077Y-13398793D01*
X20428077Y-13398793D02*
X20418553Y-13379746D01*
X20418553Y-13379746D02*
X20418553Y-13370222D01*
X20418553Y-13370222D02*
X20428077Y-13351174D01*
X20428077Y-13351174D02*
X20447124Y-13341650D01*
X20447124Y-13341650D02*
X20475696Y-13341650D01*
X20475696Y-13341650D02*
X20494743Y-13351174D01*
X20570934Y-13551174D02*
X20580458Y-13541650D01*
X20580458Y-13541650D02*
X20599505Y-13513079D01*
X20599505Y-13513079D02*
X20609029Y-13494031D01*
X20609029Y-13494031D02*
X20618553Y-13465460D01*
X20618553Y-13465460D02*
X20628077Y-13417841D01*
X20628077Y-13417841D02*
X20628077Y-13379746D01*
X20628077Y-13379746D02*
X20618553Y-13332127D01*
X20618553Y-13332127D02*
X20609029Y-13303555D01*
X20609029Y-13303555D02*
X20599505Y-13284508D01*
X20599505Y-13284508D02*
X20580458Y-13255936D01*
X20580458Y-13255936D02*
X20570934Y-13246412D01*
D12*
X15585394Y-13627500D02*
X15585394Y-13667500D01*
X15565394Y-13647500D02*
X15605394Y-13647500D01*
D11*
X15904266Y-13538984D02*
X15923314Y-13538984D01*
X15923314Y-13538984D02*
X15942362Y-13548508D01*
X15942362Y-13548508D02*
X15951886Y-13558031D01*
X15951886Y-13558031D02*
X15961409Y-13577079D01*
X15961409Y-13577079D02*
X15970933Y-13615174D01*
X15970933Y-13615174D02*
X15970933Y-13662793D01*
X15970933Y-13662793D02*
X15961409Y-13700888D01*
X15961409Y-13700888D02*
X15951886Y-13719936D01*
X15951886Y-13719936D02*
X15942362Y-13729460D01*
X15942362Y-13729460D02*
X15923314Y-13738984D01*
X15923314Y-13738984D02*
X15904266Y-13738984D01*
X15904266Y-13738984D02*
X15885219Y-13729460D01*
X15885219Y-13729460D02*
X15875695Y-13719936D01*
X15875695Y-13719936D02*
X15866171Y-13700888D01*
X15866171Y-13700888D02*
X15856647Y-13662793D01*
X15856647Y-13662793D02*
X15856647Y-13615174D01*
X15856647Y-13615174D02*
X15866171Y-13577079D01*
X15866171Y-13577079D02*
X15875695Y-13558031D01*
X15875695Y-13558031D02*
X15885219Y-13548508D01*
X15885219Y-13548508D02*
X15904266Y-13538984D01*
X16056647Y-13719936D02*
X16066171Y-13729460D01*
X16066171Y-13729460D02*
X16056647Y-13738984D01*
X16056647Y-13738984D02*
X16047124Y-13729460D01*
X16047124Y-13729460D02*
X16056647Y-13719936D01*
X16056647Y-13719936D02*
X16056647Y-13738984D01*
X16237600Y-13605650D02*
X16237600Y-13738984D01*
X16189981Y-13529460D02*
X16142362Y-13672317D01*
X16142362Y-13672317D02*
X16266171Y-13672317D01*
X16380457Y-13538984D02*
X16399505Y-13538984D01*
X16399505Y-13538984D02*
X16418552Y-13548508D01*
X16418552Y-13548508D02*
X16428076Y-13558031D01*
X16428076Y-13558031D02*
X16437600Y-13577079D01*
X16437600Y-13577079D02*
X16447124Y-13615174D01*
X16447124Y-13615174D02*
X16447124Y-13662793D01*
X16447124Y-13662793D02*
X16437600Y-13700888D01*
X16437600Y-13700888D02*
X16428076Y-13719936D01*
X16428076Y-13719936D02*
X16418552Y-13729460D01*
X16418552Y-13729460D02*
X16399505Y-13738984D01*
X16399505Y-13738984D02*
X16380457Y-13738984D01*
X16380457Y-13738984D02*
X16361409Y-13729460D01*
X16361409Y-13729460D02*
X16351886Y-13719936D01*
X16351886Y-13719936D02*
X16342362Y-13700888D01*
X16342362Y-13700888D02*
X16332838Y-13662793D01*
X16332838Y-13662793D02*
X16332838Y-13615174D01*
X16332838Y-13615174D02*
X16342362Y-13577079D01*
X16342362Y-13577079D02*
X16351886Y-13558031D01*
X16351886Y-13558031D02*
X16361409Y-13548508D01*
X16361409Y-13548508D02*
X16380457Y-13538984D01*
X16570933Y-13538984D02*
X16589981Y-13538984D01*
X16589981Y-13538984D02*
X16609028Y-13548508D01*
X16609028Y-13548508D02*
X16618552Y-13558031D01*
X16618552Y-13558031D02*
X16628076Y-13577079D01*
X16628076Y-13577079D02*
X16637600Y-13615174D01*
X16637600Y-13615174D02*
X16637600Y-13662793D01*
X16637600Y-13662793D02*
X16628076Y-13700888D01*
X16628076Y-13700888D02*
X16618552Y-13719936D01*
X16618552Y-13719936D02*
X16609028Y-13729460D01*
X16609028Y-13729460D02*
X16589981Y-13738984D01*
X16589981Y-13738984D02*
X16570933Y-13738984D01*
X16570933Y-13738984D02*
X16551886Y-13729460D01*
X16551886Y-13729460D02*
X16542362Y-13719936D01*
X16542362Y-13719936D02*
X16532838Y-13700888D01*
X16532838Y-13700888D02*
X16523314Y-13662793D01*
X16523314Y-13662793D02*
X16523314Y-13615174D01*
X16523314Y-13615174D02*
X16532838Y-13577079D01*
X16532838Y-13577079D02*
X16542362Y-13558031D01*
X16542362Y-13558031D02*
X16551886Y-13548508D01*
X16551886Y-13548508D02*
X16570933Y-13538984D01*
X16723314Y-13738984D02*
X16723314Y-13605650D01*
X16723314Y-13624698D02*
X16732838Y-13615174D01*
X16732838Y-13615174D02*
X16751886Y-13605650D01*
X16751886Y-13605650D02*
X16780457Y-13605650D01*
X16780457Y-13605650D02*
X16799505Y-13615174D01*
X16799505Y-13615174D02*
X16809029Y-13634222D01*
X16809029Y-13634222D02*
X16809029Y-13738984D01*
X16809029Y-13634222D02*
X16818552Y-13615174D01*
X16818552Y-13615174D02*
X16837600Y-13605650D01*
X16837600Y-13605650D02*
X16866171Y-13605650D01*
X16866171Y-13605650D02*
X16885219Y-13615174D01*
X16885219Y-13615174D02*
X16894743Y-13634222D01*
X16894743Y-13634222D02*
X16894743Y-13738984D01*
X16989981Y-13738984D02*
X16989981Y-13605650D01*
X16989981Y-13624698D02*
X16999505Y-13615174D01*
X16999505Y-13615174D02*
X17018552Y-13605650D01*
X17018552Y-13605650D02*
X17047124Y-13605650D01*
X17047124Y-13605650D02*
X17066171Y-13615174D01*
X17066171Y-13615174D02*
X17075695Y-13634222D01*
X17075695Y-13634222D02*
X17075695Y-13738984D01*
X17075695Y-13634222D02*
X17085219Y-13615174D01*
X17085219Y-13615174D02*
X17104267Y-13605650D01*
X17104267Y-13605650D02*
X17132838Y-13605650D01*
X17132838Y-13605650D02*
X17151886Y-13615174D01*
X17151886Y-13615174D02*
X17161410Y-13634222D01*
X17161410Y-13634222D02*
X17161410Y-13738984D01*
X17551886Y-13529460D02*
X17380457Y-13786603D01*
X17809029Y-13538984D02*
X17828076Y-13538984D01*
X17828076Y-13538984D02*
X17847124Y-13548508D01*
X17847124Y-13548508D02*
X17856648Y-13558031D01*
X17856648Y-13558031D02*
X17866172Y-13577079D01*
X17866172Y-13577079D02*
X17875695Y-13615174D01*
X17875695Y-13615174D02*
X17875695Y-13662793D01*
X17875695Y-13662793D02*
X17866172Y-13700888D01*
X17866172Y-13700888D02*
X17856648Y-13719936D01*
X17856648Y-13719936D02*
X17847124Y-13729460D01*
X17847124Y-13729460D02*
X17828076Y-13738984D01*
X17828076Y-13738984D02*
X17809029Y-13738984D01*
X17809029Y-13738984D02*
X17789981Y-13729460D01*
X17789981Y-13729460D02*
X17780457Y-13719936D01*
X17780457Y-13719936D02*
X17770933Y-13700888D01*
X17770933Y-13700888D02*
X17761410Y-13662793D01*
X17761410Y-13662793D02*
X17761410Y-13615174D01*
X17761410Y-13615174D02*
X17770933Y-13577079D01*
X17770933Y-13577079D02*
X17780457Y-13558031D01*
X17780457Y-13558031D02*
X17789981Y-13548508D01*
X17789981Y-13548508D02*
X17809029Y-13538984D01*
X17961410Y-13719936D02*
X17970933Y-13729460D01*
X17970933Y-13729460D02*
X17961410Y-13738984D01*
X17961410Y-13738984D02*
X17951886Y-13729460D01*
X17951886Y-13729460D02*
X17961410Y-13719936D01*
X17961410Y-13719936D02*
X17961410Y-13738984D01*
X18094743Y-13538984D02*
X18113791Y-13538984D01*
X18113791Y-13538984D02*
X18132838Y-13548508D01*
X18132838Y-13548508D02*
X18142362Y-13558031D01*
X18142362Y-13558031D02*
X18151886Y-13577079D01*
X18151886Y-13577079D02*
X18161410Y-13615174D01*
X18161410Y-13615174D02*
X18161410Y-13662793D01*
X18161410Y-13662793D02*
X18151886Y-13700888D01*
X18151886Y-13700888D02*
X18142362Y-13719936D01*
X18142362Y-13719936D02*
X18132838Y-13729460D01*
X18132838Y-13729460D02*
X18113791Y-13738984D01*
X18113791Y-13738984D02*
X18094743Y-13738984D01*
X18094743Y-13738984D02*
X18075695Y-13729460D01*
X18075695Y-13729460D02*
X18066172Y-13719936D01*
X18066172Y-13719936D02*
X18056648Y-13700888D01*
X18056648Y-13700888D02*
X18047124Y-13662793D01*
X18047124Y-13662793D02*
X18047124Y-13615174D01*
X18047124Y-13615174D02*
X18056648Y-13577079D01*
X18056648Y-13577079D02*
X18066172Y-13558031D01*
X18066172Y-13558031D02*
X18075695Y-13548508D01*
X18075695Y-13548508D02*
X18094743Y-13538984D01*
X18351886Y-13738984D02*
X18237600Y-13738984D01*
X18294743Y-13738984D02*
X18294743Y-13538984D01*
X18294743Y-13538984D02*
X18275695Y-13567555D01*
X18275695Y-13567555D02*
X18256648Y-13586603D01*
X18256648Y-13586603D02*
X18237600Y-13596127D01*
X18532838Y-13538984D02*
X18437600Y-13538984D01*
X18437600Y-13538984D02*
X18428076Y-13634222D01*
X18428076Y-13634222D02*
X18437600Y-13624698D01*
X18437600Y-13624698D02*
X18456648Y-13615174D01*
X18456648Y-13615174D02*
X18504267Y-13615174D01*
X18504267Y-13615174D02*
X18523314Y-13624698D01*
X18523314Y-13624698D02*
X18532838Y-13634222D01*
X18532838Y-13634222D02*
X18542362Y-13653269D01*
X18542362Y-13653269D02*
X18542362Y-13700888D01*
X18542362Y-13700888D02*
X18532838Y-13719936D01*
X18532838Y-13719936D02*
X18523314Y-13729460D01*
X18523314Y-13729460D02*
X18504267Y-13738984D01*
X18504267Y-13738984D02*
X18456648Y-13738984D01*
X18456648Y-13738984D02*
X18437600Y-13729460D01*
X18437600Y-13729460D02*
X18428076Y-13719936D01*
X18609029Y-13538984D02*
X18742362Y-13538984D01*
X18742362Y-13538984D02*
X18656648Y-13738984D01*
X18809029Y-13538984D02*
X18809029Y-13577079D01*
X18885219Y-13538984D02*
X18885219Y-13577079D01*
X19180457Y-13815174D02*
X19170934Y-13805650D01*
X19170934Y-13805650D02*
X19151886Y-13777079D01*
X19151886Y-13777079D02*
X19142362Y-13758031D01*
X19142362Y-13758031D02*
X19132838Y-13729460D01*
X19132838Y-13729460D02*
X19123315Y-13681841D01*
X19123315Y-13681841D02*
X19123315Y-13643746D01*
X19123315Y-13643746D02*
X19132838Y-13596127D01*
X19132838Y-13596127D02*
X19142362Y-13567555D01*
X19142362Y-13567555D02*
X19151886Y-13548508D01*
X19151886Y-13548508D02*
X19170934Y-13519936D01*
X19170934Y-13519936D02*
X19180457Y-13510412D01*
X19361410Y-13738984D02*
X19247124Y-13738984D01*
X19304267Y-13738984D02*
X19304267Y-13538984D01*
X19304267Y-13538984D02*
X19285219Y-13567555D01*
X19285219Y-13567555D02*
X19266172Y-13586603D01*
X19266172Y-13586603D02*
X19247124Y-13596127D01*
X19437600Y-13558031D02*
X19447124Y-13548508D01*
X19447124Y-13548508D02*
X19466172Y-13538984D01*
X19466172Y-13538984D02*
X19513791Y-13538984D01*
X19513791Y-13538984D02*
X19532838Y-13548508D01*
X19532838Y-13548508D02*
X19542362Y-13558031D01*
X19542362Y-13558031D02*
X19551886Y-13577079D01*
X19551886Y-13577079D02*
X19551886Y-13596127D01*
X19551886Y-13596127D02*
X19542362Y-13624698D01*
X19542362Y-13624698D02*
X19428076Y-13738984D01*
X19428076Y-13738984D02*
X19551886Y-13738984D01*
X19789981Y-13738984D02*
X19789981Y-13538984D01*
X19875696Y-13738984D02*
X19875696Y-13634222D01*
X19875696Y-13634222D02*
X19866172Y-13615174D01*
X19866172Y-13615174D02*
X19847124Y-13605650D01*
X19847124Y-13605650D02*
X19818553Y-13605650D01*
X19818553Y-13605650D02*
X19799505Y-13615174D01*
X19799505Y-13615174D02*
X19789981Y-13624698D01*
X19999505Y-13738984D02*
X19980457Y-13729460D01*
X19980457Y-13729460D02*
X19970934Y-13719936D01*
X19970934Y-13719936D02*
X19961410Y-13700888D01*
X19961410Y-13700888D02*
X19961410Y-13643746D01*
X19961410Y-13643746D02*
X19970934Y-13624698D01*
X19970934Y-13624698D02*
X19980457Y-13615174D01*
X19980457Y-13615174D02*
X19999505Y-13605650D01*
X19999505Y-13605650D02*
X20028077Y-13605650D01*
X20028077Y-13605650D02*
X20047124Y-13615174D01*
X20047124Y-13615174D02*
X20056648Y-13624698D01*
X20056648Y-13624698D02*
X20066172Y-13643746D01*
X20066172Y-13643746D02*
X20066172Y-13700888D01*
X20066172Y-13700888D02*
X20056648Y-13719936D01*
X20056648Y-13719936D02*
X20047124Y-13729460D01*
X20047124Y-13729460D02*
X20028077Y-13738984D01*
X20028077Y-13738984D02*
X19999505Y-13738984D01*
X20180457Y-13738984D02*
X20161410Y-13729460D01*
X20161410Y-13729460D02*
X20151886Y-13710412D01*
X20151886Y-13710412D02*
X20151886Y-13538984D01*
X20332838Y-13729460D02*
X20313791Y-13738984D01*
X20313791Y-13738984D02*
X20275696Y-13738984D01*
X20275696Y-13738984D02*
X20256648Y-13729460D01*
X20256648Y-13729460D02*
X20247124Y-13710412D01*
X20247124Y-13710412D02*
X20247124Y-13634222D01*
X20247124Y-13634222D02*
X20256648Y-13615174D01*
X20256648Y-13615174D02*
X20275696Y-13605650D01*
X20275696Y-13605650D02*
X20313791Y-13605650D01*
X20313791Y-13605650D02*
X20332838Y-13615174D01*
X20332838Y-13615174D02*
X20342362Y-13634222D01*
X20342362Y-13634222D02*
X20342362Y-13653269D01*
X20342362Y-13653269D02*
X20247124Y-13672317D01*
X20418553Y-13729460D02*
X20437600Y-13738984D01*
X20437600Y-13738984D02*
X20475696Y-13738984D01*
X20475696Y-13738984D02*
X20494743Y-13729460D01*
X20494743Y-13729460D02*
X20504267Y-13710412D01*
X20504267Y-13710412D02*
X20504267Y-13700888D01*
X20504267Y-13700888D02*
X20494743Y-13681841D01*
X20494743Y-13681841D02*
X20475696Y-13672317D01*
X20475696Y-13672317D02*
X20447124Y-13672317D01*
X20447124Y-13672317D02*
X20428077Y-13662793D01*
X20428077Y-13662793D02*
X20418553Y-13643746D01*
X20418553Y-13643746D02*
X20418553Y-13634222D01*
X20418553Y-13634222D02*
X20428077Y-13615174D01*
X20428077Y-13615174D02*
X20447124Y-13605650D01*
X20447124Y-13605650D02*
X20475696Y-13605650D01*
X20475696Y-13605650D02*
X20494743Y-13615174D01*
X20570934Y-13815174D02*
X20580458Y-13805650D01*
X20580458Y-13805650D02*
X20599505Y-13777079D01*
X20599505Y-13777079D02*
X20609029Y-13758031D01*
X20609029Y-13758031D02*
X20618553Y-13729460D01*
X20618553Y-13729460D02*
X20628077Y-13681841D01*
X20628077Y-13681841D02*
X20628077Y-13643746D01*
X20628077Y-13643746D02*
X20618553Y-13596127D01*
X20618553Y-13596127D02*
X20609029Y-13567555D01*
X20609029Y-13567555D02*
X20599505Y-13548508D01*
X20599505Y-13548508D02*
X20580458Y-13519936D01*
X20580458Y-13519936D02*
X20570934Y-13510412D01*
D12*
X15599537Y-13925642D02*
X15599537Y-13897358D01*
X15571252Y-13897358D01*
X15571252Y-13925642D01*
X15599537Y-13925642D01*
D11*
X15904266Y-13802984D02*
X15923314Y-13802984D01*
X15923314Y-13802984D02*
X15942362Y-13812508D01*
X15942362Y-13812508D02*
X15951886Y-13822031D01*
X15951886Y-13822031D02*
X15961409Y-13841079D01*
X15961409Y-13841079D02*
X15970933Y-13879174D01*
X15970933Y-13879174D02*
X15970933Y-13926793D01*
X15970933Y-13926793D02*
X15961409Y-13964888D01*
X15961409Y-13964888D02*
X15951886Y-13983936D01*
X15951886Y-13983936D02*
X15942362Y-13993460D01*
X15942362Y-13993460D02*
X15923314Y-14002984D01*
X15923314Y-14002984D02*
X15904266Y-14002984D01*
X15904266Y-14002984D02*
X15885219Y-13993460D01*
X15885219Y-13993460D02*
X15875695Y-13983936D01*
X15875695Y-13983936D02*
X15866171Y-13964888D01*
X15866171Y-13964888D02*
X15856647Y-13926793D01*
X15856647Y-13926793D02*
X15856647Y-13879174D01*
X15856647Y-13879174D02*
X15866171Y-13841079D01*
X15866171Y-13841079D02*
X15875695Y-13822031D01*
X15875695Y-13822031D02*
X15885219Y-13812508D01*
X15885219Y-13812508D02*
X15904266Y-13802984D01*
X16056647Y-13983936D02*
X16066171Y-13993460D01*
X16066171Y-13993460D02*
X16056647Y-14002984D01*
X16056647Y-14002984D02*
X16047124Y-13993460D01*
X16047124Y-13993460D02*
X16056647Y-13983936D01*
X16056647Y-13983936D02*
X16056647Y-14002984D01*
X16237600Y-13869650D02*
X16237600Y-14002984D01*
X16189981Y-13793460D02*
X16142362Y-13936317D01*
X16142362Y-13936317D02*
X16266171Y-13936317D01*
X16380457Y-13802984D02*
X16399505Y-13802984D01*
X16399505Y-13802984D02*
X16418552Y-13812508D01*
X16418552Y-13812508D02*
X16428076Y-13822031D01*
X16428076Y-13822031D02*
X16437600Y-13841079D01*
X16437600Y-13841079D02*
X16447124Y-13879174D01*
X16447124Y-13879174D02*
X16447124Y-13926793D01*
X16447124Y-13926793D02*
X16437600Y-13964888D01*
X16437600Y-13964888D02*
X16428076Y-13983936D01*
X16428076Y-13983936D02*
X16418552Y-13993460D01*
X16418552Y-13993460D02*
X16399505Y-14002984D01*
X16399505Y-14002984D02*
X16380457Y-14002984D01*
X16380457Y-14002984D02*
X16361409Y-13993460D01*
X16361409Y-13993460D02*
X16351886Y-13983936D01*
X16351886Y-13983936D02*
X16342362Y-13964888D01*
X16342362Y-13964888D02*
X16332838Y-13926793D01*
X16332838Y-13926793D02*
X16332838Y-13879174D01*
X16332838Y-13879174D02*
X16342362Y-13841079D01*
X16342362Y-13841079D02*
X16351886Y-13822031D01*
X16351886Y-13822031D02*
X16361409Y-13812508D01*
X16361409Y-13812508D02*
X16380457Y-13802984D01*
X16570933Y-13802984D02*
X16589981Y-13802984D01*
X16589981Y-13802984D02*
X16609028Y-13812508D01*
X16609028Y-13812508D02*
X16618552Y-13822031D01*
X16618552Y-13822031D02*
X16628076Y-13841079D01*
X16628076Y-13841079D02*
X16637600Y-13879174D01*
X16637600Y-13879174D02*
X16637600Y-13926793D01*
X16637600Y-13926793D02*
X16628076Y-13964888D01*
X16628076Y-13964888D02*
X16618552Y-13983936D01*
X16618552Y-13983936D02*
X16609028Y-13993460D01*
X16609028Y-13993460D02*
X16589981Y-14002984D01*
X16589981Y-14002984D02*
X16570933Y-14002984D01*
X16570933Y-14002984D02*
X16551886Y-13993460D01*
X16551886Y-13993460D02*
X16542362Y-13983936D01*
X16542362Y-13983936D02*
X16532838Y-13964888D01*
X16532838Y-13964888D02*
X16523314Y-13926793D01*
X16523314Y-13926793D02*
X16523314Y-13879174D01*
X16523314Y-13879174D02*
X16532838Y-13841079D01*
X16532838Y-13841079D02*
X16542362Y-13822031D01*
X16542362Y-13822031D02*
X16551886Y-13812508D01*
X16551886Y-13812508D02*
X16570933Y-13802984D01*
X16723314Y-14002984D02*
X16723314Y-13869650D01*
X16723314Y-13888698D02*
X16732838Y-13879174D01*
X16732838Y-13879174D02*
X16751886Y-13869650D01*
X16751886Y-13869650D02*
X16780457Y-13869650D01*
X16780457Y-13869650D02*
X16799505Y-13879174D01*
X16799505Y-13879174D02*
X16809029Y-13898222D01*
X16809029Y-13898222D02*
X16809029Y-14002984D01*
X16809029Y-13898222D02*
X16818552Y-13879174D01*
X16818552Y-13879174D02*
X16837600Y-13869650D01*
X16837600Y-13869650D02*
X16866171Y-13869650D01*
X16866171Y-13869650D02*
X16885219Y-13879174D01*
X16885219Y-13879174D02*
X16894743Y-13898222D01*
X16894743Y-13898222D02*
X16894743Y-14002984D01*
X16989981Y-14002984D02*
X16989981Y-13869650D01*
X16989981Y-13888698D02*
X16999505Y-13879174D01*
X16999505Y-13879174D02*
X17018552Y-13869650D01*
X17018552Y-13869650D02*
X17047124Y-13869650D01*
X17047124Y-13869650D02*
X17066171Y-13879174D01*
X17066171Y-13879174D02*
X17075695Y-13898222D01*
X17075695Y-13898222D02*
X17075695Y-14002984D01*
X17075695Y-13898222D02*
X17085219Y-13879174D01*
X17085219Y-13879174D02*
X17104267Y-13869650D01*
X17104267Y-13869650D02*
X17132838Y-13869650D01*
X17132838Y-13869650D02*
X17151886Y-13879174D01*
X17151886Y-13879174D02*
X17161410Y-13898222D01*
X17161410Y-13898222D02*
X17161410Y-14002984D01*
X17551886Y-13793460D02*
X17380457Y-14050603D01*
X17809029Y-13802984D02*
X17828076Y-13802984D01*
X17828076Y-13802984D02*
X17847124Y-13812508D01*
X17847124Y-13812508D02*
X17856648Y-13822031D01*
X17856648Y-13822031D02*
X17866172Y-13841079D01*
X17866172Y-13841079D02*
X17875695Y-13879174D01*
X17875695Y-13879174D02*
X17875695Y-13926793D01*
X17875695Y-13926793D02*
X17866172Y-13964888D01*
X17866172Y-13964888D02*
X17856648Y-13983936D01*
X17856648Y-13983936D02*
X17847124Y-13993460D01*
X17847124Y-13993460D02*
X17828076Y-14002984D01*
X17828076Y-14002984D02*
X17809029Y-14002984D01*
X17809029Y-14002984D02*
X17789981Y-13993460D01*
X17789981Y-13993460D02*
X17780457Y-13983936D01*
X17780457Y-13983936D02*
X17770933Y-13964888D01*
X17770933Y-13964888D02*
X17761410Y-13926793D01*
X17761410Y-13926793D02*
X17761410Y-13879174D01*
X17761410Y-13879174D02*
X17770933Y-13841079D01*
X17770933Y-13841079D02*
X17780457Y-13822031D01*
X17780457Y-13822031D02*
X17789981Y-13812508D01*
X17789981Y-13812508D02*
X17809029Y-13802984D01*
X17961410Y-13983936D02*
X17970933Y-13993460D01*
X17970933Y-13993460D02*
X17961410Y-14002984D01*
X17961410Y-14002984D02*
X17951886Y-13993460D01*
X17951886Y-13993460D02*
X17961410Y-13983936D01*
X17961410Y-13983936D02*
X17961410Y-14002984D01*
X18094743Y-13802984D02*
X18113791Y-13802984D01*
X18113791Y-13802984D02*
X18132838Y-13812508D01*
X18132838Y-13812508D02*
X18142362Y-13822031D01*
X18142362Y-13822031D02*
X18151886Y-13841079D01*
X18151886Y-13841079D02*
X18161410Y-13879174D01*
X18161410Y-13879174D02*
X18161410Y-13926793D01*
X18161410Y-13926793D02*
X18151886Y-13964888D01*
X18151886Y-13964888D02*
X18142362Y-13983936D01*
X18142362Y-13983936D02*
X18132838Y-13993460D01*
X18132838Y-13993460D02*
X18113791Y-14002984D01*
X18113791Y-14002984D02*
X18094743Y-14002984D01*
X18094743Y-14002984D02*
X18075695Y-13993460D01*
X18075695Y-13993460D02*
X18066172Y-13983936D01*
X18066172Y-13983936D02*
X18056648Y-13964888D01*
X18056648Y-13964888D02*
X18047124Y-13926793D01*
X18047124Y-13926793D02*
X18047124Y-13879174D01*
X18047124Y-13879174D02*
X18056648Y-13841079D01*
X18056648Y-13841079D02*
X18066172Y-13822031D01*
X18066172Y-13822031D02*
X18075695Y-13812508D01*
X18075695Y-13812508D02*
X18094743Y-13802984D01*
X18351886Y-14002984D02*
X18237600Y-14002984D01*
X18294743Y-14002984D02*
X18294743Y-13802984D01*
X18294743Y-13802984D02*
X18275695Y-13831555D01*
X18275695Y-13831555D02*
X18256648Y-13850603D01*
X18256648Y-13850603D02*
X18237600Y-13860127D01*
X18532838Y-13802984D02*
X18437600Y-13802984D01*
X18437600Y-13802984D02*
X18428076Y-13898222D01*
X18428076Y-13898222D02*
X18437600Y-13888698D01*
X18437600Y-13888698D02*
X18456648Y-13879174D01*
X18456648Y-13879174D02*
X18504267Y-13879174D01*
X18504267Y-13879174D02*
X18523314Y-13888698D01*
X18523314Y-13888698D02*
X18532838Y-13898222D01*
X18532838Y-13898222D02*
X18542362Y-13917269D01*
X18542362Y-13917269D02*
X18542362Y-13964888D01*
X18542362Y-13964888D02*
X18532838Y-13983936D01*
X18532838Y-13983936D02*
X18523314Y-13993460D01*
X18523314Y-13993460D02*
X18504267Y-14002984D01*
X18504267Y-14002984D02*
X18456648Y-14002984D01*
X18456648Y-14002984D02*
X18437600Y-13993460D01*
X18437600Y-13993460D02*
X18428076Y-13983936D01*
X18609029Y-13802984D02*
X18742362Y-13802984D01*
X18742362Y-13802984D02*
X18656648Y-14002984D01*
X18809029Y-13802984D02*
X18809029Y-13841079D01*
X18885219Y-13802984D02*
X18885219Y-13841079D01*
X19180457Y-14079174D02*
X19170934Y-14069650D01*
X19170934Y-14069650D02*
X19151886Y-14041079D01*
X19151886Y-14041079D02*
X19142362Y-14022031D01*
X19142362Y-14022031D02*
X19132838Y-13993460D01*
X19132838Y-13993460D02*
X19123315Y-13945841D01*
X19123315Y-13945841D02*
X19123315Y-13907746D01*
X19123315Y-13907746D02*
X19132838Y-13860127D01*
X19132838Y-13860127D02*
X19142362Y-13831555D01*
X19142362Y-13831555D02*
X19151886Y-13812508D01*
X19151886Y-13812508D02*
X19170934Y-13783936D01*
X19170934Y-13783936D02*
X19180457Y-13774412D01*
X19361410Y-14002984D02*
X19247124Y-14002984D01*
X19304267Y-14002984D02*
X19304267Y-13802984D01*
X19304267Y-13802984D02*
X19285219Y-13831555D01*
X19285219Y-13831555D02*
X19266172Y-13850603D01*
X19266172Y-13850603D02*
X19247124Y-13860127D01*
X19532838Y-13802984D02*
X19494743Y-13802984D01*
X19494743Y-13802984D02*
X19475695Y-13812508D01*
X19475695Y-13812508D02*
X19466172Y-13822031D01*
X19466172Y-13822031D02*
X19447124Y-13850603D01*
X19447124Y-13850603D02*
X19437600Y-13888698D01*
X19437600Y-13888698D02*
X19437600Y-13964888D01*
X19437600Y-13964888D02*
X19447124Y-13983936D01*
X19447124Y-13983936D02*
X19456648Y-13993460D01*
X19456648Y-13993460D02*
X19475695Y-14002984D01*
X19475695Y-14002984D02*
X19513791Y-14002984D01*
X19513791Y-14002984D02*
X19532838Y-13993460D01*
X19532838Y-13993460D02*
X19542362Y-13983936D01*
X19542362Y-13983936D02*
X19551886Y-13964888D01*
X19551886Y-13964888D02*
X19551886Y-13917269D01*
X19551886Y-13917269D02*
X19542362Y-13898222D01*
X19542362Y-13898222D02*
X19532838Y-13888698D01*
X19532838Y-13888698D02*
X19513791Y-13879174D01*
X19513791Y-13879174D02*
X19475695Y-13879174D01*
X19475695Y-13879174D02*
X19456648Y-13888698D01*
X19456648Y-13888698D02*
X19447124Y-13898222D01*
X19447124Y-13898222D02*
X19437600Y-13917269D01*
X19789981Y-14002984D02*
X19789981Y-13802984D01*
X19875696Y-14002984D02*
X19875696Y-13898222D01*
X19875696Y-13898222D02*
X19866172Y-13879174D01*
X19866172Y-13879174D02*
X19847124Y-13869650D01*
X19847124Y-13869650D02*
X19818553Y-13869650D01*
X19818553Y-13869650D02*
X19799505Y-13879174D01*
X19799505Y-13879174D02*
X19789981Y-13888698D01*
X19999505Y-14002984D02*
X19980457Y-13993460D01*
X19980457Y-13993460D02*
X19970934Y-13983936D01*
X19970934Y-13983936D02*
X19961410Y-13964888D01*
X19961410Y-13964888D02*
X19961410Y-13907746D01*
X19961410Y-13907746D02*
X19970934Y-13888698D01*
X19970934Y-13888698D02*
X19980457Y-13879174D01*
X19980457Y-13879174D02*
X19999505Y-13869650D01*
X19999505Y-13869650D02*
X20028077Y-13869650D01*
X20028077Y-13869650D02*
X20047124Y-13879174D01*
X20047124Y-13879174D02*
X20056648Y-13888698D01*
X20056648Y-13888698D02*
X20066172Y-13907746D01*
X20066172Y-13907746D02*
X20066172Y-13964888D01*
X20066172Y-13964888D02*
X20056648Y-13983936D01*
X20056648Y-13983936D02*
X20047124Y-13993460D01*
X20047124Y-13993460D02*
X20028077Y-14002984D01*
X20028077Y-14002984D02*
X19999505Y-14002984D01*
X20180457Y-14002984D02*
X20161410Y-13993460D01*
X20161410Y-13993460D02*
X20151886Y-13974412D01*
X20151886Y-13974412D02*
X20151886Y-13802984D01*
X20332838Y-13993460D02*
X20313791Y-14002984D01*
X20313791Y-14002984D02*
X20275696Y-14002984D01*
X20275696Y-14002984D02*
X20256648Y-13993460D01*
X20256648Y-13993460D02*
X20247124Y-13974412D01*
X20247124Y-13974412D02*
X20247124Y-13898222D01*
X20247124Y-13898222D02*
X20256648Y-13879174D01*
X20256648Y-13879174D02*
X20275696Y-13869650D01*
X20275696Y-13869650D02*
X20313791Y-13869650D01*
X20313791Y-13869650D02*
X20332838Y-13879174D01*
X20332838Y-13879174D02*
X20342362Y-13898222D01*
X20342362Y-13898222D02*
X20342362Y-13917269D01*
X20342362Y-13917269D02*
X20247124Y-13936317D01*
X20418553Y-13993460D02*
X20437600Y-14002984D01*
X20437600Y-14002984D02*
X20475696Y-14002984D01*
X20475696Y-14002984D02*
X20494743Y-13993460D01*
X20494743Y-13993460D02*
X20504267Y-13974412D01*
X20504267Y-13974412D02*
X20504267Y-13964888D01*
X20504267Y-13964888D02*
X20494743Y-13945841D01*
X20494743Y-13945841D02*
X20475696Y-13936317D01*
X20475696Y-13936317D02*
X20447124Y-13936317D01*
X20447124Y-13936317D02*
X20428077Y-13926793D01*
X20428077Y-13926793D02*
X20418553Y-13907746D01*
X20418553Y-13907746D02*
X20418553Y-13898222D01*
X20418553Y-13898222D02*
X20428077Y-13879174D01*
X20428077Y-13879174D02*
X20447124Y-13869650D01*
X20447124Y-13869650D02*
X20475696Y-13869650D01*
X20475696Y-13869650D02*
X20494743Y-13879174D01*
X20570934Y-14079174D02*
X20580458Y-14069650D01*
X20580458Y-14069650D02*
X20599505Y-14041079D01*
X20599505Y-14041079D02*
X20609029Y-14022031D01*
X20609029Y-14022031D02*
X20618553Y-13993460D01*
X20618553Y-13993460D02*
X20628077Y-13945841D01*
X20628077Y-13945841D02*
X20628077Y-13907746D01*
X20628077Y-13907746D02*
X20618553Y-13860127D01*
X20618553Y-13860127D02*
X20609029Y-13831555D01*
X20609029Y-13831555D02*
X20599505Y-13812508D01*
X20599505Y-13812508D02*
X20580458Y-13783936D01*
X20580458Y-13783936D02*
X20570934Y-13774412D01*
D12*
X15560394Y-14220500D02*
X15605394Y-14175500D01*
X15560394Y-14130500D01*
X15515394Y-14175500D01*
X15560394Y-14220500D01*
D11*
X15904266Y-14066984D02*
X15923314Y-14066984D01*
X15923314Y-14066984D02*
X15942362Y-14076508D01*
X15942362Y-14076508D02*
X15951886Y-14086031D01*
X15951886Y-14086031D02*
X15961409Y-14105079D01*
X15961409Y-14105079D02*
X15970933Y-14143174D01*
X15970933Y-14143174D02*
X15970933Y-14190793D01*
X15970933Y-14190793D02*
X15961409Y-14228888D01*
X15961409Y-14228888D02*
X15951886Y-14247936D01*
X15951886Y-14247936D02*
X15942362Y-14257460D01*
X15942362Y-14257460D02*
X15923314Y-14266984D01*
X15923314Y-14266984D02*
X15904266Y-14266984D01*
X15904266Y-14266984D02*
X15885219Y-14257460D01*
X15885219Y-14257460D02*
X15875695Y-14247936D01*
X15875695Y-14247936D02*
X15866171Y-14228888D01*
X15866171Y-14228888D02*
X15856647Y-14190793D01*
X15856647Y-14190793D02*
X15856647Y-14143174D01*
X15856647Y-14143174D02*
X15866171Y-14105079D01*
X15866171Y-14105079D02*
X15875695Y-14086031D01*
X15875695Y-14086031D02*
X15885219Y-14076508D01*
X15885219Y-14076508D02*
X15904266Y-14066984D01*
X16056647Y-14247936D02*
X16066171Y-14257460D01*
X16066171Y-14257460D02*
X16056647Y-14266984D01*
X16056647Y-14266984D02*
X16047124Y-14257460D01*
X16047124Y-14257460D02*
X16056647Y-14247936D01*
X16056647Y-14247936D02*
X16056647Y-14266984D01*
X16161409Y-14266984D02*
X16199505Y-14266984D01*
X16199505Y-14266984D02*
X16218552Y-14257460D01*
X16218552Y-14257460D02*
X16228076Y-14247936D01*
X16228076Y-14247936D02*
X16247124Y-14219365D01*
X16247124Y-14219365D02*
X16256647Y-14181269D01*
X16256647Y-14181269D02*
X16256647Y-14105079D01*
X16256647Y-14105079D02*
X16247124Y-14086031D01*
X16247124Y-14086031D02*
X16237600Y-14076508D01*
X16237600Y-14076508D02*
X16218552Y-14066984D01*
X16218552Y-14066984D02*
X16180457Y-14066984D01*
X16180457Y-14066984D02*
X16161409Y-14076508D01*
X16161409Y-14076508D02*
X16151886Y-14086031D01*
X16151886Y-14086031D02*
X16142362Y-14105079D01*
X16142362Y-14105079D02*
X16142362Y-14152698D01*
X16142362Y-14152698D02*
X16151886Y-14171746D01*
X16151886Y-14171746D02*
X16161409Y-14181269D01*
X16161409Y-14181269D02*
X16180457Y-14190793D01*
X16180457Y-14190793D02*
X16218552Y-14190793D01*
X16218552Y-14190793D02*
X16237600Y-14181269D01*
X16237600Y-14181269D02*
X16247124Y-14171746D01*
X16247124Y-14171746D02*
X16256647Y-14152698D01*
X16380457Y-14066984D02*
X16399505Y-14066984D01*
X16399505Y-14066984D02*
X16418552Y-14076508D01*
X16418552Y-14076508D02*
X16428076Y-14086031D01*
X16428076Y-14086031D02*
X16437600Y-14105079D01*
X16437600Y-14105079D02*
X16447124Y-14143174D01*
X16447124Y-14143174D02*
X16447124Y-14190793D01*
X16447124Y-14190793D02*
X16437600Y-14228888D01*
X16437600Y-14228888D02*
X16428076Y-14247936D01*
X16428076Y-14247936D02*
X16418552Y-14257460D01*
X16418552Y-14257460D02*
X16399505Y-14266984D01*
X16399505Y-14266984D02*
X16380457Y-14266984D01*
X16380457Y-14266984D02*
X16361409Y-14257460D01*
X16361409Y-14257460D02*
X16351886Y-14247936D01*
X16351886Y-14247936D02*
X16342362Y-14228888D01*
X16342362Y-14228888D02*
X16332838Y-14190793D01*
X16332838Y-14190793D02*
X16332838Y-14143174D01*
X16332838Y-14143174D02*
X16342362Y-14105079D01*
X16342362Y-14105079D02*
X16351886Y-14086031D01*
X16351886Y-14086031D02*
X16361409Y-14076508D01*
X16361409Y-14076508D02*
X16380457Y-14066984D01*
X16570933Y-14066984D02*
X16589981Y-14066984D01*
X16589981Y-14066984D02*
X16609028Y-14076508D01*
X16609028Y-14076508D02*
X16618552Y-14086031D01*
X16618552Y-14086031D02*
X16628076Y-14105079D01*
X16628076Y-14105079D02*
X16637600Y-14143174D01*
X16637600Y-14143174D02*
X16637600Y-14190793D01*
X16637600Y-14190793D02*
X16628076Y-14228888D01*
X16628076Y-14228888D02*
X16618552Y-14247936D01*
X16618552Y-14247936D02*
X16609028Y-14257460D01*
X16609028Y-14257460D02*
X16589981Y-14266984D01*
X16589981Y-14266984D02*
X16570933Y-14266984D01*
X16570933Y-14266984D02*
X16551886Y-14257460D01*
X16551886Y-14257460D02*
X16542362Y-14247936D01*
X16542362Y-14247936D02*
X16532838Y-14228888D01*
X16532838Y-14228888D02*
X16523314Y-14190793D01*
X16523314Y-14190793D02*
X16523314Y-14143174D01*
X16523314Y-14143174D02*
X16532838Y-14105079D01*
X16532838Y-14105079D02*
X16542362Y-14086031D01*
X16542362Y-14086031D02*
X16551886Y-14076508D01*
X16551886Y-14076508D02*
X16570933Y-14066984D01*
X16723314Y-14266984D02*
X16723314Y-14133650D01*
X16723314Y-14152698D02*
X16732838Y-14143174D01*
X16732838Y-14143174D02*
X16751886Y-14133650D01*
X16751886Y-14133650D02*
X16780457Y-14133650D01*
X16780457Y-14133650D02*
X16799505Y-14143174D01*
X16799505Y-14143174D02*
X16809029Y-14162222D01*
X16809029Y-14162222D02*
X16809029Y-14266984D01*
X16809029Y-14162222D02*
X16818552Y-14143174D01*
X16818552Y-14143174D02*
X16837600Y-14133650D01*
X16837600Y-14133650D02*
X16866171Y-14133650D01*
X16866171Y-14133650D02*
X16885219Y-14143174D01*
X16885219Y-14143174D02*
X16894743Y-14162222D01*
X16894743Y-14162222D02*
X16894743Y-14266984D01*
X16989981Y-14266984D02*
X16989981Y-14133650D01*
X16989981Y-14152698D02*
X16999505Y-14143174D01*
X16999505Y-14143174D02*
X17018552Y-14133650D01*
X17018552Y-14133650D02*
X17047124Y-14133650D01*
X17047124Y-14133650D02*
X17066171Y-14143174D01*
X17066171Y-14143174D02*
X17075695Y-14162222D01*
X17075695Y-14162222D02*
X17075695Y-14266984D01*
X17075695Y-14162222D02*
X17085219Y-14143174D01*
X17085219Y-14143174D02*
X17104267Y-14133650D01*
X17104267Y-14133650D02*
X17132838Y-14133650D01*
X17132838Y-14133650D02*
X17151886Y-14143174D01*
X17151886Y-14143174D02*
X17161410Y-14162222D01*
X17161410Y-14162222D02*
X17161410Y-14266984D01*
X17551886Y-14057460D02*
X17380457Y-14314603D01*
X17809029Y-14066984D02*
X17828076Y-14066984D01*
X17828076Y-14066984D02*
X17847124Y-14076508D01*
X17847124Y-14076508D02*
X17856648Y-14086031D01*
X17856648Y-14086031D02*
X17866172Y-14105079D01*
X17866172Y-14105079D02*
X17875695Y-14143174D01*
X17875695Y-14143174D02*
X17875695Y-14190793D01*
X17875695Y-14190793D02*
X17866172Y-14228888D01*
X17866172Y-14228888D02*
X17856648Y-14247936D01*
X17856648Y-14247936D02*
X17847124Y-14257460D01*
X17847124Y-14257460D02*
X17828076Y-14266984D01*
X17828076Y-14266984D02*
X17809029Y-14266984D01*
X17809029Y-14266984D02*
X17789981Y-14257460D01*
X17789981Y-14257460D02*
X17780457Y-14247936D01*
X17780457Y-14247936D02*
X17770933Y-14228888D01*
X17770933Y-14228888D02*
X17761410Y-14190793D01*
X17761410Y-14190793D02*
X17761410Y-14143174D01*
X17761410Y-14143174D02*
X17770933Y-14105079D01*
X17770933Y-14105079D02*
X17780457Y-14086031D01*
X17780457Y-14086031D02*
X17789981Y-14076508D01*
X17789981Y-14076508D02*
X17809029Y-14066984D01*
X17961410Y-14247936D02*
X17970933Y-14257460D01*
X17970933Y-14257460D02*
X17961410Y-14266984D01*
X17961410Y-14266984D02*
X17951886Y-14257460D01*
X17951886Y-14257460D02*
X17961410Y-14247936D01*
X17961410Y-14247936D02*
X17961410Y-14266984D01*
X18094743Y-14066984D02*
X18113791Y-14066984D01*
X18113791Y-14066984D02*
X18132838Y-14076508D01*
X18132838Y-14076508D02*
X18142362Y-14086031D01*
X18142362Y-14086031D02*
X18151886Y-14105079D01*
X18151886Y-14105079D02*
X18161410Y-14143174D01*
X18161410Y-14143174D02*
X18161410Y-14190793D01*
X18161410Y-14190793D02*
X18151886Y-14228888D01*
X18151886Y-14228888D02*
X18142362Y-14247936D01*
X18142362Y-14247936D02*
X18132838Y-14257460D01*
X18132838Y-14257460D02*
X18113791Y-14266984D01*
X18113791Y-14266984D02*
X18094743Y-14266984D01*
X18094743Y-14266984D02*
X18075695Y-14257460D01*
X18075695Y-14257460D02*
X18066172Y-14247936D01*
X18066172Y-14247936D02*
X18056648Y-14228888D01*
X18056648Y-14228888D02*
X18047124Y-14190793D01*
X18047124Y-14190793D02*
X18047124Y-14143174D01*
X18047124Y-14143174D02*
X18056648Y-14105079D01*
X18056648Y-14105079D02*
X18066172Y-14086031D01*
X18066172Y-14086031D02*
X18075695Y-14076508D01*
X18075695Y-14076508D02*
X18094743Y-14066984D01*
X18228076Y-14066984D02*
X18351886Y-14066984D01*
X18351886Y-14066984D02*
X18285219Y-14143174D01*
X18285219Y-14143174D02*
X18313791Y-14143174D01*
X18313791Y-14143174D02*
X18332838Y-14152698D01*
X18332838Y-14152698D02*
X18342362Y-14162222D01*
X18342362Y-14162222D02*
X18351886Y-14181269D01*
X18351886Y-14181269D02*
X18351886Y-14228888D01*
X18351886Y-14228888D02*
X18342362Y-14247936D01*
X18342362Y-14247936D02*
X18332838Y-14257460D01*
X18332838Y-14257460D02*
X18313791Y-14266984D01*
X18313791Y-14266984D02*
X18256648Y-14266984D01*
X18256648Y-14266984D02*
X18237600Y-14257460D01*
X18237600Y-14257460D02*
X18228076Y-14247936D01*
X18532838Y-14066984D02*
X18437600Y-14066984D01*
X18437600Y-14066984D02*
X18428076Y-14162222D01*
X18428076Y-14162222D02*
X18437600Y-14152698D01*
X18437600Y-14152698D02*
X18456648Y-14143174D01*
X18456648Y-14143174D02*
X18504267Y-14143174D01*
X18504267Y-14143174D02*
X18523314Y-14152698D01*
X18523314Y-14152698D02*
X18532838Y-14162222D01*
X18532838Y-14162222D02*
X18542362Y-14181269D01*
X18542362Y-14181269D02*
X18542362Y-14228888D01*
X18542362Y-14228888D02*
X18532838Y-14247936D01*
X18532838Y-14247936D02*
X18523314Y-14257460D01*
X18523314Y-14257460D02*
X18504267Y-14266984D01*
X18504267Y-14266984D02*
X18456648Y-14266984D01*
X18456648Y-14266984D02*
X18437600Y-14257460D01*
X18437600Y-14257460D02*
X18428076Y-14247936D01*
X18713791Y-14133650D02*
X18713791Y-14266984D01*
X18666172Y-14057460D02*
X18618553Y-14200317D01*
X18618553Y-14200317D02*
X18742362Y-14200317D01*
X18809029Y-14066984D02*
X18809029Y-14105079D01*
X18885219Y-14066984D02*
X18885219Y-14105079D01*
X19180457Y-14343174D02*
X19170934Y-14333650D01*
X19170934Y-14333650D02*
X19151886Y-14305079D01*
X19151886Y-14305079D02*
X19142362Y-14286031D01*
X19142362Y-14286031D02*
X19132838Y-14257460D01*
X19132838Y-14257460D02*
X19123315Y-14209841D01*
X19123315Y-14209841D02*
X19123315Y-14171746D01*
X19123315Y-14171746D02*
X19132838Y-14124127D01*
X19132838Y-14124127D02*
X19142362Y-14095555D01*
X19142362Y-14095555D02*
X19151886Y-14076508D01*
X19151886Y-14076508D02*
X19170934Y-14047936D01*
X19170934Y-14047936D02*
X19180457Y-14038412D01*
X19237600Y-14066984D02*
X19361410Y-14066984D01*
X19361410Y-14066984D02*
X19294743Y-14143174D01*
X19294743Y-14143174D02*
X19323315Y-14143174D01*
X19323315Y-14143174D02*
X19342362Y-14152698D01*
X19342362Y-14152698D02*
X19351886Y-14162222D01*
X19351886Y-14162222D02*
X19361410Y-14181269D01*
X19361410Y-14181269D02*
X19361410Y-14228888D01*
X19361410Y-14228888D02*
X19351886Y-14247936D01*
X19351886Y-14247936D02*
X19342362Y-14257460D01*
X19342362Y-14257460D02*
X19323315Y-14266984D01*
X19323315Y-14266984D02*
X19266172Y-14266984D01*
X19266172Y-14266984D02*
X19247124Y-14257460D01*
X19247124Y-14257460D02*
X19237600Y-14247936D01*
X19599505Y-14266984D02*
X19599505Y-14066984D01*
X19685219Y-14266984D02*
X19685219Y-14162222D01*
X19685219Y-14162222D02*
X19675696Y-14143174D01*
X19675696Y-14143174D02*
X19656648Y-14133650D01*
X19656648Y-14133650D02*
X19628076Y-14133650D01*
X19628076Y-14133650D02*
X19609029Y-14143174D01*
X19609029Y-14143174D02*
X19599505Y-14152698D01*
X19809029Y-14266984D02*
X19789981Y-14257460D01*
X19789981Y-14257460D02*
X19780457Y-14247936D01*
X19780457Y-14247936D02*
X19770934Y-14228888D01*
X19770934Y-14228888D02*
X19770934Y-14171746D01*
X19770934Y-14171746D02*
X19780457Y-14152698D01*
X19780457Y-14152698D02*
X19789981Y-14143174D01*
X19789981Y-14143174D02*
X19809029Y-14133650D01*
X19809029Y-14133650D02*
X19837600Y-14133650D01*
X19837600Y-14133650D02*
X19856648Y-14143174D01*
X19856648Y-14143174D02*
X19866172Y-14152698D01*
X19866172Y-14152698D02*
X19875696Y-14171746D01*
X19875696Y-14171746D02*
X19875696Y-14228888D01*
X19875696Y-14228888D02*
X19866172Y-14247936D01*
X19866172Y-14247936D02*
X19856648Y-14257460D01*
X19856648Y-14257460D02*
X19837600Y-14266984D01*
X19837600Y-14266984D02*
X19809029Y-14266984D01*
X19989981Y-14266984D02*
X19970934Y-14257460D01*
X19970934Y-14257460D02*
X19961410Y-14238412D01*
X19961410Y-14238412D02*
X19961410Y-14066984D01*
X20142362Y-14257460D02*
X20123315Y-14266984D01*
X20123315Y-14266984D02*
X20085219Y-14266984D01*
X20085219Y-14266984D02*
X20066172Y-14257460D01*
X20066172Y-14257460D02*
X20056648Y-14238412D01*
X20056648Y-14238412D02*
X20056648Y-14162222D01*
X20056648Y-14162222D02*
X20066172Y-14143174D01*
X20066172Y-14143174D02*
X20085219Y-14133650D01*
X20085219Y-14133650D02*
X20123315Y-14133650D01*
X20123315Y-14133650D02*
X20142362Y-14143174D01*
X20142362Y-14143174D02*
X20151886Y-14162222D01*
X20151886Y-14162222D02*
X20151886Y-14181269D01*
X20151886Y-14181269D02*
X20056648Y-14200317D01*
X20228077Y-14257460D02*
X20247124Y-14266984D01*
X20247124Y-14266984D02*
X20285219Y-14266984D01*
X20285219Y-14266984D02*
X20304267Y-14257460D01*
X20304267Y-14257460D02*
X20313791Y-14238412D01*
X20313791Y-14238412D02*
X20313791Y-14228888D01*
X20313791Y-14228888D02*
X20304267Y-14209841D01*
X20304267Y-14209841D02*
X20285219Y-14200317D01*
X20285219Y-14200317D02*
X20256648Y-14200317D01*
X20256648Y-14200317D02*
X20237600Y-14190793D01*
X20237600Y-14190793D02*
X20228077Y-14171746D01*
X20228077Y-14171746D02*
X20228077Y-14162222D01*
X20228077Y-14162222D02*
X20237600Y-14143174D01*
X20237600Y-14143174D02*
X20256648Y-14133650D01*
X20256648Y-14133650D02*
X20285219Y-14133650D01*
X20285219Y-14133650D02*
X20304267Y-14143174D01*
X20380458Y-14343174D02*
X20389981Y-14333650D01*
X20389981Y-14333650D02*
X20409029Y-14305079D01*
X20409029Y-14305079D02*
X20418553Y-14286031D01*
X20418553Y-14286031D02*
X20428077Y-14257460D01*
X20428077Y-14257460D02*
X20437600Y-14209841D01*
X20437600Y-14209841D02*
X20437600Y-14171746D01*
X20437600Y-14171746D02*
X20428077Y-14124127D01*
X20428077Y-14124127D02*
X20418553Y-14095555D01*
X20418553Y-14095555D02*
X20409029Y-14076508D01*
X20409029Y-14076508D02*
X20389981Y-14047936D01*
X20389981Y-14047936D02*
X20380458Y-14038412D01*
D12*
X15505394Y-14389500D02*
X15605394Y-14489500D01*
X15605394Y-14389500D02*
X15505394Y-14489500D01*
X15605394Y-14439500D02*
G75*
G02*
X15505394Y-14439500I-50000J0D01*
G01*
X15505394Y-14439500D02*
G75*
G02*
X15605394Y-14439500I50000J0D01*
G01*
D11*
X15970933Y-14530984D02*
X15856647Y-14530984D01*
X15913790Y-14530984D02*
X15913790Y-14330984D01*
X15913790Y-14330984D02*
X15894743Y-14359555D01*
X15894743Y-14359555D02*
X15875695Y-14378603D01*
X15875695Y-14378603D02*
X15856647Y-14388127D01*
X16056647Y-14511936D02*
X16066171Y-14521460D01*
X16066171Y-14521460D02*
X16056647Y-14530984D01*
X16056647Y-14530984D02*
X16047124Y-14521460D01*
X16047124Y-14521460D02*
X16056647Y-14511936D01*
X16056647Y-14511936D02*
X16056647Y-14530984D01*
X16189981Y-14330984D02*
X16209028Y-14330984D01*
X16209028Y-14330984D02*
X16228076Y-14340508D01*
X16228076Y-14340508D02*
X16237600Y-14350031D01*
X16237600Y-14350031D02*
X16247124Y-14369079D01*
X16247124Y-14369079D02*
X16256647Y-14407174D01*
X16256647Y-14407174D02*
X16256647Y-14454793D01*
X16256647Y-14454793D02*
X16247124Y-14492888D01*
X16247124Y-14492888D02*
X16237600Y-14511936D01*
X16237600Y-14511936D02*
X16228076Y-14521460D01*
X16228076Y-14521460D02*
X16209028Y-14530984D01*
X16209028Y-14530984D02*
X16189981Y-14530984D01*
X16189981Y-14530984D02*
X16170933Y-14521460D01*
X16170933Y-14521460D02*
X16161409Y-14511936D01*
X16161409Y-14511936D02*
X16151886Y-14492888D01*
X16151886Y-14492888D02*
X16142362Y-14454793D01*
X16142362Y-14454793D02*
X16142362Y-14407174D01*
X16142362Y-14407174D02*
X16151886Y-14369079D01*
X16151886Y-14369079D02*
X16161409Y-14350031D01*
X16161409Y-14350031D02*
X16170933Y-14340508D01*
X16170933Y-14340508D02*
X16189981Y-14330984D01*
X16380457Y-14330984D02*
X16399505Y-14330984D01*
X16399505Y-14330984D02*
X16418552Y-14340508D01*
X16418552Y-14340508D02*
X16428076Y-14350031D01*
X16428076Y-14350031D02*
X16437600Y-14369079D01*
X16437600Y-14369079D02*
X16447124Y-14407174D01*
X16447124Y-14407174D02*
X16447124Y-14454793D01*
X16447124Y-14454793D02*
X16437600Y-14492888D01*
X16437600Y-14492888D02*
X16428076Y-14511936D01*
X16428076Y-14511936D02*
X16418552Y-14521460D01*
X16418552Y-14521460D02*
X16399505Y-14530984D01*
X16399505Y-14530984D02*
X16380457Y-14530984D01*
X16380457Y-14530984D02*
X16361409Y-14521460D01*
X16361409Y-14521460D02*
X16351886Y-14511936D01*
X16351886Y-14511936D02*
X16342362Y-14492888D01*
X16342362Y-14492888D02*
X16332838Y-14454793D01*
X16332838Y-14454793D02*
X16332838Y-14407174D01*
X16332838Y-14407174D02*
X16342362Y-14369079D01*
X16342362Y-14369079D02*
X16351886Y-14350031D01*
X16351886Y-14350031D02*
X16361409Y-14340508D01*
X16361409Y-14340508D02*
X16380457Y-14330984D01*
X16570933Y-14330984D02*
X16589981Y-14330984D01*
X16589981Y-14330984D02*
X16609028Y-14340508D01*
X16609028Y-14340508D02*
X16618552Y-14350031D01*
X16618552Y-14350031D02*
X16628076Y-14369079D01*
X16628076Y-14369079D02*
X16637600Y-14407174D01*
X16637600Y-14407174D02*
X16637600Y-14454793D01*
X16637600Y-14454793D02*
X16628076Y-14492888D01*
X16628076Y-14492888D02*
X16618552Y-14511936D01*
X16618552Y-14511936D02*
X16609028Y-14521460D01*
X16609028Y-14521460D02*
X16589981Y-14530984D01*
X16589981Y-14530984D02*
X16570933Y-14530984D01*
X16570933Y-14530984D02*
X16551886Y-14521460D01*
X16551886Y-14521460D02*
X16542362Y-14511936D01*
X16542362Y-14511936D02*
X16532838Y-14492888D01*
X16532838Y-14492888D02*
X16523314Y-14454793D01*
X16523314Y-14454793D02*
X16523314Y-14407174D01*
X16523314Y-14407174D02*
X16532838Y-14369079D01*
X16532838Y-14369079D02*
X16542362Y-14350031D01*
X16542362Y-14350031D02*
X16551886Y-14340508D01*
X16551886Y-14340508D02*
X16570933Y-14330984D01*
X16723314Y-14530984D02*
X16723314Y-14397650D01*
X16723314Y-14416698D02*
X16732838Y-14407174D01*
X16732838Y-14407174D02*
X16751886Y-14397650D01*
X16751886Y-14397650D02*
X16780457Y-14397650D01*
X16780457Y-14397650D02*
X16799505Y-14407174D01*
X16799505Y-14407174D02*
X16809029Y-14426222D01*
X16809029Y-14426222D02*
X16809029Y-14530984D01*
X16809029Y-14426222D02*
X16818552Y-14407174D01*
X16818552Y-14407174D02*
X16837600Y-14397650D01*
X16837600Y-14397650D02*
X16866171Y-14397650D01*
X16866171Y-14397650D02*
X16885219Y-14407174D01*
X16885219Y-14407174D02*
X16894743Y-14426222D01*
X16894743Y-14426222D02*
X16894743Y-14530984D01*
X16989981Y-14530984D02*
X16989981Y-14397650D01*
X16989981Y-14416698D02*
X16999505Y-14407174D01*
X16999505Y-14407174D02*
X17018552Y-14397650D01*
X17018552Y-14397650D02*
X17047124Y-14397650D01*
X17047124Y-14397650D02*
X17066171Y-14407174D01*
X17066171Y-14407174D02*
X17075695Y-14426222D01*
X17075695Y-14426222D02*
X17075695Y-14530984D01*
X17075695Y-14426222D02*
X17085219Y-14407174D01*
X17085219Y-14407174D02*
X17104267Y-14397650D01*
X17104267Y-14397650D02*
X17132838Y-14397650D01*
X17132838Y-14397650D02*
X17151886Y-14407174D01*
X17151886Y-14407174D02*
X17161410Y-14426222D01*
X17161410Y-14426222D02*
X17161410Y-14530984D01*
X17551886Y-14321460D02*
X17380457Y-14578603D01*
X17809029Y-14330984D02*
X17828076Y-14330984D01*
X17828076Y-14330984D02*
X17847124Y-14340508D01*
X17847124Y-14340508D02*
X17856648Y-14350031D01*
X17856648Y-14350031D02*
X17866172Y-14369079D01*
X17866172Y-14369079D02*
X17875695Y-14407174D01*
X17875695Y-14407174D02*
X17875695Y-14454793D01*
X17875695Y-14454793D02*
X17866172Y-14492888D01*
X17866172Y-14492888D02*
X17856648Y-14511936D01*
X17856648Y-14511936D02*
X17847124Y-14521460D01*
X17847124Y-14521460D02*
X17828076Y-14530984D01*
X17828076Y-14530984D02*
X17809029Y-14530984D01*
X17809029Y-14530984D02*
X17789981Y-14521460D01*
X17789981Y-14521460D02*
X17780457Y-14511936D01*
X17780457Y-14511936D02*
X17770933Y-14492888D01*
X17770933Y-14492888D02*
X17761410Y-14454793D01*
X17761410Y-14454793D02*
X17761410Y-14407174D01*
X17761410Y-14407174D02*
X17770933Y-14369079D01*
X17770933Y-14369079D02*
X17780457Y-14350031D01*
X17780457Y-14350031D02*
X17789981Y-14340508D01*
X17789981Y-14340508D02*
X17809029Y-14330984D01*
X17961410Y-14511936D02*
X17970933Y-14521460D01*
X17970933Y-14521460D02*
X17961410Y-14530984D01*
X17961410Y-14530984D02*
X17951886Y-14521460D01*
X17951886Y-14521460D02*
X17961410Y-14511936D01*
X17961410Y-14511936D02*
X17961410Y-14530984D01*
X18094743Y-14330984D02*
X18113791Y-14330984D01*
X18113791Y-14330984D02*
X18132838Y-14340508D01*
X18132838Y-14340508D02*
X18142362Y-14350031D01*
X18142362Y-14350031D02*
X18151886Y-14369079D01*
X18151886Y-14369079D02*
X18161410Y-14407174D01*
X18161410Y-14407174D02*
X18161410Y-14454793D01*
X18161410Y-14454793D02*
X18151886Y-14492888D01*
X18151886Y-14492888D02*
X18142362Y-14511936D01*
X18142362Y-14511936D02*
X18132838Y-14521460D01*
X18132838Y-14521460D02*
X18113791Y-14530984D01*
X18113791Y-14530984D02*
X18094743Y-14530984D01*
X18094743Y-14530984D02*
X18075695Y-14521460D01*
X18075695Y-14521460D02*
X18066172Y-14511936D01*
X18066172Y-14511936D02*
X18056648Y-14492888D01*
X18056648Y-14492888D02*
X18047124Y-14454793D01*
X18047124Y-14454793D02*
X18047124Y-14407174D01*
X18047124Y-14407174D02*
X18056648Y-14369079D01*
X18056648Y-14369079D02*
X18066172Y-14350031D01*
X18066172Y-14350031D02*
X18075695Y-14340508D01*
X18075695Y-14340508D02*
X18094743Y-14330984D01*
X18228076Y-14330984D02*
X18351886Y-14330984D01*
X18351886Y-14330984D02*
X18285219Y-14407174D01*
X18285219Y-14407174D02*
X18313791Y-14407174D01*
X18313791Y-14407174D02*
X18332838Y-14416698D01*
X18332838Y-14416698D02*
X18342362Y-14426222D01*
X18342362Y-14426222D02*
X18351886Y-14445269D01*
X18351886Y-14445269D02*
X18351886Y-14492888D01*
X18351886Y-14492888D02*
X18342362Y-14511936D01*
X18342362Y-14511936D02*
X18332838Y-14521460D01*
X18332838Y-14521460D02*
X18313791Y-14530984D01*
X18313791Y-14530984D02*
X18256648Y-14530984D01*
X18256648Y-14530984D02*
X18237600Y-14521460D01*
X18237600Y-14521460D02*
X18228076Y-14511936D01*
X18447124Y-14530984D02*
X18485219Y-14530984D01*
X18485219Y-14530984D02*
X18504267Y-14521460D01*
X18504267Y-14521460D02*
X18513791Y-14511936D01*
X18513791Y-14511936D02*
X18532838Y-14483365D01*
X18532838Y-14483365D02*
X18542362Y-14445269D01*
X18542362Y-14445269D02*
X18542362Y-14369079D01*
X18542362Y-14369079D02*
X18532838Y-14350031D01*
X18532838Y-14350031D02*
X18523314Y-14340508D01*
X18523314Y-14340508D02*
X18504267Y-14330984D01*
X18504267Y-14330984D02*
X18466172Y-14330984D01*
X18466172Y-14330984D02*
X18447124Y-14340508D01*
X18447124Y-14340508D02*
X18437600Y-14350031D01*
X18437600Y-14350031D02*
X18428076Y-14369079D01*
X18428076Y-14369079D02*
X18428076Y-14416698D01*
X18428076Y-14416698D02*
X18437600Y-14435746D01*
X18437600Y-14435746D02*
X18447124Y-14445269D01*
X18447124Y-14445269D02*
X18466172Y-14454793D01*
X18466172Y-14454793D02*
X18504267Y-14454793D01*
X18504267Y-14454793D02*
X18523314Y-14445269D01*
X18523314Y-14445269D02*
X18532838Y-14435746D01*
X18532838Y-14435746D02*
X18542362Y-14416698D01*
X18713791Y-14397650D02*
X18713791Y-14530984D01*
X18666172Y-14321460D02*
X18618553Y-14464317D01*
X18618553Y-14464317D02*
X18742362Y-14464317D01*
X18809029Y-14330984D02*
X18809029Y-14369079D01*
X18885219Y-14330984D02*
X18885219Y-14369079D01*
X19180457Y-14607174D02*
X19170934Y-14597650D01*
X19170934Y-14597650D02*
X19151886Y-14569079D01*
X19151886Y-14569079D02*
X19142362Y-14550031D01*
X19142362Y-14550031D02*
X19132838Y-14521460D01*
X19132838Y-14521460D02*
X19123315Y-14473841D01*
X19123315Y-14473841D02*
X19123315Y-14435746D01*
X19123315Y-14435746D02*
X19132838Y-14388127D01*
X19132838Y-14388127D02*
X19142362Y-14359555D01*
X19142362Y-14359555D02*
X19151886Y-14340508D01*
X19151886Y-14340508D02*
X19170934Y-14311936D01*
X19170934Y-14311936D02*
X19180457Y-14302412D01*
X19361410Y-14530984D02*
X19247124Y-14530984D01*
X19304267Y-14530984D02*
X19304267Y-14330984D01*
X19304267Y-14330984D02*
X19285219Y-14359555D01*
X19285219Y-14359555D02*
X19266172Y-14378603D01*
X19266172Y-14378603D02*
X19247124Y-14388127D01*
X19485219Y-14330984D02*
X19504267Y-14330984D01*
X19504267Y-14330984D02*
X19523315Y-14340508D01*
X19523315Y-14340508D02*
X19532838Y-14350031D01*
X19532838Y-14350031D02*
X19542362Y-14369079D01*
X19542362Y-14369079D02*
X19551886Y-14407174D01*
X19551886Y-14407174D02*
X19551886Y-14454793D01*
X19551886Y-14454793D02*
X19542362Y-14492888D01*
X19542362Y-14492888D02*
X19532838Y-14511936D01*
X19532838Y-14511936D02*
X19523315Y-14521460D01*
X19523315Y-14521460D02*
X19504267Y-14530984D01*
X19504267Y-14530984D02*
X19485219Y-14530984D01*
X19485219Y-14530984D02*
X19466172Y-14521460D01*
X19466172Y-14521460D02*
X19456648Y-14511936D01*
X19456648Y-14511936D02*
X19447124Y-14492888D01*
X19447124Y-14492888D02*
X19437600Y-14454793D01*
X19437600Y-14454793D02*
X19437600Y-14407174D01*
X19437600Y-14407174D02*
X19447124Y-14369079D01*
X19447124Y-14369079D02*
X19456648Y-14350031D01*
X19456648Y-14350031D02*
X19466172Y-14340508D01*
X19466172Y-14340508D02*
X19485219Y-14330984D01*
X19789981Y-14530984D02*
X19789981Y-14330984D01*
X19875696Y-14530984D02*
X19875696Y-14426222D01*
X19875696Y-14426222D02*
X19866172Y-14407174D01*
X19866172Y-14407174D02*
X19847124Y-14397650D01*
X19847124Y-14397650D02*
X19818553Y-14397650D01*
X19818553Y-14397650D02*
X19799505Y-14407174D01*
X19799505Y-14407174D02*
X19789981Y-14416698D01*
X19999505Y-14530984D02*
X19980457Y-14521460D01*
X19980457Y-14521460D02*
X19970934Y-14511936D01*
X19970934Y-14511936D02*
X19961410Y-14492888D01*
X19961410Y-14492888D02*
X19961410Y-14435746D01*
X19961410Y-14435746D02*
X19970934Y-14416698D01*
X19970934Y-14416698D02*
X19980457Y-14407174D01*
X19980457Y-14407174D02*
X19999505Y-14397650D01*
X19999505Y-14397650D02*
X20028077Y-14397650D01*
X20028077Y-14397650D02*
X20047124Y-14407174D01*
X20047124Y-14407174D02*
X20056648Y-14416698D01*
X20056648Y-14416698D02*
X20066172Y-14435746D01*
X20066172Y-14435746D02*
X20066172Y-14492888D01*
X20066172Y-14492888D02*
X20056648Y-14511936D01*
X20056648Y-14511936D02*
X20047124Y-14521460D01*
X20047124Y-14521460D02*
X20028077Y-14530984D01*
X20028077Y-14530984D02*
X19999505Y-14530984D01*
X20180457Y-14530984D02*
X20161410Y-14521460D01*
X20161410Y-14521460D02*
X20151886Y-14502412D01*
X20151886Y-14502412D02*
X20151886Y-14330984D01*
X20332838Y-14521460D02*
X20313791Y-14530984D01*
X20313791Y-14530984D02*
X20275696Y-14530984D01*
X20275696Y-14530984D02*
X20256648Y-14521460D01*
X20256648Y-14521460D02*
X20247124Y-14502412D01*
X20247124Y-14502412D02*
X20247124Y-14426222D01*
X20247124Y-14426222D02*
X20256648Y-14407174D01*
X20256648Y-14407174D02*
X20275696Y-14397650D01*
X20275696Y-14397650D02*
X20313791Y-14397650D01*
X20313791Y-14397650D02*
X20332838Y-14407174D01*
X20332838Y-14407174D02*
X20342362Y-14426222D01*
X20342362Y-14426222D02*
X20342362Y-14445269D01*
X20342362Y-14445269D02*
X20247124Y-14464317D01*
X20418553Y-14521460D02*
X20437600Y-14530984D01*
X20437600Y-14530984D02*
X20475696Y-14530984D01*
X20475696Y-14530984D02*
X20494743Y-14521460D01*
X20494743Y-14521460D02*
X20504267Y-14502412D01*
X20504267Y-14502412D02*
X20504267Y-14492888D01*
X20504267Y-14492888D02*
X20494743Y-14473841D01*
X20494743Y-14473841D02*
X20475696Y-14464317D01*
X20475696Y-14464317D02*
X20447124Y-14464317D01*
X20447124Y-14464317D02*
X20428077Y-14454793D01*
X20428077Y-14454793D02*
X20418553Y-14435746D01*
X20418553Y-14435746D02*
X20418553Y-14426222D01*
X20418553Y-14426222D02*
X20428077Y-14407174D01*
X20428077Y-14407174D02*
X20447124Y-14397650D01*
X20447124Y-14397650D02*
X20475696Y-14397650D01*
X20475696Y-14397650D02*
X20494743Y-14407174D01*
X20570934Y-14607174D02*
X20580458Y-14597650D01*
X20580458Y-14597650D02*
X20599505Y-14569079D01*
X20599505Y-14569079D02*
X20609029Y-14550031D01*
X20609029Y-14550031D02*
X20618553Y-14521460D01*
X20618553Y-14521460D02*
X20628077Y-14473841D01*
X20628077Y-14473841D02*
X20628077Y-14435746D01*
X20628077Y-14435746D02*
X20618553Y-14388127D01*
X20618553Y-14388127D02*
X20609029Y-14359555D01*
X20609029Y-14359555D02*
X20599505Y-14340508D01*
X20599505Y-14340508D02*
X20580458Y-14311936D01*
X20580458Y-14311936D02*
X20570934Y-14302412D01*
D13*
X15500394Y-14651000D02*
X15605394Y-14756000D01*
X15605394Y-14651000D02*
X15500394Y-14756000D01*
X15552894Y-14651000D02*
X15552894Y-14756000D01*
X15500394Y-14703500D02*
X15605394Y-14703500D01*
D11*
X15970933Y-14794984D02*
X15856647Y-14794984D01*
X15913790Y-14794984D02*
X15913790Y-14594984D01*
X15913790Y-14594984D02*
X15894743Y-14623555D01*
X15894743Y-14623555D02*
X15875695Y-14642603D01*
X15875695Y-14642603D02*
X15856647Y-14652127D01*
X16056647Y-14775936D02*
X16066171Y-14785460D01*
X16066171Y-14785460D02*
X16056647Y-14794984D01*
X16056647Y-14794984D02*
X16047124Y-14785460D01*
X16047124Y-14785460D02*
X16056647Y-14775936D01*
X16056647Y-14775936D02*
X16056647Y-14794984D01*
X16189981Y-14594984D02*
X16209028Y-14594984D01*
X16209028Y-14594984D02*
X16228076Y-14604508D01*
X16228076Y-14604508D02*
X16237600Y-14614031D01*
X16237600Y-14614031D02*
X16247124Y-14633079D01*
X16247124Y-14633079D02*
X16256647Y-14671174D01*
X16256647Y-14671174D02*
X16256647Y-14718793D01*
X16256647Y-14718793D02*
X16247124Y-14756888D01*
X16247124Y-14756888D02*
X16237600Y-14775936D01*
X16237600Y-14775936D02*
X16228076Y-14785460D01*
X16228076Y-14785460D02*
X16209028Y-14794984D01*
X16209028Y-14794984D02*
X16189981Y-14794984D01*
X16189981Y-14794984D02*
X16170933Y-14785460D01*
X16170933Y-14785460D02*
X16161409Y-14775936D01*
X16161409Y-14775936D02*
X16151886Y-14756888D01*
X16151886Y-14756888D02*
X16142362Y-14718793D01*
X16142362Y-14718793D02*
X16142362Y-14671174D01*
X16142362Y-14671174D02*
X16151886Y-14633079D01*
X16151886Y-14633079D02*
X16161409Y-14614031D01*
X16161409Y-14614031D02*
X16170933Y-14604508D01*
X16170933Y-14604508D02*
X16189981Y-14594984D01*
X16437600Y-14594984D02*
X16342362Y-14594984D01*
X16342362Y-14594984D02*
X16332838Y-14690222D01*
X16332838Y-14690222D02*
X16342362Y-14680698D01*
X16342362Y-14680698D02*
X16361409Y-14671174D01*
X16361409Y-14671174D02*
X16409028Y-14671174D01*
X16409028Y-14671174D02*
X16428076Y-14680698D01*
X16428076Y-14680698D02*
X16437600Y-14690222D01*
X16437600Y-14690222D02*
X16447124Y-14709269D01*
X16447124Y-14709269D02*
X16447124Y-14756888D01*
X16447124Y-14756888D02*
X16437600Y-14775936D01*
X16437600Y-14775936D02*
X16428076Y-14785460D01*
X16428076Y-14785460D02*
X16409028Y-14794984D01*
X16409028Y-14794984D02*
X16361409Y-14794984D01*
X16361409Y-14794984D02*
X16342362Y-14785460D01*
X16342362Y-14785460D02*
X16332838Y-14775936D01*
X16570933Y-14594984D02*
X16589981Y-14594984D01*
X16589981Y-14594984D02*
X16609028Y-14604508D01*
X16609028Y-14604508D02*
X16618552Y-14614031D01*
X16618552Y-14614031D02*
X16628076Y-14633079D01*
X16628076Y-14633079D02*
X16637600Y-14671174D01*
X16637600Y-14671174D02*
X16637600Y-14718793D01*
X16637600Y-14718793D02*
X16628076Y-14756888D01*
X16628076Y-14756888D02*
X16618552Y-14775936D01*
X16618552Y-14775936D02*
X16609028Y-14785460D01*
X16609028Y-14785460D02*
X16589981Y-14794984D01*
X16589981Y-14794984D02*
X16570933Y-14794984D01*
X16570933Y-14794984D02*
X16551886Y-14785460D01*
X16551886Y-14785460D02*
X16542362Y-14775936D01*
X16542362Y-14775936D02*
X16532838Y-14756888D01*
X16532838Y-14756888D02*
X16523314Y-14718793D01*
X16523314Y-14718793D02*
X16523314Y-14671174D01*
X16523314Y-14671174D02*
X16532838Y-14633079D01*
X16532838Y-14633079D02*
X16542362Y-14614031D01*
X16542362Y-14614031D02*
X16551886Y-14604508D01*
X16551886Y-14604508D02*
X16570933Y-14594984D01*
X16723314Y-14794984D02*
X16723314Y-14661650D01*
X16723314Y-14680698D02*
X16732838Y-14671174D01*
X16732838Y-14671174D02*
X16751886Y-14661650D01*
X16751886Y-14661650D02*
X16780457Y-14661650D01*
X16780457Y-14661650D02*
X16799505Y-14671174D01*
X16799505Y-14671174D02*
X16809029Y-14690222D01*
X16809029Y-14690222D02*
X16809029Y-14794984D01*
X16809029Y-14690222D02*
X16818552Y-14671174D01*
X16818552Y-14671174D02*
X16837600Y-14661650D01*
X16837600Y-14661650D02*
X16866171Y-14661650D01*
X16866171Y-14661650D02*
X16885219Y-14671174D01*
X16885219Y-14671174D02*
X16894743Y-14690222D01*
X16894743Y-14690222D02*
X16894743Y-14794984D01*
X16989981Y-14794984D02*
X16989981Y-14661650D01*
X16989981Y-14680698D02*
X16999505Y-14671174D01*
X16999505Y-14671174D02*
X17018552Y-14661650D01*
X17018552Y-14661650D02*
X17047124Y-14661650D01*
X17047124Y-14661650D02*
X17066171Y-14671174D01*
X17066171Y-14671174D02*
X17075695Y-14690222D01*
X17075695Y-14690222D02*
X17075695Y-14794984D01*
X17075695Y-14690222D02*
X17085219Y-14671174D01*
X17085219Y-14671174D02*
X17104267Y-14661650D01*
X17104267Y-14661650D02*
X17132838Y-14661650D01*
X17132838Y-14661650D02*
X17151886Y-14671174D01*
X17151886Y-14671174D02*
X17161410Y-14690222D01*
X17161410Y-14690222D02*
X17161410Y-14794984D01*
X17551886Y-14585460D02*
X17380457Y-14842603D01*
X17809029Y-14594984D02*
X17828076Y-14594984D01*
X17828076Y-14594984D02*
X17847124Y-14604508D01*
X17847124Y-14604508D02*
X17856648Y-14614031D01*
X17856648Y-14614031D02*
X17866172Y-14633079D01*
X17866172Y-14633079D02*
X17875695Y-14671174D01*
X17875695Y-14671174D02*
X17875695Y-14718793D01*
X17875695Y-14718793D02*
X17866172Y-14756888D01*
X17866172Y-14756888D02*
X17856648Y-14775936D01*
X17856648Y-14775936D02*
X17847124Y-14785460D01*
X17847124Y-14785460D02*
X17828076Y-14794984D01*
X17828076Y-14794984D02*
X17809029Y-14794984D01*
X17809029Y-14794984D02*
X17789981Y-14785460D01*
X17789981Y-14785460D02*
X17780457Y-14775936D01*
X17780457Y-14775936D02*
X17770933Y-14756888D01*
X17770933Y-14756888D02*
X17761410Y-14718793D01*
X17761410Y-14718793D02*
X17761410Y-14671174D01*
X17761410Y-14671174D02*
X17770933Y-14633079D01*
X17770933Y-14633079D02*
X17780457Y-14614031D01*
X17780457Y-14614031D02*
X17789981Y-14604508D01*
X17789981Y-14604508D02*
X17809029Y-14594984D01*
X17961410Y-14775936D02*
X17970933Y-14785460D01*
X17970933Y-14785460D02*
X17961410Y-14794984D01*
X17961410Y-14794984D02*
X17951886Y-14785460D01*
X17951886Y-14785460D02*
X17961410Y-14775936D01*
X17961410Y-14775936D02*
X17961410Y-14794984D01*
X18094743Y-14594984D02*
X18113791Y-14594984D01*
X18113791Y-14594984D02*
X18132838Y-14604508D01*
X18132838Y-14604508D02*
X18142362Y-14614031D01*
X18142362Y-14614031D02*
X18151886Y-14633079D01*
X18151886Y-14633079D02*
X18161410Y-14671174D01*
X18161410Y-14671174D02*
X18161410Y-14718793D01*
X18161410Y-14718793D02*
X18151886Y-14756888D01*
X18151886Y-14756888D02*
X18142362Y-14775936D01*
X18142362Y-14775936D02*
X18132838Y-14785460D01*
X18132838Y-14785460D02*
X18113791Y-14794984D01*
X18113791Y-14794984D02*
X18094743Y-14794984D01*
X18094743Y-14794984D02*
X18075695Y-14785460D01*
X18075695Y-14785460D02*
X18066172Y-14775936D01*
X18066172Y-14775936D02*
X18056648Y-14756888D01*
X18056648Y-14756888D02*
X18047124Y-14718793D01*
X18047124Y-14718793D02*
X18047124Y-14671174D01*
X18047124Y-14671174D02*
X18056648Y-14633079D01*
X18056648Y-14633079D02*
X18066172Y-14614031D01*
X18066172Y-14614031D02*
X18075695Y-14604508D01*
X18075695Y-14604508D02*
X18094743Y-14594984D01*
X18332838Y-14661650D02*
X18332838Y-14794984D01*
X18285219Y-14585460D02*
X18237600Y-14728317D01*
X18237600Y-14728317D02*
X18361410Y-14728317D01*
X18542362Y-14794984D02*
X18428076Y-14794984D01*
X18485219Y-14794984D02*
X18485219Y-14594984D01*
X18485219Y-14594984D02*
X18466172Y-14623555D01*
X18466172Y-14623555D02*
X18447124Y-14642603D01*
X18447124Y-14642603D02*
X18428076Y-14652127D01*
X18609029Y-14594984D02*
X18732838Y-14594984D01*
X18732838Y-14594984D02*
X18666172Y-14671174D01*
X18666172Y-14671174D02*
X18694743Y-14671174D01*
X18694743Y-14671174D02*
X18713791Y-14680698D01*
X18713791Y-14680698D02*
X18723314Y-14690222D01*
X18723314Y-14690222D02*
X18732838Y-14709269D01*
X18732838Y-14709269D02*
X18732838Y-14756888D01*
X18732838Y-14756888D02*
X18723314Y-14775936D01*
X18723314Y-14775936D02*
X18713791Y-14785460D01*
X18713791Y-14785460D02*
X18694743Y-14794984D01*
X18694743Y-14794984D02*
X18637600Y-14794984D01*
X18637600Y-14794984D02*
X18618553Y-14785460D01*
X18618553Y-14785460D02*
X18609029Y-14775936D01*
X18809029Y-14594984D02*
X18809029Y-14633079D01*
X18885219Y-14594984D02*
X18885219Y-14633079D01*
X19180457Y-14871174D02*
X19170934Y-14861650D01*
X19170934Y-14861650D02*
X19151886Y-14833079D01*
X19151886Y-14833079D02*
X19142362Y-14814031D01*
X19142362Y-14814031D02*
X19132838Y-14785460D01*
X19132838Y-14785460D02*
X19123315Y-14737841D01*
X19123315Y-14737841D02*
X19123315Y-14699746D01*
X19123315Y-14699746D02*
X19132838Y-14652127D01*
X19132838Y-14652127D02*
X19142362Y-14623555D01*
X19142362Y-14623555D02*
X19151886Y-14604508D01*
X19151886Y-14604508D02*
X19170934Y-14575936D01*
X19170934Y-14575936D02*
X19180457Y-14566412D01*
X19342362Y-14661650D02*
X19342362Y-14794984D01*
X19294743Y-14585460D02*
X19247124Y-14728317D01*
X19247124Y-14728317D02*
X19370934Y-14728317D01*
X19599505Y-14794984D02*
X19599505Y-14594984D01*
X19685219Y-14794984D02*
X19685219Y-14690222D01*
X19685219Y-14690222D02*
X19675696Y-14671174D01*
X19675696Y-14671174D02*
X19656648Y-14661650D01*
X19656648Y-14661650D02*
X19628076Y-14661650D01*
X19628076Y-14661650D02*
X19609029Y-14671174D01*
X19609029Y-14671174D02*
X19599505Y-14680698D01*
X19809029Y-14794984D02*
X19789981Y-14785460D01*
X19789981Y-14785460D02*
X19780457Y-14775936D01*
X19780457Y-14775936D02*
X19770934Y-14756888D01*
X19770934Y-14756888D02*
X19770934Y-14699746D01*
X19770934Y-14699746D02*
X19780457Y-14680698D01*
X19780457Y-14680698D02*
X19789981Y-14671174D01*
X19789981Y-14671174D02*
X19809029Y-14661650D01*
X19809029Y-14661650D02*
X19837600Y-14661650D01*
X19837600Y-14661650D02*
X19856648Y-14671174D01*
X19856648Y-14671174D02*
X19866172Y-14680698D01*
X19866172Y-14680698D02*
X19875696Y-14699746D01*
X19875696Y-14699746D02*
X19875696Y-14756888D01*
X19875696Y-14756888D02*
X19866172Y-14775936D01*
X19866172Y-14775936D02*
X19856648Y-14785460D01*
X19856648Y-14785460D02*
X19837600Y-14794984D01*
X19837600Y-14794984D02*
X19809029Y-14794984D01*
X19989981Y-14794984D02*
X19970934Y-14785460D01*
X19970934Y-14785460D02*
X19961410Y-14766412D01*
X19961410Y-14766412D02*
X19961410Y-14594984D01*
X20142362Y-14785460D02*
X20123315Y-14794984D01*
X20123315Y-14794984D02*
X20085219Y-14794984D01*
X20085219Y-14794984D02*
X20066172Y-14785460D01*
X20066172Y-14785460D02*
X20056648Y-14766412D01*
X20056648Y-14766412D02*
X20056648Y-14690222D01*
X20056648Y-14690222D02*
X20066172Y-14671174D01*
X20066172Y-14671174D02*
X20085219Y-14661650D01*
X20085219Y-14661650D02*
X20123315Y-14661650D01*
X20123315Y-14661650D02*
X20142362Y-14671174D01*
X20142362Y-14671174D02*
X20151886Y-14690222D01*
X20151886Y-14690222D02*
X20151886Y-14709269D01*
X20151886Y-14709269D02*
X20056648Y-14728317D01*
X20228077Y-14785460D02*
X20247124Y-14794984D01*
X20247124Y-14794984D02*
X20285219Y-14794984D01*
X20285219Y-14794984D02*
X20304267Y-14785460D01*
X20304267Y-14785460D02*
X20313791Y-14766412D01*
X20313791Y-14766412D02*
X20313791Y-14756888D01*
X20313791Y-14756888D02*
X20304267Y-14737841D01*
X20304267Y-14737841D02*
X20285219Y-14728317D01*
X20285219Y-14728317D02*
X20256648Y-14728317D01*
X20256648Y-14728317D02*
X20237600Y-14718793D01*
X20237600Y-14718793D02*
X20228077Y-14699746D01*
X20228077Y-14699746D02*
X20228077Y-14690222D01*
X20228077Y-14690222D02*
X20237600Y-14671174D01*
X20237600Y-14671174D02*
X20256648Y-14661650D01*
X20256648Y-14661650D02*
X20285219Y-14661650D01*
X20285219Y-14661650D02*
X20304267Y-14671174D01*
X20380458Y-14871174D02*
X20389981Y-14861650D01*
X20389981Y-14861650D02*
X20409029Y-14833079D01*
X20409029Y-14833079D02*
X20418553Y-14814031D01*
X20418553Y-14814031D02*
X20428077Y-14785460D01*
X20428077Y-14785460D02*
X20437600Y-14737841D01*
X20437600Y-14737841D02*
X20437600Y-14699746D01*
X20437600Y-14699746D02*
X20428077Y-14652127D01*
X20428077Y-14652127D02*
X20418553Y-14623555D01*
X20418553Y-14623555D02*
X20409029Y-14604508D01*
X20409029Y-14604508D02*
X20389981Y-14575936D01*
X20389981Y-14575936D02*
X20380458Y-14566412D01*
D14*
X15455394Y-14892500D02*
X15605394Y-15042500D01*
X15605394Y-14892500D02*
X15455394Y-15042500D01*
X15583428Y-15020533D02*
X15583428Y-14914466D01*
X15477361Y-14914466D01*
X15477361Y-15020533D01*
X15583428Y-15020533D01*
D11*
X15970933Y-15058984D02*
X15856647Y-15058984D01*
X15913790Y-15058984D02*
X15913790Y-14858984D01*
X15913790Y-14858984D02*
X15894743Y-14887555D01*
X15894743Y-14887555D02*
X15875695Y-14906603D01*
X15875695Y-14906603D02*
X15856647Y-14916127D01*
X16056647Y-15039936D02*
X16066171Y-15049460D01*
X16066171Y-15049460D02*
X16056647Y-15058984D01*
X16056647Y-15058984D02*
X16047124Y-15049460D01*
X16047124Y-15049460D02*
X16056647Y-15039936D01*
X16056647Y-15039936D02*
X16056647Y-15058984D01*
X16247124Y-14858984D02*
X16151886Y-14858984D01*
X16151886Y-14858984D02*
X16142362Y-14954222D01*
X16142362Y-14954222D02*
X16151886Y-14944698D01*
X16151886Y-14944698D02*
X16170933Y-14935174D01*
X16170933Y-14935174D02*
X16218552Y-14935174D01*
X16218552Y-14935174D02*
X16237600Y-14944698D01*
X16237600Y-14944698D02*
X16247124Y-14954222D01*
X16247124Y-14954222D02*
X16256647Y-14973269D01*
X16256647Y-14973269D02*
X16256647Y-15020888D01*
X16256647Y-15020888D02*
X16247124Y-15039936D01*
X16247124Y-15039936D02*
X16237600Y-15049460D01*
X16237600Y-15049460D02*
X16218552Y-15058984D01*
X16218552Y-15058984D02*
X16170933Y-15058984D01*
X16170933Y-15058984D02*
X16151886Y-15049460D01*
X16151886Y-15049460D02*
X16142362Y-15039936D01*
X16380457Y-14858984D02*
X16399505Y-14858984D01*
X16399505Y-14858984D02*
X16418552Y-14868508D01*
X16418552Y-14868508D02*
X16428076Y-14878031D01*
X16428076Y-14878031D02*
X16437600Y-14897079D01*
X16437600Y-14897079D02*
X16447124Y-14935174D01*
X16447124Y-14935174D02*
X16447124Y-14982793D01*
X16447124Y-14982793D02*
X16437600Y-15020888D01*
X16437600Y-15020888D02*
X16428076Y-15039936D01*
X16428076Y-15039936D02*
X16418552Y-15049460D01*
X16418552Y-15049460D02*
X16399505Y-15058984D01*
X16399505Y-15058984D02*
X16380457Y-15058984D01*
X16380457Y-15058984D02*
X16361409Y-15049460D01*
X16361409Y-15049460D02*
X16351886Y-15039936D01*
X16351886Y-15039936D02*
X16342362Y-15020888D01*
X16342362Y-15020888D02*
X16332838Y-14982793D01*
X16332838Y-14982793D02*
X16332838Y-14935174D01*
X16332838Y-14935174D02*
X16342362Y-14897079D01*
X16342362Y-14897079D02*
X16351886Y-14878031D01*
X16351886Y-14878031D02*
X16361409Y-14868508D01*
X16361409Y-14868508D02*
X16380457Y-14858984D01*
X16570933Y-14858984D02*
X16589981Y-14858984D01*
X16589981Y-14858984D02*
X16609028Y-14868508D01*
X16609028Y-14868508D02*
X16618552Y-14878031D01*
X16618552Y-14878031D02*
X16628076Y-14897079D01*
X16628076Y-14897079D02*
X16637600Y-14935174D01*
X16637600Y-14935174D02*
X16637600Y-14982793D01*
X16637600Y-14982793D02*
X16628076Y-15020888D01*
X16628076Y-15020888D02*
X16618552Y-15039936D01*
X16618552Y-15039936D02*
X16609028Y-15049460D01*
X16609028Y-15049460D02*
X16589981Y-15058984D01*
X16589981Y-15058984D02*
X16570933Y-15058984D01*
X16570933Y-15058984D02*
X16551886Y-15049460D01*
X16551886Y-15049460D02*
X16542362Y-15039936D01*
X16542362Y-15039936D02*
X16532838Y-15020888D01*
X16532838Y-15020888D02*
X16523314Y-14982793D01*
X16523314Y-14982793D02*
X16523314Y-14935174D01*
X16523314Y-14935174D02*
X16532838Y-14897079D01*
X16532838Y-14897079D02*
X16542362Y-14878031D01*
X16542362Y-14878031D02*
X16551886Y-14868508D01*
X16551886Y-14868508D02*
X16570933Y-14858984D01*
X16723314Y-15058984D02*
X16723314Y-14925650D01*
X16723314Y-14944698D02*
X16732838Y-14935174D01*
X16732838Y-14935174D02*
X16751886Y-14925650D01*
X16751886Y-14925650D02*
X16780457Y-14925650D01*
X16780457Y-14925650D02*
X16799505Y-14935174D01*
X16799505Y-14935174D02*
X16809029Y-14954222D01*
X16809029Y-14954222D02*
X16809029Y-15058984D01*
X16809029Y-14954222D02*
X16818552Y-14935174D01*
X16818552Y-14935174D02*
X16837600Y-14925650D01*
X16837600Y-14925650D02*
X16866171Y-14925650D01*
X16866171Y-14925650D02*
X16885219Y-14935174D01*
X16885219Y-14935174D02*
X16894743Y-14954222D01*
X16894743Y-14954222D02*
X16894743Y-15058984D01*
X16989981Y-15058984D02*
X16989981Y-14925650D01*
X16989981Y-14944698D02*
X16999505Y-14935174D01*
X16999505Y-14935174D02*
X17018552Y-14925650D01*
X17018552Y-14925650D02*
X17047124Y-14925650D01*
X17047124Y-14925650D02*
X17066171Y-14935174D01*
X17066171Y-14935174D02*
X17075695Y-14954222D01*
X17075695Y-14954222D02*
X17075695Y-15058984D01*
X17075695Y-14954222D02*
X17085219Y-14935174D01*
X17085219Y-14935174D02*
X17104267Y-14925650D01*
X17104267Y-14925650D02*
X17132838Y-14925650D01*
X17132838Y-14925650D02*
X17151886Y-14935174D01*
X17151886Y-14935174D02*
X17161410Y-14954222D01*
X17161410Y-14954222D02*
X17161410Y-15058984D01*
X17551886Y-14849460D02*
X17380457Y-15106603D01*
X17809029Y-14858984D02*
X17828076Y-14858984D01*
X17828076Y-14858984D02*
X17847124Y-14868508D01*
X17847124Y-14868508D02*
X17856648Y-14878031D01*
X17856648Y-14878031D02*
X17866172Y-14897079D01*
X17866172Y-14897079D02*
X17875695Y-14935174D01*
X17875695Y-14935174D02*
X17875695Y-14982793D01*
X17875695Y-14982793D02*
X17866172Y-15020888D01*
X17866172Y-15020888D02*
X17856648Y-15039936D01*
X17856648Y-15039936D02*
X17847124Y-15049460D01*
X17847124Y-15049460D02*
X17828076Y-15058984D01*
X17828076Y-15058984D02*
X17809029Y-15058984D01*
X17809029Y-15058984D02*
X17789981Y-15049460D01*
X17789981Y-15049460D02*
X17780457Y-15039936D01*
X17780457Y-15039936D02*
X17770933Y-15020888D01*
X17770933Y-15020888D02*
X17761410Y-14982793D01*
X17761410Y-14982793D02*
X17761410Y-14935174D01*
X17761410Y-14935174D02*
X17770933Y-14897079D01*
X17770933Y-14897079D02*
X17780457Y-14878031D01*
X17780457Y-14878031D02*
X17789981Y-14868508D01*
X17789981Y-14868508D02*
X17809029Y-14858984D01*
X17961410Y-15039936D02*
X17970933Y-15049460D01*
X17970933Y-15049460D02*
X17961410Y-15058984D01*
X17961410Y-15058984D02*
X17951886Y-15049460D01*
X17951886Y-15049460D02*
X17961410Y-15039936D01*
X17961410Y-15039936D02*
X17961410Y-15058984D01*
X18094743Y-14858984D02*
X18113791Y-14858984D01*
X18113791Y-14858984D02*
X18132838Y-14868508D01*
X18132838Y-14868508D02*
X18142362Y-14878031D01*
X18142362Y-14878031D02*
X18151886Y-14897079D01*
X18151886Y-14897079D02*
X18161410Y-14935174D01*
X18161410Y-14935174D02*
X18161410Y-14982793D01*
X18161410Y-14982793D02*
X18151886Y-15020888D01*
X18151886Y-15020888D02*
X18142362Y-15039936D01*
X18142362Y-15039936D02*
X18132838Y-15049460D01*
X18132838Y-15049460D02*
X18113791Y-15058984D01*
X18113791Y-15058984D02*
X18094743Y-15058984D01*
X18094743Y-15058984D02*
X18075695Y-15049460D01*
X18075695Y-15049460D02*
X18066172Y-15039936D01*
X18066172Y-15039936D02*
X18056648Y-15020888D01*
X18056648Y-15020888D02*
X18047124Y-14982793D01*
X18047124Y-14982793D02*
X18047124Y-14935174D01*
X18047124Y-14935174D02*
X18056648Y-14897079D01*
X18056648Y-14897079D02*
X18066172Y-14878031D01*
X18066172Y-14878031D02*
X18075695Y-14868508D01*
X18075695Y-14868508D02*
X18094743Y-14858984D01*
X18342362Y-14858984D02*
X18247124Y-14858984D01*
X18247124Y-14858984D02*
X18237600Y-14954222D01*
X18237600Y-14954222D02*
X18247124Y-14944698D01*
X18247124Y-14944698D02*
X18266172Y-14935174D01*
X18266172Y-14935174D02*
X18313791Y-14935174D01*
X18313791Y-14935174D02*
X18332838Y-14944698D01*
X18332838Y-14944698D02*
X18342362Y-14954222D01*
X18342362Y-14954222D02*
X18351886Y-14973269D01*
X18351886Y-14973269D02*
X18351886Y-15020888D01*
X18351886Y-15020888D02*
X18342362Y-15039936D01*
X18342362Y-15039936D02*
X18332838Y-15049460D01*
X18332838Y-15049460D02*
X18313791Y-15058984D01*
X18313791Y-15058984D02*
X18266172Y-15058984D01*
X18266172Y-15058984D02*
X18247124Y-15049460D01*
X18247124Y-15049460D02*
X18237600Y-15039936D01*
X18447124Y-15058984D02*
X18485219Y-15058984D01*
X18485219Y-15058984D02*
X18504267Y-15049460D01*
X18504267Y-15049460D02*
X18513791Y-15039936D01*
X18513791Y-15039936D02*
X18532838Y-15011365D01*
X18532838Y-15011365D02*
X18542362Y-14973269D01*
X18542362Y-14973269D02*
X18542362Y-14897079D01*
X18542362Y-14897079D02*
X18532838Y-14878031D01*
X18532838Y-14878031D02*
X18523314Y-14868508D01*
X18523314Y-14868508D02*
X18504267Y-14858984D01*
X18504267Y-14858984D02*
X18466172Y-14858984D01*
X18466172Y-14858984D02*
X18447124Y-14868508D01*
X18447124Y-14868508D02*
X18437600Y-14878031D01*
X18437600Y-14878031D02*
X18428076Y-14897079D01*
X18428076Y-14897079D02*
X18428076Y-14944698D01*
X18428076Y-14944698D02*
X18437600Y-14963746D01*
X18437600Y-14963746D02*
X18447124Y-14973269D01*
X18447124Y-14973269D02*
X18466172Y-14982793D01*
X18466172Y-14982793D02*
X18504267Y-14982793D01*
X18504267Y-14982793D02*
X18523314Y-14973269D01*
X18523314Y-14973269D02*
X18532838Y-14963746D01*
X18532838Y-14963746D02*
X18542362Y-14944698D01*
X18732838Y-15058984D02*
X18618553Y-15058984D01*
X18675695Y-15058984D02*
X18675695Y-14858984D01*
X18675695Y-14858984D02*
X18656648Y-14887555D01*
X18656648Y-14887555D02*
X18637600Y-14906603D01*
X18637600Y-14906603D02*
X18618553Y-14916127D01*
X18809029Y-14858984D02*
X18809029Y-14897079D01*
X18885219Y-14858984D02*
X18885219Y-14897079D01*
X19180457Y-15135174D02*
X19170934Y-15125650D01*
X19170934Y-15125650D02*
X19151886Y-15097079D01*
X19151886Y-15097079D02*
X19142362Y-15078031D01*
X19142362Y-15078031D02*
X19132838Y-15049460D01*
X19132838Y-15049460D02*
X19123315Y-15001841D01*
X19123315Y-15001841D02*
X19123315Y-14963746D01*
X19123315Y-14963746D02*
X19132838Y-14916127D01*
X19132838Y-14916127D02*
X19142362Y-14887555D01*
X19142362Y-14887555D02*
X19151886Y-14868508D01*
X19151886Y-14868508D02*
X19170934Y-14839936D01*
X19170934Y-14839936D02*
X19180457Y-14830412D01*
X19361410Y-15058984D02*
X19247124Y-15058984D01*
X19304267Y-15058984D02*
X19304267Y-14858984D01*
X19304267Y-14858984D02*
X19285219Y-14887555D01*
X19285219Y-14887555D02*
X19266172Y-14906603D01*
X19266172Y-14906603D02*
X19247124Y-14916127D01*
X19475695Y-14944698D02*
X19456648Y-14935174D01*
X19456648Y-14935174D02*
X19447124Y-14925650D01*
X19447124Y-14925650D02*
X19437600Y-14906603D01*
X19437600Y-14906603D02*
X19437600Y-14897079D01*
X19437600Y-14897079D02*
X19447124Y-14878031D01*
X19447124Y-14878031D02*
X19456648Y-14868508D01*
X19456648Y-14868508D02*
X19475695Y-14858984D01*
X19475695Y-14858984D02*
X19513791Y-14858984D01*
X19513791Y-14858984D02*
X19532838Y-14868508D01*
X19532838Y-14868508D02*
X19542362Y-14878031D01*
X19542362Y-14878031D02*
X19551886Y-14897079D01*
X19551886Y-14897079D02*
X19551886Y-14906603D01*
X19551886Y-14906603D02*
X19542362Y-14925650D01*
X19542362Y-14925650D02*
X19532838Y-14935174D01*
X19532838Y-14935174D02*
X19513791Y-14944698D01*
X19513791Y-14944698D02*
X19475695Y-14944698D01*
X19475695Y-14944698D02*
X19456648Y-14954222D01*
X19456648Y-14954222D02*
X19447124Y-14963746D01*
X19447124Y-14963746D02*
X19437600Y-14982793D01*
X19437600Y-14982793D02*
X19437600Y-15020888D01*
X19437600Y-15020888D02*
X19447124Y-15039936D01*
X19447124Y-15039936D02*
X19456648Y-15049460D01*
X19456648Y-15049460D02*
X19475695Y-15058984D01*
X19475695Y-15058984D02*
X19513791Y-15058984D01*
X19513791Y-15058984D02*
X19532838Y-15049460D01*
X19532838Y-15049460D02*
X19542362Y-15039936D01*
X19542362Y-15039936D02*
X19551886Y-15020888D01*
X19551886Y-15020888D02*
X19551886Y-14982793D01*
X19551886Y-14982793D02*
X19542362Y-14963746D01*
X19542362Y-14963746D02*
X19532838Y-14954222D01*
X19532838Y-14954222D02*
X19513791Y-14944698D01*
X19789981Y-15058984D02*
X19789981Y-14858984D01*
X19875696Y-15058984D02*
X19875696Y-14954222D01*
X19875696Y-14954222D02*
X19866172Y-14935174D01*
X19866172Y-14935174D02*
X19847124Y-14925650D01*
X19847124Y-14925650D02*
X19818553Y-14925650D01*
X19818553Y-14925650D02*
X19799505Y-14935174D01*
X19799505Y-14935174D02*
X19789981Y-14944698D01*
X19999505Y-15058984D02*
X19980457Y-15049460D01*
X19980457Y-15049460D02*
X19970934Y-15039936D01*
X19970934Y-15039936D02*
X19961410Y-15020888D01*
X19961410Y-15020888D02*
X19961410Y-14963746D01*
X19961410Y-14963746D02*
X19970934Y-14944698D01*
X19970934Y-14944698D02*
X19980457Y-14935174D01*
X19980457Y-14935174D02*
X19999505Y-14925650D01*
X19999505Y-14925650D02*
X20028077Y-14925650D01*
X20028077Y-14925650D02*
X20047124Y-14935174D01*
X20047124Y-14935174D02*
X20056648Y-14944698D01*
X20056648Y-14944698D02*
X20066172Y-14963746D01*
X20066172Y-14963746D02*
X20066172Y-15020888D01*
X20066172Y-15020888D02*
X20056648Y-15039936D01*
X20056648Y-15039936D02*
X20047124Y-15049460D01*
X20047124Y-15049460D02*
X20028077Y-15058984D01*
X20028077Y-15058984D02*
X19999505Y-15058984D01*
X20180457Y-15058984D02*
X20161410Y-15049460D01*
X20161410Y-15049460D02*
X20151886Y-15030412D01*
X20151886Y-15030412D02*
X20151886Y-14858984D01*
X20332838Y-15049460D02*
X20313791Y-15058984D01*
X20313791Y-15058984D02*
X20275696Y-15058984D01*
X20275696Y-15058984D02*
X20256648Y-15049460D01*
X20256648Y-15049460D02*
X20247124Y-15030412D01*
X20247124Y-15030412D02*
X20247124Y-14954222D01*
X20247124Y-14954222D02*
X20256648Y-14935174D01*
X20256648Y-14935174D02*
X20275696Y-14925650D01*
X20275696Y-14925650D02*
X20313791Y-14925650D01*
X20313791Y-14925650D02*
X20332838Y-14935174D01*
X20332838Y-14935174D02*
X20342362Y-14954222D01*
X20342362Y-14954222D02*
X20342362Y-14973269D01*
X20342362Y-14973269D02*
X20247124Y-14992317D01*
X20418553Y-15049460D02*
X20437600Y-15058984D01*
X20437600Y-15058984D02*
X20475696Y-15058984D01*
X20475696Y-15058984D02*
X20494743Y-15049460D01*
X20494743Y-15049460D02*
X20504267Y-15030412D01*
X20504267Y-15030412D02*
X20504267Y-15020888D01*
X20504267Y-15020888D02*
X20494743Y-15001841D01*
X20494743Y-15001841D02*
X20475696Y-14992317D01*
X20475696Y-14992317D02*
X20447124Y-14992317D01*
X20447124Y-14992317D02*
X20428077Y-14982793D01*
X20428077Y-14982793D02*
X20418553Y-14963746D01*
X20418553Y-14963746D02*
X20418553Y-14954222D01*
X20418553Y-14954222D02*
X20428077Y-14935174D01*
X20428077Y-14935174D02*
X20447124Y-14925650D01*
X20447124Y-14925650D02*
X20475696Y-14925650D01*
X20475696Y-14925650D02*
X20494743Y-14935174D01*
X20570934Y-15135174D02*
X20580458Y-15125650D01*
X20580458Y-15125650D02*
X20599505Y-15097079D01*
X20599505Y-15097079D02*
X20609029Y-15078031D01*
X20609029Y-15078031D02*
X20618553Y-15049460D01*
X20618553Y-15049460D02*
X20628077Y-15001841D01*
X20628077Y-15001841D02*
X20628077Y-14963746D01*
X20628077Y-14963746D02*
X20618553Y-14916127D01*
X20618553Y-14916127D02*
X20609029Y-14887555D01*
X20609029Y-14887555D02*
X20599505Y-14868508D01*
X20599505Y-14868508D02*
X20580458Y-14839936D01*
X20580458Y-14839936D02*
X20570934Y-14830412D01*
X15405394Y-15137500D02*
X15605394Y-15337500D01*
X15605394Y-15137500D02*
X15405394Y-15337500D01*
X15505394Y-15337500D02*
X15605394Y-15237500D01*
X15505394Y-15137500D01*
X15405394Y-15237500D01*
X15505394Y-15337500D01*
X15856647Y-15148031D02*
X15866171Y-15138508D01*
X15866171Y-15138508D02*
X15885219Y-15128984D01*
X15885219Y-15128984D02*
X15932838Y-15128984D01*
X15932838Y-15128984D02*
X15951886Y-15138508D01*
X15951886Y-15138508D02*
X15961409Y-15148031D01*
X15961409Y-15148031D02*
X15970933Y-15167079D01*
X15970933Y-15167079D02*
X15970933Y-15186127D01*
X15970933Y-15186127D02*
X15961409Y-15214698D01*
X15961409Y-15214698D02*
X15847124Y-15328984D01*
X15847124Y-15328984D02*
X15970933Y-15328984D01*
X16056647Y-15309936D02*
X16066171Y-15319460D01*
X16066171Y-15319460D02*
X16056647Y-15328984D01*
X16056647Y-15328984D02*
X16047124Y-15319460D01*
X16047124Y-15319460D02*
X16056647Y-15309936D01*
X16056647Y-15309936D02*
X16056647Y-15328984D01*
X16142362Y-15148031D02*
X16151886Y-15138508D01*
X16151886Y-15138508D02*
X16170933Y-15128984D01*
X16170933Y-15128984D02*
X16218552Y-15128984D01*
X16218552Y-15128984D02*
X16237600Y-15138508D01*
X16237600Y-15138508D02*
X16247124Y-15148031D01*
X16247124Y-15148031D02*
X16256647Y-15167079D01*
X16256647Y-15167079D02*
X16256647Y-15186127D01*
X16256647Y-15186127D02*
X16247124Y-15214698D01*
X16247124Y-15214698D02*
X16132838Y-15328984D01*
X16132838Y-15328984D02*
X16256647Y-15328984D01*
X16380457Y-15128984D02*
X16399505Y-15128984D01*
X16399505Y-15128984D02*
X16418552Y-15138508D01*
X16418552Y-15138508D02*
X16428076Y-15148031D01*
X16428076Y-15148031D02*
X16437600Y-15167079D01*
X16437600Y-15167079D02*
X16447124Y-15205174D01*
X16447124Y-15205174D02*
X16447124Y-15252793D01*
X16447124Y-15252793D02*
X16437600Y-15290888D01*
X16437600Y-15290888D02*
X16428076Y-15309936D01*
X16428076Y-15309936D02*
X16418552Y-15319460D01*
X16418552Y-15319460D02*
X16399505Y-15328984D01*
X16399505Y-15328984D02*
X16380457Y-15328984D01*
X16380457Y-15328984D02*
X16361409Y-15319460D01*
X16361409Y-15319460D02*
X16351886Y-15309936D01*
X16351886Y-15309936D02*
X16342362Y-15290888D01*
X16342362Y-15290888D02*
X16332838Y-15252793D01*
X16332838Y-15252793D02*
X16332838Y-15205174D01*
X16332838Y-15205174D02*
X16342362Y-15167079D01*
X16342362Y-15167079D02*
X16351886Y-15148031D01*
X16351886Y-15148031D02*
X16361409Y-15138508D01*
X16361409Y-15138508D02*
X16380457Y-15128984D01*
X16570933Y-15128984D02*
X16589981Y-15128984D01*
X16589981Y-15128984D02*
X16609028Y-15138508D01*
X16609028Y-15138508D02*
X16618552Y-15148031D01*
X16618552Y-15148031D02*
X16628076Y-15167079D01*
X16628076Y-15167079D02*
X16637600Y-15205174D01*
X16637600Y-15205174D02*
X16637600Y-15252793D01*
X16637600Y-15252793D02*
X16628076Y-15290888D01*
X16628076Y-15290888D02*
X16618552Y-15309936D01*
X16618552Y-15309936D02*
X16609028Y-15319460D01*
X16609028Y-15319460D02*
X16589981Y-15328984D01*
X16589981Y-15328984D02*
X16570933Y-15328984D01*
X16570933Y-15328984D02*
X16551886Y-15319460D01*
X16551886Y-15319460D02*
X16542362Y-15309936D01*
X16542362Y-15309936D02*
X16532838Y-15290888D01*
X16532838Y-15290888D02*
X16523314Y-15252793D01*
X16523314Y-15252793D02*
X16523314Y-15205174D01*
X16523314Y-15205174D02*
X16532838Y-15167079D01*
X16532838Y-15167079D02*
X16542362Y-15148031D01*
X16542362Y-15148031D02*
X16551886Y-15138508D01*
X16551886Y-15138508D02*
X16570933Y-15128984D01*
X16723314Y-15328984D02*
X16723314Y-15195650D01*
X16723314Y-15214698D02*
X16732838Y-15205174D01*
X16732838Y-15205174D02*
X16751886Y-15195650D01*
X16751886Y-15195650D02*
X16780457Y-15195650D01*
X16780457Y-15195650D02*
X16799505Y-15205174D01*
X16799505Y-15205174D02*
X16809029Y-15224222D01*
X16809029Y-15224222D02*
X16809029Y-15328984D01*
X16809029Y-15224222D02*
X16818552Y-15205174D01*
X16818552Y-15205174D02*
X16837600Y-15195650D01*
X16837600Y-15195650D02*
X16866171Y-15195650D01*
X16866171Y-15195650D02*
X16885219Y-15205174D01*
X16885219Y-15205174D02*
X16894743Y-15224222D01*
X16894743Y-15224222D02*
X16894743Y-15328984D01*
X16989981Y-15328984D02*
X16989981Y-15195650D01*
X16989981Y-15214698D02*
X16999505Y-15205174D01*
X16999505Y-15205174D02*
X17018552Y-15195650D01*
X17018552Y-15195650D02*
X17047124Y-15195650D01*
X17047124Y-15195650D02*
X17066171Y-15205174D01*
X17066171Y-15205174D02*
X17075695Y-15224222D01*
X17075695Y-15224222D02*
X17075695Y-15328984D01*
X17075695Y-15224222D02*
X17085219Y-15205174D01*
X17085219Y-15205174D02*
X17104267Y-15195650D01*
X17104267Y-15195650D02*
X17132838Y-15195650D01*
X17132838Y-15195650D02*
X17151886Y-15205174D01*
X17151886Y-15205174D02*
X17161410Y-15224222D01*
X17161410Y-15224222D02*
X17161410Y-15328984D01*
X17551886Y-15119460D02*
X17380457Y-15376603D01*
X17809029Y-15128984D02*
X17828076Y-15128984D01*
X17828076Y-15128984D02*
X17847124Y-15138508D01*
X17847124Y-15138508D02*
X17856648Y-15148031D01*
X17856648Y-15148031D02*
X17866172Y-15167079D01*
X17866172Y-15167079D02*
X17875695Y-15205174D01*
X17875695Y-15205174D02*
X17875695Y-15252793D01*
X17875695Y-15252793D02*
X17866172Y-15290888D01*
X17866172Y-15290888D02*
X17856648Y-15309936D01*
X17856648Y-15309936D02*
X17847124Y-15319460D01*
X17847124Y-15319460D02*
X17828076Y-15328984D01*
X17828076Y-15328984D02*
X17809029Y-15328984D01*
X17809029Y-15328984D02*
X17789981Y-15319460D01*
X17789981Y-15319460D02*
X17780457Y-15309936D01*
X17780457Y-15309936D02*
X17770933Y-15290888D01*
X17770933Y-15290888D02*
X17761410Y-15252793D01*
X17761410Y-15252793D02*
X17761410Y-15205174D01*
X17761410Y-15205174D02*
X17770933Y-15167079D01*
X17770933Y-15167079D02*
X17780457Y-15148031D01*
X17780457Y-15148031D02*
X17789981Y-15138508D01*
X17789981Y-15138508D02*
X17809029Y-15128984D01*
X17961410Y-15309936D02*
X17970933Y-15319460D01*
X17970933Y-15319460D02*
X17961410Y-15328984D01*
X17961410Y-15328984D02*
X17951886Y-15319460D01*
X17951886Y-15319460D02*
X17961410Y-15309936D01*
X17961410Y-15309936D02*
X17961410Y-15328984D01*
X18094743Y-15128984D02*
X18113791Y-15128984D01*
X18113791Y-15128984D02*
X18132838Y-15138508D01*
X18132838Y-15138508D02*
X18142362Y-15148031D01*
X18142362Y-15148031D02*
X18151886Y-15167079D01*
X18151886Y-15167079D02*
X18161410Y-15205174D01*
X18161410Y-15205174D02*
X18161410Y-15252793D01*
X18161410Y-15252793D02*
X18151886Y-15290888D01*
X18151886Y-15290888D02*
X18142362Y-15309936D01*
X18142362Y-15309936D02*
X18132838Y-15319460D01*
X18132838Y-15319460D02*
X18113791Y-15328984D01*
X18113791Y-15328984D02*
X18094743Y-15328984D01*
X18094743Y-15328984D02*
X18075695Y-15319460D01*
X18075695Y-15319460D02*
X18066172Y-15309936D01*
X18066172Y-15309936D02*
X18056648Y-15290888D01*
X18056648Y-15290888D02*
X18047124Y-15252793D01*
X18047124Y-15252793D02*
X18047124Y-15205174D01*
X18047124Y-15205174D02*
X18056648Y-15167079D01*
X18056648Y-15167079D02*
X18066172Y-15148031D01*
X18066172Y-15148031D02*
X18075695Y-15138508D01*
X18075695Y-15138508D02*
X18094743Y-15128984D01*
X18275695Y-15214698D02*
X18256648Y-15205174D01*
X18256648Y-15205174D02*
X18247124Y-15195650D01*
X18247124Y-15195650D02*
X18237600Y-15176603D01*
X18237600Y-15176603D02*
X18237600Y-15167079D01*
X18237600Y-15167079D02*
X18247124Y-15148031D01*
X18247124Y-15148031D02*
X18256648Y-15138508D01*
X18256648Y-15138508D02*
X18275695Y-15128984D01*
X18275695Y-15128984D02*
X18313791Y-15128984D01*
X18313791Y-15128984D02*
X18332838Y-15138508D01*
X18332838Y-15138508D02*
X18342362Y-15148031D01*
X18342362Y-15148031D02*
X18351886Y-15167079D01*
X18351886Y-15167079D02*
X18351886Y-15176603D01*
X18351886Y-15176603D02*
X18342362Y-15195650D01*
X18342362Y-15195650D02*
X18332838Y-15205174D01*
X18332838Y-15205174D02*
X18313791Y-15214698D01*
X18313791Y-15214698D02*
X18275695Y-15214698D01*
X18275695Y-15214698D02*
X18256648Y-15224222D01*
X18256648Y-15224222D02*
X18247124Y-15233746D01*
X18247124Y-15233746D02*
X18237600Y-15252793D01*
X18237600Y-15252793D02*
X18237600Y-15290888D01*
X18237600Y-15290888D02*
X18247124Y-15309936D01*
X18247124Y-15309936D02*
X18256648Y-15319460D01*
X18256648Y-15319460D02*
X18275695Y-15328984D01*
X18275695Y-15328984D02*
X18313791Y-15328984D01*
X18313791Y-15328984D02*
X18332838Y-15319460D01*
X18332838Y-15319460D02*
X18342362Y-15309936D01*
X18342362Y-15309936D02*
X18351886Y-15290888D01*
X18351886Y-15290888D02*
X18351886Y-15252793D01*
X18351886Y-15252793D02*
X18342362Y-15233746D01*
X18342362Y-15233746D02*
X18332838Y-15224222D01*
X18332838Y-15224222D02*
X18313791Y-15214698D01*
X18523314Y-15128984D02*
X18485219Y-15128984D01*
X18485219Y-15128984D02*
X18466172Y-15138508D01*
X18466172Y-15138508D02*
X18456648Y-15148031D01*
X18456648Y-15148031D02*
X18437600Y-15176603D01*
X18437600Y-15176603D02*
X18428076Y-15214698D01*
X18428076Y-15214698D02*
X18428076Y-15290888D01*
X18428076Y-15290888D02*
X18437600Y-15309936D01*
X18437600Y-15309936D02*
X18447124Y-15319460D01*
X18447124Y-15319460D02*
X18466172Y-15328984D01*
X18466172Y-15328984D02*
X18504267Y-15328984D01*
X18504267Y-15328984D02*
X18523314Y-15319460D01*
X18523314Y-15319460D02*
X18532838Y-15309936D01*
X18532838Y-15309936D02*
X18542362Y-15290888D01*
X18542362Y-15290888D02*
X18542362Y-15243269D01*
X18542362Y-15243269D02*
X18532838Y-15224222D01*
X18532838Y-15224222D02*
X18523314Y-15214698D01*
X18523314Y-15214698D02*
X18504267Y-15205174D01*
X18504267Y-15205174D02*
X18466172Y-15205174D01*
X18466172Y-15205174D02*
X18447124Y-15214698D01*
X18447124Y-15214698D02*
X18437600Y-15224222D01*
X18437600Y-15224222D02*
X18428076Y-15243269D01*
X18713791Y-15128984D02*
X18675695Y-15128984D01*
X18675695Y-15128984D02*
X18656648Y-15138508D01*
X18656648Y-15138508D02*
X18647124Y-15148031D01*
X18647124Y-15148031D02*
X18628076Y-15176603D01*
X18628076Y-15176603D02*
X18618553Y-15214698D01*
X18618553Y-15214698D02*
X18618553Y-15290888D01*
X18618553Y-15290888D02*
X18628076Y-15309936D01*
X18628076Y-15309936D02*
X18637600Y-15319460D01*
X18637600Y-15319460D02*
X18656648Y-15328984D01*
X18656648Y-15328984D02*
X18694743Y-15328984D01*
X18694743Y-15328984D02*
X18713791Y-15319460D01*
X18713791Y-15319460D02*
X18723314Y-15309936D01*
X18723314Y-15309936D02*
X18732838Y-15290888D01*
X18732838Y-15290888D02*
X18732838Y-15243269D01*
X18732838Y-15243269D02*
X18723314Y-15224222D01*
X18723314Y-15224222D02*
X18713791Y-15214698D01*
X18713791Y-15214698D02*
X18694743Y-15205174D01*
X18694743Y-15205174D02*
X18656648Y-15205174D01*
X18656648Y-15205174D02*
X18637600Y-15214698D01*
X18637600Y-15214698D02*
X18628076Y-15224222D01*
X18628076Y-15224222D02*
X18618553Y-15243269D01*
X18809029Y-15128984D02*
X18809029Y-15167079D01*
X18885219Y-15128984D02*
X18885219Y-15167079D01*
X19180457Y-15405174D02*
X19170934Y-15395650D01*
X19170934Y-15395650D02*
X19151886Y-15367079D01*
X19151886Y-15367079D02*
X19142362Y-15348031D01*
X19142362Y-15348031D02*
X19132838Y-15319460D01*
X19132838Y-15319460D02*
X19123315Y-15271841D01*
X19123315Y-15271841D02*
X19123315Y-15233746D01*
X19123315Y-15233746D02*
X19132838Y-15186127D01*
X19132838Y-15186127D02*
X19142362Y-15157555D01*
X19142362Y-15157555D02*
X19151886Y-15138508D01*
X19151886Y-15138508D02*
X19170934Y-15109936D01*
X19170934Y-15109936D02*
X19180457Y-15100412D01*
X19247124Y-15148031D02*
X19256648Y-15138508D01*
X19256648Y-15138508D02*
X19275695Y-15128984D01*
X19275695Y-15128984D02*
X19323315Y-15128984D01*
X19323315Y-15128984D02*
X19342362Y-15138508D01*
X19342362Y-15138508D02*
X19351886Y-15148031D01*
X19351886Y-15148031D02*
X19361410Y-15167079D01*
X19361410Y-15167079D02*
X19361410Y-15186127D01*
X19361410Y-15186127D02*
X19351886Y-15214698D01*
X19351886Y-15214698D02*
X19237600Y-15328984D01*
X19237600Y-15328984D02*
X19361410Y-15328984D01*
X19599505Y-15328984D02*
X19599505Y-15128984D01*
X19685219Y-15328984D02*
X19685219Y-15224222D01*
X19685219Y-15224222D02*
X19675696Y-15205174D01*
X19675696Y-15205174D02*
X19656648Y-15195650D01*
X19656648Y-15195650D02*
X19628076Y-15195650D01*
X19628076Y-15195650D02*
X19609029Y-15205174D01*
X19609029Y-15205174D02*
X19599505Y-15214698D01*
X19809029Y-15328984D02*
X19789981Y-15319460D01*
X19789981Y-15319460D02*
X19780457Y-15309936D01*
X19780457Y-15309936D02*
X19770934Y-15290888D01*
X19770934Y-15290888D02*
X19770934Y-15233746D01*
X19770934Y-15233746D02*
X19780457Y-15214698D01*
X19780457Y-15214698D02*
X19789981Y-15205174D01*
X19789981Y-15205174D02*
X19809029Y-15195650D01*
X19809029Y-15195650D02*
X19837600Y-15195650D01*
X19837600Y-15195650D02*
X19856648Y-15205174D01*
X19856648Y-15205174D02*
X19866172Y-15214698D01*
X19866172Y-15214698D02*
X19875696Y-15233746D01*
X19875696Y-15233746D02*
X19875696Y-15290888D01*
X19875696Y-15290888D02*
X19866172Y-15309936D01*
X19866172Y-15309936D02*
X19856648Y-15319460D01*
X19856648Y-15319460D02*
X19837600Y-15328984D01*
X19837600Y-15328984D02*
X19809029Y-15328984D01*
X19989981Y-15328984D02*
X19970934Y-15319460D01*
X19970934Y-15319460D02*
X19961410Y-15300412D01*
X19961410Y-15300412D02*
X19961410Y-15128984D01*
X20142362Y-15319460D02*
X20123315Y-15328984D01*
X20123315Y-15328984D02*
X20085219Y-15328984D01*
X20085219Y-15328984D02*
X20066172Y-15319460D01*
X20066172Y-15319460D02*
X20056648Y-15300412D01*
X20056648Y-15300412D02*
X20056648Y-15224222D01*
X20056648Y-15224222D02*
X20066172Y-15205174D01*
X20066172Y-15205174D02*
X20085219Y-15195650D01*
X20085219Y-15195650D02*
X20123315Y-15195650D01*
X20123315Y-15195650D02*
X20142362Y-15205174D01*
X20142362Y-15205174D02*
X20151886Y-15224222D01*
X20151886Y-15224222D02*
X20151886Y-15243269D01*
X20151886Y-15243269D02*
X20056648Y-15262317D01*
X20228077Y-15319460D02*
X20247124Y-15328984D01*
X20247124Y-15328984D02*
X20285219Y-15328984D01*
X20285219Y-15328984D02*
X20304267Y-15319460D01*
X20304267Y-15319460D02*
X20313791Y-15300412D01*
X20313791Y-15300412D02*
X20313791Y-15290888D01*
X20313791Y-15290888D02*
X20304267Y-15271841D01*
X20304267Y-15271841D02*
X20285219Y-15262317D01*
X20285219Y-15262317D02*
X20256648Y-15262317D01*
X20256648Y-15262317D02*
X20237600Y-15252793D01*
X20237600Y-15252793D02*
X20228077Y-15233746D01*
X20228077Y-15233746D02*
X20228077Y-15224222D01*
X20228077Y-15224222D02*
X20237600Y-15205174D01*
X20237600Y-15205174D02*
X20256648Y-15195650D01*
X20256648Y-15195650D02*
X20285219Y-15195650D01*
X20285219Y-15195650D02*
X20304267Y-15205174D01*
X20380458Y-15405174D02*
X20389981Y-15395650D01*
X20389981Y-15395650D02*
X20409029Y-15367079D01*
X20409029Y-15367079D02*
X20418553Y-15348031D01*
X20418553Y-15348031D02*
X20428077Y-15319460D01*
X20428077Y-15319460D02*
X20437600Y-15271841D01*
X20437600Y-15271841D02*
X20437600Y-15233746D01*
X20437600Y-15233746D02*
X20428077Y-15186127D01*
X20428077Y-15186127D02*
X20418553Y-15157555D01*
X20418553Y-15157555D02*
X20409029Y-15138508D01*
X20409029Y-15138508D02*
X20389981Y-15109936D01*
X20389981Y-15109936D02*
X20380458Y-15100412D01*
M02*
