%TF.GenerationSoftware,KiCad,Pcbnew,8.0.4*%
%TF.CreationDate,2024-09-22T00:56:18-03:00*%
%TF.ProjectId,DongleALIVEv2.0,446f6e67-6c65-4414-9c49-564576322e30,2.0*%
%TF.SameCoordinates,Original*%
%TF.FileFunction,Drillmap*%
%TF.FilePolarity,Positive*%
%FSLAX45Y45*%
G04 Gerber Fmt 4.5, Leading zero omitted, Abs format (unit mm)*
G04 Created by KiCad (PCBNEW 8.0.4) date 2024-09-22 00:56:18*
%MOMM*%
%LPD*%
G01*
G04 APERTURE LIST*
%ADD10C,0.050000*%
%ADD11C,0.200000*%
G04 APERTURE END LIST*
D10*
X19907789Y-6976389D02*
G75*
G02*
X20107901Y-7176494I-19J-200131D01*
G01*
X20108000Y-12276894D02*
G75*
G02*
X19907895Y-12477000I-200110J5D01*
G01*
X20107895Y-7176494D02*
X20107895Y-12276894D01*
X15808000Y-12477000D02*
G75*
G02*
X15607900Y-12276894I0J200100D01*
G01*
X15808000Y-6976390D02*
X19907789Y-6976390D01*
X15607894Y-7176496D02*
G75*
G02*
X15808000Y-6976384I200116J-4D01*
G01*
X15607894Y-12276894D02*
X15607894Y-7176496D01*
X19907895Y-12477000D02*
X15808000Y-12477000D01*
D11*
X15866171Y-12790984D02*
X15866171Y-12590984D01*
X15866171Y-12590984D02*
X15913790Y-12590984D01*
X15913790Y-12590984D02*
X15942362Y-12600508D01*
X15942362Y-12600508D02*
X15961409Y-12619555D01*
X15961409Y-12619555D02*
X15970933Y-12638603D01*
X15970933Y-12638603D02*
X15980457Y-12676698D01*
X15980457Y-12676698D02*
X15980457Y-12705269D01*
X15980457Y-12705269D02*
X15970933Y-12743365D01*
X15970933Y-12743365D02*
X15961409Y-12762412D01*
X15961409Y-12762412D02*
X15942362Y-12781460D01*
X15942362Y-12781460D02*
X15913790Y-12790984D01*
X15913790Y-12790984D02*
X15866171Y-12790984D01*
X16066171Y-12790984D02*
X16066171Y-12657650D01*
X16066171Y-12695746D02*
X16075695Y-12676698D01*
X16075695Y-12676698D02*
X16085219Y-12667174D01*
X16085219Y-12667174D02*
X16104266Y-12657650D01*
X16104266Y-12657650D02*
X16123314Y-12657650D01*
X16189981Y-12790984D02*
X16189981Y-12657650D01*
X16189981Y-12590984D02*
X16180457Y-12600508D01*
X16180457Y-12600508D02*
X16189981Y-12610031D01*
X16189981Y-12610031D02*
X16199505Y-12600508D01*
X16199505Y-12600508D02*
X16189981Y-12590984D01*
X16189981Y-12590984D02*
X16189981Y-12610031D01*
X16313790Y-12790984D02*
X16294743Y-12781460D01*
X16294743Y-12781460D02*
X16285219Y-12762412D01*
X16285219Y-12762412D02*
X16285219Y-12590984D01*
X16418552Y-12790984D02*
X16399505Y-12781460D01*
X16399505Y-12781460D02*
X16389981Y-12762412D01*
X16389981Y-12762412D02*
X16389981Y-12590984D01*
X16647124Y-12790984D02*
X16647124Y-12590984D01*
X16647124Y-12590984D02*
X16713790Y-12733841D01*
X16713790Y-12733841D02*
X16780457Y-12590984D01*
X16780457Y-12590984D02*
X16780457Y-12790984D01*
X16961409Y-12790984D02*
X16961409Y-12686222D01*
X16961409Y-12686222D02*
X16951886Y-12667174D01*
X16951886Y-12667174D02*
X16932838Y-12657650D01*
X16932838Y-12657650D02*
X16894743Y-12657650D01*
X16894743Y-12657650D02*
X16875695Y-12667174D01*
X16961409Y-12781460D02*
X16942362Y-12790984D01*
X16942362Y-12790984D02*
X16894743Y-12790984D01*
X16894743Y-12790984D02*
X16875695Y-12781460D01*
X16875695Y-12781460D02*
X16866171Y-12762412D01*
X16866171Y-12762412D02*
X16866171Y-12743365D01*
X16866171Y-12743365D02*
X16875695Y-12724317D01*
X16875695Y-12724317D02*
X16894743Y-12714793D01*
X16894743Y-12714793D02*
X16942362Y-12714793D01*
X16942362Y-12714793D02*
X16961409Y-12705269D01*
X17056648Y-12657650D02*
X17056648Y-12857650D01*
X17056648Y-12667174D02*
X17075695Y-12657650D01*
X17075695Y-12657650D02*
X17113790Y-12657650D01*
X17113790Y-12657650D02*
X17132838Y-12667174D01*
X17132838Y-12667174D02*
X17142362Y-12676698D01*
X17142362Y-12676698D02*
X17151886Y-12695746D01*
X17151886Y-12695746D02*
X17151886Y-12752888D01*
X17151886Y-12752888D02*
X17142362Y-12771936D01*
X17142362Y-12771936D02*
X17132838Y-12781460D01*
X17132838Y-12781460D02*
X17113790Y-12790984D01*
X17113790Y-12790984D02*
X17075695Y-12790984D01*
X17075695Y-12790984D02*
X17056648Y-12781460D01*
X17237600Y-12771936D02*
X17247124Y-12781460D01*
X17247124Y-12781460D02*
X17237600Y-12790984D01*
X17237600Y-12790984D02*
X17228076Y-12781460D01*
X17228076Y-12781460D02*
X17237600Y-12771936D01*
X17237600Y-12771936D02*
X17237600Y-12790984D01*
X17237600Y-12667174D02*
X17247124Y-12676698D01*
X17247124Y-12676698D02*
X17237600Y-12686222D01*
X17237600Y-12686222D02*
X17228076Y-12676698D01*
X17228076Y-12676698D02*
X17237600Y-12667174D01*
X17237600Y-12667174D02*
X17237600Y-12686222D01*
M02*
