%TF.GenerationSoftware,KiCad,Pcbnew,8.0.4*%
%TF.CreationDate,2024-10-02T02:16:05-03:00*%
%TF.ProjectId,DongleALIVEv2.0,446f6e67-6c65-4414-9c49-564576322e30,2.0*%
%TF.SameCoordinates,Original*%
%TF.FileFunction,Drillmap*%
%TF.FilePolarity,Positive*%
%FSLAX45Y45*%
G04 Gerber Fmt 4.5, Leading zero omitted, Abs format (unit mm)*
G04 Created by KiCad (PCBNEW 8.0.4) date 2024-10-02 02:16:05*
%MOMM*%
%LPD*%
G01*
G04 APERTURE LIST*
%ADD10C,0.050000*%
%ADD11C,0.200000*%
G04 APERTURE END LIST*
D10*
X15809289Y-7058889D02*
G75*
G02*
X16009391Y-7258994I-19J-200121D01*
G01*
X16009500Y-12359394D02*
G75*
G02*
X15809394Y-12559500I-200110J5D01*
G01*
X16009394Y-7258994D02*
X16009394Y-12359394D01*
X11709500Y-12559500D02*
G75*
G02*
X11509390Y-12359394I0J200110D01*
G01*
X11709500Y-7058890D02*
X15809289Y-7058890D01*
X11509394Y-7258996D02*
G75*
G02*
X11709500Y-7058894I200106J-4D01*
G01*
X11509394Y-12359394D02*
X11509394Y-7258996D01*
X15809394Y-12559500D02*
X11709500Y-12559500D01*
D11*
X11767671Y-12873484D02*
X11767671Y-12673484D01*
X11767671Y-12673484D02*
X11815290Y-12673484D01*
X11815290Y-12673484D02*
X11843862Y-12683008D01*
X11843862Y-12683008D02*
X11862909Y-12702055D01*
X11862909Y-12702055D02*
X11872433Y-12721103D01*
X11872433Y-12721103D02*
X11881957Y-12759198D01*
X11881957Y-12759198D02*
X11881957Y-12787769D01*
X11881957Y-12787769D02*
X11872433Y-12825865D01*
X11872433Y-12825865D02*
X11862909Y-12844912D01*
X11862909Y-12844912D02*
X11843862Y-12863960D01*
X11843862Y-12863960D02*
X11815290Y-12873484D01*
X11815290Y-12873484D02*
X11767671Y-12873484D01*
X11967671Y-12873484D02*
X11967671Y-12740150D01*
X11967671Y-12778246D02*
X11977195Y-12759198D01*
X11977195Y-12759198D02*
X11986719Y-12749674D01*
X11986719Y-12749674D02*
X12005766Y-12740150D01*
X12005766Y-12740150D02*
X12024814Y-12740150D01*
X12091481Y-12873484D02*
X12091481Y-12740150D01*
X12091481Y-12673484D02*
X12081957Y-12683008D01*
X12081957Y-12683008D02*
X12091481Y-12692531D01*
X12091481Y-12692531D02*
X12101005Y-12683008D01*
X12101005Y-12683008D02*
X12091481Y-12673484D01*
X12091481Y-12673484D02*
X12091481Y-12692531D01*
X12215290Y-12873484D02*
X12196243Y-12863960D01*
X12196243Y-12863960D02*
X12186719Y-12844912D01*
X12186719Y-12844912D02*
X12186719Y-12673484D01*
X12320052Y-12873484D02*
X12301005Y-12863960D01*
X12301005Y-12863960D02*
X12291481Y-12844912D01*
X12291481Y-12844912D02*
X12291481Y-12673484D01*
X12548624Y-12873484D02*
X12548624Y-12673484D01*
X12548624Y-12673484D02*
X12615290Y-12816341D01*
X12615290Y-12816341D02*
X12681957Y-12673484D01*
X12681957Y-12673484D02*
X12681957Y-12873484D01*
X12862909Y-12873484D02*
X12862909Y-12768722D01*
X12862909Y-12768722D02*
X12853386Y-12749674D01*
X12853386Y-12749674D02*
X12834338Y-12740150D01*
X12834338Y-12740150D02*
X12796243Y-12740150D01*
X12796243Y-12740150D02*
X12777195Y-12749674D01*
X12862909Y-12863960D02*
X12843862Y-12873484D01*
X12843862Y-12873484D02*
X12796243Y-12873484D01*
X12796243Y-12873484D02*
X12777195Y-12863960D01*
X12777195Y-12863960D02*
X12767671Y-12844912D01*
X12767671Y-12844912D02*
X12767671Y-12825865D01*
X12767671Y-12825865D02*
X12777195Y-12806817D01*
X12777195Y-12806817D02*
X12796243Y-12797293D01*
X12796243Y-12797293D02*
X12843862Y-12797293D01*
X12843862Y-12797293D02*
X12862909Y-12787769D01*
X12958147Y-12740150D02*
X12958147Y-12940150D01*
X12958147Y-12749674D02*
X12977195Y-12740150D01*
X12977195Y-12740150D02*
X13015290Y-12740150D01*
X13015290Y-12740150D02*
X13034338Y-12749674D01*
X13034338Y-12749674D02*
X13043862Y-12759198D01*
X13043862Y-12759198D02*
X13053386Y-12778246D01*
X13053386Y-12778246D02*
X13053386Y-12835388D01*
X13053386Y-12835388D02*
X13043862Y-12854436D01*
X13043862Y-12854436D02*
X13034338Y-12863960D01*
X13034338Y-12863960D02*
X13015290Y-12873484D01*
X13015290Y-12873484D02*
X12977195Y-12873484D01*
X12977195Y-12873484D02*
X12958147Y-12863960D01*
X13139100Y-12854436D02*
X13148624Y-12863960D01*
X13148624Y-12863960D02*
X13139100Y-12873484D01*
X13139100Y-12873484D02*
X13129576Y-12863960D01*
X13129576Y-12863960D02*
X13139100Y-12854436D01*
X13139100Y-12854436D02*
X13139100Y-12873484D01*
X13139100Y-12749674D02*
X13148624Y-12759198D01*
X13148624Y-12759198D02*
X13139100Y-12768722D01*
X13139100Y-12768722D02*
X13129576Y-12759198D01*
X13129576Y-12759198D02*
X13139100Y-12749674D01*
X13139100Y-12749674D02*
X13139100Y-12768722D01*
M02*
