M48
; DRILL file {KiCad 8.0.4} date 2024-10-05T16:08:15-0300
; FORMAT={-:-/ absolute / metric / decimal}
; #@! TF.CreationDate,2024-10-05T16:08:15-03:00
; #@! TF.GenerationSoftware,Kicad,Pcbnew,8.0.4
; #@! TF.FileFunction,Plated,1,2,PTH
FMAT,2
METRIC
; #@! TA.AperFunction,Plated,PTH,ViaDrill
T1C0.300
; #@! TA.AperFunction,Plated,PTH,ComponentDrill
T2C0.300
; #@! TA.AperFunction,Plated,PTH,ViaDrill
T3C0.400
; #@! TA.AperFunction,Plated,PTH,ComponentDrill
T4C0.400
; #@! TA.AperFunction,Plated,PTH,ComponentDrill
T5C0.900
; #@! TA.AperFunction,Plated,PTH,ComponentDrill
T6C1.000
; #@! TA.AperFunction,Plated,PTH,ComponentDrill
T7C1.050
; #@! TA.AperFunction,Plated,PTH,ComponentDrill
T8C1.500
; #@! TA.AperFunction,Plated,PTH,ComponentDrill
T9C2.200
%
G90
G05
T1
X116.075Y-106.665
X116.725Y-119.605
X116.725Y-122.635
X117.95Y-110.613
X118.125Y-94.155
X118.165Y-116.155
X119.545Y-118.125
X119.565Y-121.125
X119.575Y-124.125
X119.585Y-115.945
X120.393Y-110.372
X120.395Y-86.115
X120.835Y-96.785
X121.035Y-113.405
X121.185Y-106.875
X121.525Y-84.585
X122.075Y-81.085
X122.305Y-113.305
X122.565Y-91.695
X122.565Y-106.855
X122.985Y-109.085
X123.475Y-122.635
X123.615Y-115.655
X124.085Y-116.635
X124.115Y-108.585
X124.605Y-81.085
X124.665Y-91.685
X124.735Y-121.895
X124.735Y-122.895
X124.735Y-123.895
X124.735Y-124.895
X124.835Y-117.865
X125.805Y-101.095
X125.89Y-86.73
X126.175Y-73.695
X126.47Y-105.184
X126.785Y-101.265
X126.795Y-104.345
X127.285Y-85.165
X128.235Y-101.285
X129.615Y-94.015
X129.755Y-86.745
X129.755Y-89.075
X130.385Y-73.715
X131.195Y-118.845
X131.275Y-111.535
X131.885Y-115.045
X132.195Y-118.845
X132.255Y-100.255
X133.195Y-118.845
X133.255Y-110.775
X133.315Y-115.185
X133.415Y-100.185
X134.195Y-71.385
X134.195Y-118.845
X134.47Y-114.74
X134.515Y-101.235
X134.985Y-107.085
X135.195Y-118.845
X135.605Y-87.515
X136.05Y-111.47
X136.195Y-118.845
X136.27Y-103.62
X136.449Y-109.691
X136.615Y-83.185
X136.98Y-106.79
X137.195Y-118.845
X137.265Y-90.115
X137.77Y-109.7
X138.195Y-118.845
X138.215Y-73.655
X138.725Y-106.895
X139.175Y-112.755
X139.205Y-114.035
X139.665Y-100.025
X140.425Y-118.795
X141.145Y-100.265
X141.655Y-115.285
X141.695Y-111.465
X142.205Y-73.705
X142.955Y-98.345
X143.435Y-89.725
X143.525Y-103.935
X143.68Y-108.86
X144.285Y-101.425
X144.395Y-111.565
X144.525Y-114.485
X144.53Y-109.44
X144.975Y-115.895
X145.335Y-101.415
X145.815Y-114.595
X145.975Y-115.895
X146.234Y-101.445
X146.235Y-73.705
X146.355Y-113.875
X146.415Y-90.495
X146.415Y-91.495
X146.415Y-92.355
X146.415Y-93.355
X146.425Y-89.565
X146.975Y-115.895
X147.325Y-90.495
X147.325Y-91.495
X147.335Y-89.565
X148.325Y-90.495
X148.325Y-91.495
X148.43Y-101.72
X148.935Y-89.005
X149.185Y-90.495
X149.185Y-91.495
X149.565Y-93.175
X149.775Y-85.165
X150.025Y-73.785
X150.185Y-90.495
X150.185Y-91.495
X150.615Y-98.655
X152.105Y-90.905
X152.515Y-82.935
X152.675Y-103.215
X153.945Y-89.395
X153.945Y-90.395
X153.945Y-91.255
X153.945Y-92.255
X154.495Y-96.525
X155.705Y-87.575
X155.705Y-89.935
X156.455Y-116.135
X156.625Y-113.125
X157.925Y-118.795
X157.955Y-99.985
X158.925Y-99.105
T2
X148.33Y-109.718
X148.33Y-111.242
X149.093Y-108.955
X149.093Y-110.48
X149.093Y-112.005
X149.855Y-109.718
X149.855Y-111.242
X150.618Y-108.955
X150.618Y-110.48
X150.618Y-112.005
X151.38Y-109.718
X151.38Y-111.242
T3
X116.535Y-84.575
X119.615Y-94.025
X123.345Y-80.095
X123.345Y-82.245
X127.715Y-107.535
X127.715Y-109.745
X142.625Y-118.415
X145.165Y-118.415
X147.705Y-118.415
X150.245Y-118.415
X152.785Y-118.415
X155.325Y-118.415
T4
X125.395Y-115.005
X125.878Y-113.838
X125.878Y-116.172
X127.045Y-113.355
X127.045Y-116.655
X128.212Y-113.838
X128.212Y-116.172
X128.695Y-115.005
X155.155Y-73.845
X155.638Y-72.678
X155.638Y-75.012
X156.805Y-72.195
X156.805Y-75.495
X157.972Y-72.678
X157.972Y-75.012
X158.455Y-73.845
T5
X117.225Y-98.375
X117.225Y-100.375
X117.225Y-102.375
T6
X123.725Y-94.965
X123.725Y-97.505
X123.725Y-100.045
X123.725Y-102.585
X123.725Y-105.125
X157.645Y-86.125
X157.645Y-88.665
X157.645Y-91.205
X157.645Y-93.745
X157.645Y-96.285
T7
X118.665Y-72.125
X118.665Y-77.125
X118.665Y-87.125
X118.665Y-92.125
T8
X117.225Y-96.275
X117.225Y-104.475
X124.195Y-72.285
X124.195Y-75.285
X128.195Y-72.285
X128.195Y-75.285
X132.195Y-72.285
X132.195Y-75.285
X136.195Y-72.285
X136.195Y-75.285
X140.195Y-72.285
X140.195Y-75.285
X144.195Y-72.285
X144.195Y-75.285
X148.195Y-72.285
X148.195Y-75.285
X152.195Y-72.285
X152.195Y-75.285
T9
X127.045Y-115.005
X156.805Y-73.845
M30
