%TF.GenerationSoftware,KiCad,Pcbnew,8.0.4*%
%TF.CreationDate,2024-09-22T00:56:15-03:00*%
%TF.ProjectId,DongleALIVEv2.0,446f6e67-6c65-4414-9c49-564576322e30,2.0*%
%TF.SameCoordinates,Original*%
%TF.FileFunction,Copper,L2,Bot*%
%TF.FilePolarity,Positive*%
%FSLAX46Y46*%
G04 Gerber Fmt 4.6, Leading zero omitted, Abs format (unit mm)*
G04 Created by KiCad (PCBNEW 8.0.4) date 2024-09-22 00:56:15*
%MOMM*%
%LPD*%
G01*
G04 APERTURE LIST*
G04 Aperture macros list*
%AMRoundRect*
0 Rectangle with rounded corners*
0 $1 Rounding radius*
0 $2 $3 $4 $5 $6 $7 $8 $9 X,Y pos of 4 corners*
0 Add a 4 corners polygon primitive as box body*
4,1,4,$2,$3,$4,$5,$6,$7,$8,$9,$2,$3,0*
0 Add four circle primitives for the rounded corners*
1,1,$1+$1,$2,$3*
1,1,$1+$1,$4,$5*
1,1,$1+$1,$6,$7*
1,1,$1+$1,$8,$9*
0 Add four rect primitives between the rounded corners*
20,1,$1+$1,$2,$3,$4,$5,0*
20,1,$1+$1,$4,$5,$6,$7,0*
20,1,$1+$1,$6,$7,$8,$9,0*
20,1,$1+$1,$8,$9,$2,$3,0*%
%AMFreePoly0*
4,1,19,0.500000,-0.750000,0.000000,-0.750000,0.000000,-0.744911,-0.071157,-0.744911,-0.207708,-0.704816,-0.327430,-0.627875,-0.420627,-0.520320,-0.479746,-0.390866,-0.500000,-0.250000,-0.500000,0.250000,-0.479746,0.390866,-0.420627,0.520320,-0.327430,0.627875,-0.207708,0.704816,-0.071157,0.744911,0.000000,0.744911,0.000000,0.750000,0.500000,0.750000,0.500000,-0.750000,0.500000,-0.750000,
$1*%
%AMFreePoly1*
4,1,19,0.000000,0.744911,0.071157,0.744911,0.207708,0.704816,0.327430,0.627875,0.420627,0.520320,0.479746,0.390866,0.500000,0.250000,0.500000,-0.250000,0.479746,-0.390866,0.420627,-0.520320,0.327430,-0.627875,0.207708,-0.704816,0.071157,-0.744911,0.000000,-0.744911,0.000000,-0.750000,-0.500000,-0.750000,-0.500000,0.750000,0.000000,0.750000,0.000000,0.744911,0.000000,0.744911,
$1*%
G04 Aperture macros list end*
%TA.AperFunction,ComponentPad*%
%ADD10R,1.700000X1.700000*%
%TD*%
%TA.AperFunction,ComponentPad*%
%ADD11O,1.700000X1.700000*%
%TD*%
%TA.AperFunction,ComponentPad*%
%ADD12O,3.500000X2.200000*%
%TD*%
%TA.AperFunction,ComponentPad*%
%ADD13R,2.500000X1.500000*%
%TD*%
%TA.AperFunction,ComponentPad*%
%ADD14O,2.500000X1.500000*%
%TD*%
%TA.AperFunction,ComponentPad*%
%ADD15C,0.700000*%
%TD*%
%TA.AperFunction,ComponentPad*%
%ADD16C,4.400000*%
%TD*%
%TA.AperFunction,ComponentPad*%
%ADD17R,2.500000X2.500000*%
%TD*%
%TA.AperFunction,ComponentPad*%
%ADD18C,2.500000*%
%TD*%
%TA.AperFunction,HeatsinkPad*%
%ADD19C,0.600000*%
%TD*%
%TA.AperFunction,ComponentPad*%
%ADD20RoundRect,0.500000X-0.500000X0.500000X-0.500000X-0.500000X0.500000X-0.500000X0.500000X0.500000X0*%
%TD*%
%TA.AperFunction,ComponentPad*%
%ADD21C,2.000000*%
%TD*%
%TA.AperFunction,SMDPad,CuDef*%
%ADD22RoundRect,0.250000X0.475000X-0.337500X0.475000X0.337500X-0.475000X0.337500X-0.475000X-0.337500X0*%
%TD*%
%TA.AperFunction,SMDPad,CuDef*%
%ADD23RoundRect,0.250000X0.350000X0.450000X-0.350000X0.450000X-0.350000X-0.450000X0.350000X-0.450000X0*%
%TD*%
%TA.AperFunction,SMDPad,CuDef*%
%ADD24RoundRect,0.250000X-0.475000X0.337500X-0.475000X-0.337500X0.475000X-0.337500X0.475000X0.337500X0*%
%TD*%
%TA.AperFunction,SMDPad,CuDef*%
%ADD25RoundRect,0.250000X0.337500X0.475000X-0.337500X0.475000X-0.337500X-0.475000X0.337500X-0.475000X0*%
%TD*%
%TA.AperFunction,SMDPad,CuDef*%
%ADD26RoundRect,0.250000X-0.337500X-0.475000X0.337500X-0.475000X0.337500X0.475000X-0.337500X0.475000X0*%
%TD*%
%TA.AperFunction,SMDPad,CuDef*%
%ADD27FreePoly0,90.000000*%
%TD*%
%TA.AperFunction,SMDPad,CuDef*%
%ADD28FreePoly1,90.000000*%
%TD*%
%TA.AperFunction,SMDPad,CuDef*%
%ADD29R,0.460000X1.040000*%
%TD*%
%TA.AperFunction,SMDPad,CuDef*%
%ADD30RoundRect,0.075000X-0.225000X0.880000X-0.225000X-0.880000X0.225000X-0.880000X0.225000X0.880000X0*%
%TD*%
%TA.AperFunction,SMDPad,CuDef*%
%ADD31RoundRect,0.250000X0.275000X-0.400000X0.275000X0.400000X-0.275000X0.400000X-0.275000X-0.400000X0*%
%TD*%
%TA.AperFunction,SMDPad,CuDef*%
%ADD32R,1.750000X0.600000*%
%TD*%
%TA.AperFunction,SMDPad,CuDef*%
%ADD33RoundRect,0.375000X-0.375000X0.625000X-0.375000X-0.625000X0.375000X-0.625000X0.375000X0.625000X0*%
%TD*%
%TA.AperFunction,SMDPad,CuDef*%
%ADD34RoundRect,0.500000X-1.400000X0.500000X-1.400000X-0.500000X1.400000X-0.500000X1.400000X0.500000X0*%
%TD*%
%TA.AperFunction,SMDPad,CuDef*%
%ADD35RoundRect,0.250000X-0.450000X0.350000X-0.450000X-0.350000X0.450000X-0.350000X0.450000X0.350000X0*%
%TD*%
%TA.AperFunction,SMDPad,CuDef*%
%ADD36R,0.900000X0.800000*%
%TD*%
%TA.AperFunction,SMDPad,CuDef*%
%ADD37RoundRect,0.250000X-0.350000X-0.450000X0.350000X-0.450000X0.350000X0.450000X-0.350000X0.450000X0*%
%TD*%
%TA.AperFunction,ViaPad*%
%ADD38C,0.700000*%
%TD*%
%TA.AperFunction,ViaPad*%
%ADD39C,0.900000*%
%TD*%
%TA.AperFunction,Conductor*%
%ADD40C,0.500000*%
%TD*%
%TA.AperFunction,Conductor*%
%ADD41C,1.000000*%
%TD*%
%TA.AperFunction,Conductor*%
%ADD42C,0.300000*%
%TD*%
G04 APERTURE END LIST*
D10*
%TO.P,J2,1,Pin_1*%
%TO.N,GND*%
X164710000Y-104300000D03*
D11*
%TO.P,J2,2,Pin_2*%
%TO.N,/Microcontroller/TX2*%
X164710000Y-101760000D03*
%TO.P,J2,3,Pin_3*%
%TO.N,/Microcontroller/RX2*%
X164710000Y-99220000D03*
%TO.P,J2,4,Pin_4*%
%TO.N,unconnected-(J2-Pin_4-Pad4)*%
X164710000Y-96680000D03*
%TO.P,J2,5,Pin_5*%
%TO.N,+3V3*%
X164710000Y-94140000D03*
%TD*%
D12*
%TO.P,SW3,*%
%TO.N,*%
X158210000Y-95450000D03*
X158210000Y-103650000D03*
D13*
%TO.P,SW3,1,C*%
%TO.N,unconnected-(SW3-C-Pad1)*%
X158210000Y-97550000D03*
D14*
%TO.P,SW3,2,B*%
%TO.N,/VoltageRegulatorESD/Vout*%
X158210000Y-99550000D03*
%TO.P,SW3,3,A*%
%TO.N,5v*%
X158210000Y-101550000D03*
%TD*%
D15*
%TO.P,H2,1,1*%
%TO.N,GND*%
X166380000Y-114180000D03*
X166863274Y-113013274D03*
X166863274Y-115346726D03*
X168030000Y-112530000D03*
D16*
X168030000Y-114180000D03*
D15*
X168030000Y-115830000D03*
X169196726Y-113013274D03*
X169196726Y-115346726D03*
X169680000Y-114180000D03*
%TD*%
D17*
%TO.P,J1,1,1*%
%TO.N,unconnected-(J1-Pad1)*%
X193180000Y-71460000D03*
D18*
%TO.P,J1,2,2*%
%TO.N,unconnected-(J1-Pad2)*%
X189180000Y-71460000D03*
%TO.P,J1,3,3*%
%TO.N,unconnected-(J1-Pad3)*%
X185180000Y-71460000D03*
%TO.P,J1,4,GND*%
%TO.N,GND*%
X181180000Y-71460000D03*
%TO.P,J1,5,5*%
%TO.N,unconnected-(J1-Pad5)*%
X177180000Y-71460000D03*
%TO.P,J1,6,CAN_LOW*%
%TO.N,/CAN_controller/CAN_LOW*%
X173180000Y-71460000D03*
%TO.P,J1,7,7*%
%TO.N,unconnected-(J1-Pad7)*%
X169180000Y-71460000D03*
%TO.P,J1,8,8*%
%TO.N,unconnected-(J1-Pad8)*%
X165180000Y-71460000D03*
%TO.P,J1,9,9*%
%TO.N,unconnected-(J1-Pad9)*%
X193180000Y-74460000D03*
%TO.P,J1,10,10*%
%TO.N,unconnected-(J1-Pad10)*%
X189180000Y-74460000D03*
%TO.P,J1,11,11*%
%TO.N,unconnected-(J1-Pad11)*%
X185180000Y-74460000D03*
%TO.P,J1,12,12*%
%TO.N,unconnected-(J1-Pad12)*%
X181180000Y-74460000D03*
%TO.P,J1,13,13*%
%TO.N,unconnected-(J1-Pad13)*%
X177180000Y-74460000D03*
%TO.P,J1,14,CAN_HIGH*%
%TO.N,/CAN_controller/CAN_HIGH*%
X173180000Y-74460000D03*
%TO.P,J1,15,15*%
%TO.N,unconnected-(J1-Pad15)*%
X169180000Y-74460000D03*
%TO.P,J1,16,VIN*%
%TO.N,/VoltageRegulatorESD/Car_Battery_12v*%
X165180000Y-74460000D03*
%TD*%
D15*
%TO.P,H1,1,1*%
%TO.N,GND*%
X196140000Y-73020000D03*
X196623274Y-71853274D03*
X196623274Y-74186726D03*
X197790000Y-71370000D03*
D16*
X197790000Y-73020000D03*
D15*
X197790000Y-74670000D03*
X198956726Y-71853274D03*
X198956726Y-74186726D03*
X199440000Y-73020000D03*
%TD*%
D19*
%TO.P,U1,39,GND*%
%TO.N,GND*%
X192365000Y-110417500D03*
X192365000Y-108892500D03*
X191602500Y-111180000D03*
X191602500Y-109655000D03*
X191602500Y-108130000D03*
X190840000Y-110417500D03*
X190840000Y-108892500D03*
X190077500Y-111180000D03*
X190077500Y-109655000D03*
X190077500Y-108130000D03*
X189315000Y-110417500D03*
X189315000Y-108892500D03*
%TD*%
D20*
%TO.P,F1,1*%
%TO.N,/VoltageRegulatorESD/12v_in*%
X159650000Y-71300000D03*
X159650000Y-76300000D03*
D21*
%TO.P,F1,2*%
%TO.N,/VoltageRegulatorESD/12v_fuse*%
X159650000Y-86300000D03*
X159650000Y-91300000D03*
%TD*%
D10*
%TO.P,J3,1,Pin_1*%
%TO.N,unconnected-(J3-Pin_1-Pad1)*%
X198630000Y-85300000D03*
D11*
%TO.P,J3,2,Pin_2*%
%TO.N,unconnected-(J3-Pin_2-Pad2)*%
X198630000Y-87840000D03*
%TO.P,J3,3,Pin_3*%
%TO.N,/Microcontroller/SDA*%
X198630000Y-90380000D03*
%TO.P,J3,4,Pin_4*%
%TO.N,/Microcontroller/SCL*%
X198630000Y-92920000D03*
%TO.P,J3,5,Pin_5*%
%TO.N,unconnected-(J3-Pin_5-Pad5)*%
X198630000Y-95460000D03*
%TD*%
D22*
%TO.P,C12,1*%
%TO.N,5v*%
X172730000Y-94465000D03*
%TO.P,C12,2*%
%TO.N,GND*%
X172730000Y-92390000D03*
%TD*%
D23*
%TO.P,R10,1*%
%TO.N,/VoltageRegulatorESD/12v_in*%
X160880000Y-82590000D03*
%TO.P,R10,2*%
%TO.N,GND*%
X158880000Y-82590000D03*
%TD*%
D24*
%TO.P,C20,1*%
%TO.N,+3V3*%
X165450000Y-109290000D03*
%TO.P,C20,2*%
%TO.N,GND*%
X165450000Y-111365000D03*
%TD*%
D25*
%TO.P,C3,1*%
%TO.N,GND*%
X183387500Y-101410000D03*
%TO.P,C3,2*%
%TO.N,IO0*%
X181312500Y-101410000D03*
%TD*%
D23*
%TO.P,R9,1*%
%TO.N,/VoltageRegulatorESD/GND_resistence_protect*%
X160880000Y-78690000D03*
%TO.P,R9,2*%
%TO.N,GND*%
X158880000Y-78690000D03*
%TD*%
D22*
%TO.P,C15,1*%
%TO.N,5v*%
X177030000Y-96787500D03*
%TO.P,C15,2*%
%TO.N,GND*%
X177030000Y-94712500D03*
%TD*%
D26*
%TO.P,C14,1*%
%TO.N,+3V3*%
X170452500Y-105530000D03*
%TO.P,C14,2*%
%TO.N,GND*%
X172527500Y-105530000D03*
%TD*%
D22*
%TO.P,C23,1*%
%TO.N,/MicroUSB_Port/VBUS*%
X159180000Y-108547500D03*
%TO.P,C23,2*%
%TO.N,GND*%
X159180000Y-106472500D03*
%TD*%
D27*
%TO.P,JP1,1,A*%
%TO.N,/CAN_controller/CAN_LOW*%
X190090000Y-79435000D03*
D28*
%TO.P,JP1,2,B*%
%TO.N,Net-(JP1-B)*%
X190090000Y-78135000D03*
%TD*%
D23*
%TO.P,R14,1*%
%TO.N,+3V3*%
X163650000Y-117300000D03*
%TO.P,R14,2*%
%TO.N,/VoltageRegulatorESD/power_led*%
X161650000Y-117300000D03*
%TD*%
D22*
%TO.P,C2,1*%
%TO.N,+3V3*%
X193970000Y-115287500D03*
%TO.P,C2,2*%
%TO.N,GND*%
X193970000Y-113212500D03*
%TD*%
D29*
%TO.P,D7,1,K*%
%TO.N,5v*%
X161170000Y-106050000D03*
%TO.P,D7,2,A*%
%TO.N,/MicroUSB_Port/VBUS*%
X161170000Y-108430000D03*
%TD*%
D26*
%TO.P,C4,1*%
%TO.N,GND*%
X194272500Y-111240000D03*
%TO.P,C4,2*%
%TO.N,EN*%
X196347500Y-111240000D03*
%TD*%
D22*
%TO.P,C17,1*%
%TO.N,5v*%
X179250000Y-96787500D03*
%TO.P,C17,2*%
%TO.N,GND*%
X179250000Y-94712500D03*
%TD*%
D23*
%TO.P,R4,1*%
%TO.N,/Microcontroller/RXD0*%
X179050000Y-111850000D03*
%TO.P,R4,2*%
%TO.N,/MicroUSB_Port/RXD*%
X177050000Y-111850000D03*
%TD*%
D30*
%TO.P,U5,1,TXCAN*%
%TO.N,/CAN_controller/TX_can*%
X182150000Y-86220000D03*
%TO.P,U5,2,RXCAN*%
%TO.N,/CAN_controller/RX_can*%
X183420000Y-86220000D03*
%TO.P,U5,3,CLKOUT/SOF*%
%TO.N,unconnected-(U5-CLKOUT{slash}SOF-Pad3)*%
X184690000Y-86220000D03*
%TO.P,U5,4,~{TX0RTS}*%
%TO.N,unconnected-(U5-~{TX0RTS}-Pad4)*%
X185960000Y-86220000D03*
%TO.P,U5,5,~{TX1RTS}*%
%TO.N,unconnected-(U5-~{TX1RTS}-Pad5)*%
X187230000Y-86220000D03*
%TO.P,U5,6,~{TX2RTS}*%
%TO.N,unconnected-(U5-~{TX2RTS}-Pad6)*%
X188500000Y-86220000D03*
%TO.P,U5,7,OSC2*%
%TO.N,/CAN_controller/osc2*%
X189770000Y-86220000D03*
%TO.P,U5,8,OSC1*%
%TO.N,/CAN_controller/osc1*%
X191040000Y-86220000D03*
%TO.P,U5,9,VSS*%
%TO.N,GND*%
X192310000Y-86220000D03*
%TO.P,U5,10,~{RX1BF}*%
%TO.N,unconnected-(U5-~{RX1BF}-Pad10)*%
X192310000Y-95440000D03*
%TO.P,U5,11,~{RX0BF}*%
%TO.N,unconnected-(U5-~{RX0BF}-Pad11)*%
X191040000Y-95440000D03*
%TO.P,U5,12,~{INT}*%
%TO.N,/CAN_controller/CAN_INT*%
X189770000Y-95440000D03*
%TO.P,U5,13,SCK*%
%TO.N,SCLK*%
X188500000Y-95440000D03*
%TO.P,U5,14,SI*%
%TO.N,MOSI*%
X187230000Y-95440000D03*
%TO.P,U5,15,SO*%
%TO.N,MISO*%
X185960000Y-95440000D03*
%TO.P,U5,16,~{CS}*%
%TO.N,/CAN_controller/CAN_CS*%
X184690000Y-95440000D03*
%TO.P,U5,17,~{RESET}*%
%TO.N,/CAN_controller/RESET_MCP*%
X183420000Y-95440000D03*
%TO.P,U5,18,VDD*%
%TO.N,5v*%
X182150000Y-95440000D03*
%TD*%
D26*
%TO.P,C13,1*%
%TO.N,+3V3*%
X170452500Y-107700000D03*
%TO.P,C13,2*%
%TO.N,GND*%
X172527500Y-107700000D03*
%TD*%
D23*
%TO.P,R5,1*%
%TO.N,/Microcontroller/CAN_debug*%
X163650000Y-120300000D03*
%TO.P,R5,2*%
%TO.N,/Microcontroller/can_led*%
X161650000Y-120300000D03*
%TD*%
D31*
%TO.P,C16,1*%
%TO.N,5v*%
X175020000Y-96745000D03*
%TO.P,C16,2*%
%TO.N,GND*%
X175020000Y-94795000D03*
%TD*%
D22*
%TO.P,C1,1*%
%TO.N,+3V3*%
X196230000Y-115305000D03*
%TO.P,C1,2*%
%TO.N,GND*%
X196230000Y-113230000D03*
%TD*%
D24*
%TO.P,C21,1*%
%TO.N,+3V3*%
X163290000Y-109290000D03*
%TO.P,C21,2*%
%TO.N,GND*%
X163290000Y-111365000D03*
%TD*%
D32*
%TO.P,U4,1,TXD*%
%TO.N,/CAN_controller/TX_can*%
X182150000Y-84000000D03*
%TO.P,U4,2,GND*%
%TO.N,GND*%
X182150000Y-82730000D03*
%TO.P,U4,3,VCC*%
%TO.N,5v*%
X182150000Y-81460000D03*
%TO.P,U4,4,RXD*%
%TO.N,/CAN_controller/RX_can*%
X182150000Y-80190000D03*
%TO.P,U4,5,VREF*%
%TO.N,unconnected-(U4-VREF-Pad5)*%
X187750000Y-80190000D03*
%TO.P,U4,6,CANL*%
%TO.N,/CAN_controller/CAN_LOW*%
X187750000Y-81460000D03*
%TO.P,U4,7,CANH*%
%TO.N,/CAN_controller/CAN_HIGH*%
X187750000Y-82730000D03*
%TO.P,U4,8,S*%
%TO.N,GND*%
X187750000Y-84000000D03*
%TD*%
D22*
%TO.P,C5,1*%
%TO.N,GND*%
X193660000Y-101277500D03*
%TO.P,C5,2*%
%TO.N,EN*%
X193660000Y-99202500D03*
%TD*%
D33*
%TO.P,U3,1,ADJ*%
%TO.N,GND*%
X168127500Y-96760000D03*
%TO.P,U3,2,VO*%
%TO.N,+3V3*%
X170427500Y-96760000D03*
D34*
X170427500Y-103060000D03*
D33*
%TO.P,U3,3,VI*%
%TO.N,5v*%
X172727500Y-96760000D03*
%TD*%
D35*
%TO.P,R16,1*%
%TO.N,Net-(JP1-B)*%
X192420000Y-77795000D03*
%TO.P,R16,2*%
%TO.N,/CAN_controller/CAN_HIGH*%
X192420000Y-79795000D03*
%TD*%
D36*
%TO.P,D6,1,1*%
%TO.N,/CAN_controller/CAN_HIGH*%
X190080000Y-83075000D03*
%TO.P,D6,2,2*%
%TO.N,/CAN_controller/CAN_LOW*%
X190080000Y-81175000D03*
%TO.P,D6,3,3*%
%TO.N,GND*%
X192180000Y-82125000D03*
%TD*%
D35*
%TO.P,R2,1*%
%TO.N,EN*%
X191590000Y-99200000D03*
%TO.P,R2,2*%
%TO.N,+3V3*%
X191590000Y-101200000D03*
%TD*%
D22*
%TO.P,C22,1*%
%TO.N,GND*%
X161940000Y-104065000D03*
%TO.P,C22,2*%
%TO.N,5v*%
X161940000Y-101990000D03*
%TD*%
D23*
%TO.P,R6,1*%
%TO.N,/Microcontroller/BLE_debug*%
X163650000Y-123300000D03*
%TO.P,R6,2*%
%TO.N,/Microcontroller/ble_led*%
X161650000Y-123300000D03*
%TD*%
D37*
%TO.P,R1,1*%
%TO.N,IO0*%
X181350000Y-103470000D03*
%TO.P,R1,2*%
%TO.N,+3V3*%
X183350000Y-103470000D03*
%TD*%
D23*
%TO.P,R3,1*%
%TO.N,/Microcontroller/TXD0*%
X179050000Y-113910000D03*
%TO.P,R3,2*%
%TO.N,/MicroUSB_Port/TXD*%
X177050000Y-113910000D03*
%TD*%
D37*
%TO.P,R15,1*%
%TO.N,5v*%
X177030000Y-98720000D03*
%TO.P,R15,2*%
%TO.N,/CAN_controller/RESET_MCP*%
X179030000Y-98720000D03*
%TD*%
D38*
%TO.N,GND*%
X183940000Y-97520000D03*
X187400000Y-92530000D03*
D39*
X191230000Y-117590000D03*
D38*
X198940000Y-99160000D03*
X188310000Y-90670000D03*
X185380000Y-110740000D03*
X196690000Y-86750000D03*
X187960000Y-115070000D03*
X191170000Y-89670000D03*
X165590000Y-80260000D03*
X159150000Y-115330000D03*
X172260000Y-110710000D03*
X191010000Y-72960000D03*
X176180000Y-118020000D03*
X157060000Y-105840000D03*
X187220000Y-72880000D03*
X163060000Y-80260000D03*
X174180000Y-118020000D03*
X165650000Y-90860000D03*
D39*
X168700000Y-106710000D03*
D38*
X164600000Y-114830000D03*
X189310000Y-89670000D03*
X190550000Y-92350000D03*
X170740000Y-85920000D03*
X175500000Y-100410000D03*
D39*
X186150000Y-117590000D03*
D38*
X193500000Y-82110000D03*
X157710000Y-118780000D03*
X173180000Y-118020000D03*
D39*
X168700000Y-108920000D03*
D38*
X177980000Y-106180000D03*
X194930000Y-91430000D03*
X187400000Y-89670000D03*
X171370000Y-72890000D03*
X185960000Y-115070000D03*
X177600000Y-82360000D03*
X175180000Y-70560000D03*
X165720000Y-122070000D03*
X175180000Y-118020000D03*
X178250000Y-89290000D03*
X190760000Y-84340000D03*
X163290000Y-112480000D03*
X165070000Y-115810000D03*
X170740000Y-88250000D03*
X188310000Y-89670000D03*
X193660000Y-102390000D03*
X188320000Y-88740000D03*
X179200000Y-72830000D03*
X174300000Y-114360000D03*
X186960000Y-115070000D03*
X194930000Y-90430000D03*
X198910000Y-117970000D03*
X172180000Y-118020000D03*
X187410000Y-88740000D03*
X194930000Y-88570000D03*
X163550000Y-106030000D03*
X168270000Y-84340000D03*
X161820000Y-95960000D03*
X187400000Y-90670000D03*
X165720000Y-124070000D03*
X159110000Y-93330000D03*
X180650000Y-99200000D03*
X187400000Y-91530000D03*
X165720000Y-123070000D03*
X177180000Y-118020000D03*
X165720000Y-121070000D03*
D39*
X183610000Y-117590000D03*
D38*
X181410000Y-117970000D03*
X157710000Y-121810000D03*
X183190000Y-72880000D03*
X190170000Y-89670000D03*
X195480000Y-95700000D03*
X169220000Y-100460000D03*
X178180000Y-118020000D03*
X179180000Y-118020000D03*
X167160000Y-72870000D03*
X162020000Y-112580000D03*
D39*
X188690000Y-117590000D03*
X193770000Y-117590000D03*
D38*
X189310000Y-90670000D03*
D39*
X157520000Y-83750000D03*
D38*
X190170000Y-90670000D03*
X191170000Y-90670000D03*
X196690000Y-89110000D03*
X179710000Y-108120000D03*
X194930000Y-89570000D03*
D39*
X196310000Y-117590000D03*
D38*
X184420000Y-88900000D03*
X163550000Y-90870000D03*
X170600000Y-93190000D03*
%TO.N,+3V3*%
X172870000Y-114220000D03*
X184510000Y-103110000D03*
X197440000Y-115310000D03*
X163970000Y-108260000D03*
%TO.N,IO0*%
X182130000Y-99440000D03*
X175970000Y-106260000D03*
%TO.N,EN*%
X191600000Y-97830000D03*
X197609998Y-112300000D03*
X185000000Y-108030000D03*
X174240000Y-109950000D03*
X189800000Y-100870000D03*
D39*
%TO.N,/VoltageRegulatorESD/Vout*%
X160600000Y-93200000D03*
D38*
%TO.N,5v*%
X162170000Y-106050000D03*
%TO.N,/CAN_controller/osc1*%
X193090000Y-90080000D03*
%TO.N,/CAN_controller/osc2*%
X189920000Y-88180000D03*
%TO.N,/MicroUSB_Port/VBUS*%
X158934999Y-109788478D03*
X160570000Y-115120000D03*
%TO.N,/VoltageRegulatorESD/power_led*%
X160530000Y-117300000D03*
D39*
%TO.N,/VoltageRegulatorESD/12v_in*%
X164330000Y-81420000D03*
D38*
%TO.N,/Microcontroller/SCL*%
X185510000Y-113660000D03*
X182640000Y-114460000D03*
%TO.N,/Microcontroller/SDA*%
X185665000Y-108725000D03*
X182680000Y-110640000D03*
%TO.N,/MicroUSB_Port/D-*%
X161378229Y-109546733D03*
X165100000Y-107760000D03*
%TO.N,/Microcontroller/TXD0*%
X180190000Y-113210000D03*
%TO.N,/MicroUSB_Port/TXD*%
X167454810Y-104359200D03*
X166790000Y-100270000D03*
X174400000Y-99360000D03*
X175650000Y-113910000D03*
X178560003Y-108720000D03*
%TO.N,/MicroUSB_Port/RXD*%
X167770000Y-100440000D03*
X167780000Y-103520000D03*
X177660000Y-108720000D03*
X173240000Y-99430000D03*
X177050000Y-110580000D03*
%TO.N,/Microcontroller/CAN_debug*%
X186800000Y-113770000D03*
%TO.N,/Microcontroller/BLE_debug*%
X165820000Y-117040000D03*
X187340000Y-113050000D03*
X164460000Y-121810000D03*
%TO.N,/VoltageRegulatorESD/EN*%
X161380000Y-85290000D03*
X176590000Y-86690000D03*
%TO.N,/VoltageRegulatorESD/FREQ*%
X166875000Y-85905000D03*
X162510000Y-83760000D03*
%TO.N,/CAN_controller/CAN_INT*%
X199910000Y-98280000D03*
%TO.N,/CAN_controller/CAN_CS*%
X185270000Y-100600000D03*
%TO.N,SCLK*%
X179710000Y-106070000D03*
%TO.N,MISO*%
X186320000Y-100590000D03*
%TO.N,MOSI*%
X187219492Y-100620320D03*
%TO.N,/Microcontroller/can_led*%
X160550000Y-120300000D03*
%TO.N,/Microcontroller/ble_led*%
X160560000Y-123300000D03*
D39*
%TO.N,/VoltageRegulatorESD/GND_resistence_protect*%
X164330000Y-79270000D03*
D38*
%TO.N,/Microcontroller/RXD0*%
X180160000Y-111930000D03*
%TD*%
D40*
%TO.N,GND*%
X183387500Y-98072500D02*
X183387500Y-101410000D01*
X193500000Y-82110000D02*
X193485000Y-82125000D01*
D41*
X172527500Y-107700000D02*
X172527500Y-105530000D01*
D40*
X161215000Y-104065000D02*
X161940000Y-104065000D01*
X169210000Y-115360000D02*
X168030000Y-114180000D01*
X183940000Y-97520000D02*
X183387500Y-98072500D01*
X159180000Y-106472500D02*
X159180000Y-106100000D01*
D41*
X168030000Y-112540000D02*
X168030000Y-114180000D01*
X193660000Y-102390000D02*
X193660000Y-101277500D01*
D40*
X159180000Y-106100000D02*
X161215000Y-104065000D01*
X161940000Y-104065000D02*
X164475000Y-104065000D01*
X193485000Y-82125000D02*
X192180000Y-82125000D01*
X164475000Y-104065000D02*
X164710000Y-104300000D01*
D41*
X163290000Y-112480000D02*
X163290000Y-111365000D01*
D42*
%TO.N,+3V3*%
X196212500Y-115287500D02*
X196230000Y-115305000D01*
X193970000Y-115287500D02*
X191107500Y-115287500D01*
X182790000Y-104980000D02*
X183350000Y-104420000D01*
X162078229Y-109836683D02*
X160980000Y-110934912D01*
X165450000Y-109290000D02*
X166540000Y-109290000D01*
X170452500Y-109957500D02*
X170452500Y-107700000D01*
X168360000Y-110470000D02*
X169940000Y-110470000D01*
X197435000Y-115305000D02*
X196230000Y-115305000D01*
X169120000Y-110470000D02*
X168360000Y-110470000D01*
X186800000Y-110980000D02*
X186800000Y-108960000D01*
X188590000Y-106130000D02*
X191590000Y-103130000D01*
X186800000Y-108960000D02*
X186800000Y-108800000D01*
X179460000Y-104980000D02*
X182790000Y-104980000D01*
X186800000Y-108800000D02*
X186800000Y-108620000D01*
X185200000Y-107020000D02*
X179450000Y-107020000D01*
X172870000Y-114220000D02*
X169120000Y-110470000D01*
X163290000Y-109290000D02*
X163290000Y-108940000D01*
X186800000Y-108620000D02*
X185200000Y-107020000D01*
X191107500Y-115287500D02*
X186800000Y-110980000D01*
X178970000Y-106540000D02*
X178970000Y-105470000D01*
X160980000Y-113430000D02*
X163650000Y-116100000D01*
X178970000Y-105470000D02*
X179460000Y-104980000D01*
X184150000Y-103470000D02*
X184510000Y-103110000D01*
X163290000Y-109290000D02*
X162620000Y-109290000D01*
X186800000Y-108800000D02*
X186800000Y-107920000D01*
X183350000Y-103470000D02*
X184150000Y-103470000D01*
X165450000Y-109290000D02*
X163290000Y-109290000D01*
X163650000Y-116100000D02*
X163650000Y-117300000D01*
X168010000Y-94140000D02*
X164710000Y-94140000D01*
X166540000Y-109290000D02*
X167720000Y-110470000D01*
X169940000Y-110470000D02*
X170452500Y-109957500D01*
X170427500Y-103060000D02*
X170427500Y-96760000D01*
X191590000Y-103130000D02*
X191590000Y-101200000D01*
X160980000Y-110934912D02*
X160980000Y-113430000D01*
X167720000Y-110470000D02*
X168360000Y-110470000D01*
X170427500Y-96760000D02*
X170427500Y-96557500D01*
X163290000Y-108940000D02*
X163970000Y-108260000D01*
X170427500Y-96557500D02*
X168010000Y-94140000D01*
X179450000Y-107020000D02*
X178970000Y-106540000D01*
X183350000Y-104420000D02*
X183350000Y-103470000D01*
X162620000Y-109290000D02*
X162078229Y-109831771D01*
X197440000Y-115310000D02*
X197435000Y-115305000D01*
X193970000Y-115287500D02*
X196212500Y-115287500D01*
X186800000Y-107920000D02*
X188590000Y-106130000D01*
X162078229Y-109831771D02*
X162078229Y-109836683D01*
%TO.N,IO0*%
X181350000Y-101447500D02*
X181312500Y-101410000D01*
X182130000Y-99440000D02*
X181312500Y-100257500D01*
X175970000Y-106260000D02*
X178760000Y-103470000D01*
X181312500Y-100257500D02*
X181312500Y-101410000D01*
X178760000Y-103470000D02*
X181350000Y-103470000D01*
X181350000Y-103470000D02*
X181350000Y-101447500D01*
%TO.N,EN*%
X191592500Y-99202500D02*
X191590000Y-99200000D01*
X191590000Y-99200000D02*
X190510000Y-99200000D01*
X185000000Y-108030000D02*
X181680000Y-108030000D01*
X174380000Y-109810000D02*
X174240000Y-109950000D01*
X197609998Y-112300000D02*
X197609998Y-111789998D01*
X193660000Y-99202500D02*
X191592500Y-99202500D01*
X197609998Y-111789998D02*
X197060000Y-111240000D01*
X181680000Y-108030000D02*
X179900000Y-109810000D01*
X196347500Y-111240000D02*
X196347500Y-99957500D01*
X197060000Y-111240000D02*
X196347500Y-111240000D01*
X196347500Y-99957500D02*
X195592500Y-99202500D01*
X191590000Y-97840000D02*
X191600000Y-97830000D01*
X191590000Y-99200000D02*
X191590000Y-97840000D01*
X190510000Y-99200000D02*
X189800000Y-99910000D01*
X195592500Y-99202500D02*
X193660000Y-99202500D01*
X179900000Y-109810000D02*
X174380000Y-109810000D01*
X189800000Y-99910000D02*
X189800000Y-100870000D01*
D40*
%TO.N,/VoltageRegulatorESD/Vout*%
X160610000Y-98770000D02*
X159830000Y-99550000D01*
X159830000Y-99550000D02*
X158210000Y-99550000D01*
X160610000Y-93210000D02*
X160610000Y-98770000D01*
X160600000Y-93200000D02*
X160610000Y-93210000D01*
%TO.N,5v*%
X158210000Y-101550000D02*
X160210000Y-101550000D01*
X163840000Y-92190000D02*
X167130000Y-92190000D01*
X177030000Y-96787500D02*
X179250000Y-96787500D01*
X172727500Y-96760000D02*
X172727500Y-94467500D01*
X175020000Y-96745000D02*
X176987500Y-96745000D01*
X182150000Y-95440000D02*
X182150000Y-90180000D01*
X181160000Y-95440000D02*
X182150000Y-95440000D01*
X176987500Y-96745000D02*
X177030000Y-96787500D01*
X160650000Y-101990000D02*
X161940000Y-101990000D01*
X161940000Y-101990000D02*
X161940000Y-98840000D01*
X177030000Y-96787500D02*
X177030000Y-98720000D01*
X179300000Y-87330000D02*
X179300000Y-82190000D01*
X182150000Y-90180000D02*
X179300000Y-87330000D01*
X180030000Y-81460000D02*
X182150000Y-81460000D01*
X179250000Y-96787500D02*
X179812500Y-96787500D01*
X163010000Y-93020000D02*
X163840000Y-92190000D01*
X167130000Y-92190000D02*
X169405000Y-94465000D01*
X172727500Y-96760000D02*
X175005000Y-96760000D01*
X179300000Y-82190000D02*
X180030000Y-81460000D01*
X163010000Y-97770000D02*
X163010000Y-93020000D01*
X179812500Y-96787500D02*
X181160000Y-95440000D01*
X160210000Y-101550000D02*
X160650000Y-101990000D01*
X169405000Y-94465000D02*
X172730000Y-94465000D01*
X172727500Y-94467500D02*
X172730000Y-94465000D01*
X175005000Y-96760000D02*
X175020000Y-96745000D01*
D42*
X162170000Y-106050000D02*
X161170000Y-106050000D01*
D40*
X161940000Y-98840000D02*
X163010000Y-97770000D01*
D42*
%TO.N,/CAN_controller/osc1*%
X193090000Y-90080000D02*
X191040000Y-88030000D01*
X191040000Y-88030000D02*
X191040000Y-86220000D01*
%TO.N,/CAN_controller/osc2*%
X189770000Y-88030000D02*
X189920000Y-88180000D01*
X189770000Y-86220000D02*
X189770000Y-88030000D01*
%TO.N,/MicroUSB_Port/VBUS*%
X159182500Y-108550000D02*
X161050000Y-108550000D01*
X159180000Y-108547500D02*
X159182500Y-108550000D01*
X158930000Y-109793477D02*
X158930000Y-113460000D01*
X158930000Y-113460000D02*
X160570000Y-115100000D01*
X158934999Y-109788478D02*
X159180000Y-109543477D01*
X158934999Y-109788478D02*
X158930000Y-109793477D01*
X159180000Y-109543477D02*
X159180000Y-108547500D01*
X161050000Y-108550000D02*
X161170000Y-108430000D01*
X160570000Y-115100000D02*
X160570000Y-115120000D01*
%TO.N,/VoltageRegulatorESD/power_led*%
X160530000Y-117300000D02*
X161650000Y-117300000D01*
%TO.N,/CAN_controller/CAN_LOW*%
X187750000Y-81460000D02*
X186050000Y-81460000D01*
X185480000Y-80890000D02*
X185480000Y-80132893D01*
X190080000Y-79445000D02*
X190090000Y-79435000D01*
X175160000Y-76880000D02*
X175160000Y-73440000D01*
X186050000Y-81460000D02*
X185480000Y-80890000D01*
X189285000Y-81175000D02*
X190080000Y-81175000D01*
X189000000Y-81460000D02*
X189285000Y-81175000D01*
X176760000Y-78480000D02*
X175160000Y-76880000D01*
X187750000Y-81460000D02*
X189000000Y-81460000D01*
X183827107Y-78480000D02*
X176760000Y-78480000D01*
X190080000Y-81175000D02*
X190080000Y-79445000D01*
X185480000Y-80132893D02*
X183827107Y-78480000D01*
X175160000Y-73440000D02*
X173180000Y-71460000D01*
D40*
%TO.N,/VoltageRegulatorESD/12v_in*%
X164320000Y-81420000D02*
X163150000Y-82590000D01*
X164330000Y-81420000D02*
X164320000Y-81420000D01*
X163150000Y-82590000D02*
X160880000Y-82590000D01*
D42*
%TO.N,/CAN_controller/CAN_HIGH*%
X190080000Y-83075000D02*
X189355000Y-83075000D01*
X189355000Y-83075000D02*
X189010000Y-82730000D01*
X183620001Y-78980000D02*
X176552893Y-78980000D01*
X194790000Y-80680000D02*
X193905000Y-79795000D01*
X189010000Y-82730000D02*
X187750000Y-82730000D01*
X193905000Y-79795000D02*
X192420000Y-79795000D01*
X184980000Y-81100000D02*
X184980000Y-80339999D01*
X190985000Y-83075000D02*
X191420000Y-83510000D01*
X190080000Y-83075000D02*
X190985000Y-83075000D01*
X191420000Y-83510000D02*
X194160000Y-83510000D01*
X176552893Y-78980000D02*
X173180000Y-75607107D01*
X184980000Y-80339999D02*
X183620001Y-78980000D01*
X173180000Y-75607107D02*
X173180000Y-74460000D01*
X187750000Y-82730000D02*
X186610000Y-82730000D01*
X194160000Y-83510000D02*
X194790000Y-82880000D01*
X194790000Y-82880000D02*
X194790000Y-80680000D01*
X186610000Y-82730000D02*
X184980000Y-81100000D01*
%TO.N,/Microcontroller/SCL*%
X185510000Y-113660000D02*
X184710000Y-114460000D01*
X184710000Y-114460000D02*
X182640000Y-114460000D01*
%TO.N,/Microcontroller/SDA*%
X185665000Y-108725000D02*
X183750000Y-110640000D01*
X183750000Y-110640000D02*
X182680000Y-110640000D01*
%TO.N,/MicroUSB_Port/D-*%
X161378229Y-109533815D02*
X161378229Y-109546733D01*
X164900000Y-107560000D02*
X163352044Y-107560000D01*
X163352044Y-107560000D02*
X161378229Y-109533815D01*
X165100000Y-107760000D02*
X164900000Y-107560000D01*
D41*
%TO.N,Net-(JP1-B)*%
X192415000Y-77790000D02*
X192420000Y-77795000D01*
X190435000Y-77790000D02*
X192415000Y-77790000D01*
X190090000Y-78135000D02*
X190435000Y-77790000D01*
D42*
%TO.N,/Microcontroller/TXD0*%
X179750000Y-113210000D02*
X179050000Y-113910000D01*
X180190000Y-113210000D02*
X179750000Y-113210000D01*
%TO.N,/MicroUSB_Port/TXD*%
X175020000Y-106780000D02*
X175710000Y-107470000D01*
X175650000Y-113910000D02*
X177050000Y-113910000D01*
X175710000Y-107470000D02*
X177570000Y-107470000D01*
X166390000Y-103294390D02*
X167454810Y-104359200D01*
X166390000Y-100670000D02*
X166390000Y-103294390D01*
X175020000Y-101510000D02*
X175020000Y-106780000D01*
X177570000Y-107470000D02*
X178560003Y-108460003D01*
X174400000Y-99360000D02*
X174400000Y-100890000D01*
X174400000Y-100890000D02*
X175020000Y-101510000D01*
X178560003Y-108460003D02*
X178560003Y-108720000D01*
X166790000Y-100270000D02*
X166390000Y-100670000D01*
%TO.N,/MicroUSB_Port/RXD*%
X177650000Y-108720000D02*
X177660000Y-108720000D01*
X177270000Y-108340000D02*
X177650000Y-108720000D01*
X173980000Y-101840000D02*
X173980000Y-106610000D01*
X173240000Y-99430000D02*
X173320000Y-99510000D01*
X173320000Y-99510000D02*
X173320000Y-101180000D01*
X173320000Y-101180000D02*
X173980000Y-101840000D01*
X173980000Y-106610000D02*
X175710000Y-108340000D01*
X167770000Y-100460000D02*
X167380000Y-100850000D01*
X177050000Y-110580000D02*
X177050000Y-111850000D01*
X167380000Y-100850000D02*
X167380000Y-103120000D01*
X167770000Y-100440000D02*
X167770000Y-100460000D01*
X175710000Y-108340000D02*
X177270000Y-108340000D01*
X167380000Y-103120000D02*
X167780000Y-103520000D01*
%TO.N,/Microcontroller/CAN_debug*%
X182370000Y-112860000D02*
X181810000Y-113420000D01*
X165350000Y-119790000D02*
X164840000Y-120300000D01*
X186800000Y-113770000D02*
X186800000Y-113750000D01*
X186800000Y-113750000D02*
X185910000Y-112860000D01*
X181810000Y-116110000D02*
X181100000Y-116820000D01*
X164840000Y-120300000D02*
X163650000Y-120300000D01*
X170690000Y-117710000D02*
X166270000Y-117710000D01*
X181100000Y-116820000D02*
X171580000Y-116820000D01*
X181810000Y-113420000D02*
X181810000Y-116110000D01*
X166270000Y-117710000D02*
X165350000Y-118630000D01*
X185910000Y-112860000D02*
X182370000Y-112860000D01*
X171580000Y-116820000D02*
X170690000Y-117710000D01*
X165350000Y-118630000D02*
X165350000Y-119790000D01*
%TO.N,/Microcontroller/BLE_debug*%
X171030000Y-116090000D02*
X170070000Y-117050000D01*
X180250000Y-116090000D02*
X171030000Y-116090000D01*
X186310000Y-112020000D02*
X182010000Y-112020000D01*
X165830000Y-117050000D02*
X165820000Y-117040000D01*
X164460000Y-122490000D02*
X163650000Y-123300000D01*
X164460000Y-121810000D02*
X164460000Y-122490000D01*
X180930000Y-113100000D02*
X180930000Y-115410000D01*
X187340000Y-113050000D02*
X186310000Y-112020000D01*
X182010000Y-112020000D02*
X180930000Y-113100000D01*
X180930000Y-115410000D02*
X180250000Y-116090000D01*
X170070000Y-117050000D02*
X165830000Y-117050000D01*
%TO.N,/VoltageRegulatorESD/EN*%
X163100000Y-87010000D02*
X176270000Y-87010000D01*
X176270000Y-87010000D02*
X176590000Y-86690000D01*
X161380000Y-85290000D02*
X163100000Y-87010000D01*
%TO.N,/VoltageRegulatorESD/FREQ*%
X166875000Y-85905000D02*
X166795000Y-85905000D01*
X166795000Y-85905000D02*
X164650000Y-83760000D01*
X164650000Y-83760000D02*
X162510000Y-83760000D01*
%TO.N,/CAN_controller/RESET_MCP*%
X182940000Y-97070000D02*
X183420000Y-96590000D01*
X179030000Y-98720000D02*
X179760000Y-98720000D01*
X181410000Y-97070000D02*
X182940000Y-97070000D01*
X179760000Y-98720000D02*
X181410000Y-97070000D01*
X183420000Y-96590000D02*
X183420000Y-95440000D01*
%TO.N,/CAN_controller/CAN_INT*%
X190455001Y-97080000D02*
X189770000Y-96394999D01*
X198710000Y-97080000D02*
X190455001Y-97080000D01*
X199910000Y-98280000D02*
X198710000Y-97080000D01*
X189770000Y-96394999D02*
X189770000Y-95440000D01*
%TO.N,/CAN_controller/CAN_CS*%
X184690000Y-96780000D02*
X184690000Y-95440000D01*
X185270000Y-97360000D02*
X184690000Y-96780000D01*
X185270000Y-100600000D02*
X185270000Y-97360000D01*
%TO.N,/CAN_controller/TX_can*%
X182150000Y-86220000D02*
X182150000Y-84000000D01*
%TO.N,/CAN_controller/RX_can*%
X183420000Y-85040000D02*
X184050000Y-84410000D01*
X183570000Y-80190000D02*
X182150000Y-80190000D01*
X183420000Y-86220000D02*
X183420000Y-85040000D01*
X184050000Y-80670000D02*
X183570000Y-80190000D01*
X184050000Y-84410000D02*
X184050000Y-80670000D01*
%TO.N,SCLK*%
X179710000Y-106070000D02*
X179730000Y-106050000D01*
X187060000Y-106050000D02*
X188500000Y-104610000D01*
X188500000Y-104610000D02*
X188500000Y-95440000D01*
X179730000Y-106050000D02*
X187060000Y-106050000D01*
%TO.N,MISO*%
X185960000Y-96800000D02*
X185960000Y-95440000D01*
X186320000Y-97160000D02*
X185960000Y-96800000D01*
X186320000Y-100590000D02*
X186320000Y-97160000D01*
%TO.N,MOSI*%
X187230000Y-100609812D02*
X187230000Y-95440000D01*
X187219492Y-100620320D02*
X187230000Y-100609812D01*
%TO.N,/Microcontroller/can_led*%
X160550000Y-120300000D02*
X161650000Y-120300000D01*
%TO.N,/Microcontroller/ble_led*%
X160560000Y-123300000D02*
X161650000Y-123300000D01*
D40*
%TO.N,/VoltageRegulatorESD/GND_resistence_protect*%
X164330000Y-79270000D02*
X163750000Y-78690000D01*
X163750000Y-78690000D02*
X160880000Y-78690000D01*
D42*
%TO.N,/Microcontroller/RXD0*%
X180160000Y-111930000D02*
X179130000Y-111930000D01*
X179130000Y-111930000D02*
X179050000Y-111850000D01*
%TD*%
%TA.AperFunction,Conductor*%
%TO.N,+3V3*%
G36*
X172185677Y-101879685D02*
G01*
X172206319Y-101896319D01*
X172513681Y-102203681D01*
X172547166Y-102265004D01*
X172550000Y-102291362D01*
X172550000Y-103818638D01*
X172530315Y-103885677D01*
X172513681Y-103906319D01*
X172196319Y-104223681D01*
X172134996Y-104257166D01*
X172108638Y-104260000D01*
X171409999Y-104260000D01*
X171230000Y-104439999D01*
X171230000Y-108358638D01*
X171210315Y-108425677D01*
X171193681Y-108446319D01*
X171056319Y-108583681D01*
X170994996Y-108617166D01*
X170968638Y-108620000D01*
X169911362Y-108620000D01*
X169844323Y-108600315D01*
X169823681Y-108583681D01*
X169696319Y-108456319D01*
X169662834Y-108394996D01*
X169660000Y-108368638D01*
X169660000Y-104889999D01*
X168721747Y-104251189D01*
X168718310Y-104248763D01*
X168543082Y-104120547D01*
X168500603Y-104065073D01*
X168494859Y-103995440D01*
X168508914Y-103958482D01*
X168561250Y-103867835D01*
X168616497Y-103697803D01*
X168635185Y-103520000D01*
X168616497Y-103342197D01*
X168561250Y-103172165D01*
X168471859Y-103017335D01*
X168408542Y-102947014D01*
X168352229Y-102884472D01*
X168351021Y-102883385D01*
X168350526Y-102882581D01*
X168347882Y-102879645D01*
X168348419Y-102879161D01*
X168314377Y-102823896D01*
X168310000Y-102791241D01*
X168310000Y-102291362D01*
X168329685Y-102224323D01*
X168346319Y-102203681D01*
X168653681Y-101896319D01*
X168715004Y-101862834D01*
X168741362Y-101860000D01*
X172118638Y-101860000D01*
X172185677Y-101879685D01*
G37*
%TD.AperFunction*%
%TD*%
%TA.AperFunction,Conductor*%
%TO.N,GND*%
G36*
X156576330Y-104913649D02*
G01*
X156721155Y-105018870D01*
X156853302Y-105086202D01*
X156945616Y-105133239D01*
X156945618Y-105133239D01*
X156945621Y-105133241D01*
X157185215Y-105211090D01*
X157434038Y-105250500D01*
X157434039Y-105250500D01*
X158273122Y-105250500D01*
X158340161Y-105270185D01*
X158385916Y-105322989D01*
X158395860Y-105392147D01*
X158366835Y-105455703D01*
X158338219Y-105480039D01*
X158236654Y-105542684D01*
X158112684Y-105666654D01*
X158020643Y-105815875D01*
X158020641Y-105815880D01*
X157965494Y-105982302D01*
X157965493Y-105982309D01*
X157955000Y-106085013D01*
X157955000Y-106222500D01*
X159306000Y-106222500D01*
X159373039Y-106242185D01*
X159418794Y-106294989D01*
X159430000Y-106346500D01*
X159430000Y-106598500D01*
X159410315Y-106665539D01*
X159357511Y-106711294D01*
X159306000Y-106722500D01*
X157955001Y-106722500D01*
X157955001Y-106859986D01*
X157965494Y-106962697D01*
X158020641Y-107129119D01*
X158020643Y-107129124D01*
X158112684Y-107278345D01*
X158236655Y-107402316D01*
X158236659Y-107402319D01*
X158239656Y-107404168D01*
X158241279Y-107405972D01*
X158242323Y-107406798D01*
X158242181Y-107406976D01*
X158286381Y-107456116D01*
X158297602Y-107525079D01*
X158269759Y-107589161D01*
X158239661Y-107615241D01*
X158236349Y-107617283D01*
X158236343Y-107617288D01*
X158112289Y-107741342D01*
X158020187Y-107890663D01*
X158020185Y-107890668D01*
X158004566Y-107937803D01*
X157965001Y-108057203D01*
X157965001Y-108057204D01*
X157965000Y-108057204D01*
X157954500Y-108159983D01*
X157954500Y-108935001D01*
X157954501Y-108935007D01*
X157965000Y-109037796D01*
X157965001Y-109037799D01*
X158020185Y-109204331D01*
X158020187Y-109204336D01*
X158023303Y-109209388D01*
X158112288Y-109353656D01*
X158112289Y-109353657D01*
X158112290Y-109353658D01*
X158116766Y-109359319D01*
X158115447Y-109360361D01*
X158144667Y-109413873D01*
X158141432Y-109478549D01*
X158098503Y-109610670D01*
X158098502Y-109610672D01*
X158079814Y-109788478D01*
X158098502Y-109966283D01*
X158098503Y-109966285D01*
X158153746Y-110136307D01*
X158153749Y-110136313D01*
X158243138Y-110291141D01*
X158247647Y-110296148D01*
X158277879Y-110359138D01*
X158279500Y-110379124D01*
X158279500Y-113524071D01*
X158303461Y-113644525D01*
X158303462Y-113644535D01*
X158303463Y-113644535D01*
X158304498Y-113649743D01*
X158304499Y-113649745D01*
X158353533Y-113768125D01*
X158381179Y-113809500D01*
X158423053Y-113872170D01*
X158424726Y-113874673D01*
X158424727Y-113874674D01*
X159689022Y-115138968D01*
X159722507Y-115200291D01*
X159724661Y-115213682D01*
X159733503Y-115297803D01*
X159733504Y-115297805D01*
X159733504Y-115297807D01*
X159788747Y-115467829D01*
X159788750Y-115467835D01*
X159878141Y-115622665D01*
X159919812Y-115668946D01*
X159997764Y-115755521D01*
X159997767Y-115755523D01*
X159997770Y-115755526D01*
X160142407Y-115860612D01*
X160305733Y-115933329D01*
X160480609Y-115970500D01*
X160480610Y-115970500D01*
X160659389Y-115970500D01*
X160659391Y-115970500D01*
X160834267Y-115933329D01*
X160997593Y-115860612D01*
X161142230Y-115755526D01*
X161261859Y-115622665D01*
X161351250Y-115467835D01*
X161406497Y-115297803D01*
X161425185Y-115120000D01*
X161424186Y-115110499D01*
X161423632Y-115105224D01*
X161436199Y-115036494D01*
X161483930Y-114985469D01*
X161551670Y-114968350D01*
X161617912Y-114990571D01*
X161634633Y-115004579D01*
X162771662Y-116141607D01*
X162805147Y-116202930D01*
X162800163Y-116272622D01*
X162771661Y-116316971D01*
X162737679Y-116350952D01*
X162676355Y-116384436D01*
X162606664Y-116379450D01*
X162562318Y-116350950D01*
X162468657Y-116257289D01*
X162468656Y-116257288D01*
X162358754Y-116189500D01*
X162319336Y-116165187D01*
X162319331Y-116165185D01*
X162317862Y-116164698D01*
X162152797Y-116110001D01*
X162152795Y-116110000D01*
X162050010Y-116099500D01*
X161249998Y-116099500D01*
X161249980Y-116099501D01*
X161147203Y-116110000D01*
X161147200Y-116110001D01*
X160980668Y-116165185D01*
X160980663Y-116165187D01*
X160831345Y-116257287D01*
X160707286Y-116381345D01*
X160701578Y-116390600D01*
X160649629Y-116437323D01*
X160596041Y-116449500D01*
X160440609Y-116449500D01*
X160409954Y-116456015D01*
X160265733Y-116486670D01*
X160265728Y-116486672D01*
X160102408Y-116559387D01*
X159957768Y-116664475D01*
X159838140Y-116797336D01*
X159748750Y-116952164D01*
X159748747Y-116952170D01*
X159693504Y-117122192D01*
X159693503Y-117122194D01*
X159674815Y-117300000D01*
X159693503Y-117477805D01*
X159693504Y-117477807D01*
X159748747Y-117647829D01*
X159748750Y-117647835D01*
X159838141Y-117802665D01*
X159863379Y-117830694D01*
X159957764Y-117935521D01*
X159957767Y-117935523D01*
X159957770Y-117935526D01*
X160102407Y-118040612D01*
X160265733Y-118113329D01*
X160440609Y-118150500D01*
X160440610Y-118150500D01*
X160596042Y-118150500D01*
X160663081Y-118170185D01*
X160701580Y-118209402D01*
X160707288Y-118218656D01*
X160831344Y-118342712D01*
X160980666Y-118434814D01*
X161147203Y-118489999D01*
X161249991Y-118500500D01*
X162050008Y-118500499D01*
X162050016Y-118500498D01*
X162050019Y-118500498D01*
X162106302Y-118494748D01*
X162152797Y-118489999D01*
X162319334Y-118434814D01*
X162468656Y-118342712D01*
X162562319Y-118249049D01*
X162623642Y-118215564D01*
X162693334Y-118220548D01*
X162737681Y-118249049D01*
X162831344Y-118342712D01*
X162980666Y-118434814D01*
X163147203Y-118489999D01*
X163249991Y-118500500D01*
X164050008Y-118500499D01*
X164050016Y-118500498D01*
X164050019Y-118500498D01*
X164106302Y-118494748D01*
X164152797Y-118489999D01*
X164319334Y-118434814D01*
X164468656Y-118342712D01*
X164533581Y-118277786D01*
X164594900Y-118244304D01*
X164664592Y-118249288D01*
X164720526Y-118291159D01*
X164744943Y-118356623D01*
X164735821Y-118412920D01*
X164724500Y-118440251D01*
X164724497Y-118440261D01*
X164699500Y-118565928D01*
X164699500Y-119188770D01*
X164679815Y-119255809D01*
X164627011Y-119301564D01*
X164557853Y-119311508D01*
X164494297Y-119282483D01*
X164487819Y-119276451D01*
X164468657Y-119257289D01*
X164468656Y-119257288D01*
X164319334Y-119165186D01*
X164152797Y-119110001D01*
X164152795Y-119110000D01*
X164050010Y-119099500D01*
X163249998Y-119099500D01*
X163249980Y-119099501D01*
X163147203Y-119110000D01*
X163147200Y-119110001D01*
X162980668Y-119165185D01*
X162980663Y-119165187D01*
X162831342Y-119257289D01*
X162737681Y-119350951D01*
X162676358Y-119384436D01*
X162606666Y-119379452D01*
X162562319Y-119350951D01*
X162468657Y-119257289D01*
X162468656Y-119257288D01*
X162319334Y-119165186D01*
X162152797Y-119110001D01*
X162152795Y-119110000D01*
X162050010Y-119099500D01*
X161249998Y-119099500D01*
X161249980Y-119099501D01*
X161147203Y-119110000D01*
X161147200Y-119110001D01*
X160980668Y-119165185D01*
X160980663Y-119165187D01*
X160831342Y-119257289D01*
X160707287Y-119381344D01*
X160701580Y-119390598D01*
X160649632Y-119437322D01*
X160596042Y-119449500D01*
X160460609Y-119449500D01*
X160437749Y-119454359D01*
X160285733Y-119486670D01*
X160285728Y-119486672D01*
X160122408Y-119559387D01*
X159977768Y-119664475D01*
X159858140Y-119797336D01*
X159768750Y-119952164D01*
X159768747Y-119952170D01*
X159713504Y-120122192D01*
X159713503Y-120122194D01*
X159694815Y-120300000D01*
X159713503Y-120477805D01*
X159713504Y-120477807D01*
X159768747Y-120647829D01*
X159768750Y-120647835D01*
X159858141Y-120802665D01*
X159899812Y-120848946D01*
X159977764Y-120935521D01*
X159977767Y-120935523D01*
X159977770Y-120935526D01*
X160122407Y-121040612D01*
X160285733Y-121113329D01*
X160460609Y-121150500D01*
X160460610Y-121150500D01*
X160596042Y-121150500D01*
X160663081Y-121170185D01*
X160701581Y-121209404D01*
X160707286Y-121218654D01*
X160707288Y-121218656D01*
X160831344Y-121342712D01*
X160980666Y-121434814D01*
X161147203Y-121489999D01*
X161249991Y-121500500D01*
X162050008Y-121500499D01*
X162050016Y-121500498D01*
X162050019Y-121500498D01*
X162106302Y-121494748D01*
X162152797Y-121489999D01*
X162319334Y-121434814D01*
X162468656Y-121342712D01*
X162562319Y-121249049D01*
X162623642Y-121215564D01*
X162693334Y-121220548D01*
X162737681Y-121249049D01*
X162831344Y-121342712D01*
X162980666Y-121434814D01*
X163147203Y-121489999D01*
X163249991Y-121500500D01*
X163499630Y-121500499D01*
X163566668Y-121520183D01*
X163612423Y-121572987D01*
X163622950Y-121637461D01*
X163604815Y-121809999D01*
X163620848Y-121962538D01*
X163608279Y-122031268D01*
X163560547Y-122082292D01*
X163497527Y-122099500D01*
X163249999Y-122099500D01*
X163249980Y-122099501D01*
X163147203Y-122110000D01*
X163147200Y-122110001D01*
X162980668Y-122165185D01*
X162980663Y-122165187D01*
X162831342Y-122257289D01*
X162737681Y-122350951D01*
X162676358Y-122384436D01*
X162606666Y-122379452D01*
X162562319Y-122350951D01*
X162468657Y-122257289D01*
X162468656Y-122257288D01*
X162319334Y-122165186D01*
X162152797Y-122110001D01*
X162152795Y-122110000D01*
X162050010Y-122099500D01*
X161249998Y-122099500D01*
X161249980Y-122099501D01*
X161147203Y-122110000D01*
X161147200Y-122110001D01*
X160980668Y-122165185D01*
X160980663Y-122165187D01*
X160831342Y-122257289D01*
X160707287Y-122381344D01*
X160701580Y-122390598D01*
X160649632Y-122437322D01*
X160596042Y-122449500D01*
X160470609Y-122449500D01*
X160439954Y-122456015D01*
X160295733Y-122486670D01*
X160295728Y-122486672D01*
X160132408Y-122559387D01*
X159987768Y-122664475D01*
X159868140Y-122797336D01*
X159778750Y-122952164D01*
X159778747Y-122952170D01*
X159723504Y-123122192D01*
X159723503Y-123122194D01*
X159704815Y-123300000D01*
X159723503Y-123477805D01*
X159723504Y-123477807D01*
X159778747Y-123647829D01*
X159778750Y-123647835D01*
X159868141Y-123802665D01*
X159909812Y-123848946D01*
X159987764Y-123935521D01*
X159987767Y-123935523D01*
X159987770Y-123935526D01*
X160132407Y-124040612D01*
X160295733Y-124113329D01*
X160470609Y-124150500D01*
X160470610Y-124150500D01*
X160596042Y-124150500D01*
X160663081Y-124170185D01*
X160701581Y-124209404D01*
X160707286Y-124218654D01*
X160746451Y-124257819D01*
X160779936Y-124319142D01*
X160774952Y-124388834D01*
X160733080Y-124444767D01*
X160667616Y-124469184D01*
X160658770Y-124469500D01*
X158084428Y-124469500D01*
X158075582Y-124469184D01*
X157846835Y-124452823D01*
X157829322Y-124450305D01*
X157609574Y-124402500D01*
X157592599Y-124397516D01*
X157381885Y-124318923D01*
X157365791Y-124311573D01*
X157168404Y-124203789D01*
X157153525Y-124194226D01*
X156973497Y-124059456D01*
X156960127Y-124047870D01*
X156801100Y-123888839D01*
X156789514Y-123875468D01*
X156654748Y-123695437D01*
X156645182Y-123680552D01*
X156537408Y-123483167D01*
X156530060Y-123467075D01*
X156451470Y-123256357D01*
X156446485Y-123239380D01*
X156420996Y-123122192D01*
X156398686Y-123019623D01*
X156396170Y-123002115D01*
X156379761Y-122772601D01*
X156379445Y-122763753D01*
X156379447Y-122721359D01*
X156379445Y-122721354D01*
X156379446Y-122712737D01*
X156379445Y-122712707D01*
X156379445Y-105013967D01*
X156399130Y-104946928D01*
X156451934Y-104901173D01*
X156521092Y-104891229D01*
X156576330Y-104913649D01*
G37*
%TD.AperFunction*%
%TA.AperFunction,Conductor*%
G36*
X166109417Y-120056319D02*
G01*
X166151788Y-120111875D01*
X166160000Y-120156249D01*
X166160000Y-124345500D01*
X166140315Y-124412539D01*
X166087511Y-124458294D01*
X166036000Y-124469500D01*
X164641230Y-124469500D01*
X164574191Y-124449815D01*
X164528436Y-124397011D01*
X164518492Y-124327853D01*
X164547517Y-124264297D01*
X164553549Y-124257819D01*
X164592712Y-124218656D01*
X164684814Y-124069334D01*
X164739999Y-123902797D01*
X164750500Y-123800009D01*
X164750499Y-123170807D01*
X164770183Y-123103769D01*
X164786813Y-123083132D01*
X164965277Y-122904669D01*
X165036465Y-122798127D01*
X165085501Y-122679744D01*
X165095231Y-122630828D01*
X165110500Y-122554069D01*
X165110500Y-122406197D01*
X165130185Y-122339158D01*
X165142352Y-122323223D01*
X165151859Y-122312665D01*
X165241250Y-122157835D01*
X165296497Y-121987803D01*
X165315185Y-121810000D01*
X165296497Y-121632197D01*
X165241250Y-121462165D01*
X165151859Y-121307335D01*
X165099378Y-121249049D01*
X165032235Y-121174478D01*
X165032232Y-121174476D01*
X165032231Y-121174475D01*
X165032230Y-121174474D01*
X164991506Y-121144886D01*
X164948841Y-121089556D01*
X164942863Y-121019943D01*
X164975469Y-120958148D01*
X165024343Y-120928381D01*
X165024116Y-120927832D01*
X165027648Y-120926368D01*
X165028410Y-120925905D01*
X165029730Y-120925503D01*
X165029744Y-120925501D01*
X165148127Y-120876465D01*
X165254669Y-120805277D01*
X165855277Y-120204669D01*
X165926465Y-120098127D01*
X165926466Y-120098122D01*
X165926639Y-120097801D01*
X165926775Y-120097662D01*
X165929849Y-120093062D01*
X165930721Y-120093644D01*
X165975599Y-120047954D01*
X166043736Y-120032491D01*
X166109417Y-120056319D01*
G37*
%TD.AperFunction*%
%TA.AperFunction,Conductor*%
G36*
X198456231Y-97750185D02*
G01*
X198476873Y-97766819D01*
X199031371Y-98321317D01*
X199064856Y-98382640D01*
X199067010Y-98396031D01*
X199073503Y-98457803D01*
X199073504Y-98457805D01*
X199073504Y-98457807D01*
X199128747Y-98627829D01*
X199128750Y-98627835D01*
X199218141Y-98782665D01*
X199228775Y-98794475D01*
X199337764Y-98915521D01*
X199337767Y-98915523D01*
X199337770Y-98915526D01*
X199482407Y-99020612D01*
X199645733Y-99093329D01*
X199820609Y-99130500D01*
X199820610Y-99130500D01*
X199999389Y-99130500D01*
X199999391Y-99130500D01*
X200174267Y-99093329D01*
X200337593Y-99020612D01*
X200482230Y-98915526D01*
X200501077Y-98894595D01*
X200562295Y-98826605D01*
X200621781Y-98789956D01*
X200691638Y-98791286D01*
X200749687Y-98830173D01*
X200777497Y-98894269D01*
X200778445Y-98909577D01*
X200778445Y-118421000D01*
X200758760Y-118488039D01*
X200705956Y-118533794D01*
X200654445Y-118545000D01*
X170997359Y-118545000D01*
X170930320Y-118525315D01*
X170884565Y-118472511D01*
X170874621Y-118403353D01*
X170903646Y-118339797D01*
X170949906Y-118306439D01*
X170957060Y-118303475D01*
X170998127Y-118286465D01*
X171104669Y-118215277D01*
X171813127Y-117506819D01*
X171874450Y-117473334D01*
X171900808Y-117470500D01*
X181164071Y-117470500D01*
X181248615Y-117453682D01*
X181289744Y-117445501D01*
X181408127Y-117396465D01*
X181421043Y-117387835D01*
X181514669Y-117325277D01*
X182315277Y-116524669D01*
X182386466Y-116418126D01*
X182435501Y-116299743D01*
X182448338Y-116235212D01*
X182460500Y-116174069D01*
X182460500Y-115434500D01*
X182480185Y-115367461D01*
X182532989Y-115321706D01*
X182584500Y-115310500D01*
X182729389Y-115310500D01*
X182729391Y-115310500D01*
X182904267Y-115273329D01*
X183067593Y-115200612D01*
X183159025Y-115134182D01*
X183224831Y-115110702D01*
X183231911Y-115110500D01*
X184774071Y-115110500D01*
X184858615Y-115093682D01*
X184899744Y-115085501D01*
X185018127Y-115036465D01*
X185022820Y-115033329D01*
X185124669Y-114965277D01*
X185548092Y-114541853D01*
X185609413Y-114508370D01*
X185609477Y-114508356D01*
X185774267Y-114473329D01*
X185937593Y-114400612D01*
X186020010Y-114340732D01*
X186085816Y-114317251D01*
X186153870Y-114333076D01*
X186185046Y-114358077D01*
X186227764Y-114405521D01*
X186227767Y-114405523D01*
X186227770Y-114405526D01*
X186372407Y-114510612D01*
X186535733Y-114583329D01*
X186710609Y-114620500D01*
X186710610Y-114620500D01*
X186889389Y-114620500D01*
X186889391Y-114620500D01*
X187064267Y-114583329D01*
X187227593Y-114510612D01*
X187372230Y-114405526D01*
X187376658Y-114400609D01*
X187417507Y-114355241D01*
X187491859Y-114272665D01*
X187581250Y-114117835D01*
X187636497Y-113947803D01*
X187639910Y-113915329D01*
X187666493Y-113850713D01*
X187712797Y-113815008D01*
X187767593Y-113790612D01*
X187912230Y-113685526D01*
X188031859Y-113552665D01*
X188083916Y-113462500D01*
X188105105Y-113425800D01*
X188155672Y-113377584D01*
X188224279Y-113364361D01*
X188289144Y-113390329D01*
X188300173Y-113400119D01*
X190692825Y-115792772D01*
X190692832Y-115792778D01*
X190794355Y-115860613D01*
X190794354Y-115860613D01*
X190794361Y-115860616D01*
X190799373Y-115863965D01*
X190917756Y-115913001D01*
X190917760Y-115913001D01*
X190917761Y-115913002D01*
X191043428Y-115938000D01*
X191043431Y-115938000D01*
X192737072Y-115938000D01*
X192804111Y-115957685D01*
X192842609Y-115996901D01*
X192902288Y-116093656D01*
X193026344Y-116217712D01*
X193175666Y-116309814D01*
X193342203Y-116364999D01*
X193444991Y-116375500D01*
X194495008Y-116375499D01*
X194495016Y-116375498D01*
X194495019Y-116375498D01*
X194551302Y-116369748D01*
X194597797Y-116364999D01*
X194764334Y-116309814D01*
X194913656Y-116217712D01*
X195003569Y-116127799D01*
X195064892Y-116094314D01*
X195134584Y-116099298D01*
X195178931Y-116127799D01*
X195286344Y-116235212D01*
X195435666Y-116327314D01*
X195602203Y-116382499D01*
X195704991Y-116393000D01*
X196755008Y-116392999D01*
X196755016Y-116392998D01*
X196755019Y-116392998D01*
X196811302Y-116387248D01*
X196857797Y-116382499D01*
X197024334Y-116327314D01*
X197173656Y-116235212D01*
X197218682Y-116190185D01*
X197280003Y-116156699D01*
X197332143Y-116156575D01*
X197350609Y-116160500D01*
X197350611Y-116160500D01*
X197529389Y-116160500D01*
X197529391Y-116160500D01*
X197704267Y-116123329D01*
X197867593Y-116050612D01*
X198012230Y-115945526D01*
X198013304Y-115944334D01*
X198043988Y-115910255D01*
X198131859Y-115812665D01*
X198221250Y-115657835D01*
X198276497Y-115487803D01*
X198295185Y-115310000D01*
X198276497Y-115132197D01*
X198223260Y-114968350D01*
X198221252Y-114962170D01*
X198221249Y-114962164D01*
X198159679Y-114855521D01*
X198131859Y-114807335D01*
X198073962Y-114743034D01*
X198012235Y-114674478D01*
X198012232Y-114674476D01*
X198012231Y-114674475D01*
X198012230Y-114674474D01*
X197867593Y-114569388D01*
X197704267Y-114496671D01*
X197704265Y-114496670D01*
X197539609Y-114461672D01*
X197529391Y-114459500D01*
X197350609Y-114459500D01*
X197350605Y-114459500D01*
X197340383Y-114461672D01*
X197270716Y-114456351D01*
X197226929Y-114428061D01*
X197173657Y-114374789D01*
X197173656Y-114374788D01*
X197170342Y-114372743D01*
X197168546Y-114370748D01*
X197167989Y-114370307D01*
X197168064Y-114370211D01*
X197123618Y-114320797D01*
X197112397Y-114251834D01*
X197140240Y-114187752D01*
X197170348Y-114161665D01*
X197173342Y-114159818D01*
X197297315Y-114035845D01*
X197389356Y-113886624D01*
X197389358Y-113886619D01*
X197444505Y-113720197D01*
X197444506Y-113720190D01*
X197454999Y-113617486D01*
X197455000Y-113617473D01*
X197455000Y-113480000D01*
X195030862Y-113480000D01*
X194971264Y-113462500D01*
X192745001Y-113462500D01*
X192745001Y-113599986D01*
X192755494Y-113702697D01*
X192810641Y-113869119D01*
X192810643Y-113869124D01*
X192902684Y-114018345D01*
X193026655Y-114142316D01*
X193026659Y-114142319D01*
X193029656Y-114144168D01*
X193031279Y-114145972D01*
X193032323Y-114146798D01*
X193032181Y-114146976D01*
X193076381Y-114196116D01*
X193087602Y-114265079D01*
X193059759Y-114329161D01*
X193029661Y-114355241D01*
X193026349Y-114357283D01*
X193026343Y-114357288D01*
X192902289Y-114481342D01*
X192884237Y-114510610D01*
X192847983Y-114569388D01*
X192842611Y-114578097D01*
X192790663Y-114624821D01*
X192737072Y-114637000D01*
X191428308Y-114637000D01*
X191361269Y-114617315D01*
X191340627Y-114600681D01*
X188636606Y-111896660D01*
X189714392Y-111896660D01*
X189714392Y-111896661D01*
X189728192Y-111905333D01*
X189728191Y-111905333D01*
X189898361Y-111964878D01*
X190077497Y-111985062D01*
X190077503Y-111985062D01*
X190256638Y-111964878D01*
X190256641Y-111964877D01*
X190426805Y-111905334D01*
X190426806Y-111905334D01*
X190440606Y-111896661D01*
X190440606Y-111896660D01*
X191239392Y-111896660D01*
X191239392Y-111896661D01*
X191253192Y-111905333D01*
X191253191Y-111905333D01*
X191423361Y-111964878D01*
X191602497Y-111985062D01*
X191602503Y-111985062D01*
X191781638Y-111964878D01*
X191781641Y-111964877D01*
X191951805Y-111905334D01*
X191951806Y-111905334D01*
X191965606Y-111896661D01*
X191965606Y-111896660D01*
X191602501Y-111533553D01*
X191602500Y-111533553D01*
X191239392Y-111896660D01*
X190440606Y-111896660D01*
X190077501Y-111533553D01*
X190077500Y-111533553D01*
X189714392Y-111896660D01*
X188636606Y-111896660D01*
X187874106Y-111134160D01*
X188951892Y-111134160D01*
X188951892Y-111134161D01*
X188965692Y-111142833D01*
X188965691Y-111142833D01*
X189135861Y-111202378D01*
X189178482Y-111207180D01*
X189242896Y-111234246D01*
X189282451Y-111291840D01*
X189287819Y-111316515D01*
X189292621Y-111359138D01*
X189352165Y-111529304D01*
X189360838Y-111543107D01*
X189723946Y-111180000D01*
X189694109Y-111150163D01*
X189927500Y-111150163D01*
X189927500Y-111209837D01*
X189950336Y-111264968D01*
X189992532Y-111307164D01*
X190047663Y-111330000D01*
X190107337Y-111330000D01*
X190162468Y-111307164D01*
X190204664Y-111264968D01*
X190227500Y-111209837D01*
X190227500Y-111179999D01*
X190431053Y-111179999D01*
X190431053Y-111180000D01*
X190794160Y-111543106D01*
X190826122Y-111539506D01*
X190853885Y-111539507D01*
X190885838Y-111543107D01*
X191248946Y-111180000D01*
X191219109Y-111150163D01*
X191452500Y-111150163D01*
X191452500Y-111209837D01*
X191475336Y-111264968D01*
X191517532Y-111307164D01*
X191572663Y-111330000D01*
X191632337Y-111330000D01*
X191687468Y-111307164D01*
X191729664Y-111264968D01*
X191752500Y-111209837D01*
X191752500Y-111180000D01*
X191956053Y-111180000D01*
X192319160Y-111543106D01*
X192319161Y-111543106D01*
X192327834Y-111529306D01*
X192327834Y-111529305D01*
X192387378Y-111359139D01*
X192392180Y-111316518D01*
X192419246Y-111252103D01*
X192476840Y-111212548D01*
X192501518Y-111207180D01*
X192544139Y-111202378D01*
X192714305Y-111142834D01*
X192714306Y-111142834D01*
X192728106Y-111134161D01*
X192728106Y-111134160D01*
X192365000Y-110771053D01*
X192328768Y-110807286D01*
X192328766Y-110807288D01*
X191956053Y-111180000D01*
X191752500Y-111180000D01*
X191752500Y-111150163D01*
X191729664Y-111095032D01*
X191687468Y-111052836D01*
X191632337Y-111030000D01*
X191572663Y-111030000D01*
X191517532Y-111052836D01*
X191475336Y-111095032D01*
X191452500Y-111150163D01*
X191219109Y-111150163D01*
X190876233Y-110807287D01*
X190840000Y-110771053D01*
X190803767Y-110807287D01*
X190803766Y-110807289D01*
X190431053Y-111179999D01*
X190227500Y-111179999D01*
X190227500Y-111150163D01*
X190204664Y-111095032D01*
X190162468Y-111052836D01*
X190107337Y-111030000D01*
X190047663Y-111030000D01*
X189992532Y-111052836D01*
X189950336Y-111095032D01*
X189927500Y-111150163D01*
X189694109Y-111150163D01*
X189314999Y-110771053D01*
X189314998Y-110771053D01*
X188951892Y-111134160D01*
X187874106Y-111134160D01*
X187486819Y-110746873D01*
X187453334Y-110685550D01*
X187450500Y-110659192D01*
X187450500Y-110417497D01*
X188509938Y-110417497D01*
X188509938Y-110417502D01*
X188530121Y-110596638D01*
X188589665Y-110766804D01*
X188598338Y-110780607D01*
X188961446Y-110417500D01*
X188961446Y-110417499D01*
X188931610Y-110387663D01*
X189165000Y-110387663D01*
X189165000Y-110447337D01*
X189187836Y-110502468D01*
X189230032Y-110544664D01*
X189285163Y-110567500D01*
X189344837Y-110567500D01*
X189399968Y-110544664D01*
X189442164Y-110502468D01*
X189465000Y-110447337D01*
X189465000Y-110417500D01*
X189668553Y-110417500D01*
X189703718Y-110452664D01*
X190077500Y-110826446D01*
X190486446Y-110417500D01*
X190456609Y-110387663D01*
X190690000Y-110387663D01*
X190690000Y-110447337D01*
X190712836Y-110502468D01*
X190755032Y-110544664D01*
X190810163Y-110567500D01*
X190869837Y-110567500D01*
X190924968Y-110544664D01*
X190967164Y-110502468D01*
X190990000Y-110447337D01*
X190990000Y-110417500D01*
X191193553Y-110417500D01*
X191228718Y-110452664D01*
X191602500Y-110826446D01*
X192011446Y-110417500D01*
X191981609Y-110387663D01*
X192215000Y-110387663D01*
X192215000Y-110447337D01*
X192237836Y-110502468D01*
X192280032Y-110544664D01*
X192335163Y-110567500D01*
X192394837Y-110567500D01*
X192449968Y-110544664D01*
X192492164Y-110502468D01*
X192515000Y-110447337D01*
X192515000Y-110417500D01*
X192718553Y-110417500D01*
X193093712Y-110792658D01*
X193115938Y-110796551D01*
X193167318Y-110843900D01*
X193185000Y-110907717D01*
X193185000Y-110990000D01*
X194022500Y-110990000D01*
X194022500Y-110015000D01*
X193885027Y-110015000D01*
X193885012Y-110015001D01*
X193782302Y-110025494D01*
X193615880Y-110080641D01*
X193615875Y-110080643D01*
X193466657Y-110172682D01*
X193354510Y-110284829D01*
X193293187Y-110318313D01*
X193223495Y-110313329D01*
X193167562Y-110271457D01*
X193149787Y-110238101D01*
X193090334Y-110068194D01*
X193090333Y-110068192D01*
X193081661Y-110054392D01*
X193081660Y-110054392D01*
X192718553Y-110417500D01*
X192515000Y-110417500D01*
X192515000Y-110387663D01*
X192492164Y-110332532D01*
X192449968Y-110290336D01*
X192394837Y-110267500D01*
X192335163Y-110267500D01*
X192280032Y-110290336D01*
X192237836Y-110332532D01*
X192215000Y-110387663D01*
X191981609Y-110387663D01*
X191643343Y-110049397D01*
X191602500Y-110008553D01*
X191561657Y-110049397D01*
X191561656Y-110049398D01*
X191193553Y-110417500D01*
X190990000Y-110417500D01*
X190990000Y-110387663D01*
X190967164Y-110332532D01*
X190924968Y-110290336D01*
X190869837Y-110267500D01*
X190810163Y-110267500D01*
X190755032Y-110290336D01*
X190712836Y-110332532D01*
X190690000Y-110387663D01*
X190456609Y-110387663D01*
X190118343Y-110049397D01*
X190077500Y-110008553D01*
X190036657Y-110049397D01*
X190036656Y-110049398D01*
X189668553Y-110417500D01*
X189465000Y-110417500D01*
X189465000Y-110387663D01*
X189442164Y-110332532D01*
X189399968Y-110290336D01*
X189344837Y-110267500D01*
X189285163Y-110267500D01*
X189230032Y-110290336D01*
X189187836Y-110332532D01*
X189165000Y-110387663D01*
X188931610Y-110387663D01*
X188598338Y-110054391D01*
X188598337Y-110054391D01*
X188589667Y-110068191D01*
X188589662Y-110068201D01*
X188530122Y-110238358D01*
X188530121Y-110238361D01*
X188509938Y-110417497D01*
X187450500Y-110417497D01*
X187450500Y-109700838D01*
X188951891Y-109700838D01*
X189314998Y-110063946D01*
X189314999Y-110063946D01*
X189690892Y-109688054D01*
X189723946Y-109655000D01*
X189694109Y-109625163D01*
X189927500Y-109625163D01*
X189927500Y-109684837D01*
X189950336Y-109739968D01*
X189992532Y-109782164D01*
X190047663Y-109805000D01*
X190107337Y-109805000D01*
X190162468Y-109782164D01*
X190204664Y-109739968D01*
X190227500Y-109684837D01*
X190227500Y-109655000D01*
X190431053Y-109655000D01*
X190464108Y-109688054D01*
X190840000Y-110063946D01*
X191248946Y-109655000D01*
X191219109Y-109625163D01*
X191452500Y-109625163D01*
X191452500Y-109684837D01*
X191475336Y-109739968D01*
X191517532Y-109782164D01*
X191572663Y-109805000D01*
X191632337Y-109805000D01*
X191687468Y-109782164D01*
X191729664Y-109739968D01*
X191752500Y-109684837D01*
X191752500Y-109655000D01*
X191956053Y-109655000D01*
X191989108Y-109688054D01*
X192365000Y-110063946D01*
X192365001Y-110063946D01*
X192728107Y-109700838D01*
X192724507Y-109668885D01*
X192724506Y-109641122D01*
X192728106Y-109609160D01*
X192365000Y-109246053D01*
X192322865Y-109288190D01*
X192322863Y-109288191D01*
X191956053Y-109655000D01*
X191752500Y-109655000D01*
X191752500Y-109625163D01*
X191729664Y-109570032D01*
X191687468Y-109527836D01*
X191632337Y-109505000D01*
X191572663Y-109505000D01*
X191517532Y-109527836D01*
X191475336Y-109570032D01*
X191452500Y-109625163D01*
X191219109Y-109625163D01*
X190882136Y-109288190D01*
X190840000Y-109246053D01*
X190797864Y-109288190D01*
X190797863Y-109288191D01*
X190431053Y-109655000D01*
X190227500Y-109655000D01*
X190227500Y-109625163D01*
X190204664Y-109570032D01*
X190162468Y-109527836D01*
X190107337Y-109505000D01*
X190047663Y-109505000D01*
X189992532Y-109527836D01*
X189950336Y-109570032D01*
X189927500Y-109625163D01*
X189694109Y-109625163D01*
X189314999Y-109246053D01*
X189314998Y-109246053D01*
X188951892Y-109609160D01*
X188955493Y-109641119D01*
X188955492Y-109668884D01*
X188951891Y-109700838D01*
X187450500Y-109700838D01*
X187450500Y-108892497D01*
X188509938Y-108892497D01*
X188509938Y-108892502D01*
X188530121Y-109071638D01*
X188589665Y-109241804D01*
X188598338Y-109255607D01*
X188961446Y-108892500D01*
X188961446Y-108892499D01*
X188931610Y-108862663D01*
X189165000Y-108862663D01*
X189165000Y-108922337D01*
X189187836Y-108977468D01*
X189230032Y-109019664D01*
X189285163Y-109042500D01*
X189344837Y-109042500D01*
X189399968Y-109019664D01*
X189442164Y-108977468D01*
X189465000Y-108922337D01*
X189465000Y-108892499D01*
X189668553Y-108892499D01*
X189711062Y-108935007D01*
X189711063Y-108935009D01*
X190077500Y-109301446D01*
X190486446Y-108892500D01*
X190456609Y-108862663D01*
X190690000Y-108862663D01*
X190690000Y-108922337D01*
X190712836Y-108977468D01*
X190755032Y-109019664D01*
X190810163Y-109042500D01*
X190869837Y-109042500D01*
X190924968Y-109019664D01*
X190967164Y-108977468D01*
X190990000Y-108922337D01*
X190990000Y-108892499D01*
X191193553Y-108892499D01*
X191236062Y-108935007D01*
X191236063Y-108935009D01*
X191602500Y-109301446D01*
X192011446Y-108892500D01*
X191981609Y-108862663D01*
X192215000Y-108862663D01*
X192215000Y-108922337D01*
X192237836Y-108977468D01*
X192280032Y-109019664D01*
X192335163Y-109042500D01*
X192394837Y-109042500D01*
X192449968Y-109019664D01*
X192492164Y-108977468D01*
X192515000Y-108922337D01*
X192515000Y-108892500D01*
X192718553Y-108892500D01*
X193081660Y-109255606D01*
X193081661Y-109255606D01*
X193090334Y-109241806D01*
X193090334Y-109241805D01*
X193149877Y-109071641D01*
X193149878Y-109071638D01*
X193170062Y-108892502D01*
X193170062Y-108892497D01*
X193149878Y-108713361D01*
X193090333Y-108543192D01*
X193081661Y-108529392D01*
X193081660Y-108529392D01*
X192718553Y-108892500D01*
X192515000Y-108892500D01*
X192515000Y-108862663D01*
X192492164Y-108807532D01*
X192449968Y-108765336D01*
X192394837Y-108742500D01*
X192335163Y-108742500D01*
X192280032Y-108765336D01*
X192237836Y-108807532D01*
X192215000Y-108862663D01*
X191981609Y-108862663D01*
X191657892Y-108538946D01*
X191602500Y-108483553D01*
X191547108Y-108538946D01*
X191547107Y-108538947D01*
X191193553Y-108892499D01*
X190990000Y-108892499D01*
X190990000Y-108862663D01*
X190967164Y-108807532D01*
X190924968Y-108765336D01*
X190869837Y-108742500D01*
X190810163Y-108742500D01*
X190755032Y-108765336D01*
X190712836Y-108807532D01*
X190690000Y-108862663D01*
X190456609Y-108862663D01*
X190132892Y-108538946D01*
X190077500Y-108483553D01*
X190022108Y-108538946D01*
X190022107Y-108538947D01*
X189668553Y-108892499D01*
X189465000Y-108892499D01*
X189465000Y-108862663D01*
X189442164Y-108807532D01*
X189399968Y-108765336D01*
X189344837Y-108742500D01*
X189285163Y-108742500D01*
X189230032Y-108765336D01*
X189187836Y-108807532D01*
X189165000Y-108862663D01*
X188931610Y-108862663D01*
X188598338Y-108529391D01*
X188598337Y-108529391D01*
X188589667Y-108543191D01*
X188589662Y-108543201D01*
X188530122Y-108713358D01*
X188530121Y-108713361D01*
X188509938Y-108892497D01*
X187450500Y-108892497D01*
X187450500Y-108240808D01*
X187469578Y-108175837D01*
X188951891Y-108175837D01*
X188951891Y-108175838D01*
X189314998Y-108538946D01*
X189314999Y-108538946D01*
X189686783Y-108167164D01*
X189723946Y-108129999D01*
X189723946Y-108129998D01*
X189694111Y-108100163D01*
X189927500Y-108100163D01*
X189927500Y-108159837D01*
X189950336Y-108214968D01*
X189992532Y-108257164D01*
X190047663Y-108280000D01*
X190107337Y-108280000D01*
X190162468Y-108257164D01*
X190204664Y-108214968D01*
X190227500Y-108159837D01*
X190227500Y-108129998D01*
X190431053Y-108129998D01*
X190431053Y-108129999D01*
X190840000Y-108538946D01*
X191211783Y-108167164D01*
X191248946Y-108129999D01*
X191248946Y-108129998D01*
X191219111Y-108100163D01*
X191452500Y-108100163D01*
X191452500Y-108159837D01*
X191475336Y-108214968D01*
X191517532Y-108257164D01*
X191572663Y-108280000D01*
X191632337Y-108280000D01*
X191687468Y-108257164D01*
X191729664Y-108214968D01*
X191752500Y-108159837D01*
X191752500Y-108129998D01*
X191956053Y-108129998D01*
X191956053Y-108129999D01*
X192365000Y-108538946D01*
X192365001Y-108538946D01*
X192728107Y-108175838D01*
X192714304Y-108167165D01*
X192544138Y-108107621D01*
X192501515Y-108102819D01*
X192437102Y-108075752D01*
X192397547Y-108018157D01*
X192392180Y-107993482D01*
X192387378Y-107950861D01*
X192327833Y-107780692D01*
X192319161Y-107766892D01*
X192319160Y-107766892D01*
X191956053Y-108129998D01*
X191752500Y-108129998D01*
X191752500Y-108100163D01*
X191729664Y-108045032D01*
X191687468Y-108002836D01*
X191632337Y-107980000D01*
X191572663Y-107980000D01*
X191517532Y-108002836D01*
X191475336Y-108045032D01*
X191452500Y-108100163D01*
X191219111Y-108100163D01*
X190885837Y-107766890D01*
X190853885Y-107770491D01*
X190826122Y-107770492D01*
X190794160Y-107766891D01*
X190431053Y-108129998D01*
X190227500Y-108129998D01*
X190227500Y-108100163D01*
X190204664Y-108045032D01*
X190162468Y-108002836D01*
X190107337Y-107980000D01*
X190047663Y-107980000D01*
X189992532Y-108002836D01*
X189950336Y-108045032D01*
X189927500Y-108100163D01*
X189694111Y-108100163D01*
X189360838Y-107766891D01*
X189360837Y-107766891D01*
X189352167Y-107780691D01*
X189352162Y-107780701D01*
X189292622Y-107950858D01*
X189287819Y-107993484D01*
X189260752Y-108057898D01*
X189203156Y-108097452D01*
X189178484Y-108102819D01*
X189135858Y-108107622D01*
X188965701Y-108167162D01*
X188965694Y-108167166D01*
X188951891Y-108175837D01*
X187469578Y-108175837D01*
X187470185Y-108173769D01*
X187486819Y-108153127D01*
X188226609Y-107413337D01*
X189714391Y-107413337D01*
X189714391Y-107413338D01*
X190077500Y-107776446D01*
X190077501Y-107776446D01*
X190440607Y-107413338D01*
X190440605Y-107413337D01*
X191239391Y-107413337D01*
X191239391Y-107413338D01*
X191602500Y-107776446D01*
X191602501Y-107776446D01*
X191965607Y-107413338D01*
X191951804Y-107404665D01*
X191781638Y-107345121D01*
X191602503Y-107324938D01*
X191602497Y-107324938D01*
X191423361Y-107345121D01*
X191423358Y-107345122D01*
X191253201Y-107404662D01*
X191253191Y-107404667D01*
X191239391Y-107413337D01*
X190440605Y-107413337D01*
X190426804Y-107404665D01*
X190256638Y-107345121D01*
X190077503Y-107324938D01*
X190077497Y-107324938D01*
X189898361Y-107345121D01*
X189898358Y-107345122D01*
X189728201Y-107404662D01*
X189728191Y-107404667D01*
X189714391Y-107413337D01*
X188226609Y-107413337D01*
X192095273Y-103544673D01*
X192095277Y-103544669D01*
X192166465Y-103438127D01*
X192197508Y-103363182D01*
X192215501Y-103319744D01*
X192224359Y-103275214D01*
X192240500Y-103194071D01*
X192240500Y-102363732D01*
X192260185Y-102296693D01*
X192312989Y-102250938D01*
X192325495Y-102246026D01*
X192359334Y-102234814D01*
X192508656Y-102142712D01*
X192508659Y-102142708D01*
X192513897Y-102139478D01*
X192581289Y-102121038D01*
X192647953Y-102141960D01*
X192666675Y-102157336D01*
X192716654Y-102207315D01*
X192865875Y-102299356D01*
X192865880Y-102299358D01*
X193032302Y-102354505D01*
X193032309Y-102354506D01*
X193135019Y-102364999D01*
X193409999Y-102364999D01*
X193910000Y-102364999D01*
X194184972Y-102364999D01*
X194184986Y-102364998D01*
X194287697Y-102354505D01*
X194454119Y-102299358D01*
X194454124Y-102299356D01*
X194603345Y-102207315D01*
X194727315Y-102083345D01*
X194819356Y-101934124D01*
X194819358Y-101934119D01*
X194874505Y-101767697D01*
X194874506Y-101767690D01*
X194884999Y-101664986D01*
X194885000Y-101664973D01*
X194885000Y-101527500D01*
X193910000Y-101527500D01*
X193910000Y-102364999D01*
X193409999Y-102364999D01*
X193410000Y-102364998D01*
X193410000Y-101151500D01*
X193429685Y-101084461D01*
X193482489Y-101038706D01*
X193534000Y-101027500D01*
X194884999Y-101027500D01*
X194884999Y-100890028D01*
X194884998Y-100890013D01*
X194874505Y-100787302D01*
X194819358Y-100620880D01*
X194819356Y-100620875D01*
X194727315Y-100471654D01*
X194603344Y-100347683D01*
X194603341Y-100347681D01*
X194600339Y-100345829D01*
X194598713Y-100344021D01*
X194597677Y-100343202D01*
X194597817Y-100343024D01*
X194553617Y-100293880D01*
X194542397Y-100224917D01*
X194570243Y-100160836D01*
X194600344Y-100134754D01*
X194603656Y-100132712D01*
X194727712Y-100008656D01*
X194787389Y-99911902D01*
X194839337Y-99865179D01*
X194892928Y-99853000D01*
X195271692Y-99853000D01*
X195338731Y-99872685D01*
X195359373Y-99889319D01*
X195660681Y-100190627D01*
X195694166Y-100251950D01*
X195697000Y-100278308D01*
X195697000Y-110007072D01*
X195677315Y-110074111D01*
X195638098Y-110112609D01*
X195613466Y-110127803D01*
X195541342Y-110172289D01*
X195417288Y-110296343D01*
X195417283Y-110296349D01*
X195415241Y-110299661D01*
X195413247Y-110301453D01*
X195412807Y-110302011D01*
X195412711Y-110301935D01*
X195363291Y-110346383D01*
X195294328Y-110357602D01*
X195230247Y-110329755D01*
X195204168Y-110299656D01*
X195202319Y-110296659D01*
X195202316Y-110296655D01*
X195078345Y-110172684D01*
X194929124Y-110080643D01*
X194929119Y-110080641D01*
X194762697Y-110025494D01*
X194762690Y-110025493D01*
X194659986Y-110015000D01*
X194522500Y-110015000D01*
X194522500Y-111366000D01*
X194502815Y-111433039D01*
X194450011Y-111478794D01*
X194398500Y-111490000D01*
X193185001Y-111490000D01*
X193185001Y-111764986D01*
X193195494Y-111867697D01*
X193250975Y-112035126D01*
X193253377Y-112104954D01*
X193217645Y-112164996D01*
X193181780Y-112186218D01*
X193182421Y-112187592D01*
X193175875Y-112190643D01*
X193026654Y-112282684D01*
X192902684Y-112406654D01*
X192810643Y-112555875D01*
X192810641Y-112555880D01*
X192755494Y-112722302D01*
X192755493Y-112722309D01*
X192745000Y-112825013D01*
X192745000Y-112962500D01*
X195169138Y-112962500D01*
X195228736Y-112980000D01*
X197058690Y-112980000D01*
X197125729Y-112999685D01*
X197131571Y-113003678D01*
X197182405Y-113040612D01*
X197345731Y-113113329D01*
X197520607Y-113150500D01*
X197520608Y-113150500D01*
X197699387Y-113150500D01*
X197699389Y-113150500D01*
X197874265Y-113113329D01*
X198037591Y-113040612D01*
X198182228Y-112935526D01*
X198193545Y-112922958D01*
X198232224Y-112880000D01*
X198301857Y-112802665D01*
X198391248Y-112647835D01*
X198446495Y-112477803D01*
X198465183Y-112300000D01*
X198446495Y-112122197D01*
X198395379Y-111964878D01*
X198391250Y-111952170D01*
X198391247Y-111952164D01*
X198377784Y-111928845D01*
X198301857Y-111797335D01*
X198289816Y-111783962D01*
X198260350Y-111725183D01*
X198235500Y-111600259D01*
X198235499Y-111600258D01*
X198235499Y-111600254D01*
X198200323Y-111515331D01*
X198189831Y-111490000D01*
X198186467Y-111481878D01*
X198186465Y-111481875D01*
X198186464Y-111481872D01*
X198184407Y-111478794D01*
X198115276Y-111375330D01*
X198115270Y-111375323D01*
X197474670Y-110734724D01*
X197473610Y-110733854D01*
X197473204Y-110733258D01*
X197470361Y-110730415D01*
X197470900Y-110729875D01*
X197434278Y-110676106D01*
X197428921Y-110650603D01*
X197428808Y-110649501D01*
X197424999Y-110612203D01*
X197369814Y-110445666D01*
X197277712Y-110296344D01*
X197153656Y-110172288D01*
X197056902Y-110112610D01*
X197010179Y-110060663D01*
X196998000Y-110007072D01*
X196998000Y-99893428D01*
X196973002Y-99767761D01*
X196973001Y-99767760D01*
X196973001Y-99767756D01*
X196923965Y-99649373D01*
X196896189Y-99607803D01*
X196883959Y-99589500D01*
X196852774Y-99542827D01*
X196007173Y-98697226D01*
X195995444Y-98689389D01*
X195900627Y-98626035D01*
X195894579Y-98623530D01*
X195782244Y-98576999D01*
X195782238Y-98576997D01*
X195656571Y-98552000D01*
X195656569Y-98552000D01*
X194892928Y-98552000D01*
X194825889Y-98532315D01*
X194787389Y-98493097D01*
X194765621Y-98457805D01*
X194727712Y-98396344D01*
X194603656Y-98272288D01*
X194456474Y-98181506D01*
X194454336Y-98180187D01*
X194454331Y-98180185D01*
X194418410Y-98168282D01*
X194287797Y-98125001D01*
X194287795Y-98125000D01*
X194185010Y-98114500D01*
X193134998Y-98114500D01*
X193134980Y-98114501D01*
X193032203Y-98125000D01*
X193032200Y-98125001D01*
X192865668Y-98180185D01*
X192865663Y-98180187D01*
X192716342Y-98272289D01*
X192707681Y-98280951D01*
X192646358Y-98314436D01*
X192576666Y-98309452D01*
X192532319Y-98280951D01*
X192508655Y-98257287D01*
X192463965Y-98229722D01*
X192417241Y-98177774D01*
X192406020Y-98108811D01*
X192411129Y-98085874D01*
X192436497Y-98007803D01*
X192453972Y-97841537D01*
X192480557Y-97776924D01*
X192537854Y-97736939D01*
X192577293Y-97730500D01*
X198389192Y-97730500D01*
X198456231Y-97750185D01*
G37*
%TD.AperFunction*%
%TA.AperFunction,Conductor*%
G36*
X166527986Y-110206402D02*
G01*
X166559143Y-110229089D01*
X167305325Y-110975272D01*
X167305326Y-110975273D01*
X167305329Y-110975275D01*
X167305331Y-110975277D01*
X167408287Y-111044069D01*
X167411873Y-111046465D01*
X167530256Y-111095501D01*
X167530260Y-111095501D01*
X167530261Y-111095502D01*
X167655928Y-111120500D01*
X167655931Y-111120500D01*
X168295931Y-111120500D01*
X168799192Y-111120500D01*
X168866231Y-111140185D01*
X168886873Y-111156819D01*
X169223010Y-111492956D01*
X169256495Y-111554279D01*
X169251511Y-111623971D01*
X169209639Y-111679904D01*
X169144175Y-111704321D01*
X169084438Y-111693713D01*
X168989175Y-111650839D01*
X168989164Y-111650835D01*
X168677341Y-111553667D01*
X168356038Y-111494786D01*
X168030000Y-111475065D01*
X167703961Y-111494786D01*
X167382658Y-111553667D01*
X167070835Y-111650835D01*
X167070824Y-111650839D01*
X166849891Y-111750272D01*
X166780678Y-111759835D01*
X166717283Y-111730461D01*
X166679833Y-111671476D01*
X166675000Y-111637196D01*
X166675000Y-111615000D01*
X165700000Y-111615000D01*
X165700000Y-112452499D01*
X165700232Y-112452731D01*
X165766480Y-112472184D01*
X165812235Y-112524988D01*
X165822179Y-112594146D01*
X165805558Y-112640649D01*
X165634898Y-112922956D01*
X165634897Y-112922958D01*
X165500839Y-113220824D01*
X165500835Y-113220835D01*
X165403667Y-113532658D01*
X165344786Y-113853961D01*
X165325065Y-114180000D01*
X165344786Y-114506038D01*
X165403667Y-114827341D01*
X165500835Y-115139164D01*
X165500839Y-115139175D01*
X165634897Y-115437041D01*
X165634898Y-115437043D01*
X165803887Y-115716586D01*
X166005329Y-115973707D01*
X166010130Y-115978508D01*
X166043615Y-116039831D01*
X166038631Y-116109523D01*
X165996759Y-116165456D01*
X165931295Y-116189873D01*
X165909495Y-116189510D01*
X165909400Y-116189500D01*
X165909391Y-116189500D01*
X165730609Y-116189500D01*
X165699954Y-116196015D01*
X165555733Y-116226670D01*
X165555728Y-116226672D01*
X165392408Y-116299387D01*
X165247768Y-116404475D01*
X165128140Y-116537336D01*
X165038750Y-116692164D01*
X165038747Y-116692171D01*
X164992411Y-116834780D01*
X164952973Y-116892456D01*
X164888615Y-116919654D01*
X164819768Y-116907739D01*
X164768293Y-116860495D01*
X164750640Y-116802768D01*
X164750498Y-116799980D01*
X164739999Y-116697203D01*
X164739998Y-116697200D01*
X164729154Y-116664474D01*
X164684814Y-116530666D01*
X164592712Y-116381344D01*
X164468656Y-116257288D01*
X164359402Y-116189900D01*
X164312679Y-116137953D01*
X164300500Y-116084362D01*
X164300500Y-116035928D01*
X164275502Y-115910261D01*
X164275501Y-115910260D01*
X164275501Y-115910256D01*
X164226840Y-115792778D01*
X164226466Y-115791875D01*
X164226461Y-115791866D01*
X164155277Y-115685332D01*
X164127774Y-115657829D01*
X164064669Y-115594724D01*
X162867748Y-114397803D01*
X161666819Y-113196873D01*
X161633334Y-113135550D01*
X161630500Y-113109192D01*
X161630500Y-111752486D01*
X162065001Y-111752486D01*
X162075494Y-111855197D01*
X162130641Y-112021619D01*
X162130643Y-112021624D01*
X162222684Y-112170845D01*
X162346654Y-112294815D01*
X162495875Y-112386856D01*
X162495880Y-112386858D01*
X162662302Y-112442005D01*
X162662309Y-112442006D01*
X162765019Y-112452499D01*
X163039999Y-112452499D01*
X163540000Y-112452499D01*
X163814972Y-112452499D01*
X163814986Y-112452498D01*
X163917697Y-112442005D01*
X164084119Y-112386858D01*
X164084124Y-112386856D01*
X164233345Y-112294815D01*
X164282319Y-112245842D01*
X164343642Y-112212357D01*
X164413334Y-112217341D01*
X164457681Y-112245842D01*
X164506654Y-112294815D01*
X164655875Y-112386856D01*
X164655880Y-112386858D01*
X164822302Y-112442005D01*
X164822309Y-112442006D01*
X164925019Y-112452499D01*
X165199999Y-112452499D01*
X165200000Y-112452498D01*
X165200000Y-111615000D01*
X163540000Y-111615000D01*
X163540000Y-112452499D01*
X163039999Y-112452499D01*
X163040000Y-112452498D01*
X163040000Y-111615000D01*
X162065001Y-111615000D01*
X162065001Y-111752486D01*
X161630500Y-111752486D01*
X161630500Y-111255719D01*
X161650185Y-111188680D01*
X161666815Y-111168042D01*
X161853320Y-110981537D01*
X161914642Y-110948053D01*
X161984334Y-110953037D01*
X162040267Y-110994909D01*
X162064684Y-111060373D01*
X162065000Y-111069219D01*
X162065000Y-111115000D01*
X166674999Y-111115000D01*
X166674999Y-110977528D01*
X166674998Y-110977513D01*
X166664505Y-110874802D01*
X166609358Y-110708380D01*
X166609356Y-110708375D01*
X166517315Y-110559154D01*
X166393344Y-110435183D01*
X166393341Y-110435181D01*
X166390339Y-110433329D01*
X166388713Y-110431521D01*
X166387677Y-110430702D01*
X166387817Y-110430524D01*
X166343617Y-110381380D01*
X166332397Y-110312417D01*
X166360243Y-110248336D01*
X166390344Y-110222254D01*
X166393656Y-110220212D01*
X166393660Y-110220207D01*
X166393663Y-110220206D01*
X166394549Y-110219506D01*
X166395271Y-110219214D01*
X166399811Y-110216415D01*
X166400289Y-110217190D01*
X166459344Y-110193364D01*
X166527986Y-110206402D01*
G37*
%TD.AperFunction*%
%TA.AperFunction,Conductor*%
G36*
X172720539Y-105299685D02*
G01*
X172766294Y-105352489D01*
X172777500Y-105404000D01*
X172777500Y-107450000D01*
X173614999Y-107450000D01*
X173620946Y-107444052D01*
X173634684Y-107397268D01*
X173687488Y-107351513D01*
X173756646Y-107341569D01*
X173820202Y-107370594D01*
X173826680Y-107376626D01*
X175295324Y-108845271D01*
X175295327Y-108845274D01*
X175295330Y-108845276D01*
X175373943Y-108897803D01*
X175401873Y-108916465D01*
X175405504Y-108917969D01*
X175412673Y-108920939D01*
X175467077Y-108964779D01*
X175489142Y-109031073D01*
X175471863Y-109098773D01*
X175420726Y-109146384D01*
X175365221Y-109159500D01*
X174581899Y-109159500D01*
X174531464Y-109148780D01*
X174504267Y-109136671D01*
X174504265Y-109136670D01*
X174355379Y-109105024D01*
X174329391Y-109099500D01*
X174150609Y-109099500D01*
X174124625Y-109105023D01*
X173975733Y-109136670D01*
X173975728Y-109136672D01*
X173812408Y-109209387D01*
X173667768Y-109314475D01*
X173548140Y-109447336D01*
X173458750Y-109602164D01*
X173458747Y-109602170D01*
X173403504Y-109772192D01*
X173403503Y-109772194D01*
X173384815Y-109950000D01*
X173403503Y-110127805D01*
X173403504Y-110127807D01*
X173458747Y-110297829D01*
X173458750Y-110297835D01*
X173548141Y-110452665D01*
X173589812Y-110498946D01*
X173667764Y-110585521D01*
X173667767Y-110585523D01*
X173667770Y-110585526D01*
X173812407Y-110690612D01*
X173975733Y-110763329D01*
X174150609Y-110800500D01*
X174150610Y-110800500D01*
X174329389Y-110800500D01*
X174329391Y-110800500D01*
X174504267Y-110763329D01*
X174667593Y-110690612D01*
X174812230Y-110585526D01*
X174887862Y-110501527D01*
X174947349Y-110464879D01*
X174980012Y-110460500D01*
X176070815Y-110460500D01*
X176137854Y-110480185D01*
X176183609Y-110532989D01*
X176192468Y-110573712D01*
X176194136Y-110573537D01*
X176194815Y-110579998D01*
X176194815Y-110580000D01*
X176212175Y-110745167D01*
X176213724Y-110759903D01*
X176201155Y-110828633D01*
X176178085Y-110860545D01*
X176107291Y-110931340D01*
X176107289Y-110931342D01*
X176107288Y-110931344D01*
X176105381Y-110934436D01*
X176015187Y-111080663D01*
X176015185Y-111080668D01*
X175993778Y-111145272D01*
X175960001Y-111247203D01*
X175960001Y-111247204D01*
X175960000Y-111247204D01*
X175949500Y-111349983D01*
X175949500Y-112350001D01*
X175949501Y-112350019D01*
X175960000Y-112452796D01*
X175960001Y-112452799D01*
X176015185Y-112619331D01*
X176015187Y-112619336D01*
X176107289Y-112768657D01*
X176130951Y-112792319D01*
X176164436Y-112853642D01*
X176159452Y-112923334D01*
X176130951Y-112967681D01*
X176107289Y-112991342D01*
X176107288Y-112991344D01*
X176076900Y-113040612D01*
X176071654Y-113049117D01*
X176019706Y-113095841D01*
X175950743Y-113107064D01*
X175920465Y-113098633D01*
X175920450Y-113098680D01*
X175919348Y-113098322D01*
X175915685Y-113097302D01*
X175914270Y-113096672D01*
X175914265Y-113096670D01*
X175786594Y-113069533D01*
X175739391Y-113059500D01*
X175560609Y-113059500D01*
X175529954Y-113066015D01*
X175385733Y-113096670D01*
X175385728Y-113096672D01*
X175222408Y-113169387D01*
X175077768Y-113274475D01*
X174958140Y-113407336D01*
X174868750Y-113562164D01*
X174868747Y-113562170D01*
X174813504Y-113732192D01*
X174813503Y-113732194D01*
X174794815Y-113910000D01*
X174813503Y-114087805D01*
X174813504Y-114087807D01*
X174868747Y-114257829D01*
X174868750Y-114257835D01*
X174958141Y-114412665D01*
X174997476Y-114456351D01*
X175077764Y-114545521D01*
X175077767Y-114545523D01*
X175077770Y-114545526D01*
X175222407Y-114650612D01*
X175385733Y-114723329D01*
X175560609Y-114760500D01*
X175560610Y-114760500D01*
X175739389Y-114760500D01*
X175739391Y-114760500D01*
X175914267Y-114723329D01*
X175915669Y-114722704D01*
X175916554Y-114722585D01*
X175920451Y-114721320D01*
X175920682Y-114722032D01*
X175984916Y-114713413D01*
X176048195Y-114743034D01*
X176071652Y-114770880D01*
X176107288Y-114828656D01*
X176231344Y-114952712D01*
X176380666Y-115044814D01*
X176547203Y-115099999D01*
X176649991Y-115110500D01*
X177450008Y-115110499D01*
X177450016Y-115110498D01*
X177450019Y-115110498D01*
X177506302Y-115104748D01*
X177552797Y-115099999D01*
X177719334Y-115044814D01*
X177868656Y-114952712D01*
X177962319Y-114859049D01*
X178023642Y-114825564D01*
X178093334Y-114830548D01*
X178137681Y-114859049D01*
X178231344Y-114952712D01*
X178380666Y-115044814D01*
X178547203Y-115099999D01*
X178649991Y-115110500D01*
X179450008Y-115110499D01*
X179450016Y-115110498D01*
X179450019Y-115110498D01*
X179506302Y-115104748D01*
X179552797Y-115099999D01*
X179719334Y-115044814D01*
X179868656Y-114952712D01*
X179992712Y-114828656D01*
X180049961Y-114735839D01*
X180101909Y-114689115D01*
X180170871Y-114677892D01*
X180234954Y-114705736D01*
X180273810Y-114763804D01*
X180279500Y-114800936D01*
X180279500Y-115089192D01*
X180259815Y-115156231D01*
X180243181Y-115176873D01*
X180016873Y-115403181D01*
X179955550Y-115436666D01*
X179929192Y-115439500D01*
X170965929Y-115439500D01*
X170840261Y-115464497D01*
X170840255Y-115464499D01*
X170721874Y-115513534D01*
X170721873Y-115513535D01*
X170615331Y-115584723D01*
X170615328Y-115584725D01*
X170610266Y-115588108D01*
X170609271Y-115586619D01*
X170552714Y-115610620D01*
X170483850Y-115598809D01*
X170432304Y-115551642D01*
X170414440Y-115484094D01*
X170425319Y-115436559D01*
X170559160Y-115139175D01*
X170559164Y-115139164D01*
X170656332Y-114827341D01*
X170715213Y-114506038D01*
X170734934Y-114180000D01*
X170715213Y-113853961D01*
X170656332Y-113532658D01*
X170559164Y-113220835D01*
X170559160Y-113220824D01*
X170516286Y-113125561D01*
X170506723Y-113056349D01*
X170536097Y-112992954D01*
X170595081Y-112955503D01*
X170664950Y-112955887D01*
X170717043Y-112986989D01*
X171991371Y-114261317D01*
X172024856Y-114322640D01*
X172027010Y-114336031D01*
X172033503Y-114397803D01*
X172033504Y-114397805D01*
X172033504Y-114397807D01*
X172088747Y-114567829D01*
X172088750Y-114567835D01*
X172178141Y-114722665D01*
X172208629Y-114756525D01*
X172297764Y-114855521D01*
X172297767Y-114855523D01*
X172297770Y-114855526D01*
X172442407Y-114960612D01*
X172605733Y-115033329D01*
X172780609Y-115070500D01*
X172780610Y-115070500D01*
X172959389Y-115070500D01*
X172959391Y-115070500D01*
X173134267Y-115033329D01*
X173297593Y-114960612D01*
X173442230Y-114855526D01*
X173561859Y-114722665D01*
X173651250Y-114567835D01*
X173706497Y-114397803D01*
X173725185Y-114220000D01*
X173706497Y-114042197D01*
X173665275Y-113915329D01*
X173651252Y-113872170D01*
X173651249Y-113872164D01*
X173649491Y-113869119D01*
X173561859Y-113717335D01*
X173503163Y-113652147D01*
X173442235Y-113584478D01*
X173442232Y-113584476D01*
X173442231Y-113584475D01*
X173442230Y-113584474D01*
X173297593Y-113479388D01*
X173134267Y-113406671D01*
X173134265Y-113406670D01*
X172997423Y-113377584D01*
X172969989Y-113371752D01*
X172908508Y-113338561D01*
X172908090Y-113338144D01*
X170537627Y-110967681D01*
X170504142Y-110906358D01*
X170509126Y-110836666D01*
X170537627Y-110792319D01*
X170957771Y-110372175D01*
X170957776Y-110372170D01*
X171005027Y-110301453D01*
X171028964Y-110265629D01*
X171040260Y-110238358D01*
X171078001Y-110147244D01*
X171084890Y-110112611D01*
X171086042Y-110106821D01*
X171086042Y-110106818D01*
X171103000Y-110021569D01*
X171103000Y-109197002D01*
X171122685Y-109129963D01*
X171175489Y-109084208D01*
X171183649Y-109080827D01*
X171237257Y-109060832D01*
X171298580Y-109027347D01*
X171413761Y-108941123D01*
X171551123Y-108803761D01*
X171563781Y-108789668D01*
X171623224Y-108752949D01*
X171693083Y-108754195D01*
X171721128Y-108766991D01*
X171870875Y-108859356D01*
X171870880Y-108859358D01*
X172037302Y-108914505D01*
X172037309Y-108914506D01*
X172140019Y-108924999D01*
X172277499Y-108924999D01*
X172777500Y-108924999D01*
X172914972Y-108924999D01*
X172914986Y-108924998D01*
X173017697Y-108914505D01*
X173184119Y-108859358D01*
X173184124Y-108859356D01*
X173333345Y-108767315D01*
X173457315Y-108643345D01*
X173549356Y-108494124D01*
X173549358Y-108494119D01*
X173604505Y-108327697D01*
X173604506Y-108327690D01*
X173614999Y-108224986D01*
X173615000Y-108224973D01*
X173615000Y-107950000D01*
X172777500Y-107950000D01*
X172777500Y-108924999D01*
X172277499Y-108924999D01*
X172277500Y-108924998D01*
X172277500Y-105404000D01*
X172297185Y-105336961D01*
X172349989Y-105291206D01*
X172401500Y-105280000D01*
X172653500Y-105280000D01*
X172720539Y-105299685D01*
G37*
%TD.AperFunction*%
%TA.AperFunction,Conductor*%
G36*
X186107591Y-109538282D02*
G01*
X186144804Y-109597417D01*
X186149500Y-109631218D01*
X186149500Y-111044069D01*
X186168482Y-111139495D01*
X186168482Y-111139496D01*
X186174497Y-111169737D01*
X186174498Y-111169740D01*
X186174499Y-111169744D01*
X186186223Y-111198048D01*
X186193692Y-111267516D01*
X186162418Y-111329995D01*
X186102329Y-111365648D01*
X186071662Y-111369500D01*
X184237868Y-111369500D01*
X184170829Y-111349815D01*
X184125074Y-111297011D01*
X184115130Y-111227853D01*
X184144155Y-111164297D01*
X184160542Y-111149841D01*
X184159965Y-111149137D01*
X184164663Y-111145280D01*
X184164669Y-111145277D01*
X185703092Y-109606853D01*
X185764413Y-109573370D01*
X185764477Y-109573356D01*
X185929267Y-109538329D01*
X185975067Y-109517937D01*
X186044314Y-109508654D01*
X186107591Y-109538282D01*
G37*
%TD.AperFunction*%
%TA.AperFunction,Conductor*%
G36*
X166186166Y-104026348D02*
G01*
X166230513Y-104054849D01*
X166576181Y-104400517D01*
X166609666Y-104461840D01*
X166611820Y-104475231D01*
X166618313Y-104537003D01*
X166618314Y-104537005D01*
X166618314Y-104537007D01*
X166673557Y-104707029D01*
X166673560Y-104707035D01*
X166762951Y-104861865D01*
X166771037Y-104870845D01*
X166882574Y-104994721D01*
X166882577Y-104994723D01*
X166882580Y-104994726D01*
X167027217Y-105099812D01*
X167190543Y-105172529D01*
X167365419Y-105209700D01*
X167365420Y-105209700D01*
X167544199Y-105209700D01*
X167544201Y-105209700D01*
X167719077Y-105172529D01*
X167882403Y-105099812D01*
X168027040Y-104994726D01*
X168146669Y-104861865D01*
X168236060Y-104707035D01*
X168236060Y-104707033D01*
X168239309Y-104701407D01*
X168240608Y-104702156D01*
X168280862Y-104654791D01*
X168347709Y-104634464D01*
X168414935Y-104653504D01*
X168421266Y-104657765D01*
X168426806Y-104661747D01*
X168430243Y-104664173D01*
X168437256Y-104669035D01*
X168437321Y-104669080D01*
X168796534Y-104913649D01*
X169100286Y-105120459D01*
X169144622Y-105174458D01*
X169154500Y-105222956D01*
X169154500Y-108368640D01*
X169157397Y-108422688D01*
X169157397Y-108422689D01*
X169160229Y-108449022D01*
X169160232Y-108449049D01*
X169168885Y-108502445D01*
X169168885Y-108502447D01*
X169184083Y-108543192D01*
X169219168Y-108637257D01*
X169252653Y-108698580D01*
X169338877Y-108813761D01*
X169466239Y-108941123D01*
X169466255Y-108941137D01*
X169466262Y-108941144D01*
X169506480Y-108977271D01*
X169506492Y-108977281D01*
X169506500Y-108977288D01*
X169527142Y-108993922D01*
X169571026Y-109025567D01*
X169701903Y-109085338D01*
X169712935Y-109088577D01*
X169771712Y-109126350D01*
X169800738Y-109189905D01*
X169802000Y-109207554D01*
X169802000Y-109636692D01*
X169782315Y-109703731D01*
X169765681Y-109724373D01*
X169706873Y-109783181D01*
X169645550Y-109816666D01*
X169619192Y-109819500D01*
X168040808Y-109819500D01*
X167973769Y-109799815D01*
X167953127Y-109783181D01*
X166954674Y-108784727D01*
X166954673Y-108784726D01*
X166933550Y-108770612D01*
X166848127Y-108713535D01*
X166815898Y-108700185D01*
X166729742Y-108664498D01*
X166729740Y-108664497D01*
X166668055Y-108652227D01*
X166606144Y-108619841D01*
X166586709Y-108595707D01*
X166554323Y-108543201D01*
X166517712Y-108483844D01*
X166393656Y-108359788D01*
X166300888Y-108302569D01*
X166244336Y-108267687D01*
X166244331Y-108267685D01*
X166242862Y-108267198D01*
X166077797Y-108212501D01*
X166077795Y-108212500D01*
X166007436Y-108205312D01*
X165942745Y-108178915D01*
X165902594Y-108121734D01*
X165899732Y-108051923D01*
X165902101Y-108043659D01*
X165936497Y-107937803D01*
X165955185Y-107760000D01*
X165936497Y-107582197D01*
X165900042Y-107470001D01*
X165881252Y-107412170D01*
X165881249Y-107412164D01*
X165876921Y-107404667D01*
X165791859Y-107257335D01*
X165745003Y-107205296D01*
X165672235Y-107124478D01*
X165672232Y-107124476D01*
X165672231Y-107124475D01*
X165672230Y-107124474D01*
X165527593Y-107019388D01*
X165364267Y-106946671D01*
X165364265Y-106946670D01*
X165229978Y-106918127D01*
X165189391Y-106909500D01*
X165010609Y-106909500D01*
X165010605Y-106909500D01*
X165004143Y-106910179D01*
X165004023Y-106909042D01*
X164970214Y-106909261D01*
X164970132Y-106910097D01*
X164964070Y-106909500D01*
X164964069Y-106909500D01*
X163287975Y-106909500D01*
X163287973Y-106909500D01*
X163162305Y-106934497D01*
X163162299Y-106934499D01*
X163043918Y-106983534D01*
X162937370Y-107054726D01*
X162937369Y-107054727D01*
X162621681Y-107370416D01*
X162560358Y-107403901D01*
X162490666Y-107398917D01*
X162434733Y-107357045D01*
X162410316Y-107291581D01*
X162410000Y-107282735D01*
X162410000Y-106954659D01*
X162429685Y-106887620D01*
X162482489Y-106841865D01*
X162483372Y-106841466D01*
X162597593Y-106790612D01*
X162742230Y-106685526D01*
X162760227Y-106665539D01*
X162768148Y-106656741D01*
X162861859Y-106552665D01*
X162951250Y-106397835D01*
X163006497Y-106227803D01*
X163025185Y-106050000D01*
X163006497Y-105872197D01*
X162951250Y-105702165D01*
X162861859Y-105547335D01*
X162815003Y-105495296D01*
X162742235Y-105414478D01*
X162742232Y-105414476D01*
X162742231Y-105414475D01*
X162742230Y-105414474D01*
X162625482Y-105329651D01*
X162582819Y-105274323D01*
X162576840Y-105204709D01*
X162609446Y-105142914D01*
X162659366Y-105111629D01*
X162734119Y-105086858D01*
X162734124Y-105086856D01*
X162883345Y-104994815D01*
X163007315Y-104870845D01*
X163099356Y-104721624D01*
X163099358Y-104721619D01*
X163118294Y-104664475D01*
X163158066Y-104607030D01*
X163222582Y-104580207D01*
X163291358Y-104592522D01*
X163342558Y-104640065D01*
X163360000Y-104703479D01*
X163360000Y-105197844D01*
X163366401Y-105257372D01*
X163366403Y-105257379D01*
X163416645Y-105392086D01*
X163416649Y-105392093D01*
X163502809Y-105507187D01*
X163502812Y-105507190D01*
X163617906Y-105593350D01*
X163617913Y-105593354D01*
X163752620Y-105643596D01*
X163752627Y-105643598D01*
X163812155Y-105649999D01*
X163812172Y-105650000D01*
X164460000Y-105650000D01*
X164460000Y-104733012D01*
X164517007Y-104765925D01*
X164644174Y-104800000D01*
X164775826Y-104800000D01*
X164902993Y-104765925D01*
X164960000Y-104733012D01*
X164960000Y-105650000D01*
X165607828Y-105650000D01*
X165607844Y-105649999D01*
X165667372Y-105643598D01*
X165667379Y-105643596D01*
X165802086Y-105593354D01*
X165802093Y-105593350D01*
X165917187Y-105507190D01*
X165917190Y-105507187D01*
X166003350Y-105392093D01*
X166003354Y-105392086D01*
X166053596Y-105257379D01*
X166053598Y-105257372D01*
X166059999Y-105197844D01*
X166060000Y-105197827D01*
X166060000Y-104550000D01*
X165143012Y-104550000D01*
X165175925Y-104492993D01*
X165210000Y-104365826D01*
X165210000Y-104234174D01*
X165175925Y-104107007D01*
X165143012Y-104050000D01*
X166064031Y-104050000D01*
X166116474Y-104021364D01*
X166186166Y-104026348D01*
G37*
%TD.AperFunction*%
%TA.AperFunction,Conductor*%
G36*
X179278829Y-104140185D02*
G01*
X179324584Y-104192989D01*
X179334528Y-104262147D01*
X179305503Y-104325703D01*
X179259242Y-104359061D01*
X179221220Y-104374810D01*
X179151881Y-104403530D01*
X179151863Y-104403540D01*
X179045332Y-104474721D01*
X179045325Y-104474727D01*
X178464725Y-105055328D01*
X178464724Y-105055329D01*
X178464723Y-105055331D01*
X178435003Y-105099812D01*
X178424671Y-105115275D01*
X178424670Y-105115276D01*
X178393538Y-105161867D01*
X178393533Y-105161875D01*
X178344499Y-105280255D01*
X178344497Y-105280261D01*
X178319500Y-105405928D01*
X178319500Y-106604070D01*
X178340571Y-106709995D01*
X178340571Y-106709997D01*
X178344497Y-106729736D01*
X178344501Y-106729749D01*
X178393532Y-106848123D01*
X178401459Y-106859986D01*
X178464716Y-106954659D01*
X178464726Y-106954673D01*
X179035325Y-107525272D01*
X179035332Y-107525278D01*
X179141863Y-107596459D01*
X179141867Y-107596461D01*
X179141874Y-107596466D01*
X179187419Y-107615331D01*
X179187420Y-107615331D01*
X179187421Y-107615332D01*
X179260251Y-107645499D01*
X179260256Y-107645501D01*
X179260260Y-107645501D01*
X179260261Y-107645502D01*
X179385928Y-107670500D01*
X179385931Y-107670500D01*
X179385932Y-107670500D01*
X179514069Y-107670500D01*
X180820193Y-107670500D01*
X180887232Y-107690185D01*
X180932987Y-107742989D01*
X180942931Y-107812147D01*
X180913906Y-107875703D01*
X180907875Y-107882178D01*
X180260663Y-108529391D01*
X179666873Y-109123181D01*
X179605550Y-109156666D01*
X179579192Y-109159500D01*
X179482141Y-109159500D01*
X179415102Y-109139815D01*
X179369347Y-109087011D01*
X179359403Y-109017853D01*
X179364210Y-108997182D01*
X179374826Y-108964506D01*
X179396500Y-108897803D01*
X179415188Y-108720000D01*
X179396500Y-108542197D01*
X179366230Y-108449036D01*
X179341255Y-108372170D01*
X179341252Y-108372164D01*
X179251862Y-108217335D01*
X179194049Y-108153127D01*
X179132238Y-108084478D01*
X179132229Y-108084471D01*
X179038412Y-108016307D01*
X179023617Y-108003671D01*
X177984674Y-106964727D01*
X177984673Y-106964726D01*
X177981636Y-106962697D01*
X177878127Y-106893535D01*
X177878128Y-106893535D01*
X177878123Y-106893532D01*
X177759749Y-106844501D01*
X177759748Y-106844500D01*
X177759744Y-106844499D01*
X177759737Y-106844497D01*
X177759735Y-106844497D01*
X177757573Y-106844067D01*
X177634071Y-106819500D01*
X177634069Y-106819500D01*
X176843819Y-106819500D01*
X176776780Y-106799815D01*
X176731025Y-106747011D01*
X176721081Y-106677853D01*
X176736432Y-106633500D01*
X176751250Y-106607835D01*
X176806497Y-106437803D01*
X176812988Y-106376036D01*
X176839571Y-106311423D01*
X176848619Y-106301325D01*
X178993127Y-104156819D01*
X179054450Y-104123334D01*
X179080808Y-104120500D01*
X179211790Y-104120500D01*
X179278829Y-104140185D01*
G37*
%TD.AperFunction*%
%TA.AperFunction,Conductor*%
G36*
X160421039Y-102707496D02*
G01*
X160431087Y-102711658D01*
X160431091Y-102711658D01*
X160431092Y-102711659D01*
X160576079Y-102740500D01*
X160576082Y-102740500D01*
X160576083Y-102740500D01*
X160723917Y-102740500D01*
X160768752Y-102740500D01*
X160835791Y-102760185D01*
X160866531Y-102791497D01*
X160867807Y-102790489D01*
X160872288Y-102796156D01*
X160996344Y-102920212D01*
X160999628Y-102922237D01*
X160999653Y-102922253D01*
X161001445Y-102924246D01*
X161002011Y-102924693D01*
X161001934Y-102924789D01*
X161046379Y-102974199D01*
X161057603Y-103043161D01*
X161029761Y-103107244D01*
X160999665Y-103133326D01*
X160996660Y-103135179D01*
X160996655Y-103135183D01*
X160872684Y-103259154D01*
X160780643Y-103408375D01*
X160780641Y-103408380D01*
X160725494Y-103574802D01*
X160725493Y-103574809D01*
X160715000Y-103677513D01*
X160715000Y-103815000D01*
X162066000Y-103815000D01*
X162133039Y-103834685D01*
X162178794Y-103887489D01*
X162190000Y-103939000D01*
X162190000Y-104191000D01*
X162170315Y-104258039D01*
X162117511Y-104303794D01*
X162066000Y-104315000D01*
X160715001Y-104315000D01*
X160715001Y-104452486D01*
X160725494Y-104555197D01*
X160780641Y-104721619D01*
X160780645Y-104721628D01*
X160868674Y-104864346D01*
X160887114Y-104931738D01*
X160866191Y-104998402D01*
X160812549Y-105043171D01*
X160806468Y-105045624D01*
X160697671Y-105086202D01*
X160697664Y-105086206D01*
X160582455Y-105172452D01*
X160582452Y-105172455D01*
X160496206Y-105287664D01*
X160496202Y-105287671D01*
X160445908Y-105422517D01*
X160439501Y-105482116D01*
X160439500Y-105482135D01*
X160439500Y-105559477D01*
X160419815Y-105626516D01*
X160367011Y-105672271D01*
X160297853Y-105682215D01*
X160234297Y-105653190D01*
X160227819Y-105647158D01*
X160123345Y-105542684D01*
X159974124Y-105450643D01*
X159974119Y-105450641D01*
X159807697Y-105395494D01*
X159807690Y-105395493D01*
X159704986Y-105385000D01*
X159482448Y-105385000D01*
X159415409Y-105365315D01*
X159369654Y-105312511D01*
X159359710Y-105243353D01*
X159388735Y-105179797D01*
X159444128Y-105143070D01*
X159474379Y-105133241D01*
X159698845Y-105018870D01*
X159902656Y-104870793D01*
X160080793Y-104692656D01*
X160228870Y-104488845D01*
X160343241Y-104264379D01*
X160421090Y-104024785D01*
X160460500Y-103775962D01*
X160460500Y-103524038D01*
X160421090Y-103275215D01*
X160343241Y-103035621D01*
X160343239Y-103035618D01*
X160343239Y-103035616D01*
X160263110Y-102878355D01*
X160250214Y-102809686D01*
X160276490Y-102744945D01*
X160333597Y-102704688D01*
X160403402Y-102701696D01*
X160421039Y-102707496D01*
G37*
%TD.AperFunction*%
%TA.AperFunction,Conductor*%
G36*
X184033741Y-96998718D02*
G01*
X184089675Y-97040589D01*
X184104969Y-97067448D01*
X184113532Y-97088123D01*
X184184726Y-97194673D01*
X184184727Y-97194674D01*
X184583181Y-97593127D01*
X184616666Y-97654450D01*
X184619500Y-97680808D01*
X184619500Y-100003802D01*
X184599815Y-100070841D01*
X184587651Y-100086773D01*
X184578140Y-100097336D01*
X184488750Y-100252164D01*
X184488747Y-100252171D01*
X184456636Y-100351000D01*
X184417198Y-100408676D01*
X184352840Y-100435874D01*
X184283993Y-100423959D01*
X184251024Y-100400363D01*
X184193345Y-100342684D01*
X184044124Y-100250643D01*
X184044119Y-100250641D01*
X183877697Y-100195494D01*
X183877690Y-100195493D01*
X183774986Y-100185000D01*
X183637500Y-100185000D01*
X183637500Y-101160000D01*
X184484106Y-101160000D01*
X184525362Y-101137472D01*
X184595053Y-101142455D01*
X184643871Y-101175666D01*
X184651235Y-101183844D01*
X184697765Y-101235522D01*
X184697767Y-101235523D01*
X184697770Y-101235526D01*
X184842407Y-101340612D01*
X185005733Y-101413329D01*
X185180609Y-101450500D01*
X185180610Y-101450500D01*
X185359389Y-101450500D01*
X185359391Y-101450500D01*
X185534267Y-101413329D01*
X185697593Y-101340612D01*
X185728995Y-101317796D01*
X185794798Y-101294315D01*
X185862853Y-101310139D01*
X185874764Y-101317793D01*
X185892407Y-101330612D01*
X186055733Y-101403329D01*
X186230609Y-101440500D01*
X186230610Y-101440500D01*
X186409389Y-101440500D01*
X186409391Y-101440500D01*
X186584267Y-101403329D01*
X186685261Y-101358363D01*
X186754509Y-101349079D01*
X186786130Y-101358363D01*
X186791897Y-101360930D01*
X186791899Y-101360932D01*
X186955225Y-101433649D01*
X187130101Y-101470820D01*
X187130102Y-101470820D01*
X187308881Y-101470820D01*
X187308883Y-101470820D01*
X187483759Y-101433649D01*
X187647085Y-101360932D01*
X187652612Y-101356916D01*
X187718415Y-101333435D01*
X187786470Y-101349257D01*
X187835167Y-101399360D01*
X187849500Y-101457232D01*
X187849500Y-104289192D01*
X187829815Y-104356231D01*
X187813181Y-104376873D01*
X186826873Y-105363181D01*
X186765550Y-105396666D01*
X186739192Y-105399500D01*
X183589808Y-105399500D01*
X183522769Y-105379815D01*
X183477014Y-105327011D01*
X183467070Y-105257853D01*
X183496095Y-105194297D01*
X183502127Y-105187819D01*
X183855272Y-104834674D01*
X183855277Y-104834669D01*
X183926466Y-104728126D01*
X183949185Y-104673275D01*
X183993025Y-104618873D01*
X184013212Y-104608787D01*
X184012784Y-104607869D01*
X184019328Y-104604817D01*
X184019331Y-104604814D01*
X184019334Y-104604814D01*
X184168656Y-104512712D01*
X184292712Y-104388656D01*
X184384814Y-104239334D01*
X184432653Y-104094965D01*
X184472425Y-104037522D01*
X184481465Y-104030870D01*
X184488235Y-104026348D01*
X184489850Y-104025269D01*
X184507888Y-104013215D01*
X184561099Y-103977662D01*
X184604203Y-103959477D01*
X184737406Y-103931163D01*
X184774263Y-103923330D01*
X184774263Y-103923329D01*
X184774267Y-103923329D01*
X184937593Y-103850612D01*
X185082230Y-103745526D01*
X185201859Y-103612665D01*
X185291250Y-103457835D01*
X185346497Y-103287803D01*
X185365185Y-103110000D01*
X185346497Y-102932197D01*
X185306530Y-102809192D01*
X185291252Y-102762170D01*
X185291249Y-102762164D01*
X185201859Y-102607335D01*
X185145723Y-102544990D01*
X185082235Y-102474478D01*
X185082232Y-102474476D01*
X185082231Y-102474475D01*
X185082230Y-102474474D01*
X184937593Y-102369388D01*
X184774267Y-102296671D01*
X184774265Y-102296670D01*
X184646437Y-102269500D01*
X184599391Y-102259500D01*
X184562727Y-102259500D01*
X184495688Y-102239815D01*
X184449933Y-102187011D01*
X184439989Y-102117853D01*
X184445021Y-102096496D01*
X184464505Y-102037697D01*
X184464506Y-102037690D01*
X184474999Y-101934986D01*
X184475000Y-101934973D01*
X184475000Y-101660000D01*
X183261500Y-101660000D01*
X183194461Y-101640315D01*
X183148706Y-101587511D01*
X183137500Y-101536000D01*
X183137500Y-100185000D01*
X183000027Y-100185000D01*
X183000012Y-100185001D01*
X182897291Y-100195495D01*
X182895923Y-100195788D01*
X182895059Y-100195723D01*
X182890569Y-100196182D01*
X182890487Y-100195380D01*
X182826249Y-100190564D01*
X182770460Y-100148500D01*
X182746269Y-100082952D01*
X182761356Y-100014730D01*
X182777834Y-99991559D01*
X182821859Y-99942665D01*
X182911250Y-99787835D01*
X182966497Y-99617803D01*
X182985185Y-99440000D01*
X182966497Y-99262197D01*
X182918523Y-99114548D01*
X182911252Y-99092170D01*
X182911249Y-99092164D01*
X182905479Y-99082170D01*
X182821859Y-98937335D01*
X182775003Y-98885296D01*
X182702235Y-98804478D01*
X182702232Y-98804476D01*
X182702231Y-98804475D01*
X182702230Y-98804474D01*
X182557593Y-98699388D01*
X182394267Y-98626671D01*
X182394265Y-98626670D01*
X182249002Y-98595794D01*
X182219391Y-98589500D01*
X182040609Y-98589500D01*
X182010998Y-98595794D01*
X181865733Y-98626670D01*
X181865728Y-98626672D01*
X181702408Y-98699387D01*
X181557768Y-98804475D01*
X181438140Y-98937336D01*
X181348750Y-99092164D01*
X181348747Y-99092170D01*
X181293504Y-99262192D01*
X181293503Y-99262194D01*
X181293503Y-99262197D01*
X181287134Y-99322797D01*
X181287011Y-99323963D01*
X181260425Y-99388577D01*
X181251371Y-99398681D01*
X180807225Y-99842828D01*
X180807224Y-99842829D01*
X180786916Y-99873223D01*
X180761072Y-99911903D01*
X180742633Y-99939499D01*
X180736033Y-99949375D01*
X180686999Y-100067755D01*
X180686997Y-100067761D01*
X180660811Y-100199406D01*
X180658309Y-100198908D01*
X180636293Y-100253382D01*
X180604173Y-100281947D01*
X180506342Y-100342289D01*
X180382289Y-100466342D01*
X180290187Y-100615663D01*
X180290185Y-100615668D01*
X180271741Y-100671328D01*
X180235001Y-100782203D01*
X180235001Y-100782204D01*
X180235000Y-100782204D01*
X180224500Y-100884983D01*
X180224500Y-101935001D01*
X180224501Y-101935019D01*
X180235000Y-102037796D01*
X180235001Y-102037799D01*
X180290185Y-102204331D01*
X180290187Y-102204336D01*
X180294267Y-102210950D01*
X180330380Y-102269500D01*
X180382289Y-102353657D01*
X180405951Y-102377319D01*
X180439436Y-102438642D01*
X180434452Y-102508334D01*
X180410893Y-102544990D01*
X180411766Y-102545681D01*
X180407290Y-102551341D01*
X180315187Y-102700663D01*
X180315184Y-102700671D01*
X180303972Y-102734506D01*
X180264199Y-102791950D01*
X180199683Y-102818772D01*
X180186267Y-102819500D01*
X178695929Y-102819500D01*
X178570261Y-102844497D01*
X178570255Y-102844499D01*
X178451874Y-102893534D01*
X178345326Y-102964726D01*
X178345325Y-102964727D01*
X175931909Y-105378144D01*
X175870586Y-105411629D01*
X175870009Y-105411753D01*
X175820281Y-105422323D01*
X175750614Y-105417007D01*
X175694880Y-105374870D01*
X175670775Y-105309290D01*
X175670500Y-105301033D01*
X175670500Y-101445928D01*
X175645502Y-101320261D01*
X175645501Y-101320260D01*
X175645501Y-101320256D01*
X175596465Y-101201873D01*
X175586044Y-101186277D01*
X175584418Y-101183844D01*
X175525277Y-101095331D01*
X175525271Y-101095324D01*
X175086819Y-100656872D01*
X175053334Y-100595549D01*
X175050500Y-100569191D01*
X175050500Y-99956197D01*
X175070185Y-99889158D01*
X175082352Y-99873223D01*
X175091859Y-99862665D01*
X175181250Y-99707835D01*
X175236497Y-99537803D01*
X175255185Y-99360000D01*
X175236497Y-99182197D01*
X175203996Y-99082170D01*
X175181252Y-99012170D01*
X175181249Y-99012164D01*
X175165333Y-98984596D01*
X175091859Y-98857335D01*
X175044263Y-98804474D01*
X174972235Y-98724478D01*
X174972232Y-98724476D01*
X174972231Y-98724475D01*
X174972230Y-98724474D01*
X174827593Y-98619388D01*
X174664267Y-98546671D01*
X174664265Y-98546670D01*
X174536594Y-98519533D01*
X174489391Y-98509500D01*
X174310609Y-98509500D01*
X174279954Y-98516015D01*
X174135733Y-98546670D01*
X174135728Y-98546672D01*
X173972408Y-98619388D01*
X173972403Y-98619390D01*
X173844712Y-98712164D01*
X173778906Y-98735644D01*
X173710852Y-98719819D01*
X173698941Y-98712164D01*
X173681358Y-98699389D01*
X173667593Y-98689388D01*
X173504267Y-98616671D01*
X173504265Y-98616670D01*
X173376437Y-98589500D01*
X173329391Y-98579500D01*
X173150609Y-98579500D01*
X173119954Y-98586015D01*
X172975733Y-98616670D01*
X172975728Y-98616672D01*
X172812408Y-98689387D01*
X172667768Y-98794475D01*
X172548140Y-98927336D01*
X172458750Y-99082164D01*
X172458747Y-99082170D01*
X172403504Y-99252192D01*
X172403503Y-99252194D01*
X172392172Y-99360000D01*
X172384815Y-99430000D01*
X172403503Y-99607803D01*
X172403504Y-99607806D01*
X172403504Y-99607807D01*
X172458747Y-99777829D01*
X172458750Y-99777835D01*
X172548138Y-99932661D01*
X172548139Y-99932663D01*
X172548141Y-99932665D01*
X172637651Y-100032076D01*
X172667880Y-100095065D01*
X172669500Y-100115046D01*
X172669500Y-101244070D01*
X172678155Y-101287578D01*
X172686715Y-101330612D01*
X172686810Y-101331087D01*
X172686811Y-101331093D01*
X172692121Y-101357793D01*
X172685891Y-101427384D01*
X172643026Y-101482560D01*
X172577136Y-101505802D01*
X172509139Y-101489732D01*
X172497977Y-101482558D01*
X172458974Y-101454433D01*
X172328100Y-101394663D01*
X172261055Y-101374976D01*
X172213582Y-101368150D01*
X172118638Y-101354500D01*
X172118636Y-101354500D01*
X171202000Y-101354500D01*
X171134961Y-101334815D01*
X171089206Y-101282011D01*
X171078000Y-101230500D01*
X171078000Y-98302537D01*
X171097685Y-98235498D01*
X171146902Y-98191450D01*
X171276796Y-98127030D01*
X171425222Y-98007722D01*
X171480853Y-97938514D01*
X171538196Y-97898595D01*
X171608018Y-97896015D01*
X171668151Y-97931594D01*
X171674147Y-97938514D01*
X171729777Y-98007721D01*
X171729778Y-98007722D01*
X171878204Y-98127030D01*
X171878207Y-98127032D01*
X172048802Y-98211639D01*
X172048803Y-98211639D01*
X172048807Y-98211641D01*
X172233611Y-98257600D01*
X172276377Y-98260500D01*
X173178622Y-98260499D01*
X173221389Y-98257600D01*
X173406193Y-98211641D01*
X173576796Y-98127030D01*
X173725222Y-98007722D01*
X173844530Y-97859296D01*
X173929141Y-97688693D01*
X173935775Y-97662017D01*
X173971054Y-97601711D01*
X174033339Y-97570051D01*
X174102853Y-97577090D01*
X174146136Y-97609593D01*
X174147181Y-97608549D01*
X174152288Y-97613656D01*
X174276344Y-97737712D01*
X174425666Y-97829814D01*
X174592203Y-97884999D01*
X174694991Y-97895500D01*
X175345008Y-97895499D01*
X175345016Y-97895498D01*
X175345019Y-97895498D01*
X175401302Y-97889748D01*
X175447797Y-97884999D01*
X175614334Y-97829814D01*
X175763656Y-97737712D01*
X175847319Y-97654049D01*
X175908642Y-97620564D01*
X175978334Y-97625548D01*
X176022681Y-97654049D01*
X176049504Y-97680872D01*
X176082989Y-97742195D01*
X176078005Y-97811887D01*
X176067362Y-97833649D01*
X175995189Y-97950659D01*
X175995185Y-97950668D01*
X175979833Y-97996998D01*
X175940001Y-98117203D01*
X175940001Y-98117204D01*
X175940000Y-98117204D01*
X175929500Y-98219983D01*
X175929500Y-99220001D01*
X175929501Y-99220019D01*
X175940000Y-99322796D01*
X175940001Y-99322799D01*
X175995185Y-99489331D01*
X175995187Y-99489336D01*
X176012139Y-99516820D01*
X176087288Y-99638656D01*
X176211344Y-99762712D01*
X176360666Y-99854814D01*
X176527203Y-99909999D01*
X176629991Y-99920500D01*
X177430008Y-99920499D01*
X177430016Y-99920498D01*
X177430019Y-99920498D01*
X177486302Y-99914748D01*
X177532797Y-99909999D01*
X177699334Y-99854814D01*
X177848656Y-99762712D01*
X177942319Y-99669049D01*
X178003642Y-99635564D01*
X178073334Y-99640548D01*
X178117681Y-99669049D01*
X178211344Y-99762712D01*
X178360666Y-99854814D01*
X178527203Y-99909999D01*
X178629991Y-99920500D01*
X179430008Y-99920499D01*
X179430016Y-99920498D01*
X179430019Y-99920498D01*
X179486302Y-99914748D01*
X179532797Y-99909999D01*
X179699334Y-99854814D01*
X179848656Y-99762712D01*
X179972712Y-99638656D01*
X180064814Y-99489334D01*
X180119999Y-99322797D01*
X180120753Y-99315412D01*
X180147144Y-99250722D01*
X180170238Y-99229493D01*
X180169954Y-99229147D01*
X180174663Y-99225280D01*
X180174669Y-99225277D01*
X181643127Y-97756819D01*
X181704450Y-97723334D01*
X181730808Y-97720500D01*
X183004071Y-97720500D01*
X183088615Y-97703682D01*
X183129744Y-97695501D01*
X183248127Y-97646465D01*
X183254730Y-97642052D01*
X183254733Y-97642052D01*
X183329515Y-97592084D01*
X183354669Y-97575277D01*
X183902727Y-97027219D01*
X183964050Y-96993734D01*
X184033741Y-96998718D01*
G37*
%TD.AperFunction*%
%TA.AperFunction,Conductor*%
G36*
X167756231Y-94810185D02*
G01*
X167776873Y-94826819D01*
X167998373Y-95048319D01*
X168031858Y-95109642D01*
X168026874Y-95179334D01*
X167985002Y-95235267D01*
X167919538Y-95259684D01*
X167910692Y-95260000D01*
X167676403Y-95260000D01*
X167633675Y-95262897D01*
X167448976Y-95308831D01*
X167278477Y-95393390D01*
X167278474Y-95393392D01*
X167130133Y-95512632D01*
X167130132Y-95512633D01*
X167010892Y-95660974D01*
X167010890Y-95660977D01*
X166926331Y-95831476D01*
X166880397Y-96016175D01*
X166877500Y-96058903D01*
X166877500Y-96510000D01*
X168253500Y-96510000D01*
X168320539Y-96529685D01*
X168366294Y-96582489D01*
X168377500Y-96634000D01*
X168377500Y-98260000D01*
X168578597Y-98260000D01*
X168621324Y-98257102D01*
X168806023Y-98211168D01*
X168976522Y-98126609D01*
X168976525Y-98126607D01*
X169124866Y-98007367D01*
X169124867Y-98007366D01*
X169180533Y-97938115D01*
X169237876Y-97898196D01*
X169307698Y-97895616D01*
X169367831Y-97931194D01*
X169373805Y-97938089D01*
X169429778Y-98007722D01*
X169429780Y-98007724D01*
X169477354Y-98045965D01*
X169578204Y-98127030D01*
X169708096Y-98191450D01*
X169759407Y-98238869D01*
X169777000Y-98302537D01*
X169777000Y-101230500D01*
X169757315Y-101297539D01*
X169704511Y-101343294D01*
X169653000Y-101354500D01*
X168741360Y-101354500D01*
X168687311Y-101357397D01*
X168687310Y-101357397D01*
X168660977Y-101360229D01*
X168660950Y-101360232D01*
X168607554Y-101368885D01*
X168607552Y-101368885D01*
X168472747Y-101419166D01*
X168472744Y-101419167D01*
X168472743Y-101419168D01*
X168462404Y-101424813D01*
X168411422Y-101452651D01*
X168296240Y-101538876D01*
X168296228Y-101538886D01*
X168242181Y-101592934D01*
X168180858Y-101626419D01*
X168111166Y-101621435D01*
X168055233Y-101579563D01*
X168030816Y-101514099D01*
X168030500Y-101505253D01*
X168030500Y-101335532D01*
X168050185Y-101268493D01*
X168102989Y-101222738D01*
X168103893Y-101222329D01*
X168197593Y-101180612D01*
X168342230Y-101075526D01*
X168347229Y-101069975D01*
X168385473Y-101027500D01*
X168461859Y-100942665D01*
X168551250Y-100787835D01*
X168606497Y-100617803D01*
X168625185Y-100440000D01*
X168606497Y-100262197D01*
X168571116Y-100153305D01*
X168551252Y-100092170D01*
X168551249Y-100092164D01*
X168550809Y-100091402D01*
X168461859Y-99937335D01*
X168403648Y-99872685D01*
X168342235Y-99804478D01*
X168342232Y-99804476D01*
X168342231Y-99804475D01*
X168342230Y-99804474D01*
X168197593Y-99699388D01*
X168034267Y-99626671D01*
X168034265Y-99626670D01*
X167906594Y-99599533D01*
X167859391Y-99589500D01*
X167680609Y-99589500D01*
X167643439Y-99597400D01*
X167505734Y-99626670D01*
X167505729Y-99626672D01*
X167475494Y-99640133D01*
X167406244Y-99649416D01*
X167352178Y-99627170D01*
X167217593Y-99529388D01*
X167054267Y-99456671D01*
X167054265Y-99456670D01*
X166918778Y-99427872D01*
X166879391Y-99419500D01*
X166700609Y-99419500D01*
X166669954Y-99426015D01*
X166525733Y-99456670D01*
X166525728Y-99456672D01*
X166362408Y-99529388D01*
X166362403Y-99529390D01*
X166227023Y-99627750D01*
X166161217Y-99651230D01*
X166093163Y-99635404D01*
X166044468Y-99585299D01*
X166030593Y-99516820D01*
X166034360Y-99495349D01*
X166045063Y-99455408D01*
X166065659Y-99220000D01*
X166045063Y-98984592D01*
X165992911Y-98789956D01*
X165983905Y-98756344D01*
X165983904Y-98756343D01*
X165983903Y-98756337D01*
X165884035Y-98542171D01*
X165875980Y-98530666D01*
X165748494Y-98348597D01*
X165581402Y-98181506D01*
X165581396Y-98181501D01*
X165395842Y-98051575D01*
X165352217Y-97996998D01*
X165345023Y-97927500D01*
X165376546Y-97865145D01*
X165395842Y-97848425D01*
X165418026Y-97832891D01*
X165581401Y-97718495D01*
X165748495Y-97551401D01*
X165811727Y-97461096D01*
X166877500Y-97461096D01*
X166880397Y-97503824D01*
X166926331Y-97688523D01*
X167010890Y-97859022D01*
X167010892Y-97859025D01*
X167130132Y-98007366D01*
X167130133Y-98007367D01*
X167278474Y-98126607D01*
X167278477Y-98126609D01*
X167448976Y-98211168D01*
X167633675Y-98257102D01*
X167676403Y-98260000D01*
X167877500Y-98260000D01*
X167877500Y-97010000D01*
X166877500Y-97010000D01*
X166877500Y-97461096D01*
X165811727Y-97461096D01*
X165884035Y-97357830D01*
X165983903Y-97143663D01*
X166045063Y-96915408D01*
X166065659Y-96680000D01*
X166045063Y-96444592D01*
X165998626Y-96271285D01*
X165983905Y-96216344D01*
X165983904Y-96216343D01*
X165983903Y-96216337D01*
X165884035Y-96002171D01*
X165832262Y-95928230D01*
X165748494Y-95808597D01*
X165581402Y-95641506D01*
X165581396Y-95641501D01*
X165395842Y-95511575D01*
X165352217Y-95456998D01*
X165345023Y-95387500D01*
X165376546Y-95325145D01*
X165395842Y-95308425D01*
X165425560Y-95287616D01*
X165581401Y-95178495D01*
X165748495Y-95011401D01*
X165856575Y-94857047D01*
X165866147Y-94843377D01*
X165920724Y-94799752D01*
X165967722Y-94790500D01*
X167689192Y-94790500D01*
X167756231Y-94810185D01*
G37*
%TD.AperFunction*%
%TA.AperFunction,Conductor*%
G36*
X158267839Y-70084088D02*
G01*
X158313594Y-70136892D01*
X158323538Y-70206050D01*
X158310709Y-70245814D01*
X158216090Y-70426952D01*
X158160114Y-70622583D01*
X158160113Y-70622586D01*
X158153377Y-70698356D01*
X158149780Y-70738822D01*
X158149500Y-70741966D01*
X158149500Y-71858028D01*
X158149501Y-71858034D01*
X158160113Y-71977415D01*
X158216089Y-72173045D01*
X158216090Y-72173048D01*
X158216091Y-72173049D01*
X158310302Y-72353407D01*
X158310304Y-72353409D01*
X158438890Y-72511109D01*
X158532803Y-72587684D01*
X158596593Y-72639698D01*
X158776951Y-72733909D01*
X158972582Y-72789886D01*
X159091963Y-72800500D01*
X160208036Y-72800499D01*
X160327418Y-72789886D01*
X160523049Y-72733909D01*
X160703407Y-72639698D01*
X160861109Y-72511109D01*
X160989698Y-72353407D01*
X161083909Y-72173049D01*
X161139886Y-71977418D01*
X161150500Y-71858037D01*
X161150499Y-70741964D01*
X161139886Y-70622582D01*
X161083909Y-70426951D01*
X160989698Y-70246593D01*
X160989697Y-70246592D01*
X160989291Y-70245814D01*
X160975700Y-70177279D01*
X161001319Y-70112276D01*
X161058015Y-70071442D01*
X161099200Y-70064403D01*
X163796490Y-70064403D01*
X163863529Y-70084088D01*
X163909284Y-70136892D01*
X163919228Y-70206050D01*
X163893437Y-70265716D01*
X163893196Y-70266017D01*
X163893195Y-70266019D01*
X163834429Y-70339709D01*
X163729614Y-70471143D01*
X163598432Y-70698356D01*
X163502582Y-70942578D01*
X163502576Y-70942597D01*
X163444197Y-71198374D01*
X163444196Y-71198379D01*
X163424592Y-71459995D01*
X163424592Y-71460004D01*
X163444196Y-71721620D01*
X163444197Y-71721625D01*
X163502576Y-71977402D01*
X163502578Y-71977411D01*
X163502580Y-71977416D01*
X163598432Y-72221643D01*
X163729614Y-72448857D01*
X163848350Y-72597747D01*
X163893198Y-72653985D01*
X163936283Y-72693961D01*
X164085521Y-72832433D01*
X164112038Y-72850512D01*
X164122356Y-72857547D01*
X164166657Y-72911577D01*
X164174715Y-72980980D01*
X164143972Y-73043722D01*
X164122356Y-73062453D01*
X164085522Y-73087566D01*
X163893198Y-73266014D01*
X163729614Y-73471143D01*
X163598432Y-73698356D01*
X163502582Y-73942578D01*
X163502576Y-73942597D01*
X163444197Y-74198374D01*
X163444196Y-74198379D01*
X163424592Y-74459995D01*
X163424592Y-74460004D01*
X163444196Y-74721620D01*
X163444197Y-74721625D01*
X163502576Y-74977402D01*
X163502578Y-74977411D01*
X163502580Y-74977416D01*
X163598432Y-75221643D01*
X163729614Y-75448857D01*
X163850500Y-75600443D01*
X163893198Y-75653985D01*
X164044555Y-75794422D01*
X164085521Y-75832433D01*
X164302296Y-75980228D01*
X164302301Y-75980230D01*
X164302302Y-75980231D01*
X164302303Y-75980232D01*
X164427843Y-76040688D01*
X164538673Y-76094061D01*
X164538674Y-76094061D01*
X164538677Y-76094063D01*
X164789385Y-76171396D01*
X165048818Y-76210500D01*
X165311182Y-76210500D01*
X165570615Y-76171396D01*
X165821323Y-76094063D01*
X166057704Y-75980228D01*
X166274479Y-75832433D01*
X166466805Y-75653981D01*
X166630386Y-75448857D01*
X166761568Y-75221643D01*
X166857420Y-74977416D01*
X166915802Y-74721630D01*
X166935408Y-74460000D01*
X166921697Y-74277041D01*
X166915803Y-74198379D01*
X166915802Y-74198374D01*
X166915802Y-74198370D01*
X166857420Y-73942584D01*
X166761568Y-73698357D01*
X166630386Y-73471143D01*
X166466805Y-73266019D01*
X166466804Y-73266018D01*
X166466801Y-73266014D01*
X166274479Y-73087567D01*
X166245116Y-73067548D01*
X166237642Y-73062452D01*
X166193342Y-73008425D01*
X166185283Y-72939021D01*
X166216026Y-72876279D01*
X166237643Y-72857547D01*
X166274479Y-72832433D01*
X166466805Y-72653981D01*
X166630386Y-72448857D01*
X166761568Y-72221643D01*
X166857420Y-71977416D01*
X166915802Y-71721630D01*
X166915808Y-71721550D01*
X166935408Y-71460004D01*
X166935408Y-71459995D01*
X166915803Y-71198379D01*
X166915802Y-71198374D01*
X166915802Y-71198370D01*
X166857420Y-70942584D01*
X166761568Y-70698357D01*
X166630386Y-70471143D01*
X166466805Y-70266019D01*
X166466803Y-70266017D01*
X166466563Y-70265716D01*
X166440154Y-70201029D01*
X166452911Y-70132334D01*
X166500781Y-70081440D01*
X166563510Y-70064403D01*
X167796490Y-70064403D01*
X167863529Y-70084088D01*
X167909284Y-70136892D01*
X167919228Y-70206050D01*
X167893437Y-70265716D01*
X167893196Y-70266017D01*
X167893195Y-70266019D01*
X167834429Y-70339709D01*
X167729614Y-70471143D01*
X167598432Y-70698356D01*
X167502582Y-70942578D01*
X167502576Y-70942597D01*
X167444197Y-71198374D01*
X167444196Y-71198379D01*
X167424592Y-71459995D01*
X167424592Y-71460004D01*
X167444196Y-71721620D01*
X167444197Y-71721625D01*
X167502576Y-71977402D01*
X167502578Y-71977411D01*
X167502580Y-71977416D01*
X167598432Y-72221643D01*
X167729614Y-72448857D01*
X167848350Y-72597747D01*
X167893198Y-72653985D01*
X167936283Y-72693961D01*
X168085521Y-72832433D01*
X168112038Y-72850512D01*
X168122356Y-72857547D01*
X168166657Y-72911577D01*
X168174715Y-72980980D01*
X168143972Y-73043722D01*
X168122356Y-73062453D01*
X168085522Y-73087566D01*
X167893198Y-73266014D01*
X167729614Y-73471143D01*
X167598432Y-73698356D01*
X167502582Y-73942578D01*
X167502576Y-73942597D01*
X167444197Y-74198374D01*
X167444196Y-74198379D01*
X167424592Y-74459995D01*
X167424592Y-74460004D01*
X167444196Y-74721620D01*
X167444197Y-74721625D01*
X167502576Y-74977402D01*
X167502578Y-74977411D01*
X167502580Y-74977416D01*
X167598432Y-75221643D01*
X167729614Y-75448857D01*
X167850500Y-75600443D01*
X167893198Y-75653985D01*
X168044555Y-75794422D01*
X168085521Y-75832433D01*
X168302296Y-75980228D01*
X168302301Y-75980230D01*
X168302302Y-75980231D01*
X168302303Y-75980232D01*
X168427843Y-76040688D01*
X168538673Y-76094061D01*
X168538674Y-76094061D01*
X168538677Y-76094063D01*
X168789385Y-76171396D01*
X169048818Y-76210500D01*
X169311182Y-76210500D01*
X169570615Y-76171396D01*
X169821323Y-76094063D01*
X170057704Y-75980228D01*
X170274479Y-75832433D01*
X170466805Y-75653981D01*
X170630386Y-75448857D01*
X170761568Y-75221643D01*
X170857420Y-74977416D01*
X170915802Y-74721630D01*
X170935408Y-74460000D01*
X170921697Y-74277041D01*
X170915803Y-74198379D01*
X170915802Y-74198374D01*
X170915802Y-74198370D01*
X170857420Y-73942584D01*
X170761568Y-73698357D01*
X170630386Y-73471143D01*
X170466805Y-73266019D01*
X170466804Y-73266018D01*
X170466801Y-73266014D01*
X170274479Y-73087567D01*
X170245116Y-73067548D01*
X170237642Y-73062452D01*
X170193342Y-73008425D01*
X170185283Y-72939021D01*
X170216026Y-72876279D01*
X170237643Y-72857547D01*
X170274479Y-72832433D01*
X170466805Y-72653981D01*
X170630386Y-72448857D01*
X170761568Y-72221643D01*
X170857420Y-71977416D01*
X170915802Y-71721630D01*
X170915808Y-71721550D01*
X170935408Y-71460004D01*
X170935408Y-71459995D01*
X170915803Y-71198379D01*
X170915802Y-71198374D01*
X170915802Y-71198370D01*
X170857420Y-70942584D01*
X170761568Y-70698357D01*
X170630386Y-70471143D01*
X170466805Y-70266019D01*
X170466803Y-70266017D01*
X170466563Y-70265716D01*
X170440154Y-70201029D01*
X170452911Y-70132334D01*
X170500781Y-70081440D01*
X170563510Y-70064403D01*
X171796490Y-70064403D01*
X171863529Y-70084088D01*
X171909284Y-70136892D01*
X171919228Y-70206050D01*
X171893437Y-70265716D01*
X171893196Y-70266017D01*
X171893195Y-70266019D01*
X171834429Y-70339709D01*
X171729614Y-70471143D01*
X171598432Y-70698356D01*
X171502582Y-70942578D01*
X171502576Y-70942597D01*
X171444197Y-71198374D01*
X171444196Y-71198379D01*
X171424592Y-71459995D01*
X171424592Y-71460004D01*
X171444196Y-71721620D01*
X171444197Y-71721625D01*
X171502576Y-71977402D01*
X171502578Y-71977411D01*
X171502580Y-71977416D01*
X171598432Y-72221643D01*
X171729614Y-72448857D01*
X171848350Y-72597747D01*
X171893198Y-72653985D01*
X171936283Y-72693961D01*
X172085521Y-72832433D01*
X172112038Y-72850512D01*
X172122356Y-72857547D01*
X172166657Y-72911577D01*
X172174715Y-72980980D01*
X172143972Y-73043722D01*
X172122356Y-73062453D01*
X172085522Y-73087566D01*
X171893198Y-73266014D01*
X171729614Y-73471143D01*
X171598432Y-73698356D01*
X171502582Y-73942578D01*
X171502576Y-73942597D01*
X171444197Y-74198374D01*
X171444196Y-74198379D01*
X171424592Y-74459995D01*
X171424592Y-74460004D01*
X171444196Y-74721620D01*
X171444197Y-74721625D01*
X171502576Y-74977402D01*
X171502578Y-74977411D01*
X171502580Y-74977416D01*
X171598432Y-75221643D01*
X171729614Y-75448857D01*
X171850500Y-75600443D01*
X171893198Y-75653985D01*
X172044555Y-75794422D01*
X172085521Y-75832433D01*
X172302296Y-75980228D01*
X172302301Y-75980230D01*
X172302302Y-75980231D01*
X172302303Y-75980232D01*
X172427843Y-76040688D01*
X172538673Y-76094061D01*
X172538674Y-76094061D01*
X172538677Y-76094063D01*
X172789385Y-76171396D01*
X172789831Y-76171463D01*
X172790192Y-76171518D01*
X172790455Y-76171640D01*
X172793910Y-76172429D01*
X172793741Y-76173167D01*
X172853551Y-76200970D01*
X172859400Y-76206453D01*
X176138218Y-79485272D01*
X176138225Y-79485278D01*
X176244501Y-79556289D01*
X176244759Y-79556461D01*
X176244760Y-79556462D01*
X176244764Y-79556463D01*
X176244766Y-79556465D01*
X176363149Y-79605501D01*
X176363153Y-79605501D01*
X176363154Y-79605502D01*
X176488821Y-79630500D01*
X176488824Y-79630500D01*
X180660114Y-79630500D01*
X180727153Y-79650185D01*
X180772908Y-79702989D01*
X180782852Y-79772147D01*
X180780941Y-79782222D01*
X180780910Y-79782513D01*
X180780909Y-79782517D01*
X180774500Y-79842127D01*
X180774500Y-79842134D01*
X180774500Y-79842135D01*
X180774500Y-80537870D01*
X180774501Y-80537876D01*
X180778196Y-80572247D01*
X180765789Y-80641006D01*
X180718178Y-80692143D01*
X180654906Y-80709500D01*
X179956080Y-80709500D01*
X179811092Y-80738340D01*
X179811082Y-80738343D01*
X179674511Y-80794912D01*
X179674496Y-80794920D01*
X179628089Y-80825930D01*
X179628086Y-80825932D01*
X179551589Y-80877043D01*
X179551584Y-80877047D01*
X178717047Y-81711584D01*
X178717043Y-81711589D01*
X178692763Y-81747929D01*
X178692763Y-81747930D01*
X178634914Y-81834508D01*
X178578343Y-81971082D01*
X178578340Y-81971092D01*
X178549500Y-82116079D01*
X178549500Y-82116082D01*
X178549500Y-87403918D01*
X178549500Y-87403920D01*
X178549499Y-87403920D01*
X178578340Y-87548907D01*
X178578343Y-87548917D01*
X178634912Y-87685488D01*
X178634920Y-87685502D01*
X178659221Y-87721870D01*
X178659222Y-87721873D01*
X178717046Y-87808414D01*
X178717052Y-87808421D01*
X181363181Y-90454548D01*
X181396666Y-90515871D01*
X181399500Y-90542229D01*
X181399500Y-94300149D01*
X181390061Y-94347601D01*
X181364314Y-94409760D01*
X181364313Y-94409764D01*
X181349500Y-94522272D01*
X181349500Y-94565500D01*
X181329815Y-94632539D01*
X181277011Y-94678294D01*
X181225500Y-94689500D01*
X181086080Y-94689500D01*
X180941092Y-94718340D01*
X180941086Y-94718342D01*
X180804508Y-94774914D01*
X180804496Y-94774921D01*
X180755270Y-94807811D01*
X180755271Y-94807812D01*
X180681585Y-94857047D01*
X180612450Y-94926182D01*
X180551126Y-94959666D01*
X180524769Y-94962500D01*
X176088000Y-94962500D01*
X176070748Y-94979751D01*
X176068315Y-94988039D01*
X176015511Y-95033794D01*
X175964000Y-95045000D01*
X174894000Y-95045000D01*
X174826961Y-95025315D01*
X174781206Y-94972511D01*
X174770000Y-94921000D01*
X174770000Y-93645000D01*
X175270000Y-93645000D01*
X175270000Y-94545000D01*
X175762000Y-94545000D01*
X175779251Y-94527748D01*
X175781685Y-94519461D01*
X175834489Y-94473706D01*
X175886000Y-94462500D01*
X176780000Y-94462500D01*
X177280000Y-94462500D01*
X179000000Y-94462500D01*
X179500000Y-94462500D01*
X180474999Y-94462500D01*
X180474999Y-94325028D01*
X180474998Y-94325013D01*
X180464505Y-94222302D01*
X180409358Y-94055880D01*
X180409356Y-94055875D01*
X180317315Y-93906654D01*
X180193345Y-93782684D01*
X180044124Y-93690643D01*
X180044119Y-93690641D01*
X179877697Y-93635494D01*
X179877690Y-93635493D01*
X179774986Y-93625000D01*
X179500000Y-93625000D01*
X179500000Y-94462500D01*
X179000000Y-94462500D01*
X179000000Y-93625000D01*
X178725029Y-93625000D01*
X178725012Y-93625001D01*
X178622302Y-93635494D01*
X178455880Y-93690641D01*
X178455875Y-93690643D01*
X178306654Y-93782684D01*
X178227681Y-93861658D01*
X178166358Y-93895143D01*
X178096666Y-93890159D01*
X178052319Y-93861658D01*
X177973345Y-93782684D01*
X177824124Y-93690643D01*
X177824119Y-93690641D01*
X177657697Y-93635494D01*
X177657690Y-93635493D01*
X177554986Y-93625000D01*
X177280000Y-93625000D01*
X177280000Y-94462500D01*
X176780000Y-94462500D01*
X176780000Y-93625000D01*
X176505029Y-93625000D01*
X176505012Y-93625001D01*
X176402302Y-93635494D01*
X176235880Y-93690641D01*
X176235875Y-93690643D01*
X176086654Y-93782684D01*
X176002679Y-93866658D01*
X175941356Y-93900143D01*
X175871664Y-93895157D01*
X175827318Y-93866657D01*
X175763345Y-93802684D01*
X175614124Y-93710643D01*
X175614119Y-93710641D01*
X175447697Y-93655494D01*
X175447690Y-93655493D01*
X175344986Y-93645000D01*
X175270000Y-93645000D01*
X174770000Y-93645000D01*
X174769999Y-93644999D01*
X174695028Y-93645000D01*
X174695011Y-93645001D01*
X174592302Y-93655494D01*
X174425880Y-93710641D01*
X174425875Y-93710643D01*
X174276654Y-93802684D01*
X174152683Y-93926655D01*
X174152680Y-93926659D01*
X174146822Y-93936157D01*
X174094873Y-93982881D01*
X174025911Y-93994101D01*
X173961829Y-93966256D01*
X173923579Y-93910062D01*
X173909196Y-93866657D01*
X173889814Y-93808166D01*
X173797712Y-93658844D01*
X173673656Y-93534788D01*
X173670342Y-93532743D01*
X173668546Y-93530748D01*
X173667989Y-93530307D01*
X173668064Y-93530211D01*
X173623618Y-93480797D01*
X173612397Y-93411834D01*
X173640240Y-93347752D01*
X173670348Y-93321665D01*
X173673342Y-93319818D01*
X173797315Y-93195845D01*
X173889356Y-93046624D01*
X173889358Y-93046619D01*
X173944505Y-92880197D01*
X173944506Y-92880190D01*
X173954999Y-92777486D01*
X173955000Y-92777473D01*
X173955000Y-92640000D01*
X171505001Y-92640000D01*
X171505001Y-92777486D01*
X171515494Y-92880197D01*
X171570641Y-93046619D01*
X171570643Y-93046624D01*
X171662684Y-93195845D01*
X171786655Y-93319816D01*
X171786659Y-93319819D01*
X171789656Y-93321668D01*
X171791279Y-93323472D01*
X171792323Y-93324298D01*
X171792181Y-93324476D01*
X171836381Y-93373616D01*
X171847602Y-93442579D01*
X171819759Y-93506661D01*
X171789661Y-93532741D01*
X171786349Y-93534783D01*
X171786343Y-93534788D01*
X171662288Y-93658843D01*
X171657807Y-93664511D01*
X171655984Y-93663069D01*
X171612335Y-93702325D01*
X171558752Y-93714500D01*
X169767230Y-93714500D01*
X169700191Y-93694815D01*
X169679549Y-93678181D01*
X168003882Y-92002513D01*
X171505000Y-92002513D01*
X171505000Y-92140000D01*
X172480000Y-92140000D01*
X172980000Y-92140000D01*
X173954999Y-92140000D01*
X173954999Y-92002528D01*
X173954998Y-92002513D01*
X173944505Y-91899802D01*
X173889358Y-91733380D01*
X173889356Y-91733375D01*
X173797315Y-91584154D01*
X173673345Y-91460184D01*
X173524124Y-91368143D01*
X173524119Y-91368141D01*
X173357697Y-91312994D01*
X173357690Y-91312993D01*
X173254986Y-91302500D01*
X172980000Y-91302500D01*
X172980000Y-92140000D01*
X172480000Y-92140000D01*
X172480000Y-91302500D01*
X172205029Y-91302500D01*
X172205012Y-91302501D01*
X172102302Y-91312994D01*
X171935880Y-91368141D01*
X171935875Y-91368143D01*
X171786654Y-91460184D01*
X171662684Y-91584154D01*
X171570643Y-91733375D01*
X171570641Y-91733380D01*
X171515494Y-91899802D01*
X171515493Y-91899809D01*
X171505000Y-92002513D01*
X168003882Y-92002513D01*
X167608421Y-91607052D01*
X167608414Y-91607046D01*
X167519874Y-91547886D01*
X167519775Y-91547821D01*
X167485495Y-91524916D01*
X167485494Y-91524915D01*
X167485492Y-91524914D01*
X167348917Y-91468343D01*
X167348907Y-91468340D01*
X167203920Y-91439500D01*
X167203918Y-91439500D01*
X163913917Y-91439500D01*
X163766082Y-91439500D01*
X163766080Y-91439500D01*
X163621092Y-91468340D01*
X163621082Y-91468343D01*
X163484511Y-91524912D01*
X163484498Y-91524919D01*
X163361584Y-91607048D01*
X163361580Y-91607051D01*
X162427050Y-92541580D01*
X162427044Y-92541588D01*
X162377812Y-92615268D01*
X162377813Y-92615269D01*
X162344921Y-92664496D01*
X162344914Y-92664508D01*
X162288342Y-92801086D01*
X162288340Y-92801092D01*
X162259500Y-92946079D01*
X162259500Y-97407770D01*
X162239815Y-97474809D01*
X162223181Y-97495451D01*
X161572181Y-98146451D01*
X161510858Y-98179936D01*
X161441166Y-98174952D01*
X161385233Y-98133080D01*
X161360816Y-98067616D01*
X161360500Y-98058770D01*
X161360500Y-93815978D01*
X161380185Y-93748939D01*
X161388650Y-93737310D01*
X161390678Y-93734837D01*
X161394136Y-93730625D01*
X161482396Y-93565501D01*
X161536747Y-93386331D01*
X161555099Y-93200000D01*
X161538392Y-93030374D01*
X161536747Y-93013668D01*
X161536746Y-93013666D01*
X161482396Y-92834499D01*
X161451915Y-92777473D01*
X161394137Y-92669376D01*
X161394135Y-92669373D01*
X161275357Y-92524642D01*
X161130626Y-92405864D01*
X161130623Y-92405862D01*
X160965500Y-92317603D01*
X160959877Y-92315274D01*
X160960478Y-92313822D01*
X160908454Y-92279728D01*
X160879998Y-92215916D01*
X160890559Y-92146849D01*
X160899081Y-92131544D01*
X160974173Y-92016607D01*
X161074063Y-91788881D01*
X161135108Y-91547821D01*
X161137006Y-91524914D01*
X161155643Y-91300005D01*
X161155643Y-91299994D01*
X161135109Y-91052187D01*
X161135107Y-91052175D01*
X161074063Y-90811118D01*
X160974173Y-90583393D01*
X160838166Y-90375217D01*
X160730082Y-90257807D01*
X160669744Y-90192262D01*
X160473509Y-90039526D01*
X160473507Y-90039525D01*
X160473506Y-90039524D01*
X160254811Y-89921172D01*
X160254802Y-89921169D01*
X160019616Y-89840429D01*
X159774335Y-89799500D01*
X159525665Y-89799500D01*
X159280383Y-89840429D01*
X159045197Y-89921169D01*
X159045188Y-89921172D01*
X158826493Y-90039524D01*
X158630257Y-90192261D01*
X158461833Y-90375217D01*
X158325826Y-90583393D01*
X158225936Y-90811118D01*
X158164892Y-91052175D01*
X158164890Y-91052187D01*
X158144357Y-91299994D01*
X158144357Y-91300005D01*
X158164890Y-91547812D01*
X158164891Y-91547819D01*
X158164892Y-91547821D01*
X158165045Y-91548425D01*
X158225936Y-91788881D01*
X158325826Y-92016606D01*
X158461833Y-92224782D01*
X158461836Y-92224785D01*
X158630256Y-92407738D01*
X158826491Y-92560474D01*
X159045190Y-92678828D01*
X159280386Y-92759571D01*
X159525665Y-92800500D01*
X159560723Y-92800500D01*
X159627762Y-92820185D01*
X159673517Y-92872989D01*
X159683461Y-92942147D01*
X159679383Y-92960496D01*
X159663253Y-93013666D01*
X159663252Y-93013668D01*
X159644901Y-93200000D01*
X159663252Y-93386331D01*
X159663253Y-93386333D01*
X159717604Y-93565502D01*
X159805860Y-93730619D01*
X159805865Y-93730627D01*
X159831352Y-93761682D01*
X159858666Y-93825992D01*
X159859500Y-93840348D01*
X159859500Y-93960638D01*
X159839815Y-94027677D01*
X159787011Y-94073432D01*
X159717853Y-94083376D01*
X159679205Y-94071123D01*
X159474383Y-93966760D01*
X159234785Y-93888910D01*
X159159027Y-93876911D01*
X158985962Y-93849500D01*
X157434038Y-93849500D01*
X157309626Y-93869205D01*
X157185214Y-93888910D01*
X156945616Y-93966760D01*
X156721151Y-94081132D01*
X156576330Y-94186350D01*
X156510524Y-94209830D01*
X156442470Y-94194004D01*
X156393775Y-94143898D01*
X156379445Y-94086032D01*
X156379445Y-86299994D01*
X158144357Y-86299994D01*
X158144357Y-86300005D01*
X158164890Y-86547812D01*
X158164892Y-86547824D01*
X158225936Y-86788881D01*
X158325826Y-87016606D01*
X158461833Y-87224782D01*
X158461836Y-87224785D01*
X158630256Y-87407738D01*
X158826491Y-87560474D01*
X158826493Y-87560475D01*
X159039038Y-87675499D01*
X159045190Y-87678828D01*
X159280386Y-87759571D01*
X159525665Y-87800500D01*
X159774335Y-87800500D01*
X160019614Y-87759571D01*
X160254810Y-87678828D01*
X160473509Y-87560474D01*
X160669744Y-87407738D01*
X160838164Y-87224785D01*
X160974173Y-87016607D01*
X161074063Y-86788881D01*
X161135108Y-86547821D01*
X161138060Y-86512194D01*
X161155643Y-86300005D01*
X161155643Y-86300000D01*
X161155170Y-86294299D01*
X161169247Y-86225865D01*
X161218089Y-86175902D01*
X161286189Y-86160278D01*
X161351926Y-86183951D01*
X161366427Y-86196373D01*
X162685324Y-87515271D01*
X162685331Y-87515277D01*
X162791871Y-87586464D01*
X162791870Y-87586464D01*
X162826544Y-87600826D01*
X162910256Y-87635501D01*
X162910260Y-87635501D01*
X162910261Y-87635502D01*
X163035928Y-87660500D01*
X163035931Y-87660500D01*
X176334071Y-87660500D01*
X176418615Y-87643682D01*
X176459744Y-87635501D01*
X176578127Y-87586465D01*
X176588735Y-87579376D01*
X176615646Y-87561397D01*
X176673155Y-87543390D01*
X176672923Y-87541180D01*
X176679389Y-87540500D01*
X176679391Y-87540500D01*
X176854267Y-87503329D01*
X177017593Y-87430612D01*
X177162230Y-87325526D01*
X177281859Y-87192665D01*
X177371250Y-87037835D01*
X177426497Y-86867803D01*
X177445185Y-86690000D01*
X177426497Y-86512197D01*
X177376883Y-86359500D01*
X177371252Y-86342170D01*
X177371249Y-86342164D01*
X177362411Y-86326856D01*
X177281859Y-86187335D01*
X177194085Y-86089852D01*
X177162235Y-86054478D01*
X177162232Y-86054476D01*
X177162231Y-86054475D01*
X177162230Y-86054474D01*
X177017593Y-85949388D01*
X176854267Y-85876671D01*
X176854265Y-85876670D01*
X176726594Y-85849533D01*
X176679391Y-85839500D01*
X176500609Y-85839500D01*
X176469954Y-85846015D01*
X176325733Y-85876670D01*
X176325728Y-85876672D01*
X176162408Y-85949387D01*
X176017768Y-86054475D01*
X175898139Y-86187336D01*
X175834537Y-86297500D01*
X175783970Y-86345716D01*
X175727150Y-86359500D01*
X167792264Y-86359500D01*
X167725225Y-86339815D01*
X167679470Y-86287011D01*
X167669526Y-86217853D01*
X167674333Y-86197182D01*
X167692750Y-86140500D01*
X167711497Y-86082803D01*
X167730185Y-85905000D01*
X167711497Y-85727197D01*
X167656250Y-85557165D01*
X167566859Y-85402335D01*
X167520003Y-85350296D01*
X167447235Y-85269478D01*
X167447232Y-85269476D01*
X167447231Y-85269475D01*
X167447230Y-85269474D01*
X167302593Y-85164388D01*
X167139267Y-85091671D01*
X167139265Y-85091670D01*
X167011594Y-85064533D01*
X166964391Y-85054500D01*
X166964390Y-85054500D01*
X166915808Y-85054500D01*
X166848769Y-85034815D01*
X166828127Y-85018181D01*
X165064674Y-83254727D01*
X165064673Y-83254726D01*
X165035567Y-83235278D01*
X164958127Y-83183535D01*
X164839744Y-83134499D01*
X164839738Y-83134497D01*
X164714071Y-83109500D01*
X164714069Y-83109500D01*
X163991230Y-83109500D01*
X163924191Y-83089815D01*
X163878436Y-83037011D01*
X163868492Y-82967853D01*
X163897517Y-82904297D01*
X163903549Y-82897819D01*
X164249137Y-82552230D01*
X164405414Y-82395952D01*
X164466735Y-82362469D01*
X164480934Y-82360233D01*
X164516331Y-82356747D01*
X164695501Y-82302396D01*
X164860625Y-82214136D01*
X165005357Y-82095357D01*
X165124136Y-81950625D01*
X165212396Y-81785501D01*
X165266747Y-81606331D01*
X165285099Y-81420000D01*
X165266747Y-81233669D01*
X165212396Y-81054499D01*
X165169609Y-80974450D01*
X165124137Y-80889376D01*
X165124135Y-80889373D01*
X165005357Y-80744642D01*
X164860626Y-80625864D01*
X164860623Y-80625862D01*
X164695502Y-80537604D01*
X164516333Y-80483253D01*
X164516331Y-80483252D01*
X164365556Y-80468403D01*
X164330207Y-80454129D01*
X164305394Y-80466828D01*
X164294443Y-80468403D01*
X164143668Y-80483252D01*
X164143666Y-80483253D01*
X163964497Y-80537604D01*
X163799376Y-80625862D01*
X163799373Y-80625864D01*
X163654642Y-80744642D01*
X163535864Y-80889373D01*
X163535862Y-80889376D01*
X163447604Y-81054497D01*
X163393254Y-81233663D01*
X163393252Y-81233672D01*
X163391952Y-81246875D01*
X163365790Y-81311662D01*
X163356230Y-81322401D01*
X162875451Y-81803181D01*
X162814128Y-81836666D01*
X162787770Y-81839500D01*
X161995638Y-81839500D01*
X161928599Y-81819815D01*
X161890099Y-81780597D01*
X161822712Y-81671344D01*
X161698656Y-81547288D01*
X161549334Y-81455186D01*
X161382797Y-81400001D01*
X161382795Y-81400000D01*
X161280010Y-81389500D01*
X160479998Y-81389500D01*
X160479980Y-81389501D01*
X160377203Y-81400000D01*
X160377200Y-81400001D01*
X160210668Y-81455185D01*
X160210663Y-81455187D01*
X160061345Y-81547287D01*
X159967327Y-81641305D01*
X159906003Y-81674789D01*
X159836312Y-81669805D01*
X159791965Y-81641304D01*
X159698345Y-81547684D01*
X159549124Y-81455643D01*
X159549119Y-81455641D01*
X159382697Y-81400494D01*
X159382690Y-81400493D01*
X159279986Y-81390000D01*
X159130000Y-81390000D01*
X159130000Y-83789999D01*
X159279972Y-83789999D01*
X159279986Y-83789998D01*
X159382697Y-83779505D01*
X159549119Y-83724358D01*
X159549124Y-83724356D01*
X159698342Y-83632317D01*
X159791964Y-83538695D01*
X159853287Y-83505210D01*
X159922979Y-83510194D01*
X159967327Y-83538695D01*
X160061344Y-83632712D01*
X160210666Y-83724814D01*
X160377203Y-83779999D01*
X160479991Y-83790500D01*
X161280008Y-83790499D01*
X161280016Y-83790498D01*
X161280019Y-83790498D01*
X161336302Y-83784748D01*
X161382797Y-83779999D01*
X161501468Y-83740674D01*
X161571296Y-83738273D01*
X161631338Y-83774005D01*
X161662531Y-83836525D01*
X161663793Y-83845419D01*
X161673503Y-83937804D01*
X161673504Y-83937807D01*
X161728747Y-84107829D01*
X161728750Y-84107835D01*
X161818141Y-84262665D01*
X161841449Y-84288551D01*
X161865760Y-84315552D01*
X161895989Y-84378543D01*
X161887363Y-84447879D01*
X161842622Y-84501544D01*
X161775969Y-84522501D01*
X161723176Y-84511803D01*
X161644267Y-84476671D01*
X161644265Y-84476670D01*
X161503824Y-84446819D01*
X161469391Y-84439500D01*
X161290609Y-84439500D01*
X161259954Y-84446015D01*
X161115733Y-84476670D01*
X161115728Y-84476672D01*
X160952408Y-84549387D01*
X160807768Y-84654475D01*
X160688140Y-84787336D01*
X160598750Y-84942164D01*
X160596104Y-84948108D01*
X160594699Y-84947482D01*
X160559683Y-84998688D01*
X160495323Y-85025883D01*
X160426477Y-85013966D01*
X160422177Y-85011746D01*
X160254816Y-84921175D01*
X160254813Y-84921174D01*
X160254810Y-84921172D01*
X160254804Y-84921170D01*
X160254802Y-84921169D01*
X160019616Y-84840429D01*
X159774335Y-84799500D01*
X159525665Y-84799500D01*
X159280383Y-84840429D01*
X159045197Y-84921169D01*
X159045188Y-84921172D01*
X158826493Y-85039524D01*
X158630257Y-85192261D01*
X158461833Y-85375217D01*
X158325826Y-85583393D01*
X158225936Y-85811118D01*
X158164892Y-86052175D01*
X158164890Y-86052187D01*
X158144357Y-86299994D01*
X156379445Y-86299994D01*
X156379445Y-83089986D01*
X157780001Y-83089986D01*
X157790494Y-83192697D01*
X157845641Y-83359119D01*
X157845643Y-83359124D01*
X157937684Y-83508345D01*
X158061654Y-83632315D01*
X158210875Y-83724356D01*
X158210880Y-83724358D01*
X158377302Y-83779505D01*
X158377309Y-83779506D01*
X158480019Y-83789999D01*
X158629999Y-83789999D01*
X158630000Y-83789998D01*
X158630000Y-82840000D01*
X157780001Y-82840000D01*
X157780001Y-83089986D01*
X156379445Y-83089986D01*
X156379445Y-82090013D01*
X157780000Y-82090013D01*
X157780000Y-82340000D01*
X158630000Y-82340000D01*
X158630000Y-81390000D01*
X158480027Y-81390000D01*
X158480012Y-81390001D01*
X158377302Y-81400494D01*
X158210880Y-81455641D01*
X158210875Y-81455643D01*
X158061654Y-81547684D01*
X157937684Y-81671654D01*
X157845643Y-81820875D01*
X157845641Y-81820880D01*
X157790494Y-81987302D01*
X157790493Y-81987309D01*
X157780000Y-82090013D01*
X156379445Y-82090013D01*
X156379445Y-79189986D01*
X157780001Y-79189986D01*
X157790494Y-79292697D01*
X157845641Y-79459119D01*
X157845643Y-79459124D01*
X157937684Y-79608345D01*
X158061654Y-79732315D01*
X158210875Y-79824356D01*
X158210880Y-79824358D01*
X158377302Y-79879505D01*
X158377309Y-79879506D01*
X158480019Y-79889999D01*
X158629999Y-79889999D01*
X158630000Y-79889998D01*
X158630000Y-78940000D01*
X157780001Y-78940000D01*
X157780001Y-79189986D01*
X156379445Y-79189986D01*
X156379445Y-78190013D01*
X157780000Y-78190013D01*
X157780000Y-78440000D01*
X159006000Y-78440000D01*
X159073039Y-78459685D01*
X159118794Y-78512489D01*
X159130000Y-78564000D01*
X159130000Y-79889999D01*
X159279972Y-79889999D01*
X159279986Y-79889998D01*
X159382697Y-79879505D01*
X159549119Y-79824358D01*
X159549124Y-79824356D01*
X159698342Y-79732317D01*
X159791964Y-79638695D01*
X159853287Y-79605210D01*
X159922979Y-79610194D01*
X159967327Y-79638695D01*
X160061344Y-79732712D01*
X160210666Y-79824814D01*
X160377203Y-79879999D01*
X160479991Y-79890500D01*
X161280008Y-79890499D01*
X161280016Y-79890498D01*
X161280019Y-79890498D01*
X161336302Y-79884748D01*
X161382797Y-79879999D01*
X161549334Y-79824814D01*
X161698656Y-79732712D01*
X161822712Y-79608656D01*
X161890099Y-79499402D01*
X161942047Y-79452679D01*
X161995638Y-79440500D01*
X163296486Y-79440500D01*
X163363525Y-79460185D01*
X163409280Y-79512989D01*
X163415146Y-79528504D01*
X163447604Y-79635502D01*
X163535862Y-79800623D01*
X163535864Y-79800626D01*
X163654642Y-79945357D01*
X163799373Y-80064135D01*
X163799376Y-80064137D01*
X163873097Y-80103541D01*
X163964499Y-80152396D01*
X164104971Y-80195008D01*
X164143666Y-80206746D01*
X164143668Y-80206747D01*
X164294443Y-80221597D01*
X164329791Y-80235870D01*
X164354605Y-80223172D01*
X164365556Y-80221597D01*
X164516331Y-80206747D01*
X164695501Y-80152396D01*
X164860625Y-80064136D01*
X165005357Y-79945357D01*
X165124136Y-79800625D01*
X165212396Y-79635501D01*
X165266747Y-79456331D01*
X165285099Y-79270000D01*
X165266747Y-79083669D01*
X165212396Y-78904499D01*
X165130706Y-78751666D01*
X165124137Y-78739376D01*
X165124135Y-78739373D01*
X165005357Y-78594642D01*
X164860626Y-78475864D01*
X164860623Y-78475862D01*
X164695502Y-78387604D01*
X164516333Y-78333253D01*
X164492029Y-78330859D01*
X164427243Y-78304697D01*
X164416505Y-78295137D01*
X164228421Y-78107052D01*
X164228414Y-78107046D01*
X164154729Y-78057812D01*
X164154729Y-78057813D01*
X164105491Y-78024913D01*
X163968917Y-77968343D01*
X163968907Y-77968340D01*
X163823920Y-77939500D01*
X163823918Y-77939500D01*
X161995638Y-77939500D01*
X161928599Y-77919815D01*
X161890099Y-77880597D01*
X161874002Y-77854499D01*
X161822712Y-77771344D01*
X161698656Y-77647288D01*
X161549334Y-77555186D01*
X161382797Y-77500001D01*
X161382795Y-77500000D01*
X161280016Y-77489500D01*
X161280009Y-77489500D01*
X161123279Y-77489500D01*
X161056240Y-77469815D01*
X161010485Y-77417011D01*
X161000541Y-77347853D01*
X161013370Y-77308089D01*
X161021670Y-77292200D01*
X161083909Y-77173049D01*
X161139886Y-76977418D01*
X161150500Y-76858037D01*
X161150499Y-75741964D01*
X161139886Y-75622582D01*
X161083909Y-75426951D01*
X160989698Y-75246593D01*
X160937684Y-75182803D01*
X160861109Y-75088890D01*
X160724402Y-74977421D01*
X160703407Y-74960302D01*
X160523049Y-74866091D01*
X160523048Y-74866090D01*
X160523045Y-74866089D01*
X160405829Y-74832550D01*
X160327418Y-74810114D01*
X160327415Y-74810113D01*
X160327413Y-74810113D01*
X160261102Y-74804217D01*
X160208037Y-74799500D01*
X160208032Y-74799500D01*
X159091971Y-74799500D01*
X159091965Y-74799500D01*
X159091964Y-74799501D01*
X159080316Y-74800536D01*
X158972584Y-74810113D01*
X158776954Y-74866089D01*
X158686772Y-74913196D01*
X158596593Y-74960302D01*
X158596591Y-74960303D01*
X158596590Y-74960304D01*
X158438890Y-75088890D01*
X158310304Y-75246590D01*
X158216089Y-75426954D01*
X158160114Y-75622583D01*
X158160113Y-75622586D01*
X158149500Y-75741966D01*
X158149500Y-76858028D01*
X158149501Y-76858034D01*
X158160113Y-76977415D01*
X158216089Y-77173045D01*
X158216090Y-77173047D01*
X158216091Y-77173049D01*
X158310302Y-77353407D01*
X158310304Y-77353410D01*
X158310305Y-77353411D01*
X158312865Y-77357296D01*
X158333316Y-77424106D01*
X158314400Y-77491366D01*
X158262124Y-77537723D01*
X158248330Y-77543231D01*
X158210884Y-77555640D01*
X158210875Y-77555643D01*
X158061654Y-77647684D01*
X157937684Y-77771654D01*
X157845643Y-77920875D01*
X157845641Y-77920880D01*
X157790494Y-78087302D01*
X157790493Y-78087309D01*
X157780000Y-78190013D01*
X156379445Y-78190013D01*
X156379445Y-71769394D01*
X156379761Y-71760546D01*
X156382551Y-71721545D01*
X156396126Y-71531788D01*
X156398644Y-71514281D01*
X156405357Y-71483423D01*
X156446454Y-71294510D01*
X156451434Y-71277552D01*
X156530033Y-71066823D01*
X156537375Y-71050747D01*
X156645168Y-70853337D01*
X156654718Y-70838477D01*
X156789511Y-70658411D01*
X156801080Y-70645059D01*
X156960123Y-70486011D01*
X156973478Y-70474439D01*
X157153532Y-70339647D01*
X157168393Y-70330096D01*
X157365798Y-70222298D01*
X157381885Y-70214950D01*
X157592600Y-70136350D01*
X157609571Y-70131366D01*
X157829333Y-70083551D01*
X157846835Y-70081033D01*
X158074790Y-70064719D01*
X158083642Y-70064403D01*
X158200800Y-70064403D01*
X158267839Y-70084088D01*
G37*
%TD.AperFunction*%
%TA.AperFunction,Conductor*%
G36*
X180153633Y-70084088D02*
G01*
X180174275Y-70100722D01*
X180855974Y-70782421D01*
X180824742Y-70795359D01*
X180701903Y-70877437D01*
X180597437Y-70981903D01*
X180515359Y-71104742D01*
X180502422Y-71135974D01*
X179777875Y-70411427D01*
X179777874Y-70411427D01*
X179730028Y-70471425D01*
X179598883Y-70698573D01*
X179503058Y-70942729D01*
X179444693Y-71198449D01*
X179444692Y-71198454D01*
X179425093Y-71459995D01*
X179425093Y-71460004D01*
X179444692Y-71721545D01*
X179444693Y-71721550D01*
X179503058Y-71977270D01*
X179598883Y-72221426D01*
X179598882Y-72221426D01*
X179730027Y-72448573D01*
X179777874Y-72508571D01*
X180502421Y-71784024D01*
X180515359Y-71815258D01*
X180597437Y-71938097D01*
X180701903Y-72042563D01*
X180824742Y-72124641D01*
X180855974Y-72137577D01*
X180130830Y-72862720D01*
X180131287Y-72867598D01*
X180167099Y-72911271D01*
X180175159Y-72980674D01*
X180144417Y-73043417D01*
X180122799Y-73062149D01*
X180085534Y-73087556D01*
X180085524Y-73087564D01*
X179893198Y-73266014D01*
X179729614Y-73471143D01*
X179598432Y-73698356D01*
X179502582Y-73942578D01*
X179502576Y-73942597D01*
X179444197Y-74198374D01*
X179444196Y-74198379D01*
X179424592Y-74459995D01*
X179424592Y-74460004D01*
X179444196Y-74721620D01*
X179444197Y-74721625D01*
X179502576Y-74977402D01*
X179502578Y-74977411D01*
X179502580Y-74977416D01*
X179598432Y-75221643D01*
X179729614Y-75448857D01*
X179850500Y-75600443D01*
X179893198Y-75653985D01*
X180044555Y-75794422D01*
X180085521Y-75832433D01*
X180302296Y-75980228D01*
X180302301Y-75980230D01*
X180302302Y-75980231D01*
X180302303Y-75980232D01*
X180427843Y-76040688D01*
X180538673Y-76094061D01*
X180538674Y-76094061D01*
X180538677Y-76094063D01*
X180789385Y-76171396D01*
X181048818Y-76210500D01*
X181311182Y-76210500D01*
X181570615Y-76171396D01*
X181821323Y-76094063D01*
X182057704Y-75980228D01*
X182274479Y-75832433D01*
X182466805Y-75653981D01*
X182630386Y-75448857D01*
X182761568Y-75221643D01*
X182857420Y-74977416D01*
X182915802Y-74721630D01*
X182935408Y-74460000D01*
X182921697Y-74277041D01*
X182915803Y-74198379D01*
X182915802Y-74198374D01*
X182915802Y-74198370D01*
X182857420Y-73942584D01*
X182761568Y-73698357D01*
X182630386Y-73471143D01*
X182466805Y-73266019D01*
X182466804Y-73266018D01*
X182466801Y-73266014D01*
X182342890Y-73151042D01*
X182274479Y-73087567D01*
X182245117Y-73067548D01*
X182237200Y-73062150D01*
X182192898Y-73008121D01*
X182184840Y-72938718D01*
X182215583Y-72875975D01*
X182229017Y-72864334D01*
X182229168Y-72862720D01*
X181504025Y-72137578D01*
X181535258Y-72124641D01*
X181658097Y-72042563D01*
X181762563Y-71938097D01*
X181844641Y-71815258D01*
X181857578Y-71784025D01*
X182582125Y-72508572D01*
X182629971Y-72448573D01*
X182761116Y-72221426D01*
X182856941Y-71977270D01*
X182915306Y-71721550D01*
X182915307Y-71721545D01*
X182934907Y-71460004D01*
X182934907Y-71459995D01*
X182915307Y-71198454D01*
X182915306Y-71198449D01*
X182856941Y-70942729D01*
X182761116Y-70698573D01*
X182761117Y-70698573D01*
X182629972Y-70471426D01*
X182582124Y-70411427D01*
X181857577Y-71135973D01*
X181844641Y-71104742D01*
X181762563Y-70981903D01*
X181658097Y-70877437D01*
X181535258Y-70795359D01*
X181504025Y-70782421D01*
X182185725Y-70100722D01*
X182247048Y-70067237D01*
X182273406Y-70064403D01*
X183796490Y-70064403D01*
X183863529Y-70084088D01*
X183909284Y-70136892D01*
X183919228Y-70206050D01*
X183893437Y-70265716D01*
X183893196Y-70266017D01*
X183893195Y-70266019D01*
X183834429Y-70339709D01*
X183729614Y-70471143D01*
X183598432Y-70698356D01*
X183502582Y-70942578D01*
X183502576Y-70942597D01*
X183444197Y-71198374D01*
X183444196Y-71198379D01*
X183424592Y-71459995D01*
X183424592Y-71460004D01*
X183444196Y-71721620D01*
X183444197Y-71721625D01*
X183502576Y-71977402D01*
X183502578Y-71977411D01*
X183502580Y-71977416D01*
X183598432Y-72221643D01*
X183729614Y-72448857D01*
X183848350Y-72597747D01*
X183893198Y-72653985D01*
X183936283Y-72693961D01*
X184085521Y-72832433D01*
X184112038Y-72850512D01*
X184122356Y-72857547D01*
X184166657Y-72911577D01*
X184174715Y-72980980D01*
X184143972Y-73043722D01*
X184122356Y-73062453D01*
X184085522Y-73087566D01*
X183893198Y-73266014D01*
X183729614Y-73471143D01*
X183598432Y-73698356D01*
X183502582Y-73942578D01*
X183502576Y-73942597D01*
X183444197Y-74198374D01*
X183444196Y-74198379D01*
X183424592Y-74459995D01*
X183424592Y-74460004D01*
X183444196Y-74721620D01*
X183444197Y-74721625D01*
X183502576Y-74977402D01*
X183502578Y-74977411D01*
X183502580Y-74977416D01*
X183598432Y-75221643D01*
X183729614Y-75448857D01*
X183850500Y-75600443D01*
X183893198Y-75653985D01*
X184044555Y-75794422D01*
X184085521Y-75832433D01*
X184302296Y-75980228D01*
X184302301Y-75980230D01*
X184302302Y-75980231D01*
X184302303Y-75980232D01*
X184427843Y-76040688D01*
X184538673Y-76094061D01*
X184538674Y-76094061D01*
X184538677Y-76094063D01*
X184789385Y-76171396D01*
X185048818Y-76210500D01*
X185311182Y-76210500D01*
X185570615Y-76171396D01*
X185821323Y-76094063D01*
X186057704Y-75980228D01*
X186274479Y-75832433D01*
X186466805Y-75653981D01*
X186630386Y-75448857D01*
X186761568Y-75221643D01*
X186857420Y-74977416D01*
X186915802Y-74721630D01*
X186935408Y-74460000D01*
X186921697Y-74277041D01*
X186915803Y-74198379D01*
X186915802Y-74198374D01*
X186915802Y-74198370D01*
X186857420Y-73942584D01*
X186761568Y-73698357D01*
X186630386Y-73471143D01*
X186466805Y-73266019D01*
X186466804Y-73266018D01*
X186466801Y-73266014D01*
X186274479Y-73087567D01*
X186245116Y-73067548D01*
X186237642Y-73062452D01*
X186193342Y-73008425D01*
X186185283Y-72939021D01*
X186216026Y-72876279D01*
X186237643Y-72857547D01*
X186274479Y-72832433D01*
X186466805Y-72653981D01*
X186630386Y-72448857D01*
X186761568Y-72221643D01*
X186857420Y-71977416D01*
X186915802Y-71721630D01*
X186915808Y-71721550D01*
X186935408Y-71460004D01*
X186935408Y-71459995D01*
X186915803Y-71198379D01*
X186915802Y-71198374D01*
X186915802Y-71198370D01*
X186857420Y-70942584D01*
X186761568Y-70698357D01*
X186630386Y-70471143D01*
X186466805Y-70266019D01*
X186466803Y-70266017D01*
X186466563Y-70265716D01*
X186440154Y-70201029D01*
X186452911Y-70132334D01*
X186500781Y-70081440D01*
X186563510Y-70064403D01*
X187796490Y-70064403D01*
X187863529Y-70084088D01*
X187909284Y-70136892D01*
X187919228Y-70206050D01*
X187893437Y-70265716D01*
X187893196Y-70266017D01*
X187893195Y-70266019D01*
X187834429Y-70339709D01*
X187729614Y-70471143D01*
X187598432Y-70698356D01*
X187502582Y-70942578D01*
X187502576Y-70942597D01*
X187444197Y-71198374D01*
X187444196Y-71198379D01*
X187424592Y-71459995D01*
X187424592Y-71460004D01*
X187444196Y-71721620D01*
X187444197Y-71721625D01*
X187502576Y-71977402D01*
X187502578Y-71977411D01*
X187502580Y-71977416D01*
X187598432Y-72221643D01*
X187729614Y-72448857D01*
X187848350Y-72597747D01*
X187893198Y-72653985D01*
X187936283Y-72693961D01*
X188085521Y-72832433D01*
X188112038Y-72850512D01*
X188122356Y-72857547D01*
X188166657Y-72911577D01*
X188174715Y-72980980D01*
X188143972Y-73043722D01*
X188122356Y-73062453D01*
X188085522Y-73087566D01*
X187893198Y-73266014D01*
X187729614Y-73471143D01*
X187598432Y-73698356D01*
X187502582Y-73942578D01*
X187502576Y-73942597D01*
X187444197Y-74198374D01*
X187444196Y-74198379D01*
X187424592Y-74459995D01*
X187424592Y-74460004D01*
X187444196Y-74721620D01*
X187444197Y-74721625D01*
X187502576Y-74977402D01*
X187502578Y-74977411D01*
X187502580Y-74977416D01*
X187598432Y-75221643D01*
X187729614Y-75448857D01*
X187850500Y-75600443D01*
X187893198Y-75653985D01*
X188044555Y-75794422D01*
X188085521Y-75832433D01*
X188302296Y-75980228D01*
X188302301Y-75980230D01*
X188302302Y-75980231D01*
X188302303Y-75980232D01*
X188427843Y-76040688D01*
X188538673Y-76094061D01*
X188538674Y-76094061D01*
X188538677Y-76094063D01*
X188789385Y-76171396D01*
X189048818Y-76210500D01*
X189311182Y-76210500D01*
X189570615Y-76171396D01*
X189821323Y-76094063D01*
X190057704Y-75980228D01*
X190274479Y-75832433D01*
X190466805Y-75653981D01*
X190630386Y-75448857D01*
X190761568Y-75221643D01*
X190857420Y-74977416D01*
X190915802Y-74721630D01*
X190935408Y-74460000D01*
X190921697Y-74277041D01*
X190915803Y-74198379D01*
X190915802Y-74198374D01*
X190915802Y-74198370D01*
X190857420Y-73942584D01*
X190761568Y-73698357D01*
X190630386Y-73471143D01*
X190466805Y-73266019D01*
X190466804Y-73266018D01*
X190466801Y-73266014D01*
X190274479Y-73087567D01*
X190245116Y-73067548D01*
X190237642Y-73062452D01*
X190193342Y-73008425D01*
X190185283Y-72939021D01*
X190216026Y-72876279D01*
X190237643Y-72857547D01*
X190274479Y-72832433D01*
X190466805Y-72653981D01*
X190630386Y-72448857D01*
X190761568Y-72221643D01*
X190857420Y-71977416D01*
X190915802Y-71721630D01*
X190915808Y-71721550D01*
X190935408Y-71460004D01*
X190935408Y-71459995D01*
X190915803Y-71198379D01*
X190915802Y-71198374D01*
X190915802Y-71198370D01*
X190857420Y-70942584D01*
X190761568Y-70698357D01*
X190630386Y-70471143D01*
X190466805Y-70266019D01*
X190466803Y-70266017D01*
X190466563Y-70265716D01*
X190440154Y-70201029D01*
X190452911Y-70132334D01*
X190500781Y-70081440D01*
X190563510Y-70064403D01*
X191305500Y-70064403D01*
X191372539Y-70084088D01*
X191418294Y-70136892D01*
X191429500Y-70188403D01*
X191429500Y-72757870D01*
X191429501Y-72757876D01*
X191435908Y-72817483D01*
X191486202Y-72952328D01*
X191486206Y-72952335D01*
X191572452Y-73067544D01*
X191572455Y-73067547D01*
X191687664Y-73153793D01*
X191687673Y-73153798D01*
X191734634Y-73171313D01*
X191754800Y-73178834D01*
X191810734Y-73220704D01*
X191835152Y-73286168D01*
X191820301Y-73354441D01*
X191808415Y-73372328D01*
X191729616Y-73471139D01*
X191598432Y-73698356D01*
X191502582Y-73942578D01*
X191502576Y-73942597D01*
X191444197Y-74198374D01*
X191444196Y-74198379D01*
X191424592Y-74459995D01*
X191424592Y-74460004D01*
X191444196Y-74721620D01*
X191444197Y-74721625D01*
X191502576Y-74977402D01*
X191502578Y-74977411D01*
X191502580Y-74977416D01*
X191598432Y-75221643D01*
X191729614Y-75448857D01*
X191850500Y-75600443D01*
X191893198Y-75653985D01*
X192044555Y-75794422D01*
X192085521Y-75832433D01*
X192302296Y-75980228D01*
X192302301Y-75980230D01*
X192302302Y-75980231D01*
X192302303Y-75980232D01*
X192427843Y-76040688D01*
X192538673Y-76094061D01*
X192538674Y-76094061D01*
X192538677Y-76094063D01*
X192789385Y-76171396D01*
X193048818Y-76210500D01*
X193311182Y-76210500D01*
X193570615Y-76171396D01*
X193821323Y-76094063D01*
X194057704Y-75980228D01*
X194274479Y-75832433D01*
X194466805Y-75653981D01*
X194630386Y-75448857D01*
X194761568Y-75221643D01*
X194857420Y-74977416D01*
X194915802Y-74721630D01*
X194935408Y-74460000D01*
X194921697Y-74277041D01*
X194915803Y-74198379D01*
X194915802Y-74198374D01*
X194915802Y-74198370D01*
X194857420Y-73942584D01*
X194761568Y-73698357D01*
X194630386Y-73471143D01*
X194551583Y-73372327D01*
X194525176Y-73307642D01*
X194537932Y-73238947D01*
X194585802Y-73188053D01*
X194605188Y-73178838D01*
X194672331Y-73153796D01*
X194787546Y-73067546D01*
X194862859Y-72966940D01*
X194918790Y-72925072D01*
X194988481Y-72920088D01*
X195049804Y-72953573D01*
X195083289Y-73014896D01*
X195085897Y-73033767D01*
X195104786Y-73346038D01*
X195163667Y-73667341D01*
X195260835Y-73979164D01*
X195260839Y-73979175D01*
X195394897Y-74277041D01*
X195394898Y-74277043D01*
X195563881Y-74556576D01*
X195711476Y-74744968D01*
X196853708Y-73602736D01*
X196950967Y-73736602D01*
X197073398Y-73859033D01*
X197207262Y-73956290D01*
X196065030Y-75098522D01*
X196065030Y-75098523D01*
X196253423Y-75246118D01*
X196532956Y-75415101D01*
X196532958Y-75415102D01*
X196830824Y-75549160D01*
X196830835Y-75549164D01*
X197142658Y-75646332D01*
X197463961Y-75705213D01*
X197790000Y-75724934D01*
X198116038Y-75705213D01*
X198437341Y-75646332D01*
X198749164Y-75549164D01*
X198749175Y-75549160D01*
X199047041Y-75415102D01*
X199047043Y-75415101D01*
X199326586Y-75246112D01*
X199514968Y-75098523D01*
X199514968Y-75098522D01*
X198372737Y-73956290D01*
X198506602Y-73859033D01*
X198629033Y-73736602D01*
X198726290Y-73602737D01*
X199868522Y-74744968D01*
X199868523Y-74744968D01*
X200016112Y-74556586D01*
X200185101Y-74277043D01*
X200185102Y-74277041D01*
X200319160Y-73979175D01*
X200319164Y-73979164D01*
X200416332Y-73667341D01*
X200475213Y-73346038D01*
X200494934Y-73020000D01*
X200475213Y-72693961D01*
X200416332Y-72372658D01*
X200319164Y-72060835D01*
X200319160Y-72060824D01*
X200185102Y-71762958D01*
X200185101Y-71762956D01*
X200016118Y-71483423D01*
X199868522Y-71295030D01*
X198726290Y-72437262D01*
X198629033Y-72303398D01*
X198506602Y-72180967D01*
X198372736Y-72083709D01*
X199514968Y-70941476D01*
X199326576Y-70793881D01*
X199047043Y-70624898D01*
X199047041Y-70624897D01*
X198749175Y-70490839D01*
X198749164Y-70490835D01*
X198437341Y-70393667D01*
X198116038Y-70334786D01*
X197790000Y-70315065D01*
X197463961Y-70334786D01*
X197142658Y-70393667D01*
X196830835Y-70490835D01*
X196830824Y-70490839D01*
X196532958Y-70624897D01*
X196532956Y-70624898D01*
X196253422Y-70793881D01*
X196253416Y-70793886D01*
X196065030Y-70941474D01*
X196065029Y-70941476D01*
X197207262Y-72083709D01*
X197073398Y-72180967D01*
X196950967Y-72303398D01*
X196853709Y-72437262D01*
X195711476Y-71295029D01*
X195711474Y-71295030D01*
X195563886Y-71483416D01*
X195563881Y-71483422D01*
X195394898Y-71762956D01*
X195394897Y-71762958D01*
X195260839Y-72060824D01*
X195260836Y-72060831D01*
X195172884Y-72343079D01*
X195134146Y-72401226D01*
X195070121Y-72429200D01*
X195001136Y-72418118D01*
X194949093Y-72371499D01*
X194930499Y-72306190D01*
X194930499Y-70188402D01*
X194950184Y-70121364D01*
X195002988Y-70075609D01*
X195054499Y-70064403D01*
X199073668Y-70064403D01*
X199082524Y-70064720D01*
X199117675Y-70067237D01*
X199311028Y-70081082D01*
X199328532Y-70083599D01*
X199548311Y-70131424D01*
X199565261Y-70136402D01*
X199775997Y-70215013D01*
X199792073Y-70222355D01*
X199989472Y-70330149D01*
X200004346Y-70339709D01*
X200184391Y-70474492D01*
X200197759Y-70486075D01*
X200356788Y-70645097D01*
X200368372Y-70658465D01*
X200398237Y-70698357D01*
X200503155Y-70838500D01*
X200512720Y-70853381D01*
X200557980Y-70936257D01*
X200561435Y-70942584D01*
X200620518Y-71050770D01*
X200627863Y-71066851D01*
X200676931Y-71198374D01*
X200706476Y-71277569D01*
X200711461Y-71294541D01*
X200759290Y-71514303D01*
X200761809Y-71531812D01*
X200778128Y-71759591D01*
X200778445Y-71768452D01*
X200778445Y-97650422D01*
X200758760Y-97717461D01*
X200705956Y-97763216D01*
X200636798Y-97773160D01*
X200573242Y-97744135D01*
X200562295Y-97733394D01*
X200482235Y-97644478D01*
X200482232Y-97644476D01*
X200482231Y-97644475D01*
X200482230Y-97644474D01*
X200337593Y-97539388D01*
X200174267Y-97466671D01*
X200174265Y-97466670D01*
X200037473Y-97437594D01*
X200009989Y-97431752D01*
X199948508Y-97398561D01*
X199948090Y-97398144D01*
X199339480Y-96789534D01*
X199305995Y-96728211D01*
X199310979Y-96658519D01*
X199352851Y-96602586D01*
X199355981Y-96600319D01*
X199501401Y-96498495D01*
X199668495Y-96331401D01*
X199804035Y-96137830D01*
X199903903Y-95923663D01*
X199965063Y-95695408D01*
X199985659Y-95460000D01*
X199965063Y-95224592D01*
X199903903Y-94996337D01*
X199804035Y-94782171D01*
X199759341Y-94718340D01*
X199668494Y-94588597D01*
X199501402Y-94421506D01*
X199501396Y-94421501D01*
X199315842Y-94291575D01*
X199272217Y-94236998D01*
X199265023Y-94167500D01*
X199296546Y-94105145D01*
X199315842Y-94088425D01*
X199360290Y-94057302D01*
X199501401Y-93958495D01*
X199668495Y-93791401D01*
X199804035Y-93597830D01*
X199903903Y-93383663D01*
X199965063Y-93155408D01*
X199985659Y-92920000D01*
X199965063Y-92684592D01*
X199903903Y-92456337D01*
X199804035Y-92242171D01*
X199791862Y-92224785D01*
X199668494Y-92048597D01*
X199501402Y-91881506D01*
X199501396Y-91881501D01*
X199315842Y-91751575D01*
X199272217Y-91696998D01*
X199265023Y-91627500D01*
X199296546Y-91565145D01*
X199315842Y-91548425D01*
X199349422Y-91524912D01*
X199501401Y-91418495D01*
X199668495Y-91251401D01*
X199804035Y-91057830D01*
X199903903Y-90843663D01*
X199965063Y-90615408D01*
X199985659Y-90380000D01*
X199965063Y-90144592D01*
X199903903Y-89916337D01*
X199804035Y-89702171D01*
X199716625Y-89577335D01*
X199668494Y-89508597D01*
X199501402Y-89341506D01*
X199501396Y-89341501D01*
X199315842Y-89211575D01*
X199272217Y-89156998D01*
X199265023Y-89087500D01*
X199296546Y-89025145D01*
X199315842Y-89008425D01*
X199338026Y-88992891D01*
X199501401Y-88878495D01*
X199668495Y-88711401D01*
X199804035Y-88517830D01*
X199903903Y-88303663D01*
X199965063Y-88075408D01*
X199985659Y-87840000D01*
X199965063Y-87604592D01*
X199903903Y-87376337D01*
X199804035Y-87162171D01*
X199786919Y-87137727D01*
X199668496Y-86968600D01*
X199667666Y-86967770D01*
X199546567Y-86846671D01*
X199513084Y-86785351D01*
X199518068Y-86715659D01*
X199559939Y-86659725D01*
X199590915Y-86642810D01*
X199722331Y-86593796D01*
X199837546Y-86507546D01*
X199923796Y-86392331D01*
X199974091Y-86257483D01*
X199980500Y-86197873D01*
X199980499Y-84402128D01*
X199974091Y-84342517D01*
X199944307Y-84262663D01*
X199923797Y-84207671D01*
X199923793Y-84207664D01*
X199837547Y-84092455D01*
X199837544Y-84092452D01*
X199722335Y-84006206D01*
X199722328Y-84006202D01*
X199587482Y-83955908D01*
X199587483Y-83955908D01*
X199527883Y-83949501D01*
X199527881Y-83949500D01*
X199527873Y-83949500D01*
X199527864Y-83949500D01*
X197732129Y-83949500D01*
X197732123Y-83949501D01*
X197672516Y-83955908D01*
X197537671Y-84006202D01*
X197537664Y-84006206D01*
X197422455Y-84092452D01*
X197422452Y-84092455D01*
X197336206Y-84207664D01*
X197336202Y-84207671D01*
X197285908Y-84342517D01*
X197279501Y-84402116D01*
X197279501Y-84402123D01*
X197279500Y-84402135D01*
X197279500Y-86197870D01*
X197279501Y-86197876D01*
X197285908Y-86257483D01*
X197336202Y-86392328D01*
X197336206Y-86392335D01*
X197422452Y-86507544D01*
X197422455Y-86507547D01*
X197537664Y-86593793D01*
X197537671Y-86593797D01*
X197669081Y-86642810D01*
X197725015Y-86684681D01*
X197749432Y-86750145D01*
X197734580Y-86818418D01*
X197713430Y-86846673D01*
X197591503Y-86968600D01*
X197455965Y-87162169D01*
X197455964Y-87162171D01*
X197356098Y-87376335D01*
X197356094Y-87376344D01*
X197294938Y-87604586D01*
X197294936Y-87604596D01*
X197274341Y-87839999D01*
X197274341Y-87840000D01*
X197294936Y-88075403D01*
X197294938Y-88075413D01*
X197356094Y-88303655D01*
X197356096Y-88303659D01*
X197356097Y-88303663D01*
X197381343Y-88357803D01*
X197455965Y-88517830D01*
X197455967Y-88517834D01*
X197499975Y-88580683D01*
X197580108Y-88695125D01*
X197591501Y-88711395D01*
X197591506Y-88711402D01*
X197758597Y-88878493D01*
X197758603Y-88878498D01*
X197944158Y-89008425D01*
X197987783Y-89063002D01*
X197994977Y-89132500D01*
X197963454Y-89194855D01*
X197944158Y-89211575D01*
X197758597Y-89341505D01*
X197591505Y-89508597D01*
X197455965Y-89702169D01*
X197455964Y-89702171D01*
X197356098Y-89916335D01*
X197356094Y-89916344D01*
X197294938Y-90144586D01*
X197294936Y-90144596D01*
X197274341Y-90379999D01*
X197274341Y-90380000D01*
X197294936Y-90615403D01*
X197294938Y-90615413D01*
X197356094Y-90843655D01*
X197356096Y-90843659D01*
X197356097Y-90843663D01*
X197379257Y-90893329D01*
X197455965Y-91057830D01*
X197455967Y-91057834D01*
X197591501Y-91251395D01*
X197591506Y-91251402D01*
X197758597Y-91418493D01*
X197758603Y-91418498D01*
X197944158Y-91548425D01*
X197987783Y-91603002D01*
X197994977Y-91672500D01*
X197963454Y-91734855D01*
X197944158Y-91751575D01*
X197758597Y-91881505D01*
X197591505Y-92048597D01*
X197455965Y-92242169D01*
X197455964Y-92242171D01*
X197356098Y-92456335D01*
X197356094Y-92456344D01*
X197294938Y-92684586D01*
X197294936Y-92684596D01*
X197274341Y-92919999D01*
X197274341Y-92920000D01*
X197294936Y-93155403D01*
X197294938Y-93155413D01*
X197356094Y-93383655D01*
X197356096Y-93383659D01*
X197356097Y-93383663D01*
X197440890Y-93565501D01*
X197455965Y-93597830D01*
X197455967Y-93597834D01*
X197591501Y-93791395D01*
X197591506Y-93791402D01*
X197758597Y-93958493D01*
X197758603Y-93958498D01*
X197944158Y-94088425D01*
X197987783Y-94143002D01*
X197994977Y-94212500D01*
X197963454Y-94274855D01*
X197944158Y-94291575D01*
X197758597Y-94421505D01*
X197591505Y-94588597D01*
X197455965Y-94782169D01*
X197455964Y-94782171D01*
X197356098Y-94996335D01*
X197356094Y-94996344D01*
X197294938Y-95224586D01*
X197294936Y-95224596D01*
X197274341Y-95459999D01*
X197274341Y-95460000D01*
X197294936Y-95695403D01*
X197294938Y-95695413D01*
X197356094Y-95923655D01*
X197356096Y-95923659D01*
X197356097Y-95923663D01*
X197358227Y-95928230D01*
X197455964Y-96137829D01*
X197455965Y-96137830D01*
X197523568Y-96234377D01*
X197545895Y-96300582D01*
X197528885Y-96368350D01*
X197477937Y-96416163D01*
X197421993Y-96429500D01*
X193234500Y-96429500D01*
X193167461Y-96409815D01*
X193121706Y-96357011D01*
X193110500Y-96305500D01*
X193110500Y-94522286D01*
X193110499Y-94522272D01*
X193104105Y-94473706D01*
X193095687Y-94409764D01*
X193037698Y-94269767D01*
X192945451Y-94149549D01*
X192825233Y-94057302D01*
X192825229Y-94057300D01*
X192753712Y-94027677D01*
X192685236Y-93999313D01*
X192671171Y-93997461D01*
X192572727Y-93984500D01*
X192572720Y-93984500D01*
X192047280Y-93984500D01*
X192047272Y-93984500D01*
X191934764Y-93999313D01*
X191934763Y-93999313D01*
X191794766Y-94057301D01*
X191750486Y-94091279D01*
X191685316Y-94116473D01*
X191616871Y-94102434D01*
X191599514Y-94091279D01*
X191555233Y-94057301D01*
X191456239Y-94016297D01*
X191415236Y-93999313D01*
X191401171Y-93997461D01*
X191302727Y-93984500D01*
X191302720Y-93984500D01*
X190777280Y-93984500D01*
X190777272Y-93984500D01*
X190664764Y-93999313D01*
X190664763Y-93999313D01*
X190524766Y-94057301D01*
X190480486Y-94091279D01*
X190415316Y-94116473D01*
X190346871Y-94102434D01*
X190329514Y-94091279D01*
X190285233Y-94057301D01*
X190186239Y-94016297D01*
X190145236Y-93999313D01*
X190131171Y-93997461D01*
X190032727Y-93984500D01*
X190032720Y-93984500D01*
X189507280Y-93984500D01*
X189507272Y-93984500D01*
X189394764Y-93999313D01*
X189394763Y-93999313D01*
X189254766Y-94057301D01*
X189210486Y-94091279D01*
X189145316Y-94116473D01*
X189076871Y-94102434D01*
X189059514Y-94091279D01*
X189015233Y-94057301D01*
X188916239Y-94016297D01*
X188875236Y-93999313D01*
X188861171Y-93997461D01*
X188762727Y-93984500D01*
X188762720Y-93984500D01*
X188237280Y-93984500D01*
X188237272Y-93984500D01*
X188124764Y-93999313D01*
X188124763Y-93999313D01*
X187984766Y-94057301D01*
X187940486Y-94091279D01*
X187875316Y-94116473D01*
X187806871Y-94102434D01*
X187789514Y-94091279D01*
X187745233Y-94057301D01*
X187646239Y-94016297D01*
X187605236Y-93999313D01*
X187591171Y-93997461D01*
X187492727Y-93984500D01*
X187492720Y-93984500D01*
X186967280Y-93984500D01*
X186967272Y-93984500D01*
X186854764Y-93999313D01*
X186854763Y-93999313D01*
X186714766Y-94057301D01*
X186670486Y-94091279D01*
X186605316Y-94116473D01*
X186536871Y-94102434D01*
X186519514Y-94091279D01*
X186475233Y-94057301D01*
X186376239Y-94016297D01*
X186335236Y-93999313D01*
X186321171Y-93997461D01*
X186222727Y-93984500D01*
X186222720Y-93984500D01*
X185697280Y-93984500D01*
X185697272Y-93984500D01*
X185584764Y-93999313D01*
X185584763Y-93999313D01*
X185444766Y-94057301D01*
X185400486Y-94091279D01*
X185335316Y-94116473D01*
X185266871Y-94102434D01*
X185249514Y-94091279D01*
X185205233Y-94057301D01*
X185106239Y-94016297D01*
X185065236Y-93999313D01*
X185051171Y-93997461D01*
X184952727Y-93984500D01*
X184952720Y-93984500D01*
X184427280Y-93984500D01*
X184427272Y-93984500D01*
X184314764Y-93999313D01*
X184314763Y-93999313D01*
X184174766Y-94057301D01*
X184130486Y-94091279D01*
X184065316Y-94116473D01*
X183996871Y-94102434D01*
X183979514Y-94091279D01*
X183935233Y-94057301D01*
X183836239Y-94016297D01*
X183795236Y-93999313D01*
X183781171Y-93997461D01*
X183682727Y-93984500D01*
X183682720Y-93984500D01*
X183157280Y-93984500D01*
X183157274Y-93984500D01*
X183157270Y-93984501D01*
X183040685Y-93999850D01*
X182971650Y-93989084D01*
X182919394Y-93942705D01*
X182900500Y-93876911D01*
X182900500Y-90106079D01*
X182887261Y-90039526D01*
X182871659Y-89961088D01*
X182817408Y-89830117D01*
X182815765Y-89825526D01*
X182815084Y-89824508D01*
X182815084Y-89824506D01*
X182815084Y-89824505D01*
X182753385Y-89732165D01*
X182732952Y-89701585D01*
X182732950Y-89701582D01*
X180086819Y-87055451D01*
X180053334Y-86994128D01*
X180050500Y-86967770D01*
X180050500Y-82552230D01*
X180070185Y-82485191D01*
X180086819Y-82464549D01*
X180304549Y-82246819D01*
X180365872Y-82213334D01*
X180392230Y-82210500D01*
X180655411Y-82210500D01*
X180722450Y-82230185D01*
X180768205Y-82282989D01*
X180778700Y-82347758D01*
X180775000Y-82382160D01*
X180775000Y-82480000D01*
X182276000Y-82480000D01*
X182343039Y-82499685D01*
X182388794Y-82552489D01*
X182400000Y-82604000D01*
X182400000Y-82856000D01*
X182380315Y-82923039D01*
X182327511Y-82968794D01*
X182276000Y-82980000D01*
X180775000Y-82980000D01*
X180775000Y-83077844D01*
X180781401Y-83137372D01*
X180781403Y-83137379D01*
X180831645Y-83272086D01*
X180831648Y-83272092D01*
X180845259Y-83290274D01*
X180869675Y-83355739D01*
X180854822Y-83424012D01*
X180845260Y-83438892D01*
X180831203Y-83457670D01*
X180831202Y-83457671D01*
X180785474Y-83580277D01*
X180780909Y-83592517D01*
X180774500Y-83652127D01*
X180774500Y-83652134D01*
X180774500Y-83652135D01*
X180774500Y-84347870D01*
X180774501Y-84347876D01*
X180780908Y-84407483D01*
X180831202Y-84542328D01*
X180831206Y-84542335D01*
X180917452Y-84657544D01*
X180917455Y-84657547D01*
X181032664Y-84743793D01*
X181032671Y-84743797D01*
X181077618Y-84760561D01*
X181167517Y-84794091D01*
X181227127Y-84800500D01*
X181362124Y-84800499D01*
X181429163Y-84820183D01*
X181474918Y-84872987D01*
X181484862Y-84942145D01*
X181460501Y-84999984D01*
X181422301Y-85049767D01*
X181422300Y-85049769D01*
X181364313Y-85189763D01*
X181364313Y-85189764D01*
X181349500Y-85302272D01*
X181349500Y-87137727D01*
X181360962Y-87224782D01*
X181364313Y-87250236D01*
X181422302Y-87390233D01*
X181514549Y-87510451D01*
X181634767Y-87602698D01*
X181774764Y-87660687D01*
X181881586Y-87674750D01*
X181883474Y-87674999D01*
X181887280Y-87675500D01*
X181887287Y-87675500D01*
X182412713Y-87675500D01*
X182412720Y-87675500D01*
X182525236Y-87660687D01*
X182665233Y-87602698D01*
X182709514Y-87568720D01*
X182774683Y-87543526D01*
X182843128Y-87557564D01*
X182860486Y-87568720D01*
X182904767Y-87602698D01*
X183044764Y-87660687D01*
X183151586Y-87674750D01*
X183153474Y-87674999D01*
X183157280Y-87675500D01*
X183157287Y-87675500D01*
X183682713Y-87675500D01*
X183682720Y-87675500D01*
X183795236Y-87660687D01*
X183935233Y-87602698D01*
X183979514Y-87568720D01*
X184044683Y-87543526D01*
X184113128Y-87557564D01*
X184130486Y-87568720D01*
X184174767Y-87602698D01*
X184314764Y-87660687D01*
X184421586Y-87674750D01*
X184423474Y-87674999D01*
X184427280Y-87675500D01*
X184427287Y-87675500D01*
X184952713Y-87675500D01*
X184952720Y-87675500D01*
X185065236Y-87660687D01*
X185205233Y-87602698D01*
X185249514Y-87568720D01*
X185314683Y-87543526D01*
X185383128Y-87557564D01*
X185400486Y-87568720D01*
X185444767Y-87602698D01*
X185584764Y-87660687D01*
X185691586Y-87674750D01*
X185693474Y-87674999D01*
X185697280Y-87675500D01*
X185697287Y-87675500D01*
X186222713Y-87675500D01*
X186222720Y-87675500D01*
X186335236Y-87660687D01*
X186475233Y-87602698D01*
X186519514Y-87568720D01*
X186584683Y-87543526D01*
X186653128Y-87557564D01*
X186670486Y-87568720D01*
X186714767Y-87602698D01*
X186854764Y-87660687D01*
X186961586Y-87674750D01*
X186963474Y-87674999D01*
X186967280Y-87675500D01*
X186967287Y-87675500D01*
X187492713Y-87675500D01*
X187492720Y-87675500D01*
X187605236Y-87660687D01*
X187745233Y-87602698D01*
X187789514Y-87568720D01*
X187854683Y-87543526D01*
X187923128Y-87557564D01*
X187940486Y-87568720D01*
X187984767Y-87602698D01*
X188124764Y-87660687D01*
X188231586Y-87674750D01*
X188233474Y-87674999D01*
X188237280Y-87675500D01*
X188237287Y-87675500D01*
X188762713Y-87675500D01*
X188762720Y-87675500D01*
X188875236Y-87660687D01*
X188948048Y-87630526D01*
X189017516Y-87623058D01*
X189079995Y-87654333D01*
X189115648Y-87714422D01*
X189119500Y-87745088D01*
X189119500Y-87871770D01*
X189113431Y-87910088D01*
X189083504Y-88002192D01*
X189083503Y-88002194D01*
X189064815Y-88180000D01*
X189083503Y-88357805D01*
X189083504Y-88357807D01*
X189138747Y-88527829D01*
X189138750Y-88527835D01*
X189228141Y-88682665D01*
X189254010Y-88711395D01*
X189347764Y-88815521D01*
X189347767Y-88815523D01*
X189347770Y-88815526D01*
X189492407Y-88920612D01*
X189655733Y-88993329D01*
X189830609Y-89030500D01*
X189830610Y-89030500D01*
X190009389Y-89030500D01*
X190009391Y-89030500D01*
X190184267Y-88993329D01*
X190347593Y-88920612D01*
X190492230Y-88815526D01*
X190600642Y-88695122D01*
X190660125Y-88658477D01*
X190729982Y-88659806D01*
X190780470Y-88690416D01*
X192211371Y-90121317D01*
X192244856Y-90182640D01*
X192247010Y-90196031D01*
X192253503Y-90257803D01*
X192253504Y-90257805D01*
X192253504Y-90257807D01*
X192308747Y-90427829D01*
X192308750Y-90427835D01*
X192398141Y-90582665D01*
X192427619Y-90615403D01*
X192517764Y-90715521D01*
X192517767Y-90715523D01*
X192517770Y-90715526D01*
X192662407Y-90820612D01*
X192825733Y-90893329D01*
X193000609Y-90930500D01*
X193000610Y-90930500D01*
X193179389Y-90930500D01*
X193179391Y-90930500D01*
X193354267Y-90893329D01*
X193517593Y-90820612D01*
X193662230Y-90715526D01*
X193781859Y-90582665D01*
X193871250Y-90427835D01*
X193926497Y-90257803D01*
X193945185Y-90080000D01*
X193926497Y-89902197D01*
X193871250Y-89732165D01*
X193781859Y-89577335D01*
X193719967Y-89508597D01*
X193662235Y-89444478D01*
X193662232Y-89444476D01*
X193662231Y-89444475D01*
X193662230Y-89444474D01*
X193517593Y-89339388D01*
X193354267Y-89266671D01*
X193354265Y-89266670D01*
X193217473Y-89237594D01*
X193189989Y-89231752D01*
X193128508Y-89198561D01*
X193128090Y-89198144D01*
X191787174Y-87857228D01*
X191753689Y-87795905D01*
X191758673Y-87726213D01*
X191800545Y-87670280D01*
X191866009Y-87645863D01*
X191922308Y-87654986D01*
X191934895Y-87660199D01*
X192047302Y-87674999D01*
X192047317Y-87675000D01*
X192060000Y-87675000D01*
X192560000Y-87675000D01*
X192572683Y-87675000D01*
X192572697Y-87674999D01*
X192685104Y-87660199D01*
X192685108Y-87660198D01*
X192824978Y-87602263D01*
X192945094Y-87510094D01*
X193037263Y-87389978D01*
X193095198Y-87250108D01*
X193095199Y-87250104D01*
X193109999Y-87137697D01*
X193110000Y-87137683D01*
X193110000Y-86470000D01*
X192560000Y-86470000D01*
X192560000Y-87675000D01*
X192060000Y-87675000D01*
X192060000Y-85970000D01*
X192560000Y-85970000D01*
X193110000Y-85970000D01*
X193110000Y-85302316D01*
X193109999Y-85302302D01*
X193095199Y-85189895D01*
X193095198Y-85189891D01*
X193037263Y-85050021D01*
X192945094Y-84929905D01*
X192824978Y-84837736D01*
X192685108Y-84779801D01*
X192685104Y-84779800D01*
X192572697Y-84765000D01*
X192560000Y-84765000D01*
X192560000Y-85970000D01*
X192060000Y-85970000D01*
X192060000Y-84765000D01*
X192047302Y-84765000D01*
X191934895Y-84779800D01*
X191934891Y-84779801D01*
X191795019Y-84837737D01*
X191750894Y-84871595D01*
X191685724Y-84896788D01*
X191617280Y-84882749D01*
X191599924Y-84871595D01*
X191555233Y-84837302D01*
X191555229Y-84837300D01*
X191491801Y-84811027D01*
X191415236Y-84779313D01*
X191401171Y-84777461D01*
X191302727Y-84764500D01*
X191302720Y-84764500D01*
X190777280Y-84764500D01*
X190777272Y-84764500D01*
X190664764Y-84779313D01*
X190664763Y-84779313D01*
X190524766Y-84837301D01*
X190480486Y-84871279D01*
X190415316Y-84896473D01*
X190346871Y-84882434D01*
X190329514Y-84871279D01*
X190285233Y-84837301D01*
X190168436Y-84788923D01*
X190145236Y-84779313D01*
X190131171Y-84777461D01*
X190032727Y-84764500D01*
X190032720Y-84764500D01*
X189507280Y-84764500D01*
X189507272Y-84764500D01*
X189394764Y-84779313D01*
X189394763Y-84779313D01*
X189254766Y-84837301D01*
X189210486Y-84871279D01*
X189145316Y-84896473D01*
X189076871Y-84882434D01*
X189059514Y-84871279D01*
X189008785Y-84832354D01*
X189010314Y-84830361D01*
X188970798Y-84788923D01*
X188957570Y-84720317D01*
X188981743Y-84657783D01*
X189068352Y-84542089D01*
X189068354Y-84542086D01*
X189118596Y-84407379D01*
X189118598Y-84407372D01*
X189124999Y-84347844D01*
X189125000Y-84347827D01*
X189125000Y-84250000D01*
X186375000Y-84250000D01*
X186375000Y-84347844D01*
X186381401Y-84407372D01*
X186381403Y-84407379D01*
X186431645Y-84542086D01*
X186431646Y-84542088D01*
X186463274Y-84584337D01*
X186487691Y-84649801D01*
X186472840Y-84718074D01*
X186423435Y-84767480D01*
X186355162Y-84782332D01*
X186343297Y-84780337D01*
X186343293Y-84780374D01*
X186335236Y-84779313D01*
X186315451Y-84776708D01*
X186222727Y-84764500D01*
X186222720Y-84764500D01*
X185697280Y-84764500D01*
X185697272Y-84764500D01*
X185584764Y-84779313D01*
X185584763Y-84779313D01*
X185444766Y-84837301D01*
X185400486Y-84871279D01*
X185335316Y-84896473D01*
X185266871Y-84882434D01*
X185249514Y-84871279D01*
X185205233Y-84837301D01*
X185088436Y-84788923D01*
X185065236Y-84779313D01*
X185051171Y-84777461D01*
X184952727Y-84764500D01*
X184952720Y-84764500D01*
X184792718Y-84764500D01*
X184725679Y-84744815D01*
X184679924Y-84692011D01*
X184669980Y-84622853D01*
X184674057Y-84604506D01*
X184675501Y-84599743D01*
X184700500Y-84474071D01*
X184700500Y-82039808D01*
X184720185Y-81972769D01*
X184772989Y-81927014D01*
X184842147Y-81917070D01*
X184905703Y-81946095D01*
X184912181Y-81952127D01*
X186195325Y-83235272D01*
X186195332Y-83235278D01*
X186284219Y-83294670D01*
X186284220Y-83294670D01*
X186301873Y-83306465D01*
X186329851Y-83318054D01*
X186352665Y-83327504D01*
X186407068Y-83371345D01*
X186429133Y-83437639D01*
X186421394Y-83485398D01*
X186381403Y-83592619D01*
X186381401Y-83592627D01*
X186375000Y-83652155D01*
X186375000Y-83750000D01*
X189148591Y-83750000D01*
X189215630Y-83769685D01*
X189247855Y-83799686D01*
X189272454Y-83832546D01*
X189309595Y-83860350D01*
X189387664Y-83918793D01*
X189387671Y-83918797D01*
X189522517Y-83969091D01*
X189522516Y-83969091D01*
X189529444Y-83969835D01*
X189582127Y-83975500D01*
X190577872Y-83975499D01*
X190637483Y-83969091D01*
X190772331Y-83918796D01*
X190772334Y-83918793D01*
X190779149Y-83915072D01*
X190847420Y-83900212D01*
X190912887Y-83924621D01*
X190926269Y-83936216D01*
X191005328Y-84015275D01*
X191079035Y-84064524D01*
X191079034Y-84064524D01*
X191103690Y-84080997D01*
X191111873Y-84086465D01*
X191230256Y-84135501D01*
X191230260Y-84135501D01*
X191230261Y-84135502D01*
X191355928Y-84160500D01*
X191355931Y-84160500D01*
X194224071Y-84160500D01*
X194308615Y-84143682D01*
X194349744Y-84135501D01*
X194468127Y-84086465D01*
X194500966Y-84064523D01*
X194574669Y-84015277D01*
X195295277Y-83294669D01*
X195366466Y-83188126D01*
X195415501Y-83069743D01*
X195440500Y-82944069D01*
X195440500Y-82815931D01*
X195440500Y-80615931D01*
X195440500Y-80615928D01*
X195415502Y-80490261D01*
X195415501Y-80490260D01*
X195415501Y-80490256D01*
X195366465Y-80371873D01*
X195327485Y-80313535D01*
X195311381Y-80289433D01*
X195295279Y-80265333D01*
X195295277Y-80265331D01*
X194319674Y-79289727D01*
X194319673Y-79289726D01*
X194319669Y-79289723D01*
X194213127Y-79218535D01*
X194094744Y-79169499D01*
X194094738Y-79169497D01*
X193969071Y-79144500D01*
X193969069Y-79144500D01*
X193635638Y-79144500D01*
X193568599Y-79124815D01*
X193530099Y-79085597D01*
X193528910Y-79083669D01*
X193462712Y-78976344D01*
X193369049Y-78882681D01*
X193335564Y-78821358D01*
X193340548Y-78751666D01*
X193369049Y-78707319D01*
X193369429Y-78706939D01*
X193462712Y-78613656D01*
X193554814Y-78464334D01*
X193609999Y-78297797D01*
X193620500Y-78195009D01*
X193620499Y-77394992D01*
X193616251Y-77353411D01*
X193609999Y-77292203D01*
X193609998Y-77292200D01*
X193596088Y-77250223D01*
X193554814Y-77125666D01*
X193462712Y-76976344D01*
X193338656Y-76852288D01*
X193189334Y-76760186D01*
X193022797Y-76705001D01*
X193022795Y-76705000D01*
X192920010Y-76694500D01*
X191919998Y-76694500D01*
X191919980Y-76694501D01*
X191817203Y-76705000D01*
X191817200Y-76705001D01*
X191650668Y-76760185D01*
X191650659Y-76760189D01*
X191633070Y-76771039D01*
X191567974Y-76789500D01*
X190336454Y-76789500D01*
X190304391Y-76795876D01*
X190304392Y-76795877D01*
X190143170Y-76827946D01*
X190143164Y-76827948D01*
X189961088Y-76903366D01*
X189961079Y-76903371D01*
X189797222Y-77012857D01*
X189797217Y-77012861D01*
X189695066Y-77115010D01*
X189633742Y-77148495D01*
X189625978Y-77149895D01*
X189487686Y-77190503D01*
X189356918Y-77250223D01*
X189356908Y-77250228D01*
X189356906Y-77250230D01*
X189323253Y-77271857D01*
X189235867Y-77328015D01*
X189235863Y-77328018D01*
X189127226Y-77422152D01*
X189127207Y-77422169D01*
X189127206Y-77422171D01*
X189032985Y-77530909D01*
X189032983Y-77530911D01*
X189032983Y-77530912D01*
X189032981Y-77530915D01*
X188955255Y-77651857D01*
X188955252Y-77651863D01*
X188895483Y-77782741D01*
X188854977Y-77920691D01*
X188854974Y-77920703D01*
X188834500Y-78063110D01*
X188834500Y-78635002D01*
X188839644Y-78706939D01*
X188850603Y-78744262D01*
X188854363Y-78796841D01*
X188834500Y-78934998D01*
X188834500Y-79268831D01*
X188814815Y-79335870D01*
X188762011Y-79381625D01*
X188697247Y-79392120D01*
X188672873Y-79389500D01*
X188672865Y-79389500D01*
X186827129Y-79389500D01*
X186827123Y-79389501D01*
X186767516Y-79395908D01*
X186632671Y-79446202D01*
X186632664Y-79446206D01*
X186517455Y-79532452D01*
X186517452Y-79532455D01*
X186431206Y-79647664D01*
X186431202Y-79647671D01*
X186381019Y-79782222D01*
X186380909Y-79782517D01*
X186374500Y-79842127D01*
X186374500Y-79842134D01*
X186374500Y-79842135D01*
X186374500Y-80036502D01*
X186354815Y-80103541D01*
X186302011Y-80149296D01*
X186232853Y-80159240D01*
X186169297Y-80130215D01*
X186131523Y-80071437D01*
X186128883Y-80060694D01*
X186105502Y-79943154D01*
X186105501Y-79943153D01*
X186105501Y-79943149D01*
X186056465Y-79824766D01*
X186031404Y-79787259D01*
X186031404Y-79787258D01*
X185985275Y-79718221D01*
X184241780Y-77974726D01*
X184241776Y-77974723D01*
X184135234Y-77903535D01*
X184016851Y-77854499D01*
X184016845Y-77854497D01*
X183891178Y-77829500D01*
X183891176Y-77829500D01*
X177080808Y-77829500D01*
X177013769Y-77809815D01*
X176993127Y-77793181D01*
X175846819Y-76646873D01*
X175813334Y-76585550D01*
X175810500Y-76559192D01*
X175810500Y-75861461D01*
X175830185Y-75794422D01*
X175882989Y-75748667D01*
X175952147Y-75738723D01*
X176015703Y-75767748D01*
X176018807Y-75770531D01*
X176085521Y-75832433D01*
X176302296Y-75980228D01*
X176302301Y-75980230D01*
X176302302Y-75980231D01*
X176302303Y-75980232D01*
X176427843Y-76040688D01*
X176538673Y-76094061D01*
X176538674Y-76094061D01*
X176538677Y-76094063D01*
X176789385Y-76171396D01*
X177048818Y-76210500D01*
X177311182Y-76210500D01*
X177570615Y-76171396D01*
X177821323Y-76094063D01*
X178057704Y-75980228D01*
X178274479Y-75832433D01*
X178466805Y-75653981D01*
X178630386Y-75448857D01*
X178761568Y-75221643D01*
X178857420Y-74977416D01*
X178915802Y-74721630D01*
X178935408Y-74460000D01*
X178921697Y-74277041D01*
X178915803Y-74198379D01*
X178915802Y-74198374D01*
X178915802Y-74198370D01*
X178857420Y-73942584D01*
X178761568Y-73698357D01*
X178630386Y-73471143D01*
X178466805Y-73266019D01*
X178466804Y-73266018D01*
X178466801Y-73266014D01*
X178274479Y-73087567D01*
X178245116Y-73067548D01*
X178237642Y-73062452D01*
X178193342Y-73008425D01*
X178185283Y-72939021D01*
X178216026Y-72876279D01*
X178237643Y-72857547D01*
X178274479Y-72832433D01*
X178466805Y-72653981D01*
X178630386Y-72448857D01*
X178761568Y-72221643D01*
X178857420Y-71977416D01*
X178915802Y-71721630D01*
X178915808Y-71721550D01*
X178935408Y-71460004D01*
X178935408Y-71459995D01*
X178915803Y-71198379D01*
X178915802Y-71198374D01*
X178915802Y-71198370D01*
X178857420Y-70942584D01*
X178761568Y-70698357D01*
X178630386Y-70471143D01*
X178466805Y-70266019D01*
X178466803Y-70266017D01*
X178466563Y-70265716D01*
X178440154Y-70201029D01*
X178452911Y-70132334D01*
X178500781Y-70081440D01*
X178563510Y-70064403D01*
X180086594Y-70064403D01*
X180153633Y-70084088D01*
G37*
%TD.AperFunction*%
%TA.AperFunction,Conductor*%
G36*
X191153917Y-80156122D02*
G01*
X191206721Y-80201877D01*
X191225763Y-80256313D01*
X191230001Y-80297797D01*
X191230001Y-80297799D01*
X191285185Y-80464331D01*
X191285187Y-80464336D01*
X191296855Y-80483253D01*
X191377288Y-80613656D01*
X191501344Y-80737712D01*
X191650666Y-80829814D01*
X191817203Y-80884999D01*
X191919991Y-80895500D01*
X192920008Y-80895499D01*
X192920016Y-80895498D01*
X192920019Y-80895498D01*
X192979978Y-80889373D01*
X193022797Y-80884999D01*
X193189334Y-80829814D01*
X193338656Y-80737712D01*
X193462712Y-80613656D01*
X193510473Y-80536221D01*
X193562419Y-80489498D01*
X193631382Y-80478275D01*
X193695464Y-80506118D01*
X193703692Y-80513638D01*
X194103181Y-80913127D01*
X194136666Y-80974450D01*
X194139500Y-81000808D01*
X194139500Y-82559192D01*
X194119815Y-82626231D01*
X194103181Y-82646873D01*
X193926873Y-82823181D01*
X193865550Y-82856666D01*
X193839192Y-82859500D01*
X193217480Y-82859500D01*
X193150441Y-82839815D01*
X193104686Y-82787011D01*
X193094742Y-82717853D01*
X193101298Y-82692168D01*
X193123596Y-82632382D01*
X193123598Y-82632372D01*
X193129999Y-82572844D01*
X193130000Y-82572827D01*
X193130000Y-82375000D01*
X191230000Y-82375000D01*
X191205560Y-82399440D01*
X191144236Y-82432924D01*
X191093687Y-82433375D01*
X191049071Y-82424500D01*
X191049069Y-82424500D01*
X191029751Y-82424500D01*
X190962712Y-82404815D01*
X190930485Y-82374812D01*
X190887548Y-82317457D01*
X190887546Y-82317454D01*
X190841507Y-82282989D01*
X190765231Y-82225888D01*
X190766930Y-82223617D01*
X190727743Y-82184435D01*
X190712886Y-82116163D01*
X190737298Y-82050697D01*
X190766311Y-82025556D01*
X190765231Y-82024112D01*
X190863394Y-81950626D01*
X190887546Y-81932546D01*
X190973796Y-81817331D01*
X190979074Y-81803181D01*
X190989818Y-81774375D01*
X191031689Y-81718441D01*
X191097153Y-81694023D01*
X191165426Y-81708874D01*
X191214832Y-81758279D01*
X191230000Y-81817707D01*
X191230000Y-81875000D01*
X191930000Y-81875000D01*
X192430000Y-81875000D01*
X193130000Y-81875000D01*
X193130000Y-81677172D01*
X193129999Y-81677155D01*
X193123598Y-81617627D01*
X193123596Y-81617620D01*
X193073354Y-81482913D01*
X193073350Y-81482906D01*
X192987190Y-81367812D01*
X192987187Y-81367809D01*
X192872093Y-81281649D01*
X192872086Y-81281645D01*
X192737379Y-81231403D01*
X192737372Y-81231401D01*
X192677844Y-81225000D01*
X192430000Y-81225000D01*
X192430000Y-81875000D01*
X191930000Y-81875000D01*
X191930000Y-81225000D01*
X191682155Y-81225000D01*
X191622627Y-81231401D01*
X191622620Y-81231403D01*
X191487913Y-81281645D01*
X191487906Y-81281649D01*
X191372812Y-81367809D01*
X191372809Y-81367812D01*
X191286649Y-81482906D01*
X191286644Y-81482916D01*
X191270680Y-81525716D01*
X191228808Y-81581649D01*
X191163343Y-81606065D01*
X191095071Y-81591212D01*
X191045666Y-81541806D01*
X191030499Y-81482384D01*
X191030499Y-80727128D01*
X191024091Y-80667517D01*
X191008555Y-80625864D01*
X190973797Y-80532671D01*
X190973795Y-80532668D01*
X190897053Y-80430154D01*
X190872636Y-80364691D01*
X190887487Y-80296418D01*
X190929284Y-80251527D01*
X190944124Y-80241990D01*
X190944128Y-80241987D01*
X190944130Y-80241986D01*
X191021203Y-80175202D01*
X191084758Y-80146178D01*
X191153917Y-80156122D01*
G37*
%TD.AperFunction*%
%TA.AperFunction,Conductor*%
G36*
X175863529Y-70084088D02*
G01*
X175909284Y-70136892D01*
X175919228Y-70206050D01*
X175893437Y-70265716D01*
X175893196Y-70266017D01*
X175893195Y-70266019D01*
X175834429Y-70339709D01*
X175729614Y-70471143D01*
X175598432Y-70698356D01*
X175502582Y-70942578D01*
X175502576Y-70942597D01*
X175444197Y-71198374D01*
X175444196Y-71198379D01*
X175424592Y-71459995D01*
X175424592Y-71460004D01*
X175444196Y-71721620D01*
X175444197Y-71721625D01*
X175502576Y-71977402D01*
X175502578Y-71977411D01*
X175502580Y-71977416D01*
X175598432Y-72221643D01*
X175729614Y-72448857D01*
X175848350Y-72597747D01*
X175893198Y-72653985D01*
X175936283Y-72693961D01*
X176085521Y-72832433D01*
X176112038Y-72850512D01*
X176122356Y-72857547D01*
X176166657Y-72911577D01*
X176174715Y-72980980D01*
X176143972Y-73043722D01*
X176122356Y-73062453D01*
X176085522Y-73087566D01*
X175950797Y-73212571D01*
X175888264Y-73243739D01*
X175818808Y-73236152D01*
X175764479Y-73192218D01*
X175751897Y-73169131D01*
X175736465Y-73131873D01*
X175665277Y-73025331D01*
X175665275Y-73025329D01*
X175665273Y-73025326D01*
X174847167Y-72207220D01*
X174813682Y-72145897D01*
X174818666Y-72076205D01*
X174819385Y-72074326D01*
X174857420Y-71977416D01*
X174915802Y-71721630D01*
X174915808Y-71721550D01*
X174935408Y-71460004D01*
X174935408Y-71459995D01*
X174915803Y-71198379D01*
X174915802Y-71198374D01*
X174915802Y-71198370D01*
X174857420Y-70942584D01*
X174761568Y-70698357D01*
X174630386Y-70471143D01*
X174466805Y-70266019D01*
X174466803Y-70266017D01*
X174466563Y-70265716D01*
X174440154Y-70201029D01*
X174452911Y-70132334D01*
X174500781Y-70081440D01*
X174563510Y-70064403D01*
X175796490Y-70064403D01*
X175863529Y-70084088D01*
G37*
%TD.AperFunction*%
%TD*%
M02*
