%TF.GenerationSoftware,KiCad,Pcbnew,8.0.4*%
%TF.CreationDate,2024-10-05T16:08:08-03:00*%
%TF.ProjectId,DongleALIVEv2.0,446f6e67-6c65-4414-9c49-564576322e30,2.0*%
%TF.SameCoordinates,Original*%
%TF.FileFunction,Soldermask,Bot*%
%TF.FilePolarity,Negative*%
%FSLAX46Y46*%
G04 Gerber Fmt 4.6, Leading zero omitted, Abs format (unit mm)*
G04 Created by KiCad (PCBNEW 8.0.4) date 2024-10-05 16:08:08*
%MOMM*%
%LPD*%
G01*
G04 APERTURE LIST*
G04 Aperture macros list*
%AMRoundRect*
0 Rectangle with rounded corners*
0 $1 Rounding radius*
0 $2 $3 $4 $5 $6 $7 $8 $9 X,Y pos of 4 corners*
0 Add a 4 corners polygon primitive as box body*
4,1,4,$2,$3,$4,$5,$6,$7,$8,$9,$2,$3,0*
0 Add four circle primitives for the rounded corners*
1,1,$1+$1,$2,$3*
1,1,$1+$1,$4,$5*
1,1,$1+$1,$6,$7*
1,1,$1+$1,$8,$9*
0 Add four rect primitives between the rounded corners*
20,1,$1+$1,$2,$3,$4,$5,0*
20,1,$1+$1,$4,$5,$6,$7,0*
20,1,$1+$1,$6,$7,$8,$9,0*
20,1,$1+$1,$8,$9,$2,$3,0*%
%AMFreePoly0*
4,1,35,0.526870,0.776870,0.538000,0.750000,0.538000,-0.750000,0.526870,-0.776870,0.500000,-0.788000,0.000000,-0.788000,-0.012286,-0.782911,-0.071157,-0.782911,-0.081863,-0.781372,-0.218414,-0.741277,-0.228252,-0.736784,-0.347974,-0.659843,-0.356148,-0.652760,-0.449345,-0.545205,-0.455193,-0.536106,-0.514312,-0.406652,-0.517359,-0.396274,-0.537613,-0.255408,-0.538000,-0.250000,-0.538000,0.250000,
-0.537613,0.255408,-0.517359,0.396274,-0.514312,0.406652,-0.455193,0.536106,-0.449345,0.545205,-0.356148,0.652760,-0.347974,0.659843,-0.228252,0.736784,-0.218414,0.741277,-0.081863,0.781372,-0.071157,0.782911,-0.012286,0.782911,0.000000,0.788000,0.500000,0.788000,0.526870,0.776870,0.526870,0.776870,$1*%
%AMFreePoly1*
4,1,35,0.012286,0.782911,0.071157,0.782911,0.081863,0.781372,0.218414,0.741277,0.228252,0.736784,0.347974,0.659843,0.356148,0.652760,0.449345,0.545205,0.455193,0.536106,0.514312,0.406652,0.517359,0.396274,0.537613,0.255408,0.538000,0.250000,0.538000,-0.250000,0.537613,-0.255408,0.517359,-0.396274,0.514312,-0.406652,0.455193,-0.536106,0.449345,-0.545205,0.356148,-0.652760,
0.347974,-0.659843,0.228252,-0.736784,0.218414,-0.741277,0.081863,-0.781372,0.071157,-0.782911,0.012286,-0.782911,0.000000,-0.788000,-0.500000,-0.788000,-0.526870,-0.776870,-0.538000,-0.750000,-0.538000,0.750000,-0.526870,0.776870,-0.500000,0.788000,0.000000,0.788000,0.012286,0.782911,0.012286,0.782911,$1*%
G04 Aperture macros list end*
%ADD10RoundRect,0.038000X0.850000X0.850000X-0.850000X0.850000X-0.850000X-0.850000X0.850000X-0.850000X0*%
%ADD11O,1.776000X1.776000*%
%ADD12O,3.576000X2.276000*%
%ADD13RoundRect,0.038000X-1.250000X0.750000X-1.250000X-0.750000X1.250000X-0.750000X1.250000X0.750000X0*%
%ADD14O,2.576000X1.576000*%
%ADD15C,0.776000*%
%ADD16C,4.476000*%
%ADD17RoundRect,0.102000X1.250000X1.250000X-1.250000X1.250000X-1.250000X-1.250000X1.250000X-1.250000X0*%
%ADD18C,2.704000*%
%ADD19RoundRect,0.519000X-0.519000X0.519000X-0.519000X-0.519000X0.519000X-0.519000X0.519000X0.519000X0*%
%ADD20C,2.076000*%
%ADD21RoundRect,0.038000X-0.850000X-0.850000X0.850000X-0.850000X0.850000X0.850000X-0.850000X0.850000X0*%
%ADD22RoundRect,0.266170X0.496830X-0.359330X0.496830X0.359330X-0.496830X0.359330X-0.496830X-0.359330X0*%
%ADD23RoundRect,0.265833X0.372167X0.472167X-0.372167X0.472167X-0.372167X-0.472167X0.372167X-0.472167X0*%
%ADD24RoundRect,0.266170X-0.496830X0.359330X-0.496830X-0.359330X0.496830X-0.359330X0.496830X0.359330X0*%
%ADD25RoundRect,0.266170X0.359330X0.496830X-0.359330X0.496830X-0.359330X-0.496830X0.359330X-0.496830X0*%
%ADD26RoundRect,0.266170X-0.359330X-0.496830X0.359330X-0.496830X0.359330X0.496830X-0.359330X0.496830X0*%
%ADD27FreePoly0,90.000000*%
%ADD28FreePoly1,90.000000*%
%ADD29RoundRect,0.102000X-0.230000X0.520000X-0.230000X-0.520000X0.230000X-0.520000X0.230000X0.520000X0*%
%ADD30RoundRect,0.100500X-0.301500X0.956500X-0.301500X-0.956500X0.301500X-0.956500X0.301500X0.956500X0*%
%ADD31RoundRect,0.268095X0.294905X-0.419905X0.294905X0.419905X-0.294905X0.419905X-0.294905X-0.419905X0*%
%ADD32RoundRect,0.102000X0.875000X-0.300000X0.875000X0.300000X-0.875000X0.300000X-0.875000X-0.300000X0*%
%ADD33RoundRect,0.394000X-0.394000X0.644000X-0.394000X-0.644000X0.394000X-0.644000X0.394000X0.644000X0*%
%ADD34RoundRect,0.519000X-1.419000X0.519000X-1.419000X-0.519000X1.419000X-0.519000X1.419000X0.519000X0*%
%ADD35RoundRect,0.265833X-0.472167X0.372167X-0.472167X-0.372167X0.472167X-0.372167X0.472167X0.372167X0*%
%ADD36RoundRect,0.102000X0.450000X-0.400000X0.450000X0.400000X-0.450000X0.400000X-0.450000X-0.400000X0*%
%ADD37RoundRect,0.265833X-0.372167X-0.472167X0.372167X-0.472167X0.372167X0.472167X-0.372167X0.472167X0*%
G04 APERTURE END LIST*
D10*
%TO.C,J2*%
X123725000Y-105125000D03*
D11*
X123725000Y-102585000D03*
X123725000Y-100045000D03*
X123725000Y-97505000D03*
X123725000Y-94965000D03*
%TD*%
D12*
%TO.C,SW3*%
X117225000Y-96275000D03*
X117225000Y-104475000D03*
D13*
X117225000Y-98375000D03*
D14*
X117225000Y-100375000D03*
X117225000Y-102375000D03*
%TD*%
D15*
%TO.C,H2*%
X125395000Y-115005000D03*
X125878274Y-113838274D03*
X125878274Y-116171726D03*
X127045000Y-113355000D03*
D16*
X127045000Y-115005000D03*
D15*
X127045000Y-116655000D03*
X128211726Y-113838274D03*
X128211726Y-116171726D03*
X128695000Y-115005000D03*
%TD*%
D17*
%TO.C,J1*%
X152195000Y-72285000D03*
D18*
X148195000Y-72285000D03*
X144195000Y-72285000D03*
X140195000Y-72285000D03*
X136195000Y-72285000D03*
X132195000Y-72285000D03*
X128195000Y-72285000D03*
X124195000Y-72285000D03*
X152195000Y-75285000D03*
X148195000Y-75285000D03*
X144195000Y-75285000D03*
X140195000Y-75285000D03*
X136195000Y-75285000D03*
X132195000Y-75285000D03*
X128195000Y-75285000D03*
X124195000Y-75285000D03*
%TD*%
D15*
%TO.C,H1*%
X155155000Y-73845000D03*
X155638274Y-72678274D03*
X155638274Y-75011726D03*
X156805000Y-72195000D03*
D16*
X156805000Y-73845000D03*
D15*
X156805000Y-75495000D03*
X157971726Y-72678274D03*
X157971726Y-75011726D03*
X158455000Y-73845000D03*
%TD*%
D19*
%TO.C,F1*%
X118665000Y-72125000D03*
X118665000Y-77125000D03*
D20*
X118665000Y-87125000D03*
X118665000Y-92125000D03*
%TD*%
D21*
%TO.C,J3*%
X157645000Y-86125000D03*
D11*
X157645000Y-88665000D03*
X157645000Y-91205000D03*
X157645000Y-93745000D03*
X157645000Y-96285000D03*
%TD*%
D22*
%TO.C,C12*%
X131745000Y-95290000D03*
X131745000Y-93215000D03*
%TD*%
D23*
%TO.C,R10*%
X119895000Y-83415000D03*
X117895000Y-83415000D03*
%TD*%
D24*
%TO.C,C20*%
X124465000Y-110115000D03*
X124465000Y-112190000D03*
%TD*%
D25*
%TO.C,C3*%
X142402500Y-102235000D03*
X140327500Y-102235000D03*
%TD*%
D23*
%TO.C,R9*%
X119895000Y-79515000D03*
X117895000Y-79515000D03*
%TD*%
D22*
%TO.C,C15*%
X136045000Y-97612500D03*
X136045000Y-95537500D03*
%TD*%
D26*
%TO.C,C14*%
X129467500Y-106355000D03*
X131542500Y-106355000D03*
%TD*%
D22*
%TO.C,C23*%
X118195000Y-109372500D03*
X118195000Y-107297500D03*
%TD*%
D27*
%TO.C,JP1*%
X149105000Y-80260000D03*
D28*
X149105000Y-78960000D03*
%TD*%
D23*
%TO.C,R14*%
X122665000Y-118125000D03*
X120665000Y-118125000D03*
%TD*%
D22*
%TO.C,C2*%
X152985000Y-116112500D03*
X152985000Y-114037500D03*
%TD*%
D29*
%TO.C,D7*%
X120185000Y-106875000D03*
X120185000Y-109255000D03*
%TD*%
D26*
%TO.C,C4*%
X153287500Y-112065000D03*
X155362500Y-112065000D03*
%TD*%
D22*
%TO.C,C17*%
X138265000Y-97612500D03*
X138265000Y-95537500D03*
%TD*%
D23*
%TO.C,R4*%
X138065000Y-112675000D03*
X136065000Y-112675000D03*
%TD*%
D30*
%TO.C,U5*%
X141165000Y-87045000D03*
X142435000Y-87045000D03*
X143705000Y-87045000D03*
X144975000Y-87045000D03*
X146245000Y-87045000D03*
X147515000Y-87045000D03*
X148785000Y-87045000D03*
X150055000Y-87045000D03*
X151325000Y-87045000D03*
X151325000Y-96265000D03*
X150055000Y-96265000D03*
X148785000Y-96265000D03*
X147515000Y-96265000D03*
X146245000Y-96265000D03*
X144975000Y-96265000D03*
X143705000Y-96265000D03*
X142435000Y-96265000D03*
X141165000Y-96265000D03*
%TD*%
D26*
%TO.C,C13*%
X129467500Y-108525000D03*
X131542500Y-108525000D03*
%TD*%
D23*
%TO.C,R5*%
X122665000Y-121125000D03*
X120665000Y-121125000D03*
%TD*%
D31*
%TO.C,C16*%
X134035000Y-97570000D03*
X134035000Y-95620000D03*
%TD*%
D22*
%TO.C,C1*%
X155245000Y-116130000D03*
X155245000Y-114055000D03*
%TD*%
D24*
%TO.C,C21*%
X122305000Y-110115000D03*
X122305000Y-112190000D03*
%TD*%
D32*
%TO.C,U4*%
X141165000Y-84825000D03*
X141165000Y-83555000D03*
X141165000Y-82285000D03*
X141165000Y-81015000D03*
X146765000Y-81015000D03*
X146765000Y-82285000D03*
X146765000Y-83555000D03*
X146765000Y-84825000D03*
%TD*%
D22*
%TO.C,C5*%
X152675000Y-102102500D03*
X152675000Y-100027500D03*
%TD*%
D33*
%TO.C,U3*%
X127142500Y-97585000D03*
X129442500Y-97585000D03*
D34*
X129442500Y-103885000D03*
D33*
X131742500Y-97585000D03*
%TD*%
D35*
%TO.C,R16*%
X151435000Y-78620000D03*
X151435000Y-80620000D03*
%TD*%
D36*
%TO.C,D6*%
X149095000Y-83900000D03*
X149095000Y-82000000D03*
X151195000Y-82950000D03*
%TD*%
D35*
%TO.C,R2*%
X150605000Y-100025000D03*
X150605000Y-102025000D03*
%TD*%
D22*
%TO.C,C22*%
X120955000Y-104890000D03*
X120955000Y-102815000D03*
%TD*%
D23*
%TO.C,R6*%
X122665000Y-124125000D03*
X120665000Y-124125000D03*
%TD*%
D37*
%TO.C,R1*%
X140365000Y-104295000D03*
X142365000Y-104295000D03*
%TD*%
D23*
%TO.C,R3*%
X138065000Y-114735000D03*
X136065000Y-114735000D03*
%TD*%
D37*
%TO.C,R15*%
X136045000Y-99545000D03*
X138045000Y-99545000D03*
%TD*%
M02*
