%TF.GenerationSoftware,KiCad,Pcbnew,8.0.4*%
%TF.CreationDate,2024-10-05T16:08:08-03:00*%
%TF.ProjectId,DongleALIVEv2.0,446f6e67-6c65-4414-9c49-564576322e30,2.0*%
%TF.SameCoordinates,Original*%
%TF.FileFunction,Legend,Bot*%
%TF.FilePolarity,Positive*%
%FSLAX46Y46*%
G04 Gerber Fmt 4.6, Leading zero omitted, Abs format (unit mm)*
G04 Created by KiCad (PCBNEW 8.0.4) date 2024-10-05 16:08:08*
%MOMM*%
%LPD*%
G01*
G04 APERTURE LIST*
%ADD10C,0.100000*%
%ADD11C,0.150000*%
%ADD12C,0.120000*%
%ADD13C,0.127000*%
%ADD14C,0.200000*%
%ADD15C,0.203200*%
%ADD16C,0.304800*%
G04 APERTURE END LIST*
D10*
X125095000Y-106515000D02*
X125095000Y-104935000D01*
X122805000Y-106515000D02*
X125055000Y-106515000D01*
D11*
G36*
X124242381Y-106939114D02*
G01*
X124091276Y-106939114D01*
X124057046Y-106921999D01*
X124043781Y-106908734D01*
X124026666Y-106874504D01*
X124026666Y-106818485D01*
X124043780Y-106784255D01*
X124057045Y-106770991D01*
X124091276Y-106753876D01*
X124242381Y-106753876D01*
X124242381Y-106939114D01*
G37*
G36*
X125137857Y-107468876D02*
G01*
X123192142Y-107468876D01*
X123192142Y-107136019D01*
X123267142Y-107136019D01*
X123267142Y-107196971D01*
X123268583Y-107211603D01*
X123269613Y-107214091D01*
X123269805Y-107216781D01*
X123275060Y-107230513D01*
X123305537Y-107291465D01*
X123309500Y-107297761D01*
X123310258Y-107299590D01*
X123311948Y-107301649D01*
X123313370Y-107303908D01*
X123314867Y-107305206D01*
X123319585Y-107310955D01*
X123350061Y-107341432D01*
X123355812Y-107346152D01*
X123357111Y-107347650D01*
X123359366Y-107349069D01*
X123361426Y-107350760D01*
X123363256Y-107351518D01*
X123369554Y-107355482D01*
X123430506Y-107385958D01*
X123444237Y-107391213D01*
X123446926Y-107391404D01*
X123449415Y-107392435D01*
X123464047Y-107393876D01*
X123616428Y-107393876D01*
X123623833Y-107393146D01*
X123625808Y-107393287D01*
X123628405Y-107392696D01*
X123631060Y-107392435D01*
X123632891Y-107391676D01*
X123640145Y-107390027D01*
X123731574Y-107359551D01*
X123745000Y-107353557D01*
X123767107Y-107334383D01*
X123780194Y-107308210D01*
X123782269Y-107279020D01*
X123773015Y-107251258D01*
X123753841Y-107229150D01*
X123727667Y-107216063D01*
X123698477Y-107213989D01*
X123684141Y-107217249D01*
X123604258Y-107243876D01*
X123481752Y-107243876D01*
X123447522Y-107226761D01*
X123434258Y-107213497D01*
X123417142Y-107179264D01*
X123417142Y-107153724D01*
X123434257Y-107119493D01*
X123447522Y-107106229D01*
X123490222Y-107084878D01*
X123604142Y-107056399D01*
X123605221Y-107056013D01*
X123605762Y-107055975D01*
X123611857Y-107053642D01*
X123617988Y-107051452D01*
X123618422Y-107051130D01*
X123619494Y-107050720D01*
X123680446Y-107020243D01*
X123686742Y-107016279D01*
X123688571Y-107015522D01*
X123690630Y-107013831D01*
X123692889Y-107012410D01*
X123694187Y-107010912D01*
X123699936Y-107006195D01*
X123730413Y-106975719D01*
X123735133Y-106969967D01*
X123736631Y-106968669D01*
X123738050Y-106966413D01*
X123739741Y-106964354D01*
X123740499Y-106962523D01*
X123744463Y-106956226D01*
X123774939Y-106895274D01*
X123780194Y-106881543D01*
X123780385Y-106878853D01*
X123781416Y-106876365D01*
X123782857Y-106861733D01*
X123782857Y-106800780D01*
X123876666Y-106800780D01*
X123876666Y-106892209D01*
X123878107Y-106906841D01*
X123879138Y-106909330D01*
X123879329Y-106912018D01*
X123884584Y-106925750D01*
X123915060Y-106986702D01*
X123919024Y-106992999D01*
X123919782Y-106994829D01*
X123921472Y-106996888D01*
X123922892Y-106999144D01*
X123924388Y-107000441D01*
X123929109Y-107006194D01*
X123959586Y-107036671D01*
X123965335Y-107041389D01*
X123966635Y-107042888D01*
X123968894Y-107044309D01*
X123970951Y-107045998D01*
X123972778Y-107046755D01*
X123979078Y-107050720D01*
X124040030Y-107081196D01*
X124053761Y-107086451D01*
X124056450Y-107086642D01*
X124058939Y-107087673D01*
X124073571Y-107089114D01*
X124242381Y-107089114D01*
X124242381Y-107318876D01*
X124243822Y-107333508D01*
X124255021Y-107360544D01*
X124275713Y-107381236D01*
X124302749Y-107392435D01*
X124332013Y-107392435D01*
X124359049Y-107381236D01*
X124379741Y-107360544D01*
X124390940Y-107333508D01*
X124392381Y-107318876D01*
X124392381Y-107044590D01*
X124516666Y-107044590D01*
X124516666Y-107257923D01*
X124518107Y-107272555D01*
X124523965Y-107286696D01*
X124529305Y-107299590D01*
X124538632Y-107310955D01*
X124569108Y-107341432D01*
X124580473Y-107350760D01*
X124582964Y-107351792D01*
X124585000Y-107353557D01*
X124598425Y-107359551D01*
X124689855Y-107390027D01*
X124697106Y-107391676D01*
X124698939Y-107392435D01*
X124701594Y-107392696D01*
X124704191Y-107393287D01*
X124706165Y-107393146D01*
X124713571Y-107393876D01*
X124774523Y-107393876D01*
X124781928Y-107393146D01*
X124783903Y-107393287D01*
X124786500Y-107392696D01*
X124789155Y-107392435D01*
X124790986Y-107391676D01*
X124798240Y-107390027D01*
X124889669Y-107359551D01*
X124903095Y-107353557D01*
X124905131Y-107351790D01*
X124907620Y-107350760D01*
X124918985Y-107341433D01*
X124979938Y-107280479D01*
X124984655Y-107274730D01*
X124986153Y-107273432D01*
X124987574Y-107271173D01*
X124989265Y-107269114D01*
X124990022Y-107267285D01*
X124993986Y-107260989D01*
X125024463Y-107200037D01*
X125024873Y-107198965D01*
X125025195Y-107198531D01*
X125027385Y-107192400D01*
X125029718Y-107186305D01*
X125029756Y-107185764D01*
X125030142Y-107184685D01*
X125060618Y-107062780D01*
X125060993Y-107060242D01*
X125061416Y-107059222D01*
X125061957Y-107053719D01*
X125062769Y-107048235D01*
X125062605Y-107047139D01*
X125062857Y-107044590D01*
X125062857Y-106953161D01*
X125062605Y-106950611D01*
X125062769Y-106949516D01*
X125061957Y-106944031D01*
X125061416Y-106938529D01*
X125060993Y-106937508D01*
X125060618Y-106934971D01*
X125030142Y-106813067D01*
X125029756Y-106811987D01*
X125029718Y-106811447D01*
X125027387Y-106805357D01*
X125025195Y-106799221D01*
X125024872Y-106798785D01*
X125024463Y-106797716D01*
X124993986Y-106736763D01*
X124990022Y-106730466D01*
X124989264Y-106728636D01*
X124987572Y-106726574D01*
X124986153Y-106724320D01*
X124984657Y-106723023D01*
X124979937Y-106717271D01*
X124918985Y-106656319D01*
X124907620Y-106646992D01*
X124905131Y-106645961D01*
X124903095Y-106644195D01*
X124889669Y-106638201D01*
X124798240Y-106607725D01*
X124790986Y-106606075D01*
X124789155Y-106605317D01*
X124786500Y-106605055D01*
X124783903Y-106604465D01*
X124781928Y-106604605D01*
X124774523Y-106603876D01*
X124683095Y-106603876D01*
X124668463Y-106605317D01*
X124665973Y-106606348D01*
X124663286Y-106606539D01*
X124649554Y-106611794D01*
X124588601Y-106642270D01*
X124576159Y-106650102D01*
X124556985Y-106672210D01*
X124547731Y-106699971D01*
X124549805Y-106729161D01*
X124562892Y-106755335D01*
X124585000Y-106774509D01*
X124612761Y-106783763D01*
X124641951Y-106781689D01*
X124655683Y-106776434D01*
X124700799Y-106753876D01*
X124762353Y-106753876D01*
X124825437Y-106774903D01*
X124865265Y-106814731D01*
X124886617Y-106857435D01*
X124912857Y-106962395D01*
X124912857Y-107035356D01*
X124886617Y-107140316D01*
X124865264Y-107183020D01*
X124825437Y-107222848D01*
X124762353Y-107243876D01*
X124725741Y-107243876D01*
X124666666Y-107224184D01*
X124666666Y-107119590D01*
X124713571Y-107119590D01*
X124728203Y-107118149D01*
X124755239Y-107106950D01*
X124775931Y-107086258D01*
X124787130Y-107059222D01*
X124787130Y-107029958D01*
X124775931Y-107002922D01*
X124755239Y-106982230D01*
X124728203Y-106971031D01*
X124713571Y-106969590D01*
X124591666Y-106969590D01*
X124577034Y-106971031D01*
X124549998Y-106982230D01*
X124529306Y-107002922D01*
X124518107Y-107029958D01*
X124516666Y-107044590D01*
X124392381Y-107044590D01*
X124392381Y-106678876D01*
X124390940Y-106664244D01*
X124379741Y-106637208D01*
X124359049Y-106616516D01*
X124332013Y-106605317D01*
X124317381Y-106603876D01*
X124073571Y-106603876D01*
X124058939Y-106605317D01*
X124056450Y-106606347D01*
X124053761Y-106606539D01*
X124040030Y-106611794D01*
X123979078Y-106642270D01*
X123972781Y-106646233D01*
X123970952Y-106646991D01*
X123968893Y-106648680D01*
X123966635Y-106650102D01*
X123965335Y-106651600D01*
X123959587Y-106656318D01*
X123929110Y-106686794D01*
X123924386Y-106692548D01*
X123922892Y-106693845D01*
X123921474Y-106696097D01*
X123919782Y-106698159D01*
X123919023Y-106699991D01*
X123915060Y-106706287D01*
X123884584Y-106767239D01*
X123879329Y-106780971D01*
X123879138Y-106783658D01*
X123878107Y-106786148D01*
X123876666Y-106800780D01*
X123782857Y-106800780D01*
X123781416Y-106786148D01*
X123780385Y-106783659D01*
X123780194Y-106780970D01*
X123774939Y-106767239D01*
X123744463Y-106706287D01*
X123740499Y-106699989D01*
X123739741Y-106698159D01*
X123738050Y-106696099D01*
X123736631Y-106693844D01*
X123735133Y-106692545D01*
X123730413Y-106686794D01*
X123699936Y-106656318D01*
X123694183Y-106651597D01*
X123692887Y-106650102D01*
X123690632Y-106648682D01*
X123688571Y-106646991D01*
X123686740Y-106646232D01*
X123680445Y-106642270D01*
X123619493Y-106611794D01*
X123605761Y-106606539D01*
X123603073Y-106606348D01*
X123600584Y-106605317D01*
X123585952Y-106603876D01*
X123433571Y-106603876D01*
X123426165Y-106604605D01*
X123424191Y-106604465D01*
X123421594Y-106605055D01*
X123418939Y-106605317D01*
X123417106Y-106606075D01*
X123409855Y-106607725D01*
X123318425Y-106638201D01*
X123305000Y-106644195D01*
X123282892Y-106663368D01*
X123269806Y-106689542D01*
X123267731Y-106718732D01*
X123276985Y-106746494D01*
X123296158Y-106768602D01*
X123322332Y-106781688D01*
X123351522Y-106783763D01*
X123365859Y-106780503D01*
X123445741Y-106753876D01*
X123568247Y-106753876D01*
X123602477Y-106770991D01*
X123615742Y-106784255D01*
X123632857Y-106818485D01*
X123632857Y-106844028D01*
X123615742Y-106878257D01*
X123602478Y-106891521D01*
X123559773Y-106912874D01*
X123445857Y-106941353D01*
X123444777Y-106941738D01*
X123444237Y-106941777D01*
X123438147Y-106944107D01*
X123432011Y-106946300D01*
X123431575Y-106946622D01*
X123430506Y-106947032D01*
X123369554Y-106977508D01*
X123363257Y-106981471D01*
X123361428Y-106982229D01*
X123359369Y-106983918D01*
X123357111Y-106985340D01*
X123355811Y-106986838D01*
X123350062Y-106991557D01*
X123319586Y-107022033D01*
X123314865Y-107027785D01*
X123313370Y-107029082D01*
X123311950Y-107031337D01*
X123310259Y-107033398D01*
X123309501Y-107035226D01*
X123305537Y-107041524D01*
X123275060Y-107102478D01*
X123269805Y-107116209D01*
X123269613Y-107118898D01*
X123268583Y-107121387D01*
X123267142Y-107136019D01*
X123192142Y-107136019D01*
X123192142Y-106528876D01*
X125137857Y-106528876D01*
X125137857Y-107468876D01*
G37*
X155013276Y-85911667D02*
X155470419Y-85911667D01*
X155470419Y-85911667D02*
X155561847Y-85881190D01*
X155561847Y-85881190D02*
X155622800Y-85820238D01*
X155622800Y-85820238D02*
X155653276Y-85728809D01*
X155653276Y-85728809D02*
X155653276Y-85667857D01*
X155013276Y-86155476D02*
X155013276Y-86551667D01*
X155013276Y-86551667D02*
X155257085Y-86338333D01*
X155257085Y-86338333D02*
X155257085Y-86429762D01*
X155257085Y-86429762D02*
X155287561Y-86490714D01*
X155287561Y-86490714D02*
X155318038Y-86521190D01*
X155318038Y-86521190D02*
X155378990Y-86551667D01*
X155378990Y-86551667D02*
X155531371Y-86551667D01*
X155531371Y-86551667D02*
X155592323Y-86521190D01*
X155592323Y-86521190D02*
X155622800Y-86490714D01*
X155622800Y-86490714D02*
X155653276Y-86429762D01*
X155653276Y-86429762D02*
X155653276Y-86246905D01*
X155653276Y-86246905D02*
X155622800Y-86185952D01*
X155622800Y-86185952D02*
X155592323Y-86155476D01*
X132156428Y-91872323D02*
X132186904Y-91902800D01*
X132186904Y-91902800D02*
X132278333Y-91933276D01*
X132278333Y-91933276D02*
X132339285Y-91933276D01*
X132339285Y-91933276D02*
X132430714Y-91902800D01*
X132430714Y-91902800D02*
X132491666Y-91841847D01*
X132491666Y-91841847D02*
X132522143Y-91780895D01*
X132522143Y-91780895D02*
X132552619Y-91658990D01*
X132552619Y-91658990D02*
X132552619Y-91567561D01*
X132552619Y-91567561D02*
X132522143Y-91445657D01*
X132522143Y-91445657D02*
X132491666Y-91384704D01*
X132491666Y-91384704D02*
X132430714Y-91323752D01*
X132430714Y-91323752D02*
X132339285Y-91293276D01*
X132339285Y-91293276D02*
X132278333Y-91293276D01*
X132278333Y-91293276D02*
X132186904Y-91323752D01*
X132186904Y-91323752D02*
X132156428Y-91354228D01*
X131546904Y-91933276D02*
X131912619Y-91933276D01*
X131729762Y-91933276D02*
X131729762Y-91293276D01*
X131729762Y-91293276D02*
X131790714Y-91384704D01*
X131790714Y-91384704D02*
X131851666Y-91445657D01*
X131851666Y-91445657D02*
X131912619Y-91476133D01*
X131303095Y-91354228D02*
X131272619Y-91323752D01*
X131272619Y-91323752D02*
X131211666Y-91293276D01*
X131211666Y-91293276D02*
X131059285Y-91293276D01*
X131059285Y-91293276D02*
X130998333Y-91323752D01*
X130998333Y-91323752D02*
X130967857Y-91354228D01*
X130967857Y-91354228D02*
X130937380Y-91415180D01*
X130937380Y-91415180D02*
X130937380Y-91476133D01*
X130937380Y-91476133D02*
X130967857Y-91567561D01*
X130967857Y-91567561D02*
X131333571Y-91933276D01*
X131333571Y-91933276D02*
X130937380Y-91933276D01*
X119306428Y-85263276D02*
X119519762Y-84958514D01*
X119672143Y-85263276D02*
X119672143Y-84623276D01*
X119672143Y-84623276D02*
X119428333Y-84623276D01*
X119428333Y-84623276D02*
X119367381Y-84653752D01*
X119367381Y-84653752D02*
X119336904Y-84684228D01*
X119336904Y-84684228D02*
X119306428Y-84745180D01*
X119306428Y-84745180D02*
X119306428Y-84836609D01*
X119306428Y-84836609D02*
X119336904Y-84897561D01*
X119336904Y-84897561D02*
X119367381Y-84928038D01*
X119367381Y-84928038D02*
X119428333Y-84958514D01*
X119428333Y-84958514D02*
X119672143Y-84958514D01*
X118696904Y-85263276D02*
X119062619Y-85263276D01*
X118879762Y-85263276D02*
X118879762Y-84623276D01*
X118879762Y-84623276D02*
X118940714Y-84714704D01*
X118940714Y-84714704D02*
X119001666Y-84775657D01*
X119001666Y-84775657D02*
X119062619Y-84806133D01*
X118300714Y-84623276D02*
X118239761Y-84623276D01*
X118239761Y-84623276D02*
X118178809Y-84653752D01*
X118178809Y-84653752D02*
X118148333Y-84684228D01*
X118148333Y-84684228D02*
X118117857Y-84745180D01*
X118117857Y-84745180D02*
X118087380Y-84867085D01*
X118087380Y-84867085D02*
X118087380Y-85019466D01*
X118087380Y-85019466D02*
X118117857Y-85141371D01*
X118117857Y-85141371D02*
X118148333Y-85202323D01*
X118148333Y-85202323D02*
X118178809Y-85232800D01*
X118178809Y-85232800D02*
X118239761Y-85263276D01*
X118239761Y-85263276D02*
X118300714Y-85263276D01*
X118300714Y-85263276D02*
X118361666Y-85232800D01*
X118361666Y-85232800D02*
X118392142Y-85202323D01*
X118392142Y-85202323D02*
X118422619Y-85141371D01*
X118422619Y-85141371D02*
X118453095Y-85019466D01*
X118453095Y-85019466D02*
X118453095Y-84867085D01*
X118453095Y-84867085D02*
X118422619Y-84745180D01*
X118422619Y-84745180D02*
X118392142Y-84684228D01*
X118392142Y-84684228D02*
X118361666Y-84653752D01*
X118361666Y-84653752D02*
X118300714Y-84623276D01*
X126806428Y-109172323D02*
X126836904Y-109202800D01*
X126836904Y-109202800D02*
X126928333Y-109233276D01*
X126928333Y-109233276D02*
X126989285Y-109233276D01*
X126989285Y-109233276D02*
X127080714Y-109202800D01*
X127080714Y-109202800D02*
X127141666Y-109141847D01*
X127141666Y-109141847D02*
X127172143Y-109080895D01*
X127172143Y-109080895D02*
X127202619Y-108958990D01*
X127202619Y-108958990D02*
X127202619Y-108867561D01*
X127202619Y-108867561D02*
X127172143Y-108745657D01*
X127172143Y-108745657D02*
X127141666Y-108684704D01*
X127141666Y-108684704D02*
X127080714Y-108623752D01*
X127080714Y-108623752D02*
X126989285Y-108593276D01*
X126989285Y-108593276D02*
X126928333Y-108593276D01*
X126928333Y-108593276D02*
X126836904Y-108623752D01*
X126836904Y-108623752D02*
X126806428Y-108654228D01*
X126562619Y-108654228D02*
X126532143Y-108623752D01*
X126532143Y-108623752D02*
X126471190Y-108593276D01*
X126471190Y-108593276D02*
X126318809Y-108593276D01*
X126318809Y-108593276D02*
X126257857Y-108623752D01*
X126257857Y-108623752D02*
X126227381Y-108654228D01*
X126227381Y-108654228D02*
X126196904Y-108715180D01*
X126196904Y-108715180D02*
X126196904Y-108776133D01*
X126196904Y-108776133D02*
X126227381Y-108867561D01*
X126227381Y-108867561D02*
X126593095Y-109233276D01*
X126593095Y-109233276D02*
X126196904Y-109233276D01*
X125800714Y-108593276D02*
X125739761Y-108593276D01*
X125739761Y-108593276D02*
X125678809Y-108623752D01*
X125678809Y-108623752D02*
X125648333Y-108654228D01*
X125648333Y-108654228D02*
X125617857Y-108715180D01*
X125617857Y-108715180D02*
X125587380Y-108837085D01*
X125587380Y-108837085D02*
X125587380Y-108989466D01*
X125587380Y-108989466D02*
X125617857Y-109111371D01*
X125617857Y-109111371D02*
X125648333Y-109172323D01*
X125648333Y-109172323D02*
X125678809Y-109202800D01*
X125678809Y-109202800D02*
X125739761Y-109233276D01*
X125739761Y-109233276D02*
X125800714Y-109233276D01*
X125800714Y-109233276D02*
X125861666Y-109202800D01*
X125861666Y-109202800D02*
X125892142Y-109172323D01*
X125892142Y-109172323D02*
X125922619Y-109111371D01*
X125922619Y-109111371D02*
X125953095Y-108989466D01*
X125953095Y-108989466D02*
X125953095Y-108837085D01*
X125953095Y-108837085D02*
X125922619Y-108715180D01*
X125922619Y-108715180D02*
X125892142Y-108654228D01*
X125892142Y-108654228D02*
X125861666Y-108623752D01*
X125861666Y-108623752D02*
X125800714Y-108593276D01*
X144311666Y-102902323D02*
X144342142Y-102932800D01*
X144342142Y-102932800D02*
X144433571Y-102963276D01*
X144433571Y-102963276D02*
X144494523Y-102963276D01*
X144494523Y-102963276D02*
X144585952Y-102932800D01*
X144585952Y-102932800D02*
X144646904Y-102871847D01*
X144646904Y-102871847D02*
X144677381Y-102810895D01*
X144677381Y-102810895D02*
X144707857Y-102688990D01*
X144707857Y-102688990D02*
X144707857Y-102597561D01*
X144707857Y-102597561D02*
X144677381Y-102475657D01*
X144677381Y-102475657D02*
X144646904Y-102414704D01*
X144646904Y-102414704D02*
X144585952Y-102353752D01*
X144585952Y-102353752D02*
X144494523Y-102323276D01*
X144494523Y-102323276D02*
X144433571Y-102323276D01*
X144433571Y-102323276D02*
X144342142Y-102353752D01*
X144342142Y-102353752D02*
X144311666Y-102384228D01*
X144098333Y-102323276D02*
X143702142Y-102323276D01*
X143702142Y-102323276D02*
X143915476Y-102567085D01*
X143915476Y-102567085D02*
X143824047Y-102567085D01*
X143824047Y-102567085D02*
X143763095Y-102597561D01*
X143763095Y-102597561D02*
X143732619Y-102628038D01*
X143732619Y-102628038D02*
X143702142Y-102688990D01*
X143702142Y-102688990D02*
X143702142Y-102841371D01*
X143702142Y-102841371D02*
X143732619Y-102902323D01*
X143732619Y-102902323D02*
X143763095Y-102932800D01*
X143763095Y-102932800D02*
X143824047Y-102963276D01*
X143824047Y-102963276D02*
X144006904Y-102963276D01*
X144006904Y-102963276D02*
X144067857Y-102932800D01*
X144067857Y-102932800D02*
X144098333Y-102902323D01*
X119001666Y-81483276D02*
X119215000Y-81178514D01*
X119367381Y-81483276D02*
X119367381Y-80843276D01*
X119367381Y-80843276D02*
X119123571Y-80843276D01*
X119123571Y-80843276D02*
X119062619Y-80873752D01*
X119062619Y-80873752D02*
X119032142Y-80904228D01*
X119032142Y-80904228D02*
X119001666Y-80965180D01*
X119001666Y-80965180D02*
X119001666Y-81056609D01*
X119001666Y-81056609D02*
X119032142Y-81117561D01*
X119032142Y-81117561D02*
X119062619Y-81148038D01*
X119062619Y-81148038D02*
X119123571Y-81178514D01*
X119123571Y-81178514D02*
X119367381Y-81178514D01*
X118696904Y-81483276D02*
X118575000Y-81483276D01*
X118575000Y-81483276D02*
X118514047Y-81452800D01*
X118514047Y-81452800D02*
X118483571Y-81422323D01*
X118483571Y-81422323D02*
X118422619Y-81330895D01*
X118422619Y-81330895D02*
X118392142Y-81208990D01*
X118392142Y-81208990D02*
X118392142Y-80965180D01*
X118392142Y-80965180D02*
X118422619Y-80904228D01*
X118422619Y-80904228D02*
X118453095Y-80873752D01*
X118453095Y-80873752D02*
X118514047Y-80843276D01*
X118514047Y-80843276D02*
X118635952Y-80843276D01*
X118635952Y-80843276D02*
X118696904Y-80873752D01*
X118696904Y-80873752D02*
X118727381Y-80904228D01*
X118727381Y-80904228D02*
X118757857Y-80965180D01*
X118757857Y-80965180D02*
X118757857Y-81117561D01*
X118757857Y-81117561D02*
X118727381Y-81178514D01*
X118727381Y-81178514D02*
X118696904Y-81208990D01*
X118696904Y-81208990D02*
X118635952Y-81239466D01*
X118635952Y-81239466D02*
X118514047Y-81239466D01*
X118514047Y-81239466D02*
X118453095Y-81208990D01*
X118453095Y-81208990D02*
X118422619Y-81178514D01*
X118422619Y-81178514D02*
X118392142Y-81117561D01*
X137006428Y-94132323D02*
X137036904Y-94162800D01*
X137036904Y-94162800D02*
X137128333Y-94193276D01*
X137128333Y-94193276D02*
X137189285Y-94193276D01*
X137189285Y-94193276D02*
X137280714Y-94162800D01*
X137280714Y-94162800D02*
X137341666Y-94101847D01*
X137341666Y-94101847D02*
X137372143Y-94040895D01*
X137372143Y-94040895D02*
X137402619Y-93918990D01*
X137402619Y-93918990D02*
X137402619Y-93827561D01*
X137402619Y-93827561D02*
X137372143Y-93705657D01*
X137372143Y-93705657D02*
X137341666Y-93644704D01*
X137341666Y-93644704D02*
X137280714Y-93583752D01*
X137280714Y-93583752D02*
X137189285Y-93553276D01*
X137189285Y-93553276D02*
X137128333Y-93553276D01*
X137128333Y-93553276D02*
X137036904Y-93583752D01*
X137036904Y-93583752D02*
X137006428Y-93614228D01*
X136396904Y-94193276D02*
X136762619Y-94193276D01*
X136579762Y-94193276D02*
X136579762Y-93553276D01*
X136579762Y-93553276D02*
X136640714Y-93644704D01*
X136640714Y-93644704D02*
X136701666Y-93705657D01*
X136701666Y-93705657D02*
X136762619Y-93736133D01*
X135817857Y-93553276D02*
X136122619Y-93553276D01*
X136122619Y-93553276D02*
X136153095Y-93858038D01*
X136153095Y-93858038D02*
X136122619Y-93827561D01*
X136122619Y-93827561D02*
X136061666Y-93797085D01*
X136061666Y-93797085D02*
X135909285Y-93797085D01*
X135909285Y-93797085D02*
X135848333Y-93827561D01*
X135848333Y-93827561D02*
X135817857Y-93858038D01*
X135817857Y-93858038D02*
X135787380Y-93918990D01*
X135787380Y-93918990D02*
X135787380Y-94071371D01*
X135787380Y-94071371D02*
X135817857Y-94132323D01*
X135817857Y-94132323D02*
X135848333Y-94162800D01*
X135848333Y-94162800D02*
X135909285Y-94193276D01*
X135909285Y-94193276D02*
X136061666Y-94193276D01*
X136061666Y-94193276D02*
X136122619Y-94162800D01*
X136122619Y-94162800D02*
X136153095Y-94132323D01*
X127626428Y-106572323D02*
X127656904Y-106602800D01*
X127656904Y-106602800D02*
X127748333Y-106633276D01*
X127748333Y-106633276D02*
X127809285Y-106633276D01*
X127809285Y-106633276D02*
X127900714Y-106602800D01*
X127900714Y-106602800D02*
X127961666Y-106541847D01*
X127961666Y-106541847D02*
X127992143Y-106480895D01*
X127992143Y-106480895D02*
X128022619Y-106358990D01*
X128022619Y-106358990D02*
X128022619Y-106267561D01*
X128022619Y-106267561D02*
X127992143Y-106145657D01*
X127992143Y-106145657D02*
X127961666Y-106084704D01*
X127961666Y-106084704D02*
X127900714Y-106023752D01*
X127900714Y-106023752D02*
X127809285Y-105993276D01*
X127809285Y-105993276D02*
X127748333Y-105993276D01*
X127748333Y-105993276D02*
X127656904Y-106023752D01*
X127656904Y-106023752D02*
X127626428Y-106054228D01*
X127016904Y-106633276D02*
X127382619Y-106633276D01*
X127199762Y-106633276D02*
X127199762Y-105993276D01*
X127199762Y-105993276D02*
X127260714Y-106084704D01*
X127260714Y-106084704D02*
X127321666Y-106145657D01*
X127321666Y-106145657D02*
X127382619Y-106176133D01*
X126468333Y-106206609D02*
X126468333Y-106633276D01*
X126620714Y-105962800D02*
X126773095Y-106419942D01*
X126773095Y-106419942D02*
X126376904Y-106419942D01*
X116792323Y-107923571D02*
X116822800Y-107893095D01*
X116822800Y-107893095D02*
X116853276Y-107801666D01*
X116853276Y-107801666D02*
X116853276Y-107740714D01*
X116853276Y-107740714D02*
X116822800Y-107649285D01*
X116822800Y-107649285D02*
X116761847Y-107588333D01*
X116761847Y-107588333D02*
X116700895Y-107557856D01*
X116700895Y-107557856D02*
X116578990Y-107527380D01*
X116578990Y-107527380D02*
X116487561Y-107527380D01*
X116487561Y-107527380D02*
X116365657Y-107557856D01*
X116365657Y-107557856D02*
X116304704Y-107588333D01*
X116304704Y-107588333D02*
X116243752Y-107649285D01*
X116243752Y-107649285D02*
X116213276Y-107740714D01*
X116213276Y-107740714D02*
X116213276Y-107801666D01*
X116213276Y-107801666D02*
X116243752Y-107893095D01*
X116243752Y-107893095D02*
X116274228Y-107923571D01*
X116274228Y-108167380D02*
X116243752Y-108197856D01*
X116243752Y-108197856D02*
X116213276Y-108258809D01*
X116213276Y-108258809D02*
X116213276Y-108411190D01*
X116213276Y-108411190D02*
X116243752Y-108472142D01*
X116243752Y-108472142D02*
X116274228Y-108502618D01*
X116274228Y-108502618D02*
X116335180Y-108533095D01*
X116335180Y-108533095D02*
X116396133Y-108533095D01*
X116396133Y-108533095D02*
X116487561Y-108502618D01*
X116487561Y-108502618D02*
X116853276Y-108136904D01*
X116853276Y-108136904D02*
X116853276Y-108533095D01*
X116213276Y-108746428D02*
X116213276Y-109142619D01*
X116213276Y-109142619D02*
X116457085Y-108929285D01*
X116457085Y-108929285D02*
X116457085Y-109020714D01*
X116457085Y-109020714D02*
X116487561Y-109081666D01*
X116487561Y-109081666D02*
X116518038Y-109112142D01*
X116518038Y-109112142D02*
X116578990Y-109142619D01*
X116578990Y-109142619D02*
X116731371Y-109142619D01*
X116731371Y-109142619D02*
X116792323Y-109112142D01*
X116792323Y-109112142D02*
X116822800Y-109081666D01*
X116822800Y-109081666D02*
X116853276Y-109020714D01*
X116853276Y-109020714D02*
X116853276Y-108837857D01*
X116853276Y-108837857D02*
X116822800Y-108776904D01*
X116822800Y-108776904D02*
X116792323Y-108746428D01*
X146793276Y-78561667D02*
X147250419Y-78561667D01*
X147250419Y-78561667D02*
X147341847Y-78531190D01*
X147341847Y-78531190D02*
X147402800Y-78470238D01*
X147402800Y-78470238D02*
X147433276Y-78378809D01*
X147433276Y-78378809D02*
X147433276Y-78317857D01*
X147433276Y-78866428D02*
X146793276Y-78866428D01*
X146793276Y-78866428D02*
X146793276Y-79110238D01*
X146793276Y-79110238D02*
X146823752Y-79171190D01*
X146823752Y-79171190D02*
X146854228Y-79201667D01*
X146854228Y-79201667D02*
X146915180Y-79232143D01*
X146915180Y-79232143D02*
X147006609Y-79232143D01*
X147006609Y-79232143D02*
X147067561Y-79201667D01*
X147067561Y-79201667D02*
X147098038Y-79171190D01*
X147098038Y-79171190D02*
X147128514Y-79110238D01*
X147128514Y-79110238D02*
X147128514Y-78866428D01*
X147433276Y-79841667D02*
X147433276Y-79475952D01*
X147433276Y-79658809D02*
X146793276Y-79658809D01*
X146793276Y-79658809D02*
X146884704Y-79597857D01*
X146884704Y-79597857D02*
X146945657Y-79536905D01*
X146945657Y-79536905D02*
X146976133Y-79475952D01*
X117966428Y-118413276D02*
X118179762Y-118108514D01*
X118332143Y-118413276D02*
X118332143Y-117773276D01*
X118332143Y-117773276D02*
X118088333Y-117773276D01*
X118088333Y-117773276D02*
X118027381Y-117803752D01*
X118027381Y-117803752D02*
X117996904Y-117834228D01*
X117996904Y-117834228D02*
X117966428Y-117895180D01*
X117966428Y-117895180D02*
X117966428Y-117986609D01*
X117966428Y-117986609D02*
X117996904Y-118047561D01*
X117996904Y-118047561D02*
X118027381Y-118078038D01*
X118027381Y-118078038D02*
X118088333Y-118108514D01*
X118088333Y-118108514D02*
X118332143Y-118108514D01*
X117356904Y-118413276D02*
X117722619Y-118413276D01*
X117539762Y-118413276D02*
X117539762Y-117773276D01*
X117539762Y-117773276D02*
X117600714Y-117864704D01*
X117600714Y-117864704D02*
X117661666Y-117925657D01*
X117661666Y-117925657D02*
X117722619Y-117956133D01*
X116808333Y-117986609D02*
X116808333Y-118413276D01*
X116960714Y-117742800D02*
X117113095Y-118199942D01*
X117113095Y-118199942D02*
X116716904Y-118199942D01*
X151372323Y-114268333D02*
X151402800Y-114237857D01*
X151402800Y-114237857D02*
X151433276Y-114146428D01*
X151433276Y-114146428D02*
X151433276Y-114085476D01*
X151433276Y-114085476D02*
X151402800Y-113994047D01*
X151402800Y-113994047D02*
X151341847Y-113933095D01*
X151341847Y-113933095D02*
X151280895Y-113902618D01*
X151280895Y-113902618D02*
X151158990Y-113872142D01*
X151158990Y-113872142D02*
X151067561Y-113872142D01*
X151067561Y-113872142D02*
X150945657Y-113902618D01*
X150945657Y-113902618D02*
X150884704Y-113933095D01*
X150884704Y-113933095D02*
X150823752Y-113994047D01*
X150823752Y-113994047D02*
X150793276Y-114085476D01*
X150793276Y-114085476D02*
X150793276Y-114146428D01*
X150793276Y-114146428D02*
X150823752Y-114237857D01*
X150823752Y-114237857D02*
X150854228Y-114268333D01*
X150854228Y-114512142D02*
X150823752Y-114542618D01*
X150823752Y-114542618D02*
X150793276Y-114603571D01*
X150793276Y-114603571D02*
X150793276Y-114755952D01*
X150793276Y-114755952D02*
X150823752Y-114816904D01*
X150823752Y-114816904D02*
X150854228Y-114847380D01*
X150854228Y-114847380D02*
X150915180Y-114877857D01*
X150915180Y-114877857D02*
X150976133Y-114877857D01*
X150976133Y-114877857D02*
X151067561Y-114847380D01*
X151067561Y-114847380D02*
X151433276Y-114481666D01*
X151433276Y-114481666D02*
X151433276Y-114877857D01*
X119783276Y-110412618D02*
X119143276Y-110412618D01*
X119143276Y-110412618D02*
X119143276Y-110564999D01*
X119143276Y-110564999D02*
X119173752Y-110656428D01*
X119173752Y-110656428D02*
X119234704Y-110717380D01*
X119234704Y-110717380D02*
X119295657Y-110747857D01*
X119295657Y-110747857D02*
X119417561Y-110778333D01*
X119417561Y-110778333D02*
X119508990Y-110778333D01*
X119508990Y-110778333D02*
X119630895Y-110747857D01*
X119630895Y-110747857D02*
X119691847Y-110717380D01*
X119691847Y-110717380D02*
X119752800Y-110656428D01*
X119752800Y-110656428D02*
X119783276Y-110564999D01*
X119783276Y-110564999D02*
X119783276Y-110412618D01*
X119143276Y-110991666D02*
X119143276Y-111418333D01*
X119143276Y-111418333D02*
X119783276Y-111144047D01*
X153611666Y-110442323D02*
X153642142Y-110472800D01*
X153642142Y-110472800D02*
X153733571Y-110503276D01*
X153733571Y-110503276D02*
X153794523Y-110503276D01*
X153794523Y-110503276D02*
X153885952Y-110472800D01*
X153885952Y-110472800D02*
X153946904Y-110411847D01*
X153946904Y-110411847D02*
X153977381Y-110350895D01*
X153977381Y-110350895D02*
X154007857Y-110228990D01*
X154007857Y-110228990D02*
X154007857Y-110137561D01*
X154007857Y-110137561D02*
X153977381Y-110015657D01*
X153977381Y-110015657D02*
X153946904Y-109954704D01*
X153946904Y-109954704D02*
X153885952Y-109893752D01*
X153885952Y-109893752D02*
X153794523Y-109863276D01*
X153794523Y-109863276D02*
X153733571Y-109863276D01*
X153733571Y-109863276D02*
X153642142Y-109893752D01*
X153642142Y-109893752D02*
X153611666Y-109924228D01*
X153063095Y-110076609D02*
X153063095Y-110503276D01*
X153215476Y-109832800D02*
X153367857Y-110289942D01*
X153367857Y-110289942D02*
X152971666Y-110289942D01*
X139446428Y-94202323D02*
X139476904Y-94232800D01*
X139476904Y-94232800D02*
X139568333Y-94263276D01*
X139568333Y-94263276D02*
X139629285Y-94263276D01*
X139629285Y-94263276D02*
X139720714Y-94232800D01*
X139720714Y-94232800D02*
X139781666Y-94171847D01*
X139781666Y-94171847D02*
X139812143Y-94110895D01*
X139812143Y-94110895D02*
X139842619Y-93988990D01*
X139842619Y-93988990D02*
X139842619Y-93897561D01*
X139842619Y-93897561D02*
X139812143Y-93775657D01*
X139812143Y-93775657D02*
X139781666Y-93714704D01*
X139781666Y-93714704D02*
X139720714Y-93653752D01*
X139720714Y-93653752D02*
X139629285Y-93623276D01*
X139629285Y-93623276D02*
X139568333Y-93623276D01*
X139568333Y-93623276D02*
X139476904Y-93653752D01*
X139476904Y-93653752D02*
X139446428Y-93684228D01*
X138836904Y-94263276D02*
X139202619Y-94263276D01*
X139019762Y-94263276D02*
X139019762Y-93623276D01*
X139019762Y-93623276D02*
X139080714Y-93714704D01*
X139080714Y-93714704D02*
X139141666Y-93775657D01*
X139141666Y-93775657D02*
X139202619Y-93806133D01*
X138623571Y-93623276D02*
X138196904Y-93623276D01*
X138196904Y-93623276D02*
X138471190Y-94263276D01*
X134301666Y-113493276D02*
X134515000Y-113188514D01*
X134667381Y-113493276D02*
X134667381Y-112853276D01*
X134667381Y-112853276D02*
X134423571Y-112853276D01*
X134423571Y-112853276D02*
X134362619Y-112883752D01*
X134362619Y-112883752D02*
X134332142Y-112914228D01*
X134332142Y-112914228D02*
X134301666Y-112975180D01*
X134301666Y-112975180D02*
X134301666Y-113066609D01*
X134301666Y-113066609D02*
X134332142Y-113127561D01*
X134332142Y-113127561D02*
X134362619Y-113158038D01*
X134362619Y-113158038D02*
X134423571Y-113188514D01*
X134423571Y-113188514D02*
X134667381Y-113188514D01*
X133753095Y-113066609D02*
X133753095Y-113493276D01*
X133905476Y-112822800D02*
X134057857Y-113279942D01*
X134057857Y-113279942D02*
X133661666Y-113279942D01*
X143943276Y-91167380D02*
X144461371Y-91167380D01*
X144461371Y-91167380D02*
X144522323Y-91197857D01*
X144522323Y-91197857D02*
X144552800Y-91228333D01*
X144552800Y-91228333D02*
X144583276Y-91289285D01*
X144583276Y-91289285D02*
X144583276Y-91411190D01*
X144583276Y-91411190D02*
X144552800Y-91472142D01*
X144552800Y-91472142D02*
X144522323Y-91502619D01*
X144522323Y-91502619D02*
X144461371Y-91533095D01*
X144461371Y-91533095D02*
X143943276Y-91533095D01*
X143943276Y-92142618D02*
X143943276Y-91837856D01*
X143943276Y-91837856D02*
X144248038Y-91807380D01*
X144248038Y-91807380D02*
X144217561Y-91837856D01*
X144217561Y-91837856D02*
X144187085Y-91898809D01*
X144187085Y-91898809D02*
X144187085Y-92051190D01*
X144187085Y-92051190D02*
X144217561Y-92112142D01*
X144217561Y-92112142D02*
X144248038Y-92142618D01*
X144248038Y-92142618D02*
X144308990Y-92173095D01*
X144308990Y-92173095D02*
X144461371Y-92173095D01*
X144461371Y-92173095D02*
X144522323Y-92142618D01*
X144522323Y-92142618D02*
X144552800Y-92112142D01*
X144552800Y-92112142D02*
X144583276Y-92051190D01*
X144583276Y-92051190D02*
X144583276Y-91898809D01*
X144583276Y-91898809D02*
X144552800Y-91837856D01*
X144552800Y-91837856D02*
X144522323Y-91807380D01*
X131716428Y-110612323D02*
X131746904Y-110642800D01*
X131746904Y-110642800D02*
X131838333Y-110673276D01*
X131838333Y-110673276D02*
X131899285Y-110673276D01*
X131899285Y-110673276D02*
X131990714Y-110642800D01*
X131990714Y-110642800D02*
X132051666Y-110581847D01*
X132051666Y-110581847D02*
X132082143Y-110520895D01*
X132082143Y-110520895D02*
X132112619Y-110398990D01*
X132112619Y-110398990D02*
X132112619Y-110307561D01*
X132112619Y-110307561D02*
X132082143Y-110185657D01*
X132082143Y-110185657D02*
X132051666Y-110124704D01*
X132051666Y-110124704D02*
X131990714Y-110063752D01*
X131990714Y-110063752D02*
X131899285Y-110033276D01*
X131899285Y-110033276D02*
X131838333Y-110033276D01*
X131838333Y-110033276D02*
X131746904Y-110063752D01*
X131746904Y-110063752D02*
X131716428Y-110094228D01*
X131106904Y-110673276D02*
X131472619Y-110673276D01*
X131289762Y-110673276D02*
X131289762Y-110033276D01*
X131289762Y-110033276D02*
X131350714Y-110124704D01*
X131350714Y-110124704D02*
X131411666Y-110185657D01*
X131411666Y-110185657D02*
X131472619Y-110216133D01*
X130893571Y-110033276D02*
X130497380Y-110033276D01*
X130497380Y-110033276D02*
X130710714Y-110277085D01*
X130710714Y-110277085D02*
X130619285Y-110277085D01*
X130619285Y-110277085D02*
X130558333Y-110307561D01*
X130558333Y-110307561D02*
X130527857Y-110338038D01*
X130527857Y-110338038D02*
X130497380Y-110398990D01*
X130497380Y-110398990D02*
X130497380Y-110551371D01*
X130497380Y-110551371D02*
X130527857Y-110612323D01*
X130527857Y-110612323D02*
X130558333Y-110642800D01*
X130558333Y-110642800D02*
X130619285Y-110673276D01*
X130619285Y-110673276D02*
X130802142Y-110673276D01*
X130802142Y-110673276D02*
X130863095Y-110642800D01*
X130863095Y-110642800D02*
X130893571Y-110612323D01*
X117661666Y-121413276D02*
X117875000Y-121108514D01*
X118027381Y-121413276D02*
X118027381Y-120773276D01*
X118027381Y-120773276D02*
X117783571Y-120773276D01*
X117783571Y-120773276D02*
X117722619Y-120803752D01*
X117722619Y-120803752D02*
X117692142Y-120834228D01*
X117692142Y-120834228D02*
X117661666Y-120895180D01*
X117661666Y-120895180D02*
X117661666Y-120986609D01*
X117661666Y-120986609D02*
X117692142Y-121047561D01*
X117692142Y-121047561D02*
X117722619Y-121078038D01*
X117722619Y-121078038D02*
X117783571Y-121108514D01*
X117783571Y-121108514D02*
X118027381Y-121108514D01*
X117082619Y-120773276D02*
X117387381Y-120773276D01*
X117387381Y-120773276D02*
X117417857Y-121078038D01*
X117417857Y-121078038D02*
X117387381Y-121047561D01*
X117387381Y-121047561D02*
X117326428Y-121017085D01*
X117326428Y-121017085D02*
X117174047Y-121017085D01*
X117174047Y-121017085D02*
X117113095Y-121047561D01*
X117113095Y-121047561D02*
X117082619Y-121078038D01*
X117082619Y-121078038D02*
X117052142Y-121138990D01*
X117052142Y-121138990D02*
X117052142Y-121291371D01*
X117052142Y-121291371D02*
X117082619Y-121352323D01*
X117082619Y-121352323D02*
X117113095Y-121382800D01*
X117113095Y-121382800D02*
X117174047Y-121413276D01*
X117174047Y-121413276D02*
X117326428Y-121413276D01*
X117326428Y-121413276D02*
X117387381Y-121382800D01*
X117387381Y-121382800D02*
X117417857Y-121352323D01*
X134446428Y-94332323D02*
X134476904Y-94362800D01*
X134476904Y-94362800D02*
X134568333Y-94393276D01*
X134568333Y-94393276D02*
X134629285Y-94393276D01*
X134629285Y-94393276D02*
X134720714Y-94362800D01*
X134720714Y-94362800D02*
X134781666Y-94301847D01*
X134781666Y-94301847D02*
X134812143Y-94240895D01*
X134812143Y-94240895D02*
X134842619Y-94118990D01*
X134842619Y-94118990D02*
X134842619Y-94027561D01*
X134842619Y-94027561D02*
X134812143Y-93905657D01*
X134812143Y-93905657D02*
X134781666Y-93844704D01*
X134781666Y-93844704D02*
X134720714Y-93783752D01*
X134720714Y-93783752D02*
X134629285Y-93753276D01*
X134629285Y-93753276D02*
X134568333Y-93753276D01*
X134568333Y-93753276D02*
X134476904Y-93783752D01*
X134476904Y-93783752D02*
X134446428Y-93814228D01*
X133836904Y-94393276D02*
X134202619Y-94393276D01*
X134019762Y-94393276D02*
X134019762Y-93753276D01*
X134019762Y-93753276D02*
X134080714Y-93844704D01*
X134080714Y-93844704D02*
X134141666Y-93905657D01*
X134141666Y-93905657D02*
X134202619Y-93936133D01*
X133288333Y-93753276D02*
X133410238Y-93753276D01*
X133410238Y-93753276D02*
X133471190Y-93783752D01*
X133471190Y-93783752D02*
X133501666Y-93814228D01*
X133501666Y-93814228D02*
X133562619Y-93905657D01*
X133562619Y-93905657D02*
X133593095Y-94027561D01*
X133593095Y-94027561D02*
X133593095Y-94271371D01*
X133593095Y-94271371D02*
X133562619Y-94332323D01*
X133562619Y-94332323D02*
X133532142Y-94362800D01*
X133532142Y-94362800D02*
X133471190Y-94393276D01*
X133471190Y-94393276D02*
X133349285Y-94393276D01*
X133349285Y-94393276D02*
X133288333Y-94362800D01*
X133288333Y-94362800D02*
X133257857Y-94332323D01*
X133257857Y-94332323D02*
X133227380Y-94271371D01*
X133227380Y-94271371D02*
X133227380Y-94118990D01*
X133227380Y-94118990D02*
X133257857Y-94058038D01*
X133257857Y-94058038D02*
X133288333Y-94027561D01*
X133288333Y-94027561D02*
X133349285Y-93997085D01*
X133349285Y-93997085D02*
X133471190Y-93997085D01*
X133471190Y-93997085D02*
X133532142Y-94027561D01*
X133532142Y-94027561D02*
X133562619Y-94058038D01*
X133562619Y-94058038D02*
X133593095Y-94118990D01*
X157392323Y-114588333D02*
X157422800Y-114557857D01*
X157422800Y-114557857D02*
X157453276Y-114466428D01*
X157453276Y-114466428D02*
X157453276Y-114405476D01*
X157453276Y-114405476D02*
X157422800Y-114314047D01*
X157422800Y-114314047D02*
X157361847Y-114253095D01*
X157361847Y-114253095D02*
X157300895Y-114222618D01*
X157300895Y-114222618D02*
X157178990Y-114192142D01*
X157178990Y-114192142D02*
X157087561Y-114192142D01*
X157087561Y-114192142D02*
X156965657Y-114222618D01*
X156965657Y-114222618D02*
X156904704Y-114253095D01*
X156904704Y-114253095D02*
X156843752Y-114314047D01*
X156843752Y-114314047D02*
X156813276Y-114405476D01*
X156813276Y-114405476D02*
X156813276Y-114466428D01*
X156813276Y-114466428D02*
X156843752Y-114557857D01*
X156843752Y-114557857D02*
X156874228Y-114588333D01*
X157453276Y-115197857D02*
X157453276Y-114832142D01*
X157453276Y-115014999D02*
X156813276Y-115014999D01*
X156813276Y-115014999D02*
X156904704Y-114954047D01*
X156904704Y-114954047D02*
X156965657Y-114893095D01*
X156965657Y-114893095D02*
X156996133Y-114832142D01*
X122746428Y-114612323D02*
X122776904Y-114642800D01*
X122776904Y-114642800D02*
X122868333Y-114673276D01*
X122868333Y-114673276D02*
X122929285Y-114673276D01*
X122929285Y-114673276D02*
X123020714Y-114642800D01*
X123020714Y-114642800D02*
X123081666Y-114581847D01*
X123081666Y-114581847D02*
X123112143Y-114520895D01*
X123112143Y-114520895D02*
X123142619Y-114398990D01*
X123142619Y-114398990D02*
X123142619Y-114307561D01*
X123142619Y-114307561D02*
X123112143Y-114185657D01*
X123112143Y-114185657D02*
X123081666Y-114124704D01*
X123081666Y-114124704D02*
X123020714Y-114063752D01*
X123020714Y-114063752D02*
X122929285Y-114033276D01*
X122929285Y-114033276D02*
X122868333Y-114033276D01*
X122868333Y-114033276D02*
X122776904Y-114063752D01*
X122776904Y-114063752D02*
X122746428Y-114094228D01*
X122502619Y-114094228D02*
X122472143Y-114063752D01*
X122472143Y-114063752D02*
X122411190Y-114033276D01*
X122411190Y-114033276D02*
X122258809Y-114033276D01*
X122258809Y-114033276D02*
X122197857Y-114063752D01*
X122197857Y-114063752D02*
X122167381Y-114094228D01*
X122167381Y-114094228D02*
X122136904Y-114155180D01*
X122136904Y-114155180D02*
X122136904Y-114216133D01*
X122136904Y-114216133D02*
X122167381Y-114307561D01*
X122167381Y-114307561D02*
X122533095Y-114673276D01*
X122533095Y-114673276D02*
X122136904Y-114673276D01*
X121527380Y-114673276D02*
X121893095Y-114673276D01*
X121710238Y-114673276D02*
X121710238Y-114033276D01*
X121710238Y-114033276D02*
X121771190Y-114124704D01*
X121771190Y-114124704D02*
X121832142Y-114185657D01*
X121832142Y-114185657D02*
X121893095Y-114216133D01*
X144692619Y-83943276D02*
X144692619Y-84461371D01*
X144692619Y-84461371D02*
X144662142Y-84522323D01*
X144662142Y-84522323D02*
X144631666Y-84552800D01*
X144631666Y-84552800D02*
X144570714Y-84583276D01*
X144570714Y-84583276D02*
X144448809Y-84583276D01*
X144448809Y-84583276D02*
X144387857Y-84552800D01*
X144387857Y-84552800D02*
X144357380Y-84522323D01*
X144357380Y-84522323D02*
X144326904Y-84461371D01*
X144326904Y-84461371D02*
X144326904Y-83943276D01*
X143747857Y-84156609D02*
X143747857Y-84583276D01*
X143900238Y-83912800D02*
X144052619Y-84369942D01*
X144052619Y-84369942D02*
X143656428Y-84369942D01*
X152781666Y-104452323D02*
X152812142Y-104482800D01*
X152812142Y-104482800D02*
X152903571Y-104513276D01*
X152903571Y-104513276D02*
X152964523Y-104513276D01*
X152964523Y-104513276D02*
X153055952Y-104482800D01*
X153055952Y-104482800D02*
X153116904Y-104421847D01*
X153116904Y-104421847D02*
X153147381Y-104360895D01*
X153147381Y-104360895D02*
X153177857Y-104238990D01*
X153177857Y-104238990D02*
X153177857Y-104147561D01*
X153177857Y-104147561D02*
X153147381Y-104025657D01*
X153147381Y-104025657D02*
X153116904Y-103964704D01*
X153116904Y-103964704D02*
X153055952Y-103903752D01*
X153055952Y-103903752D02*
X152964523Y-103873276D01*
X152964523Y-103873276D02*
X152903571Y-103873276D01*
X152903571Y-103873276D02*
X152812142Y-103903752D01*
X152812142Y-103903752D02*
X152781666Y-103934228D01*
X152202619Y-103873276D02*
X152507381Y-103873276D01*
X152507381Y-103873276D02*
X152537857Y-104178038D01*
X152537857Y-104178038D02*
X152507381Y-104147561D01*
X152507381Y-104147561D02*
X152446428Y-104117085D01*
X152446428Y-104117085D02*
X152294047Y-104117085D01*
X152294047Y-104117085D02*
X152233095Y-104147561D01*
X152233095Y-104147561D02*
X152202619Y-104178038D01*
X152202619Y-104178038D02*
X152172142Y-104238990D01*
X152172142Y-104238990D02*
X152172142Y-104391371D01*
X152172142Y-104391371D02*
X152202619Y-104452323D01*
X152202619Y-104452323D02*
X152233095Y-104482800D01*
X152233095Y-104482800D02*
X152294047Y-104513276D01*
X152294047Y-104513276D02*
X152446428Y-104513276D01*
X152446428Y-104513276D02*
X152507381Y-104482800D01*
X152507381Y-104482800D02*
X152537857Y-104452323D01*
X128212619Y-99603276D02*
X128212619Y-100121371D01*
X128212619Y-100121371D02*
X128182142Y-100182323D01*
X128182142Y-100182323D02*
X128151666Y-100212800D01*
X128151666Y-100212800D02*
X128090714Y-100243276D01*
X128090714Y-100243276D02*
X127968809Y-100243276D01*
X127968809Y-100243276D02*
X127907857Y-100212800D01*
X127907857Y-100212800D02*
X127877380Y-100182323D01*
X127877380Y-100182323D02*
X127846904Y-100121371D01*
X127846904Y-100121371D02*
X127846904Y-99603276D01*
X127603095Y-99603276D02*
X127206904Y-99603276D01*
X127206904Y-99603276D02*
X127420238Y-99847085D01*
X127420238Y-99847085D02*
X127328809Y-99847085D01*
X127328809Y-99847085D02*
X127267857Y-99877561D01*
X127267857Y-99877561D02*
X127237381Y-99908038D01*
X127237381Y-99908038D02*
X127206904Y-99968990D01*
X127206904Y-99968990D02*
X127206904Y-100121371D01*
X127206904Y-100121371D02*
X127237381Y-100182323D01*
X127237381Y-100182323D02*
X127267857Y-100212800D01*
X127267857Y-100212800D02*
X127328809Y-100243276D01*
X127328809Y-100243276D02*
X127511666Y-100243276D01*
X127511666Y-100243276D02*
X127572619Y-100212800D01*
X127572619Y-100212800D02*
X127603095Y-100182323D01*
X153423276Y-78393571D02*
X153118514Y-78180237D01*
X153423276Y-78027856D02*
X152783276Y-78027856D01*
X152783276Y-78027856D02*
X152783276Y-78271666D01*
X152783276Y-78271666D02*
X152813752Y-78332618D01*
X152813752Y-78332618D02*
X152844228Y-78363095D01*
X152844228Y-78363095D02*
X152905180Y-78393571D01*
X152905180Y-78393571D02*
X152996609Y-78393571D01*
X152996609Y-78393571D02*
X153057561Y-78363095D01*
X153057561Y-78363095D02*
X153088038Y-78332618D01*
X153088038Y-78332618D02*
X153118514Y-78271666D01*
X153118514Y-78271666D02*
X153118514Y-78027856D01*
X153423276Y-79003095D02*
X153423276Y-78637380D01*
X153423276Y-78820237D02*
X152783276Y-78820237D01*
X152783276Y-78820237D02*
X152874704Y-78759285D01*
X152874704Y-78759285D02*
X152935657Y-78698333D01*
X152935657Y-78698333D02*
X152966133Y-78637380D01*
X152783276Y-79551666D02*
X152783276Y-79429761D01*
X152783276Y-79429761D02*
X152813752Y-79368809D01*
X152813752Y-79368809D02*
X152844228Y-79338333D01*
X152844228Y-79338333D02*
X152935657Y-79277380D01*
X152935657Y-79277380D02*
X153057561Y-79246904D01*
X153057561Y-79246904D02*
X153301371Y-79246904D01*
X153301371Y-79246904D02*
X153362323Y-79277380D01*
X153362323Y-79277380D02*
X153392800Y-79307857D01*
X153392800Y-79307857D02*
X153423276Y-79368809D01*
X153423276Y-79368809D02*
X153423276Y-79490714D01*
X153423276Y-79490714D02*
X153392800Y-79551666D01*
X153392800Y-79551666D02*
X153362323Y-79582142D01*
X153362323Y-79582142D02*
X153301371Y-79612619D01*
X153301371Y-79612619D02*
X153148990Y-79612619D01*
X153148990Y-79612619D02*
X153088038Y-79582142D01*
X153088038Y-79582142D02*
X153057561Y-79551666D01*
X153057561Y-79551666D02*
X153027085Y-79490714D01*
X153027085Y-79490714D02*
X153027085Y-79368809D01*
X153027085Y-79368809D02*
X153057561Y-79307857D01*
X153057561Y-79307857D02*
X153088038Y-79277380D01*
X153088038Y-79277380D02*
X153148990Y-79246904D01*
X149303276Y-102908333D02*
X148998514Y-102694999D01*
X149303276Y-102542618D02*
X148663276Y-102542618D01*
X148663276Y-102542618D02*
X148663276Y-102786428D01*
X148663276Y-102786428D02*
X148693752Y-102847380D01*
X148693752Y-102847380D02*
X148724228Y-102877857D01*
X148724228Y-102877857D02*
X148785180Y-102908333D01*
X148785180Y-102908333D02*
X148876609Y-102908333D01*
X148876609Y-102908333D02*
X148937561Y-102877857D01*
X148937561Y-102877857D02*
X148968038Y-102847380D01*
X148968038Y-102847380D02*
X148998514Y-102786428D01*
X148998514Y-102786428D02*
X148998514Y-102542618D01*
X148724228Y-103152142D02*
X148693752Y-103182618D01*
X148693752Y-103182618D02*
X148663276Y-103243571D01*
X148663276Y-103243571D02*
X148663276Y-103395952D01*
X148663276Y-103395952D02*
X148693752Y-103456904D01*
X148693752Y-103456904D02*
X148724228Y-103487380D01*
X148724228Y-103487380D02*
X148785180Y-103517857D01*
X148785180Y-103517857D02*
X148846133Y-103517857D01*
X148846133Y-103517857D02*
X148937561Y-103487380D01*
X148937561Y-103487380D02*
X149303276Y-103121666D01*
X149303276Y-103121666D02*
X149303276Y-103517857D01*
X122636428Y-101602323D02*
X122666904Y-101632800D01*
X122666904Y-101632800D02*
X122758333Y-101663276D01*
X122758333Y-101663276D02*
X122819285Y-101663276D01*
X122819285Y-101663276D02*
X122910714Y-101632800D01*
X122910714Y-101632800D02*
X122971666Y-101571847D01*
X122971666Y-101571847D02*
X123002143Y-101510895D01*
X123002143Y-101510895D02*
X123032619Y-101388990D01*
X123032619Y-101388990D02*
X123032619Y-101297561D01*
X123032619Y-101297561D02*
X123002143Y-101175657D01*
X123002143Y-101175657D02*
X122971666Y-101114704D01*
X122971666Y-101114704D02*
X122910714Y-101053752D01*
X122910714Y-101053752D02*
X122819285Y-101023276D01*
X122819285Y-101023276D02*
X122758333Y-101023276D01*
X122758333Y-101023276D02*
X122666904Y-101053752D01*
X122666904Y-101053752D02*
X122636428Y-101084228D01*
X122392619Y-101084228D02*
X122362143Y-101053752D01*
X122362143Y-101053752D02*
X122301190Y-101023276D01*
X122301190Y-101023276D02*
X122148809Y-101023276D01*
X122148809Y-101023276D02*
X122087857Y-101053752D01*
X122087857Y-101053752D02*
X122057381Y-101084228D01*
X122057381Y-101084228D02*
X122026904Y-101145180D01*
X122026904Y-101145180D02*
X122026904Y-101206133D01*
X122026904Y-101206133D02*
X122057381Y-101297561D01*
X122057381Y-101297561D02*
X122423095Y-101663276D01*
X122423095Y-101663276D02*
X122026904Y-101663276D01*
X121783095Y-101084228D02*
X121752619Y-101053752D01*
X121752619Y-101053752D02*
X121691666Y-101023276D01*
X121691666Y-101023276D02*
X121539285Y-101023276D01*
X121539285Y-101023276D02*
X121478333Y-101053752D01*
X121478333Y-101053752D02*
X121447857Y-101084228D01*
X121447857Y-101084228D02*
X121417380Y-101145180D01*
X121417380Y-101145180D02*
X121417380Y-101206133D01*
X121417380Y-101206133D02*
X121447857Y-101297561D01*
X121447857Y-101297561D02*
X121813571Y-101663276D01*
X121813571Y-101663276D02*
X121417380Y-101663276D01*
X117661666Y-124413276D02*
X117875000Y-124108514D01*
X118027381Y-124413276D02*
X118027381Y-123773276D01*
X118027381Y-123773276D02*
X117783571Y-123773276D01*
X117783571Y-123773276D02*
X117722619Y-123803752D01*
X117722619Y-123803752D02*
X117692142Y-123834228D01*
X117692142Y-123834228D02*
X117661666Y-123895180D01*
X117661666Y-123895180D02*
X117661666Y-123986609D01*
X117661666Y-123986609D02*
X117692142Y-124047561D01*
X117692142Y-124047561D02*
X117722619Y-124078038D01*
X117722619Y-124078038D02*
X117783571Y-124108514D01*
X117783571Y-124108514D02*
X118027381Y-124108514D01*
X117113095Y-123773276D02*
X117235000Y-123773276D01*
X117235000Y-123773276D02*
X117295952Y-123803752D01*
X117295952Y-123803752D02*
X117326428Y-123834228D01*
X117326428Y-123834228D02*
X117387381Y-123925657D01*
X117387381Y-123925657D02*
X117417857Y-124047561D01*
X117417857Y-124047561D02*
X117417857Y-124291371D01*
X117417857Y-124291371D02*
X117387381Y-124352323D01*
X117387381Y-124352323D02*
X117356904Y-124382800D01*
X117356904Y-124382800D02*
X117295952Y-124413276D01*
X117295952Y-124413276D02*
X117174047Y-124413276D01*
X117174047Y-124413276D02*
X117113095Y-124382800D01*
X117113095Y-124382800D02*
X117082619Y-124352323D01*
X117082619Y-124352323D02*
X117052142Y-124291371D01*
X117052142Y-124291371D02*
X117052142Y-124138990D01*
X117052142Y-124138990D02*
X117082619Y-124078038D01*
X117082619Y-124078038D02*
X117113095Y-124047561D01*
X117113095Y-124047561D02*
X117174047Y-124017085D01*
X117174047Y-124017085D02*
X117295952Y-124017085D01*
X117295952Y-124017085D02*
X117356904Y-124047561D01*
X117356904Y-124047561D02*
X117387381Y-124078038D01*
X117387381Y-124078038D02*
X117417857Y-124138990D01*
X144211666Y-105613276D02*
X144425000Y-105308514D01*
X144577381Y-105613276D02*
X144577381Y-104973276D01*
X144577381Y-104973276D02*
X144333571Y-104973276D01*
X144333571Y-104973276D02*
X144272619Y-105003752D01*
X144272619Y-105003752D02*
X144242142Y-105034228D01*
X144242142Y-105034228D02*
X144211666Y-105095180D01*
X144211666Y-105095180D02*
X144211666Y-105186609D01*
X144211666Y-105186609D02*
X144242142Y-105247561D01*
X144242142Y-105247561D02*
X144272619Y-105278038D01*
X144272619Y-105278038D02*
X144333571Y-105308514D01*
X144333571Y-105308514D02*
X144577381Y-105308514D01*
X143602142Y-105613276D02*
X143967857Y-105613276D01*
X143785000Y-105613276D02*
X143785000Y-104973276D01*
X143785000Y-104973276D02*
X143845952Y-105064704D01*
X143845952Y-105064704D02*
X143906904Y-105125657D01*
X143906904Y-105125657D02*
X143967857Y-105156133D01*
X134531666Y-116103276D02*
X134745000Y-115798514D01*
X134897381Y-116103276D02*
X134897381Y-115463276D01*
X134897381Y-115463276D02*
X134653571Y-115463276D01*
X134653571Y-115463276D02*
X134592619Y-115493752D01*
X134592619Y-115493752D02*
X134562142Y-115524228D01*
X134562142Y-115524228D02*
X134531666Y-115585180D01*
X134531666Y-115585180D02*
X134531666Y-115676609D01*
X134531666Y-115676609D02*
X134562142Y-115737561D01*
X134562142Y-115737561D02*
X134592619Y-115768038D01*
X134592619Y-115768038D02*
X134653571Y-115798514D01*
X134653571Y-115798514D02*
X134897381Y-115798514D01*
X134318333Y-115463276D02*
X133922142Y-115463276D01*
X133922142Y-115463276D02*
X134135476Y-115707085D01*
X134135476Y-115707085D02*
X134044047Y-115707085D01*
X134044047Y-115707085D02*
X133983095Y-115737561D01*
X133983095Y-115737561D02*
X133952619Y-115768038D01*
X133952619Y-115768038D02*
X133922142Y-115828990D01*
X133922142Y-115828990D02*
X133922142Y-115981371D01*
X133922142Y-115981371D02*
X133952619Y-116042323D01*
X133952619Y-116042323D02*
X133983095Y-116072800D01*
X133983095Y-116072800D02*
X134044047Y-116103276D01*
X134044047Y-116103276D02*
X134226904Y-116103276D01*
X134226904Y-116103276D02*
X134287857Y-116072800D01*
X134287857Y-116072800D02*
X134318333Y-116042323D01*
X137456428Y-101633276D02*
X137669762Y-101328514D01*
X137822143Y-101633276D02*
X137822143Y-100993276D01*
X137822143Y-100993276D02*
X137578333Y-100993276D01*
X137578333Y-100993276D02*
X137517381Y-101023752D01*
X137517381Y-101023752D02*
X137486904Y-101054228D01*
X137486904Y-101054228D02*
X137456428Y-101115180D01*
X137456428Y-101115180D02*
X137456428Y-101206609D01*
X137456428Y-101206609D02*
X137486904Y-101267561D01*
X137486904Y-101267561D02*
X137517381Y-101298038D01*
X137517381Y-101298038D02*
X137578333Y-101328514D01*
X137578333Y-101328514D02*
X137822143Y-101328514D01*
X136846904Y-101633276D02*
X137212619Y-101633276D01*
X137029762Y-101633276D02*
X137029762Y-100993276D01*
X137029762Y-100993276D02*
X137090714Y-101084704D01*
X137090714Y-101084704D02*
X137151666Y-101145657D01*
X137151666Y-101145657D02*
X137212619Y-101176133D01*
X136267857Y-100993276D02*
X136572619Y-100993276D01*
X136572619Y-100993276D02*
X136603095Y-101298038D01*
X136603095Y-101298038D02*
X136572619Y-101267561D01*
X136572619Y-101267561D02*
X136511666Y-101237085D01*
X136511666Y-101237085D02*
X136359285Y-101237085D01*
X136359285Y-101237085D02*
X136298333Y-101267561D01*
X136298333Y-101267561D02*
X136267857Y-101298038D01*
X136267857Y-101298038D02*
X136237380Y-101358990D01*
X136237380Y-101358990D02*
X136237380Y-101511371D01*
X136237380Y-101511371D02*
X136267857Y-101572323D01*
X136267857Y-101572323D02*
X136298333Y-101602800D01*
X136298333Y-101602800D02*
X136359285Y-101633276D01*
X136359285Y-101633276D02*
X136511666Y-101633276D01*
X136511666Y-101633276D02*
X136572619Y-101602800D01*
X136572619Y-101602800D02*
X136603095Y-101572323D01*
D12*
%TO.C,C12*%
X131010000Y-93991248D02*
X131010000Y-94513752D01*
X132480000Y-93991248D02*
X132480000Y-94513752D01*
%TO.C,R10*%
X118667936Y-82680000D02*
X119122064Y-82680000D01*
X118667936Y-84150000D02*
X119122064Y-84150000D01*
%TO.C,C20*%
X123730000Y-111413752D02*
X123730000Y-110891248D01*
X125200000Y-111413752D02*
X125200000Y-110891248D01*
%TO.C,C3*%
X141103748Y-101500000D02*
X141626252Y-101500000D01*
X141103748Y-102970000D02*
X141626252Y-102970000D01*
%TO.C,R9*%
X118667936Y-78780000D02*
X119122064Y-78780000D01*
X118667936Y-80250000D02*
X119122064Y-80250000D01*
%TO.C,C15*%
X135310000Y-96313748D02*
X135310000Y-96836252D01*
X136780000Y-96313748D02*
X136780000Y-96836252D01*
%TO.C,C14*%
X130766252Y-105620000D02*
X130243748Y-105620000D01*
X130766252Y-107090000D02*
X130243748Y-107090000D01*
%TO.C,C23*%
X117460000Y-108073748D02*
X117460000Y-108596252D01*
X118930000Y-108073748D02*
X118930000Y-108596252D01*
%TO.C,JP1*%
X148105000Y-80310000D02*
X148105000Y-78910000D01*
X148805000Y-78210000D02*
X149405000Y-78210000D01*
X149405000Y-81010000D02*
X148805000Y-81010000D01*
X150105000Y-78910000D02*
X150105000Y-80310000D01*
X148105000Y-78910000D02*
G75*
G02*
X148805000Y-78210000I700000J0D01*
G01*
X148805000Y-81010000D02*
G75*
G02*
X148105000Y-80310000I-1J699999D01*
G01*
X149405000Y-78210000D02*
G75*
G02*
X150105000Y-78910000I0J-700000D01*
G01*
X150105000Y-80310000D02*
G75*
G02*
X149405000Y-81010000I-699999J-1D01*
G01*
%TO.C,R14*%
X121437936Y-117390000D02*
X121892064Y-117390000D01*
X121437936Y-118860000D02*
X121892064Y-118860000D01*
%TO.C,C2*%
X152250000Y-114813748D02*
X152250000Y-115336252D01*
X153720000Y-114813748D02*
X153720000Y-115336252D01*
D13*
%TO.C,D7*%
X119535000Y-107215000D02*
X119535000Y-108915000D01*
X120835000Y-108915000D02*
X120835000Y-107215000D01*
D14*
X120285000Y-105865000D02*
G75*
G02*
X120085000Y-105865000I-100000J0D01*
G01*
X120085000Y-105865000D02*
G75*
G02*
X120285000Y-105865000I100000J0D01*
G01*
D12*
%TO.C,C4*%
X154586252Y-111330000D02*
X154063748Y-111330000D01*
X154586252Y-112800000D02*
X154063748Y-112800000D01*
%TO.C,C17*%
X137530000Y-96313748D02*
X137530000Y-96836252D01*
X139000000Y-96313748D02*
X139000000Y-96836252D01*
%TO.C,R4*%
X136837936Y-111940000D02*
X137292064Y-111940000D01*
X136837936Y-113410000D02*
X137292064Y-113410000D01*
D13*
%TO.C,U5*%
X140420000Y-95455000D02*
X140420000Y-87855000D01*
X152070000Y-95455000D02*
X152070000Y-87855000D01*
D14*
X141345000Y-88655000D02*
G75*
G02*
X141145000Y-88655000I-100000J0D01*
G01*
X141145000Y-88655000D02*
G75*
G02*
X141345000Y-88655000I100000J0D01*
G01*
D12*
%TO.C,C13*%
X130766252Y-107790000D02*
X130243748Y-107790000D01*
X130766252Y-109260000D02*
X130243748Y-109260000D01*
%TO.C,R5*%
X121437936Y-120390000D02*
X121892064Y-120390000D01*
X121437936Y-121860000D02*
X121892064Y-121860000D01*
%TO.C,C16*%
X133250000Y-95595000D02*
X133250000Y-98480000D01*
X133250000Y-98480000D02*
X134820000Y-98480000D01*
X134820000Y-98480000D02*
X134820000Y-95595000D01*
%TO.C,C1*%
X154510000Y-114831248D02*
X154510000Y-115353752D01*
X155980000Y-114831248D02*
X155980000Y-115353752D01*
%TO.C,C21*%
X121570000Y-111413752D02*
X121570000Y-110891248D01*
X123040000Y-111413752D02*
X123040000Y-110891248D01*
D15*
%TO.C,U4*%
X142565000Y-85320000D02*
X142565000Y-80520000D01*
D16*
X144981000Y-84952000D02*
X142949000Y-84952000D01*
D12*
%TO.C,C5*%
X151940000Y-100803748D02*
X151940000Y-101326252D01*
X153410000Y-100803748D02*
X153410000Y-101326252D01*
%TO.C,U3*%
X126032500Y-102645000D02*
X126032500Y-98885000D01*
X127292500Y-102645000D02*
X126032500Y-102645000D01*
X131592500Y-102645000D02*
X132852500Y-102645000D01*
X132852500Y-102645000D02*
X132852500Y-98885000D01*
X126132500Y-97605000D02*
X125802500Y-97845000D01*
X125802500Y-97365000D01*
X126132500Y-97605000D01*
G36*
X126132500Y-97605000D02*
G01*
X125802500Y-97845000D01*
X125802500Y-97365000D01*
X126132500Y-97605000D01*
G37*
%TO.C,R16*%
X150700000Y-79847064D02*
X150700000Y-79392936D01*
X152170000Y-79847064D02*
X152170000Y-79392936D01*
D14*
%TO.C,D6*%
X149995000Y-81550000D02*
X150795000Y-81550000D01*
X149995000Y-84350000D02*
X150795000Y-84350000D01*
X150795000Y-81550000D02*
X150795000Y-82150000D01*
X150795000Y-84350000D02*
X150795000Y-83750000D01*
D12*
%TO.C,R2*%
X149870000Y-101252064D02*
X149870000Y-100797936D01*
X151340000Y-101252064D02*
X151340000Y-100797936D01*
%TO.C,C22*%
X120220000Y-103591248D02*
X120220000Y-104113752D01*
X121690000Y-103591248D02*
X121690000Y-104113752D01*
%TO.C,R6*%
X121437936Y-123390000D02*
X121892064Y-123390000D01*
X121437936Y-124860000D02*
X121892064Y-124860000D01*
%TO.C,R1*%
X141592064Y-103560000D02*
X141137936Y-103560000D01*
X141592064Y-105030000D02*
X141137936Y-105030000D01*
%TO.C,R3*%
X136837936Y-114000000D02*
X137292064Y-114000000D01*
X136837936Y-115470000D02*
X137292064Y-115470000D01*
%TO.C,R15*%
X137272064Y-98810000D02*
X136817936Y-98810000D01*
X137272064Y-100280000D02*
X136817936Y-100280000D01*
%TD*%
M02*
