%TF.GenerationSoftware,KiCad,Pcbnew,8.0.4*%
%TF.CreationDate,2024-10-02T02:15:57-03:00*%
%TF.ProjectId,DongleALIVEv2.0,446f6e67-6c65-4414-9c49-564576322e30,2.0*%
%TF.SameCoordinates,Original*%
%TF.FileFunction,Paste,Top*%
%TF.FilePolarity,Positive*%
%FSLAX46Y46*%
G04 Gerber Fmt 4.6, Leading zero omitted, Abs format (unit mm)*
G04 Created by KiCad (PCBNEW 8.0.4) date 2024-10-02 02:15:57*
%MOMM*%
%LPD*%
G01*
G04 APERTURE LIST*
G04 Aperture macros list*
%AMRoundRect*
0 Rectangle with rounded corners*
0 $1 Rounding radius*
0 $2 $3 $4 $5 $6 $7 $8 $9 X,Y pos of 4 corners*
0 Add a 4 corners polygon primitive as box body*
4,1,4,$2,$3,$4,$5,$6,$7,$8,$9,$2,$3,0*
0 Add four circle primitives for the rounded corners*
1,1,$1+$1,$2,$3*
1,1,$1+$1,$4,$5*
1,1,$1+$1,$6,$7*
1,1,$1+$1,$8,$9*
0 Add four rect primitives between the rounded corners*
20,1,$1+$1,$2,$3,$4,$5,0*
20,1,$1+$1,$4,$5,$6,$7,0*
20,1,$1+$1,$6,$7,$8,$9,0*
20,1,$1+$1,$8,$9,$2,$3,0*%
G04 Aperture macros list end*
%ADD10C,0.010000*%
%ADD11RoundRect,0.250000X-0.475000X0.337500X-0.475000X-0.337500X0.475000X-0.337500X0.475000X0.337500X0*%
%ADD12RoundRect,0.250000X0.475000X-0.337500X0.475000X0.337500X-0.475000X0.337500X-0.475000X-0.337500X0*%
%ADD13R,1.200000X1.200000*%
%ADD14R,1.500000X1.600000*%
%ADD15R,1.500000X1.500000*%
%ADD16RoundRect,0.250000X0.350000X0.450000X-0.350000X0.450000X-0.350000X-0.450000X0.350000X-0.450000X0*%
%ADD17RoundRect,0.196250X0.888750X0.588750X-0.888750X0.588750X-0.888750X-0.588750X0.888750X-0.588750X0*%
%ADD18RoundRect,0.250000X-0.450000X0.350000X-0.450000X-0.350000X0.450000X-0.350000X0.450000X0.350000X0*%
%ADD19R,2.400000X5.700000*%
%ADD20RoundRect,0.162000X0.823000X0.138000X-0.823000X0.138000X-0.823000X-0.138000X0.823000X-0.138000X0*%
%ADD21R,0.600000X0.800000*%
%ADD22R,1.380000X0.450000*%
%ADD23R,1.300000X1.650000*%
%ADD24R,1.550000X1.425000*%
%ADD25R,1.900000X1.800000*%
%ADD26R,1.900000X1.000000*%
%ADD27RoundRect,0.250000X-0.350000X-0.450000X0.350000X-0.450000X0.350000X0.450000X-0.350000X0.450000X0*%
%ADD28R,0.457200X0.787400*%
%ADD29RoundRect,0.250000X-0.337500X-0.475000X0.337500X-0.475000X0.337500X0.475000X-0.337500X0.475000X0*%
%ADD30RoundRect,0.243750X-0.243750X-0.456250X0.243750X-0.456250X0.243750X0.456250X-0.243750X0.456250X0*%
%ADD31R,1.500000X0.900000*%
%ADD32R,0.900000X1.500000*%
%ADD33R,1.050000X1.050000*%
%ADD34R,2.000000X4.500000*%
%ADD35R,2.489200X0.939800*%
%ADD36R,6.807200X6.578600*%
%ADD37RoundRect,0.225000X-0.225000X-0.225000X0.225000X-0.225000X0.225000X0.225000X-0.225000X0.225000X0*%
%ADD38RoundRect,0.062500X-0.337500X-0.062500X0.337500X-0.062500X0.337500X0.062500X-0.337500X0.062500X0*%
%ADD39RoundRect,0.062500X-0.062500X-0.337500X0.062500X-0.337500X0.062500X0.337500X-0.062500X0.337500X0*%
G04 APERTURE END LIST*
D10*
%TO.C,U2*%
X129639587Y-89250000D02*
X128840000Y-89250000D01*
X128840000Y-88010413D01*
X129639587Y-88010413D01*
X129639587Y-89250000D01*
G36*
X129639587Y-89250000D02*
G01*
X128840000Y-89250000D01*
X128840000Y-88010413D01*
X129639587Y-88010413D01*
X129639587Y-89250000D01*
G37*
X129639791Y-87740000D02*
X128840000Y-87740000D01*
X128840000Y-86497860D01*
X129639791Y-86497860D01*
X129639791Y-87740000D01*
G36*
X129639791Y-87740000D02*
G01*
X128840000Y-87740000D01*
X128840000Y-86497860D01*
X129639791Y-86497860D01*
X129639791Y-87740000D01*
G37*
X130712019Y-89250000D02*
X129910000Y-89250000D01*
X129910000Y-88010291D01*
X130712019Y-88010291D01*
X130712019Y-89250000D01*
G36*
X130712019Y-89250000D02*
G01*
X129910000Y-89250000D01*
X129910000Y-88010291D01*
X130712019Y-88010291D01*
X130712019Y-89250000D01*
G37*
X130712272Y-87740000D02*
X129910000Y-87740000D01*
X129910000Y-86496660D01*
X130712272Y-86496660D01*
X130712272Y-87740000D01*
G36*
X130712272Y-87740000D02*
G01*
X129910000Y-87740000D01*
X129910000Y-86496660D01*
X130712272Y-86496660D01*
X130712272Y-87740000D01*
G37*
%TD*%
D11*
%TO.C,C9*%
X122565000Y-88507500D03*
X122565000Y-90582500D03*
%TD*%
D12*
%TO.C,C7*%
X120975000Y-100092500D03*
X120975000Y-98017500D03*
%TD*%
D13*
%TO.C,RV1*%
X134615000Y-80365000D03*
D14*
X137865000Y-81365000D03*
D13*
X134615000Y-82365000D03*
%TD*%
D11*
%TO.C,C10*%
X124665000Y-88507500D03*
X124665000Y-90582500D03*
%TD*%
%TO.C,C18*%
X148325000Y-93177500D03*
X148325000Y-95252500D03*
%TD*%
D15*
%TO.C,SW1*%
X137975000Y-100685000D03*
X130175000Y-100685000D03*
%TD*%
D16*
%TO.C,R13*%
X136615000Y-84405000D03*
X134615000Y-84405000D03*
%TD*%
D17*
%TO.C,D3*%
X131980000Y-94355000D03*
X127850000Y-94355000D03*
%TD*%
D11*
%TO.C,C19*%
X148325000Y-84627500D03*
X148325000Y-86702500D03*
%TD*%
D18*
%TO.C,R12*%
X138605000Y-86435000D03*
X138605000Y-88435000D03*
%TD*%
D19*
%TO.C,L1*%
X135175000Y-92895000D03*
X139375000Y-92895000D03*
%TD*%
D16*
%TO.C,R7*%
X124165000Y-86115000D03*
X122165000Y-86115000D03*
%TD*%
D20*
%TO.C,U2*%
X132250000Y-89780000D03*
X132250000Y-88510000D03*
X132250000Y-87240000D03*
X132250000Y-85970000D03*
X127300000Y-85970000D03*
X127300000Y-87240000D03*
X127300000Y-88510000D03*
X127300000Y-89780000D03*
%TD*%
D18*
%TO.C,R17*%
X130665000Y-113045000D03*
X130665000Y-115045000D03*
%TD*%
D21*
%TO.C,Q3*%
X132885000Y-108195000D03*
X134785000Y-108195000D03*
X133835000Y-106175000D03*
%TD*%
D22*
%TO.C,J4*%
X119110000Y-110627500D03*
X119110000Y-111277500D03*
X119110000Y-111927500D03*
X119110000Y-112577500D03*
X119110000Y-113227500D03*
D23*
X116450000Y-108552500D03*
D24*
X119025000Y-109440000D03*
D25*
X116450000Y-110777500D03*
D26*
X116450000Y-113477500D03*
D24*
X119025000Y-114415000D03*
D23*
X116450000Y-115302500D03*
%TD*%
D27*
%TO.C,R8*%
X134615000Y-88505000D03*
X136615000Y-88505000D03*
%TD*%
D15*
%TO.C,SW2*%
X143435000Y-88455000D03*
X143435000Y-96255000D03*
%TD*%
D28*
%TO.C,D4*%
X120105000Y-82193100D03*
X120105000Y-79576900D03*
%TD*%
D29*
%TO.C,C6*%
X128770000Y-91695000D03*
X130845000Y-91695000D03*
%TD*%
D16*
%TO.C,R18*%
X134855000Y-104465000D03*
X132855000Y-104465000D03*
%TD*%
D30*
%TO.C,D1*%
X116727500Y-121125000D03*
X118602500Y-121125000D03*
%TD*%
D11*
%TO.C,C8*%
X120975000Y-102667500D03*
X120975000Y-104742500D03*
%TD*%
D16*
%TO.C,R11*%
X119895000Y-84575000D03*
X117895000Y-84575000D03*
%TD*%
D31*
%TO.C,U1*%
X157925000Y-117820000D03*
X157925000Y-116550000D03*
X157925000Y-115280000D03*
X157925000Y-114010000D03*
X157925000Y-112740000D03*
X157925000Y-111470000D03*
X157925000Y-110200000D03*
X157925000Y-108930000D03*
X157925000Y-107660000D03*
X157925000Y-106390000D03*
X157925000Y-105120000D03*
X157925000Y-103850000D03*
X157925000Y-102580000D03*
X157925000Y-101310000D03*
D32*
X154885000Y-100060000D03*
X153615000Y-100060000D03*
X152345000Y-100060000D03*
X151075000Y-100060000D03*
X149805000Y-100060000D03*
X148535000Y-100060000D03*
X147265000Y-100060000D03*
X145995000Y-100060000D03*
X144725000Y-100060000D03*
X143455000Y-100060000D03*
D31*
X140425000Y-101310000D03*
X140425000Y-102580000D03*
X140425000Y-103850000D03*
X140425000Y-105120000D03*
X140425000Y-106390000D03*
X140425000Y-107660000D03*
X140425000Y-108930000D03*
X140425000Y-110200000D03*
X140425000Y-111470000D03*
X140425000Y-112740000D03*
X140425000Y-114010000D03*
X140425000Y-115280000D03*
X140425000Y-116550000D03*
X140425000Y-117820000D03*
D33*
X151380000Y-112005000D03*
X151380000Y-110480000D03*
X151380000Y-108955000D03*
X149855000Y-112005000D03*
X149855000Y-110480000D03*
X149855000Y-108955000D03*
X148330000Y-112005000D03*
X148330000Y-110480000D03*
X148330000Y-108955000D03*
%TD*%
D34*
%TO.C,Y1*%
X152115000Y-86755000D03*
X152115000Y-95255000D03*
%TD*%
D30*
%TO.C,D5*%
X116727500Y-118125000D03*
X118602500Y-118125000D03*
%TD*%
D21*
%TO.C,Q2*%
X134855000Y-109675000D03*
X132955000Y-109675000D03*
X133905000Y-111695000D03*
%TD*%
D29*
%TO.C,C11*%
X134597500Y-86435000D03*
X136672500Y-86435000D03*
%TD*%
D35*
%TO.C,Q1*%
X123349000Y-78834999D03*
D36*
X129821999Y-81125000D03*
D35*
X123349000Y-83415001D03*
%TD*%
D37*
%TO.C,U6*%
X127675000Y-107495000D03*
X127675000Y-108615000D03*
X127675000Y-109735000D03*
X128795000Y-107495000D03*
X128795000Y-108615000D03*
X128795000Y-109735000D03*
X129915000Y-107495000D03*
X129915000Y-108615000D03*
X129915000Y-109735000D03*
D38*
X126345000Y-107115000D03*
X126345000Y-107615000D03*
X126345000Y-108115000D03*
X126345000Y-108615000D03*
X126345000Y-109115000D03*
X126345000Y-109615000D03*
X126345000Y-110115000D03*
D39*
X127295000Y-111065000D03*
X127795000Y-111065000D03*
X128295000Y-111065000D03*
X128795000Y-111065000D03*
X129295000Y-111065000D03*
X129795000Y-111065000D03*
X130295000Y-111065000D03*
D38*
X131245000Y-110115000D03*
X131245000Y-109615000D03*
X131245000Y-109115000D03*
X131245000Y-108615000D03*
X131245000Y-108115000D03*
X131245000Y-107615000D03*
X131245000Y-107115000D03*
D39*
X130295000Y-106165000D03*
X129795000Y-106165000D03*
X129295000Y-106165000D03*
X128795000Y-106165000D03*
X128295000Y-106165000D03*
X127795000Y-106165000D03*
X127295000Y-106165000D03*
%TD*%
D16*
%TO.C,R19*%
X134945000Y-113385000D03*
X132945000Y-113385000D03*
%TD*%
D30*
%TO.C,D2*%
X116727500Y-124125000D03*
X118602500Y-124125000D03*
%TD*%
M02*
