%TF.GenerationSoftware,KiCad,Pcbnew,8.0.4*%
%TF.CreationDate,2024-10-02T02:15:57-03:00*%
%TF.ProjectId,DongleALIVEv2.0,446f6e67-6c65-4414-9c49-564576322e30,2.0*%
%TF.SameCoordinates,Original*%
%TF.FileFunction,Copper,L2,Bot*%
%TF.FilePolarity,Positive*%
%FSLAX46Y46*%
G04 Gerber Fmt 4.6, Leading zero omitted, Abs format (unit mm)*
G04 Created by KiCad (PCBNEW 8.0.4) date 2024-10-02 02:15:57*
%MOMM*%
%LPD*%
G01*
G04 APERTURE LIST*
G04 Aperture macros list*
%AMRoundRect*
0 Rectangle with rounded corners*
0 $1 Rounding radius*
0 $2 $3 $4 $5 $6 $7 $8 $9 X,Y pos of 4 corners*
0 Add a 4 corners polygon primitive as box body*
4,1,4,$2,$3,$4,$5,$6,$7,$8,$9,$2,$3,0*
0 Add four circle primitives for the rounded corners*
1,1,$1+$1,$2,$3*
1,1,$1+$1,$4,$5*
1,1,$1+$1,$6,$7*
1,1,$1+$1,$8,$9*
0 Add four rect primitives between the rounded corners*
20,1,$1+$1,$2,$3,$4,$5,0*
20,1,$1+$1,$4,$5,$6,$7,0*
20,1,$1+$1,$6,$7,$8,$9,0*
20,1,$1+$1,$8,$9,$2,$3,0*%
%AMFreePoly0*
4,1,19,0.500000,-0.750000,0.000000,-0.750000,0.000000,-0.744911,-0.071157,-0.744911,-0.207708,-0.704816,-0.327430,-0.627875,-0.420627,-0.520320,-0.479746,-0.390866,-0.500000,-0.250000,-0.500000,0.250000,-0.479746,0.390866,-0.420627,0.520320,-0.327430,0.627875,-0.207708,0.704816,-0.071157,0.744911,0.000000,0.744911,0.000000,0.750000,0.500000,0.750000,0.500000,-0.750000,0.500000,-0.750000,
$1*%
%AMFreePoly1*
4,1,19,0.000000,0.744911,0.071157,0.744911,0.207708,0.704816,0.327430,0.627875,0.420627,0.520320,0.479746,0.390866,0.500000,0.250000,0.500000,-0.250000,0.479746,-0.390866,0.420627,-0.520320,0.327430,-0.627875,0.207708,-0.704816,0.071157,-0.744911,0.000000,-0.744911,0.000000,-0.750000,-0.500000,-0.750000,-0.500000,0.750000,0.000000,0.750000,0.000000,0.744911,0.000000,0.744911,
$1*%
G04 Aperture macros list end*
%TA.AperFunction,ComponentPad*%
%ADD10R,1.700000X1.700000*%
%TD*%
%TA.AperFunction,ComponentPad*%
%ADD11O,1.700000X1.700000*%
%TD*%
%TA.AperFunction,ComponentPad*%
%ADD12O,3.500000X2.200000*%
%TD*%
%TA.AperFunction,ComponentPad*%
%ADD13R,2.500000X1.500000*%
%TD*%
%TA.AperFunction,ComponentPad*%
%ADD14O,2.500000X1.500000*%
%TD*%
%TA.AperFunction,ComponentPad*%
%ADD15C,0.700000*%
%TD*%
%TA.AperFunction,ComponentPad*%
%ADD16C,4.400000*%
%TD*%
%TA.AperFunction,ComponentPad*%
%ADD17R,2.500000X2.500000*%
%TD*%
%TA.AperFunction,ComponentPad*%
%ADD18C,2.500000*%
%TD*%
%TA.AperFunction,HeatsinkPad*%
%ADD19C,0.600000*%
%TD*%
%TA.AperFunction,ComponentPad*%
%ADD20RoundRect,0.500000X-0.500000X0.500000X-0.500000X-0.500000X0.500000X-0.500000X0.500000X0.500000X0*%
%TD*%
%TA.AperFunction,ComponentPad*%
%ADD21C,2.000000*%
%TD*%
%TA.AperFunction,SMDPad,CuDef*%
%ADD22RoundRect,0.250000X0.475000X-0.337500X0.475000X0.337500X-0.475000X0.337500X-0.475000X-0.337500X0*%
%TD*%
%TA.AperFunction,SMDPad,CuDef*%
%ADD23RoundRect,0.250000X0.350000X0.450000X-0.350000X0.450000X-0.350000X-0.450000X0.350000X-0.450000X0*%
%TD*%
%TA.AperFunction,SMDPad,CuDef*%
%ADD24RoundRect,0.250000X-0.475000X0.337500X-0.475000X-0.337500X0.475000X-0.337500X0.475000X0.337500X0*%
%TD*%
%TA.AperFunction,SMDPad,CuDef*%
%ADD25RoundRect,0.250000X0.337500X0.475000X-0.337500X0.475000X-0.337500X-0.475000X0.337500X-0.475000X0*%
%TD*%
%TA.AperFunction,SMDPad,CuDef*%
%ADD26RoundRect,0.250000X-0.337500X-0.475000X0.337500X-0.475000X0.337500X0.475000X-0.337500X0.475000X0*%
%TD*%
%TA.AperFunction,SMDPad,CuDef*%
%ADD27FreePoly0,90.000000*%
%TD*%
%TA.AperFunction,SMDPad,CuDef*%
%ADD28FreePoly1,90.000000*%
%TD*%
%TA.AperFunction,SMDPad,CuDef*%
%ADD29R,0.460000X1.040000*%
%TD*%
%TA.AperFunction,SMDPad,CuDef*%
%ADD30RoundRect,0.075000X-0.225000X0.880000X-0.225000X-0.880000X0.225000X-0.880000X0.225000X0.880000X0*%
%TD*%
%TA.AperFunction,SMDPad,CuDef*%
%ADD31RoundRect,0.250000X0.275000X-0.400000X0.275000X0.400000X-0.275000X0.400000X-0.275000X-0.400000X0*%
%TD*%
%TA.AperFunction,SMDPad,CuDef*%
%ADD32R,1.750000X0.600000*%
%TD*%
%TA.AperFunction,SMDPad,CuDef*%
%ADD33RoundRect,0.375000X-0.375000X0.625000X-0.375000X-0.625000X0.375000X-0.625000X0.375000X0.625000X0*%
%TD*%
%TA.AperFunction,SMDPad,CuDef*%
%ADD34RoundRect,0.500000X-1.400000X0.500000X-1.400000X-0.500000X1.400000X-0.500000X1.400000X0.500000X0*%
%TD*%
%TA.AperFunction,SMDPad,CuDef*%
%ADD35RoundRect,0.250000X-0.450000X0.350000X-0.450000X-0.350000X0.450000X-0.350000X0.450000X0.350000X0*%
%TD*%
%TA.AperFunction,SMDPad,CuDef*%
%ADD36R,0.900000X0.800000*%
%TD*%
%TA.AperFunction,SMDPad,CuDef*%
%ADD37RoundRect,0.250000X-0.350000X-0.450000X0.350000X-0.450000X0.350000X0.450000X-0.350000X0.450000X0*%
%TD*%
%TA.AperFunction,ViaPad*%
%ADD38C,0.700000*%
%TD*%
%TA.AperFunction,ViaPad*%
%ADD39C,0.900000*%
%TD*%
%TA.AperFunction,Conductor*%
%ADD40C,0.500000*%
%TD*%
%TA.AperFunction,Conductor*%
%ADD41C,1.000000*%
%TD*%
%TA.AperFunction,Conductor*%
%ADD42C,0.300000*%
%TD*%
G04 APERTURE END LIST*
D10*
%TO.P,J2,1,Pin_1*%
%TO.N,GND*%
X123725000Y-105125000D03*
D11*
%TO.P,J2,2,Pin_2*%
%TO.N,/Microcontroller/TX2*%
X123725000Y-102585000D03*
%TO.P,J2,3,Pin_3*%
%TO.N,/Microcontroller/RX2*%
X123725000Y-100045000D03*
%TO.P,J2,4,Pin_4*%
%TO.N,unconnected-(J2-Pin_4-Pad4)*%
X123725000Y-97505000D03*
%TO.P,J2,5,Pin_5*%
%TO.N,+3V3*%
X123725000Y-94965000D03*
%TD*%
D12*
%TO.P,SW3,*%
%TO.N,*%
X117225000Y-96275000D03*
X117225000Y-104475000D03*
D13*
%TO.P,SW3,1,C*%
%TO.N,unconnected-(SW3-C-Pad1)*%
X117225000Y-98375000D03*
D14*
%TO.P,SW3,2,B*%
%TO.N,/VoltageRegulatorESD/Vout*%
X117225000Y-100375000D03*
%TO.P,SW3,3,A*%
%TO.N,5v*%
X117225000Y-102375000D03*
%TD*%
D15*
%TO.P,H2,1,1*%
%TO.N,GND*%
X125395000Y-115005000D03*
X125878274Y-113838274D03*
X125878274Y-116171726D03*
X127045000Y-113355000D03*
D16*
X127045000Y-115005000D03*
D15*
X127045000Y-116655000D03*
X128211726Y-113838274D03*
X128211726Y-116171726D03*
X128695000Y-115005000D03*
%TD*%
D17*
%TO.P,J1,1,1*%
%TO.N,unconnected-(J1-Pad1)*%
X152195000Y-72285000D03*
D18*
%TO.P,J1,2,2*%
%TO.N,unconnected-(J1-Pad2)*%
X148195000Y-72285000D03*
%TO.P,J1,3,3*%
%TO.N,unconnected-(J1-Pad3)*%
X144195000Y-72285000D03*
%TO.P,J1,4,GND*%
%TO.N,GND*%
X140195000Y-72285000D03*
%TO.P,J1,5,5*%
%TO.N,unconnected-(J1-Pad5)*%
X136195000Y-72285000D03*
%TO.P,J1,6,CAN_LOW*%
%TO.N,/CAN_controller/CAN_LOW*%
X132195000Y-72285000D03*
%TO.P,J1,7,7*%
%TO.N,unconnected-(J1-Pad7)*%
X128195000Y-72285000D03*
%TO.P,J1,8,8*%
%TO.N,unconnected-(J1-Pad8)*%
X124195000Y-72285000D03*
%TO.P,J1,9,9*%
%TO.N,unconnected-(J1-Pad9)*%
X152195000Y-75285000D03*
%TO.P,J1,10,10*%
%TO.N,unconnected-(J1-Pad10)*%
X148195000Y-75285000D03*
%TO.P,J1,11,11*%
%TO.N,unconnected-(J1-Pad11)*%
X144195000Y-75285000D03*
%TO.P,J1,12,12*%
%TO.N,unconnected-(J1-Pad12)*%
X140195000Y-75285000D03*
%TO.P,J1,13,13*%
%TO.N,unconnected-(J1-Pad13)*%
X136195000Y-75285000D03*
%TO.P,J1,14,CAN_HIGH*%
%TO.N,/CAN_controller/CAN_HIGH*%
X132195000Y-75285000D03*
%TO.P,J1,15,15*%
%TO.N,unconnected-(J1-Pad15)*%
X128195000Y-75285000D03*
%TO.P,J1,16,VIN*%
%TO.N,/VoltageRegulatorESD/Car_Battery_12v*%
X124195000Y-75285000D03*
%TD*%
D15*
%TO.P,H1,1,1*%
%TO.N,GND*%
X155155000Y-73845000D03*
X155638274Y-72678274D03*
X155638274Y-75011726D03*
X156805000Y-72195000D03*
D16*
X156805000Y-73845000D03*
D15*
X156805000Y-75495000D03*
X157971726Y-72678274D03*
X157971726Y-75011726D03*
X158455000Y-73845000D03*
%TD*%
D19*
%TO.P,U1,39,GND*%
%TO.N,GND*%
X151380000Y-111242500D03*
X151380000Y-109717500D03*
X150617500Y-112005000D03*
X150617500Y-110480000D03*
X150617500Y-108955000D03*
X149855000Y-111242500D03*
X149855000Y-109717500D03*
X149092500Y-112005000D03*
X149092500Y-110480000D03*
X149092500Y-108955000D03*
X148330000Y-111242500D03*
X148330000Y-109717500D03*
%TD*%
D20*
%TO.P,F1,1*%
%TO.N,/VoltageRegulatorESD/12v_in*%
X118665000Y-72125000D03*
X118665000Y-77125000D03*
D21*
%TO.P,F1,2*%
%TO.N,/VoltageRegulatorESD/12v_fuse*%
X118665000Y-87125000D03*
X118665000Y-92125000D03*
%TD*%
D10*
%TO.P,J3,1,Pin_1*%
%TO.N,unconnected-(J3-Pin_1-Pad1)*%
X157645000Y-86125000D03*
D11*
%TO.P,J3,2,Pin_2*%
%TO.N,unconnected-(J3-Pin_2-Pad2)*%
X157645000Y-88665000D03*
%TO.P,J3,3,Pin_3*%
%TO.N,/Microcontroller/SDA*%
X157645000Y-91205000D03*
%TO.P,J3,4,Pin_4*%
%TO.N,/Microcontroller/SCL*%
X157645000Y-93745000D03*
%TO.P,J3,5,Pin_5*%
%TO.N,unconnected-(J3-Pin_5-Pad5)*%
X157645000Y-96285000D03*
%TD*%
D22*
%TO.P,C12,1*%
%TO.N,5v*%
X131745000Y-95290000D03*
%TO.P,C12,2*%
%TO.N,GND*%
X131745000Y-93215000D03*
%TD*%
D23*
%TO.P,R10,1*%
%TO.N,/VoltageRegulatorESD/12v_in*%
X119895000Y-83415000D03*
%TO.P,R10,2*%
%TO.N,GND*%
X117895000Y-83415000D03*
%TD*%
D24*
%TO.P,C20,1*%
%TO.N,+3V3*%
X124465000Y-110115000D03*
%TO.P,C20,2*%
%TO.N,GND*%
X124465000Y-112190000D03*
%TD*%
D25*
%TO.P,C3,1*%
%TO.N,GND*%
X142402500Y-102235000D03*
%TO.P,C3,2*%
%TO.N,IO0*%
X140327500Y-102235000D03*
%TD*%
D23*
%TO.P,R9,1*%
%TO.N,/VoltageRegulatorESD/GND_resistence_protect*%
X119895000Y-79515000D03*
%TO.P,R9,2*%
%TO.N,GND*%
X117895000Y-79515000D03*
%TD*%
D22*
%TO.P,C15,1*%
%TO.N,5v*%
X136045000Y-97612500D03*
%TO.P,C15,2*%
%TO.N,GND*%
X136045000Y-95537500D03*
%TD*%
D26*
%TO.P,C14,1*%
%TO.N,+3V3*%
X129467500Y-106355000D03*
%TO.P,C14,2*%
%TO.N,GND*%
X131542500Y-106355000D03*
%TD*%
D22*
%TO.P,C23,1*%
%TO.N,/MicroUSB_Port/VBUS*%
X118195000Y-109372500D03*
%TO.P,C23,2*%
%TO.N,GND*%
X118195000Y-107297500D03*
%TD*%
D27*
%TO.P,JP1,1,A*%
%TO.N,/CAN_controller/CAN_LOW*%
X149105000Y-80260000D03*
D28*
%TO.P,JP1,2,B*%
%TO.N,Net-(JP1-B)*%
X149105000Y-78960000D03*
%TD*%
D23*
%TO.P,R14,1*%
%TO.N,+3V3*%
X122665000Y-118125000D03*
%TO.P,R14,2*%
%TO.N,/VoltageRegulatorESD/power_led*%
X120665000Y-118125000D03*
%TD*%
D22*
%TO.P,C2,1*%
%TO.N,+3V3*%
X152985000Y-116112500D03*
%TO.P,C2,2*%
%TO.N,GND*%
X152985000Y-114037500D03*
%TD*%
D29*
%TO.P,D7,1,K*%
%TO.N,5v*%
X120185000Y-106875000D03*
%TO.P,D7,2,A*%
%TO.N,/MicroUSB_Port/VBUS*%
X120185000Y-109255000D03*
%TD*%
D26*
%TO.P,C4,1*%
%TO.N,GND*%
X153287500Y-112065000D03*
%TO.P,C4,2*%
%TO.N,EN*%
X155362500Y-112065000D03*
%TD*%
D22*
%TO.P,C17,1*%
%TO.N,5v*%
X138265000Y-97612500D03*
%TO.P,C17,2*%
%TO.N,GND*%
X138265000Y-95537500D03*
%TD*%
D23*
%TO.P,R4,1*%
%TO.N,/Microcontroller/RXD0*%
X138065000Y-112675000D03*
%TO.P,R4,2*%
%TO.N,/MicroUSB_Port/TXD*%
X136065000Y-112675000D03*
%TD*%
D30*
%TO.P,U5,1,TXCAN*%
%TO.N,/CAN_controller/TX_can*%
X141165000Y-87045000D03*
%TO.P,U5,2,RXCAN*%
%TO.N,/CAN_controller/RX_can*%
X142435000Y-87045000D03*
%TO.P,U5,3,CLKOUT/SOF*%
%TO.N,unconnected-(U5-CLKOUT{slash}SOF-Pad3)*%
X143705000Y-87045000D03*
%TO.P,U5,4,~{TX0RTS}*%
%TO.N,unconnected-(U5-~{TX0RTS}-Pad4)*%
X144975000Y-87045000D03*
%TO.P,U5,5,~{TX1RTS}*%
%TO.N,unconnected-(U5-~{TX1RTS}-Pad5)*%
X146245000Y-87045000D03*
%TO.P,U5,6,~{TX2RTS}*%
%TO.N,unconnected-(U5-~{TX2RTS}-Pad6)*%
X147515000Y-87045000D03*
%TO.P,U5,7,OSC2*%
%TO.N,/CAN_controller/osc2*%
X148785000Y-87045000D03*
%TO.P,U5,8,OSC1*%
%TO.N,/CAN_controller/osc1*%
X150055000Y-87045000D03*
%TO.P,U5,9,VSS*%
%TO.N,GND*%
X151325000Y-87045000D03*
%TO.P,U5,10,~{RX1BF}*%
%TO.N,unconnected-(U5-~{RX1BF}-Pad10)*%
X151325000Y-96265000D03*
%TO.P,U5,11,~{RX0BF}*%
%TO.N,unconnected-(U5-~{RX0BF}-Pad11)*%
X150055000Y-96265000D03*
%TO.P,U5,12,~{INT}*%
%TO.N,/CAN_controller/CAN_INT*%
X148785000Y-96265000D03*
%TO.P,U5,13,SCK*%
%TO.N,SCLK*%
X147515000Y-96265000D03*
%TO.P,U5,14,SI*%
%TO.N,MOSI*%
X146245000Y-96265000D03*
%TO.P,U5,15,SO*%
%TO.N,MISO*%
X144975000Y-96265000D03*
%TO.P,U5,16,~{CS}*%
%TO.N,/CAN_controller/CAN_CS*%
X143705000Y-96265000D03*
%TO.P,U5,17,~{RESET}*%
%TO.N,/CAN_controller/RESET_MCP*%
X142435000Y-96265000D03*
%TO.P,U5,18,VDD*%
%TO.N,5v*%
X141165000Y-96265000D03*
%TD*%
D26*
%TO.P,C13,1*%
%TO.N,+3V3*%
X129467500Y-108525000D03*
%TO.P,C13,2*%
%TO.N,GND*%
X131542500Y-108525000D03*
%TD*%
D23*
%TO.P,R5,1*%
%TO.N,/Microcontroller/CAN_debug*%
X122665000Y-121125000D03*
%TO.P,R5,2*%
%TO.N,/Microcontroller/can_led*%
X120665000Y-121125000D03*
%TD*%
D31*
%TO.P,C16,1*%
%TO.N,5v*%
X134035000Y-97570000D03*
%TO.P,C16,2*%
%TO.N,GND*%
X134035000Y-95620000D03*
%TD*%
D22*
%TO.P,C1,1*%
%TO.N,+3V3*%
X155245000Y-116130000D03*
%TO.P,C1,2*%
%TO.N,GND*%
X155245000Y-114055000D03*
%TD*%
D24*
%TO.P,C21,1*%
%TO.N,+3V3*%
X122305000Y-110115000D03*
%TO.P,C21,2*%
%TO.N,GND*%
X122305000Y-112190000D03*
%TD*%
D32*
%TO.P,U4,1,TXD*%
%TO.N,/CAN_controller/TX_can*%
X141165000Y-84825000D03*
%TO.P,U4,2,GND*%
%TO.N,GND*%
X141165000Y-83555000D03*
%TO.P,U4,3,VCC*%
%TO.N,5v*%
X141165000Y-82285000D03*
%TO.P,U4,4,RXD*%
%TO.N,/CAN_controller/RX_can*%
X141165000Y-81015000D03*
%TO.P,U4,5,VREF*%
%TO.N,unconnected-(U4-VREF-Pad5)*%
X146765000Y-81015000D03*
%TO.P,U4,6,CANL*%
%TO.N,/CAN_controller/CAN_LOW*%
X146765000Y-82285000D03*
%TO.P,U4,7,CANH*%
%TO.N,/CAN_controller/CAN_HIGH*%
X146765000Y-83555000D03*
%TO.P,U4,8,S*%
%TO.N,GND*%
X146765000Y-84825000D03*
%TD*%
D22*
%TO.P,C5,1*%
%TO.N,GND*%
X152675000Y-102102500D03*
%TO.P,C5,2*%
%TO.N,EN*%
X152675000Y-100027500D03*
%TD*%
D33*
%TO.P,U3,1,ADJ*%
%TO.N,GND*%
X127142500Y-97585000D03*
%TO.P,U3,2,VO*%
%TO.N,+3V3*%
X129442500Y-97585000D03*
D34*
X129442500Y-103885000D03*
D33*
%TO.P,U3,3,VI*%
%TO.N,5v*%
X131742500Y-97585000D03*
%TD*%
D35*
%TO.P,R16,1*%
%TO.N,Net-(JP1-B)*%
X151435000Y-78620000D03*
%TO.P,R16,2*%
%TO.N,/CAN_controller/CAN_HIGH*%
X151435000Y-80620000D03*
%TD*%
D36*
%TO.P,D6,1,1*%
%TO.N,/CAN_controller/CAN_HIGH*%
X149095000Y-83900000D03*
%TO.P,D6,2,2*%
%TO.N,/CAN_controller/CAN_LOW*%
X149095000Y-82000000D03*
%TO.P,D6,3,3*%
%TO.N,GND*%
X151195000Y-82950000D03*
%TD*%
D35*
%TO.P,R2,1*%
%TO.N,EN*%
X150605000Y-100025000D03*
%TO.P,R2,2*%
%TO.N,+3V3*%
X150605000Y-102025000D03*
%TD*%
D22*
%TO.P,C22,1*%
%TO.N,GND*%
X120955000Y-104890000D03*
%TO.P,C22,2*%
%TO.N,5v*%
X120955000Y-102815000D03*
%TD*%
D23*
%TO.P,R6,1*%
%TO.N,/Microcontroller/BLE_debug*%
X122665000Y-124125000D03*
%TO.P,R6,2*%
%TO.N,/Microcontroller/ble_led*%
X120665000Y-124125000D03*
%TD*%
D37*
%TO.P,R1,1*%
%TO.N,IO0*%
X140365000Y-104295000D03*
%TO.P,R1,2*%
%TO.N,+3V3*%
X142365000Y-104295000D03*
%TD*%
D23*
%TO.P,R3,1*%
%TO.N,/Microcontroller/TXD0*%
X138065000Y-114735000D03*
%TO.P,R3,2*%
%TO.N,/MicroUSB_Port/RXD*%
X136065000Y-114735000D03*
%TD*%
D37*
%TO.P,R15,1*%
%TO.N,5v*%
X136045000Y-99545000D03*
%TO.P,R15,2*%
%TO.N,/CAN_controller/RESET_MCP*%
X138045000Y-99545000D03*
%TD*%
D38*
%TO.N,GND*%
X142955000Y-98345000D03*
X146415000Y-93355000D03*
D39*
X150245000Y-118415000D03*
D38*
X157955000Y-99985000D03*
X147325000Y-91495000D03*
X144395000Y-111565000D03*
X155705000Y-87575000D03*
X146975000Y-115895000D03*
X150185000Y-90495000D03*
X124605000Y-81085000D03*
X118165000Y-116155000D03*
X131275000Y-111535000D03*
X150025000Y-73785000D03*
X135195000Y-118845000D03*
X116075000Y-106665000D03*
X146235000Y-73705000D03*
X122075000Y-81085000D03*
X133195000Y-118845000D03*
X124665000Y-91685000D03*
D39*
X127715000Y-107535000D03*
D38*
X123615000Y-115655000D03*
X148325000Y-90495000D03*
X149565000Y-93175000D03*
X129755000Y-86745000D03*
X134515000Y-101235000D03*
D39*
X145165000Y-118415000D03*
D38*
X152515000Y-82935000D03*
X116725000Y-119605000D03*
X132195000Y-118845000D03*
D39*
X127715000Y-109745000D03*
D38*
X136270000Y-103620000D03*
X153945000Y-92255000D03*
X146415000Y-90495000D03*
X130385000Y-73715000D03*
X144975000Y-115895000D03*
X136615000Y-83185000D03*
X134195000Y-71385000D03*
X124735000Y-122895000D03*
X134195000Y-118845000D03*
X137265000Y-90115000D03*
X149775000Y-85165000D03*
X122305000Y-113305000D03*
X124085000Y-116635000D03*
X129755000Y-89075000D03*
X147325000Y-90495000D03*
X152675000Y-103215000D03*
X147335000Y-89565000D03*
X138215000Y-73655000D03*
X133315000Y-115185000D03*
X145975000Y-115895000D03*
X153945000Y-91255000D03*
X157925000Y-118795000D03*
X131195000Y-118845000D03*
X146425000Y-89565000D03*
X153945000Y-89395000D03*
X122565000Y-106855000D03*
X127285000Y-85165000D03*
X120835000Y-96785000D03*
X146415000Y-91495000D03*
X136980000Y-106790000D03*
X124735000Y-124895000D03*
X118125000Y-94155000D03*
X139665000Y-100025000D03*
X146415000Y-92355000D03*
X124735000Y-123895000D03*
X136195000Y-118845000D03*
X124735000Y-121895000D03*
D39*
X142625000Y-118415000D03*
D38*
X140425000Y-118795000D03*
X116725000Y-122635000D03*
X142205000Y-73705000D03*
X149185000Y-90495000D03*
X154495000Y-96525000D03*
X128235000Y-101285000D03*
X137195000Y-118845000D03*
X138195000Y-118845000D03*
X126175000Y-73695000D03*
X121035000Y-113405000D03*
D39*
X147705000Y-118415000D03*
X152785000Y-118415000D03*
D38*
X148325000Y-91495000D03*
D39*
X116535000Y-84575000D03*
D38*
X149185000Y-91495000D03*
X150185000Y-91495000D03*
X155705000Y-89935000D03*
X153945000Y-90395000D03*
D39*
X155325000Y-118415000D03*
D38*
X143435000Y-89725000D03*
X122565000Y-91695000D03*
X129615000Y-94015000D03*
%TO.N,+3V3*%
X131885000Y-115045000D03*
X143525000Y-103935000D03*
X156455000Y-116135000D03*
X122985000Y-109085000D03*
%TO.N,IO0*%
X141145000Y-100265000D03*
X134985000Y-107085000D03*
%TO.N,EN*%
X150615000Y-98655000D03*
X156624998Y-113125000D03*
X144015000Y-108855000D03*
X133255000Y-110775000D03*
X148815000Y-101695000D03*
D39*
%TO.N,/VoltageRegulatorESD/Vout*%
X119615000Y-94025000D03*
D38*
%TO.N,5v*%
X121185000Y-106875000D03*
%TO.N,/CAN_controller/osc1*%
X152105000Y-90905000D03*
%TO.N,/CAN_controller/osc2*%
X148935000Y-89005000D03*
%TO.N,/MicroUSB_Port/VBUS*%
X117949999Y-110613478D03*
X119585000Y-115945000D03*
%TO.N,/VoltageRegulatorESD/power_led*%
X119545000Y-118125000D03*
D39*
%TO.N,/VoltageRegulatorESD/12v_in*%
X123345000Y-82245000D03*
D38*
%TO.N,/Microcontroller/SCL*%
X144525000Y-114485000D03*
X141655000Y-115285000D03*
%TO.N,/Microcontroller/SDA*%
X144680000Y-109550000D03*
X141695000Y-111465000D03*
%TO.N,/MicroUSB_Port/D-*%
X120393229Y-110371733D03*
X124115000Y-108585000D03*
%TO.N,/Microcontroller/TXD0*%
X139205000Y-114035000D03*
%TO.N,/MicroUSB_Port/RXD*%
X136448776Y-109691175D03*
X134470000Y-114740000D03*
X126785000Y-101265000D03*
X126795000Y-104345000D03*
X132255000Y-100255000D03*
%TO.N,/MicroUSB_Port/TXD*%
X126469810Y-105184200D03*
X125805000Y-101095000D03*
X133415000Y-100185000D03*
X137770025Y-109699975D03*
X136050000Y-111470000D03*
%TO.N,/Microcontroller/CAN_debug*%
X145815000Y-114595000D03*
%TO.N,/Microcontroller/BLE_debug*%
X124835000Y-117865000D03*
X146355000Y-113875000D03*
X123475000Y-122635000D03*
%TO.N,/VoltageRegulatorESD/EN*%
X120395000Y-86115000D03*
X135605000Y-87515000D03*
%TO.N,/VoltageRegulatorESD/FREQ*%
X125890000Y-86730000D03*
X121525000Y-84585000D03*
%TO.N,/CAN_controller/CAN_INT*%
X158925000Y-99105000D03*
%TO.N,/CAN_controller/CAN_CS*%
X144285000Y-101425000D03*
%TO.N,SCLK*%
X138725000Y-106895000D03*
%TO.N,MISO*%
X145335000Y-101415000D03*
%TO.N,MOSI*%
X146234492Y-101445320D03*
%TO.N,/Microcontroller/can_led*%
X119565000Y-121125000D03*
%TO.N,/Microcontroller/ble_led*%
X119575000Y-124125000D03*
D39*
%TO.N,/VoltageRegulatorESD/GND_resistence_protect*%
X123345000Y-80095000D03*
D38*
%TO.N,/Microcontroller/RXD0*%
X139175000Y-112755000D03*
%TD*%
D40*
%TO.N,GND*%
X142402500Y-98897500D02*
X142402500Y-102235000D01*
X152515000Y-82935000D02*
X152500000Y-82950000D01*
D41*
X131542500Y-108525000D02*
X131542500Y-106355000D01*
D40*
X120230000Y-104890000D02*
X120955000Y-104890000D01*
X128225000Y-116185000D02*
X127045000Y-115005000D01*
X142955000Y-98345000D02*
X142402500Y-98897500D01*
X118195000Y-107297500D02*
X118195000Y-106925000D01*
D41*
X127045000Y-113365000D02*
X127045000Y-115005000D01*
X152675000Y-103215000D02*
X152675000Y-102102500D01*
D40*
X118195000Y-106925000D02*
X120230000Y-104890000D01*
X120955000Y-104890000D02*
X123490000Y-104890000D01*
X152500000Y-82950000D02*
X151195000Y-82950000D01*
X123490000Y-104890000D02*
X123725000Y-105125000D01*
D41*
X122305000Y-113305000D02*
X122305000Y-112190000D01*
D42*
%TO.N,+3V3*%
X155227500Y-116112500D02*
X155245000Y-116130000D01*
X152985000Y-116112500D02*
X150122500Y-116112500D01*
X141805000Y-105805000D02*
X142365000Y-105245000D01*
X121093229Y-110661683D02*
X119995000Y-111759912D01*
X124465000Y-110115000D02*
X125555000Y-110115000D01*
X129467500Y-110782500D02*
X129467500Y-108525000D01*
X127375000Y-111295000D02*
X128955000Y-111295000D01*
X156450000Y-116130000D02*
X155245000Y-116130000D01*
X128135000Y-111295000D02*
X127375000Y-111295000D01*
X145815000Y-111805000D02*
X145815000Y-109785000D01*
X147605000Y-106955000D02*
X150605000Y-103955000D01*
X145815000Y-109785000D02*
X145815000Y-109625000D01*
X138475000Y-105805000D02*
X141805000Y-105805000D01*
X145815000Y-109625000D02*
X145815000Y-109445000D01*
X144215000Y-107845000D02*
X138465000Y-107845000D01*
X131885000Y-115045000D02*
X128135000Y-111295000D01*
X122305000Y-110115000D02*
X122305000Y-109765000D01*
X145815000Y-109445000D02*
X144215000Y-107845000D01*
X150122500Y-116112500D02*
X145815000Y-111805000D01*
X137985000Y-107365000D02*
X137985000Y-106295000D01*
X119995000Y-114255000D02*
X122665000Y-116925000D01*
X137985000Y-106295000D02*
X138475000Y-105805000D01*
X143165000Y-104295000D02*
X143525000Y-103935000D01*
X122305000Y-110115000D02*
X121635000Y-110115000D01*
X145815000Y-109625000D02*
X145815000Y-108745000D01*
X142365000Y-104295000D02*
X143165000Y-104295000D01*
X124465000Y-110115000D02*
X122305000Y-110115000D01*
X122665000Y-116925000D02*
X122665000Y-118125000D01*
X127025000Y-94965000D02*
X123725000Y-94965000D01*
X125555000Y-110115000D02*
X126735000Y-111295000D01*
X128955000Y-111295000D02*
X129467500Y-110782500D01*
X129442500Y-103885000D02*
X129442500Y-97585000D01*
X150605000Y-103955000D02*
X150605000Y-102025000D01*
X119995000Y-111759912D02*
X119995000Y-114255000D01*
X126735000Y-111295000D02*
X127375000Y-111295000D01*
X129442500Y-97585000D02*
X129442500Y-97382500D01*
X122305000Y-109765000D02*
X122985000Y-109085000D01*
X129442500Y-97382500D02*
X127025000Y-94965000D01*
X138465000Y-107845000D02*
X137985000Y-107365000D01*
X142365000Y-105245000D02*
X142365000Y-104295000D01*
X121635000Y-110115000D02*
X121093229Y-110656771D01*
X156455000Y-116135000D02*
X156450000Y-116130000D01*
X152985000Y-116112500D02*
X155227500Y-116112500D01*
X145815000Y-108745000D02*
X147605000Y-106955000D01*
X121093229Y-110656771D02*
X121093229Y-110661683D01*
%TO.N,IO0*%
X140365000Y-102272500D02*
X140327500Y-102235000D01*
X134985000Y-107085000D02*
X134985000Y-106695000D01*
X141145000Y-100265000D02*
X140327500Y-101082500D01*
X140327500Y-101082500D02*
X140327500Y-102235000D01*
X137385000Y-104295000D02*
X140365000Y-104295000D01*
X134985000Y-106695000D02*
X137385000Y-104295000D01*
X140365000Y-104295000D02*
X140365000Y-102272500D01*
%TO.N,EN*%
X150607500Y-100027500D02*
X150605000Y-100025000D01*
X150605000Y-100025000D02*
X149525000Y-100025000D01*
X144015000Y-108855000D02*
X140695000Y-108855000D01*
X133395000Y-110635000D02*
X133255000Y-110775000D01*
X156624998Y-113125000D02*
X156624998Y-112614998D01*
X152675000Y-100027500D02*
X150607500Y-100027500D01*
X156624998Y-112614998D02*
X156075000Y-112065000D01*
X140695000Y-108855000D02*
X138915000Y-110635000D01*
X155362500Y-112065000D02*
X155362500Y-100782500D01*
X156075000Y-112065000D02*
X155362500Y-112065000D01*
X155362500Y-100782500D02*
X154607500Y-100027500D01*
X150605000Y-98665000D02*
X150615000Y-98655000D01*
X150605000Y-100025000D02*
X150605000Y-98665000D01*
X149525000Y-100025000D02*
X148815000Y-100735000D01*
X154607500Y-100027500D02*
X152675000Y-100027500D01*
X138915000Y-110635000D02*
X133395000Y-110635000D01*
X148815000Y-100735000D02*
X148815000Y-101695000D01*
D40*
%TO.N,/VoltageRegulatorESD/Vout*%
X119625000Y-99595000D02*
X118845000Y-100375000D01*
X118845000Y-100375000D02*
X117225000Y-100375000D01*
X119625000Y-94035000D02*
X119625000Y-99595000D01*
X119615000Y-94025000D02*
X119625000Y-94035000D01*
%TO.N,5v*%
X117225000Y-102375000D02*
X119225000Y-102375000D01*
X122855000Y-93015000D02*
X126145000Y-93015000D01*
X136045000Y-97612500D02*
X138265000Y-97612500D01*
X131742500Y-97585000D02*
X131742500Y-95292500D01*
X134035000Y-97570000D02*
X136002500Y-97570000D01*
X141165000Y-96265000D02*
X141165000Y-91005000D01*
X140175000Y-96265000D02*
X141165000Y-96265000D01*
X136002500Y-97570000D02*
X136045000Y-97612500D01*
X119665000Y-102815000D02*
X120955000Y-102815000D01*
X120955000Y-102815000D02*
X120955000Y-99665000D01*
X136045000Y-97612500D02*
X136045000Y-99545000D01*
X138315000Y-88155000D02*
X138315000Y-83015000D01*
X141165000Y-91005000D02*
X138315000Y-88155000D01*
X139045000Y-82285000D02*
X141165000Y-82285000D01*
X138265000Y-97612500D02*
X138827500Y-97612500D01*
X122025000Y-93845000D02*
X122855000Y-93015000D01*
X126145000Y-93015000D02*
X128420000Y-95290000D01*
X131742500Y-97585000D02*
X134020000Y-97585000D01*
X138315000Y-83015000D02*
X139045000Y-82285000D01*
X122025000Y-98595000D02*
X122025000Y-93845000D01*
X138827500Y-97612500D02*
X140175000Y-96265000D01*
X119225000Y-102375000D02*
X119665000Y-102815000D01*
X128420000Y-95290000D02*
X131745000Y-95290000D01*
X131742500Y-95292500D02*
X131745000Y-95290000D01*
X134020000Y-97585000D02*
X134035000Y-97570000D01*
D42*
X121185000Y-106875000D02*
X120185000Y-106875000D01*
D40*
X120955000Y-99665000D02*
X122025000Y-98595000D01*
D42*
%TO.N,/CAN_controller/osc1*%
X152105000Y-90905000D02*
X150055000Y-88855000D01*
X150055000Y-88855000D02*
X150055000Y-87045000D01*
%TO.N,/CAN_controller/osc2*%
X148785000Y-88855000D02*
X148935000Y-89005000D01*
X148785000Y-87045000D02*
X148785000Y-88855000D01*
%TO.N,/MicroUSB_Port/VBUS*%
X118197500Y-109375000D02*
X120065000Y-109375000D01*
X118195000Y-109372500D02*
X118197500Y-109375000D01*
X117945000Y-110618477D02*
X117945000Y-114285000D01*
X117945000Y-114285000D02*
X119585000Y-115925000D01*
X117949999Y-110613478D02*
X118195000Y-110368477D01*
X117949999Y-110613478D02*
X117945000Y-110618477D01*
X118195000Y-110368477D02*
X118195000Y-109372500D01*
X120065000Y-109375000D02*
X120185000Y-109255000D01*
X119585000Y-115925000D02*
X119585000Y-115945000D01*
%TO.N,/VoltageRegulatorESD/power_led*%
X119545000Y-118125000D02*
X120665000Y-118125000D01*
%TO.N,/CAN_controller/CAN_LOW*%
X146765000Y-82285000D02*
X145065000Y-82285000D01*
X144495000Y-81715000D02*
X144495000Y-80957893D01*
X149095000Y-80270000D02*
X149105000Y-80260000D01*
X134175000Y-77705000D02*
X134175000Y-74265000D01*
X145065000Y-82285000D02*
X144495000Y-81715000D01*
X148300000Y-82000000D02*
X149095000Y-82000000D01*
X148015000Y-82285000D02*
X148300000Y-82000000D01*
X135775000Y-79305000D02*
X134175000Y-77705000D01*
X146765000Y-82285000D02*
X148015000Y-82285000D01*
X142842107Y-79305000D02*
X135775000Y-79305000D01*
X149095000Y-82000000D02*
X149095000Y-80270000D01*
X144495000Y-80957893D02*
X142842107Y-79305000D01*
X134175000Y-74265000D02*
X132195000Y-72285000D01*
D40*
%TO.N,/VoltageRegulatorESD/12v_in*%
X123335000Y-82245000D02*
X122165000Y-83415000D01*
X123345000Y-82245000D02*
X123335000Y-82245000D01*
X122165000Y-83415000D02*
X119895000Y-83415000D01*
D42*
%TO.N,/CAN_controller/CAN_HIGH*%
X149095000Y-83900000D02*
X148370000Y-83900000D01*
X148370000Y-83900000D02*
X148025000Y-83555000D01*
X142635001Y-79805000D02*
X135567893Y-79805000D01*
X153805000Y-81505000D02*
X152920000Y-80620000D01*
X148025000Y-83555000D02*
X146765000Y-83555000D01*
X152920000Y-80620000D02*
X151435000Y-80620000D01*
X143995000Y-81925000D02*
X143995000Y-81164999D01*
X150000000Y-83900000D02*
X150435000Y-84335000D01*
X149095000Y-83900000D02*
X150000000Y-83900000D01*
X150435000Y-84335000D02*
X153175000Y-84335000D01*
X135567893Y-79805000D02*
X132195000Y-76432107D01*
X143995000Y-81164999D02*
X142635001Y-79805000D01*
X132195000Y-76432107D02*
X132195000Y-75285000D01*
X146765000Y-83555000D02*
X145625000Y-83555000D01*
X153175000Y-84335000D02*
X153805000Y-83705000D01*
X153805000Y-83705000D02*
X153805000Y-81505000D01*
X145625000Y-83555000D02*
X143995000Y-81925000D01*
%TO.N,/Microcontroller/SCL*%
X144525000Y-114485000D02*
X143725000Y-115285000D01*
X143725000Y-115285000D02*
X141655000Y-115285000D01*
%TO.N,/Microcontroller/SDA*%
X144680000Y-109550000D02*
X142765000Y-111465000D01*
X142765000Y-111465000D02*
X141695000Y-111465000D01*
%TO.N,/MicroUSB_Port/D-*%
X120393229Y-110358815D02*
X120393229Y-110371733D01*
X123915000Y-108385000D02*
X122367044Y-108385000D01*
X122367044Y-108385000D02*
X120393229Y-110358815D01*
X124115000Y-108585000D02*
X123915000Y-108385000D01*
D41*
%TO.N,Net-(JP1-B)*%
X151430000Y-78615000D02*
X151435000Y-78620000D01*
X149450000Y-78615000D02*
X151430000Y-78615000D01*
X149105000Y-78960000D02*
X149450000Y-78615000D01*
D42*
%TO.N,/Microcontroller/TXD0*%
X138765000Y-114035000D02*
X138065000Y-114735000D01*
X139205000Y-114035000D02*
X138765000Y-114035000D01*
%TO.N,/MicroUSB_Port/RXD*%
X132335000Y-100335000D02*
X132335000Y-102005000D01*
X135350000Y-109790000D02*
X135850000Y-109790000D01*
X134665000Y-114735000D02*
X136065000Y-114735000D01*
X132995000Y-102665000D02*
X132995000Y-107435000D01*
X132335000Y-102005000D02*
X132995000Y-102665000D01*
X126785000Y-101285000D02*
X126395000Y-101675000D01*
X132255000Y-100255000D02*
X132335000Y-100335000D01*
X126395000Y-101675000D02*
X126395000Y-103945000D01*
X126785000Y-101265000D02*
X126785000Y-101285000D01*
X136349951Y-109790000D02*
X136448776Y-109691175D01*
X132995000Y-107435000D02*
X135350000Y-109790000D01*
X134660000Y-114740000D02*
X134470000Y-114740000D01*
X134665000Y-114735000D02*
X134660000Y-114740000D01*
X135850000Y-109790000D02*
X136349951Y-109790000D01*
X126395000Y-103945000D02*
X126795000Y-104345000D01*
%TO.N,/MicroUSB_Port/TXD*%
X136585000Y-108295000D02*
X134725000Y-108295000D01*
X133415000Y-101715000D02*
X133415000Y-100185000D01*
X136050000Y-111470000D02*
X136050000Y-112660000D01*
X125405000Y-104119390D02*
X126469810Y-105184200D01*
X136050000Y-112660000D02*
X136065000Y-112675000D01*
X134725000Y-108295000D02*
X134035000Y-107605000D01*
X125405000Y-101495000D02*
X125405000Y-104119390D01*
X137770025Y-109699975D02*
X137770025Y-109480025D01*
X125805000Y-101095000D02*
X125405000Y-101495000D01*
X137770025Y-109480025D02*
X136585000Y-108295000D01*
X134035000Y-107605000D02*
X134035000Y-102335000D01*
X134035000Y-102335000D02*
X133415000Y-101715000D01*
%TO.N,/Microcontroller/CAN_debug*%
X141385000Y-113685000D02*
X140825000Y-114245000D01*
X124365000Y-120615000D02*
X123855000Y-121125000D01*
X145815000Y-114595000D02*
X145815000Y-114575000D01*
X145815000Y-114575000D02*
X144925000Y-113685000D01*
X140825000Y-116935000D02*
X140115000Y-117645000D01*
X123855000Y-121125000D02*
X122665000Y-121125000D01*
X129705000Y-118535000D02*
X125285000Y-118535000D01*
X140115000Y-117645000D02*
X130595000Y-117645000D01*
X140825000Y-114245000D02*
X140825000Y-116935000D01*
X125285000Y-118535000D02*
X124365000Y-119455000D01*
X144925000Y-113685000D02*
X141385000Y-113685000D01*
X130595000Y-117645000D02*
X129705000Y-118535000D01*
X124365000Y-119455000D02*
X124365000Y-120615000D01*
%TO.N,/Microcontroller/BLE_debug*%
X130045000Y-116915000D02*
X129085000Y-117875000D01*
X139265000Y-116915000D02*
X130045000Y-116915000D01*
X145325000Y-112845000D02*
X141025000Y-112845000D01*
X124845000Y-117875000D02*
X124835000Y-117865000D01*
X123475000Y-123315000D02*
X122665000Y-124125000D01*
X123475000Y-122635000D02*
X123475000Y-123315000D01*
X139945000Y-113925000D02*
X139945000Y-116235000D01*
X146355000Y-113875000D02*
X145325000Y-112845000D01*
X141025000Y-112845000D02*
X139945000Y-113925000D01*
X139945000Y-116235000D02*
X139265000Y-116915000D01*
X129085000Y-117875000D02*
X124845000Y-117875000D01*
%TO.N,/VoltageRegulatorESD/EN*%
X122115000Y-87835000D02*
X135285000Y-87835000D01*
X135285000Y-87835000D02*
X135605000Y-87515000D01*
X120395000Y-86115000D02*
X122115000Y-87835000D01*
%TO.N,/VoltageRegulatorESD/FREQ*%
X125890000Y-86730000D02*
X125810000Y-86730000D01*
X125810000Y-86730000D02*
X123665000Y-84585000D01*
X123665000Y-84585000D02*
X121525000Y-84585000D01*
%TO.N,/CAN_controller/RESET_MCP*%
X141955000Y-97895000D02*
X142435000Y-97415000D01*
X138045000Y-99545000D02*
X138775000Y-99545000D01*
X140425000Y-97895000D02*
X141955000Y-97895000D01*
X138775000Y-99545000D02*
X140425000Y-97895000D01*
X142435000Y-97415000D02*
X142435000Y-96265000D01*
%TO.N,/CAN_controller/CAN_INT*%
X149470001Y-97905000D02*
X148785000Y-97219999D01*
X157725000Y-97905000D02*
X149470001Y-97905000D01*
X158925000Y-99105000D02*
X157725000Y-97905000D01*
X148785000Y-97219999D02*
X148785000Y-96265000D01*
%TO.N,/CAN_controller/CAN_CS*%
X143705000Y-97605000D02*
X143705000Y-96265000D01*
X144285000Y-98185000D02*
X143705000Y-97605000D01*
X144285000Y-101425000D02*
X144285000Y-98185000D01*
%TO.N,/CAN_controller/TX_can*%
X141165000Y-87045000D02*
X141165000Y-84825000D01*
%TO.N,/CAN_controller/RX_can*%
X142435000Y-85865000D02*
X143065000Y-85235000D01*
X142585000Y-81015000D02*
X141165000Y-81015000D01*
X142435000Y-87045000D02*
X142435000Y-85865000D01*
X143065000Y-81495000D02*
X142585000Y-81015000D01*
X143065000Y-85235000D02*
X143065000Y-81495000D01*
%TO.N,SCLK*%
X138725000Y-106895000D02*
X138745000Y-106875000D01*
X146075000Y-106875000D02*
X147515000Y-105435000D01*
X147515000Y-105435000D02*
X147515000Y-96265000D01*
X138745000Y-106875000D02*
X146075000Y-106875000D01*
%TO.N,MISO*%
X144975000Y-97625000D02*
X144975000Y-96265000D01*
X145335000Y-97985000D02*
X144975000Y-97625000D01*
X145335000Y-101415000D02*
X145335000Y-97985000D01*
%TO.N,MOSI*%
X146245000Y-101434812D02*
X146245000Y-96265000D01*
X146234492Y-101445320D02*
X146245000Y-101434812D01*
%TO.N,/Microcontroller/can_led*%
X119565000Y-121125000D02*
X120665000Y-121125000D01*
%TO.N,/Microcontroller/ble_led*%
X119575000Y-124125000D02*
X120665000Y-124125000D01*
D40*
%TO.N,/VoltageRegulatorESD/GND_resistence_protect*%
X123345000Y-80095000D02*
X122765000Y-79515000D01*
X122765000Y-79515000D02*
X119895000Y-79515000D01*
D42*
%TO.N,/Microcontroller/RXD0*%
X139175000Y-112755000D02*
X138145000Y-112755000D01*
X138145000Y-112755000D02*
X138065000Y-112675000D01*
%TD*%
%TA.AperFunction,Conductor*%
%TO.N,+3V3*%
G36*
X131200677Y-102704685D02*
G01*
X131221319Y-102721319D01*
X131528681Y-103028681D01*
X131562166Y-103090004D01*
X131565000Y-103116362D01*
X131565000Y-104643638D01*
X131545315Y-104710677D01*
X131528681Y-104731319D01*
X131211319Y-105048681D01*
X131149996Y-105082166D01*
X131123638Y-105085000D01*
X130424999Y-105085000D01*
X130245000Y-105264999D01*
X130245000Y-109183638D01*
X130225315Y-109250677D01*
X130208681Y-109271319D01*
X130071319Y-109408681D01*
X130009996Y-109442166D01*
X129983638Y-109445000D01*
X128926362Y-109445000D01*
X128859323Y-109425315D01*
X128838681Y-109408681D01*
X128711319Y-109281319D01*
X128677834Y-109219996D01*
X128675000Y-109193638D01*
X128675000Y-105714999D01*
X127736747Y-105076189D01*
X127733310Y-105073763D01*
X127558082Y-104945547D01*
X127515603Y-104890073D01*
X127509859Y-104820440D01*
X127523914Y-104783482D01*
X127576250Y-104692835D01*
X127631497Y-104522803D01*
X127650185Y-104345000D01*
X127631497Y-104167197D01*
X127576250Y-103997165D01*
X127486859Y-103842335D01*
X127423542Y-103772014D01*
X127367229Y-103709472D01*
X127366021Y-103708385D01*
X127365526Y-103707581D01*
X127362882Y-103704645D01*
X127363419Y-103704161D01*
X127329377Y-103648896D01*
X127325000Y-103616241D01*
X127325000Y-103116362D01*
X127344685Y-103049323D01*
X127361319Y-103028681D01*
X127668681Y-102721319D01*
X127730004Y-102687834D01*
X127756362Y-102685000D01*
X131133638Y-102685000D01*
X131200677Y-102704685D01*
G37*
%TD.AperFunction*%
%TD*%
%TA.AperFunction,Conductor*%
%TO.N,GND*%
G36*
X115591330Y-105738649D02*
G01*
X115736155Y-105843870D01*
X115839167Y-105896357D01*
X115960616Y-105958239D01*
X115960618Y-105958239D01*
X115960621Y-105958241D01*
X116200215Y-106036090D01*
X116449038Y-106075500D01*
X116449039Y-106075500D01*
X117288122Y-106075500D01*
X117355161Y-106095185D01*
X117400916Y-106147989D01*
X117410860Y-106217147D01*
X117381835Y-106280703D01*
X117353219Y-106305039D01*
X117251654Y-106367684D01*
X117127684Y-106491654D01*
X117035643Y-106640875D01*
X117035641Y-106640880D01*
X116980494Y-106807302D01*
X116980493Y-106807309D01*
X116970000Y-106910013D01*
X116970000Y-107047500D01*
X118321000Y-107047500D01*
X118388039Y-107067185D01*
X118433794Y-107119989D01*
X118445000Y-107171500D01*
X118445000Y-107423500D01*
X118425315Y-107490539D01*
X118372511Y-107536294D01*
X118321000Y-107547500D01*
X116970001Y-107547500D01*
X116970001Y-107684986D01*
X116980494Y-107787697D01*
X117035641Y-107954119D01*
X117035643Y-107954124D01*
X117127684Y-108103345D01*
X117251655Y-108227316D01*
X117251659Y-108227319D01*
X117254656Y-108229168D01*
X117256279Y-108230972D01*
X117257323Y-108231798D01*
X117257181Y-108231976D01*
X117301381Y-108281116D01*
X117312602Y-108350079D01*
X117284759Y-108414161D01*
X117254661Y-108440241D01*
X117251349Y-108442283D01*
X117251343Y-108442288D01*
X117127289Y-108566342D01*
X117035187Y-108715663D01*
X117035185Y-108715668D01*
X117019566Y-108762803D01*
X116980001Y-108882203D01*
X116980001Y-108882204D01*
X116980000Y-108882204D01*
X116969500Y-108984983D01*
X116969500Y-109760001D01*
X116969501Y-109760007D01*
X116980000Y-109862796D01*
X116980001Y-109862799D01*
X117035185Y-110029331D01*
X117035187Y-110029336D01*
X117038303Y-110034388D01*
X117127288Y-110178656D01*
X117127289Y-110178657D01*
X117127290Y-110178658D01*
X117131766Y-110184319D01*
X117130447Y-110185361D01*
X117159667Y-110238873D01*
X117156432Y-110303549D01*
X117113503Y-110435670D01*
X117113502Y-110435672D01*
X117094814Y-110613478D01*
X117113502Y-110791283D01*
X117113503Y-110791285D01*
X117168746Y-110961307D01*
X117168749Y-110961313D01*
X117258138Y-111116141D01*
X117262647Y-111121148D01*
X117292879Y-111184138D01*
X117294500Y-111204124D01*
X117294500Y-114349071D01*
X117318461Y-114469525D01*
X117318462Y-114469535D01*
X117318463Y-114469535D01*
X117319498Y-114474743D01*
X117319499Y-114474745D01*
X117368533Y-114593125D01*
X117396179Y-114634500D01*
X117438053Y-114697170D01*
X117439726Y-114699673D01*
X117439727Y-114699674D01*
X118704022Y-115963968D01*
X118737507Y-116025291D01*
X118739661Y-116038682D01*
X118748503Y-116122803D01*
X118748504Y-116122805D01*
X118748504Y-116122807D01*
X118803747Y-116292829D01*
X118803750Y-116292835D01*
X118893141Y-116447665D01*
X118934812Y-116493946D01*
X119012764Y-116580521D01*
X119012767Y-116580523D01*
X119012770Y-116580526D01*
X119157407Y-116685612D01*
X119320733Y-116758329D01*
X119495609Y-116795500D01*
X119495610Y-116795500D01*
X119674389Y-116795500D01*
X119674391Y-116795500D01*
X119849267Y-116758329D01*
X120012593Y-116685612D01*
X120157230Y-116580526D01*
X120276859Y-116447665D01*
X120366250Y-116292835D01*
X120421497Y-116122803D01*
X120440185Y-115945000D01*
X120439186Y-115935499D01*
X120438632Y-115930224D01*
X120451199Y-115861494D01*
X120498930Y-115810469D01*
X120566670Y-115793350D01*
X120632912Y-115815571D01*
X120649633Y-115829579D01*
X121786662Y-116966607D01*
X121820147Y-117027930D01*
X121815163Y-117097622D01*
X121786661Y-117141971D01*
X121752679Y-117175952D01*
X121691355Y-117209436D01*
X121621664Y-117204450D01*
X121577318Y-117175950D01*
X121483657Y-117082289D01*
X121483656Y-117082288D01*
X121373754Y-117014500D01*
X121334336Y-116990187D01*
X121334331Y-116990185D01*
X121332862Y-116989698D01*
X121167797Y-116935001D01*
X121167795Y-116935000D01*
X121065010Y-116924500D01*
X120264998Y-116924500D01*
X120264980Y-116924501D01*
X120162203Y-116935000D01*
X120162200Y-116935001D01*
X119995668Y-116990185D01*
X119995663Y-116990187D01*
X119846345Y-117082287D01*
X119722286Y-117206345D01*
X119716578Y-117215600D01*
X119664629Y-117262323D01*
X119611041Y-117274500D01*
X119455609Y-117274500D01*
X119424954Y-117281015D01*
X119280733Y-117311670D01*
X119280728Y-117311672D01*
X119117408Y-117384387D01*
X118972768Y-117489475D01*
X118853140Y-117622336D01*
X118763750Y-117777164D01*
X118763747Y-117777170D01*
X118708504Y-117947192D01*
X118708503Y-117947194D01*
X118689815Y-118125000D01*
X118708503Y-118302805D01*
X118708504Y-118302807D01*
X118763747Y-118472829D01*
X118763750Y-118472835D01*
X118853141Y-118627665D01*
X118878379Y-118655694D01*
X118972764Y-118760521D01*
X118972767Y-118760523D01*
X118972770Y-118760526D01*
X119117407Y-118865612D01*
X119280733Y-118938329D01*
X119455609Y-118975500D01*
X119455610Y-118975500D01*
X119611042Y-118975500D01*
X119678081Y-118995185D01*
X119716580Y-119034402D01*
X119722288Y-119043656D01*
X119846344Y-119167712D01*
X119995666Y-119259814D01*
X120162203Y-119314999D01*
X120264991Y-119325500D01*
X121065008Y-119325499D01*
X121065016Y-119325498D01*
X121065019Y-119325498D01*
X121121302Y-119319748D01*
X121167797Y-119314999D01*
X121334334Y-119259814D01*
X121483656Y-119167712D01*
X121577319Y-119074049D01*
X121638642Y-119040564D01*
X121708334Y-119045548D01*
X121752681Y-119074049D01*
X121846344Y-119167712D01*
X121995666Y-119259814D01*
X122162203Y-119314999D01*
X122264991Y-119325500D01*
X123065008Y-119325499D01*
X123065016Y-119325498D01*
X123065019Y-119325498D01*
X123121302Y-119319748D01*
X123167797Y-119314999D01*
X123334334Y-119259814D01*
X123483656Y-119167712D01*
X123548581Y-119102786D01*
X123609900Y-119069304D01*
X123679592Y-119074288D01*
X123735526Y-119116159D01*
X123759943Y-119181623D01*
X123750821Y-119237920D01*
X123739500Y-119265251D01*
X123739497Y-119265261D01*
X123714500Y-119390928D01*
X123714500Y-120013770D01*
X123694815Y-120080809D01*
X123642011Y-120126564D01*
X123572853Y-120136508D01*
X123509297Y-120107483D01*
X123502819Y-120101451D01*
X123483657Y-120082289D01*
X123483656Y-120082288D01*
X123334334Y-119990186D01*
X123167797Y-119935001D01*
X123167795Y-119935000D01*
X123065010Y-119924500D01*
X122264998Y-119924500D01*
X122264980Y-119924501D01*
X122162203Y-119935000D01*
X122162200Y-119935001D01*
X121995668Y-119990185D01*
X121995663Y-119990187D01*
X121846342Y-120082289D01*
X121752681Y-120175951D01*
X121691358Y-120209436D01*
X121621666Y-120204452D01*
X121577319Y-120175951D01*
X121483657Y-120082289D01*
X121483656Y-120082288D01*
X121334334Y-119990186D01*
X121167797Y-119935001D01*
X121167795Y-119935000D01*
X121065010Y-119924500D01*
X120264998Y-119924500D01*
X120264980Y-119924501D01*
X120162203Y-119935000D01*
X120162200Y-119935001D01*
X119995668Y-119990185D01*
X119995663Y-119990187D01*
X119846342Y-120082289D01*
X119722287Y-120206344D01*
X119716580Y-120215598D01*
X119664632Y-120262322D01*
X119611042Y-120274500D01*
X119475609Y-120274500D01*
X119452749Y-120279359D01*
X119300733Y-120311670D01*
X119300728Y-120311672D01*
X119137408Y-120384387D01*
X118992768Y-120489475D01*
X118873140Y-120622336D01*
X118783750Y-120777164D01*
X118783747Y-120777170D01*
X118728504Y-120947192D01*
X118728503Y-120947194D01*
X118709815Y-121125000D01*
X118728503Y-121302805D01*
X118728504Y-121302807D01*
X118783747Y-121472829D01*
X118783750Y-121472835D01*
X118873141Y-121627665D01*
X118914812Y-121673946D01*
X118992764Y-121760521D01*
X118992767Y-121760523D01*
X118992770Y-121760526D01*
X119137407Y-121865612D01*
X119300733Y-121938329D01*
X119475609Y-121975500D01*
X119475610Y-121975500D01*
X119611042Y-121975500D01*
X119678081Y-121995185D01*
X119716581Y-122034404D01*
X119722286Y-122043654D01*
X119722288Y-122043656D01*
X119846344Y-122167712D01*
X119995666Y-122259814D01*
X120162203Y-122314999D01*
X120264991Y-122325500D01*
X121065008Y-122325499D01*
X121065016Y-122325498D01*
X121065019Y-122325498D01*
X121121302Y-122319748D01*
X121167797Y-122314999D01*
X121334334Y-122259814D01*
X121483656Y-122167712D01*
X121577319Y-122074049D01*
X121638642Y-122040564D01*
X121708334Y-122045548D01*
X121752681Y-122074049D01*
X121846344Y-122167712D01*
X121995666Y-122259814D01*
X122162203Y-122314999D01*
X122264991Y-122325500D01*
X122514630Y-122325499D01*
X122581668Y-122345183D01*
X122627423Y-122397987D01*
X122637950Y-122462461D01*
X122619815Y-122634999D01*
X122635848Y-122787538D01*
X122623279Y-122856268D01*
X122575547Y-122907292D01*
X122512527Y-122924500D01*
X122264999Y-122924500D01*
X122264980Y-122924501D01*
X122162203Y-122935000D01*
X122162200Y-122935001D01*
X121995668Y-122990185D01*
X121995663Y-122990187D01*
X121846342Y-123082289D01*
X121752681Y-123175951D01*
X121691358Y-123209436D01*
X121621666Y-123204452D01*
X121577319Y-123175951D01*
X121483657Y-123082289D01*
X121483656Y-123082288D01*
X121334334Y-122990186D01*
X121167797Y-122935001D01*
X121167795Y-122935000D01*
X121065010Y-122924500D01*
X120264998Y-122924500D01*
X120264980Y-122924501D01*
X120162203Y-122935000D01*
X120162200Y-122935001D01*
X119995668Y-122990185D01*
X119995663Y-122990187D01*
X119846342Y-123082289D01*
X119722287Y-123206344D01*
X119716580Y-123215598D01*
X119664632Y-123262322D01*
X119611042Y-123274500D01*
X119485609Y-123274500D01*
X119454954Y-123281015D01*
X119310733Y-123311670D01*
X119310728Y-123311672D01*
X119147408Y-123384387D01*
X119002768Y-123489475D01*
X118883140Y-123622336D01*
X118793750Y-123777164D01*
X118793747Y-123777170D01*
X118738504Y-123947192D01*
X118738503Y-123947194D01*
X118719815Y-124125000D01*
X118738503Y-124302805D01*
X118738504Y-124302807D01*
X118793747Y-124472829D01*
X118793750Y-124472835D01*
X118883141Y-124627665D01*
X118924812Y-124673946D01*
X119002764Y-124760521D01*
X119002767Y-124760523D01*
X119002770Y-124760526D01*
X119147407Y-124865612D01*
X119310733Y-124938329D01*
X119485609Y-124975500D01*
X119485610Y-124975500D01*
X119611042Y-124975500D01*
X119678081Y-124995185D01*
X119716581Y-125034404D01*
X119722286Y-125043654D01*
X119761451Y-125082819D01*
X119794936Y-125144142D01*
X119789952Y-125213834D01*
X119748080Y-125269767D01*
X119682616Y-125294184D01*
X119673770Y-125294500D01*
X117099428Y-125294500D01*
X117090582Y-125294184D01*
X116861827Y-125277823D01*
X116844315Y-125275305D01*
X116624559Y-125227501D01*
X116607584Y-125222517D01*
X116396860Y-125143922D01*
X116380767Y-125136572D01*
X116183384Y-125028794D01*
X116168501Y-125019230D01*
X116001658Y-124894336D01*
X115988449Y-124884448D01*
X115975090Y-124872872D01*
X115816057Y-124713842D01*
X115804472Y-124700474D01*
X115669688Y-124520429D01*
X115660126Y-124505549D01*
X115552341Y-124308162D01*
X115544991Y-124292069D01*
X115466395Y-124081355D01*
X115461410Y-124064380D01*
X115413600Y-123844620D01*
X115411082Y-123827109D01*
X115394761Y-123598982D01*
X115394445Y-123590133D01*
X115394445Y-105838967D01*
X115414130Y-105771928D01*
X115466934Y-105726173D01*
X115536092Y-105716229D01*
X115591330Y-105738649D01*
G37*
%TD.AperFunction*%
%TA.AperFunction,Conductor*%
G36*
X125124417Y-120881319D02*
G01*
X125166788Y-120936875D01*
X125175000Y-120981249D01*
X125175000Y-125170500D01*
X125155315Y-125237539D01*
X125102511Y-125283294D01*
X125051000Y-125294500D01*
X123656230Y-125294500D01*
X123589191Y-125274815D01*
X123543436Y-125222011D01*
X123533492Y-125152853D01*
X123562517Y-125089297D01*
X123568549Y-125082819D01*
X123607712Y-125043656D01*
X123699814Y-124894334D01*
X123754999Y-124727797D01*
X123765500Y-124625009D01*
X123765499Y-123995807D01*
X123785183Y-123928769D01*
X123801813Y-123908132D01*
X123980277Y-123729669D01*
X124051465Y-123623127D01*
X124100501Y-123504744D01*
X124106517Y-123474500D01*
X124124442Y-123384388D01*
X124125500Y-123379071D01*
X124125500Y-123231197D01*
X124145185Y-123164158D01*
X124157352Y-123148223D01*
X124166859Y-123137665D01*
X124256250Y-122982835D01*
X124311497Y-122812803D01*
X124330185Y-122635000D01*
X124311497Y-122457197D01*
X124256250Y-122287165D01*
X124166859Y-122132335D01*
X124114378Y-122074049D01*
X124047235Y-121999478D01*
X124047232Y-121999476D01*
X124047231Y-121999475D01*
X124047230Y-121999474D01*
X124006506Y-121969886D01*
X123963841Y-121914556D01*
X123957863Y-121844943D01*
X123990469Y-121783148D01*
X124039343Y-121753381D01*
X124039116Y-121752832D01*
X124042648Y-121751368D01*
X124043410Y-121750905D01*
X124044730Y-121750503D01*
X124044744Y-121750501D01*
X124163127Y-121701465D01*
X124269669Y-121630277D01*
X124870277Y-121029669D01*
X124941465Y-120923127D01*
X124941466Y-120923122D01*
X124941639Y-120922801D01*
X124941775Y-120922662D01*
X124944849Y-120918062D01*
X124945721Y-120918644D01*
X124990599Y-120872954D01*
X125058736Y-120857491D01*
X125124417Y-120881319D01*
G37*
%TD.AperFunction*%
%TA.AperFunction,Conductor*%
G36*
X157471231Y-98575185D02*
G01*
X157491873Y-98591819D01*
X158046371Y-99146317D01*
X158079856Y-99207640D01*
X158082010Y-99221031D01*
X158088503Y-99282803D01*
X158088504Y-99282805D01*
X158088504Y-99282807D01*
X158143747Y-99452829D01*
X158143750Y-99452835D01*
X158233141Y-99607665D01*
X158243775Y-99619475D01*
X158352764Y-99740521D01*
X158352767Y-99740523D01*
X158352770Y-99740526D01*
X158497407Y-99845612D01*
X158660733Y-99918329D01*
X158835609Y-99955500D01*
X158835610Y-99955500D01*
X159014389Y-99955500D01*
X159014391Y-99955500D01*
X159189267Y-99918329D01*
X159352593Y-99845612D01*
X159497230Y-99740526D01*
X159516077Y-99719595D01*
X159577295Y-99651605D01*
X159636781Y-99614956D01*
X159706638Y-99616286D01*
X159764687Y-99655173D01*
X159792497Y-99719269D01*
X159793445Y-99734577D01*
X159793445Y-119246000D01*
X159773760Y-119313039D01*
X159720956Y-119358794D01*
X159669445Y-119370000D01*
X130012359Y-119370000D01*
X129945320Y-119350315D01*
X129899565Y-119297511D01*
X129889621Y-119228353D01*
X129918646Y-119164797D01*
X129964906Y-119131439D01*
X129972060Y-119128475D01*
X130013127Y-119111465D01*
X130119669Y-119040277D01*
X130828127Y-118331819D01*
X130889450Y-118298334D01*
X130915808Y-118295500D01*
X140179071Y-118295500D01*
X140263615Y-118278682D01*
X140304744Y-118270501D01*
X140423127Y-118221465D01*
X140436043Y-118212835D01*
X140529669Y-118150277D01*
X141330277Y-117349669D01*
X141401466Y-117243126D01*
X141450501Y-117124743D01*
X141463338Y-117060212D01*
X141475500Y-116999069D01*
X141475500Y-116259500D01*
X141495185Y-116192461D01*
X141547989Y-116146706D01*
X141599500Y-116135500D01*
X141744389Y-116135500D01*
X141744391Y-116135500D01*
X141919267Y-116098329D01*
X142082593Y-116025612D01*
X142174025Y-115959182D01*
X142239831Y-115935702D01*
X142246911Y-115935500D01*
X143789071Y-115935500D01*
X143873615Y-115918682D01*
X143914744Y-115910501D01*
X144033127Y-115861465D01*
X144037820Y-115858329D01*
X144139669Y-115790277D01*
X144563092Y-115366853D01*
X144624413Y-115333370D01*
X144624477Y-115333356D01*
X144789267Y-115298329D01*
X144952593Y-115225612D01*
X145035010Y-115165732D01*
X145100816Y-115142251D01*
X145168870Y-115158076D01*
X145200046Y-115183077D01*
X145242764Y-115230521D01*
X145242767Y-115230523D01*
X145242770Y-115230526D01*
X145387407Y-115335612D01*
X145550733Y-115408329D01*
X145725609Y-115445500D01*
X145725610Y-115445500D01*
X145904389Y-115445500D01*
X145904391Y-115445500D01*
X146079267Y-115408329D01*
X146242593Y-115335612D01*
X146387230Y-115230526D01*
X146391658Y-115225609D01*
X146432507Y-115180241D01*
X146506859Y-115097665D01*
X146596250Y-114942835D01*
X146651497Y-114772803D01*
X146654910Y-114740329D01*
X146681493Y-114675713D01*
X146727797Y-114640008D01*
X146782593Y-114615612D01*
X146927230Y-114510526D01*
X147046859Y-114377665D01*
X147098916Y-114287500D01*
X147120105Y-114250800D01*
X147170672Y-114202584D01*
X147239279Y-114189361D01*
X147304144Y-114215329D01*
X147315173Y-114225119D01*
X149707825Y-116617772D01*
X149707832Y-116617778D01*
X149809355Y-116685613D01*
X149809354Y-116685613D01*
X149809361Y-116685616D01*
X149814373Y-116688965D01*
X149932756Y-116738001D01*
X149932760Y-116738001D01*
X149932761Y-116738002D01*
X150058428Y-116763000D01*
X150058431Y-116763000D01*
X151752072Y-116763000D01*
X151819111Y-116782685D01*
X151857609Y-116821901D01*
X151917288Y-116918656D01*
X152041344Y-117042712D01*
X152190666Y-117134814D01*
X152357203Y-117189999D01*
X152459991Y-117200500D01*
X153510008Y-117200499D01*
X153510016Y-117200498D01*
X153510019Y-117200498D01*
X153566302Y-117194748D01*
X153612797Y-117189999D01*
X153779334Y-117134814D01*
X153928656Y-117042712D01*
X154018569Y-116952799D01*
X154079892Y-116919314D01*
X154149584Y-116924298D01*
X154193931Y-116952799D01*
X154301344Y-117060212D01*
X154450666Y-117152314D01*
X154617203Y-117207499D01*
X154719991Y-117218000D01*
X155770008Y-117217999D01*
X155770016Y-117217998D01*
X155770019Y-117217998D01*
X155826302Y-117212248D01*
X155872797Y-117207499D01*
X156039334Y-117152314D01*
X156188656Y-117060212D01*
X156233682Y-117015185D01*
X156295003Y-116981699D01*
X156347143Y-116981575D01*
X156365609Y-116985500D01*
X156365611Y-116985500D01*
X156544389Y-116985500D01*
X156544391Y-116985500D01*
X156719267Y-116948329D01*
X156882593Y-116875612D01*
X157027230Y-116770526D01*
X157028304Y-116769334D01*
X157058988Y-116735255D01*
X157146859Y-116637665D01*
X157236250Y-116482835D01*
X157291497Y-116312803D01*
X157310185Y-116135000D01*
X157291497Y-115957197D01*
X157238260Y-115793350D01*
X157236252Y-115787170D01*
X157236249Y-115787164D01*
X157174679Y-115680521D01*
X157146859Y-115632335D01*
X157100003Y-115580296D01*
X157027235Y-115499478D01*
X157027232Y-115499476D01*
X157027231Y-115499475D01*
X157027230Y-115499474D01*
X156882593Y-115394388D01*
X156719267Y-115321671D01*
X156719265Y-115321670D01*
X156554609Y-115286672D01*
X156544391Y-115284500D01*
X156365609Y-115284500D01*
X156365605Y-115284500D01*
X156355383Y-115286672D01*
X156285716Y-115281351D01*
X156241929Y-115253061D01*
X156188657Y-115199789D01*
X156188656Y-115199788D01*
X156185342Y-115197743D01*
X156183546Y-115195748D01*
X156182989Y-115195307D01*
X156183064Y-115195211D01*
X156138618Y-115145797D01*
X156127397Y-115076834D01*
X156155240Y-115012752D01*
X156185348Y-114986665D01*
X156188342Y-114984818D01*
X156312315Y-114860845D01*
X156404356Y-114711624D01*
X156404358Y-114711619D01*
X156459505Y-114545197D01*
X156459506Y-114545190D01*
X156469999Y-114442486D01*
X156470000Y-114442473D01*
X156470000Y-114305000D01*
X154045862Y-114305000D01*
X153986264Y-114287500D01*
X151760001Y-114287500D01*
X151760001Y-114424986D01*
X151770494Y-114527697D01*
X151825641Y-114694119D01*
X151825643Y-114694124D01*
X151917684Y-114843345D01*
X152041655Y-114967316D01*
X152041659Y-114967319D01*
X152044656Y-114969168D01*
X152046279Y-114970972D01*
X152047323Y-114971798D01*
X152047181Y-114971976D01*
X152091381Y-115021116D01*
X152102602Y-115090079D01*
X152074759Y-115154161D01*
X152044661Y-115180241D01*
X152041349Y-115182283D01*
X152041343Y-115182288D01*
X151917289Y-115306342D01*
X151899237Y-115335610D01*
X151862983Y-115394388D01*
X151857611Y-115403097D01*
X151805663Y-115449821D01*
X151752072Y-115462000D01*
X150443308Y-115462000D01*
X150376269Y-115442315D01*
X150355627Y-115425681D01*
X147651606Y-112721660D01*
X148729392Y-112721660D01*
X148729392Y-112721661D01*
X148743192Y-112730333D01*
X148743191Y-112730333D01*
X148913361Y-112789878D01*
X149092497Y-112810062D01*
X149092503Y-112810062D01*
X149271638Y-112789878D01*
X149271641Y-112789877D01*
X149441805Y-112730334D01*
X149441806Y-112730334D01*
X149455606Y-112721661D01*
X149455606Y-112721660D01*
X150254392Y-112721660D01*
X150254392Y-112721661D01*
X150268192Y-112730333D01*
X150268191Y-112730333D01*
X150438361Y-112789878D01*
X150617497Y-112810062D01*
X150617503Y-112810062D01*
X150796638Y-112789878D01*
X150796641Y-112789877D01*
X150966805Y-112730334D01*
X150966806Y-112730334D01*
X150980606Y-112721661D01*
X150980606Y-112721660D01*
X150617501Y-112358553D01*
X150617500Y-112358553D01*
X150254392Y-112721660D01*
X149455606Y-112721660D01*
X149092501Y-112358553D01*
X149092500Y-112358553D01*
X148729392Y-112721660D01*
X147651606Y-112721660D01*
X146889106Y-111959160D01*
X147966892Y-111959160D01*
X147966892Y-111959161D01*
X147980692Y-111967833D01*
X147980691Y-111967833D01*
X148150861Y-112027378D01*
X148193482Y-112032180D01*
X148257896Y-112059246D01*
X148297451Y-112116840D01*
X148302819Y-112141515D01*
X148307621Y-112184138D01*
X148367165Y-112354304D01*
X148375838Y-112368107D01*
X148738946Y-112005000D01*
X148709109Y-111975163D01*
X148942500Y-111975163D01*
X148942500Y-112034837D01*
X148965336Y-112089968D01*
X149007532Y-112132164D01*
X149062663Y-112155000D01*
X149122337Y-112155000D01*
X149177468Y-112132164D01*
X149219664Y-112089968D01*
X149242500Y-112034837D01*
X149242500Y-112004999D01*
X149446053Y-112004999D01*
X149446053Y-112005000D01*
X149809160Y-112368106D01*
X149841122Y-112364506D01*
X149868885Y-112364507D01*
X149900838Y-112368107D01*
X150263946Y-112005000D01*
X150234109Y-111975163D01*
X150467500Y-111975163D01*
X150467500Y-112034837D01*
X150490336Y-112089968D01*
X150532532Y-112132164D01*
X150587663Y-112155000D01*
X150647337Y-112155000D01*
X150702468Y-112132164D01*
X150744664Y-112089968D01*
X150767500Y-112034837D01*
X150767500Y-112004999D01*
X150971053Y-112004999D01*
X150971053Y-112005000D01*
X151334160Y-112368106D01*
X151334161Y-112368106D01*
X151342834Y-112354306D01*
X151342834Y-112354305D01*
X151402378Y-112184139D01*
X151407180Y-112141518D01*
X151434246Y-112077103D01*
X151491840Y-112037548D01*
X151516518Y-112032180D01*
X151559139Y-112027378D01*
X151729305Y-111967834D01*
X151729306Y-111967834D01*
X151743106Y-111959161D01*
X151743106Y-111959160D01*
X151380000Y-111596053D01*
X151343768Y-111632286D01*
X151343766Y-111632288D01*
X150971053Y-112004999D01*
X150767500Y-112004999D01*
X150767500Y-111975163D01*
X150744664Y-111920032D01*
X150702468Y-111877836D01*
X150647337Y-111855000D01*
X150587663Y-111855000D01*
X150532532Y-111877836D01*
X150490336Y-111920032D01*
X150467500Y-111975163D01*
X150234109Y-111975163D01*
X149891233Y-111632287D01*
X149855000Y-111596053D01*
X149818767Y-111632287D01*
X149818766Y-111632288D01*
X149446053Y-112004999D01*
X149242500Y-112004999D01*
X149242500Y-111975163D01*
X149219664Y-111920032D01*
X149177468Y-111877836D01*
X149122337Y-111855000D01*
X149062663Y-111855000D01*
X149007532Y-111877836D01*
X148965336Y-111920032D01*
X148942500Y-111975163D01*
X148709109Y-111975163D01*
X148329999Y-111596053D01*
X148329998Y-111596053D01*
X147966892Y-111959160D01*
X146889106Y-111959160D01*
X146501819Y-111571873D01*
X146468334Y-111510550D01*
X146465500Y-111484192D01*
X146465500Y-111242497D01*
X147524938Y-111242497D01*
X147524938Y-111242502D01*
X147545121Y-111421638D01*
X147604665Y-111591804D01*
X147613338Y-111605607D01*
X147976446Y-111242500D01*
X147976446Y-111242499D01*
X147946610Y-111212663D01*
X148180000Y-111212663D01*
X148180000Y-111272337D01*
X148202836Y-111327468D01*
X148245032Y-111369664D01*
X148300163Y-111392500D01*
X148359837Y-111392500D01*
X148414968Y-111369664D01*
X148457164Y-111327468D01*
X148480000Y-111272337D01*
X148480000Y-111242500D01*
X148683553Y-111242500D01*
X148718718Y-111277664D01*
X149092500Y-111651446D01*
X149501446Y-111242500D01*
X149471609Y-111212663D01*
X149705000Y-111212663D01*
X149705000Y-111272337D01*
X149727836Y-111327468D01*
X149770032Y-111369664D01*
X149825163Y-111392500D01*
X149884837Y-111392500D01*
X149939968Y-111369664D01*
X149982164Y-111327468D01*
X150005000Y-111272337D01*
X150005000Y-111242500D01*
X150208553Y-111242500D01*
X150243718Y-111277664D01*
X150617500Y-111651446D01*
X151026446Y-111242500D01*
X150996609Y-111212663D01*
X151230000Y-111212663D01*
X151230000Y-111272337D01*
X151252836Y-111327468D01*
X151295032Y-111369664D01*
X151350163Y-111392500D01*
X151409837Y-111392500D01*
X151464968Y-111369664D01*
X151507164Y-111327468D01*
X151530000Y-111272337D01*
X151530000Y-111242500D01*
X151733553Y-111242500D01*
X152108712Y-111617658D01*
X152130938Y-111621551D01*
X152182318Y-111668900D01*
X152200000Y-111732717D01*
X152200000Y-111815000D01*
X153037500Y-111815000D01*
X153037500Y-110840000D01*
X152900027Y-110840000D01*
X152900012Y-110840001D01*
X152797302Y-110850494D01*
X152630880Y-110905641D01*
X152630875Y-110905643D01*
X152481657Y-110997682D01*
X152369510Y-111109829D01*
X152308187Y-111143313D01*
X152238495Y-111138329D01*
X152182562Y-111096457D01*
X152164787Y-111063101D01*
X152105334Y-110893194D01*
X152105333Y-110893192D01*
X152096661Y-110879392D01*
X152096660Y-110879392D01*
X151733553Y-111242500D01*
X151530000Y-111242500D01*
X151530000Y-111212663D01*
X151507164Y-111157532D01*
X151464968Y-111115336D01*
X151409837Y-111092500D01*
X151350163Y-111092500D01*
X151295032Y-111115336D01*
X151252836Y-111157532D01*
X151230000Y-111212663D01*
X150996609Y-111212663D01*
X150658343Y-110874397D01*
X150617500Y-110833553D01*
X150576657Y-110874397D01*
X150576656Y-110874398D01*
X150208553Y-111242500D01*
X150005000Y-111242500D01*
X150005000Y-111212663D01*
X149982164Y-111157532D01*
X149939968Y-111115336D01*
X149884837Y-111092500D01*
X149825163Y-111092500D01*
X149770032Y-111115336D01*
X149727836Y-111157532D01*
X149705000Y-111212663D01*
X149471609Y-111212663D01*
X149133343Y-110874397D01*
X149092500Y-110833553D01*
X149051657Y-110874397D01*
X149051656Y-110874398D01*
X148683553Y-111242500D01*
X148480000Y-111242500D01*
X148480000Y-111212663D01*
X148457164Y-111157532D01*
X148414968Y-111115336D01*
X148359837Y-111092500D01*
X148300163Y-111092500D01*
X148245032Y-111115336D01*
X148202836Y-111157532D01*
X148180000Y-111212663D01*
X147946610Y-111212663D01*
X147613338Y-110879391D01*
X147613337Y-110879391D01*
X147604667Y-110893191D01*
X147604662Y-110893201D01*
X147545122Y-111063358D01*
X147545121Y-111063361D01*
X147524938Y-111242497D01*
X146465500Y-111242497D01*
X146465500Y-110525838D01*
X147966891Y-110525838D01*
X148329998Y-110888946D01*
X148329999Y-110888946D01*
X148705892Y-110513054D01*
X148738946Y-110480000D01*
X148709109Y-110450163D01*
X148942500Y-110450163D01*
X148942500Y-110509837D01*
X148965336Y-110564968D01*
X149007532Y-110607164D01*
X149062663Y-110630000D01*
X149122337Y-110630000D01*
X149177468Y-110607164D01*
X149219664Y-110564968D01*
X149242500Y-110509837D01*
X149242500Y-110480000D01*
X149446053Y-110480000D01*
X149479108Y-110513054D01*
X149855000Y-110888946D01*
X150263946Y-110480000D01*
X150234109Y-110450163D01*
X150467500Y-110450163D01*
X150467500Y-110509837D01*
X150490336Y-110564968D01*
X150532532Y-110607164D01*
X150587663Y-110630000D01*
X150647337Y-110630000D01*
X150702468Y-110607164D01*
X150744664Y-110564968D01*
X150767500Y-110509837D01*
X150767500Y-110480000D01*
X150971053Y-110480000D01*
X151004108Y-110513054D01*
X151380000Y-110888946D01*
X151380001Y-110888946D01*
X151743107Y-110525838D01*
X151739507Y-110493885D01*
X151739506Y-110466122D01*
X151743106Y-110434160D01*
X151380000Y-110071053D01*
X151337865Y-110113190D01*
X151337863Y-110113191D01*
X150971053Y-110480000D01*
X150767500Y-110480000D01*
X150767500Y-110450163D01*
X150744664Y-110395032D01*
X150702468Y-110352836D01*
X150647337Y-110330000D01*
X150587663Y-110330000D01*
X150532532Y-110352836D01*
X150490336Y-110395032D01*
X150467500Y-110450163D01*
X150234109Y-110450163D01*
X149897136Y-110113190D01*
X149855000Y-110071053D01*
X149812864Y-110113190D01*
X149812863Y-110113191D01*
X149446053Y-110480000D01*
X149242500Y-110480000D01*
X149242500Y-110450163D01*
X149219664Y-110395032D01*
X149177468Y-110352836D01*
X149122337Y-110330000D01*
X149062663Y-110330000D01*
X149007532Y-110352836D01*
X148965336Y-110395032D01*
X148942500Y-110450163D01*
X148709109Y-110450163D01*
X148329999Y-110071053D01*
X148329998Y-110071053D01*
X147966892Y-110434160D01*
X147970493Y-110466119D01*
X147970492Y-110493884D01*
X147966891Y-110525838D01*
X146465500Y-110525838D01*
X146465500Y-109717497D01*
X147524938Y-109717497D01*
X147524938Y-109717502D01*
X147545121Y-109896638D01*
X147604665Y-110066804D01*
X147613338Y-110080607D01*
X147976446Y-109717500D01*
X147976446Y-109717499D01*
X147946610Y-109687663D01*
X148180000Y-109687663D01*
X148180000Y-109747337D01*
X148202836Y-109802468D01*
X148245032Y-109844664D01*
X148300163Y-109867500D01*
X148359837Y-109867500D01*
X148414968Y-109844664D01*
X148457164Y-109802468D01*
X148480000Y-109747337D01*
X148480000Y-109717499D01*
X148683553Y-109717499D01*
X148726062Y-109760007D01*
X148726063Y-109760009D01*
X149092500Y-110126446D01*
X149501446Y-109717500D01*
X149471609Y-109687663D01*
X149705000Y-109687663D01*
X149705000Y-109747337D01*
X149727836Y-109802468D01*
X149770032Y-109844664D01*
X149825163Y-109867500D01*
X149884837Y-109867500D01*
X149939968Y-109844664D01*
X149982164Y-109802468D01*
X150005000Y-109747337D01*
X150005000Y-109717499D01*
X150208553Y-109717499D01*
X150251062Y-109760007D01*
X150251063Y-109760009D01*
X150617500Y-110126446D01*
X151026446Y-109717500D01*
X150996609Y-109687663D01*
X151230000Y-109687663D01*
X151230000Y-109747337D01*
X151252836Y-109802468D01*
X151295032Y-109844664D01*
X151350163Y-109867500D01*
X151409837Y-109867500D01*
X151464968Y-109844664D01*
X151507164Y-109802468D01*
X151530000Y-109747337D01*
X151530000Y-109717500D01*
X151733553Y-109717500D01*
X152096660Y-110080606D01*
X152096661Y-110080606D01*
X152105334Y-110066806D01*
X152105334Y-110066805D01*
X152164877Y-109896641D01*
X152164878Y-109896638D01*
X152185062Y-109717502D01*
X152185062Y-109717497D01*
X152164878Y-109538361D01*
X152105333Y-109368192D01*
X152096661Y-109354392D01*
X152096660Y-109354392D01*
X151733553Y-109717500D01*
X151530000Y-109717500D01*
X151530000Y-109687663D01*
X151507164Y-109632532D01*
X151464968Y-109590336D01*
X151409837Y-109567500D01*
X151350163Y-109567500D01*
X151295032Y-109590336D01*
X151252836Y-109632532D01*
X151230000Y-109687663D01*
X150996609Y-109687663D01*
X150661085Y-109352139D01*
X150617500Y-109308553D01*
X150573915Y-109352139D01*
X150573914Y-109352140D01*
X150208553Y-109717499D01*
X150005000Y-109717499D01*
X150005000Y-109687663D01*
X149982164Y-109632532D01*
X149939968Y-109590336D01*
X149884837Y-109567500D01*
X149825163Y-109567500D01*
X149770032Y-109590336D01*
X149727836Y-109632532D01*
X149705000Y-109687663D01*
X149471609Y-109687663D01*
X149136085Y-109352139D01*
X149092500Y-109308553D01*
X149048915Y-109352139D01*
X149048914Y-109352140D01*
X148683553Y-109717499D01*
X148480000Y-109717499D01*
X148480000Y-109687663D01*
X148457164Y-109632532D01*
X148414968Y-109590336D01*
X148359837Y-109567500D01*
X148300163Y-109567500D01*
X148245032Y-109590336D01*
X148202836Y-109632532D01*
X148180000Y-109687663D01*
X147946610Y-109687663D01*
X147613338Y-109354391D01*
X147613337Y-109354391D01*
X147604667Y-109368191D01*
X147604662Y-109368201D01*
X147545122Y-109538358D01*
X147545121Y-109538361D01*
X147524938Y-109717497D01*
X146465500Y-109717497D01*
X146465500Y-109065808D01*
X146484578Y-109000837D01*
X147966891Y-109000837D01*
X147966891Y-109000838D01*
X148329998Y-109363946D01*
X148329999Y-109363946D01*
X148701783Y-108992164D01*
X148738946Y-108954999D01*
X148738946Y-108954998D01*
X148709111Y-108925163D01*
X148942500Y-108925163D01*
X148942500Y-108984837D01*
X148965336Y-109039968D01*
X149007532Y-109082164D01*
X149062663Y-109105000D01*
X149122337Y-109105000D01*
X149177468Y-109082164D01*
X149219664Y-109039968D01*
X149242500Y-108984837D01*
X149242500Y-108954998D01*
X149446053Y-108954998D01*
X149446053Y-108954999D01*
X149855000Y-109363946D01*
X150226783Y-108992164D01*
X150263946Y-108954999D01*
X150263946Y-108954998D01*
X150234111Y-108925163D01*
X150467500Y-108925163D01*
X150467500Y-108984837D01*
X150490336Y-109039968D01*
X150532532Y-109082164D01*
X150587663Y-109105000D01*
X150647337Y-109105000D01*
X150702468Y-109082164D01*
X150744664Y-109039968D01*
X150767500Y-108984837D01*
X150767500Y-108954998D01*
X150971053Y-108954998D01*
X150971053Y-108954999D01*
X151380000Y-109363946D01*
X151380001Y-109363946D01*
X151743107Y-109000838D01*
X151729304Y-108992165D01*
X151559138Y-108932621D01*
X151516515Y-108927819D01*
X151452102Y-108900752D01*
X151412547Y-108843157D01*
X151407180Y-108818482D01*
X151402378Y-108775861D01*
X151342833Y-108605692D01*
X151334161Y-108591892D01*
X151334160Y-108591892D01*
X150971053Y-108954998D01*
X150767500Y-108954998D01*
X150767500Y-108925163D01*
X150744664Y-108870032D01*
X150702468Y-108827836D01*
X150647337Y-108805000D01*
X150587663Y-108805000D01*
X150532532Y-108827836D01*
X150490336Y-108870032D01*
X150467500Y-108925163D01*
X150234111Y-108925163D01*
X149900837Y-108591890D01*
X149868885Y-108595491D01*
X149841122Y-108595492D01*
X149809160Y-108591891D01*
X149446053Y-108954998D01*
X149242500Y-108954998D01*
X149242500Y-108925163D01*
X149219664Y-108870032D01*
X149177468Y-108827836D01*
X149122337Y-108805000D01*
X149062663Y-108805000D01*
X149007532Y-108827836D01*
X148965336Y-108870032D01*
X148942500Y-108925163D01*
X148709111Y-108925163D01*
X148375838Y-108591891D01*
X148375837Y-108591891D01*
X148367167Y-108605691D01*
X148367162Y-108605701D01*
X148307622Y-108775858D01*
X148302819Y-108818484D01*
X148275752Y-108882898D01*
X148218156Y-108922452D01*
X148193484Y-108927819D01*
X148150858Y-108932622D01*
X147980701Y-108992162D01*
X147980694Y-108992166D01*
X147966891Y-109000837D01*
X146484578Y-109000837D01*
X146485185Y-108998769D01*
X146501819Y-108978127D01*
X147241609Y-108238337D01*
X148729391Y-108238337D01*
X148729391Y-108238338D01*
X149092500Y-108601446D01*
X149092501Y-108601446D01*
X149455607Y-108238338D01*
X149455605Y-108238337D01*
X150254391Y-108238337D01*
X150254391Y-108238338D01*
X150617500Y-108601446D01*
X150617501Y-108601446D01*
X150980607Y-108238338D01*
X150966804Y-108229665D01*
X150796638Y-108170121D01*
X150617503Y-108149938D01*
X150617497Y-108149938D01*
X150438361Y-108170121D01*
X150438358Y-108170122D01*
X150268201Y-108229662D01*
X150268191Y-108229667D01*
X150254391Y-108238337D01*
X149455605Y-108238337D01*
X149441804Y-108229665D01*
X149271638Y-108170121D01*
X149092503Y-108149938D01*
X149092497Y-108149938D01*
X148913361Y-108170121D01*
X148913358Y-108170122D01*
X148743201Y-108229662D01*
X148743191Y-108229667D01*
X148729391Y-108238337D01*
X147241609Y-108238337D01*
X151110273Y-104369673D01*
X151110277Y-104369669D01*
X151181465Y-104263127D01*
X151212508Y-104188182D01*
X151230501Y-104144744D01*
X151239359Y-104100214D01*
X151255500Y-104019071D01*
X151255500Y-103188732D01*
X151275185Y-103121693D01*
X151327989Y-103075938D01*
X151340495Y-103071026D01*
X151374334Y-103059814D01*
X151523656Y-102967712D01*
X151523659Y-102967708D01*
X151528897Y-102964478D01*
X151596289Y-102946038D01*
X151662953Y-102966960D01*
X151681675Y-102982336D01*
X151731654Y-103032315D01*
X151880875Y-103124356D01*
X151880880Y-103124358D01*
X152047302Y-103179505D01*
X152047309Y-103179506D01*
X152150019Y-103189999D01*
X152424999Y-103189999D01*
X152925000Y-103189999D01*
X153199972Y-103189999D01*
X153199986Y-103189998D01*
X153302697Y-103179505D01*
X153469119Y-103124358D01*
X153469124Y-103124356D01*
X153618345Y-103032315D01*
X153742315Y-102908345D01*
X153834356Y-102759124D01*
X153834358Y-102759119D01*
X153889505Y-102592697D01*
X153889506Y-102592690D01*
X153899999Y-102489986D01*
X153900000Y-102489973D01*
X153900000Y-102352500D01*
X152925000Y-102352500D01*
X152925000Y-103189999D01*
X152424999Y-103189999D01*
X152425000Y-103189998D01*
X152425000Y-101976500D01*
X152444685Y-101909461D01*
X152497489Y-101863706D01*
X152549000Y-101852500D01*
X153899999Y-101852500D01*
X153899999Y-101715028D01*
X153899998Y-101715013D01*
X153889505Y-101612302D01*
X153834358Y-101445880D01*
X153834356Y-101445875D01*
X153742315Y-101296654D01*
X153618344Y-101172683D01*
X153618341Y-101172681D01*
X153615339Y-101170829D01*
X153613713Y-101169021D01*
X153612677Y-101168202D01*
X153612817Y-101168024D01*
X153568617Y-101118880D01*
X153557397Y-101049917D01*
X153585243Y-100985836D01*
X153615344Y-100959754D01*
X153618656Y-100957712D01*
X153742712Y-100833656D01*
X153802389Y-100736902D01*
X153854337Y-100690179D01*
X153907928Y-100678000D01*
X154286692Y-100678000D01*
X154353731Y-100697685D01*
X154374373Y-100714319D01*
X154675681Y-101015627D01*
X154709166Y-101076950D01*
X154712000Y-101103308D01*
X154712000Y-110832072D01*
X154692315Y-110899111D01*
X154653098Y-110937609D01*
X154628466Y-110952803D01*
X154556342Y-110997289D01*
X154432288Y-111121343D01*
X154432283Y-111121349D01*
X154430241Y-111124661D01*
X154428247Y-111126453D01*
X154427807Y-111127011D01*
X154427711Y-111126935D01*
X154378291Y-111171383D01*
X154309328Y-111182602D01*
X154245247Y-111154755D01*
X154219168Y-111124656D01*
X154217319Y-111121659D01*
X154217316Y-111121655D01*
X154093345Y-110997684D01*
X153944124Y-110905643D01*
X153944119Y-110905641D01*
X153777697Y-110850494D01*
X153777690Y-110850493D01*
X153674986Y-110840000D01*
X153537500Y-110840000D01*
X153537500Y-112191000D01*
X153517815Y-112258039D01*
X153465011Y-112303794D01*
X153413500Y-112315000D01*
X152200001Y-112315000D01*
X152200001Y-112589986D01*
X152210494Y-112692697D01*
X152265975Y-112860126D01*
X152268377Y-112929954D01*
X152232645Y-112989996D01*
X152196780Y-113011218D01*
X152197421Y-113012592D01*
X152190875Y-113015643D01*
X152041654Y-113107684D01*
X151917684Y-113231654D01*
X151825643Y-113380875D01*
X151825641Y-113380880D01*
X151770494Y-113547302D01*
X151770493Y-113547309D01*
X151760000Y-113650013D01*
X151760000Y-113787500D01*
X154184138Y-113787500D01*
X154243736Y-113805000D01*
X156073690Y-113805000D01*
X156140729Y-113824685D01*
X156146571Y-113828678D01*
X156197405Y-113865612D01*
X156360731Y-113938329D01*
X156535607Y-113975500D01*
X156535608Y-113975500D01*
X156714387Y-113975500D01*
X156714389Y-113975500D01*
X156889265Y-113938329D01*
X157052591Y-113865612D01*
X157197228Y-113760526D01*
X157208545Y-113747958D01*
X157247224Y-113705000D01*
X157316857Y-113627665D01*
X157406248Y-113472835D01*
X157461495Y-113302803D01*
X157480183Y-113125000D01*
X157461495Y-112947197D01*
X157410379Y-112789878D01*
X157406250Y-112777170D01*
X157406247Y-112777164D01*
X157392784Y-112753845D01*
X157316857Y-112622335D01*
X157304816Y-112608962D01*
X157275350Y-112550183D01*
X157250500Y-112425259D01*
X157250499Y-112425258D01*
X157250499Y-112425254D01*
X157226317Y-112366873D01*
X157201464Y-112306872D01*
X157199407Y-112303794D01*
X157130276Y-112200330D01*
X157130270Y-112200323D01*
X156489670Y-111559724D01*
X156488610Y-111558854D01*
X156488204Y-111558258D01*
X156485361Y-111555415D01*
X156485900Y-111554875D01*
X156449278Y-111501106D01*
X156443921Y-111475603D01*
X156443808Y-111474501D01*
X156439999Y-111437203D01*
X156384814Y-111270666D01*
X156292712Y-111121344D01*
X156168656Y-110997288D01*
X156071902Y-110937610D01*
X156025179Y-110885663D01*
X156013000Y-110832072D01*
X156013000Y-100718428D01*
X155988002Y-100592761D01*
X155988001Y-100592760D01*
X155988001Y-100592756D01*
X155938965Y-100474373D01*
X155911189Y-100432803D01*
X155898959Y-100414500D01*
X155867774Y-100367827D01*
X155022173Y-99522226D01*
X155010444Y-99514389D01*
X154915627Y-99451035D01*
X154909579Y-99448530D01*
X154797244Y-99401999D01*
X154797238Y-99401997D01*
X154671571Y-99377000D01*
X154671569Y-99377000D01*
X153907928Y-99377000D01*
X153840889Y-99357315D01*
X153802389Y-99318097D01*
X153780621Y-99282805D01*
X153742712Y-99221344D01*
X153618656Y-99097288D01*
X153471474Y-99006506D01*
X153469336Y-99005187D01*
X153469331Y-99005185D01*
X153433410Y-98993282D01*
X153302797Y-98950001D01*
X153302795Y-98950000D01*
X153200010Y-98939500D01*
X152149998Y-98939500D01*
X152149980Y-98939501D01*
X152047203Y-98950000D01*
X152047200Y-98950001D01*
X151880668Y-99005185D01*
X151880663Y-99005187D01*
X151731342Y-99097289D01*
X151722681Y-99105951D01*
X151661358Y-99139436D01*
X151591666Y-99134452D01*
X151547319Y-99105951D01*
X151523655Y-99082287D01*
X151478965Y-99054722D01*
X151432241Y-99002774D01*
X151421020Y-98933811D01*
X151426129Y-98910874D01*
X151451497Y-98832803D01*
X151468972Y-98666537D01*
X151495557Y-98601924D01*
X151552854Y-98561939D01*
X151592293Y-98555500D01*
X157404192Y-98555500D01*
X157471231Y-98575185D01*
G37*
%TD.AperFunction*%
%TA.AperFunction,Conductor*%
G36*
X125542986Y-111031402D02*
G01*
X125574143Y-111054089D01*
X126320325Y-111800272D01*
X126320326Y-111800273D01*
X126320329Y-111800275D01*
X126320331Y-111800277D01*
X126423287Y-111869069D01*
X126426873Y-111871465D01*
X126545256Y-111920501D01*
X126545260Y-111920501D01*
X126545261Y-111920502D01*
X126670928Y-111945500D01*
X126670931Y-111945500D01*
X127310931Y-111945500D01*
X127814192Y-111945500D01*
X127881231Y-111965185D01*
X127901873Y-111981819D01*
X128238010Y-112317956D01*
X128271495Y-112379279D01*
X128266511Y-112448971D01*
X128224639Y-112504904D01*
X128159175Y-112529321D01*
X128099438Y-112518713D01*
X128004175Y-112475839D01*
X128004164Y-112475835D01*
X127692341Y-112378667D01*
X127371038Y-112319786D01*
X127045000Y-112300065D01*
X126718961Y-112319786D01*
X126397658Y-112378667D01*
X126085835Y-112475835D01*
X126085824Y-112475839D01*
X125864891Y-112575272D01*
X125795678Y-112584835D01*
X125732283Y-112555461D01*
X125694833Y-112496476D01*
X125690000Y-112462196D01*
X125690000Y-112440000D01*
X124715000Y-112440000D01*
X124715000Y-113277499D01*
X124715232Y-113277731D01*
X124781480Y-113297184D01*
X124827235Y-113349988D01*
X124837179Y-113419146D01*
X124820558Y-113465649D01*
X124649898Y-113747956D01*
X124649897Y-113747958D01*
X124515839Y-114045824D01*
X124515835Y-114045835D01*
X124418667Y-114357658D01*
X124359786Y-114678961D01*
X124340065Y-115005000D01*
X124359786Y-115331038D01*
X124418667Y-115652341D01*
X124515835Y-115964164D01*
X124515839Y-115964175D01*
X124649897Y-116262041D01*
X124649898Y-116262043D01*
X124818887Y-116541586D01*
X125020329Y-116798707D01*
X125025130Y-116803508D01*
X125058615Y-116864831D01*
X125053631Y-116934523D01*
X125011759Y-116990456D01*
X124946295Y-117014873D01*
X124924495Y-117014510D01*
X124924400Y-117014500D01*
X124924391Y-117014500D01*
X124745609Y-117014500D01*
X124714954Y-117021015D01*
X124570733Y-117051670D01*
X124570728Y-117051672D01*
X124407408Y-117124387D01*
X124262768Y-117229475D01*
X124143140Y-117362336D01*
X124053750Y-117517164D01*
X124053747Y-117517171D01*
X124007411Y-117659780D01*
X123967973Y-117717456D01*
X123903615Y-117744654D01*
X123834768Y-117732739D01*
X123783293Y-117685495D01*
X123765640Y-117627768D01*
X123765498Y-117624980D01*
X123754999Y-117522203D01*
X123754998Y-117522200D01*
X123744154Y-117489474D01*
X123699814Y-117355666D01*
X123607712Y-117206344D01*
X123483656Y-117082288D01*
X123374402Y-117014900D01*
X123327679Y-116962953D01*
X123315500Y-116909362D01*
X123315500Y-116860928D01*
X123290502Y-116735261D01*
X123290501Y-116735260D01*
X123290501Y-116735256D01*
X123241840Y-116617778D01*
X123241466Y-116616875D01*
X123241461Y-116616866D01*
X123170277Y-116510332D01*
X123142774Y-116482829D01*
X123079669Y-116419724D01*
X121882748Y-115222803D01*
X120681819Y-114021873D01*
X120648334Y-113960550D01*
X120645500Y-113934192D01*
X120645500Y-112577486D01*
X121080001Y-112577486D01*
X121090494Y-112680197D01*
X121145641Y-112846619D01*
X121145643Y-112846624D01*
X121237684Y-112995845D01*
X121361654Y-113119815D01*
X121510875Y-113211856D01*
X121510880Y-113211858D01*
X121677302Y-113267005D01*
X121677309Y-113267006D01*
X121780019Y-113277499D01*
X122054999Y-113277499D01*
X122555000Y-113277499D01*
X122829972Y-113277499D01*
X122829986Y-113277498D01*
X122932697Y-113267005D01*
X123099119Y-113211858D01*
X123099124Y-113211856D01*
X123248345Y-113119815D01*
X123297319Y-113070842D01*
X123358642Y-113037357D01*
X123428334Y-113042341D01*
X123472681Y-113070842D01*
X123521654Y-113119815D01*
X123670875Y-113211856D01*
X123670880Y-113211858D01*
X123837302Y-113267005D01*
X123837309Y-113267006D01*
X123940019Y-113277499D01*
X124214999Y-113277499D01*
X124215000Y-113277498D01*
X124215000Y-112440000D01*
X122555000Y-112440000D01*
X122555000Y-113277499D01*
X122054999Y-113277499D01*
X122055000Y-113277498D01*
X122055000Y-112440000D01*
X121080001Y-112440000D01*
X121080001Y-112577486D01*
X120645500Y-112577486D01*
X120645500Y-112080719D01*
X120665185Y-112013680D01*
X120681815Y-111993042D01*
X120868320Y-111806537D01*
X120929642Y-111773053D01*
X120999334Y-111778037D01*
X121055267Y-111819909D01*
X121079684Y-111885373D01*
X121080000Y-111894219D01*
X121080000Y-111940000D01*
X125689999Y-111940000D01*
X125689999Y-111802528D01*
X125689998Y-111802513D01*
X125679505Y-111699802D01*
X125624358Y-111533380D01*
X125624356Y-111533375D01*
X125532315Y-111384154D01*
X125408344Y-111260183D01*
X125408341Y-111260181D01*
X125405339Y-111258329D01*
X125403713Y-111256521D01*
X125402677Y-111255702D01*
X125402817Y-111255524D01*
X125358617Y-111206380D01*
X125347397Y-111137417D01*
X125375243Y-111073336D01*
X125405344Y-111047254D01*
X125408656Y-111045212D01*
X125408660Y-111045207D01*
X125408663Y-111045206D01*
X125409549Y-111044506D01*
X125410271Y-111044214D01*
X125414811Y-111041415D01*
X125415289Y-111042190D01*
X125474344Y-111018364D01*
X125542986Y-111031402D01*
G37*
%TD.AperFunction*%
%TA.AperFunction,Conductor*%
G36*
X131735539Y-106124685D02*
G01*
X131781294Y-106177489D01*
X131792500Y-106229000D01*
X131792500Y-108275000D01*
X132629999Y-108275000D01*
X132635946Y-108269052D01*
X132649684Y-108222268D01*
X132702488Y-108176513D01*
X132771646Y-108166569D01*
X132835202Y-108195594D01*
X132841680Y-108201626D01*
X134412873Y-109772819D01*
X134446358Y-109834142D01*
X134441374Y-109903834D01*
X134399502Y-109959767D01*
X134334038Y-109984184D01*
X134325192Y-109984500D01*
X133596899Y-109984500D01*
X133546464Y-109973780D01*
X133519267Y-109961671D01*
X133519265Y-109961670D01*
X133370379Y-109930024D01*
X133344391Y-109924500D01*
X133165609Y-109924500D01*
X133139625Y-109930023D01*
X132990733Y-109961670D01*
X132990728Y-109961672D01*
X132827408Y-110034387D01*
X132682768Y-110139475D01*
X132563140Y-110272336D01*
X132473750Y-110427164D01*
X132473747Y-110427170D01*
X132418504Y-110597192D01*
X132418503Y-110597194D01*
X132399815Y-110775000D01*
X132418503Y-110952805D01*
X132418504Y-110952807D01*
X132473747Y-111122829D01*
X132473750Y-111122835D01*
X132563141Y-111277665D01*
X132604812Y-111323946D01*
X132682764Y-111410521D01*
X132682767Y-111410523D01*
X132682770Y-111410526D01*
X132827407Y-111515612D01*
X132990733Y-111588329D01*
X133165609Y-111625500D01*
X133165610Y-111625500D01*
X133344389Y-111625500D01*
X133344391Y-111625500D01*
X133519267Y-111588329D01*
X133682593Y-111515612D01*
X133827230Y-111410526D01*
X133902862Y-111326527D01*
X133962349Y-111289879D01*
X133995012Y-111285500D01*
X135076491Y-111285500D01*
X135143530Y-111305185D01*
X135189285Y-111357989D01*
X135199811Y-111422460D01*
X135195341Y-111465000D01*
X135194815Y-111470000D01*
X135208968Y-111604660D01*
X135196398Y-111673390D01*
X135173329Y-111705301D01*
X135122292Y-111756338D01*
X135030187Y-111905663D01*
X135030185Y-111905668D01*
X135008778Y-111970272D01*
X134975001Y-112072203D01*
X134975001Y-112072204D01*
X134975000Y-112072204D01*
X134964500Y-112174983D01*
X134964500Y-113175001D01*
X134964501Y-113175019D01*
X134975000Y-113277796D01*
X134975001Y-113277799D01*
X135030185Y-113444331D01*
X135030187Y-113444336D01*
X135122289Y-113593657D01*
X135145951Y-113617319D01*
X135179436Y-113678642D01*
X135174452Y-113748334D01*
X135145951Y-113792681D01*
X135122289Y-113816342D01*
X135042221Y-113946154D01*
X134990273Y-113992878D01*
X134921310Y-114004101D01*
X134886250Y-113994337D01*
X134734267Y-113926671D01*
X134734265Y-113926670D01*
X134606594Y-113899533D01*
X134559391Y-113889500D01*
X134380609Y-113889500D01*
X134349954Y-113896015D01*
X134205733Y-113926670D01*
X134205728Y-113926672D01*
X134042408Y-113999387D01*
X133897768Y-114104475D01*
X133778140Y-114237336D01*
X133688750Y-114392164D01*
X133688747Y-114392170D01*
X133633504Y-114562192D01*
X133633503Y-114562194D01*
X133614815Y-114740000D01*
X133633503Y-114917805D01*
X133633504Y-114917807D01*
X133688747Y-115087829D01*
X133688750Y-115087835D01*
X133778141Y-115242665D01*
X133812974Y-115281351D01*
X133897764Y-115375521D01*
X133897767Y-115375523D01*
X133897770Y-115375526D01*
X134042407Y-115480612D01*
X134205733Y-115553329D01*
X134380609Y-115590500D01*
X134380610Y-115590500D01*
X134559389Y-115590500D01*
X134559391Y-115590500D01*
X134734267Y-115553329D01*
X134891089Y-115483507D01*
X134960335Y-115474224D01*
X135023612Y-115503852D01*
X135047059Y-115531690D01*
X135122288Y-115653656D01*
X135246344Y-115777712D01*
X135395666Y-115869814D01*
X135562203Y-115924999D01*
X135664991Y-115935500D01*
X136465008Y-115935499D01*
X136465016Y-115935498D01*
X136465019Y-115935498D01*
X136521302Y-115929748D01*
X136567797Y-115924999D01*
X136734334Y-115869814D01*
X136883656Y-115777712D01*
X136977319Y-115684049D01*
X137038642Y-115650564D01*
X137108334Y-115655548D01*
X137152681Y-115684049D01*
X137246344Y-115777712D01*
X137395666Y-115869814D01*
X137562203Y-115924999D01*
X137664991Y-115935500D01*
X138465008Y-115935499D01*
X138465016Y-115935498D01*
X138465019Y-115935498D01*
X138521302Y-115929748D01*
X138567797Y-115924999D01*
X138734334Y-115869814D01*
X138883656Y-115777712D01*
X139007712Y-115653656D01*
X139064961Y-115560839D01*
X139116909Y-115514115D01*
X139185871Y-115502892D01*
X139249954Y-115530736D01*
X139288810Y-115588804D01*
X139294500Y-115625936D01*
X139294500Y-115914192D01*
X139274815Y-115981231D01*
X139258181Y-116001873D01*
X139031873Y-116228181D01*
X138970550Y-116261666D01*
X138944192Y-116264500D01*
X129980929Y-116264500D01*
X129855261Y-116289497D01*
X129855255Y-116289499D01*
X129736874Y-116338534D01*
X129736873Y-116338535D01*
X129630331Y-116409723D01*
X129630328Y-116409725D01*
X129625266Y-116413108D01*
X129624271Y-116411619D01*
X129567714Y-116435620D01*
X129498850Y-116423809D01*
X129447304Y-116376642D01*
X129429440Y-116309094D01*
X129440319Y-116261559D01*
X129574160Y-115964175D01*
X129574164Y-115964164D01*
X129671332Y-115652341D01*
X129730213Y-115331038D01*
X129749934Y-115005000D01*
X129730213Y-114678961D01*
X129671332Y-114357658D01*
X129574164Y-114045835D01*
X129574160Y-114045824D01*
X129531286Y-113950561D01*
X129521723Y-113881349D01*
X129551097Y-113817954D01*
X129610081Y-113780503D01*
X129679950Y-113780887D01*
X129732043Y-113811989D01*
X131006371Y-115086317D01*
X131039856Y-115147640D01*
X131042010Y-115161031D01*
X131048503Y-115222803D01*
X131048504Y-115222805D01*
X131048504Y-115222807D01*
X131103747Y-115392829D01*
X131103750Y-115392835D01*
X131193141Y-115547665D01*
X131205004Y-115560840D01*
X131312764Y-115680521D01*
X131312767Y-115680523D01*
X131312770Y-115680526D01*
X131457407Y-115785612D01*
X131620733Y-115858329D01*
X131795609Y-115895500D01*
X131795610Y-115895500D01*
X131974389Y-115895500D01*
X131974391Y-115895500D01*
X132149267Y-115858329D01*
X132312593Y-115785612D01*
X132457230Y-115680526D01*
X132576859Y-115547665D01*
X132666250Y-115392835D01*
X132721497Y-115222803D01*
X132740185Y-115045000D01*
X132721497Y-114867197D01*
X132670948Y-114711624D01*
X132666252Y-114697170D01*
X132666249Y-114697164D01*
X132664491Y-114694119D01*
X132576859Y-114542335D01*
X132518163Y-114477147D01*
X132457235Y-114409478D01*
X132457232Y-114409476D01*
X132457231Y-114409475D01*
X132457230Y-114409474D01*
X132312593Y-114304388D01*
X132149267Y-114231671D01*
X132149265Y-114231670D01*
X132012423Y-114202584D01*
X131984989Y-114196752D01*
X131923508Y-114163561D01*
X131923090Y-114163144D01*
X129552627Y-111792681D01*
X129519142Y-111731358D01*
X129524126Y-111661666D01*
X129552627Y-111617319D01*
X129972771Y-111197175D01*
X129972776Y-111197170D01*
X130020027Y-111126453D01*
X130043964Y-111090629D01*
X130055260Y-111063358D01*
X130093001Y-110972244D01*
X130099890Y-110937611D01*
X130101261Y-110930720D01*
X130101261Y-110930717D01*
X130118000Y-110846569D01*
X130118000Y-110022002D01*
X130137685Y-109954963D01*
X130190489Y-109909208D01*
X130198649Y-109905827D01*
X130252257Y-109885832D01*
X130313580Y-109852347D01*
X130428761Y-109766123D01*
X130566123Y-109628761D01*
X130578781Y-109614668D01*
X130638224Y-109577949D01*
X130708083Y-109579195D01*
X130736128Y-109591991D01*
X130885875Y-109684356D01*
X130885880Y-109684358D01*
X131052302Y-109739505D01*
X131052309Y-109739506D01*
X131155019Y-109749999D01*
X131292499Y-109749999D01*
X131792500Y-109749999D01*
X131929972Y-109749999D01*
X131929986Y-109749998D01*
X132032697Y-109739505D01*
X132199119Y-109684358D01*
X132199124Y-109684356D01*
X132348345Y-109592315D01*
X132472315Y-109468345D01*
X132564356Y-109319124D01*
X132564358Y-109319119D01*
X132619505Y-109152697D01*
X132619506Y-109152690D01*
X132629999Y-109049986D01*
X132630000Y-109049973D01*
X132630000Y-108775000D01*
X131792500Y-108775000D01*
X131792500Y-109749999D01*
X131292499Y-109749999D01*
X131292500Y-109749998D01*
X131292500Y-106229000D01*
X131312185Y-106161961D01*
X131364989Y-106116206D01*
X131416500Y-106105000D01*
X131668500Y-106105000D01*
X131735539Y-106124685D01*
G37*
%TD.AperFunction*%
%TA.AperFunction,Conductor*%
G36*
X145122591Y-110363282D02*
G01*
X145159804Y-110422417D01*
X145164500Y-110456218D01*
X145164500Y-111869069D01*
X145183482Y-111964495D01*
X145183482Y-111964496D01*
X145189497Y-111994737D01*
X145189498Y-111994740D01*
X145189499Y-111994744D01*
X145201223Y-112023048D01*
X145208692Y-112092516D01*
X145177418Y-112154995D01*
X145117329Y-112190648D01*
X145086662Y-112194500D01*
X143252868Y-112194500D01*
X143185829Y-112174815D01*
X143140074Y-112122011D01*
X143130130Y-112052853D01*
X143159155Y-111989297D01*
X143175542Y-111974841D01*
X143174965Y-111974137D01*
X143179663Y-111970280D01*
X143179669Y-111970277D01*
X144718092Y-110431853D01*
X144779413Y-110398370D01*
X144779477Y-110398356D01*
X144944267Y-110363329D01*
X144990067Y-110342937D01*
X145059314Y-110333654D01*
X145122591Y-110363282D01*
G37*
%TD.AperFunction*%
%TA.AperFunction,Conductor*%
G36*
X125201166Y-104851348D02*
G01*
X125245513Y-104879849D01*
X125591181Y-105225517D01*
X125624666Y-105286840D01*
X125626820Y-105300231D01*
X125633313Y-105362003D01*
X125633314Y-105362005D01*
X125633314Y-105362007D01*
X125688557Y-105532029D01*
X125688560Y-105532035D01*
X125777951Y-105686865D01*
X125786037Y-105695845D01*
X125897574Y-105819721D01*
X125897577Y-105819723D01*
X125897580Y-105819726D01*
X126042217Y-105924812D01*
X126205543Y-105997529D01*
X126380419Y-106034700D01*
X126380420Y-106034700D01*
X126559199Y-106034700D01*
X126559201Y-106034700D01*
X126734077Y-105997529D01*
X126897403Y-105924812D01*
X127042040Y-105819726D01*
X127161669Y-105686865D01*
X127251060Y-105532035D01*
X127251060Y-105532033D01*
X127254309Y-105526407D01*
X127255608Y-105527156D01*
X127295862Y-105479791D01*
X127362709Y-105459464D01*
X127429935Y-105478504D01*
X127436266Y-105482765D01*
X127441806Y-105486747D01*
X127445243Y-105489173D01*
X127452256Y-105494035D01*
X127452321Y-105494080D01*
X127811534Y-105738649D01*
X128115286Y-105945459D01*
X128159622Y-105999458D01*
X128169500Y-106047956D01*
X128169500Y-109193640D01*
X128172397Y-109247688D01*
X128172397Y-109247689D01*
X128175229Y-109274022D01*
X128175232Y-109274049D01*
X128183885Y-109327445D01*
X128183885Y-109327447D01*
X128199083Y-109368192D01*
X128234168Y-109462257D01*
X128256555Y-109503256D01*
X128266882Y-109522169D01*
X128267653Y-109523580D01*
X128353877Y-109638761D01*
X128481239Y-109766123D01*
X128481255Y-109766137D01*
X128481262Y-109766144D01*
X128521480Y-109802271D01*
X128521492Y-109802281D01*
X128521500Y-109802288D01*
X128542142Y-109818922D01*
X128586026Y-109850567D01*
X128716903Y-109910338D01*
X128727935Y-109913577D01*
X128786712Y-109951350D01*
X128815738Y-110014905D01*
X128817000Y-110032554D01*
X128817000Y-110461692D01*
X128797315Y-110528731D01*
X128780681Y-110549373D01*
X128721873Y-110608181D01*
X128660550Y-110641666D01*
X128634192Y-110644500D01*
X127055808Y-110644500D01*
X126988769Y-110624815D01*
X126968127Y-110608181D01*
X125969674Y-109609727D01*
X125969673Y-109609726D01*
X125948550Y-109595612D01*
X125863127Y-109538535D01*
X125830898Y-109525185D01*
X125744742Y-109489498D01*
X125744740Y-109489497D01*
X125683055Y-109477227D01*
X125621144Y-109444841D01*
X125601709Y-109420707D01*
X125569323Y-109368201D01*
X125532712Y-109308844D01*
X125408656Y-109184788D01*
X125315888Y-109127569D01*
X125259336Y-109092687D01*
X125259331Y-109092685D01*
X125257862Y-109092198D01*
X125092797Y-109037501D01*
X125092795Y-109037500D01*
X125022436Y-109030312D01*
X124957745Y-109003915D01*
X124917594Y-108946734D01*
X124914732Y-108876923D01*
X124917101Y-108868659D01*
X124951497Y-108762803D01*
X124970185Y-108585000D01*
X124951497Y-108407197D01*
X124915042Y-108295001D01*
X124896252Y-108237170D01*
X124896249Y-108237164D01*
X124891921Y-108229667D01*
X124806859Y-108082335D01*
X124760003Y-108030296D01*
X124687235Y-107949478D01*
X124687232Y-107949476D01*
X124687231Y-107949475D01*
X124687230Y-107949474D01*
X124542593Y-107844388D01*
X124379267Y-107771671D01*
X124379265Y-107771670D01*
X124244978Y-107743127D01*
X124204391Y-107734500D01*
X124025609Y-107734500D01*
X124025605Y-107734500D01*
X124019143Y-107735179D01*
X124019023Y-107734042D01*
X123985214Y-107734261D01*
X123985132Y-107735097D01*
X123979070Y-107734500D01*
X123979069Y-107734500D01*
X122302975Y-107734500D01*
X122302973Y-107734500D01*
X122177305Y-107759497D01*
X122177299Y-107759499D01*
X122058918Y-107808534D01*
X121952370Y-107879726D01*
X121952369Y-107879727D01*
X121636681Y-108195416D01*
X121575358Y-108228901D01*
X121505666Y-108223917D01*
X121449733Y-108182045D01*
X121425316Y-108116581D01*
X121425000Y-108107735D01*
X121425000Y-107779659D01*
X121444685Y-107712620D01*
X121497489Y-107666865D01*
X121498372Y-107666466D01*
X121612593Y-107615612D01*
X121757230Y-107510526D01*
X121775227Y-107490539D01*
X121783148Y-107481741D01*
X121876859Y-107377665D01*
X121966250Y-107222835D01*
X122021497Y-107052803D01*
X122040185Y-106875000D01*
X122021497Y-106697197D01*
X121966250Y-106527165D01*
X121876859Y-106372335D01*
X121830003Y-106320296D01*
X121757235Y-106239478D01*
X121757232Y-106239476D01*
X121757231Y-106239475D01*
X121757230Y-106239474D01*
X121640482Y-106154651D01*
X121597819Y-106099323D01*
X121591840Y-106029709D01*
X121624446Y-105967914D01*
X121674366Y-105936629D01*
X121749119Y-105911858D01*
X121749124Y-105911856D01*
X121898345Y-105819815D01*
X122022315Y-105695845D01*
X122114356Y-105546624D01*
X122114358Y-105546619D01*
X122133294Y-105489475D01*
X122173066Y-105432030D01*
X122237582Y-105405207D01*
X122306358Y-105417522D01*
X122357558Y-105465065D01*
X122375000Y-105528479D01*
X122375000Y-106022844D01*
X122381401Y-106082372D01*
X122381403Y-106082379D01*
X122431645Y-106217086D01*
X122431649Y-106217093D01*
X122517809Y-106332187D01*
X122517812Y-106332190D01*
X122632906Y-106418350D01*
X122632913Y-106418354D01*
X122767620Y-106468596D01*
X122767627Y-106468598D01*
X122827155Y-106474999D01*
X122827172Y-106475000D01*
X123475000Y-106475000D01*
X123475000Y-105558012D01*
X123532007Y-105590925D01*
X123659174Y-105625000D01*
X123790826Y-105625000D01*
X123917993Y-105590925D01*
X123975000Y-105558012D01*
X123975000Y-106475000D01*
X124622828Y-106475000D01*
X124622844Y-106474999D01*
X124682372Y-106468598D01*
X124682379Y-106468596D01*
X124817086Y-106418354D01*
X124817093Y-106418350D01*
X124932187Y-106332190D01*
X124932190Y-106332187D01*
X125018350Y-106217093D01*
X125018354Y-106217086D01*
X125068596Y-106082379D01*
X125068598Y-106082372D01*
X125074999Y-106022844D01*
X125075000Y-106022827D01*
X125075000Y-105375000D01*
X124158012Y-105375000D01*
X124190925Y-105317993D01*
X124225000Y-105190826D01*
X124225000Y-105059174D01*
X124190925Y-104932007D01*
X124158012Y-104875000D01*
X125079031Y-104875000D01*
X125131474Y-104846364D01*
X125201166Y-104851348D01*
G37*
%TD.AperFunction*%
%TA.AperFunction,Conductor*%
G36*
X138293829Y-104965185D02*
G01*
X138339584Y-105017989D01*
X138349528Y-105087147D01*
X138320503Y-105150703D01*
X138274242Y-105184061D01*
X138236220Y-105199810D01*
X138166881Y-105228530D01*
X138166863Y-105228540D01*
X138060332Y-105299721D01*
X138060325Y-105299727D01*
X137479725Y-105880328D01*
X137479724Y-105880329D01*
X137479723Y-105880331D01*
X137450003Y-105924812D01*
X137439671Y-105940275D01*
X137439670Y-105940276D01*
X137408538Y-105986867D01*
X137408533Y-105986875D01*
X137359499Y-106105255D01*
X137359497Y-106105261D01*
X137334500Y-106230928D01*
X137334500Y-107429070D01*
X137355571Y-107534995D01*
X137355571Y-107534997D01*
X137359497Y-107554736D01*
X137359501Y-107554749D01*
X137408532Y-107673123D01*
X137416459Y-107684986D01*
X137479716Y-107779659D01*
X137479726Y-107779673D01*
X138050325Y-108350272D01*
X138050332Y-108350278D01*
X138156863Y-108421459D01*
X138156867Y-108421461D01*
X138156874Y-108421466D01*
X138202419Y-108440331D01*
X138202420Y-108440331D01*
X138202421Y-108440332D01*
X138275251Y-108470499D01*
X138275256Y-108470501D01*
X138275260Y-108470501D01*
X138275261Y-108470502D01*
X138400928Y-108495500D01*
X138400931Y-108495500D01*
X138400932Y-108495500D01*
X138529069Y-108495500D01*
X139835193Y-108495500D01*
X139902232Y-108515185D01*
X139947987Y-108567989D01*
X139957931Y-108637147D01*
X139928906Y-108700703D01*
X139922875Y-108707178D01*
X139356032Y-109274022D01*
X138836891Y-109793163D01*
X138775568Y-109826648D01*
X138705876Y-109821664D01*
X138649943Y-109779792D01*
X138625526Y-109714328D01*
X138625210Y-109705482D01*
X138625210Y-109699977D01*
X138623916Y-109687663D01*
X138606522Y-109522172D01*
X138551275Y-109352140D01*
X138461884Y-109197310D01*
X138415028Y-109145271D01*
X138342260Y-109064453D01*
X138342257Y-109064451D01*
X138342256Y-109064450D01*
X138342255Y-109064449D01*
X138197618Y-108959363D01*
X138167582Y-108945990D01*
X138130338Y-108920392D01*
X136999674Y-107789727D01*
X136999673Y-107789726D01*
X136996636Y-107787697D01*
X136893127Y-107718535D01*
X136893128Y-107718535D01*
X136893123Y-107718532D01*
X136774749Y-107669501D01*
X136774748Y-107669500D01*
X136774744Y-107669499D01*
X136774737Y-107669497D01*
X136774735Y-107669497D01*
X136772573Y-107669067D01*
X136649071Y-107644500D01*
X136649069Y-107644500D01*
X135858819Y-107644500D01*
X135791780Y-107624815D01*
X135746025Y-107572011D01*
X135736081Y-107502853D01*
X135751432Y-107458500D01*
X135766250Y-107432835D01*
X135821497Y-107262803D01*
X135840185Y-107085000D01*
X135821497Y-106907197D01*
X135813404Y-106882289D01*
X135811409Y-106812448D01*
X135843652Y-106756292D01*
X137618127Y-104981819D01*
X137679450Y-104948334D01*
X137705808Y-104945500D01*
X138226790Y-104945500D01*
X138293829Y-104965185D01*
G37*
%TD.AperFunction*%
%TA.AperFunction,Conductor*%
G36*
X119436039Y-103532496D02*
G01*
X119446087Y-103536658D01*
X119446091Y-103536658D01*
X119446092Y-103536659D01*
X119591079Y-103565500D01*
X119591082Y-103565500D01*
X119591083Y-103565500D01*
X119738917Y-103565500D01*
X119783752Y-103565500D01*
X119850791Y-103585185D01*
X119881531Y-103616497D01*
X119882807Y-103615489D01*
X119887288Y-103621156D01*
X120011344Y-103745212D01*
X120014628Y-103747237D01*
X120014653Y-103747253D01*
X120016445Y-103749246D01*
X120017011Y-103749693D01*
X120016934Y-103749789D01*
X120061379Y-103799199D01*
X120072603Y-103868161D01*
X120044761Y-103932244D01*
X120014665Y-103958326D01*
X120011660Y-103960179D01*
X120011655Y-103960183D01*
X119887684Y-104084154D01*
X119795643Y-104233375D01*
X119795641Y-104233380D01*
X119740494Y-104399802D01*
X119740493Y-104399809D01*
X119730000Y-104502513D01*
X119730000Y-104640000D01*
X121081000Y-104640000D01*
X121148039Y-104659685D01*
X121193794Y-104712489D01*
X121205000Y-104764000D01*
X121205000Y-105016000D01*
X121185315Y-105083039D01*
X121132511Y-105128794D01*
X121081000Y-105140000D01*
X119730001Y-105140000D01*
X119730001Y-105277486D01*
X119740494Y-105380197D01*
X119795641Y-105546619D01*
X119795645Y-105546628D01*
X119883674Y-105689346D01*
X119902114Y-105756738D01*
X119881191Y-105823402D01*
X119827549Y-105868171D01*
X119821468Y-105870624D01*
X119712671Y-105911202D01*
X119712664Y-105911206D01*
X119597455Y-105997452D01*
X119597452Y-105997455D01*
X119511206Y-106112664D01*
X119511202Y-106112671D01*
X119460908Y-106247517D01*
X119454501Y-106307116D01*
X119454500Y-106307135D01*
X119454500Y-106384477D01*
X119434815Y-106451516D01*
X119382011Y-106497271D01*
X119312853Y-106507215D01*
X119249297Y-106478190D01*
X119242819Y-106472158D01*
X119138345Y-106367684D01*
X118989124Y-106275643D01*
X118989119Y-106275641D01*
X118822697Y-106220494D01*
X118822690Y-106220493D01*
X118719986Y-106210000D01*
X118497448Y-106210000D01*
X118430409Y-106190315D01*
X118384654Y-106137511D01*
X118374710Y-106068353D01*
X118403735Y-106004797D01*
X118459128Y-105968070D01*
X118489379Y-105958241D01*
X118713845Y-105843870D01*
X118917656Y-105695793D01*
X119095793Y-105517656D01*
X119243870Y-105313845D01*
X119358241Y-105089379D01*
X119436090Y-104849785D01*
X119475500Y-104600962D01*
X119475500Y-104349038D01*
X119436090Y-104100215D01*
X119358241Y-103860621D01*
X119358239Y-103860618D01*
X119358239Y-103860616D01*
X119278110Y-103703355D01*
X119265214Y-103634686D01*
X119291490Y-103569945D01*
X119348597Y-103529688D01*
X119418402Y-103526696D01*
X119436039Y-103532496D01*
G37*
%TD.AperFunction*%
%TA.AperFunction,Conductor*%
G36*
X143048741Y-97823718D02*
G01*
X143104675Y-97865589D01*
X143119969Y-97892448D01*
X143128532Y-97913123D01*
X143199726Y-98019673D01*
X143199727Y-98019674D01*
X143598181Y-98418127D01*
X143631666Y-98479450D01*
X143634500Y-98505808D01*
X143634500Y-100828802D01*
X143614815Y-100895841D01*
X143602651Y-100911773D01*
X143593140Y-100922336D01*
X143503750Y-101077164D01*
X143503747Y-101077171D01*
X143471636Y-101176000D01*
X143432198Y-101233676D01*
X143367840Y-101260874D01*
X143298993Y-101248959D01*
X143266024Y-101225363D01*
X143208345Y-101167684D01*
X143059124Y-101075643D01*
X143059119Y-101075641D01*
X142892697Y-101020494D01*
X142892690Y-101020493D01*
X142789986Y-101010000D01*
X142652500Y-101010000D01*
X142652500Y-101985000D01*
X143499106Y-101985000D01*
X143540362Y-101962472D01*
X143610053Y-101967455D01*
X143658871Y-102000666D01*
X143666235Y-102008844D01*
X143712765Y-102060522D01*
X143712767Y-102060523D01*
X143712770Y-102060526D01*
X143857407Y-102165612D01*
X144020733Y-102238329D01*
X144195609Y-102275500D01*
X144195610Y-102275500D01*
X144374389Y-102275500D01*
X144374391Y-102275500D01*
X144549267Y-102238329D01*
X144712593Y-102165612D01*
X144743995Y-102142796D01*
X144809798Y-102119315D01*
X144877853Y-102135139D01*
X144889764Y-102142793D01*
X144907407Y-102155612D01*
X145070733Y-102228329D01*
X145245609Y-102265500D01*
X145245610Y-102265500D01*
X145424389Y-102265500D01*
X145424391Y-102265500D01*
X145599267Y-102228329D01*
X145700261Y-102183363D01*
X145769509Y-102174079D01*
X145801130Y-102183363D01*
X145806897Y-102185930D01*
X145806899Y-102185932D01*
X145970225Y-102258649D01*
X146145101Y-102295820D01*
X146145102Y-102295820D01*
X146323881Y-102295820D01*
X146323883Y-102295820D01*
X146498759Y-102258649D01*
X146662085Y-102185932D01*
X146667612Y-102181916D01*
X146733415Y-102158435D01*
X146801470Y-102174257D01*
X146850167Y-102224360D01*
X146864500Y-102282232D01*
X146864500Y-105114192D01*
X146844815Y-105181231D01*
X146828181Y-105201873D01*
X145841873Y-106188181D01*
X145780550Y-106221666D01*
X145754192Y-106224500D01*
X142604808Y-106224500D01*
X142537769Y-106204815D01*
X142492014Y-106152011D01*
X142482070Y-106082853D01*
X142511095Y-106019297D01*
X142517127Y-106012819D01*
X142870272Y-105659674D01*
X142870277Y-105659669D01*
X142941466Y-105553126D01*
X142964185Y-105498275D01*
X143008025Y-105443873D01*
X143028212Y-105433787D01*
X143027784Y-105432869D01*
X143034328Y-105429817D01*
X143034331Y-105429814D01*
X143034334Y-105429814D01*
X143183656Y-105337712D01*
X143307712Y-105213656D01*
X143399814Y-105064334D01*
X143447653Y-104919965D01*
X143487425Y-104862522D01*
X143496465Y-104855870D01*
X143503235Y-104851348D01*
X143504850Y-104850269D01*
X143522888Y-104838215D01*
X143576099Y-104802662D01*
X143619203Y-104784477D01*
X143752406Y-104756163D01*
X143789263Y-104748330D01*
X143789263Y-104748329D01*
X143789267Y-104748329D01*
X143952593Y-104675612D01*
X144097230Y-104570526D01*
X144216859Y-104437665D01*
X144306250Y-104282835D01*
X144361497Y-104112803D01*
X144380185Y-103935000D01*
X144361497Y-103757197D01*
X144321530Y-103634192D01*
X144306252Y-103587170D01*
X144306249Y-103587164D01*
X144216859Y-103432335D01*
X144160723Y-103369990D01*
X144097235Y-103299478D01*
X144097232Y-103299476D01*
X144097231Y-103299475D01*
X144097230Y-103299474D01*
X143952593Y-103194388D01*
X143789267Y-103121671D01*
X143789265Y-103121670D01*
X143661437Y-103094500D01*
X143614391Y-103084500D01*
X143577727Y-103084500D01*
X143510688Y-103064815D01*
X143464933Y-103012011D01*
X143454989Y-102942853D01*
X143460021Y-102921496D01*
X143479505Y-102862697D01*
X143479506Y-102862690D01*
X143489999Y-102759986D01*
X143490000Y-102759973D01*
X143490000Y-102485000D01*
X142276500Y-102485000D01*
X142209461Y-102465315D01*
X142163706Y-102412511D01*
X142152500Y-102361000D01*
X142152500Y-101010000D01*
X142015027Y-101010000D01*
X142015012Y-101010001D01*
X141912291Y-101020495D01*
X141910923Y-101020788D01*
X141910059Y-101020723D01*
X141905569Y-101021182D01*
X141905487Y-101020380D01*
X141841249Y-101015564D01*
X141785460Y-100973500D01*
X141761269Y-100907952D01*
X141776356Y-100839730D01*
X141792834Y-100816559D01*
X141836859Y-100767665D01*
X141926250Y-100612835D01*
X141981497Y-100442803D01*
X142000185Y-100265000D01*
X141981497Y-100087197D01*
X141933523Y-99939548D01*
X141926252Y-99917170D01*
X141926249Y-99917164D01*
X141920479Y-99907170D01*
X141836859Y-99762335D01*
X141790003Y-99710296D01*
X141717235Y-99629478D01*
X141717232Y-99629476D01*
X141717231Y-99629475D01*
X141717230Y-99629474D01*
X141572593Y-99524388D01*
X141409267Y-99451671D01*
X141409265Y-99451670D01*
X141264002Y-99420794D01*
X141234391Y-99414500D01*
X141055609Y-99414500D01*
X141025998Y-99420794D01*
X140880733Y-99451670D01*
X140880728Y-99451672D01*
X140717408Y-99524387D01*
X140572768Y-99629475D01*
X140453140Y-99762336D01*
X140363750Y-99917164D01*
X140363747Y-99917170D01*
X140308504Y-100087192D01*
X140308503Y-100087194D01*
X140308503Y-100087197D01*
X140302134Y-100147797D01*
X140302011Y-100148963D01*
X140275425Y-100213577D01*
X140266371Y-100223681D01*
X139822225Y-100667828D01*
X139822224Y-100667829D01*
X139801916Y-100698223D01*
X139776072Y-100736903D01*
X139757633Y-100764499D01*
X139751033Y-100774375D01*
X139701999Y-100892755D01*
X139701997Y-100892761D01*
X139675811Y-101024406D01*
X139673309Y-101023908D01*
X139651293Y-101078382D01*
X139619173Y-101106947D01*
X139521342Y-101167289D01*
X139397289Y-101291342D01*
X139305187Y-101440663D01*
X139305185Y-101440668D01*
X139286741Y-101496328D01*
X139250001Y-101607203D01*
X139250001Y-101607204D01*
X139250000Y-101607204D01*
X139239500Y-101709983D01*
X139239500Y-102760001D01*
X139239501Y-102760019D01*
X139250000Y-102862796D01*
X139250001Y-102862799D01*
X139305185Y-103029331D01*
X139305187Y-103029336D01*
X139309267Y-103035950D01*
X139345380Y-103094500D01*
X139397289Y-103178657D01*
X139420951Y-103202319D01*
X139454436Y-103263642D01*
X139449452Y-103333334D01*
X139425893Y-103369990D01*
X139426766Y-103370681D01*
X139422290Y-103376341D01*
X139330187Y-103525663D01*
X139330184Y-103525671D01*
X139318972Y-103559506D01*
X139279199Y-103616950D01*
X139214683Y-103643772D01*
X139201267Y-103644500D01*
X137320929Y-103644500D01*
X137195261Y-103669497D01*
X137195255Y-103669499D01*
X137161706Y-103683396D01*
X137161705Y-103683396D01*
X137076881Y-103718530D01*
X137076863Y-103718540D01*
X136970332Y-103789721D01*
X136970325Y-103789727D01*
X134897181Y-105862872D01*
X134835858Y-105896357D01*
X134766166Y-105891373D01*
X134710233Y-105849501D01*
X134685816Y-105784037D01*
X134685500Y-105775191D01*
X134685500Y-102270928D01*
X134660502Y-102145261D01*
X134660501Y-102145260D01*
X134660501Y-102145256D01*
X134611465Y-102026873D01*
X134601044Y-102011277D01*
X134599418Y-102008844D01*
X134540277Y-101920331D01*
X134540271Y-101920324D01*
X134101819Y-101481872D01*
X134068334Y-101420549D01*
X134065500Y-101394191D01*
X134065500Y-100781197D01*
X134085185Y-100714158D01*
X134097352Y-100698223D01*
X134106859Y-100687665D01*
X134196250Y-100532835D01*
X134251497Y-100362803D01*
X134270185Y-100185000D01*
X134251497Y-100007197D01*
X134218996Y-99907170D01*
X134196252Y-99837170D01*
X134196249Y-99837164D01*
X134180333Y-99809596D01*
X134106859Y-99682335D01*
X134059263Y-99629474D01*
X133987235Y-99549478D01*
X133987232Y-99549476D01*
X133987231Y-99549475D01*
X133987230Y-99549474D01*
X133842593Y-99444388D01*
X133679267Y-99371671D01*
X133679265Y-99371670D01*
X133551594Y-99344533D01*
X133504391Y-99334500D01*
X133325609Y-99334500D01*
X133294954Y-99341015D01*
X133150733Y-99371670D01*
X133150728Y-99371672D01*
X132987408Y-99444388D01*
X132987403Y-99444390D01*
X132859712Y-99537164D01*
X132793906Y-99560644D01*
X132725852Y-99544819D01*
X132713941Y-99537164D01*
X132696358Y-99524389D01*
X132682593Y-99514388D01*
X132519267Y-99441671D01*
X132519265Y-99441670D01*
X132391437Y-99414500D01*
X132344391Y-99404500D01*
X132165609Y-99404500D01*
X132134954Y-99411015D01*
X131990733Y-99441670D01*
X131990728Y-99441672D01*
X131827408Y-99514387D01*
X131682768Y-99619475D01*
X131563140Y-99752336D01*
X131473750Y-99907164D01*
X131473747Y-99907170D01*
X131418504Y-100077192D01*
X131418503Y-100077194D01*
X131407172Y-100185000D01*
X131399815Y-100255000D01*
X131418503Y-100432803D01*
X131418504Y-100432806D01*
X131418504Y-100432807D01*
X131473747Y-100602829D01*
X131473750Y-100602835D01*
X131563138Y-100757661D01*
X131563139Y-100757663D01*
X131563141Y-100757665D01*
X131652651Y-100857076D01*
X131682880Y-100920065D01*
X131684500Y-100940046D01*
X131684500Y-102069070D01*
X131693155Y-102112578D01*
X131701715Y-102155612D01*
X131701810Y-102156087D01*
X131701811Y-102156093D01*
X131707121Y-102182793D01*
X131700891Y-102252384D01*
X131658026Y-102307560D01*
X131592136Y-102330802D01*
X131524139Y-102314732D01*
X131512977Y-102307558D01*
X131473974Y-102279433D01*
X131343100Y-102219663D01*
X131276055Y-102199976D01*
X131228582Y-102193150D01*
X131133638Y-102179500D01*
X131133636Y-102179500D01*
X130217000Y-102179500D01*
X130149961Y-102159815D01*
X130104206Y-102107011D01*
X130093000Y-102055500D01*
X130093000Y-99127537D01*
X130112685Y-99060498D01*
X130161902Y-99016450D01*
X130291796Y-98952030D01*
X130440222Y-98832722D01*
X130495853Y-98763514D01*
X130553196Y-98723595D01*
X130623018Y-98721015D01*
X130683151Y-98756594D01*
X130689147Y-98763514D01*
X130744777Y-98832721D01*
X130744778Y-98832722D01*
X130893204Y-98952030D01*
X130893207Y-98952032D01*
X131063802Y-99036639D01*
X131063803Y-99036639D01*
X131063807Y-99036641D01*
X131248611Y-99082600D01*
X131291377Y-99085500D01*
X132193622Y-99085499D01*
X132236389Y-99082600D01*
X132421193Y-99036641D01*
X132591796Y-98952030D01*
X132740222Y-98832722D01*
X132859530Y-98684296D01*
X132944141Y-98513693D01*
X132950775Y-98487017D01*
X132986054Y-98426711D01*
X133048339Y-98395051D01*
X133117853Y-98402090D01*
X133161136Y-98434593D01*
X133162181Y-98433549D01*
X133167288Y-98438656D01*
X133291344Y-98562712D01*
X133440666Y-98654814D01*
X133607203Y-98709999D01*
X133709991Y-98720500D01*
X134360008Y-98720499D01*
X134360016Y-98720498D01*
X134360019Y-98720498D01*
X134416302Y-98714748D01*
X134462797Y-98709999D01*
X134629334Y-98654814D01*
X134778656Y-98562712D01*
X134862319Y-98479049D01*
X134923642Y-98445564D01*
X134993334Y-98450548D01*
X135037681Y-98479049D01*
X135064504Y-98505872D01*
X135097989Y-98567195D01*
X135093005Y-98636887D01*
X135082362Y-98658649D01*
X135010189Y-98775659D01*
X135010185Y-98775668D01*
X134994833Y-98821998D01*
X134955001Y-98942203D01*
X134955001Y-98942204D01*
X134955000Y-98942204D01*
X134944500Y-99044983D01*
X134944500Y-100045001D01*
X134944501Y-100045019D01*
X134955000Y-100147796D01*
X134955001Y-100147799D01*
X135010185Y-100314331D01*
X135010187Y-100314336D01*
X135027139Y-100341820D01*
X135102288Y-100463656D01*
X135226344Y-100587712D01*
X135375666Y-100679814D01*
X135542203Y-100734999D01*
X135644991Y-100745500D01*
X136445008Y-100745499D01*
X136445016Y-100745498D01*
X136445019Y-100745498D01*
X136501302Y-100739748D01*
X136547797Y-100734999D01*
X136714334Y-100679814D01*
X136863656Y-100587712D01*
X136957319Y-100494049D01*
X137018642Y-100460564D01*
X137088334Y-100465548D01*
X137132681Y-100494049D01*
X137226344Y-100587712D01*
X137375666Y-100679814D01*
X137542203Y-100734999D01*
X137644991Y-100745500D01*
X138445008Y-100745499D01*
X138445016Y-100745498D01*
X138445019Y-100745498D01*
X138501302Y-100739748D01*
X138547797Y-100734999D01*
X138714334Y-100679814D01*
X138863656Y-100587712D01*
X138987712Y-100463656D01*
X139079814Y-100314334D01*
X139134999Y-100147797D01*
X139135753Y-100140412D01*
X139162144Y-100075722D01*
X139185238Y-100054493D01*
X139184954Y-100054147D01*
X139189663Y-100050280D01*
X139189669Y-100050277D01*
X140658127Y-98581819D01*
X140719450Y-98548334D01*
X140745808Y-98545500D01*
X142019071Y-98545500D01*
X142103615Y-98528682D01*
X142144744Y-98520501D01*
X142263127Y-98471465D01*
X142269730Y-98467052D01*
X142269733Y-98467052D01*
X142344515Y-98417084D01*
X142369669Y-98400277D01*
X142917727Y-97852219D01*
X142979050Y-97818734D01*
X143048741Y-97823718D01*
G37*
%TD.AperFunction*%
%TA.AperFunction,Conductor*%
G36*
X126771231Y-95635185D02*
G01*
X126791873Y-95651819D01*
X127013373Y-95873319D01*
X127046858Y-95934642D01*
X127041874Y-96004334D01*
X127000002Y-96060267D01*
X126934538Y-96084684D01*
X126925692Y-96085000D01*
X126691403Y-96085000D01*
X126648675Y-96087897D01*
X126463976Y-96133831D01*
X126293477Y-96218390D01*
X126293474Y-96218392D01*
X126145133Y-96337632D01*
X126145132Y-96337633D01*
X126025892Y-96485974D01*
X126025890Y-96485977D01*
X125941331Y-96656476D01*
X125895397Y-96841175D01*
X125892500Y-96883903D01*
X125892500Y-97335000D01*
X127268500Y-97335000D01*
X127335539Y-97354685D01*
X127381294Y-97407489D01*
X127392500Y-97459000D01*
X127392500Y-99085000D01*
X127593597Y-99085000D01*
X127636324Y-99082102D01*
X127821023Y-99036168D01*
X127991522Y-98951609D01*
X127991525Y-98951607D01*
X128139866Y-98832367D01*
X128139867Y-98832366D01*
X128195533Y-98763115D01*
X128252876Y-98723196D01*
X128322698Y-98720616D01*
X128382831Y-98756194D01*
X128388805Y-98763089D01*
X128444778Y-98832722D01*
X128444780Y-98832724D01*
X128492354Y-98870965D01*
X128593204Y-98952030D01*
X128723096Y-99016450D01*
X128774407Y-99063869D01*
X128792000Y-99127537D01*
X128792000Y-102055500D01*
X128772315Y-102122539D01*
X128719511Y-102168294D01*
X128668000Y-102179500D01*
X127756360Y-102179500D01*
X127702311Y-102182397D01*
X127702310Y-102182397D01*
X127675977Y-102185229D01*
X127675950Y-102185232D01*
X127622554Y-102193885D01*
X127622552Y-102193885D01*
X127487747Y-102244166D01*
X127487744Y-102244167D01*
X127487743Y-102244168D01*
X127477404Y-102249813D01*
X127426422Y-102277651D01*
X127311240Y-102363876D01*
X127311228Y-102363886D01*
X127257181Y-102417934D01*
X127195858Y-102451419D01*
X127126166Y-102446435D01*
X127070233Y-102404563D01*
X127045816Y-102339099D01*
X127045500Y-102330253D01*
X127045500Y-102160532D01*
X127065185Y-102093493D01*
X127117989Y-102047738D01*
X127118893Y-102047329D01*
X127212593Y-102005612D01*
X127357230Y-101900526D01*
X127362229Y-101894975D01*
X127400473Y-101852500D01*
X127476859Y-101767665D01*
X127566250Y-101612835D01*
X127621497Y-101442803D01*
X127640185Y-101265000D01*
X127621497Y-101087197D01*
X127586116Y-100978305D01*
X127566252Y-100917170D01*
X127566249Y-100917164D01*
X127565809Y-100916402D01*
X127476859Y-100762335D01*
X127418648Y-100697685D01*
X127357235Y-100629478D01*
X127357232Y-100629476D01*
X127357231Y-100629475D01*
X127357230Y-100629474D01*
X127212593Y-100524388D01*
X127049267Y-100451671D01*
X127049265Y-100451670D01*
X126921594Y-100424533D01*
X126874391Y-100414500D01*
X126695609Y-100414500D01*
X126658439Y-100422400D01*
X126520734Y-100451670D01*
X126520729Y-100451672D01*
X126490494Y-100465133D01*
X126421244Y-100474416D01*
X126367178Y-100452170D01*
X126232593Y-100354388D01*
X126069267Y-100281671D01*
X126069265Y-100281670D01*
X125933778Y-100252872D01*
X125894391Y-100244500D01*
X125715609Y-100244500D01*
X125684954Y-100251015D01*
X125540733Y-100281670D01*
X125540728Y-100281672D01*
X125377408Y-100354388D01*
X125377403Y-100354390D01*
X125242023Y-100452750D01*
X125176217Y-100476230D01*
X125108163Y-100460404D01*
X125059468Y-100410299D01*
X125045593Y-100341820D01*
X125049360Y-100320349D01*
X125060063Y-100280408D01*
X125080659Y-100045000D01*
X125060063Y-99809592D01*
X125007911Y-99614956D01*
X124998905Y-99581344D01*
X124998904Y-99581343D01*
X124998903Y-99581337D01*
X124899035Y-99367171D01*
X124890980Y-99355666D01*
X124763494Y-99173597D01*
X124596402Y-99006506D01*
X124596396Y-99006501D01*
X124410842Y-98876575D01*
X124367217Y-98821998D01*
X124360023Y-98752500D01*
X124391546Y-98690145D01*
X124410842Y-98673425D01*
X124433026Y-98657891D01*
X124596401Y-98543495D01*
X124763495Y-98376401D01*
X124826727Y-98286096D01*
X125892500Y-98286096D01*
X125895397Y-98328824D01*
X125941331Y-98513523D01*
X126025890Y-98684022D01*
X126025892Y-98684025D01*
X126145132Y-98832366D01*
X126145133Y-98832367D01*
X126293474Y-98951607D01*
X126293477Y-98951609D01*
X126463976Y-99036168D01*
X126648675Y-99082102D01*
X126691403Y-99085000D01*
X126892500Y-99085000D01*
X126892500Y-97835000D01*
X125892500Y-97835000D01*
X125892500Y-98286096D01*
X124826727Y-98286096D01*
X124899035Y-98182830D01*
X124998903Y-97968663D01*
X125060063Y-97740408D01*
X125080659Y-97505000D01*
X125060063Y-97269592D01*
X125013626Y-97096285D01*
X124998905Y-97041344D01*
X124998904Y-97041343D01*
X124998903Y-97041337D01*
X124899035Y-96827171D01*
X124847262Y-96753230D01*
X124763494Y-96633597D01*
X124596402Y-96466506D01*
X124596396Y-96466501D01*
X124410842Y-96336575D01*
X124367217Y-96281998D01*
X124360023Y-96212500D01*
X124391546Y-96150145D01*
X124410842Y-96133425D01*
X124440560Y-96112616D01*
X124596401Y-96003495D01*
X124763495Y-95836401D01*
X124871575Y-95682047D01*
X124881147Y-95668377D01*
X124935724Y-95624752D01*
X124982722Y-95615500D01*
X126704192Y-95615500D01*
X126771231Y-95635185D01*
G37*
%TD.AperFunction*%
%TA.AperFunction,Conductor*%
G36*
X117282839Y-70909088D02*
G01*
X117328594Y-70961892D01*
X117338538Y-71031050D01*
X117325709Y-71070814D01*
X117231090Y-71251952D01*
X117175114Y-71447583D01*
X117175113Y-71447586D01*
X117171924Y-71483456D01*
X117164780Y-71563822D01*
X117164500Y-71566966D01*
X117164500Y-72683028D01*
X117164501Y-72683034D01*
X117175113Y-72802415D01*
X117231089Y-72998045D01*
X117231090Y-72998048D01*
X117231091Y-72998049D01*
X117325302Y-73178407D01*
X117325304Y-73178409D01*
X117453890Y-73336109D01*
X117547803Y-73412684D01*
X117611593Y-73464698D01*
X117791951Y-73558909D01*
X117987582Y-73614886D01*
X118106963Y-73625500D01*
X119223036Y-73625499D01*
X119342418Y-73614886D01*
X119538049Y-73558909D01*
X119718407Y-73464698D01*
X119876109Y-73336109D01*
X120004698Y-73178407D01*
X120098909Y-72998049D01*
X120154886Y-72802418D01*
X120165500Y-72683037D01*
X120165499Y-71566964D01*
X120154886Y-71447582D01*
X120098909Y-71251951D01*
X120004698Y-71071593D01*
X120004697Y-71071592D01*
X120004291Y-71070814D01*
X119990700Y-71002279D01*
X120016319Y-70937276D01*
X120073015Y-70896442D01*
X120114200Y-70889403D01*
X122811490Y-70889403D01*
X122878529Y-70909088D01*
X122924284Y-70961892D01*
X122934228Y-71031050D01*
X122908437Y-71090716D01*
X122908196Y-71091017D01*
X122908195Y-71091019D01*
X122853355Y-71159786D01*
X122744614Y-71296143D01*
X122613432Y-71523356D01*
X122517582Y-71767578D01*
X122517576Y-71767597D01*
X122459197Y-72023374D01*
X122459196Y-72023379D01*
X122439592Y-72284995D01*
X122439592Y-72285004D01*
X122459196Y-72546620D01*
X122459197Y-72546625D01*
X122517576Y-72802402D01*
X122517578Y-72802411D01*
X122517580Y-72802416D01*
X122613432Y-73046643D01*
X122744614Y-73273857D01*
X122863350Y-73422747D01*
X122908198Y-73478985D01*
X122951283Y-73518961D01*
X123100521Y-73657433D01*
X123127038Y-73675512D01*
X123137356Y-73682547D01*
X123181657Y-73736577D01*
X123189715Y-73805980D01*
X123158972Y-73868722D01*
X123137356Y-73887453D01*
X123100522Y-73912566D01*
X122908198Y-74091014D01*
X122744614Y-74296143D01*
X122613432Y-74523356D01*
X122517582Y-74767578D01*
X122517576Y-74767597D01*
X122459197Y-75023374D01*
X122459196Y-75023379D01*
X122439592Y-75284995D01*
X122439592Y-75285004D01*
X122459196Y-75546620D01*
X122459197Y-75546625D01*
X122517576Y-75802402D01*
X122517578Y-75802411D01*
X122517580Y-75802416D01*
X122613432Y-76046643D01*
X122744614Y-76273857D01*
X122865500Y-76425443D01*
X122908198Y-76478985D01*
X123059555Y-76619422D01*
X123100521Y-76657433D01*
X123317296Y-76805228D01*
X123317301Y-76805230D01*
X123317302Y-76805231D01*
X123317303Y-76805232D01*
X123442843Y-76865688D01*
X123553673Y-76919061D01*
X123553674Y-76919061D01*
X123553677Y-76919063D01*
X123804385Y-76996396D01*
X124063818Y-77035500D01*
X124326182Y-77035500D01*
X124585615Y-76996396D01*
X124836323Y-76919063D01*
X125072704Y-76805228D01*
X125289479Y-76657433D01*
X125481805Y-76478981D01*
X125645386Y-76273857D01*
X125776568Y-76046643D01*
X125872420Y-75802416D01*
X125930802Y-75546630D01*
X125950408Y-75285000D01*
X125936697Y-75102041D01*
X125930803Y-75023379D01*
X125930802Y-75023374D01*
X125930802Y-75023370D01*
X125872420Y-74767584D01*
X125776568Y-74523357D01*
X125645386Y-74296143D01*
X125481805Y-74091019D01*
X125481804Y-74091018D01*
X125481801Y-74091014D01*
X125289479Y-73912567D01*
X125260116Y-73892548D01*
X125252642Y-73887452D01*
X125208342Y-73833425D01*
X125200283Y-73764021D01*
X125231026Y-73701279D01*
X125252643Y-73682547D01*
X125289479Y-73657433D01*
X125481805Y-73478981D01*
X125645386Y-73273857D01*
X125776568Y-73046643D01*
X125872420Y-72802416D01*
X125930802Y-72546630D01*
X125930808Y-72546550D01*
X125950408Y-72285004D01*
X125950408Y-72284995D01*
X125930803Y-72023379D01*
X125930802Y-72023374D01*
X125930802Y-72023370D01*
X125872420Y-71767584D01*
X125776568Y-71523357D01*
X125645386Y-71296143D01*
X125481805Y-71091019D01*
X125481803Y-71091017D01*
X125481563Y-71090716D01*
X125455154Y-71026029D01*
X125467911Y-70957334D01*
X125515781Y-70906440D01*
X125578510Y-70889403D01*
X126811490Y-70889403D01*
X126878529Y-70909088D01*
X126924284Y-70961892D01*
X126934228Y-71031050D01*
X126908437Y-71090716D01*
X126908196Y-71091017D01*
X126908195Y-71091019D01*
X126853355Y-71159786D01*
X126744614Y-71296143D01*
X126613432Y-71523356D01*
X126517582Y-71767578D01*
X126517576Y-71767597D01*
X126459197Y-72023374D01*
X126459196Y-72023379D01*
X126439592Y-72284995D01*
X126439592Y-72285004D01*
X126459196Y-72546620D01*
X126459197Y-72546625D01*
X126517576Y-72802402D01*
X126517578Y-72802411D01*
X126517580Y-72802416D01*
X126613432Y-73046643D01*
X126744614Y-73273857D01*
X126863350Y-73422747D01*
X126908198Y-73478985D01*
X126951283Y-73518961D01*
X127100521Y-73657433D01*
X127127038Y-73675512D01*
X127137356Y-73682547D01*
X127181657Y-73736577D01*
X127189715Y-73805980D01*
X127158972Y-73868722D01*
X127137356Y-73887453D01*
X127100522Y-73912566D01*
X126908198Y-74091014D01*
X126744614Y-74296143D01*
X126613432Y-74523356D01*
X126517582Y-74767578D01*
X126517576Y-74767597D01*
X126459197Y-75023374D01*
X126459196Y-75023379D01*
X126439592Y-75284995D01*
X126439592Y-75285004D01*
X126459196Y-75546620D01*
X126459197Y-75546625D01*
X126517576Y-75802402D01*
X126517578Y-75802411D01*
X126517580Y-75802416D01*
X126613432Y-76046643D01*
X126744614Y-76273857D01*
X126865500Y-76425443D01*
X126908198Y-76478985D01*
X127059555Y-76619422D01*
X127100521Y-76657433D01*
X127317296Y-76805228D01*
X127317301Y-76805230D01*
X127317302Y-76805231D01*
X127317303Y-76805232D01*
X127442843Y-76865688D01*
X127553673Y-76919061D01*
X127553674Y-76919061D01*
X127553677Y-76919063D01*
X127804385Y-76996396D01*
X128063818Y-77035500D01*
X128326182Y-77035500D01*
X128585615Y-76996396D01*
X128836323Y-76919063D01*
X129072704Y-76805228D01*
X129289479Y-76657433D01*
X129481805Y-76478981D01*
X129645386Y-76273857D01*
X129776568Y-76046643D01*
X129872420Y-75802416D01*
X129930802Y-75546630D01*
X129950408Y-75285000D01*
X129936697Y-75102041D01*
X129930803Y-75023379D01*
X129930802Y-75023374D01*
X129930802Y-75023370D01*
X129872420Y-74767584D01*
X129776568Y-74523357D01*
X129645386Y-74296143D01*
X129481805Y-74091019D01*
X129481804Y-74091018D01*
X129481801Y-74091014D01*
X129289479Y-73912567D01*
X129260116Y-73892548D01*
X129252642Y-73887452D01*
X129208342Y-73833425D01*
X129200283Y-73764021D01*
X129231026Y-73701279D01*
X129252643Y-73682547D01*
X129289479Y-73657433D01*
X129481805Y-73478981D01*
X129645386Y-73273857D01*
X129776568Y-73046643D01*
X129872420Y-72802416D01*
X129930802Y-72546630D01*
X129930808Y-72546550D01*
X129950408Y-72285004D01*
X129950408Y-72284995D01*
X129930803Y-72023379D01*
X129930802Y-72023374D01*
X129930802Y-72023370D01*
X129872420Y-71767584D01*
X129776568Y-71523357D01*
X129645386Y-71296143D01*
X129481805Y-71091019D01*
X129481803Y-71091017D01*
X129481563Y-71090716D01*
X129455154Y-71026029D01*
X129467911Y-70957334D01*
X129515781Y-70906440D01*
X129578510Y-70889403D01*
X130811490Y-70889403D01*
X130878529Y-70909088D01*
X130924284Y-70961892D01*
X130934228Y-71031050D01*
X130908437Y-71090716D01*
X130908196Y-71091017D01*
X130908195Y-71091019D01*
X130853355Y-71159786D01*
X130744614Y-71296143D01*
X130613432Y-71523356D01*
X130517582Y-71767578D01*
X130517576Y-71767597D01*
X130459197Y-72023374D01*
X130459196Y-72023379D01*
X130439592Y-72284995D01*
X130439592Y-72285004D01*
X130459196Y-72546620D01*
X130459197Y-72546625D01*
X130517576Y-72802402D01*
X130517578Y-72802411D01*
X130517580Y-72802416D01*
X130613432Y-73046643D01*
X130744614Y-73273857D01*
X130863350Y-73422747D01*
X130908198Y-73478985D01*
X130951283Y-73518961D01*
X131100521Y-73657433D01*
X131127038Y-73675512D01*
X131137356Y-73682547D01*
X131181657Y-73736577D01*
X131189715Y-73805980D01*
X131158972Y-73868722D01*
X131137356Y-73887453D01*
X131100522Y-73912566D01*
X130908198Y-74091014D01*
X130744614Y-74296143D01*
X130613432Y-74523356D01*
X130517582Y-74767578D01*
X130517576Y-74767597D01*
X130459197Y-75023374D01*
X130459196Y-75023379D01*
X130439592Y-75284995D01*
X130439592Y-75285004D01*
X130459196Y-75546620D01*
X130459197Y-75546625D01*
X130517576Y-75802402D01*
X130517578Y-75802411D01*
X130517580Y-75802416D01*
X130613432Y-76046643D01*
X130744614Y-76273857D01*
X130865500Y-76425443D01*
X130908198Y-76478985D01*
X131059555Y-76619422D01*
X131100521Y-76657433D01*
X131317296Y-76805228D01*
X131317301Y-76805230D01*
X131317302Y-76805231D01*
X131317303Y-76805232D01*
X131442843Y-76865688D01*
X131553673Y-76919061D01*
X131553674Y-76919061D01*
X131553677Y-76919063D01*
X131804385Y-76996396D01*
X131804831Y-76996463D01*
X131805192Y-76996518D01*
X131805455Y-76996640D01*
X131808910Y-76997429D01*
X131808741Y-76998167D01*
X131868551Y-77025970D01*
X131874400Y-77031453D01*
X135153218Y-80310272D01*
X135153225Y-80310278D01*
X135259501Y-80381289D01*
X135259759Y-80381461D01*
X135259760Y-80381462D01*
X135259764Y-80381463D01*
X135259766Y-80381465D01*
X135378149Y-80430501D01*
X135378153Y-80430501D01*
X135378154Y-80430502D01*
X135503821Y-80455500D01*
X135503824Y-80455500D01*
X139675114Y-80455500D01*
X139742153Y-80475185D01*
X139787908Y-80527989D01*
X139797852Y-80597147D01*
X139795941Y-80607222D01*
X139795910Y-80607513D01*
X139795909Y-80607517D01*
X139789500Y-80667127D01*
X139789500Y-80667134D01*
X139789500Y-80667135D01*
X139789500Y-81362870D01*
X139789501Y-81362876D01*
X139793196Y-81397247D01*
X139780789Y-81466006D01*
X139733178Y-81517143D01*
X139669906Y-81534500D01*
X138971080Y-81534500D01*
X138826092Y-81563340D01*
X138826082Y-81563343D01*
X138689511Y-81619912D01*
X138689496Y-81619920D01*
X138643089Y-81650930D01*
X138643086Y-81650932D01*
X138566589Y-81702043D01*
X138566584Y-81702047D01*
X137732047Y-82536584D01*
X137732043Y-82536589D01*
X137707763Y-82572929D01*
X137707763Y-82572930D01*
X137649914Y-82659508D01*
X137593343Y-82796082D01*
X137593340Y-82796092D01*
X137564500Y-82941079D01*
X137564500Y-82941082D01*
X137564500Y-88228918D01*
X137564500Y-88228920D01*
X137564499Y-88228920D01*
X137593340Y-88373907D01*
X137593343Y-88373917D01*
X137649912Y-88510488D01*
X137649920Y-88510502D01*
X137674221Y-88546870D01*
X137674222Y-88546873D01*
X137732046Y-88633414D01*
X137732052Y-88633421D01*
X140378181Y-91279548D01*
X140411666Y-91340871D01*
X140414500Y-91367229D01*
X140414500Y-95125149D01*
X140405061Y-95172601D01*
X140379314Y-95234760D01*
X140379313Y-95234764D01*
X140364500Y-95347272D01*
X140364500Y-95390500D01*
X140344815Y-95457539D01*
X140292011Y-95503294D01*
X140240500Y-95514500D01*
X140101080Y-95514500D01*
X139956092Y-95543340D01*
X139956086Y-95543342D01*
X139819508Y-95599914D01*
X139819496Y-95599921D01*
X139770270Y-95632811D01*
X139770271Y-95632812D01*
X139696585Y-95682047D01*
X139627450Y-95751182D01*
X139566126Y-95784666D01*
X139539769Y-95787500D01*
X135103000Y-95787500D01*
X135085748Y-95804751D01*
X135083315Y-95813039D01*
X135030511Y-95858794D01*
X134979000Y-95870000D01*
X133909000Y-95870000D01*
X133841961Y-95850315D01*
X133796206Y-95797511D01*
X133785000Y-95746000D01*
X133785000Y-94470000D01*
X134285000Y-94470000D01*
X134285000Y-95370000D01*
X134777000Y-95370000D01*
X134794251Y-95352748D01*
X134796685Y-95344461D01*
X134849489Y-95298706D01*
X134901000Y-95287500D01*
X135795000Y-95287500D01*
X136295000Y-95287500D01*
X138015000Y-95287500D01*
X138515000Y-95287500D01*
X139489999Y-95287500D01*
X139489999Y-95150028D01*
X139489998Y-95150013D01*
X139479505Y-95047302D01*
X139424358Y-94880880D01*
X139424356Y-94880875D01*
X139332315Y-94731654D01*
X139208345Y-94607684D01*
X139059124Y-94515643D01*
X139059119Y-94515641D01*
X138892697Y-94460494D01*
X138892690Y-94460493D01*
X138789986Y-94450000D01*
X138515000Y-94450000D01*
X138515000Y-95287500D01*
X138015000Y-95287500D01*
X138015000Y-94450000D01*
X137740029Y-94450000D01*
X137740012Y-94450001D01*
X137637302Y-94460494D01*
X137470880Y-94515641D01*
X137470875Y-94515643D01*
X137321654Y-94607684D01*
X137242681Y-94686658D01*
X137181358Y-94720143D01*
X137111666Y-94715159D01*
X137067319Y-94686658D01*
X136988345Y-94607684D01*
X136839124Y-94515643D01*
X136839119Y-94515641D01*
X136672697Y-94460494D01*
X136672690Y-94460493D01*
X136569986Y-94450000D01*
X136295000Y-94450000D01*
X136295000Y-95287500D01*
X135795000Y-95287500D01*
X135795000Y-94450000D01*
X135520029Y-94450000D01*
X135520012Y-94450001D01*
X135417302Y-94460494D01*
X135250880Y-94515641D01*
X135250875Y-94515643D01*
X135101654Y-94607684D01*
X135017679Y-94691658D01*
X134956356Y-94725143D01*
X134886664Y-94720157D01*
X134842318Y-94691657D01*
X134778345Y-94627684D01*
X134629124Y-94535643D01*
X134629119Y-94535641D01*
X134462697Y-94480494D01*
X134462690Y-94480493D01*
X134359986Y-94470000D01*
X134285000Y-94470000D01*
X133785000Y-94470000D01*
X133784999Y-94469999D01*
X133710028Y-94470000D01*
X133710011Y-94470001D01*
X133607302Y-94480494D01*
X133440880Y-94535641D01*
X133440875Y-94535643D01*
X133291654Y-94627684D01*
X133167683Y-94751655D01*
X133167680Y-94751659D01*
X133161822Y-94761157D01*
X133109873Y-94807881D01*
X133040911Y-94819101D01*
X132976829Y-94791256D01*
X132938579Y-94735062D01*
X132924196Y-94691657D01*
X132904814Y-94633166D01*
X132812712Y-94483844D01*
X132688656Y-94359788D01*
X132685342Y-94357743D01*
X132683546Y-94355748D01*
X132682989Y-94355307D01*
X132683064Y-94355211D01*
X132638618Y-94305797D01*
X132627397Y-94236834D01*
X132655240Y-94172752D01*
X132685348Y-94146665D01*
X132688342Y-94144818D01*
X132812315Y-94020845D01*
X132904356Y-93871624D01*
X132904358Y-93871619D01*
X132959505Y-93705197D01*
X132959506Y-93705190D01*
X132969999Y-93602486D01*
X132970000Y-93602473D01*
X132970000Y-93465000D01*
X130520001Y-93465000D01*
X130520001Y-93602486D01*
X130530494Y-93705197D01*
X130585641Y-93871619D01*
X130585643Y-93871624D01*
X130677684Y-94020845D01*
X130801655Y-94144816D01*
X130801659Y-94144819D01*
X130804656Y-94146668D01*
X130806279Y-94148472D01*
X130807323Y-94149298D01*
X130807181Y-94149476D01*
X130851381Y-94198616D01*
X130862602Y-94267579D01*
X130834759Y-94331661D01*
X130804661Y-94357741D01*
X130801349Y-94359783D01*
X130801343Y-94359788D01*
X130677288Y-94483843D01*
X130672807Y-94489511D01*
X130670984Y-94488069D01*
X130627335Y-94527325D01*
X130573752Y-94539500D01*
X128782230Y-94539500D01*
X128715191Y-94519815D01*
X128694549Y-94503181D01*
X127018882Y-92827513D01*
X130520000Y-92827513D01*
X130520000Y-92965000D01*
X131495000Y-92965000D01*
X131995000Y-92965000D01*
X132969999Y-92965000D01*
X132969999Y-92827528D01*
X132969998Y-92827513D01*
X132959505Y-92724802D01*
X132904358Y-92558380D01*
X132904356Y-92558375D01*
X132812315Y-92409154D01*
X132688345Y-92285184D01*
X132539124Y-92193143D01*
X132539119Y-92193141D01*
X132372697Y-92137994D01*
X132372690Y-92137993D01*
X132269986Y-92127500D01*
X131995000Y-92127500D01*
X131995000Y-92965000D01*
X131495000Y-92965000D01*
X131495000Y-92127500D01*
X131220029Y-92127500D01*
X131220012Y-92127501D01*
X131117302Y-92137994D01*
X130950880Y-92193141D01*
X130950875Y-92193143D01*
X130801654Y-92285184D01*
X130677684Y-92409154D01*
X130585643Y-92558375D01*
X130585641Y-92558380D01*
X130530494Y-92724802D01*
X130530493Y-92724809D01*
X130520000Y-92827513D01*
X127018882Y-92827513D01*
X126623421Y-92432052D01*
X126623414Y-92432046D01*
X126534874Y-92372886D01*
X126534775Y-92372821D01*
X126500495Y-92349916D01*
X126500494Y-92349915D01*
X126500492Y-92349914D01*
X126363917Y-92293343D01*
X126363907Y-92293340D01*
X126218920Y-92264500D01*
X126218918Y-92264500D01*
X122928917Y-92264500D01*
X122781082Y-92264500D01*
X122781080Y-92264500D01*
X122636092Y-92293340D01*
X122636082Y-92293343D01*
X122499511Y-92349912D01*
X122499498Y-92349919D01*
X122376584Y-92432048D01*
X122376580Y-92432051D01*
X121442050Y-93366580D01*
X121442044Y-93366588D01*
X121392812Y-93440268D01*
X121392813Y-93440269D01*
X121359921Y-93489496D01*
X121359914Y-93489508D01*
X121303342Y-93626086D01*
X121303340Y-93626092D01*
X121274500Y-93771079D01*
X121274500Y-98232770D01*
X121254815Y-98299809D01*
X121238181Y-98320451D01*
X120587181Y-98971451D01*
X120525858Y-99004936D01*
X120456166Y-98999952D01*
X120400233Y-98958080D01*
X120375816Y-98892616D01*
X120375500Y-98883770D01*
X120375500Y-94640978D01*
X120395185Y-94573939D01*
X120403650Y-94562310D01*
X120405678Y-94559837D01*
X120409136Y-94555625D01*
X120497396Y-94390501D01*
X120551747Y-94211331D01*
X120570099Y-94025000D01*
X120553392Y-93855374D01*
X120551747Y-93838668D01*
X120551746Y-93838666D01*
X120497396Y-93659499D01*
X120466915Y-93602473D01*
X120409137Y-93494376D01*
X120409135Y-93494373D01*
X120290357Y-93349642D01*
X120145626Y-93230864D01*
X120145623Y-93230862D01*
X119980500Y-93142603D01*
X119974877Y-93140274D01*
X119975478Y-93138822D01*
X119923454Y-93104728D01*
X119894998Y-93040916D01*
X119905559Y-92971849D01*
X119914081Y-92956544D01*
X119989173Y-92841607D01*
X120089063Y-92613881D01*
X120150108Y-92372821D01*
X120152006Y-92349914D01*
X120170643Y-92125005D01*
X120170643Y-92124994D01*
X120150109Y-91877187D01*
X120150107Y-91877175D01*
X120089063Y-91636118D01*
X119989173Y-91408393D01*
X119853166Y-91200217D01*
X119745082Y-91082807D01*
X119684744Y-91017262D01*
X119488509Y-90864526D01*
X119488507Y-90864525D01*
X119488506Y-90864524D01*
X119269811Y-90746172D01*
X119269802Y-90746169D01*
X119034616Y-90665429D01*
X118789335Y-90624500D01*
X118540665Y-90624500D01*
X118295383Y-90665429D01*
X118060197Y-90746169D01*
X118060188Y-90746172D01*
X117841493Y-90864524D01*
X117645257Y-91017261D01*
X117476833Y-91200217D01*
X117340826Y-91408393D01*
X117240936Y-91636118D01*
X117179892Y-91877175D01*
X117179890Y-91877187D01*
X117159357Y-92124994D01*
X117159357Y-92125005D01*
X117179890Y-92372812D01*
X117179891Y-92372819D01*
X117179892Y-92372821D01*
X117180045Y-92373425D01*
X117240936Y-92613881D01*
X117340826Y-92841606D01*
X117476833Y-93049782D01*
X117476836Y-93049785D01*
X117645256Y-93232738D01*
X117841491Y-93385474D01*
X118060190Y-93503828D01*
X118295386Y-93584571D01*
X118540665Y-93625500D01*
X118575723Y-93625500D01*
X118642762Y-93645185D01*
X118688517Y-93697989D01*
X118698461Y-93767147D01*
X118694383Y-93785496D01*
X118678253Y-93838666D01*
X118678252Y-93838668D01*
X118659901Y-94025000D01*
X118678252Y-94211331D01*
X118678253Y-94211333D01*
X118732604Y-94390502D01*
X118820860Y-94555619D01*
X118820865Y-94555627D01*
X118846352Y-94586682D01*
X118873666Y-94650992D01*
X118874500Y-94665348D01*
X118874500Y-94785638D01*
X118854815Y-94852677D01*
X118802011Y-94898432D01*
X118732853Y-94908376D01*
X118694205Y-94896123D01*
X118489383Y-94791760D01*
X118249785Y-94713910D01*
X118174027Y-94701911D01*
X118000962Y-94674500D01*
X116449038Y-94674500D01*
X116324626Y-94694205D01*
X116200214Y-94713910D01*
X115960616Y-94791760D01*
X115736151Y-94906132D01*
X115591330Y-95011350D01*
X115525524Y-95034830D01*
X115457470Y-95019004D01*
X115408775Y-94968898D01*
X115394445Y-94911032D01*
X115394445Y-87124994D01*
X117159357Y-87124994D01*
X117159357Y-87125005D01*
X117179890Y-87372812D01*
X117179892Y-87372824D01*
X117240936Y-87613881D01*
X117340826Y-87841606D01*
X117476833Y-88049782D01*
X117476836Y-88049785D01*
X117645256Y-88232738D01*
X117841491Y-88385474D01*
X117841493Y-88385475D01*
X118054038Y-88500499D01*
X118060190Y-88503828D01*
X118295386Y-88584571D01*
X118540665Y-88625500D01*
X118789335Y-88625500D01*
X119034614Y-88584571D01*
X119269810Y-88503828D01*
X119488509Y-88385474D01*
X119684744Y-88232738D01*
X119853164Y-88049785D01*
X119989173Y-87841607D01*
X120089063Y-87613881D01*
X120150108Y-87372821D01*
X120153060Y-87337194D01*
X120170643Y-87125005D01*
X120170643Y-87125000D01*
X120170170Y-87119299D01*
X120184247Y-87050865D01*
X120233089Y-87000902D01*
X120301189Y-86985278D01*
X120366926Y-87008951D01*
X120381427Y-87021373D01*
X121700324Y-88340271D01*
X121700331Y-88340277D01*
X121806871Y-88411464D01*
X121806870Y-88411464D01*
X121841544Y-88425826D01*
X121925256Y-88460501D01*
X121925260Y-88460501D01*
X121925261Y-88460502D01*
X122050928Y-88485500D01*
X122050931Y-88485500D01*
X135349071Y-88485500D01*
X135433615Y-88468682D01*
X135474744Y-88460501D01*
X135593127Y-88411465D01*
X135603735Y-88404376D01*
X135630646Y-88386397D01*
X135688155Y-88368390D01*
X135687923Y-88366180D01*
X135694389Y-88365500D01*
X135694391Y-88365500D01*
X135869267Y-88328329D01*
X136032593Y-88255612D01*
X136177230Y-88150526D01*
X136296859Y-88017665D01*
X136386250Y-87862835D01*
X136441497Y-87692803D01*
X136460185Y-87515000D01*
X136441497Y-87337197D01*
X136391883Y-87184500D01*
X136386252Y-87167170D01*
X136386249Y-87167164D01*
X136377411Y-87151856D01*
X136296859Y-87012335D01*
X136209085Y-86914852D01*
X136177235Y-86879478D01*
X136177232Y-86879476D01*
X136177231Y-86879475D01*
X136177230Y-86879474D01*
X136032593Y-86774388D01*
X135869267Y-86701671D01*
X135869265Y-86701670D01*
X135741594Y-86674533D01*
X135694391Y-86664500D01*
X135515609Y-86664500D01*
X135484954Y-86671015D01*
X135340733Y-86701670D01*
X135340728Y-86701672D01*
X135177408Y-86774387D01*
X135032768Y-86879475D01*
X134913139Y-87012336D01*
X134849537Y-87122500D01*
X134798970Y-87170716D01*
X134742150Y-87184500D01*
X126807264Y-87184500D01*
X126740225Y-87164815D01*
X126694470Y-87112011D01*
X126684526Y-87042853D01*
X126689333Y-87022182D01*
X126707750Y-86965500D01*
X126726497Y-86907803D01*
X126745185Y-86730000D01*
X126726497Y-86552197D01*
X126671250Y-86382165D01*
X126581859Y-86227335D01*
X126535003Y-86175296D01*
X126462235Y-86094478D01*
X126462232Y-86094476D01*
X126462231Y-86094475D01*
X126462230Y-86094474D01*
X126317593Y-85989388D01*
X126154267Y-85916671D01*
X126154265Y-85916670D01*
X126026594Y-85889533D01*
X125979391Y-85879500D01*
X125979390Y-85879500D01*
X125930808Y-85879500D01*
X125863769Y-85859815D01*
X125843127Y-85843181D01*
X124079674Y-84079727D01*
X124079673Y-84079726D01*
X124050567Y-84060278D01*
X123973127Y-84008535D01*
X123854744Y-83959499D01*
X123854738Y-83959497D01*
X123729071Y-83934500D01*
X123729069Y-83934500D01*
X123006230Y-83934500D01*
X122939191Y-83914815D01*
X122893436Y-83862011D01*
X122883492Y-83792853D01*
X122912517Y-83729297D01*
X122918549Y-83722819D01*
X123264137Y-83377230D01*
X123420414Y-83220952D01*
X123481735Y-83187469D01*
X123495934Y-83185233D01*
X123531331Y-83181747D01*
X123710501Y-83127396D01*
X123875625Y-83039136D01*
X124020357Y-82920357D01*
X124139136Y-82775625D01*
X124227396Y-82610501D01*
X124281747Y-82431331D01*
X124300099Y-82245000D01*
X124281747Y-82058669D01*
X124227396Y-81879499D01*
X124184609Y-81799450D01*
X124139137Y-81714376D01*
X124139135Y-81714373D01*
X124020357Y-81569642D01*
X123875626Y-81450864D01*
X123875623Y-81450862D01*
X123710502Y-81362604D01*
X123531333Y-81308253D01*
X123531331Y-81308252D01*
X123380556Y-81293403D01*
X123345207Y-81279129D01*
X123320394Y-81291828D01*
X123309443Y-81293403D01*
X123158668Y-81308252D01*
X123158666Y-81308253D01*
X122979497Y-81362604D01*
X122814376Y-81450862D01*
X122814373Y-81450864D01*
X122669642Y-81569642D01*
X122550864Y-81714373D01*
X122550862Y-81714376D01*
X122462604Y-81879497D01*
X122408254Y-82058663D01*
X122408252Y-82058672D01*
X122406952Y-82071875D01*
X122380790Y-82136662D01*
X122371230Y-82147401D01*
X121890451Y-82628181D01*
X121829128Y-82661666D01*
X121802770Y-82664500D01*
X121010638Y-82664500D01*
X120943599Y-82644815D01*
X120905099Y-82605597D01*
X120837712Y-82496344D01*
X120713656Y-82372288D01*
X120564334Y-82280186D01*
X120397797Y-82225001D01*
X120397795Y-82225000D01*
X120295010Y-82214500D01*
X119494998Y-82214500D01*
X119494980Y-82214501D01*
X119392203Y-82225000D01*
X119392200Y-82225001D01*
X119225668Y-82280185D01*
X119225663Y-82280187D01*
X119076345Y-82372287D01*
X118982327Y-82466305D01*
X118921003Y-82499789D01*
X118851312Y-82494805D01*
X118806965Y-82466304D01*
X118713345Y-82372684D01*
X118564124Y-82280643D01*
X118564119Y-82280641D01*
X118397697Y-82225494D01*
X118397690Y-82225493D01*
X118294986Y-82215000D01*
X118145000Y-82215000D01*
X118145000Y-84614999D01*
X118294972Y-84614999D01*
X118294986Y-84614998D01*
X118397697Y-84604505D01*
X118564119Y-84549358D01*
X118564124Y-84549356D01*
X118713342Y-84457317D01*
X118806964Y-84363695D01*
X118868287Y-84330210D01*
X118937979Y-84335194D01*
X118982327Y-84363695D01*
X119076344Y-84457712D01*
X119225666Y-84549814D01*
X119392203Y-84604999D01*
X119494991Y-84615500D01*
X120295008Y-84615499D01*
X120295016Y-84615498D01*
X120295019Y-84615498D01*
X120351302Y-84609748D01*
X120397797Y-84604999D01*
X120516468Y-84565674D01*
X120586296Y-84563273D01*
X120646338Y-84599005D01*
X120677531Y-84661525D01*
X120678793Y-84670419D01*
X120688503Y-84762804D01*
X120688504Y-84762807D01*
X120743747Y-84932829D01*
X120743750Y-84932835D01*
X120833141Y-85087665D01*
X120856449Y-85113551D01*
X120880760Y-85140552D01*
X120910989Y-85203543D01*
X120902363Y-85272879D01*
X120857622Y-85326544D01*
X120790969Y-85347501D01*
X120738176Y-85336803D01*
X120659267Y-85301671D01*
X120659265Y-85301670D01*
X120518824Y-85271819D01*
X120484391Y-85264500D01*
X120305609Y-85264500D01*
X120274954Y-85271015D01*
X120130733Y-85301670D01*
X120130728Y-85301672D01*
X119967408Y-85374387D01*
X119822768Y-85479475D01*
X119703140Y-85612336D01*
X119613750Y-85767164D01*
X119611104Y-85773108D01*
X119609699Y-85772482D01*
X119574683Y-85823688D01*
X119510323Y-85850883D01*
X119441477Y-85838966D01*
X119437177Y-85836746D01*
X119269816Y-85746175D01*
X119269813Y-85746174D01*
X119269810Y-85746172D01*
X119269804Y-85746170D01*
X119269802Y-85746169D01*
X119034616Y-85665429D01*
X118789335Y-85624500D01*
X118540665Y-85624500D01*
X118295383Y-85665429D01*
X118060197Y-85746169D01*
X118060188Y-85746172D01*
X117841493Y-85864524D01*
X117645257Y-86017261D01*
X117476833Y-86200217D01*
X117340826Y-86408393D01*
X117240936Y-86636118D01*
X117179892Y-86877175D01*
X117179890Y-86877187D01*
X117159357Y-87124994D01*
X115394445Y-87124994D01*
X115394445Y-83914986D01*
X116795001Y-83914986D01*
X116805494Y-84017697D01*
X116860641Y-84184119D01*
X116860643Y-84184124D01*
X116952684Y-84333345D01*
X117076654Y-84457315D01*
X117225875Y-84549356D01*
X117225880Y-84549358D01*
X117392302Y-84604505D01*
X117392309Y-84604506D01*
X117495019Y-84614999D01*
X117644999Y-84614999D01*
X117645000Y-84614998D01*
X117645000Y-83665000D01*
X116795001Y-83665000D01*
X116795001Y-83914986D01*
X115394445Y-83914986D01*
X115394445Y-82915013D01*
X116795000Y-82915013D01*
X116795000Y-83165000D01*
X117645000Y-83165000D01*
X117645000Y-82215000D01*
X117495027Y-82215000D01*
X117495012Y-82215001D01*
X117392302Y-82225494D01*
X117225880Y-82280641D01*
X117225875Y-82280643D01*
X117076654Y-82372684D01*
X116952684Y-82496654D01*
X116860643Y-82645875D01*
X116860641Y-82645880D01*
X116805494Y-82812302D01*
X116805493Y-82812309D01*
X116795000Y-82915013D01*
X115394445Y-82915013D01*
X115394445Y-80014986D01*
X116795001Y-80014986D01*
X116805494Y-80117697D01*
X116860641Y-80284119D01*
X116860643Y-80284124D01*
X116952684Y-80433345D01*
X117076654Y-80557315D01*
X117225875Y-80649356D01*
X117225880Y-80649358D01*
X117392302Y-80704505D01*
X117392309Y-80704506D01*
X117495019Y-80714999D01*
X117644999Y-80714999D01*
X117645000Y-80714998D01*
X117645000Y-79765000D01*
X116795001Y-79765000D01*
X116795001Y-80014986D01*
X115394445Y-80014986D01*
X115394445Y-79015013D01*
X116795000Y-79015013D01*
X116795000Y-79265000D01*
X118021000Y-79265000D01*
X118088039Y-79284685D01*
X118133794Y-79337489D01*
X118145000Y-79389000D01*
X118145000Y-80714999D01*
X118294972Y-80714999D01*
X118294986Y-80714998D01*
X118397697Y-80704505D01*
X118564119Y-80649358D01*
X118564124Y-80649356D01*
X118713342Y-80557317D01*
X118806964Y-80463695D01*
X118868287Y-80430210D01*
X118937979Y-80435194D01*
X118982327Y-80463695D01*
X119076344Y-80557712D01*
X119225666Y-80649814D01*
X119392203Y-80704999D01*
X119494991Y-80715500D01*
X120295008Y-80715499D01*
X120295016Y-80715498D01*
X120295019Y-80715498D01*
X120351302Y-80709748D01*
X120397797Y-80704999D01*
X120564334Y-80649814D01*
X120713656Y-80557712D01*
X120837712Y-80433656D01*
X120905099Y-80324402D01*
X120957047Y-80277679D01*
X121010638Y-80265500D01*
X122311486Y-80265500D01*
X122378525Y-80285185D01*
X122424280Y-80337989D01*
X122430146Y-80353504D01*
X122462604Y-80460502D01*
X122550862Y-80625623D01*
X122550864Y-80625626D01*
X122669642Y-80770357D01*
X122814373Y-80889135D01*
X122814376Y-80889137D01*
X122888097Y-80928541D01*
X122979499Y-80977396D01*
X123119971Y-81020008D01*
X123158666Y-81031746D01*
X123158668Y-81031747D01*
X123309443Y-81046597D01*
X123344791Y-81060870D01*
X123369605Y-81048172D01*
X123380556Y-81046597D01*
X123531331Y-81031747D01*
X123710501Y-80977396D01*
X123875625Y-80889136D01*
X124020357Y-80770357D01*
X124139136Y-80625625D01*
X124227396Y-80460501D01*
X124281747Y-80281331D01*
X124300099Y-80095000D01*
X124281747Y-79908669D01*
X124227396Y-79729499D01*
X124145706Y-79576666D01*
X124139137Y-79564376D01*
X124139135Y-79564373D01*
X124020357Y-79419642D01*
X123875626Y-79300864D01*
X123875623Y-79300862D01*
X123710502Y-79212604D01*
X123531333Y-79158253D01*
X123507029Y-79155859D01*
X123442243Y-79129697D01*
X123431505Y-79120137D01*
X123243421Y-78932052D01*
X123243414Y-78932046D01*
X123169729Y-78882812D01*
X123169729Y-78882813D01*
X123120491Y-78849913D01*
X122983917Y-78793343D01*
X122983907Y-78793340D01*
X122838920Y-78764500D01*
X122838918Y-78764500D01*
X121010638Y-78764500D01*
X120943599Y-78744815D01*
X120905099Y-78705597D01*
X120889002Y-78679499D01*
X120837712Y-78596344D01*
X120713656Y-78472288D01*
X120564334Y-78380186D01*
X120397797Y-78325001D01*
X120397795Y-78325000D01*
X120295016Y-78314500D01*
X120295009Y-78314500D01*
X120138279Y-78314500D01*
X120071240Y-78294815D01*
X120025485Y-78242011D01*
X120015541Y-78172853D01*
X120028370Y-78133089D01*
X120036670Y-78117200D01*
X120098909Y-77998049D01*
X120154886Y-77802418D01*
X120165500Y-77683037D01*
X120165499Y-76566964D01*
X120154886Y-76447582D01*
X120098909Y-76251951D01*
X120004698Y-76071593D01*
X119952684Y-76007803D01*
X119876109Y-75913890D01*
X119739402Y-75802421D01*
X119718407Y-75785302D01*
X119538049Y-75691091D01*
X119538048Y-75691090D01*
X119538045Y-75691089D01*
X119420829Y-75657550D01*
X119342418Y-75635114D01*
X119342415Y-75635113D01*
X119342413Y-75635113D01*
X119276102Y-75629217D01*
X119223037Y-75624500D01*
X119223032Y-75624500D01*
X118106971Y-75624500D01*
X118106965Y-75624500D01*
X118106964Y-75624501D01*
X118095316Y-75625536D01*
X117987584Y-75635113D01*
X117791954Y-75691089D01*
X117701772Y-75738196D01*
X117611593Y-75785302D01*
X117611591Y-75785303D01*
X117611590Y-75785304D01*
X117453890Y-75913890D01*
X117325304Y-76071590D01*
X117231089Y-76251954D01*
X117175114Y-76447583D01*
X117175113Y-76447586D01*
X117164500Y-76566966D01*
X117164500Y-77683028D01*
X117164501Y-77683034D01*
X117175113Y-77802415D01*
X117231089Y-77998045D01*
X117231090Y-77998047D01*
X117231091Y-77998049D01*
X117325302Y-78178407D01*
X117325304Y-78178410D01*
X117325305Y-78178411D01*
X117327865Y-78182296D01*
X117348316Y-78249106D01*
X117329400Y-78316366D01*
X117277124Y-78362723D01*
X117263330Y-78368231D01*
X117225884Y-78380640D01*
X117225875Y-78380643D01*
X117076654Y-78472684D01*
X116952684Y-78596654D01*
X116860643Y-78745875D01*
X116860641Y-78745880D01*
X116805494Y-78912302D01*
X116805493Y-78912309D01*
X116795000Y-79015013D01*
X115394445Y-79015013D01*
X115394445Y-72594396D01*
X115394761Y-72585547D01*
X115411126Y-72356799D01*
X115413644Y-72339288D01*
X115420361Y-72308416D01*
X115461454Y-72119528D01*
X115466436Y-72102565D01*
X115545034Y-71891844D01*
X115552380Y-71875760D01*
X115611450Y-71767584D01*
X115660167Y-71678366D01*
X115669725Y-71663495D01*
X115804512Y-71483446D01*
X115816083Y-71470094D01*
X115975121Y-71311060D01*
X115988478Y-71299486D01*
X116168525Y-71164706D01*
X116183391Y-71155151D01*
X116380798Y-71047362D01*
X116396876Y-71040020D01*
X116607605Y-70961423D01*
X116624563Y-70956444D01*
X116844329Y-70908637D01*
X116861826Y-70906121D01*
X116980787Y-70897613D01*
X117091175Y-70889719D01*
X117100021Y-70889403D01*
X117142595Y-70889403D01*
X117215800Y-70889403D01*
X117282839Y-70909088D01*
G37*
%TD.AperFunction*%
%TA.AperFunction,Conductor*%
G36*
X139168633Y-70909088D02*
G01*
X139189275Y-70925722D01*
X139870974Y-71607421D01*
X139839742Y-71620359D01*
X139716903Y-71702437D01*
X139612437Y-71806903D01*
X139530359Y-71929742D01*
X139517422Y-71960974D01*
X138792874Y-71236427D01*
X138745028Y-71296425D01*
X138613883Y-71523573D01*
X138518058Y-71767729D01*
X138459693Y-72023449D01*
X138459692Y-72023454D01*
X138440093Y-72284995D01*
X138440093Y-72285004D01*
X138459692Y-72546545D01*
X138459693Y-72546550D01*
X138518058Y-72802270D01*
X138613883Y-73046426D01*
X138613882Y-73046426D01*
X138745027Y-73273573D01*
X138792874Y-73333571D01*
X139517421Y-72609024D01*
X139530359Y-72640258D01*
X139612437Y-72763097D01*
X139716903Y-72867563D01*
X139839742Y-72949641D01*
X139870974Y-72962577D01*
X139145830Y-73687720D01*
X139146287Y-73692598D01*
X139182099Y-73736271D01*
X139190159Y-73805674D01*
X139159417Y-73868417D01*
X139137799Y-73887149D01*
X139100534Y-73912556D01*
X139100524Y-73912564D01*
X138908198Y-74091014D01*
X138744614Y-74296143D01*
X138613432Y-74523356D01*
X138517582Y-74767578D01*
X138517576Y-74767597D01*
X138459197Y-75023374D01*
X138459196Y-75023379D01*
X138439592Y-75284995D01*
X138439592Y-75285004D01*
X138459196Y-75546620D01*
X138459197Y-75546625D01*
X138517576Y-75802402D01*
X138517578Y-75802411D01*
X138517580Y-75802416D01*
X138613432Y-76046643D01*
X138744614Y-76273857D01*
X138865500Y-76425443D01*
X138908198Y-76478985D01*
X139059555Y-76619422D01*
X139100521Y-76657433D01*
X139317296Y-76805228D01*
X139317301Y-76805230D01*
X139317302Y-76805231D01*
X139317303Y-76805232D01*
X139442843Y-76865688D01*
X139553673Y-76919061D01*
X139553674Y-76919061D01*
X139553677Y-76919063D01*
X139804385Y-76996396D01*
X140063818Y-77035500D01*
X140326182Y-77035500D01*
X140585615Y-76996396D01*
X140836323Y-76919063D01*
X141072704Y-76805228D01*
X141289479Y-76657433D01*
X141481805Y-76478981D01*
X141645386Y-76273857D01*
X141776568Y-76046643D01*
X141872420Y-75802416D01*
X141930802Y-75546630D01*
X141950408Y-75285000D01*
X141936697Y-75102041D01*
X141930803Y-75023379D01*
X141930802Y-75023374D01*
X141930802Y-75023370D01*
X141872420Y-74767584D01*
X141776568Y-74523357D01*
X141645386Y-74296143D01*
X141481805Y-74091019D01*
X141481804Y-74091018D01*
X141481801Y-74091014D01*
X141357890Y-73976042D01*
X141289479Y-73912567D01*
X141260117Y-73892548D01*
X141252200Y-73887150D01*
X141207898Y-73833121D01*
X141199840Y-73763718D01*
X141230583Y-73700975D01*
X141244017Y-73689334D01*
X141244168Y-73687720D01*
X140519025Y-72962578D01*
X140550258Y-72949641D01*
X140673097Y-72867563D01*
X140777563Y-72763097D01*
X140859641Y-72640258D01*
X140872578Y-72609025D01*
X141597125Y-73333572D01*
X141644971Y-73273573D01*
X141776116Y-73046426D01*
X141871941Y-72802270D01*
X141930306Y-72546550D01*
X141930307Y-72546545D01*
X141949907Y-72285004D01*
X141949907Y-72284995D01*
X141930307Y-72023454D01*
X141930306Y-72023449D01*
X141871941Y-71767729D01*
X141776116Y-71523573D01*
X141776117Y-71523573D01*
X141644972Y-71296426D01*
X141597124Y-71236427D01*
X140872577Y-71960973D01*
X140859641Y-71929742D01*
X140777563Y-71806903D01*
X140673097Y-71702437D01*
X140550258Y-71620359D01*
X140519025Y-71607421D01*
X141200725Y-70925722D01*
X141262048Y-70892237D01*
X141288406Y-70889403D01*
X142811490Y-70889403D01*
X142878529Y-70909088D01*
X142924284Y-70961892D01*
X142934228Y-71031050D01*
X142908437Y-71090716D01*
X142908196Y-71091017D01*
X142908195Y-71091019D01*
X142853355Y-71159786D01*
X142744614Y-71296143D01*
X142613432Y-71523356D01*
X142517582Y-71767578D01*
X142517576Y-71767597D01*
X142459197Y-72023374D01*
X142459196Y-72023379D01*
X142439592Y-72284995D01*
X142439592Y-72285004D01*
X142459196Y-72546620D01*
X142459197Y-72546625D01*
X142517576Y-72802402D01*
X142517578Y-72802411D01*
X142517580Y-72802416D01*
X142613432Y-73046643D01*
X142744614Y-73273857D01*
X142863350Y-73422747D01*
X142908198Y-73478985D01*
X142951283Y-73518961D01*
X143100521Y-73657433D01*
X143127038Y-73675512D01*
X143137356Y-73682547D01*
X143181657Y-73736577D01*
X143189715Y-73805980D01*
X143158972Y-73868722D01*
X143137356Y-73887453D01*
X143100522Y-73912566D01*
X142908198Y-74091014D01*
X142744614Y-74296143D01*
X142613432Y-74523356D01*
X142517582Y-74767578D01*
X142517576Y-74767597D01*
X142459197Y-75023374D01*
X142459196Y-75023379D01*
X142439592Y-75284995D01*
X142439592Y-75285004D01*
X142459196Y-75546620D01*
X142459197Y-75546625D01*
X142517576Y-75802402D01*
X142517578Y-75802411D01*
X142517580Y-75802416D01*
X142613432Y-76046643D01*
X142744614Y-76273857D01*
X142865500Y-76425443D01*
X142908198Y-76478985D01*
X143059555Y-76619422D01*
X143100521Y-76657433D01*
X143317296Y-76805228D01*
X143317301Y-76805230D01*
X143317302Y-76805231D01*
X143317303Y-76805232D01*
X143442843Y-76865688D01*
X143553673Y-76919061D01*
X143553674Y-76919061D01*
X143553677Y-76919063D01*
X143804385Y-76996396D01*
X144063818Y-77035500D01*
X144326182Y-77035500D01*
X144585615Y-76996396D01*
X144836323Y-76919063D01*
X145072704Y-76805228D01*
X145289479Y-76657433D01*
X145481805Y-76478981D01*
X145645386Y-76273857D01*
X145776568Y-76046643D01*
X145872420Y-75802416D01*
X145930802Y-75546630D01*
X145950408Y-75285000D01*
X145936697Y-75102041D01*
X145930803Y-75023379D01*
X145930802Y-75023374D01*
X145930802Y-75023370D01*
X145872420Y-74767584D01*
X145776568Y-74523357D01*
X145645386Y-74296143D01*
X145481805Y-74091019D01*
X145481804Y-74091018D01*
X145481801Y-74091014D01*
X145289479Y-73912567D01*
X145260116Y-73892548D01*
X145252642Y-73887452D01*
X145208342Y-73833425D01*
X145200283Y-73764021D01*
X145231026Y-73701279D01*
X145252643Y-73682547D01*
X145289479Y-73657433D01*
X145481805Y-73478981D01*
X145645386Y-73273857D01*
X145776568Y-73046643D01*
X145872420Y-72802416D01*
X145930802Y-72546630D01*
X145930808Y-72546550D01*
X145950408Y-72285004D01*
X145950408Y-72284995D01*
X145930803Y-72023379D01*
X145930802Y-72023374D01*
X145930802Y-72023370D01*
X145872420Y-71767584D01*
X145776568Y-71523357D01*
X145645386Y-71296143D01*
X145481805Y-71091019D01*
X145481803Y-71091017D01*
X145481563Y-71090716D01*
X145455154Y-71026029D01*
X145467911Y-70957334D01*
X145515781Y-70906440D01*
X145578510Y-70889403D01*
X146811490Y-70889403D01*
X146878529Y-70909088D01*
X146924284Y-70961892D01*
X146934228Y-71031050D01*
X146908437Y-71090716D01*
X146908196Y-71091017D01*
X146908195Y-71091019D01*
X146853355Y-71159786D01*
X146744614Y-71296143D01*
X146613432Y-71523356D01*
X146517582Y-71767578D01*
X146517576Y-71767597D01*
X146459197Y-72023374D01*
X146459196Y-72023379D01*
X146439592Y-72284995D01*
X146439592Y-72285004D01*
X146459196Y-72546620D01*
X146459197Y-72546625D01*
X146517576Y-72802402D01*
X146517578Y-72802411D01*
X146517580Y-72802416D01*
X146613432Y-73046643D01*
X146744614Y-73273857D01*
X146863350Y-73422747D01*
X146908198Y-73478985D01*
X146951283Y-73518961D01*
X147100521Y-73657433D01*
X147127038Y-73675512D01*
X147137356Y-73682547D01*
X147181657Y-73736577D01*
X147189715Y-73805980D01*
X147158972Y-73868722D01*
X147137356Y-73887453D01*
X147100522Y-73912566D01*
X146908198Y-74091014D01*
X146744614Y-74296143D01*
X146613432Y-74523356D01*
X146517582Y-74767578D01*
X146517576Y-74767597D01*
X146459197Y-75023374D01*
X146459196Y-75023379D01*
X146439592Y-75284995D01*
X146439592Y-75285004D01*
X146459196Y-75546620D01*
X146459197Y-75546625D01*
X146517576Y-75802402D01*
X146517578Y-75802411D01*
X146517580Y-75802416D01*
X146613432Y-76046643D01*
X146744614Y-76273857D01*
X146865500Y-76425443D01*
X146908198Y-76478985D01*
X147059555Y-76619422D01*
X147100521Y-76657433D01*
X147317296Y-76805228D01*
X147317301Y-76805230D01*
X147317302Y-76805231D01*
X147317303Y-76805232D01*
X147442843Y-76865688D01*
X147553673Y-76919061D01*
X147553674Y-76919061D01*
X147553677Y-76919063D01*
X147804385Y-76996396D01*
X148063818Y-77035500D01*
X148326182Y-77035500D01*
X148585615Y-76996396D01*
X148836323Y-76919063D01*
X149072704Y-76805228D01*
X149289479Y-76657433D01*
X149481805Y-76478981D01*
X149645386Y-76273857D01*
X149776568Y-76046643D01*
X149872420Y-75802416D01*
X149930802Y-75546630D01*
X149950408Y-75285000D01*
X149936697Y-75102041D01*
X149930803Y-75023379D01*
X149930802Y-75023374D01*
X149930802Y-75023370D01*
X149872420Y-74767584D01*
X149776568Y-74523357D01*
X149645386Y-74296143D01*
X149481805Y-74091019D01*
X149481804Y-74091018D01*
X149481801Y-74091014D01*
X149289479Y-73912567D01*
X149260116Y-73892548D01*
X149252642Y-73887452D01*
X149208342Y-73833425D01*
X149200283Y-73764021D01*
X149231026Y-73701279D01*
X149252643Y-73682547D01*
X149289479Y-73657433D01*
X149481805Y-73478981D01*
X149645386Y-73273857D01*
X149776568Y-73046643D01*
X149872420Y-72802416D01*
X149930802Y-72546630D01*
X149930808Y-72546550D01*
X149950408Y-72285004D01*
X149950408Y-72284995D01*
X149930803Y-72023379D01*
X149930802Y-72023374D01*
X149930802Y-72023370D01*
X149872420Y-71767584D01*
X149776568Y-71523357D01*
X149645386Y-71296143D01*
X149481805Y-71091019D01*
X149481803Y-71091017D01*
X149481563Y-71090716D01*
X149455154Y-71026029D01*
X149467911Y-70957334D01*
X149515781Y-70906440D01*
X149578510Y-70889403D01*
X150320500Y-70889403D01*
X150387539Y-70909088D01*
X150433294Y-70961892D01*
X150444500Y-71013403D01*
X150444500Y-73582870D01*
X150444501Y-73582876D01*
X150450908Y-73642483D01*
X150501202Y-73777328D01*
X150501206Y-73777335D01*
X150587452Y-73892544D01*
X150587455Y-73892547D01*
X150702664Y-73978793D01*
X150702673Y-73978798D01*
X150749634Y-73996313D01*
X150769800Y-74003834D01*
X150825734Y-74045704D01*
X150850152Y-74111168D01*
X150835301Y-74179441D01*
X150823415Y-74197328D01*
X150744616Y-74296139D01*
X150613432Y-74523356D01*
X150517582Y-74767578D01*
X150517576Y-74767597D01*
X150459197Y-75023374D01*
X150459196Y-75023379D01*
X150439592Y-75284995D01*
X150439592Y-75285004D01*
X150459196Y-75546620D01*
X150459197Y-75546625D01*
X150517576Y-75802402D01*
X150517578Y-75802411D01*
X150517580Y-75802416D01*
X150613432Y-76046643D01*
X150744614Y-76273857D01*
X150865500Y-76425443D01*
X150908198Y-76478985D01*
X151059555Y-76619422D01*
X151100521Y-76657433D01*
X151317296Y-76805228D01*
X151317301Y-76805230D01*
X151317302Y-76805231D01*
X151317303Y-76805232D01*
X151442843Y-76865688D01*
X151553673Y-76919061D01*
X151553674Y-76919061D01*
X151553677Y-76919063D01*
X151804385Y-76996396D01*
X152063818Y-77035500D01*
X152326182Y-77035500D01*
X152585615Y-76996396D01*
X152836323Y-76919063D01*
X153072704Y-76805228D01*
X153289479Y-76657433D01*
X153481805Y-76478981D01*
X153645386Y-76273857D01*
X153776568Y-76046643D01*
X153872420Y-75802416D01*
X153930802Y-75546630D01*
X153950408Y-75285000D01*
X153936697Y-75102041D01*
X153930803Y-75023379D01*
X153930802Y-75023374D01*
X153930802Y-75023370D01*
X153872420Y-74767584D01*
X153776568Y-74523357D01*
X153645386Y-74296143D01*
X153566583Y-74197327D01*
X153540176Y-74132642D01*
X153552932Y-74063947D01*
X153600802Y-74013053D01*
X153620188Y-74003838D01*
X153687331Y-73978796D01*
X153802546Y-73892546D01*
X153877859Y-73791940D01*
X153933790Y-73750072D01*
X154003481Y-73745088D01*
X154064804Y-73778573D01*
X154098289Y-73839896D01*
X154100897Y-73858767D01*
X154119786Y-74171038D01*
X154178667Y-74492341D01*
X154275835Y-74804164D01*
X154275839Y-74804175D01*
X154409897Y-75102041D01*
X154409898Y-75102043D01*
X154578881Y-75381576D01*
X154726476Y-75569968D01*
X155868708Y-74427736D01*
X155965967Y-74561602D01*
X156088398Y-74684033D01*
X156222262Y-74781290D01*
X155080030Y-75923522D01*
X155080030Y-75923523D01*
X155268423Y-76071118D01*
X155547956Y-76240101D01*
X155547958Y-76240102D01*
X155845824Y-76374160D01*
X155845835Y-76374164D01*
X156157658Y-76471332D01*
X156478961Y-76530213D01*
X156805000Y-76549934D01*
X157131038Y-76530213D01*
X157452341Y-76471332D01*
X157764164Y-76374164D01*
X157764175Y-76374160D01*
X158062041Y-76240102D01*
X158062043Y-76240101D01*
X158341586Y-76071112D01*
X158529968Y-75923523D01*
X158529968Y-75923522D01*
X157387737Y-74781290D01*
X157521602Y-74684033D01*
X157644033Y-74561602D01*
X157741290Y-74427737D01*
X158883522Y-75569968D01*
X158883523Y-75569968D01*
X159031112Y-75381586D01*
X159200101Y-75102043D01*
X159200102Y-75102041D01*
X159334160Y-74804175D01*
X159334164Y-74804164D01*
X159431332Y-74492341D01*
X159490213Y-74171038D01*
X159509934Y-73845000D01*
X159490213Y-73518961D01*
X159431332Y-73197658D01*
X159334164Y-72885835D01*
X159334160Y-72885824D01*
X159200102Y-72587958D01*
X159200101Y-72587956D01*
X159031118Y-72308423D01*
X158883522Y-72120030D01*
X157741290Y-73262261D01*
X157644033Y-73128398D01*
X157521602Y-73005967D01*
X157387736Y-72908709D01*
X158529968Y-71766476D01*
X158341576Y-71618881D01*
X158062043Y-71449898D01*
X158062041Y-71449897D01*
X157764175Y-71315839D01*
X157764164Y-71315835D01*
X157452341Y-71218667D01*
X157131038Y-71159786D01*
X156805000Y-71140065D01*
X156478961Y-71159786D01*
X156157658Y-71218667D01*
X155845835Y-71315835D01*
X155845824Y-71315839D01*
X155547958Y-71449897D01*
X155547956Y-71449898D01*
X155268422Y-71618881D01*
X155268416Y-71618886D01*
X155080030Y-71766474D01*
X155080029Y-71766476D01*
X156222262Y-72908709D01*
X156088398Y-73005967D01*
X155965967Y-73128398D01*
X155868709Y-73262262D01*
X154726476Y-72120029D01*
X154726474Y-72120030D01*
X154578886Y-72308416D01*
X154578881Y-72308422D01*
X154409898Y-72587956D01*
X154409897Y-72587958D01*
X154275839Y-72885824D01*
X154275836Y-72885831D01*
X154187884Y-73168079D01*
X154149146Y-73226226D01*
X154085121Y-73254200D01*
X154016136Y-73243118D01*
X153964093Y-73196499D01*
X153945499Y-73131190D01*
X153945499Y-71013402D01*
X153965184Y-70946364D01*
X154017988Y-70900609D01*
X154069499Y-70889403D01*
X158088668Y-70889403D01*
X158097524Y-70889720D01*
X158119880Y-70891320D01*
X158326031Y-70906083D01*
X158343526Y-70908599D01*
X158563290Y-70956422D01*
X158580254Y-70961404D01*
X158790971Y-71040012D01*
X158807048Y-71047355D01*
X159004442Y-71155149D01*
X159019318Y-71164710D01*
X159135852Y-71251951D01*
X159199349Y-71299487D01*
X159212717Y-71311070D01*
X159371750Y-71470104D01*
X159383319Y-71483456D01*
X159518107Y-71663509D01*
X159527668Y-71678386D01*
X159635451Y-71875766D01*
X159642800Y-71891857D01*
X159721399Y-72102565D01*
X159726384Y-72119538D01*
X159774203Y-72339295D01*
X159776721Y-72356805D01*
X159793128Y-72585978D01*
X159793445Y-72594833D01*
X159793445Y-98475422D01*
X159773760Y-98542461D01*
X159720956Y-98588216D01*
X159651798Y-98598160D01*
X159588242Y-98569135D01*
X159577295Y-98558394D01*
X159497235Y-98469478D01*
X159497232Y-98469476D01*
X159497231Y-98469475D01*
X159497230Y-98469474D01*
X159352593Y-98364388D01*
X159189267Y-98291671D01*
X159189265Y-98291670D01*
X159052473Y-98262594D01*
X159024989Y-98256752D01*
X158963508Y-98223561D01*
X158963090Y-98223144D01*
X158354480Y-97614534D01*
X158320995Y-97553211D01*
X158325979Y-97483519D01*
X158367851Y-97427586D01*
X158370981Y-97425319D01*
X158516401Y-97323495D01*
X158683495Y-97156401D01*
X158819035Y-96962830D01*
X158918903Y-96748663D01*
X158980063Y-96520408D01*
X159000659Y-96285000D01*
X158980063Y-96049592D01*
X158918903Y-95821337D01*
X158819035Y-95607171D01*
X158774341Y-95543340D01*
X158683494Y-95413597D01*
X158516402Y-95246506D01*
X158516396Y-95246501D01*
X158330842Y-95116575D01*
X158287217Y-95061998D01*
X158280023Y-94992500D01*
X158311546Y-94930145D01*
X158330842Y-94913425D01*
X158375290Y-94882302D01*
X158516401Y-94783495D01*
X158683495Y-94616401D01*
X158819035Y-94422830D01*
X158918903Y-94208663D01*
X158980063Y-93980408D01*
X159000659Y-93745000D01*
X158980063Y-93509592D01*
X158918903Y-93281337D01*
X158819035Y-93067171D01*
X158806862Y-93049785D01*
X158683494Y-92873597D01*
X158516402Y-92706506D01*
X158516396Y-92706501D01*
X158330842Y-92576575D01*
X158287217Y-92521998D01*
X158280023Y-92452500D01*
X158311546Y-92390145D01*
X158330842Y-92373425D01*
X158364422Y-92349912D01*
X158516401Y-92243495D01*
X158683495Y-92076401D01*
X158819035Y-91882830D01*
X158918903Y-91668663D01*
X158980063Y-91440408D01*
X159000659Y-91205000D01*
X158980063Y-90969592D01*
X158918903Y-90741337D01*
X158819035Y-90527171D01*
X158731625Y-90402335D01*
X158683494Y-90333597D01*
X158516402Y-90166506D01*
X158516396Y-90166501D01*
X158330842Y-90036575D01*
X158287217Y-89981998D01*
X158280023Y-89912500D01*
X158311546Y-89850145D01*
X158330842Y-89833425D01*
X158353026Y-89817891D01*
X158516401Y-89703495D01*
X158683495Y-89536401D01*
X158819035Y-89342830D01*
X158918903Y-89128663D01*
X158980063Y-88900408D01*
X159000659Y-88665000D01*
X158980063Y-88429592D01*
X158918903Y-88201337D01*
X158819035Y-87987171D01*
X158801919Y-87962727D01*
X158683496Y-87793600D01*
X158682666Y-87792770D01*
X158561567Y-87671671D01*
X158528084Y-87610351D01*
X158533068Y-87540659D01*
X158574939Y-87484725D01*
X158605915Y-87467810D01*
X158737331Y-87418796D01*
X158852546Y-87332546D01*
X158938796Y-87217331D01*
X158989091Y-87082483D01*
X158995500Y-87022873D01*
X158995499Y-85227128D01*
X158989091Y-85167517D01*
X158959307Y-85087663D01*
X158938797Y-85032671D01*
X158938793Y-85032664D01*
X158852547Y-84917455D01*
X158852544Y-84917452D01*
X158737335Y-84831206D01*
X158737328Y-84831202D01*
X158602482Y-84780908D01*
X158602483Y-84780908D01*
X158542883Y-84774501D01*
X158542881Y-84774500D01*
X158542873Y-84774500D01*
X158542864Y-84774500D01*
X156747129Y-84774500D01*
X156747123Y-84774501D01*
X156687516Y-84780908D01*
X156552671Y-84831202D01*
X156552664Y-84831206D01*
X156437455Y-84917452D01*
X156437452Y-84917455D01*
X156351206Y-85032664D01*
X156351202Y-85032671D01*
X156300908Y-85167517D01*
X156294501Y-85227116D01*
X156294501Y-85227123D01*
X156294500Y-85227135D01*
X156294500Y-87022870D01*
X156294501Y-87022876D01*
X156300908Y-87082483D01*
X156351202Y-87217328D01*
X156351206Y-87217335D01*
X156437452Y-87332544D01*
X156437455Y-87332547D01*
X156552664Y-87418793D01*
X156552671Y-87418797D01*
X156684081Y-87467810D01*
X156740015Y-87509681D01*
X156764432Y-87575145D01*
X156749580Y-87643418D01*
X156728430Y-87671673D01*
X156606503Y-87793600D01*
X156470965Y-87987169D01*
X156470964Y-87987171D01*
X156371098Y-88201335D01*
X156371094Y-88201344D01*
X156309938Y-88429586D01*
X156309936Y-88429596D01*
X156289341Y-88664999D01*
X156289341Y-88665000D01*
X156309936Y-88900403D01*
X156309938Y-88900413D01*
X156371094Y-89128655D01*
X156371096Y-89128659D01*
X156371097Y-89128663D01*
X156396343Y-89182803D01*
X156470965Y-89342830D01*
X156470967Y-89342834D01*
X156514975Y-89405683D01*
X156595108Y-89520125D01*
X156606501Y-89536395D01*
X156606506Y-89536402D01*
X156773597Y-89703493D01*
X156773603Y-89703498D01*
X156959158Y-89833425D01*
X157002783Y-89888002D01*
X157009977Y-89957500D01*
X156978454Y-90019855D01*
X156959158Y-90036575D01*
X156773597Y-90166505D01*
X156606505Y-90333597D01*
X156470965Y-90527169D01*
X156470964Y-90527171D01*
X156371098Y-90741335D01*
X156371094Y-90741344D01*
X156309938Y-90969586D01*
X156309936Y-90969596D01*
X156289341Y-91204999D01*
X156289341Y-91205000D01*
X156309936Y-91440403D01*
X156309938Y-91440413D01*
X156371094Y-91668655D01*
X156371096Y-91668659D01*
X156371097Y-91668663D01*
X156394257Y-91718329D01*
X156470965Y-91882830D01*
X156470967Y-91882834D01*
X156606501Y-92076395D01*
X156606506Y-92076402D01*
X156773597Y-92243493D01*
X156773603Y-92243498D01*
X156959158Y-92373425D01*
X157002783Y-92428002D01*
X157009977Y-92497500D01*
X156978454Y-92559855D01*
X156959158Y-92576575D01*
X156773597Y-92706505D01*
X156606505Y-92873597D01*
X156470965Y-93067169D01*
X156470964Y-93067171D01*
X156371098Y-93281335D01*
X156371094Y-93281344D01*
X156309938Y-93509586D01*
X156309936Y-93509596D01*
X156289341Y-93744999D01*
X156289341Y-93745000D01*
X156309936Y-93980403D01*
X156309938Y-93980413D01*
X156371094Y-94208655D01*
X156371096Y-94208659D01*
X156371097Y-94208663D01*
X156455890Y-94390501D01*
X156470965Y-94422830D01*
X156470967Y-94422834D01*
X156606501Y-94616395D01*
X156606506Y-94616402D01*
X156773597Y-94783493D01*
X156773603Y-94783498D01*
X156959158Y-94913425D01*
X157002783Y-94968002D01*
X157009977Y-95037500D01*
X156978454Y-95099855D01*
X156959158Y-95116575D01*
X156773597Y-95246505D01*
X156606505Y-95413597D01*
X156470965Y-95607169D01*
X156470964Y-95607171D01*
X156371098Y-95821335D01*
X156371094Y-95821344D01*
X156309938Y-96049586D01*
X156309936Y-96049596D01*
X156289341Y-96284999D01*
X156289341Y-96285000D01*
X156309936Y-96520403D01*
X156309938Y-96520413D01*
X156371094Y-96748655D01*
X156371096Y-96748659D01*
X156371097Y-96748663D01*
X156373227Y-96753230D01*
X156470964Y-96962829D01*
X156470965Y-96962830D01*
X156538568Y-97059377D01*
X156560895Y-97125582D01*
X156543885Y-97193350D01*
X156492937Y-97241163D01*
X156436993Y-97254500D01*
X152249500Y-97254500D01*
X152182461Y-97234815D01*
X152136706Y-97182011D01*
X152125500Y-97130500D01*
X152125500Y-95347286D01*
X152125499Y-95347272D01*
X152119105Y-95298706D01*
X152110687Y-95234764D01*
X152052698Y-95094767D01*
X151960451Y-94974549D01*
X151840233Y-94882302D01*
X151840229Y-94882300D01*
X151768712Y-94852677D01*
X151700236Y-94824313D01*
X151686171Y-94822461D01*
X151587727Y-94809500D01*
X151587720Y-94809500D01*
X151062280Y-94809500D01*
X151062272Y-94809500D01*
X150949764Y-94824313D01*
X150949763Y-94824313D01*
X150809766Y-94882301D01*
X150765486Y-94916279D01*
X150700316Y-94941473D01*
X150631871Y-94927434D01*
X150614514Y-94916279D01*
X150570233Y-94882301D01*
X150471239Y-94841297D01*
X150430236Y-94824313D01*
X150416171Y-94822461D01*
X150317727Y-94809500D01*
X150317720Y-94809500D01*
X149792280Y-94809500D01*
X149792272Y-94809500D01*
X149679764Y-94824313D01*
X149679763Y-94824313D01*
X149539766Y-94882301D01*
X149495486Y-94916279D01*
X149430316Y-94941473D01*
X149361871Y-94927434D01*
X149344514Y-94916279D01*
X149300233Y-94882301D01*
X149201239Y-94841297D01*
X149160236Y-94824313D01*
X149146171Y-94822461D01*
X149047727Y-94809500D01*
X149047720Y-94809500D01*
X148522280Y-94809500D01*
X148522272Y-94809500D01*
X148409764Y-94824313D01*
X148409763Y-94824313D01*
X148269766Y-94882301D01*
X148225486Y-94916279D01*
X148160316Y-94941473D01*
X148091871Y-94927434D01*
X148074514Y-94916279D01*
X148030233Y-94882301D01*
X147931239Y-94841297D01*
X147890236Y-94824313D01*
X147876171Y-94822461D01*
X147777727Y-94809500D01*
X147777720Y-94809500D01*
X147252280Y-94809500D01*
X147252272Y-94809500D01*
X147139764Y-94824313D01*
X147139763Y-94824313D01*
X146999766Y-94882301D01*
X146955486Y-94916279D01*
X146890316Y-94941473D01*
X146821871Y-94927434D01*
X146804514Y-94916279D01*
X146760233Y-94882301D01*
X146661239Y-94841297D01*
X146620236Y-94824313D01*
X146606171Y-94822461D01*
X146507727Y-94809500D01*
X146507720Y-94809500D01*
X145982280Y-94809500D01*
X145982272Y-94809500D01*
X145869764Y-94824313D01*
X145869763Y-94824313D01*
X145729766Y-94882301D01*
X145685486Y-94916279D01*
X145620316Y-94941473D01*
X145551871Y-94927434D01*
X145534514Y-94916279D01*
X145490233Y-94882301D01*
X145391239Y-94841297D01*
X145350236Y-94824313D01*
X145336171Y-94822461D01*
X145237727Y-94809500D01*
X145237720Y-94809500D01*
X144712280Y-94809500D01*
X144712272Y-94809500D01*
X144599764Y-94824313D01*
X144599763Y-94824313D01*
X144459766Y-94882301D01*
X144415486Y-94916279D01*
X144350316Y-94941473D01*
X144281871Y-94927434D01*
X144264514Y-94916279D01*
X144220233Y-94882301D01*
X144121239Y-94841297D01*
X144080236Y-94824313D01*
X144066171Y-94822461D01*
X143967727Y-94809500D01*
X143967720Y-94809500D01*
X143442280Y-94809500D01*
X143442272Y-94809500D01*
X143329764Y-94824313D01*
X143329763Y-94824313D01*
X143189766Y-94882301D01*
X143145486Y-94916279D01*
X143080316Y-94941473D01*
X143011871Y-94927434D01*
X142994514Y-94916279D01*
X142950233Y-94882301D01*
X142851239Y-94841297D01*
X142810236Y-94824313D01*
X142796171Y-94822461D01*
X142697727Y-94809500D01*
X142697720Y-94809500D01*
X142172280Y-94809500D01*
X142172274Y-94809500D01*
X142172270Y-94809501D01*
X142055685Y-94824850D01*
X141986650Y-94814084D01*
X141934394Y-94767705D01*
X141915500Y-94701911D01*
X141915500Y-90931079D01*
X141902261Y-90864526D01*
X141886659Y-90786088D01*
X141832408Y-90655117D01*
X141830765Y-90650526D01*
X141830084Y-90649508D01*
X141830084Y-90649506D01*
X141830084Y-90649505D01*
X141768385Y-90557165D01*
X141747952Y-90526585D01*
X141747950Y-90526582D01*
X139101819Y-87880451D01*
X139068334Y-87819128D01*
X139065500Y-87792770D01*
X139065500Y-83377230D01*
X139085185Y-83310191D01*
X139101819Y-83289549D01*
X139319549Y-83071819D01*
X139380872Y-83038334D01*
X139407230Y-83035500D01*
X139670411Y-83035500D01*
X139737450Y-83055185D01*
X139783205Y-83107989D01*
X139793700Y-83172758D01*
X139790000Y-83207160D01*
X139790000Y-83305000D01*
X141291000Y-83305000D01*
X141358039Y-83324685D01*
X141403794Y-83377489D01*
X141415000Y-83429000D01*
X141415000Y-83681000D01*
X141395315Y-83748039D01*
X141342511Y-83793794D01*
X141291000Y-83805000D01*
X139790000Y-83805000D01*
X139790000Y-83902844D01*
X139796401Y-83962372D01*
X139796403Y-83962379D01*
X139846645Y-84097086D01*
X139846648Y-84097092D01*
X139860259Y-84115274D01*
X139884675Y-84180739D01*
X139869822Y-84249012D01*
X139860260Y-84263892D01*
X139846203Y-84282670D01*
X139846202Y-84282671D01*
X139800474Y-84405277D01*
X139795909Y-84417517D01*
X139789500Y-84477127D01*
X139789500Y-84477134D01*
X139789500Y-84477135D01*
X139789500Y-85172870D01*
X139789501Y-85172876D01*
X139795908Y-85232483D01*
X139846202Y-85367328D01*
X139846206Y-85367335D01*
X139932452Y-85482544D01*
X139932455Y-85482547D01*
X140047664Y-85568793D01*
X140047671Y-85568797D01*
X140092618Y-85585561D01*
X140182517Y-85619091D01*
X140242127Y-85625500D01*
X140377124Y-85625499D01*
X140444163Y-85645183D01*
X140489918Y-85697987D01*
X140499862Y-85767145D01*
X140475501Y-85824984D01*
X140437301Y-85874767D01*
X140437300Y-85874769D01*
X140379313Y-86014763D01*
X140379313Y-86014764D01*
X140364500Y-86127272D01*
X140364500Y-87962727D01*
X140375962Y-88049782D01*
X140379313Y-88075236D01*
X140437302Y-88215233D01*
X140529549Y-88335451D01*
X140649767Y-88427698D01*
X140789764Y-88485687D01*
X140896586Y-88499750D01*
X140898474Y-88499999D01*
X140902280Y-88500500D01*
X140902287Y-88500500D01*
X141427713Y-88500500D01*
X141427720Y-88500500D01*
X141540236Y-88485687D01*
X141680233Y-88427698D01*
X141724514Y-88393720D01*
X141789683Y-88368526D01*
X141858128Y-88382564D01*
X141875486Y-88393720D01*
X141919767Y-88427698D01*
X142059764Y-88485687D01*
X142166586Y-88499750D01*
X142168474Y-88499999D01*
X142172280Y-88500500D01*
X142172287Y-88500500D01*
X142697713Y-88500500D01*
X142697720Y-88500500D01*
X142810236Y-88485687D01*
X142950233Y-88427698D01*
X142994514Y-88393720D01*
X143059683Y-88368526D01*
X143128128Y-88382564D01*
X143145486Y-88393720D01*
X143189767Y-88427698D01*
X143329764Y-88485687D01*
X143436586Y-88499750D01*
X143438474Y-88499999D01*
X143442280Y-88500500D01*
X143442287Y-88500500D01*
X143967713Y-88500500D01*
X143967720Y-88500500D01*
X144080236Y-88485687D01*
X144220233Y-88427698D01*
X144264514Y-88393720D01*
X144329683Y-88368526D01*
X144398128Y-88382564D01*
X144415486Y-88393720D01*
X144459767Y-88427698D01*
X144599764Y-88485687D01*
X144706586Y-88499750D01*
X144708474Y-88499999D01*
X144712280Y-88500500D01*
X144712287Y-88500500D01*
X145237713Y-88500500D01*
X145237720Y-88500500D01*
X145350236Y-88485687D01*
X145490233Y-88427698D01*
X145534514Y-88393720D01*
X145599683Y-88368526D01*
X145668128Y-88382564D01*
X145685486Y-88393720D01*
X145729767Y-88427698D01*
X145869764Y-88485687D01*
X145976586Y-88499750D01*
X145978474Y-88499999D01*
X145982280Y-88500500D01*
X145982287Y-88500500D01*
X146507713Y-88500500D01*
X146507720Y-88500500D01*
X146620236Y-88485687D01*
X146760233Y-88427698D01*
X146804514Y-88393720D01*
X146869683Y-88368526D01*
X146938128Y-88382564D01*
X146955486Y-88393720D01*
X146999767Y-88427698D01*
X147139764Y-88485687D01*
X147246586Y-88499750D01*
X147248474Y-88499999D01*
X147252280Y-88500500D01*
X147252287Y-88500500D01*
X147777713Y-88500500D01*
X147777720Y-88500500D01*
X147890236Y-88485687D01*
X147963048Y-88455526D01*
X148032516Y-88448058D01*
X148094995Y-88479333D01*
X148130648Y-88539422D01*
X148134500Y-88570088D01*
X148134500Y-88696770D01*
X148128431Y-88735088D01*
X148098504Y-88827192D01*
X148098503Y-88827194D01*
X148079815Y-89005000D01*
X148098503Y-89182805D01*
X148098504Y-89182807D01*
X148153747Y-89352829D01*
X148153750Y-89352835D01*
X148243141Y-89507665D01*
X148269010Y-89536395D01*
X148362764Y-89640521D01*
X148362767Y-89640523D01*
X148362770Y-89640526D01*
X148507407Y-89745612D01*
X148670733Y-89818329D01*
X148845609Y-89855500D01*
X148845610Y-89855500D01*
X149024389Y-89855500D01*
X149024391Y-89855500D01*
X149199267Y-89818329D01*
X149362593Y-89745612D01*
X149507230Y-89640526D01*
X149615642Y-89520122D01*
X149675125Y-89483477D01*
X149744982Y-89484806D01*
X149795470Y-89515416D01*
X151226371Y-90946317D01*
X151259856Y-91007640D01*
X151262010Y-91021031D01*
X151268503Y-91082803D01*
X151268504Y-91082805D01*
X151268504Y-91082807D01*
X151323747Y-91252829D01*
X151323750Y-91252835D01*
X151413141Y-91407665D01*
X151442619Y-91440403D01*
X151532764Y-91540521D01*
X151532767Y-91540523D01*
X151532770Y-91540526D01*
X151677407Y-91645612D01*
X151840733Y-91718329D01*
X152015609Y-91755500D01*
X152015610Y-91755500D01*
X152194389Y-91755500D01*
X152194391Y-91755500D01*
X152369267Y-91718329D01*
X152532593Y-91645612D01*
X152677230Y-91540526D01*
X152796859Y-91407665D01*
X152886250Y-91252835D01*
X152941497Y-91082803D01*
X152960185Y-90905000D01*
X152941497Y-90727197D01*
X152886250Y-90557165D01*
X152796859Y-90402335D01*
X152734967Y-90333597D01*
X152677235Y-90269478D01*
X152677232Y-90269476D01*
X152677231Y-90269475D01*
X152677230Y-90269474D01*
X152532593Y-90164388D01*
X152369267Y-90091671D01*
X152369265Y-90091670D01*
X152232473Y-90062594D01*
X152204989Y-90056752D01*
X152143508Y-90023561D01*
X152143090Y-90023144D01*
X150802174Y-88682228D01*
X150768689Y-88620905D01*
X150773673Y-88551213D01*
X150815545Y-88495280D01*
X150881009Y-88470863D01*
X150937308Y-88479986D01*
X150949895Y-88485199D01*
X151062302Y-88499999D01*
X151062317Y-88500000D01*
X151075000Y-88500000D01*
X151575000Y-88500000D01*
X151587683Y-88500000D01*
X151587697Y-88499999D01*
X151700104Y-88485199D01*
X151700108Y-88485198D01*
X151839978Y-88427263D01*
X151960094Y-88335094D01*
X152052263Y-88214978D01*
X152110198Y-88075108D01*
X152110199Y-88075104D01*
X152124999Y-87962697D01*
X152125000Y-87962683D01*
X152125000Y-87295000D01*
X151575000Y-87295000D01*
X151575000Y-88500000D01*
X151075000Y-88500000D01*
X151075000Y-86795000D01*
X151575000Y-86795000D01*
X152125000Y-86795000D01*
X152125000Y-86127316D01*
X152124999Y-86127302D01*
X152110199Y-86014895D01*
X152110198Y-86014891D01*
X152052263Y-85875021D01*
X151960094Y-85754905D01*
X151839978Y-85662736D01*
X151700108Y-85604801D01*
X151700104Y-85604800D01*
X151587697Y-85590000D01*
X151575000Y-85590000D01*
X151575000Y-86795000D01*
X151075000Y-86795000D01*
X151075000Y-85590000D01*
X151062302Y-85590000D01*
X150949895Y-85604800D01*
X150949891Y-85604801D01*
X150810019Y-85662737D01*
X150765894Y-85696595D01*
X150700724Y-85721788D01*
X150632280Y-85707749D01*
X150614924Y-85696595D01*
X150570233Y-85662302D01*
X150570229Y-85662300D01*
X150506801Y-85636027D01*
X150430236Y-85604313D01*
X150416171Y-85602461D01*
X150317727Y-85589500D01*
X150317720Y-85589500D01*
X149792280Y-85589500D01*
X149792272Y-85589500D01*
X149679764Y-85604313D01*
X149679763Y-85604313D01*
X149539766Y-85662301D01*
X149495486Y-85696279D01*
X149430316Y-85721473D01*
X149361871Y-85707434D01*
X149344514Y-85696279D01*
X149300233Y-85662301D01*
X149183436Y-85613923D01*
X149160236Y-85604313D01*
X149146171Y-85602461D01*
X149047727Y-85589500D01*
X149047720Y-85589500D01*
X148522280Y-85589500D01*
X148522272Y-85589500D01*
X148409764Y-85604313D01*
X148409763Y-85604313D01*
X148269766Y-85662301D01*
X148225486Y-85696279D01*
X148160316Y-85721473D01*
X148091871Y-85707434D01*
X148074514Y-85696279D01*
X148023785Y-85657354D01*
X148025314Y-85655361D01*
X147985798Y-85613923D01*
X147972570Y-85545317D01*
X147996743Y-85482783D01*
X148083352Y-85367089D01*
X148083354Y-85367086D01*
X148133596Y-85232379D01*
X148133598Y-85232372D01*
X148139999Y-85172844D01*
X148140000Y-85172827D01*
X148140000Y-85075000D01*
X145390000Y-85075000D01*
X145390000Y-85172844D01*
X145396401Y-85232372D01*
X145396403Y-85232379D01*
X145446645Y-85367086D01*
X145446646Y-85367088D01*
X145478274Y-85409337D01*
X145502691Y-85474801D01*
X145487840Y-85543074D01*
X145438435Y-85592480D01*
X145370162Y-85607332D01*
X145358297Y-85605337D01*
X145358293Y-85605374D01*
X145350236Y-85604313D01*
X145330451Y-85601708D01*
X145237727Y-85589500D01*
X145237720Y-85589500D01*
X144712280Y-85589500D01*
X144712272Y-85589500D01*
X144599764Y-85604313D01*
X144599763Y-85604313D01*
X144459766Y-85662301D01*
X144415486Y-85696279D01*
X144350316Y-85721473D01*
X144281871Y-85707434D01*
X144264514Y-85696279D01*
X144220233Y-85662301D01*
X144103436Y-85613923D01*
X144080236Y-85604313D01*
X144066171Y-85602461D01*
X143967727Y-85589500D01*
X143967720Y-85589500D01*
X143807718Y-85589500D01*
X143740679Y-85569815D01*
X143694924Y-85517011D01*
X143684980Y-85447853D01*
X143689057Y-85429506D01*
X143690501Y-85424743D01*
X143715500Y-85299071D01*
X143715500Y-82864808D01*
X143735185Y-82797769D01*
X143787989Y-82752014D01*
X143857147Y-82742070D01*
X143920703Y-82771095D01*
X143927181Y-82777127D01*
X145210325Y-84060272D01*
X145210332Y-84060278D01*
X145299219Y-84119670D01*
X145299220Y-84119670D01*
X145316873Y-84131465D01*
X145344851Y-84143054D01*
X145367665Y-84152504D01*
X145422068Y-84196345D01*
X145444133Y-84262639D01*
X145436394Y-84310398D01*
X145396403Y-84417619D01*
X145396401Y-84417627D01*
X145390000Y-84477155D01*
X145390000Y-84575000D01*
X148163591Y-84575000D01*
X148230630Y-84594685D01*
X148262855Y-84624686D01*
X148287454Y-84657546D01*
X148324595Y-84685350D01*
X148402664Y-84743793D01*
X148402671Y-84743797D01*
X148537517Y-84794091D01*
X148537516Y-84794091D01*
X148544444Y-84794835D01*
X148597127Y-84800500D01*
X149592872Y-84800499D01*
X149652483Y-84794091D01*
X149787331Y-84743796D01*
X149787334Y-84743793D01*
X149794149Y-84740072D01*
X149862420Y-84725212D01*
X149927887Y-84749621D01*
X149941269Y-84761216D01*
X150020328Y-84840275D01*
X150094035Y-84889524D01*
X150094034Y-84889524D01*
X150118690Y-84905997D01*
X150126873Y-84911465D01*
X150245256Y-84960501D01*
X150245260Y-84960501D01*
X150245261Y-84960502D01*
X150370928Y-84985500D01*
X150370931Y-84985500D01*
X153239071Y-84985500D01*
X153323615Y-84968682D01*
X153364744Y-84960501D01*
X153483127Y-84911465D01*
X153515966Y-84889523D01*
X153589669Y-84840277D01*
X154310277Y-84119669D01*
X154381466Y-84013126D01*
X154430501Y-83894743D01*
X154455500Y-83769069D01*
X154455500Y-83640931D01*
X154455500Y-81440931D01*
X154455500Y-81440928D01*
X154430502Y-81315261D01*
X154430501Y-81315260D01*
X154430501Y-81315256D01*
X154381465Y-81196873D01*
X154342485Y-81138535D01*
X154326381Y-81114433D01*
X154310279Y-81090333D01*
X154310277Y-81090331D01*
X153334674Y-80114727D01*
X153334673Y-80114726D01*
X153334669Y-80114723D01*
X153228127Y-80043535D01*
X153109744Y-79994499D01*
X153109738Y-79994497D01*
X152984071Y-79969500D01*
X152984069Y-79969500D01*
X152650638Y-79969500D01*
X152583599Y-79949815D01*
X152545099Y-79910597D01*
X152543910Y-79908669D01*
X152477712Y-79801344D01*
X152384049Y-79707681D01*
X152350564Y-79646358D01*
X152355548Y-79576666D01*
X152384049Y-79532319D01*
X152384429Y-79531939D01*
X152477712Y-79438656D01*
X152569814Y-79289334D01*
X152624999Y-79122797D01*
X152635500Y-79020009D01*
X152635499Y-78219992D01*
X152631251Y-78178411D01*
X152624999Y-78117203D01*
X152624998Y-78117200D01*
X152611088Y-78075223D01*
X152569814Y-77950666D01*
X152477712Y-77801344D01*
X152353656Y-77677288D01*
X152204334Y-77585186D01*
X152037797Y-77530001D01*
X152037795Y-77530000D01*
X151935010Y-77519500D01*
X150934998Y-77519500D01*
X150934980Y-77519501D01*
X150832203Y-77530000D01*
X150832200Y-77530001D01*
X150665668Y-77585185D01*
X150665659Y-77585189D01*
X150648070Y-77596039D01*
X150582974Y-77614500D01*
X149351454Y-77614500D01*
X149319391Y-77620876D01*
X149319392Y-77620877D01*
X149158170Y-77652946D01*
X149158164Y-77652948D01*
X148976088Y-77728366D01*
X148976079Y-77728371D01*
X148812222Y-77837857D01*
X148812217Y-77837861D01*
X148710066Y-77940010D01*
X148648742Y-77973495D01*
X148640978Y-77974895D01*
X148502686Y-78015503D01*
X148371918Y-78075223D01*
X148371908Y-78075228D01*
X148371906Y-78075230D01*
X148338253Y-78096857D01*
X148250867Y-78153015D01*
X148250863Y-78153018D01*
X148142226Y-78247152D01*
X148142207Y-78247169D01*
X148142206Y-78247171D01*
X148047985Y-78355909D01*
X148047983Y-78355911D01*
X148047983Y-78355912D01*
X148047981Y-78355915D01*
X147970255Y-78476857D01*
X147970252Y-78476863D01*
X147910483Y-78607741D01*
X147869977Y-78745691D01*
X147869974Y-78745703D01*
X147849500Y-78888110D01*
X147849500Y-79460002D01*
X147854644Y-79531939D01*
X147865603Y-79569262D01*
X147869363Y-79621841D01*
X147849500Y-79759998D01*
X147849500Y-80093831D01*
X147829815Y-80160870D01*
X147777011Y-80206625D01*
X147712247Y-80217120D01*
X147687873Y-80214500D01*
X147687865Y-80214500D01*
X145842129Y-80214500D01*
X145842123Y-80214501D01*
X145782516Y-80220908D01*
X145647671Y-80271202D01*
X145647664Y-80271206D01*
X145532455Y-80357452D01*
X145532452Y-80357455D01*
X145446206Y-80472664D01*
X145446202Y-80472671D01*
X145396019Y-80607222D01*
X145395909Y-80607517D01*
X145389500Y-80667127D01*
X145389500Y-80667134D01*
X145389500Y-80667135D01*
X145389500Y-80861502D01*
X145369815Y-80928541D01*
X145317011Y-80974296D01*
X145247853Y-80984240D01*
X145184297Y-80955215D01*
X145146523Y-80896437D01*
X145143883Y-80885694D01*
X145120502Y-80768154D01*
X145120501Y-80768153D01*
X145120501Y-80768149D01*
X145071465Y-80649766D01*
X145046404Y-80612259D01*
X145046404Y-80612258D01*
X145000275Y-80543221D01*
X143256780Y-78799726D01*
X143256776Y-78799723D01*
X143150234Y-78728535D01*
X143031851Y-78679499D01*
X143031845Y-78679497D01*
X142906178Y-78654500D01*
X142906176Y-78654500D01*
X136095808Y-78654500D01*
X136028769Y-78634815D01*
X136008127Y-78618181D01*
X134861819Y-77471873D01*
X134828334Y-77410550D01*
X134825500Y-77384192D01*
X134825500Y-76686461D01*
X134845185Y-76619422D01*
X134897989Y-76573667D01*
X134967147Y-76563723D01*
X135030703Y-76592748D01*
X135033807Y-76595531D01*
X135100521Y-76657433D01*
X135317296Y-76805228D01*
X135317301Y-76805230D01*
X135317302Y-76805231D01*
X135317303Y-76805232D01*
X135442843Y-76865688D01*
X135553673Y-76919061D01*
X135553674Y-76919061D01*
X135553677Y-76919063D01*
X135804385Y-76996396D01*
X136063818Y-77035500D01*
X136326182Y-77035500D01*
X136585615Y-76996396D01*
X136836323Y-76919063D01*
X137072704Y-76805228D01*
X137289479Y-76657433D01*
X137481805Y-76478981D01*
X137645386Y-76273857D01*
X137776568Y-76046643D01*
X137872420Y-75802416D01*
X137930802Y-75546630D01*
X137950408Y-75285000D01*
X137936697Y-75102041D01*
X137930803Y-75023379D01*
X137930802Y-75023374D01*
X137930802Y-75023370D01*
X137872420Y-74767584D01*
X137776568Y-74523357D01*
X137645386Y-74296143D01*
X137481805Y-74091019D01*
X137481804Y-74091018D01*
X137481801Y-74091014D01*
X137289479Y-73912567D01*
X137260116Y-73892548D01*
X137252642Y-73887452D01*
X137208342Y-73833425D01*
X137200283Y-73764021D01*
X137231026Y-73701279D01*
X137252643Y-73682547D01*
X137289479Y-73657433D01*
X137481805Y-73478981D01*
X137645386Y-73273857D01*
X137776568Y-73046643D01*
X137872420Y-72802416D01*
X137930802Y-72546630D01*
X137930808Y-72546550D01*
X137950408Y-72285004D01*
X137950408Y-72284995D01*
X137930803Y-72023379D01*
X137930802Y-72023374D01*
X137930802Y-72023370D01*
X137872420Y-71767584D01*
X137776568Y-71523357D01*
X137645386Y-71296143D01*
X137481805Y-71091019D01*
X137481803Y-71091017D01*
X137481563Y-71090716D01*
X137455154Y-71026029D01*
X137467911Y-70957334D01*
X137515781Y-70906440D01*
X137578510Y-70889403D01*
X139101594Y-70889403D01*
X139168633Y-70909088D01*
G37*
%TD.AperFunction*%
%TA.AperFunction,Conductor*%
G36*
X150168917Y-80981122D02*
G01*
X150221721Y-81026877D01*
X150240763Y-81081313D01*
X150245001Y-81122797D01*
X150245001Y-81122799D01*
X150300185Y-81289331D01*
X150300187Y-81289336D01*
X150311855Y-81308253D01*
X150392288Y-81438656D01*
X150516344Y-81562712D01*
X150665666Y-81654814D01*
X150832203Y-81709999D01*
X150934991Y-81720500D01*
X151935008Y-81720499D01*
X151935016Y-81720498D01*
X151935019Y-81720498D01*
X151994978Y-81714373D01*
X152037797Y-81709999D01*
X152204334Y-81654814D01*
X152353656Y-81562712D01*
X152477712Y-81438656D01*
X152525473Y-81361221D01*
X152577419Y-81314498D01*
X152646382Y-81303275D01*
X152710464Y-81331118D01*
X152718692Y-81338638D01*
X153118181Y-81738127D01*
X153151666Y-81799450D01*
X153154500Y-81825808D01*
X153154500Y-83384192D01*
X153134815Y-83451231D01*
X153118181Y-83471873D01*
X152941873Y-83648181D01*
X152880550Y-83681666D01*
X152854192Y-83684500D01*
X152232480Y-83684500D01*
X152165441Y-83664815D01*
X152119686Y-83612011D01*
X152109742Y-83542853D01*
X152116298Y-83517168D01*
X152138596Y-83457382D01*
X152138598Y-83457372D01*
X152144999Y-83397844D01*
X152145000Y-83397827D01*
X152145000Y-83200000D01*
X150245000Y-83200000D01*
X150220560Y-83224440D01*
X150159236Y-83257924D01*
X150108687Y-83258375D01*
X150064071Y-83249500D01*
X150064069Y-83249500D01*
X150044751Y-83249500D01*
X149977712Y-83229815D01*
X149945485Y-83199812D01*
X149902548Y-83142457D01*
X149902546Y-83142454D01*
X149856507Y-83107989D01*
X149780231Y-83050888D01*
X149781930Y-83048617D01*
X149742743Y-83009435D01*
X149727886Y-82941163D01*
X149752298Y-82875697D01*
X149781311Y-82850556D01*
X149780231Y-82849112D01*
X149878394Y-82775626D01*
X149902546Y-82757546D01*
X149988796Y-82642331D01*
X149994074Y-82628181D01*
X150004818Y-82599375D01*
X150046689Y-82543441D01*
X150112153Y-82519023D01*
X150180426Y-82533874D01*
X150229832Y-82583279D01*
X150245000Y-82642707D01*
X150245000Y-82700000D01*
X150945000Y-82700000D01*
X151445000Y-82700000D01*
X152145000Y-82700000D01*
X152145000Y-82502172D01*
X152144999Y-82502155D01*
X152138598Y-82442627D01*
X152138596Y-82442620D01*
X152088354Y-82307913D01*
X152088350Y-82307906D01*
X152002190Y-82192812D01*
X152002187Y-82192809D01*
X151887093Y-82106649D01*
X151887086Y-82106645D01*
X151752379Y-82056403D01*
X151752372Y-82056401D01*
X151692844Y-82050000D01*
X151445000Y-82050000D01*
X151445000Y-82700000D01*
X150945000Y-82700000D01*
X150945000Y-82050000D01*
X150697155Y-82050000D01*
X150637627Y-82056401D01*
X150637620Y-82056403D01*
X150502913Y-82106645D01*
X150502906Y-82106649D01*
X150387812Y-82192809D01*
X150387809Y-82192812D01*
X150301649Y-82307906D01*
X150301644Y-82307916D01*
X150285680Y-82350716D01*
X150243808Y-82406649D01*
X150178343Y-82431065D01*
X150110071Y-82416212D01*
X150060666Y-82366806D01*
X150045499Y-82307384D01*
X150045499Y-81552128D01*
X150039091Y-81492517D01*
X150023555Y-81450864D01*
X149988797Y-81357671D01*
X149988795Y-81357668D01*
X149912053Y-81255154D01*
X149887636Y-81189691D01*
X149902487Y-81121418D01*
X149944284Y-81076527D01*
X149959124Y-81066990D01*
X149959128Y-81066987D01*
X149959130Y-81066986D01*
X150036203Y-81000202D01*
X150099758Y-80971178D01*
X150168917Y-80981122D01*
G37*
%TD.AperFunction*%
%TA.AperFunction,Conductor*%
G36*
X134878529Y-70909088D02*
G01*
X134924284Y-70961892D01*
X134934228Y-71031050D01*
X134908437Y-71090716D01*
X134908196Y-71091017D01*
X134908195Y-71091019D01*
X134853355Y-71159786D01*
X134744614Y-71296143D01*
X134613432Y-71523356D01*
X134517582Y-71767578D01*
X134517576Y-71767597D01*
X134459197Y-72023374D01*
X134459196Y-72023379D01*
X134439592Y-72284995D01*
X134439592Y-72285004D01*
X134459196Y-72546620D01*
X134459197Y-72546625D01*
X134517576Y-72802402D01*
X134517578Y-72802411D01*
X134517580Y-72802416D01*
X134613432Y-73046643D01*
X134744614Y-73273857D01*
X134863350Y-73422747D01*
X134908198Y-73478985D01*
X134951283Y-73518961D01*
X135100521Y-73657433D01*
X135127038Y-73675512D01*
X135137356Y-73682547D01*
X135181657Y-73736577D01*
X135189715Y-73805980D01*
X135158972Y-73868722D01*
X135137356Y-73887453D01*
X135100522Y-73912566D01*
X134965797Y-74037571D01*
X134903264Y-74068739D01*
X134833808Y-74061152D01*
X134779479Y-74017218D01*
X134766897Y-73994131D01*
X134751465Y-73956873D01*
X134680277Y-73850331D01*
X134680275Y-73850329D01*
X134680273Y-73850326D01*
X133862167Y-73032220D01*
X133828682Y-72970897D01*
X133833666Y-72901205D01*
X133834385Y-72899326D01*
X133872420Y-72802416D01*
X133930802Y-72546630D01*
X133930808Y-72546550D01*
X133950408Y-72285004D01*
X133950408Y-72284995D01*
X133930803Y-72023379D01*
X133930802Y-72023374D01*
X133930802Y-72023370D01*
X133872420Y-71767584D01*
X133776568Y-71523357D01*
X133645386Y-71296143D01*
X133481805Y-71091019D01*
X133481803Y-71091017D01*
X133481563Y-71090716D01*
X133455154Y-71026029D01*
X133467911Y-70957334D01*
X133515781Y-70906440D01*
X133578510Y-70889403D01*
X134811490Y-70889403D01*
X134878529Y-70909088D01*
G37*
%TD.AperFunction*%
%TD*%
M02*
