%TF.GenerationSoftware,KiCad,Pcbnew,8.0.4*%
%TF.CreationDate,2024-10-05T16:08:08-03:00*%
%TF.ProjectId,DongleALIVEv2.0,446f6e67-6c65-4414-9c49-564576322e30,2.0*%
%TF.SameCoordinates,Original*%
%TF.FileFunction,Paste,Bot*%
%TF.FilePolarity,Positive*%
%FSLAX46Y46*%
G04 Gerber Fmt 4.6, Leading zero omitted, Abs format (unit mm)*
G04 Created by KiCad (PCBNEW 8.0.4) date 2024-10-05 16:08:08*
%MOMM*%
%LPD*%
G01*
G04 APERTURE LIST*
G04 Aperture macros list*
%AMRoundRect*
0 Rectangle with rounded corners*
0 $1 Rounding radius*
0 $2 $3 $4 $5 $6 $7 $8 $9 X,Y pos of 4 corners*
0 Add a 4 corners polygon primitive as box body*
4,1,4,$2,$3,$4,$5,$6,$7,$8,$9,$2,$3,0*
0 Add four circle primitives for the rounded corners*
1,1,$1+$1,$2,$3*
1,1,$1+$1,$4,$5*
1,1,$1+$1,$6,$7*
1,1,$1+$1,$8,$9*
0 Add four rect primitives between the rounded corners*
20,1,$1+$1,$2,$3,$4,$5,0*
20,1,$1+$1,$4,$5,$6,$7,0*
20,1,$1+$1,$6,$7,$8,$9,0*
20,1,$1+$1,$8,$9,$2,$3,0*%
G04 Aperture macros list end*
%ADD10RoundRect,0.250000X0.475000X-0.337500X0.475000X0.337500X-0.475000X0.337500X-0.475000X-0.337500X0*%
%ADD11RoundRect,0.250000X0.350000X0.450000X-0.350000X0.450000X-0.350000X-0.450000X0.350000X-0.450000X0*%
%ADD12RoundRect,0.250000X-0.475000X0.337500X-0.475000X-0.337500X0.475000X-0.337500X0.475000X0.337500X0*%
%ADD13RoundRect,0.250000X0.337500X0.475000X-0.337500X0.475000X-0.337500X-0.475000X0.337500X-0.475000X0*%
%ADD14RoundRect,0.250000X-0.337500X-0.475000X0.337500X-0.475000X0.337500X0.475000X-0.337500X0.475000X0*%
%ADD15R,0.460000X1.040000*%
%ADD16RoundRect,0.075000X-0.225000X0.880000X-0.225000X-0.880000X0.225000X-0.880000X0.225000X0.880000X0*%
%ADD17RoundRect,0.250000X0.275000X-0.400000X0.275000X0.400000X-0.275000X0.400000X-0.275000X-0.400000X0*%
%ADD18R,1.750000X0.600000*%
%ADD19RoundRect,0.375000X-0.375000X0.625000X-0.375000X-0.625000X0.375000X-0.625000X0.375000X0.625000X0*%
%ADD20RoundRect,0.500000X-1.400000X0.500000X-1.400000X-0.500000X1.400000X-0.500000X1.400000X0.500000X0*%
%ADD21RoundRect,0.250000X-0.450000X0.350000X-0.450000X-0.350000X0.450000X-0.350000X0.450000X0.350000X0*%
%ADD22R,0.900000X0.800000*%
%ADD23RoundRect,0.250000X-0.350000X-0.450000X0.350000X-0.450000X0.350000X0.450000X-0.350000X0.450000X0*%
G04 APERTURE END LIST*
D10*
%TO.C,C12*%
X131745000Y-95290000D03*
X131745000Y-93215000D03*
%TD*%
D11*
%TO.C,R10*%
X119895000Y-83415000D03*
X117895000Y-83415000D03*
%TD*%
D12*
%TO.C,C20*%
X124465000Y-110115000D03*
X124465000Y-112190000D03*
%TD*%
D13*
%TO.C,C3*%
X142402500Y-102235000D03*
X140327500Y-102235000D03*
%TD*%
D11*
%TO.C,R9*%
X119895000Y-79515000D03*
X117895000Y-79515000D03*
%TD*%
D10*
%TO.C,C15*%
X136045000Y-97612500D03*
X136045000Y-95537500D03*
%TD*%
D14*
%TO.C,C14*%
X129467500Y-106355000D03*
X131542500Y-106355000D03*
%TD*%
D10*
%TO.C,C23*%
X118195000Y-109372500D03*
X118195000Y-107297500D03*
%TD*%
D11*
%TO.C,R14*%
X122665000Y-118125000D03*
X120665000Y-118125000D03*
%TD*%
D10*
%TO.C,C2*%
X152985000Y-116112500D03*
X152985000Y-114037500D03*
%TD*%
D15*
%TO.C,D7*%
X120185000Y-106875000D03*
X120185000Y-109255000D03*
%TD*%
D14*
%TO.C,C4*%
X153287500Y-112065000D03*
X155362500Y-112065000D03*
%TD*%
D10*
%TO.C,C17*%
X138265000Y-97612500D03*
X138265000Y-95537500D03*
%TD*%
D11*
%TO.C,R4*%
X138065000Y-112675000D03*
X136065000Y-112675000D03*
%TD*%
D16*
%TO.C,U5*%
X141165000Y-87045000D03*
X142435000Y-87045000D03*
X143705000Y-87045000D03*
X144975000Y-87045000D03*
X146245000Y-87045000D03*
X147515000Y-87045000D03*
X148785000Y-87045000D03*
X150055000Y-87045000D03*
X151325000Y-87045000D03*
X151325000Y-96265000D03*
X150055000Y-96265000D03*
X148785000Y-96265000D03*
X147515000Y-96265000D03*
X146245000Y-96265000D03*
X144975000Y-96265000D03*
X143705000Y-96265000D03*
X142435000Y-96265000D03*
X141165000Y-96265000D03*
%TD*%
D14*
%TO.C,C13*%
X129467500Y-108525000D03*
X131542500Y-108525000D03*
%TD*%
D11*
%TO.C,R5*%
X122665000Y-121125000D03*
X120665000Y-121125000D03*
%TD*%
D17*
%TO.C,C16*%
X134035000Y-97570000D03*
X134035000Y-95620000D03*
%TD*%
D10*
%TO.C,C1*%
X155245000Y-116130000D03*
X155245000Y-114055000D03*
%TD*%
D12*
%TO.C,C21*%
X122305000Y-110115000D03*
X122305000Y-112190000D03*
%TD*%
D18*
%TO.C,U4*%
X141165000Y-84825000D03*
X141165000Y-83555000D03*
X141165000Y-82285000D03*
X141165000Y-81015000D03*
X146765000Y-81015000D03*
X146765000Y-82285000D03*
X146765000Y-83555000D03*
X146765000Y-84825000D03*
%TD*%
D10*
%TO.C,C5*%
X152675000Y-102102500D03*
X152675000Y-100027500D03*
%TD*%
D19*
%TO.C,U3*%
X127142500Y-97585000D03*
X129442500Y-97585000D03*
D20*
X129442500Y-103885000D03*
D19*
X131742500Y-97585000D03*
%TD*%
D21*
%TO.C,R16*%
X151435000Y-78620000D03*
X151435000Y-80620000D03*
%TD*%
D22*
%TO.C,D6*%
X149095000Y-83900000D03*
X149095000Y-82000000D03*
X151195000Y-82950000D03*
%TD*%
D21*
%TO.C,R2*%
X150605000Y-100025000D03*
X150605000Y-102025000D03*
%TD*%
D10*
%TO.C,C22*%
X120955000Y-104890000D03*
X120955000Y-102815000D03*
%TD*%
D11*
%TO.C,R6*%
X122665000Y-124125000D03*
X120665000Y-124125000D03*
%TD*%
D23*
%TO.C,R1*%
X140365000Y-104295000D03*
X142365000Y-104295000D03*
%TD*%
D11*
%TO.C,R3*%
X138065000Y-114735000D03*
X136065000Y-114735000D03*
%TD*%
D23*
%TO.C,R15*%
X136045000Y-99545000D03*
X138045000Y-99545000D03*
%TD*%
M02*
