%TF.GenerationSoftware,KiCad,Pcbnew,8.0.4*%
%TF.CreationDate,2024-09-22T10:18:26-03:00*%
%TF.ProjectId,DongleALIVEv2.0,446f6e67-6c65-4414-9c49-564576322e30,2.0*%
%TF.SameCoordinates,Original*%
%TF.FileFunction,Soldermask,Top*%
%TF.FilePolarity,Negative*%
%FSLAX46Y46*%
G04 Gerber Fmt 4.6, Leading zero omitted, Abs format (unit mm)*
G04 Created by KiCad (PCBNEW 8.0.4) date 2024-09-22 10:18:26*
%MOMM*%
%LPD*%
G01*
G04 APERTURE LIST*
G04 Aperture macros list*
%AMRoundRect*
0 Rectangle with rounded corners*
0 $1 Rounding radius*
0 $2 $3 $4 $5 $6 $7 $8 $9 X,Y pos of 4 corners*
0 Add a 4 corners polygon primitive as box body*
4,1,4,$2,$3,$4,$5,$6,$7,$8,$9,$2,$3,0*
0 Add four circle primitives for the rounded corners*
1,1,$1+$1,$2,$3*
1,1,$1+$1,$4,$5*
1,1,$1+$1,$6,$7*
1,1,$1+$1,$8,$9*
0 Add four rect primitives between the rounded corners*
20,1,$1+$1,$2,$3,$4,$5,0*
20,1,$1+$1,$4,$5,$6,$7,0*
20,1,$1+$1,$6,$7,$8,$9,0*
20,1,$1+$1,$8,$9,$2,$3,0*%
G04 Aperture macros list end*
%ADD10C,0.200000*%
%ADD11C,1.076000*%
%ADD12RoundRect,0.266170X-0.496830X0.359330X-0.496830X-0.359330X0.496830X-0.359330X0.496830X0.359330X0*%
%ADD13RoundRect,0.266170X0.496830X-0.359330X0.496830X0.359330X-0.496830X0.359330X-0.496830X-0.359330X0*%
%ADD14RoundRect,0.102000X-0.600000X-0.600000X0.600000X-0.600000X0.600000X0.600000X-0.600000X0.600000X0*%
%ADD15RoundRect,0.102000X-0.750000X-0.800000X0.750000X-0.800000X0.750000X0.800000X-0.750000X0.800000X0*%
%ADD16C,1.000000*%
%ADD17RoundRect,0.038000X0.850000X0.850000X-0.850000X0.850000X-0.850000X-0.850000X0.850000X-0.850000X0*%
%ADD18O,1.776000X1.776000*%
%ADD19RoundRect,0.038000X0.750000X0.750000X-0.750000X0.750000X-0.750000X-0.750000X0.750000X-0.750000X0*%
%ADD20RoundRect,0.265833X0.372167X0.472167X-0.372167X0.472167X-0.372167X-0.472167X0.372167X-0.472167X0*%
%ADD21RoundRect,0.221750X0.965250X0.665250X-0.965250X0.665250X-0.965250X-0.665250X0.965250X-0.665250X0*%
%ADD22RoundRect,0.265833X-0.472167X0.372167X-0.472167X-0.372167X0.472167X-0.372167X0.472167X0.372167X0*%
%ADD23RoundRect,0.038000X-1.200000X-2.850000X1.200000X-2.850000X1.200000X2.850000X-1.200000X2.850000X0*%
%ADD24RoundRect,0.217080X0.869920X0.184920X-0.869920X0.184920X-0.869920X-0.184920X0.869920X-0.184920X0*%
%ADD25RoundRect,0.102000X1.205000X1.650000X-1.205000X1.650000X-1.205000X-1.650000X1.205000X-1.650000X0*%
%ADD26RoundRect,0.102000X0.300000X-0.400000X0.300000X0.400000X-0.300000X0.400000X-0.300000X-0.400000X0*%
%ADD27RoundRect,0.038000X-0.690000X0.225000X-0.690000X-0.225000X0.690000X-0.225000X0.690000X0.225000X0*%
%ADD28RoundRect,0.038000X-0.650000X0.825000X-0.650000X-0.825000X0.650000X-0.825000X0.650000X0.825000X0*%
%ADD29RoundRect,0.038000X-0.775000X0.712500X-0.775000X-0.712500X0.775000X-0.712500X0.775000X0.712500X0*%
%ADD30RoundRect,0.038000X-0.950000X0.900000X-0.950000X-0.900000X0.950000X-0.900000X0.950000X0.900000X0*%
%ADD31RoundRect,0.038000X-0.950000X0.500000X-0.950000X-0.500000X0.950000X-0.500000X0.950000X0.500000X0*%
%ADD32RoundRect,0.265833X-0.372167X-0.472167X0.372167X-0.472167X0.372167X0.472167X-0.372167X0.472167X0*%
%ADD33RoundRect,0.038000X-0.750000X0.750000X-0.750000X-0.750000X0.750000X-0.750000X0.750000X0.750000X0*%
%ADD34RoundRect,0.038000X0.228600X-0.393700X0.228600X0.393700X-0.228600X0.393700X-0.228600X-0.393700X0*%
%ADD35RoundRect,0.266170X-0.359330X-0.496830X0.359330X-0.496830X0.359330X0.496830X-0.359330X0.496830X0*%
%ADD36O,3.576000X2.276000*%
%ADD37RoundRect,0.038000X-1.250000X0.750000X-1.250000X-0.750000X1.250000X-0.750000X1.250000X0.750000X0*%
%ADD38O,2.576000X1.576000*%
%ADD39C,0.776000*%
%ADD40C,4.476000*%
%ADD41RoundRect,0.262750X-0.262750X-0.475250X0.262750X-0.475250X0.262750X0.475250X-0.262750X0.475250X0*%
%ADD42RoundRect,0.102000X1.250000X1.250000X-1.250000X1.250000X-1.250000X-1.250000X1.250000X-1.250000X0*%
%ADD43C,2.704000*%
%ADD44RoundRect,0.038000X0.750000X0.450000X-0.750000X0.450000X-0.750000X-0.450000X0.750000X-0.450000X0*%
%ADD45RoundRect,0.038000X-0.450000X0.750000X-0.450000X-0.750000X0.450000X-0.750000X0.450000X0.750000X0*%
%ADD46C,0.676000*%
%ADD47RoundRect,0.038000X2.100000X2.100000X-2.100000X2.100000X-2.100000X-2.100000X2.100000X-2.100000X0*%
%ADD48RoundRect,0.038000X-1.000000X2.250000X-1.000000X-2.250000X1.000000X-2.250000X1.000000X2.250000X0*%
%ADD49RoundRect,0.102000X-0.300000X0.400000X-0.300000X-0.400000X0.300000X-0.400000X0.300000X0.400000X0*%
%ADD50RoundRect,0.038000X-1.244600X0.469900X-1.244600X-0.469900X1.244600X-0.469900X1.244600X0.469900X0*%
%ADD51RoundRect,0.038000X-3.403600X3.289300X-3.403600X-3.289300X3.403600X-3.289300X3.403600X3.289300X0*%
%ADD52RoundRect,0.081500X-0.356500X-0.081500X0.356500X-0.081500X0.356500X0.081500X-0.356500X0.081500X0*%
%ADD53RoundRect,0.081500X-0.081500X-0.356500X0.081500X-0.356500X0.081500X0.356500X-0.081500X0.356500X0*%
%ADD54RoundRect,0.038000X-1.675000X-1.675000X1.675000X-1.675000X1.675000X1.675000X-1.675000X1.675000X0*%
%ADD55RoundRect,0.519000X-0.519000X0.519000X-0.519000X-0.519000X0.519000X-0.519000X0.519000X0.519000X0*%
%ADD56C,2.076000*%
%ADD57RoundRect,0.038000X-0.850000X-0.850000X0.850000X-0.850000X0.850000X0.850000X-0.850000X0.850000X0*%
G04 APERTURE END LIST*
D10*
X197420000Y-118360000D02*
X182880000Y-118360000D01*
X182880000Y-116740000D01*
X197420000Y-116740000D01*
X197420000Y-118360000D01*
G36*
X197420000Y-118360000D02*
G01*
X182880000Y-118360000D01*
X182880000Y-116740000D01*
X197420000Y-116740000D01*
X197420000Y-118360000D01*
G37*
D11*
%TO.C,TP1*%
X161930000Y-93910000D03*
%TD*%
D12*
%TO.C,C9*%
X163550000Y-87682500D03*
X163550000Y-89757500D03*
%TD*%
D13*
%TO.C,C7*%
X161960000Y-99267500D03*
X161960000Y-97192500D03*
%TD*%
D14*
%TO.C,RV1*%
X175600000Y-79540000D03*
D15*
X178850000Y-80540000D03*
D14*
X175600000Y-81540000D03*
%TD*%
D16*
%TO.C,FID2*%
X163260000Y-123430000D03*
%TD*%
D12*
%TO.C,C10*%
X165650000Y-87682500D03*
X165650000Y-89757500D03*
%TD*%
%TO.C,C18*%
X189310000Y-92352500D03*
X189310000Y-94427500D03*
%TD*%
D17*
%TO.C,J2*%
X164710000Y-104300000D03*
D18*
X164710000Y-101760000D03*
X164710000Y-99220000D03*
X164710000Y-96680000D03*
X164710000Y-94140000D03*
%TD*%
D19*
%TO.C,SW1*%
X178960000Y-99860000D03*
X171160000Y-99860000D03*
%TD*%
D20*
%TO.C,R13*%
X177600000Y-83580000D03*
X175600000Y-83580000D03*
%TD*%
D21*
%TO.C,D3*%
X172965000Y-93530000D03*
X168835000Y-93530000D03*
%TD*%
D12*
%TO.C,C19*%
X189310000Y-83802500D03*
X189310000Y-85877500D03*
%TD*%
D22*
%TO.C,R12*%
X179590000Y-85610000D03*
X179590000Y-87610000D03*
%TD*%
D23*
%TO.C,L1*%
X176160000Y-92070000D03*
X180360000Y-92070000D03*
%TD*%
D20*
%TO.C,R7*%
X165150000Y-85290000D03*
X163150000Y-85290000D03*
%TD*%
D24*
%TO.C,U2*%
X173235000Y-88955000D03*
X173235000Y-87685000D03*
X173235000Y-86415000D03*
X173235000Y-85145000D03*
X168285000Y-85145000D03*
X168285000Y-86415000D03*
X168285000Y-87685000D03*
X168285000Y-88955000D03*
D25*
X170760000Y-87050000D03*
%TD*%
D22*
%TO.C,R17*%
X171650000Y-112220000D03*
X171650000Y-114220000D03*
%TD*%
D26*
%TO.C,Q3*%
X173870000Y-107370000D03*
X175770000Y-107370000D03*
X174820000Y-105350000D03*
%TD*%
D27*
%TO.C,J4*%
X160095000Y-109802500D03*
X160095000Y-110452500D03*
X160095000Y-111102500D03*
X160095000Y-111752500D03*
X160095000Y-112402500D03*
D28*
X157435000Y-107727500D03*
D29*
X160010000Y-108615000D03*
D30*
X157435000Y-109952500D03*
D31*
X157435000Y-112652500D03*
D29*
X160010000Y-113590000D03*
D28*
X157435000Y-114477500D03*
%TD*%
D32*
%TO.C,R8*%
X175600000Y-87680000D03*
X177600000Y-87680000D03*
%TD*%
D33*
%TO.C,SW2*%
X184420000Y-87630000D03*
X184420000Y-95430000D03*
%TD*%
D34*
%TO.C,D4*%
X161090000Y-81368100D03*
X161090000Y-78751900D03*
%TD*%
D35*
%TO.C,C6*%
X169755000Y-90870000D03*
X171830000Y-90870000D03*
%TD*%
D36*
%TO.C,SW3*%
X158210000Y-95450000D03*
X158210000Y-103650000D03*
D37*
X158210000Y-97550000D03*
D38*
X158210000Y-99550000D03*
X158210000Y-101550000D03*
%TD*%
D39*
%TO.C,H2*%
X166380000Y-114180000D03*
X166863274Y-113013274D03*
X166863274Y-115346726D03*
X168030000Y-112530000D03*
D40*
X168030000Y-114180000D03*
D39*
X168030000Y-115830000D03*
X169196726Y-113013274D03*
X169196726Y-115346726D03*
X169680000Y-114180000D03*
%TD*%
D20*
%TO.C,R18*%
X175840000Y-103640000D03*
X173840000Y-103640000D03*
%TD*%
D41*
%TO.C,D1*%
X157712500Y-120300000D03*
X159587500Y-120300000D03*
%TD*%
D12*
%TO.C,C8*%
X161960000Y-101842500D03*
X161960000Y-103917500D03*
%TD*%
D16*
%TO.C,FID3*%
X163260000Y-76450000D03*
%TD*%
D20*
%TO.C,R11*%
X160880000Y-83750000D03*
X158880000Y-83750000D03*
%TD*%
D42*
%TO.C,J1*%
X193180000Y-71460000D03*
D43*
X189180000Y-71460000D03*
X185180000Y-71460000D03*
X181180000Y-71460000D03*
X177180000Y-71460000D03*
X173180000Y-71460000D03*
X169180000Y-71460000D03*
X165180000Y-71460000D03*
X193180000Y-74460000D03*
X189180000Y-74460000D03*
X185180000Y-74460000D03*
X181180000Y-74460000D03*
X177180000Y-74460000D03*
X173180000Y-74460000D03*
X169180000Y-74460000D03*
X165180000Y-74460000D03*
%TD*%
D16*
%TO.C,FID1*%
X198070000Y-76450000D03*
%TD*%
D39*
%TO.C,H1*%
X196140000Y-73020000D03*
X196623274Y-71853274D03*
X196623274Y-74186726D03*
X197790000Y-71370000D03*
D40*
X197790000Y-73020000D03*
D39*
X197790000Y-74670000D03*
X198956726Y-71853274D03*
X198956726Y-74186726D03*
X199440000Y-73020000D03*
%TD*%
D44*
%TO.C,U1*%
X198910000Y-116995000D03*
X198910000Y-115725000D03*
X198910000Y-114455000D03*
X198910000Y-113185000D03*
X198910000Y-111915000D03*
X198910000Y-110645000D03*
X198910000Y-109375000D03*
X198910000Y-108105000D03*
X198910000Y-106835000D03*
X198910000Y-105565000D03*
X198910000Y-104295000D03*
X198910000Y-103025000D03*
X198910000Y-101755000D03*
X198910000Y-100485000D03*
D45*
X195870000Y-99235000D03*
X194600000Y-99235000D03*
X193330000Y-99235000D03*
X192060000Y-99235000D03*
X190790000Y-99235000D03*
X189520000Y-99235000D03*
X188250000Y-99235000D03*
X186980000Y-99235000D03*
X185710000Y-99235000D03*
X184440000Y-99235000D03*
D44*
X181410000Y-100485000D03*
X181410000Y-101755000D03*
X181410000Y-103025000D03*
X181410000Y-104295000D03*
X181410000Y-105565000D03*
X181410000Y-106835000D03*
X181410000Y-108105000D03*
X181410000Y-109375000D03*
X181410000Y-110645000D03*
X181410000Y-111915000D03*
X181410000Y-113185000D03*
X181410000Y-114455000D03*
X181410000Y-115725000D03*
X181410000Y-116995000D03*
D46*
X192365000Y-110417500D03*
X192365000Y-108892500D03*
X191602500Y-111180000D03*
X191602500Y-109655000D03*
X191602500Y-108130000D03*
X190840000Y-110417500D03*
D47*
X190840000Y-109655000D03*
D46*
X190840000Y-108892500D03*
X190077500Y-111180000D03*
X190077500Y-109655000D03*
X190077500Y-108130000D03*
X189315000Y-110417500D03*
X189315000Y-108892500D03*
%TD*%
D48*
%TO.C,Y1*%
X193100000Y-85930000D03*
X193100000Y-94430000D03*
%TD*%
D41*
%TO.C,D5*%
X157712500Y-117300000D03*
X159587500Y-117300000D03*
%TD*%
D49*
%TO.C,Q2*%
X175840000Y-108850000D03*
X173940000Y-108850000D03*
X174890000Y-110870000D03*
%TD*%
D35*
%TO.C,C11*%
X175582500Y-85610000D03*
X177657500Y-85610000D03*
%TD*%
D50*
%TO.C,Q1*%
X164334000Y-78009999D03*
D51*
X170806999Y-80300000D03*
D50*
X164334000Y-82590001D03*
%TD*%
D52*
%TO.C,U6*%
X167330000Y-106290000D03*
X167330000Y-106790000D03*
X167330000Y-107290000D03*
X167330000Y-107790000D03*
X167330000Y-108290000D03*
X167330000Y-108790000D03*
X167330000Y-109290000D03*
D53*
X168280000Y-110240000D03*
X168780000Y-110240000D03*
X169280000Y-110240000D03*
X169780000Y-110240000D03*
X170280000Y-110240000D03*
X170780000Y-110240000D03*
X171280000Y-110240000D03*
D52*
X172230000Y-109290000D03*
X172230000Y-108790000D03*
X172230000Y-108290000D03*
X172230000Y-107790000D03*
X172230000Y-107290000D03*
X172230000Y-106790000D03*
X172230000Y-106290000D03*
D53*
X171280000Y-105340000D03*
X170780000Y-105340000D03*
X170280000Y-105340000D03*
X169780000Y-105340000D03*
X169280000Y-105340000D03*
X168780000Y-105340000D03*
X168280000Y-105340000D03*
D54*
X169780000Y-107790000D03*
%TD*%
D55*
%TO.C,F1*%
X159650000Y-71300000D03*
X159650000Y-76300000D03*
D56*
X159650000Y-86300000D03*
X159650000Y-91300000D03*
%TD*%
D20*
%TO.C,R19*%
X175930000Y-112560000D03*
X173930000Y-112560000D03*
%TD*%
D41*
%TO.C,D2*%
X157712500Y-123300000D03*
X159587500Y-123300000D03*
%TD*%
D57*
%TO.C,J3*%
X198630000Y-85300000D03*
D18*
X198630000Y-87840000D03*
X198630000Y-90380000D03*
X198630000Y-92920000D03*
X198630000Y-95460000D03*
%TD*%
M02*
