%TF.GenerationSoftware,KiCad,Pcbnew,8.0.4*%
%TF.CreationDate,2024-09-22T10:18:26-03:00*%
%TF.ProjectId,DongleALIVEv2.0,446f6e67-6c65-4414-9c49-564576322e30,2.0*%
%TF.SameCoordinates,Original*%
%TF.FileFunction,Paste,Bot*%
%TF.FilePolarity,Positive*%
%FSLAX46Y46*%
G04 Gerber Fmt 4.6, Leading zero omitted, Abs format (unit mm)*
G04 Created by KiCad (PCBNEW 8.0.4) date 2024-09-22 10:18:26*
%MOMM*%
%LPD*%
G01*
G04 APERTURE LIST*
G04 Aperture macros list*
%AMRoundRect*
0 Rectangle with rounded corners*
0 $1 Rounding radius*
0 $2 $3 $4 $5 $6 $7 $8 $9 X,Y pos of 4 corners*
0 Add a 4 corners polygon primitive as box body*
4,1,4,$2,$3,$4,$5,$6,$7,$8,$9,$2,$3,0*
0 Add four circle primitives for the rounded corners*
1,1,$1+$1,$2,$3*
1,1,$1+$1,$4,$5*
1,1,$1+$1,$6,$7*
1,1,$1+$1,$8,$9*
0 Add four rect primitives between the rounded corners*
20,1,$1+$1,$2,$3,$4,$5,0*
20,1,$1+$1,$4,$5,$6,$7,0*
20,1,$1+$1,$6,$7,$8,$9,0*
20,1,$1+$1,$8,$9,$2,$3,0*%
G04 Aperture macros list end*
%ADD10RoundRect,0.250000X0.475000X-0.337500X0.475000X0.337500X-0.475000X0.337500X-0.475000X-0.337500X0*%
%ADD11RoundRect,0.250000X0.350000X0.450000X-0.350000X0.450000X-0.350000X-0.450000X0.350000X-0.450000X0*%
%ADD12RoundRect,0.250000X-0.475000X0.337500X-0.475000X-0.337500X0.475000X-0.337500X0.475000X0.337500X0*%
%ADD13RoundRect,0.250000X0.337500X0.475000X-0.337500X0.475000X-0.337500X-0.475000X0.337500X-0.475000X0*%
%ADD14RoundRect,0.250000X-0.337500X-0.475000X0.337500X-0.475000X0.337500X0.475000X-0.337500X0.475000X0*%
%ADD15R,0.460000X1.040000*%
%ADD16RoundRect,0.075000X-0.225000X0.880000X-0.225000X-0.880000X0.225000X-0.880000X0.225000X0.880000X0*%
%ADD17RoundRect,0.250000X0.275000X-0.400000X0.275000X0.400000X-0.275000X0.400000X-0.275000X-0.400000X0*%
%ADD18R,1.750000X0.600000*%
%ADD19RoundRect,0.375000X-0.375000X0.625000X-0.375000X-0.625000X0.375000X-0.625000X0.375000X0.625000X0*%
%ADD20RoundRect,0.500000X-1.400000X0.500000X-1.400000X-0.500000X1.400000X-0.500000X1.400000X0.500000X0*%
%ADD21RoundRect,0.250000X-0.450000X0.350000X-0.450000X-0.350000X0.450000X-0.350000X0.450000X0.350000X0*%
%ADD22R,0.900000X0.800000*%
%ADD23RoundRect,0.250000X-0.350000X-0.450000X0.350000X-0.450000X0.350000X0.450000X-0.350000X0.450000X0*%
G04 APERTURE END LIST*
D10*
%TO.C,C12*%
X172730000Y-94465000D03*
X172730000Y-92390000D03*
%TD*%
D11*
%TO.C,R10*%
X160880000Y-82590000D03*
X158880000Y-82590000D03*
%TD*%
D12*
%TO.C,C20*%
X165450000Y-109290000D03*
X165450000Y-111365000D03*
%TD*%
D13*
%TO.C,C3*%
X183387500Y-101410000D03*
X181312500Y-101410000D03*
%TD*%
D11*
%TO.C,R9*%
X160880000Y-78690000D03*
X158880000Y-78690000D03*
%TD*%
D10*
%TO.C,C15*%
X177030000Y-96787500D03*
X177030000Y-94712500D03*
%TD*%
D14*
%TO.C,C14*%
X170452500Y-105530000D03*
X172527500Y-105530000D03*
%TD*%
D10*
%TO.C,C23*%
X159180000Y-108547500D03*
X159180000Y-106472500D03*
%TD*%
D11*
%TO.C,R14*%
X163650000Y-117300000D03*
X161650000Y-117300000D03*
%TD*%
D10*
%TO.C,C2*%
X193970000Y-115287500D03*
X193970000Y-113212500D03*
%TD*%
D15*
%TO.C,D7*%
X161170000Y-106050000D03*
X161170000Y-108430000D03*
%TD*%
D14*
%TO.C,C4*%
X194272500Y-111240000D03*
X196347500Y-111240000D03*
%TD*%
D10*
%TO.C,C17*%
X179250000Y-96787500D03*
X179250000Y-94712500D03*
%TD*%
D11*
%TO.C,R4*%
X179050000Y-111850000D03*
X177050000Y-111850000D03*
%TD*%
D16*
%TO.C,U5*%
X182150000Y-86220000D03*
X183420000Y-86220000D03*
X184690000Y-86220000D03*
X185960000Y-86220000D03*
X187230000Y-86220000D03*
X188500000Y-86220000D03*
X189770000Y-86220000D03*
X191040000Y-86220000D03*
X192310000Y-86220000D03*
X192310000Y-95440000D03*
X191040000Y-95440000D03*
X189770000Y-95440000D03*
X188500000Y-95440000D03*
X187230000Y-95440000D03*
X185960000Y-95440000D03*
X184690000Y-95440000D03*
X183420000Y-95440000D03*
X182150000Y-95440000D03*
%TD*%
D14*
%TO.C,C13*%
X170452500Y-107700000D03*
X172527500Y-107700000D03*
%TD*%
D11*
%TO.C,R5*%
X163650000Y-120300000D03*
X161650000Y-120300000D03*
%TD*%
D17*
%TO.C,C16*%
X175020000Y-96745000D03*
X175020000Y-94795000D03*
%TD*%
D10*
%TO.C,C1*%
X196230000Y-115305000D03*
X196230000Y-113230000D03*
%TD*%
D12*
%TO.C,C21*%
X163290000Y-109290000D03*
X163290000Y-111365000D03*
%TD*%
D18*
%TO.C,U4*%
X182150000Y-84000000D03*
X182150000Y-82730000D03*
X182150000Y-81460000D03*
X182150000Y-80190000D03*
X187750000Y-80190000D03*
X187750000Y-81460000D03*
X187750000Y-82730000D03*
X187750000Y-84000000D03*
%TD*%
D10*
%TO.C,C5*%
X193660000Y-101277500D03*
X193660000Y-99202500D03*
%TD*%
D19*
%TO.C,U3*%
X168127500Y-96760000D03*
X170427500Y-96760000D03*
D20*
X170427500Y-103060000D03*
D19*
X172727500Y-96760000D03*
%TD*%
D21*
%TO.C,R16*%
X192420000Y-77795000D03*
X192420000Y-79795000D03*
%TD*%
D22*
%TO.C,D6*%
X190080000Y-83075000D03*
X190080000Y-81175000D03*
X192180000Y-82125000D03*
%TD*%
D21*
%TO.C,R2*%
X191590000Y-99200000D03*
X191590000Y-101200000D03*
%TD*%
D10*
%TO.C,C22*%
X161940000Y-104065000D03*
X161940000Y-101990000D03*
%TD*%
D11*
%TO.C,R6*%
X163650000Y-123300000D03*
X161650000Y-123300000D03*
%TD*%
D23*
%TO.C,R1*%
X181350000Y-103470000D03*
X183350000Y-103470000D03*
%TD*%
D11*
%TO.C,R3*%
X179050000Y-113910000D03*
X177050000Y-113910000D03*
%TD*%
D23*
%TO.C,R15*%
X177030000Y-98720000D03*
X179030000Y-98720000D03*
%TD*%
M02*
