%TF.GenerationSoftware,KiCad,Pcbnew,8.0.4*%
%TF.CreationDate,2024-10-02T02:15:57-03:00*%
%TF.ProjectId,DongleALIVEv2.0,446f6e67-6c65-4414-9c49-564576322e30,2.0*%
%TF.SameCoordinates,Original*%
%TF.FileFunction,Copper,L1,Top*%
%TF.FilePolarity,Positive*%
%FSLAX46Y46*%
G04 Gerber Fmt 4.6, Leading zero omitted, Abs format (unit mm)*
G04 Created by KiCad (PCBNEW 8.0.4) date 2024-10-02 02:15:57*
%MOMM*%
%LPD*%
G01*
G04 APERTURE LIST*
G04 Aperture macros list*
%AMRoundRect*
0 Rectangle with rounded corners*
0 $1 Rounding radius*
0 $2 $3 $4 $5 $6 $7 $8 $9 X,Y pos of 4 corners*
0 Add a 4 corners polygon primitive as box body*
4,1,4,$2,$3,$4,$5,$6,$7,$8,$9,$2,$3,0*
0 Add four circle primitives for the rounded corners*
1,1,$1+$1,$2,$3*
1,1,$1+$1,$4,$5*
1,1,$1+$1,$6,$7*
1,1,$1+$1,$8,$9*
0 Add four rect primitives between the rounded corners*
20,1,$1+$1,$2,$3,$4,$5,0*
20,1,$1+$1,$4,$5,$6,$7,0*
20,1,$1+$1,$6,$7,$8,$9,0*
20,1,$1+$1,$8,$9,$2,$3,0*%
G04 Aperture macros list end*
%TA.AperFunction,Conductor*%
%ADD10C,0.200000*%
%TD*%
%TA.AperFunction,SMDPad,CuDef*%
%ADD11RoundRect,0.250000X-0.475000X0.337500X-0.475000X-0.337500X0.475000X-0.337500X0.475000X0.337500X0*%
%TD*%
%TA.AperFunction,SMDPad,CuDef*%
%ADD12RoundRect,0.250000X0.475000X-0.337500X0.475000X0.337500X-0.475000X0.337500X-0.475000X-0.337500X0*%
%TD*%
%TA.AperFunction,SMDPad,CuDef*%
%ADD13R,1.200000X1.200000*%
%TD*%
%TA.AperFunction,SMDPad,CuDef*%
%ADD14R,1.500000X1.600000*%
%TD*%
%TA.AperFunction,SMDPad,CuDef*%
%ADD15C,0.500000*%
%TD*%
%TA.AperFunction,ComponentPad*%
%ADD16R,1.700000X1.700000*%
%TD*%
%TA.AperFunction,ComponentPad*%
%ADD17O,1.700000X1.700000*%
%TD*%
%TA.AperFunction,SMDPad,CuDef*%
%ADD18R,1.500000X1.500000*%
%TD*%
%TA.AperFunction,SMDPad,CuDef*%
%ADD19RoundRect,0.250000X0.350000X0.450000X-0.350000X0.450000X-0.350000X-0.450000X0.350000X-0.450000X0*%
%TD*%
%TA.AperFunction,SMDPad,CuDef*%
%ADD20RoundRect,0.196250X0.888750X0.588750X-0.888750X0.588750X-0.888750X-0.588750X0.888750X-0.588750X0*%
%TD*%
%TA.AperFunction,SMDPad,CuDef*%
%ADD21C,1.000000*%
%TD*%
%TA.AperFunction,SMDPad,CuDef*%
%ADD22RoundRect,0.250000X-0.450000X0.350000X-0.450000X-0.350000X0.450000X-0.350000X0.450000X0.350000X0*%
%TD*%
%TA.AperFunction,SMDPad,CuDef*%
%ADD23R,2.400000X5.700000*%
%TD*%
%TA.AperFunction,SMDPad,CuDef*%
%ADD24RoundRect,0.162000X0.823000X0.138000X-0.823000X0.138000X-0.823000X-0.138000X0.823000X-0.138000X0*%
%TD*%
%TA.AperFunction,SMDPad,CuDef*%
%ADD25R,2.410000X3.300000*%
%TD*%
%TA.AperFunction,SMDPad,CuDef*%
%ADD26R,0.600000X0.800000*%
%TD*%
%TA.AperFunction,SMDPad,CuDef*%
%ADD27R,1.380000X0.450000*%
%TD*%
%TA.AperFunction,SMDPad,CuDef*%
%ADD28R,1.300000X1.650000*%
%TD*%
%TA.AperFunction,SMDPad,CuDef*%
%ADD29R,1.550000X1.425000*%
%TD*%
%TA.AperFunction,SMDPad,CuDef*%
%ADD30R,1.900000X1.800000*%
%TD*%
%TA.AperFunction,SMDPad,CuDef*%
%ADD31R,1.900000X1.000000*%
%TD*%
%TA.AperFunction,SMDPad,CuDef*%
%ADD32RoundRect,0.250000X-0.350000X-0.450000X0.350000X-0.450000X0.350000X0.450000X-0.350000X0.450000X0*%
%TD*%
%TA.AperFunction,SMDPad,CuDef*%
%ADD33R,0.457200X0.787400*%
%TD*%
%TA.AperFunction,SMDPad,CuDef*%
%ADD34RoundRect,0.250000X-0.337500X-0.475000X0.337500X-0.475000X0.337500X0.475000X-0.337500X0.475000X0*%
%TD*%
%TA.AperFunction,ComponentPad*%
%ADD35O,3.500000X2.200000*%
%TD*%
%TA.AperFunction,ComponentPad*%
%ADD36R,2.500000X1.500000*%
%TD*%
%TA.AperFunction,ComponentPad*%
%ADD37O,2.500000X1.500000*%
%TD*%
%TA.AperFunction,ComponentPad*%
%ADD38C,0.700000*%
%TD*%
%TA.AperFunction,ComponentPad*%
%ADD39C,4.400000*%
%TD*%
%TA.AperFunction,SMDPad,CuDef*%
%ADD40RoundRect,0.243750X-0.243750X-0.456250X0.243750X-0.456250X0.243750X0.456250X-0.243750X0.456250X0*%
%TD*%
%TA.AperFunction,ComponentPad*%
%ADD41R,2.500000X2.500000*%
%TD*%
%TA.AperFunction,ComponentPad*%
%ADD42C,2.500000*%
%TD*%
%TA.AperFunction,SMDPad,CuDef*%
%ADD43R,1.500000X0.900000*%
%TD*%
%TA.AperFunction,SMDPad,CuDef*%
%ADD44R,0.900000X1.500000*%
%TD*%
%TA.AperFunction,SMDPad,CuDef*%
%ADD45R,1.050000X1.050000*%
%TD*%
%TA.AperFunction,HeatsinkPad*%
%ADD46C,0.600000*%
%TD*%
%TA.AperFunction,SMDPad,CuDef*%
%ADD47R,4.200000X4.200000*%
%TD*%
%TA.AperFunction,SMDPad,CuDef*%
%ADD48R,2.000000X4.500000*%
%TD*%
%TA.AperFunction,SMDPad,CuDef*%
%ADD49R,2.489200X0.939800*%
%TD*%
%TA.AperFunction,SMDPad,CuDef*%
%ADD50R,6.807200X6.578600*%
%TD*%
%TA.AperFunction,SMDPad,CuDef*%
%ADD51RoundRect,0.062500X-0.337500X-0.062500X0.337500X-0.062500X0.337500X0.062500X-0.337500X0.062500X0*%
%TD*%
%TA.AperFunction,SMDPad,CuDef*%
%ADD52RoundRect,0.062500X-0.062500X-0.337500X0.062500X-0.337500X0.062500X0.337500X-0.062500X0.337500X0*%
%TD*%
%TA.AperFunction,HeatsinkPad*%
%ADD53R,3.350000X3.350000*%
%TD*%
%TA.AperFunction,ComponentPad*%
%ADD54RoundRect,0.500000X-0.500000X0.500000X-0.500000X-0.500000X0.500000X-0.500000X0.500000X0.500000X0*%
%TD*%
%TA.AperFunction,ComponentPad*%
%ADD55C,2.000000*%
%TD*%
%TA.AperFunction,ViaPad*%
%ADD56C,0.700000*%
%TD*%
%TA.AperFunction,ViaPad*%
%ADD57C,0.900000*%
%TD*%
%TA.AperFunction,Conductor*%
%ADD58C,0.300000*%
%TD*%
%TA.AperFunction,Conductor*%
%ADD59C,1.000000*%
%TD*%
%TA.AperFunction,Conductor*%
%ADD60C,0.500000*%
%TD*%
%TA.AperFunction,Conductor*%
%ADD61C,2.000000*%
%TD*%
G04 APERTURE END LIST*
D10*
%TO.N,GND*%
X156435000Y-119185000D02*
X141895000Y-119185000D01*
X141895000Y-117565000D01*
X156435000Y-117565000D01*
X156435000Y-119185000D01*
%TA.AperFunction,Conductor*%
G36*
X156435000Y-119185000D02*
G01*
X141895000Y-119185000D01*
X141895000Y-117565000D01*
X156435000Y-117565000D01*
X156435000Y-119185000D01*
G37*
%TD.AperFunction*%
%TD*%
D11*
%TO.P,C9,1*%
%TO.N,/VoltageRegulatorESD/12v_fuse*%
X122565000Y-88507500D03*
%TO.P,C9,2*%
%TO.N,GND*%
X122565000Y-90582500D03*
%TD*%
D12*
%TO.P,C7,1*%
%TO.N,/VoltageRegulatorESD/Vout*%
X120975000Y-100092500D03*
%TO.P,C7,2*%
%TO.N,GND*%
X120975000Y-98017500D03*
%TD*%
D13*
%TO.P,RV1,1,1*%
%TO.N,/VoltageRegulatorESD/Vout*%
X134615000Y-80365000D03*
D14*
%TO.P,RV1,2,2*%
X137865000Y-81365000D03*
D13*
%TO.P,RV1,3,3*%
%TO.N,/VoltageRegulatorESD/FB*%
X134615000Y-82365000D03*
%TD*%
D15*
%TO.P,FID2,*%
%TO.N,*%
X122275000Y-124255000D03*
%TD*%
D11*
%TO.P,C10,1*%
%TO.N,/VoltageRegulatorESD/12v_fuse*%
X124665000Y-88507500D03*
%TO.P,C10,2*%
%TO.N,GND*%
X124665000Y-90582500D03*
%TD*%
%TO.P,C18,1*%
%TO.N,GND*%
X148325000Y-93177500D03*
%TO.P,C18,2*%
%TO.N,/CAN_controller/osc1*%
X148325000Y-95252500D03*
%TD*%
D16*
%TO.P,J2,1,Pin_1*%
%TO.N,GND*%
X123725000Y-105125000D03*
D17*
%TO.P,J2,2,Pin_2*%
%TO.N,/Microcontroller/TX2*%
X123725000Y-102585000D03*
%TO.P,J2,3,Pin_3*%
%TO.N,/Microcontroller/RX2*%
X123725000Y-100045000D03*
%TO.P,J2,4,Pin_4*%
%TO.N,unconnected-(J2-Pin_4-Pad4)*%
X123725000Y-97505000D03*
%TO.P,J2,5,Pin_5*%
%TO.N,+3V3*%
X123725000Y-94965000D03*
%TD*%
D18*
%TO.P,SW1,1,1*%
%TO.N,IO0*%
X137975000Y-100685000D03*
%TO.P,SW1,2,2*%
%TO.N,GND*%
X130175000Y-100685000D03*
%TD*%
D19*
%TO.P,R13,1*%
%TO.N,GND*%
X136615000Y-84405000D03*
%TO.P,R13,2*%
%TO.N,/VoltageRegulatorESD/FB*%
X134615000Y-84405000D03*
%TD*%
D20*
%TO.P,D3,1,K*%
%TO.N,/VoltageRegulatorESD/SW*%
X131980000Y-94355000D03*
%TO.P,D3,2,A*%
%TO.N,GND*%
X127850000Y-94355000D03*
%TD*%
D21*
%TO.P,TP1,1,1*%
%TO.N,/VoltageRegulatorESD/Vout*%
X120945000Y-94735000D03*
%TD*%
D11*
%TO.P,C19,1*%
%TO.N,GND*%
X148325000Y-84627500D03*
%TO.P,C19,2*%
%TO.N,/CAN_controller/osc2*%
X148325000Y-86702500D03*
%TD*%
D22*
%TO.P,R12,1*%
%TO.N,Net-(C11-Pad2)*%
X138605000Y-86435000D03*
%TO.P,R12,2*%
%TO.N,GND*%
X138605000Y-88435000D03*
%TD*%
D23*
%TO.P,L1,1*%
%TO.N,/VoltageRegulatorESD/SW*%
X135175000Y-92895000D03*
%TO.P,L1,2*%
%TO.N,/VoltageRegulatorESD/Vout*%
X139375000Y-92895000D03*
%TD*%
D19*
%TO.P,R7,1*%
%TO.N,/VoltageRegulatorESD/12v_fuse*%
X124165000Y-86115000D03*
%TO.P,R7,2*%
%TO.N,/VoltageRegulatorESD/EN*%
X122165000Y-86115000D03*
%TD*%
D24*
%TO.P,U2,1,SW*%
%TO.N,/VoltageRegulatorESD/SW*%
X132250000Y-89780000D03*
%TO.P,U2,2,EN*%
%TO.N,/VoltageRegulatorESD/EN*%
X132250000Y-88510000D03*
%TO.P,U2,3,COMP*%
%TO.N,/VoltageRegulatorESD/COMP*%
X132250000Y-87240000D03*
%TO.P,U2,4,FB*%
%TO.N,/VoltageRegulatorESD/FB*%
X132250000Y-85970000D03*
%TO.P,U2,5,GND*%
%TO.N,GND*%
X127300000Y-85970000D03*
%TO.P,U2,6,FREQ*%
%TO.N,/VoltageRegulatorESD/FREQ*%
X127300000Y-87240000D03*
%TO.P,U2,7,VIN*%
%TO.N,/VoltageRegulatorESD/12v_fuse*%
X127300000Y-88510000D03*
%TO.P,U2,8,BST*%
%TO.N,/VoltageRegulatorESD/BST*%
X127300000Y-89780000D03*
D25*
%TO.P,U2,9,GND*%
%TO.N,GND*%
X129775000Y-87875000D03*
%TD*%
D22*
%TO.P,R17,1*%
%TO.N,/MicroUSB_Port/RST*%
X130665000Y-113045000D03*
%TO.P,R17,2*%
%TO.N,+3V3*%
X130665000Y-115045000D03*
%TD*%
D26*
%TO.P,Q3,1*%
%TO.N,/MicroUSB_Port/rts_to_io0*%
X132885000Y-108195000D03*
%TO.P,Q3,2*%
%TO.N,IO0*%
X134785000Y-108195000D03*
%TO.P,Q3,3*%
%TO.N,/MicroUSB_Port/DTR*%
X133835000Y-106175000D03*
%TD*%
D27*
%TO.P,J4,1,VBUS*%
%TO.N,/MicroUSB_Port/VBUS*%
X119110000Y-110627500D03*
%TO.P,J4,2,D-*%
%TO.N,/MicroUSB_Port/D-*%
X119110000Y-111277500D03*
%TO.P,J4,3,D+*%
%TO.N,/MicroUSB_Port/D+*%
X119110000Y-111927500D03*
%TO.P,J4,4,ID*%
%TO.N,unconnected-(J4-ID-Pad4)*%
X119110000Y-112577500D03*
%TO.P,J4,5,GND*%
%TO.N,GND*%
X119110000Y-113227500D03*
D28*
%TO.P,J4,6,Shield*%
%TO.N,unconnected-(J4-Shield-Pad6)_2*%
X116450000Y-108552500D03*
D29*
%TO.N,unconnected-(J4-Shield-Pad6)_1*%
X119025000Y-109440000D03*
D30*
%TO.N,unconnected-(J4-Shield-Pad6)_3*%
X116450000Y-110777500D03*
D31*
%TO.N,unconnected-(J4-Shield-Pad6)_4*%
X116450000Y-113477500D03*
D29*
%TO.N,unconnected-(J4-Shield-Pad6)*%
X119025000Y-114415000D03*
D28*
%TO.N,unconnected-(J4-Shield-Pad6)_5*%
X116450000Y-115302500D03*
%TD*%
D32*
%TO.P,R8,1*%
%TO.N,/VoltageRegulatorESD/EN*%
X134615000Y-88505000D03*
%TO.P,R8,2*%
%TO.N,GND*%
X136615000Y-88505000D03*
%TD*%
D18*
%TO.P,SW2,1,1*%
%TO.N,GND*%
X143435000Y-88455000D03*
%TO.P,SW2,2,2*%
%TO.N,EN*%
X143435000Y-96255000D03*
%TD*%
D33*
%TO.P,D4,1,K*%
%TO.N,/VoltageRegulatorESD/12v_in*%
X120105000Y-82193100D03*
%TO.P,D4,2,A*%
%TO.N,/VoltageRegulatorESD/GND_resistence_protect*%
X120105000Y-79576900D03*
%TD*%
D34*
%TO.P,C6,1*%
%TO.N,/VoltageRegulatorESD/BST*%
X128770000Y-91695000D03*
%TO.P,C6,2*%
%TO.N,/VoltageRegulatorESD/SW*%
X130845000Y-91695000D03*
%TD*%
D35*
%TO.P,SW3,*%
%TO.N,*%
X117225000Y-96275000D03*
X117225000Y-104475000D03*
D36*
%TO.P,SW3,1,C*%
%TO.N,unconnected-(SW3-C-Pad1)*%
X117225000Y-98375000D03*
D37*
%TO.P,SW3,2,B*%
%TO.N,/VoltageRegulatorESD/Vout*%
X117225000Y-100375000D03*
%TO.P,SW3,3,A*%
%TO.N,5v*%
X117225000Y-102375000D03*
%TD*%
D38*
%TO.P,H2,1,1*%
%TO.N,GND*%
X125395000Y-115005000D03*
X125878274Y-113838274D03*
X125878274Y-116171726D03*
X127045000Y-113355000D03*
D39*
X127045000Y-115005000D03*
D38*
X127045000Y-116655000D03*
X128211726Y-113838274D03*
X128211726Y-116171726D03*
X128695000Y-115005000D03*
%TD*%
D19*
%TO.P,R18,1*%
%TO.N,/MicroUSB_Port/dtr_to_en*%
X134855000Y-104465000D03*
%TO.P,R18,2*%
%TO.N,/MicroUSB_Port/DTR*%
X132855000Y-104465000D03*
%TD*%
D40*
%TO.P,D1,1,K*%
%TO.N,GND*%
X116727500Y-121125000D03*
%TO.P,D1,2,A*%
%TO.N,/Microcontroller/can_led*%
X118602500Y-121125000D03*
%TD*%
D11*
%TO.P,C8,1*%
%TO.N,/VoltageRegulatorESD/Vout*%
X120975000Y-102667500D03*
%TO.P,C8,2*%
%TO.N,GND*%
X120975000Y-104742500D03*
%TD*%
D15*
%TO.P,FID3,*%
%TO.N,*%
X122275000Y-77275000D03*
%TD*%
D19*
%TO.P,R11,1*%
%TO.N,/VoltageRegulatorESD/FREQ*%
X119895000Y-84575000D03*
%TO.P,R11,2*%
%TO.N,GND*%
X117895000Y-84575000D03*
%TD*%
D41*
%TO.P,J1,1,1*%
%TO.N,unconnected-(J1-Pad1)*%
X152195000Y-72285000D03*
D42*
%TO.P,J1,2,2*%
%TO.N,unconnected-(J1-Pad2)*%
X148195000Y-72285000D03*
%TO.P,J1,3,3*%
%TO.N,unconnected-(J1-Pad3)*%
X144195000Y-72285000D03*
%TO.P,J1,4,GND*%
%TO.N,GND*%
X140195000Y-72285000D03*
%TO.P,J1,5,5*%
%TO.N,unconnected-(J1-Pad5)*%
X136195000Y-72285000D03*
%TO.P,J1,6,CAN_LOW*%
%TO.N,/CAN_controller/CAN_LOW*%
X132195000Y-72285000D03*
%TO.P,J1,7,7*%
%TO.N,unconnected-(J1-Pad7)*%
X128195000Y-72285000D03*
%TO.P,J1,8,8*%
%TO.N,unconnected-(J1-Pad8)*%
X124195000Y-72285000D03*
%TO.P,J1,9,9*%
%TO.N,unconnected-(J1-Pad9)*%
X152195000Y-75285000D03*
%TO.P,J1,10,10*%
%TO.N,unconnected-(J1-Pad10)*%
X148195000Y-75285000D03*
%TO.P,J1,11,11*%
%TO.N,unconnected-(J1-Pad11)*%
X144195000Y-75285000D03*
%TO.P,J1,12,12*%
%TO.N,unconnected-(J1-Pad12)*%
X140195000Y-75285000D03*
%TO.P,J1,13,13*%
%TO.N,unconnected-(J1-Pad13)*%
X136195000Y-75285000D03*
%TO.P,J1,14,CAN_HIGH*%
%TO.N,/CAN_controller/CAN_HIGH*%
X132195000Y-75285000D03*
%TO.P,J1,15,15*%
%TO.N,unconnected-(J1-Pad15)*%
X128195000Y-75285000D03*
%TO.P,J1,16,VIN*%
%TO.N,/VoltageRegulatorESD/Car_Battery_12v*%
X124195000Y-75285000D03*
%TD*%
D15*
%TO.P,FID1,*%
%TO.N,*%
X157085000Y-77275000D03*
%TD*%
D38*
%TO.P,H1,1,1*%
%TO.N,GND*%
X155155000Y-73845000D03*
X155638274Y-72678274D03*
X155638274Y-75011726D03*
X156805000Y-72195000D03*
D39*
X156805000Y-73845000D03*
D38*
X156805000Y-75495000D03*
X157971726Y-72678274D03*
X157971726Y-75011726D03*
X158455000Y-73845000D03*
%TD*%
D43*
%TO.P,U1,1,GND*%
%TO.N,GND*%
X157925000Y-117820000D03*
%TO.P,U1,2,VDD*%
%TO.N,+3V3*%
X157925000Y-116550000D03*
%TO.P,U1,3,EN*%
%TO.N,EN*%
X157925000Y-115280000D03*
%TO.P,U1,4,SENSOR_VP*%
%TO.N,unconnected-(U1-SENSOR_VP-Pad4)*%
X157925000Y-114010000D03*
%TO.P,U1,5,SENSOR_VN*%
%TO.N,unconnected-(U1-SENSOR_VN-Pad5)*%
X157925000Y-112740000D03*
%TO.P,U1,6,IO34*%
%TO.N,unconnected-(U1-IO34-Pad6)*%
X157925000Y-111470000D03*
%TO.P,U1,7,IO35*%
%TO.N,unconnected-(U1-IO35-Pad7)*%
X157925000Y-110200000D03*
%TO.P,U1,8,IO32*%
%TO.N,unconnected-(U1-IO32-Pad8)*%
X157925000Y-108930000D03*
%TO.P,U1,9,IO33*%
%TO.N,unconnected-(U1-IO33-Pad9)*%
X157925000Y-107660000D03*
%TO.P,U1,10,IO25*%
%TO.N,/Microcontroller/CAN_debug*%
X157925000Y-106390000D03*
%TO.P,U1,11,IO26*%
%TO.N,/Microcontroller/BLE_debug*%
X157925000Y-105120000D03*
%TO.P,U1,12,IO27*%
%TO.N,/CAN_controller/CAN_INT*%
X157925000Y-103850000D03*
%TO.P,U1,13,IO14*%
%TO.N,unconnected-(U1-IO14-Pad13)*%
X157925000Y-102580000D03*
%TO.P,U1,14,IO12*%
%TO.N,unconnected-(U1-IO12-Pad14)*%
X157925000Y-101310000D03*
D44*
%TO.P,U1,15,GND*%
%TO.N,GND*%
X154885000Y-100060000D03*
%TO.P,U1,16,IO13*%
%TO.N,unconnected-(U1-IO13-Pad16)*%
X153615000Y-100060000D03*
%TO.P,U1,17,SHD/SD2*%
%TO.N,unconnected-(U1-SHD{slash}SD2-Pad17)*%
X152345000Y-100060000D03*
%TO.P,U1,18,SWP/SD3*%
%TO.N,unconnected-(U1-SWP{slash}SD3-Pad18)*%
X151075000Y-100060000D03*
%TO.P,U1,19,SCS/CMD*%
%TO.N,unconnected-(U1-SCS{slash}CMD-Pad19)*%
X149805000Y-100060000D03*
%TO.P,U1,20,SCK/CLK*%
%TO.N,unconnected-(U1-SCK{slash}CLK-Pad20)*%
X148535000Y-100060000D03*
%TO.P,U1,21,SDO/SD0*%
%TO.N,unconnected-(U1-SDO{slash}SD0-Pad21)*%
X147265000Y-100060000D03*
%TO.P,U1,22,SDI/SD1*%
%TO.N,unconnected-(U1-SDI{slash}SD1-Pad22)*%
X145995000Y-100060000D03*
%TO.P,U1,23,IO15*%
%TO.N,unconnected-(U1-IO15-Pad23)*%
X144725000Y-100060000D03*
%TO.P,U1,24,IO2*%
%TO.N,unconnected-(U1-IO2-Pad24)*%
X143455000Y-100060000D03*
D43*
%TO.P,U1,25,IO0*%
%TO.N,IO0*%
X140425000Y-101310000D03*
%TO.P,U1,26,IO4*%
%TO.N,unconnected-(U1-IO4-Pad26)*%
X140425000Y-102580000D03*
%TO.P,U1,27,IO16*%
%TO.N,/Microcontroller/RX2*%
X140425000Y-103850000D03*
%TO.P,U1,28,IO17*%
%TO.N,/Microcontroller/TX2*%
X140425000Y-105120000D03*
%TO.P,U1,29,IO5*%
%TO.N,/CAN_controller/CAN_CS*%
X140425000Y-106390000D03*
%TO.P,U1,30,IO18*%
%TO.N,SCLK*%
X140425000Y-107660000D03*
%TO.P,U1,31,IO19*%
%TO.N,MISO*%
X140425000Y-108930000D03*
%TO.P,U1,32,NC*%
%TO.N,unconnected-(U1-NC-Pad32)*%
X140425000Y-110200000D03*
%TO.P,U1,33,IO21*%
%TO.N,/Microcontroller/SDA*%
X140425000Y-111470000D03*
%TO.P,U1,34,RXD0/IO3*%
%TO.N,/Microcontroller/RXD0*%
X140425000Y-112740000D03*
%TO.P,U1,35,TXD0/IO1*%
%TO.N,/Microcontroller/TXD0*%
X140425000Y-114010000D03*
%TO.P,U1,36,IO22*%
%TO.N,/Microcontroller/SCL*%
X140425000Y-115280000D03*
%TO.P,U1,37,IO23*%
%TO.N,MOSI*%
X140425000Y-116550000D03*
%TO.P,U1,38,GND*%
%TO.N,GND*%
X140425000Y-117820000D03*
D45*
%TO.P,U1,39,GND*%
X151380000Y-112005000D03*
D46*
X151380000Y-111242500D03*
D45*
X151380000Y-110480000D03*
D46*
X151380000Y-109717500D03*
D45*
X151380000Y-108955000D03*
D46*
X150617500Y-112005000D03*
X150617500Y-110480000D03*
X150617500Y-108955000D03*
D45*
X149855000Y-112005000D03*
D46*
X149855000Y-111242500D03*
D45*
X149855000Y-110480000D03*
D47*
X149855000Y-110480000D03*
D46*
X149855000Y-109717500D03*
D45*
X149855000Y-108955000D03*
D46*
X149092500Y-112005000D03*
X149092500Y-110480000D03*
X149092500Y-108955000D03*
D45*
X148330000Y-112005000D03*
D46*
X148330000Y-111242500D03*
D45*
X148330000Y-110480000D03*
D46*
X148330000Y-109717500D03*
D45*
X148330000Y-108955000D03*
%TD*%
D48*
%TO.P,Y1,1,1*%
%TO.N,/CAN_controller/osc2*%
X152115000Y-86755000D03*
%TO.P,Y1,2,2*%
%TO.N,/CAN_controller/osc1*%
X152115000Y-95255000D03*
%TD*%
D40*
%TO.P,D5,1,K*%
%TO.N,GND*%
X116727500Y-118125000D03*
%TO.P,D5,2,A*%
%TO.N,/VoltageRegulatorESD/power_led*%
X118602500Y-118125000D03*
%TD*%
D26*
%TO.P,Q2,1*%
%TO.N,/MicroUSB_Port/dtr_to_en*%
X134855000Y-109675000D03*
%TO.P,Q2,2*%
%TO.N,/MicroUSB_Port/RTS*%
X132955000Y-109675000D03*
%TO.P,Q2,3*%
%TO.N,EN*%
X133905000Y-111695000D03*
%TD*%
D34*
%TO.P,C11,1*%
%TO.N,/VoltageRegulatorESD/COMP*%
X134597500Y-86435000D03*
%TO.P,C11,2*%
%TO.N,Net-(C11-Pad2)*%
X136672500Y-86435000D03*
%TD*%
D49*
%TO.P,Q1,1,G*%
%TO.N,/VoltageRegulatorESD/GND_resistence_protect*%
X123349000Y-78834999D03*
D50*
%TO.P,Q1,2,D*%
%TO.N,/VoltageRegulatorESD/Car_Battery_12v*%
X129821999Y-81125000D03*
D49*
%TO.P,Q1,3,S*%
%TO.N,/VoltageRegulatorESD/12v_in*%
X123349000Y-83415001D03*
%TD*%
D51*
%TO.P,U6,1,~{DCD}*%
%TO.N,unconnected-(U6-~{DCD}-Pad1)*%
X126345000Y-107115000D03*
%TO.P,U6,2,~{RI}/CLK*%
%TO.N,unconnected-(U6-~{RI}{slash}CLK-Pad2)*%
X126345000Y-107615000D03*
%TO.P,U6,3,GND*%
%TO.N,GND*%
X126345000Y-108115000D03*
%TO.P,U6,4,D+*%
%TO.N,/MicroUSB_Port/D+*%
X126345000Y-108615000D03*
%TO.P,U6,5,D-*%
%TO.N,/MicroUSB_Port/D-*%
X126345000Y-109115000D03*
%TO.P,U6,6,VDD*%
%TO.N,+3V3*%
X126345000Y-109615000D03*
%TO.P,U6,7,VREGIN*%
X126345000Y-110115000D03*
D52*
%TO.P,U6,8,VBUS*%
%TO.N,/MicroUSB_Port/VBUS*%
X127295000Y-111065000D03*
%TO.P,U6,9,~{RST}*%
%TO.N,/MicroUSB_Port/RST*%
X127795000Y-111065000D03*
%TO.P,U6,10,NC*%
%TO.N,unconnected-(U6-NC-Pad10)*%
X128295000Y-111065000D03*
%TO.P,U6,11,~{SUSPEND}*%
%TO.N,unconnected-(U6-~{SUSPEND}-Pad11)*%
X128795000Y-111065000D03*
%TO.P,U6,12,SUSPEND*%
%TO.N,unconnected-(U6-SUSPEND-Pad12)*%
X129295000Y-111065000D03*
%TO.P,U6,13,CHREN*%
%TO.N,unconnected-(U6-CHREN-Pad13)*%
X129795000Y-111065000D03*
%TO.P,U6,14,CHR1*%
%TO.N,unconnected-(U6-CHR1-Pad14)*%
X130295000Y-111065000D03*
D51*
%TO.P,U6,15,CHR0*%
%TO.N,unconnected-(U6-CHR0-Pad15)*%
X131245000Y-110115000D03*
%TO.P,U6,16,~{WAKEUP}/GPIO.3*%
%TO.N,unconnected-(U6-~{WAKEUP}{slash}GPIO.3-Pad16)*%
X131245000Y-109615000D03*
%TO.P,U6,17,RS485/GPIO.2*%
%TO.N,unconnected-(U6-RS485{slash}GPIO.2-Pad17)*%
X131245000Y-109115000D03*
%TO.P,U6,18,~{RXT}/GPIO.1*%
%TO.N,unconnected-(U6-~{RXT}{slash}GPIO.1-Pad18)*%
X131245000Y-108615000D03*
%TO.P,U6,19,~{TXT}/GPIO.0*%
%TO.N,unconnected-(U6-~{TXT}{slash}GPIO.0-Pad19)*%
X131245000Y-108115000D03*
%TO.P,U6,20,GPIO.6*%
%TO.N,unconnected-(U6-GPIO.6-Pad20)*%
X131245000Y-107615000D03*
%TO.P,U6,21,GPIO.5*%
%TO.N,unconnected-(U6-GPIO.5-Pad21)*%
X131245000Y-107115000D03*
D52*
%TO.P,U6,22,GPIO.4*%
%TO.N,unconnected-(U6-GPIO.4-Pad22)*%
X130295000Y-106165000D03*
%TO.P,U6,23,~{CTS}*%
%TO.N,unconnected-(U6-~{CTS}-Pad23)*%
X129795000Y-106165000D03*
%TO.P,U6,24,~{RTS}*%
%TO.N,/MicroUSB_Port/RTS*%
X129295000Y-106165000D03*
%TO.P,U6,25,RXD*%
%TO.N,/MicroUSB_Port/RXD*%
X128795000Y-106165000D03*
%TO.P,U6,26,TXD*%
%TO.N,/MicroUSB_Port/TXD*%
X128295000Y-106165000D03*
%TO.P,U6,27,~{DSR}*%
%TO.N,unconnected-(U6-~{DSR}-Pad27)*%
X127795000Y-106165000D03*
%TO.P,U6,28,~{DTR}*%
%TO.N,/MicroUSB_Port/DTR*%
X127295000Y-106165000D03*
D53*
%TO.P,U6,29,GND*%
%TO.N,GND*%
X128795000Y-108615000D03*
%TD*%
D54*
%TO.P,F1,1*%
%TO.N,/VoltageRegulatorESD/12v_in*%
X118665000Y-72125000D03*
X118665000Y-77125000D03*
D55*
%TO.P,F1,2*%
%TO.N,/VoltageRegulatorESD/12v_fuse*%
X118665000Y-87125000D03*
X118665000Y-92125000D03*
%TD*%
D19*
%TO.P,R19,1*%
%TO.N,/MicroUSB_Port/rts_to_io0*%
X134945000Y-113385000D03*
%TO.P,R19,2*%
%TO.N,/MicroUSB_Port/RTS*%
X132945000Y-113385000D03*
%TD*%
D40*
%TO.P,D2,1,K*%
%TO.N,GND*%
X116727500Y-124125000D03*
%TO.P,D2,2,A*%
%TO.N,/Microcontroller/ble_led*%
X118602500Y-124125000D03*
%TD*%
D16*
%TO.P,J3,1,Pin_1*%
%TO.N,unconnected-(J3-Pin_1-Pad1)*%
X157645000Y-86125000D03*
D17*
%TO.P,J3,2,Pin_2*%
%TO.N,unconnected-(J3-Pin_2-Pad2)*%
X157645000Y-88665000D03*
%TO.P,J3,3,Pin_3*%
%TO.N,/Microcontroller/SDA*%
X157645000Y-91205000D03*
%TO.P,J3,4,Pin_4*%
%TO.N,/Microcontroller/SCL*%
X157645000Y-93745000D03*
%TO.P,J3,5,Pin_5*%
%TO.N,unconnected-(J3-Pin_5-Pad5)*%
X157645000Y-96285000D03*
%TD*%
D56*
%TO.N,GND*%
X142955000Y-98345000D03*
X146415000Y-93355000D03*
D57*
X150245000Y-118415000D03*
D56*
X157955000Y-99985000D03*
X147325000Y-91495000D03*
X144395000Y-111565000D03*
X155705000Y-87575000D03*
X146975000Y-115895000D03*
X150185000Y-90495000D03*
X124605000Y-81085000D03*
X118165000Y-116155000D03*
X131275000Y-111535000D03*
X150025000Y-73785000D03*
X135195000Y-118845000D03*
X116075000Y-106665000D03*
X146235000Y-73705000D03*
X122075000Y-81085000D03*
X133195000Y-118845000D03*
X124665000Y-91685000D03*
D57*
X127715000Y-107535000D03*
D56*
X123615000Y-115655000D03*
X148325000Y-90495000D03*
X149565000Y-93175000D03*
X129755000Y-86745000D03*
X134515000Y-101235000D03*
D57*
X145165000Y-118415000D03*
D56*
X152515000Y-82935000D03*
X116725000Y-119605000D03*
X132195000Y-118845000D03*
D57*
X127715000Y-109745000D03*
D56*
X136270000Y-103620000D03*
X153945000Y-92255000D03*
X146415000Y-90495000D03*
X130385000Y-73715000D03*
X144975000Y-115895000D03*
X136615000Y-83185000D03*
X134195000Y-71385000D03*
X124735000Y-122895000D03*
X134195000Y-118845000D03*
X137265000Y-90115000D03*
X149775000Y-85165000D03*
X122305000Y-113305000D03*
X124085000Y-116635000D03*
X129755000Y-89075000D03*
X147325000Y-90495000D03*
X152675000Y-103215000D03*
X147335000Y-89565000D03*
X138215000Y-73655000D03*
X133315000Y-115185000D03*
X145975000Y-115895000D03*
X153945000Y-91255000D03*
X157925000Y-118795000D03*
X131195000Y-118845000D03*
X146425000Y-89565000D03*
X153945000Y-89395000D03*
X122565000Y-106855000D03*
X127285000Y-85165000D03*
X120835000Y-96785000D03*
X146415000Y-91495000D03*
X136980000Y-106790000D03*
X124735000Y-124895000D03*
X118125000Y-94155000D03*
X139665000Y-100025000D03*
X146415000Y-92355000D03*
X124735000Y-123895000D03*
X136195000Y-118845000D03*
X124735000Y-121895000D03*
D57*
X142625000Y-118415000D03*
D56*
X140425000Y-118795000D03*
X116725000Y-122635000D03*
X142205000Y-73705000D03*
X149185000Y-90495000D03*
X154495000Y-96525000D03*
X128235000Y-101285000D03*
X137195000Y-118845000D03*
X138195000Y-118845000D03*
X126175000Y-73695000D03*
X121035000Y-113405000D03*
D57*
X147705000Y-118415000D03*
X152785000Y-118415000D03*
D56*
X148325000Y-91495000D03*
D57*
X116535000Y-84575000D03*
D56*
X149185000Y-91495000D03*
X150185000Y-91495000D03*
X155705000Y-89935000D03*
X153945000Y-90395000D03*
D57*
X155325000Y-118415000D03*
D56*
X143435000Y-89725000D03*
X122565000Y-91695000D03*
X129615000Y-94015000D03*
%TO.N,+3V3*%
X131885000Y-115045000D03*
X143525000Y-103935000D03*
X156455000Y-116135000D03*
X122985000Y-109085000D03*
%TO.N,IO0*%
X141145000Y-100265000D03*
X134985000Y-107085000D03*
%TO.N,EN*%
X150615000Y-98655000D03*
X156624998Y-113125000D03*
X144015000Y-108855000D03*
X133255000Y-110775000D03*
X148815000Y-101695000D03*
D57*
%TO.N,/VoltageRegulatorESD/Vout*%
X119615000Y-94025000D03*
D56*
%TO.N,5v*%
X121185000Y-106875000D03*
%TO.N,/CAN_controller/osc1*%
X152105000Y-90905000D03*
%TO.N,/CAN_controller/osc2*%
X148935000Y-89005000D03*
%TO.N,/MicroUSB_Port/VBUS*%
X117949999Y-110613478D03*
X119585000Y-115945000D03*
%TO.N,/VoltageRegulatorESD/power_led*%
X119545000Y-118125000D03*
D57*
%TO.N,/VoltageRegulatorESD/12v_in*%
X123345000Y-82245000D03*
D56*
%TO.N,/Microcontroller/SCL*%
X144525000Y-114485000D03*
X141655000Y-115285000D03*
%TO.N,/Microcontroller/SDA*%
X144680000Y-109550000D03*
X141695000Y-111465000D03*
%TO.N,/MicroUSB_Port/D-*%
X120393229Y-110371733D03*
X124115000Y-108585000D03*
%TO.N,/Microcontroller/TXD0*%
X139205000Y-114035000D03*
%TO.N,/MicroUSB_Port/RXD*%
X136448776Y-109691175D03*
X134470000Y-114740000D03*
X126785000Y-101265000D03*
X126795000Y-104345000D03*
X132255000Y-100255000D03*
%TO.N,/MicroUSB_Port/TXD*%
X126469810Y-105184200D03*
X125805000Y-101095000D03*
X133415000Y-100185000D03*
X137770025Y-109699975D03*
X136050000Y-111470000D03*
%TO.N,/Microcontroller/CAN_debug*%
X145815000Y-114595000D03*
%TO.N,/Microcontroller/BLE_debug*%
X124835000Y-117865000D03*
X146355000Y-113875000D03*
X123475000Y-122635000D03*
%TO.N,/VoltageRegulatorESD/EN*%
X120395000Y-86115000D03*
X135605000Y-87515000D03*
%TO.N,/VoltageRegulatorESD/FREQ*%
X125890000Y-86730000D03*
X121525000Y-84585000D03*
%TO.N,/CAN_controller/CAN_INT*%
X158925000Y-99105000D03*
%TO.N,/CAN_controller/CAN_CS*%
X144285000Y-101425000D03*
%TO.N,SCLK*%
X138725000Y-106895000D03*
%TO.N,MISO*%
X145335000Y-101415000D03*
%TO.N,MOSI*%
X146234492Y-101445320D03*
%TO.N,/Microcontroller/can_led*%
X119565000Y-121125000D03*
%TO.N,/Microcontroller/ble_led*%
X119575000Y-124125000D03*
D57*
%TO.N,/VoltageRegulatorESD/GND_resistence_protect*%
X123345000Y-80095000D03*
D56*
%TO.N,/Microcontroller/RXD0*%
X139175000Y-112755000D03*
%TD*%
D58*
%TO.N,GND*%
X137265000Y-90115000D02*
X137265000Y-89845000D01*
D59*
X116535000Y-84575000D02*
X117895000Y-84575000D01*
D60*
X128235000Y-101285000D02*
X128835000Y-100685000D01*
X122565000Y-91695000D02*
X122565000Y-90582500D01*
D59*
X129275000Y-94355000D02*
X129615000Y-94015000D01*
D60*
X120975000Y-105265000D02*
X120975000Y-104742500D01*
D59*
X138535000Y-88505000D02*
X138605000Y-88435000D01*
D58*
X119072500Y-113265000D02*
X119110000Y-113227500D01*
D59*
X120835000Y-96785000D02*
X120975000Y-96925000D01*
D60*
X122565000Y-106855000D02*
X120975000Y-105265000D01*
D59*
X149237500Y-84627500D02*
X148325000Y-84627500D01*
D58*
X128295000Y-108115000D02*
X128795000Y-108615000D01*
D59*
X120975000Y-96925000D02*
X120975000Y-98017500D01*
X147705000Y-118415000D02*
X145165000Y-118415000D01*
D60*
X128835000Y-100685000D02*
X130175000Y-100685000D01*
D58*
X121035000Y-113405000D02*
X120857500Y-113227500D01*
D59*
X136615000Y-88505000D02*
X138535000Y-88505000D01*
X127850000Y-94355000D02*
X129275000Y-94355000D01*
D58*
X136615000Y-89195000D02*
X136615000Y-88505000D01*
D59*
X143435000Y-89725000D02*
X143435000Y-88455000D01*
D58*
X127300000Y-85180000D02*
X127285000Y-85165000D01*
D60*
X140425000Y-118795000D02*
X140425000Y-117820000D01*
X134515000Y-101235000D02*
X131735000Y-101235000D01*
D58*
X126345000Y-108115000D02*
X128295000Y-108115000D01*
D60*
X129775000Y-87405000D02*
X129775000Y-87875000D01*
X129755000Y-86745000D02*
X129755000Y-87385000D01*
X129755000Y-87385000D02*
X129775000Y-87405000D01*
D58*
X127300000Y-85970000D02*
X127300000Y-85180000D01*
D60*
X131735000Y-101235000D02*
X131185000Y-100685000D01*
X157925000Y-118795000D02*
X157925000Y-117820000D01*
D58*
X120857500Y-113227500D02*
X119110000Y-113227500D01*
D59*
X149562500Y-93177500D02*
X149565000Y-93175000D01*
D60*
X131185000Y-100685000D02*
X130175000Y-100685000D01*
D59*
X148325000Y-93177500D02*
X149562500Y-93177500D01*
X152785000Y-118415000D02*
X150245000Y-118415000D01*
X154885000Y-100060000D02*
X154885000Y-96915000D01*
X154885000Y-96915000D02*
X154495000Y-96525000D01*
X136615000Y-84405000D02*
X136615000Y-83185000D01*
D60*
X129115000Y-86745000D02*
X129755000Y-86745000D01*
D59*
X155325000Y-118415000D02*
X152785000Y-118415000D01*
D58*
X137265000Y-89845000D02*
X136615000Y-89195000D01*
D59*
X145165000Y-118415000D02*
X142625000Y-118415000D01*
X150245000Y-118415000D02*
X147705000Y-118415000D01*
D60*
X124665000Y-91685000D02*
X124665000Y-90582500D01*
D59*
X149775000Y-85165000D02*
X149237500Y-84627500D01*
D58*
%TO.N,+3V3*%
X126125000Y-97375000D02*
X126125000Y-97365000D01*
X142025000Y-101985000D02*
X142025000Y-99925000D01*
X156455000Y-116135000D02*
X156875000Y-116555000D01*
X156875000Y-116555000D02*
X157920000Y-116555000D01*
X143525000Y-103485000D02*
X142025000Y-101985000D01*
X142025000Y-99925000D02*
X139475000Y-97375000D01*
X130665000Y-115045000D02*
X131885000Y-115045000D01*
X123515000Y-109615000D02*
X126345000Y-109615000D01*
X122985000Y-109085000D02*
X123515000Y-109615000D01*
X139475000Y-97375000D02*
X126125000Y-97375000D01*
X157920000Y-116555000D02*
X157925000Y-116550000D01*
X143525000Y-103935000D02*
X143525000Y-103485000D01*
X126345000Y-110115000D02*
X126345000Y-109615000D01*
X126125000Y-97365000D02*
X123725000Y-94965000D01*
%TO.N,IO0*%
X140895000Y-100265000D02*
X140425000Y-100735000D01*
X138875000Y-100685000D02*
X137975000Y-100685000D01*
X141145000Y-100265000D02*
X140895000Y-100265000D01*
X140425000Y-101310000D02*
X139500000Y-101310000D01*
X134985000Y-107085000D02*
X134785000Y-107285000D01*
X134785000Y-107285000D02*
X134785000Y-108195000D01*
X140425000Y-100735000D02*
X140425000Y-101310000D01*
X139500000Y-101310000D02*
X138875000Y-100685000D01*
%TO.N,EN*%
X148815000Y-104045000D02*
X146265000Y-106595000D01*
X144285000Y-108575000D02*
X144285000Y-108585000D01*
X133255000Y-110775000D02*
X133255000Y-111045000D01*
X150615000Y-98655000D02*
X149975000Y-98015000D01*
X156624998Y-113125000D02*
X156624998Y-114874998D01*
X133255000Y-111045000D02*
X133905000Y-111695000D01*
X146455000Y-98015000D02*
X144695000Y-96255000D01*
X156624998Y-114874998D02*
X157030000Y-115280000D01*
X144285000Y-108585000D02*
X144015000Y-108855000D01*
X157030000Y-115280000D02*
X157925000Y-115280000D01*
X146265000Y-106595000D02*
X144285000Y-108575000D01*
X144695000Y-96255000D02*
X143435000Y-96255000D01*
X148815000Y-101695000D02*
X148815000Y-104045000D01*
X149975000Y-98015000D02*
X146455000Y-98015000D01*
D60*
%TO.N,/VoltageRegulatorESD/BST*%
X127300000Y-89780000D02*
X127300000Y-90990000D01*
X127300000Y-90990000D02*
X128005000Y-91695000D01*
X128005000Y-91695000D02*
X128770000Y-91695000D01*
%TO.N,/VoltageRegulatorESD/Vout*%
X139375000Y-95685000D02*
X139375000Y-92895000D01*
X126065000Y-94215000D02*
X126065000Y-95575000D01*
X124775000Y-92925000D02*
X126065000Y-94215000D01*
X121745000Y-92925000D02*
X124775000Y-92925000D01*
X120715000Y-92925000D02*
X121745000Y-92925000D01*
X117225000Y-100375000D02*
X119255000Y-100375000D01*
X119255000Y-100375000D02*
X119537500Y-100092500D01*
X120945000Y-93725000D02*
X120945000Y-94735000D01*
X126995000Y-96505000D02*
X138555000Y-96505000D01*
X126065000Y-95575000D02*
X126995000Y-96505000D01*
X119615000Y-94025000D02*
X120715000Y-92925000D01*
X119537500Y-100092500D02*
X120975000Y-100092500D01*
X120975000Y-102667500D02*
X120975000Y-100092500D01*
X138555000Y-96505000D02*
X139375000Y-95685000D01*
X121745000Y-92925000D02*
X120945000Y-93725000D01*
%TO.N,/VoltageRegulatorESD/12v_fuse*%
X121317500Y-88507500D02*
X122565000Y-88507500D01*
X118665000Y-92125000D02*
X118665000Y-87125000D01*
X118665000Y-87125000D02*
X119935000Y-87125000D01*
X119935000Y-87125000D02*
X121317500Y-88507500D01*
%TO.N,Net-(C11-Pad2)*%
X136672500Y-86435000D02*
X138605000Y-86435000D01*
%TO.N,/VoltageRegulatorESD/COMP*%
X133270000Y-87240000D02*
X134075000Y-86435000D01*
X134075000Y-86435000D02*
X134597500Y-86435000D01*
X132250000Y-87240000D02*
X133270000Y-87240000D01*
D58*
%TO.N,5v*%
X119575000Y-102925000D02*
X119025000Y-102375000D01*
X119025000Y-102375000D02*
X117225000Y-102375000D01*
X119575000Y-105265000D02*
X119575000Y-102925000D01*
X121185000Y-106875000D02*
X119575000Y-105265000D01*
%TO.N,/CAN_controller/osc1*%
X148327500Y-95255000D02*
X148325000Y-95252500D01*
X152105000Y-90905000D02*
X152115000Y-90915000D01*
X152115000Y-95255000D02*
X148327500Y-95255000D01*
X152115000Y-90915000D02*
X152115000Y-95255000D01*
%TO.N,/CAN_controller/osc2*%
X148325000Y-87145000D02*
X148325000Y-86702500D01*
X148935000Y-87755000D02*
X148325000Y-87145000D01*
X148935000Y-88335000D02*
X149465000Y-87805000D01*
X149465000Y-87805000D02*
X150515000Y-86755000D01*
X148935000Y-89005000D02*
X148935000Y-88335000D01*
X148935000Y-88335000D02*
X148935000Y-87755000D01*
X150515000Y-86755000D02*
X152115000Y-86755000D01*
%TO.N,/MicroUSB_Port/VBUS*%
X126595000Y-111065000D02*
X127295000Y-111065000D01*
X117964021Y-110627500D02*
X119110000Y-110627500D01*
X119585000Y-115945000D02*
X121715000Y-115945000D01*
X121715000Y-115945000D02*
X126595000Y-111065000D01*
X117949999Y-110613478D02*
X117964021Y-110627500D01*
%TO.N,/VoltageRegulatorESD/power_led*%
X119545000Y-118125000D02*
X118602500Y-118125000D01*
D60*
%TO.N,/VoltageRegulatorESD/12v_in*%
X120105000Y-82193100D02*
X119523100Y-82193100D01*
X118665000Y-81335000D02*
X118665000Y-77125000D01*
X123349000Y-83415001D02*
X123349000Y-82249000D01*
X118665000Y-77125000D02*
X118665000Y-72125000D01*
X119523100Y-82193100D02*
X118665000Y-81335000D01*
X123349000Y-83415001D02*
X121795001Y-83415001D01*
X121795001Y-83415001D02*
X120573100Y-82193100D01*
X123349000Y-82249000D02*
X123345000Y-82245000D01*
X120573100Y-82193100D02*
X120105000Y-82193100D01*
D59*
%TO.N,/VoltageRegulatorESD/Car_Battery_12v*%
X124195000Y-75285000D02*
X124195000Y-75498001D01*
D61*
X124195000Y-75498001D02*
X129821999Y-81125000D01*
D58*
%TO.N,/Microcontroller/RX2*%
X132380105Y-98075000D02*
X127098000Y-98075000D01*
X123730000Y-100045000D02*
X123725000Y-100045000D01*
X139627500Y-103850000D02*
X140425000Y-103850000D01*
X133532223Y-98552223D02*
X138266082Y-103286082D01*
X123738535Y-100041464D02*
X124720000Y-99060000D01*
X127098000Y-98075000D02*
G75*
G03*
X124720000Y-99060000I0J-3363000D01*
G01*
X133532223Y-98552223D02*
G75*
G03*
X132380105Y-98074985I-1152123J-1152077D01*
G01*
X138266082Y-103286082D02*
G75*
G03*
X139627500Y-103850010I1361418J1361382D01*
G01*
X123738535Y-100041464D02*
G75*
G02*
X123730000Y-100044991I-8535J8564D01*
G01*
%TO.N,/Microcontroller/TX2*%
X132136989Y-102275000D02*
X132136989Y-102895000D01*
X132376989Y-103135000D02*
X132496989Y-103135000D01*
X139852500Y-105120000D02*
X140425000Y-105120000D01*
X138875181Y-104715181D02*
X137195339Y-103035339D01*
X131536989Y-102345000D02*
X131536989Y-102275000D01*
X131776989Y-102035000D02*
X131896989Y-102035000D01*
X136108124Y-102585000D02*
X132976989Y-102585000D01*
X131296989Y-102585000D02*
X123725000Y-102585000D01*
X132736989Y-102895000D02*
X132736989Y-102825000D01*
X132976989Y-102585000D02*
G75*
G03*
X132737000Y-102825000I11J-240000D01*
G01*
X138875181Y-104715181D02*
G75*
G03*
X139852500Y-105120011I977319J977281D01*
G01*
X132136989Y-102275000D02*
G75*
G03*
X131896989Y-102035011I-239989J0D01*
G01*
X132136989Y-102895000D02*
G75*
G03*
X132376989Y-103135011I240011J0D01*
G01*
X131536989Y-102345000D02*
G75*
G02*
X131296989Y-102584989I-239989J0D01*
G01*
X132736989Y-102895000D02*
G75*
G02*
X132496989Y-103134989I-239989J0D01*
G01*
X137195339Y-103035339D02*
G75*
G03*
X136108124Y-102584967I-1087239J-1087161D01*
G01*
X131776989Y-102035000D02*
G75*
G03*
X131537000Y-102275000I11J-240000D01*
G01*
%TO.N,/Microcontroller/SCL*%
X145675000Y-113335000D02*
X145675000Y-109615000D01*
X156475000Y-99995000D02*
X159345000Y-97125000D01*
X159345000Y-97125000D02*
X159345000Y-95435000D01*
X140425000Y-115280000D02*
X141650000Y-115280000D01*
X145675000Y-109615000D02*
X147725000Y-107565000D01*
X152332106Y-107565000D02*
X156475000Y-103422106D01*
X159345000Y-95435000D02*
X157655000Y-93745000D01*
X156475000Y-103422106D02*
X156475000Y-99995000D01*
X141650000Y-115280000D02*
X141655000Y-115285000D01*
X157655000Y-93745000D02*
X157645000Y-93745000D01*
X144525000Y-114485000D02*
X145675000Y-113335000D01*
X147725000Y-107565000D02*
X152332106Y-107565000D01*
%TO.N,/Microcontroller/SDA*%
X147525000Y-106705000D02*
X151895000Y-106705000D01*
X140425000Y-111470000D02*
X141690000Y-111470000D01*
X141690000Y-111470000D02*
X141695000Y-111465000D01*
X157635000Y-91205000D02*
X157645000Y-91205000D01*
X144680000Y-109550000D02*
X147525000Y-106705000D01*
X155895000Y-92945000D02*
X157635000Y-91205000D01*
X155895000Y-102705000D02*
X155895000Y-92945000D01*
X151895000Y-106705000D02*
X155895000Y-102705000D01*
%TO.N,/MicroUSB_Port/D-*%
X120100000Y-111277500D02*
X120393229Y-110984271D01*
X120393229Y-110984271D02*
X120393229Y-110371733D01*
X124645000Y-109115000D02*
X126345000Y-109115000D01*
X124115000Y-108585000D02*
X124645000Y-109115000D01*
X119110000Y-111277500D02*
X120100000Y-111277500D01*
%TO.N,/MicroUSB_Port/D+*%
X119110000Y-111927500D02*
X120157107Y-111927500D01*
X125165000Y-108615000D02*
X126345000Y-108615000D01*
X120157107Y-111927500D02*
X121093229Y-110991378D01*
X121093229Y-110991378D02*
X121093229Y-108956771D01*
X124435000Y-107885000D02*
X125165000Y-108615000D01*
X122165000Y-107885000D02*
X124435000Y-107885000D01*
X121093229Y-108956771D02*
X122165000Y-107885000D01*
%TO.N,/MicroUSB_Port/dtr_to_en*%
X135985000Y-109165000D02*
X135985000Y-104855000D01*
X135475000Y-109675000D02*
X135985000Y-109165000D01*
X135595000Y-104465000D02*
X134855000Y-104465000D01*
X135985000Y-104855000D02*
X135595000Y-104465000D01*
X134855000Y-109675000D02*
X135475000Y-109675000D01*
%TO.N,/MicroUSB_Port/RTS*%
X132125000Y-109345000D02*
X132455000Y-109675000D01*
X132125000Y-105715000D02*
X132125000Y-109345000D01*
X129295000Y-105435000D02*
X129605000Y-105125000D01*
X132945000Y-113385000D02*
X132945000Y-111815000D01*
X129295000Y-106165000D02*
X129295000Y-105435000D01*
X129605000Y-105125000D02*
X131535000Y-105125000D01*
X132945000Y-111815000D02*
X132125000Y-110995000D01*
X131535000Y-105125000D02*
X132125000Y-105715000D01*
X132125000Y-110995000D02*
X132125000Y-109345000D01*
X132945000Y-109685000D02*
X132955000Y-109675000D01*
X132455000Y-109675000D02*
X132955000Y-109675000D01*
%TO.N,/MicroUSB_Port/rts_to_io0*%
X133905000Y-110215000D02*
X133905000Y-108715000D01*
X134945000Y-111255000D02*
X133905000Y-110215000D01*
X133905000Y-108715000D02*
X133385000Y-108195000D01*
X134945000Y-113385000D02*
X134945000Y-111255000D01*
X133385000Y-108195000D02*
X132885000Y-108195000D01*
%TO.N,/MicroUSB_Port/DTR*%
X133835000Y-106175000D02*
X133835000Y-105445000D01*
X126555000Y-103555000D02*
X125585000Y-104525000D01*
X131785000Y-104465000D02*
X130875000Y-103555000D01*
X133835000Y-105445000D02*
X132855000Y-104465000D01*
X125585000Y-104525000D02*
X125585000Y-105655000D01*
X130875000Y-103555000D02*
X126555000Y-103555000D01*
X132855000Y-104465000D02*
X131785000Y-104465000D01*
X125585000Y-105655000D02*
X126095000Y-106165000D01*
X126095000Y-106165000D02*
X127295000Y-106165000D01*
%TO.N,/Microcontroller/TXD0*%
X140425000Y-114010000D02*
X139230000Y-114010000D01*
X139230000Y-114010000D02*
X139205000Y-114035000D01*
%TO.N,/MicroUSB_Port/RXD*%
X127055000Y-104605000D02*
X128015000Y-104605000D01*
X138570000Y-109290000D02*
X138140000Y-108860000D01*
X126815000Y-101265000D02*
X128695000Y-99385000D01*
X137270000Y-108860000D02*
X136448776Y-109681224D01*
X126785000Y-101265000D02*
X126815000Y-101265000D01*
X128015000Y-104605000D02*
X128795000Y-105385000D01*
X136448776Y-109681224D02*
X136448776Y-109691175D01*
X135570000Y-115110000D02*
X136330000Y-114350000D01*
X136330000Y-112750000D02*
X138570000Y-110510000D01*
X134740000Y-115110000D02*
X135570000Y-115110000D01*
X131385000Y-99385000D02*
X132255000Y-100255000D01*
X136330000Y-114350000D02*
X136330000Y-112750000D01*
X138140000Y-108860000D02*
X137270000Y-108860000D01*
X128695000Y-99385000D02*
X131385000Y-99385000D01*
X128795000Y-105385000D02*
X128795000Y-106165000D01*
X138570000Y-110510000D02*
X138570000Y-109290000D01*
X134470000Y-114740000D02*
X134470000Y-114840000D01*
X134470000Y-114840000D02*
X134740000Y-115110000D01*
X126795000Y-104345000D02*
X127055000Y-104605000D01*
%TO.N,/MicroUSB_Port/TXD*%
X137770025Y-110399975D02*
X136700000Y-111470000D01*
X132115000Y-98885000D02*
X133415000Y-100185000D01*
X128005000Y-98885000D02*
X132115000Y-98885000D01*
X127887094Y-105184200D02*
X126469810Y-105184200D01*
X137770025Y-109699975D02*
X137770025Y-110399975D01*
X128295000Y-106165000D02*
X128295000Y-105592106D01*
X136700000Y-111470000D02*
X136050000Y-111470000D01*
X125805000Y-101095000D02*
X125805000Y-101085000D01*
X125805000Y-101085000D02*
X128005000Y-98885000D01*
X128295000Y-105592106D02*
X127941447Y-105238553D01*
X127941447Y-105238553D02*
X127887094Y-105184200D01*
%TO.N,/Microcontroller/CAN_debug*%
X145815000Y-114595000D02*
X145825000Y-114605000D01*
X154095000Y-113125000D02*
X154095000Y-108075000D01*
X145825000Y-114605000D02*
X152615000Y-114605000D01*
X152615000Y-114605000D02*
X154095000Y-113125000D01*
X154095000Y-108075000D02*
X155780000Y-106390000D01*
X155780000Y-106390000D02*
X157925000Y-106390000D01*
%TO.N,/Microcontroller/BLE_debug*%
X122685000Y-119875000D02*
X124695000Y-117865000D01*
X124695000Y-117865000D02*
X124835000Y-117865000D01*
X155940000Y-105120000D02*
X157925000Y-105120000D01*
X153285000Y-112705000D02*
X153285000Y-107775000D01*
X123475000Y-122635000D02*
X122685000Y-121845000D01*
X122685000Y-121845000D02*
X122685000Y-119875000D01*
X153285000Y-107775000D02*
X155940000Y-105120000D01*
X152115000Y-113875000D02*
X153285000Y-112705000D01*
X146355000Y-113875000D02*
X152115000Y-113875000D01*
D60*
%TO.N,/VoltageRegulatorESD/EN*%
X134610000Y-88510000D02*
X134615000Y-88505000D01*
D58*
X134615000Y-88505000D02*
X135605000Y-87515000D01*
X120395000Y-86115000D02*
X122165000Y-86115000D01*
D60*
X132250000Y-88510000D02*
X134610000Y-88510000D01*
D58*
X134615000Y-88505000D02*
X134615000Y-88485745D01*
%TO.N,/VoltageRegulatorESD/FREQ*%
X121515000Y-84575000D02*
X119895000Y-84575000D01*
X125890000Y-86730000D02*
X126400000Y-87240000D01*
X121525000Y-84585000D02*
X121515000Y-84575000D01*
X126400000Y-87240000D02*
X127300000Y-87240000D01*
D60*
%TO.N,/VoltageRegulatorESD/FB*%
X132250000Y-85970000D02*
X133050000Y-85970000D01*
X133050000Y-85970000D02*
X134615000Y-84405000D01*
X134615000Y-84405000D02*
X134615000Y-82365000D01*
D58*
%TO.N,/MicroUSB_Port/RST*%
X129855000Y-113045000D02*
X128995000Y-112185000D01*
X127795000Y-111685000D02*
X127795000Y-111065000D01*
X128295000Y-112185000D02*
X127795000Y-111685000D01*
X128995000Y-112185000D02*
X128295000Y-112185000D01*
X130665000Y-113045000D02*
X129855000Y-113045000D01*
%TO.N,/CAN_controller/CAN_INT*%
X159315000Y-103545000D02*
X159315000Y-99495000D01*
X159315000Y-99495000D02*
X158925000Y-99105000D01*
X157925000Y-103850000D02*
X159010000Y-103850000D01*
X159010000Y-103850000D02*
X159315000Y-103545000D01*
%TO.N,/CAN_controller/CAN_CS*%
X144285000Y-101425000D02*
X144285000Y-104705000D01*
X142600000Y-106390000D02*
X140425000Y-106390000D01*
X144285000Y-104705000D02*
X142600000Y-106390000D01*
%TO.N,SCLK*%
X139490000Y-107660000D02*
X140425000Y-107660000D01*
X138725000Y-106895000D02*
X139490000Y-107660000D01*
%TO.N,MISO*%
X145335000Y-101415000D02*
X145335000Y-105015000D01*
X141420000Y-108930000D02*
X140425000Y-108930000D01*
X145335000Y-105015000D02*
X141420000Y-108930000D01*
%TO.N,MOSI*%
X146245000Y-105345000D02*
X146245000Y-101455828D01*
X140425000Y-116550000D02*
X141720000Y-116550000D01*
X141720000Y-116550000D02*
X142575000Y-115695000D01*
X142575000Y-109015000D02*
X146245000Y-105345000D01*
X146245000Y-101455828D02*
X146234492Y-101445320D01*
X142575000Y-115695000D02*
X142575000Y-109015000D01*
%TO.N,/Microcontroller/can_led*%
X118602500Y-121125000D02*
X119565000Y-121125000D01*
%TO.N,/Microcontroller/ble_led*%
X118602500Y-124125000D02*
X119575000Y-124125000D01*
D60*
%TO.N,/VoltageRegulatorESD/GND_resistence_protect*%
X123345000Y-80095000D02*
X123349000Y-80091000D01*
X120105000Y-79576900D02*
X120883100Y-79576900D01*
X123349000Y-80091000D02*
X123349000Y-78834999D01*
X121625001Y-78834999D02*
X123349000Y-78834999D01*
X120883100Y-79576900D02*
X121625001Y-78834999D01*
D58*
%TO.N,/Microcontroller/RXD0*%
X139190000Y-112740000D02*
X139175000Y-112755000D01*
X140410000Y-112725000D02*
X140425000Y-112740000D01*
X140425000Y-112740000D02*
X139190000Y-112740000D01*
%TD*%
%TA.AperFunction,Conductor*%
%TO.N,/VoltageRegulatorESD/Vout*%
G36*
X138390677Y-79594685D02*
G01*
X138411319Y-79611319D01*
X138818681Y-80018681D01*
X138852166Y-80080004D01*
X138855000Y-80106362D01*
X138855000Y-83855000D01*
X140578681Y-85578681D01*
X140612166Y-85640004D01*
X140615000Y-85666362D01*
X140615000Y-95631000D01*
X140595315Y-95698039D01*
X140542511Y-95743794D01*
X140491000Y-95755000D01*
X138286362Y-95755000D01*
X138219323Y-95735315D01*
X138198681Y-95718681D01*
X138191319Y-95711319D01*
X138157834Y-95649996D01*
X138155000Y-95623638D01*
X138155000Y-90079000D01*
X138174685Y-90011961D01*
X138227489Y-89966206D01*
X138279000Y-89955000D01*
X139335000Y-89955000D01*
X139925000Y-89365000D01*
X139925000Y-85795000D01*
X138026837Y-83855000D01*
X137747558Y-83569565D01*
X137714744Y-83507881D01*
X137712386Y-83489807D01*
X137665469Y-82655470D01*
X137665467Y-82655466D01*
X137385000Y-82375000D01*
X137241217Y-82375000D01*
X137174178Y-82355315D01*
X137172326Y-82354102D01*
X137088920Y-82298371D01*
X137088907Y-82298364D01*
X136906839Y-82222950D01*
X136906829Y-82222947D01*
X136823406Y-82206353D01*
X136761495Y-82173968D01*
X136759917Y-82172417D01*
X135772500Y-81185000D01*
X133986362Y-81185000D01*
X133919323Y-81165315D01*
X133898681Y-81148681D01*
X133851319Y-81101319D01*
X133817834Y-81039996D01*
X133815000Y-81013638D01*
X133815000Y-79746362D01*
X133834685Y-79679323D01*
X133851319Y-79658681D01*
X133898681Y-79611319D01*
X133960004Y-79577834D01*
X133986362Y-79575000D01*
X138323638Y-79575000D01*
X138390677Y-79594685D01*
G37*
%TD.AperFunction*%
%TD*%
%TA.AperFunction,Conductor*%
%TO.N,GND*%
G36*
X159712778Y-104169681D02*
G01*
X159768712Y-104211552D01*
X159793129Y-104277017D01*
X159793445Y-104285863D01*
X159793445Y-119246000D01*
X159773760Y-119313039D01*
X159720956Y-119358794D01*
X159669445Y-119370000D01*
X125175000Y-119370000D01*
X125175000Y-125170500D01*
X125155315Y-125237539D01*
X125102511Y-125283294D01*
X125051000Y-125294500D01*
X119484891Y-125294500D01*
X119417852Y-125274815D01*
X119372097Y-125222011D01*
X119362153Y-125152853D01*
X119391178Y-125089297D01*
X119397210Y-125082819D01*
X119434026Y-125046003D01*
X119441182Y-125034401D01*
X119493129Y-124987678D01*
X119546719Y-124975500D01*
X119664389Y-124975500D01*
X119664391Y-124975500D01*
X119839267Y-124938329D01*
X120002593Y-124865612D01*
X120147230Y-124760526D01*
X120151756Y-124755500D01*
X120194910Y-124707572D01*
X120266859Y-124627665D01*
X120356250Y-124472835D01*
X120411497Y-124302803D01*
X120416521Y-124255000D01*
X121769353Y-124255000D01*
X121789834Y-124397456D01*
X121824259Y-124472835D01*
X121849623Y-124528373D01*
X121943872Y-124637143D01*
X122064947Y-124714953D01*
X122064950Y-124714954D01*
X122064949Y-124714954D01*
X122203036Y-124755499D01*
X122203038Y-124755500D01*
X122203039Y-124755500D01*
X122346962Y-124755500D01*
X122346962Y-124755499D01*
X122485053Y-124714953D01*
X122606128Y-124637143D01*
X122700377Y-124528373D01*
X122760165Y-124397457D01*
X122780647Y-124255000D01*
X122760165Y-124112543D01*
X122700377Y-123981627D01*
X122606128Y-123872857D01*
X122485053Y-123795047D01*
X122485051Y-123795046D01*
X122485049Y-123795045D01*
X122485050Y-123795045D01*
X122346963Y-123754500D01*
X122346961Y-123754500D01*
X122203039Y-123754500D01*
X122203036Y-123754500D01*
X122064949Y-123795045D01*
X121943873Y-123872856D01*
X121849623Y-123981626D01*
X121849622Y-123981628D01*
X121789834Y-124112543D01*
X121769353Y-124255000D01*
X120416521Y-124255000D01*
X120430185Y-124125000D01*
X120411497Y-123947197D01*
X120372478Y-123827109D01*
X120356252Y-123777170D01*
X120356249Y-123777164D01*
X120330850Y-123733171D01*
X120266859Y-123622335D01*
X120198448Y-123546357D01*
X120147235Y-123489478D01*
X120147232Y-123489476D01*
X120147231Y-123489475D01*
X120147230Y-123489474D01*
X120002593Y-123384388D01*
X119839267Y-123311671D01*
X119839265Y-123311670D01*
X119711594Y-123284533D01*
X119664391Y-123274500D01*
X119546720Y-123274500D01*
X119479681Y-123254815D01*
X119441183Y-123215599D01*
X119434028Y-123204000D01*
X119434025Y-123203996D01*
X119311003Y-123080974D01*
X119310999Y-123080971D01*
X119162933Y-122989642D01*
X119162927Y-122989639D01*
X119162925Y-122989638D01*
X119142377Y-122982829D01*
X118997776Y-122934913D01*
X118895855Y-122924500D01*
X118895848Y-122924500D01*
X118309152Y-122924500D01*
X118309144Y-122924500D01*
X118207223Y-122934913D01*
X118042077Y-122989637D01*
X118042066Y-122989642D01*
X117894000Y-123080971D01*
X117893996Y-123080974D01*
X117770974Y-123203996D01*
X117770967Y-123204005D01*
X117770234Y-123205194D01*
X117769519Y-123205836D01*
X117766493Y-123209664D01*
X117765838Y-123209146D01*
X117718280Y-123251911D01*
X117649316Y-123263123D01*
X117585238Y-123235271D01*
X117563238Y-123209877D01*
X117563112Y-123209977D01*
X117560885Y-123207161D01*
X117559163Y-123205173D01*
X117558630Y-123204309D01*
X117435691Y-123081370D01*
X117287714Y-122990096D01*
X117287709Y-122990094D01*
X117122673Y-122935407D01*
X117020815Y-122925000D01*
X116977500Y-122925000D01*
X116977500Y-124251000D01*
X116957815Y-124318039D01*
X116905011Y-124363794D01*
X116853500Y-124375000D01*
X115723909Y-124375000D01*
X115698028Y-124389131D01*
X115628336Y-124384144D01*
X115572404Y-124342272D01*
X115562842Y-124327394D01*
X115552338Y-124308157D01*
X115544991Y-124292069D01*
X115466395Y-124081355D01*
X115461410Y-124064380D01*
X115443407Y-123981627D01*
X115413599Y-123844618D01*
X115411082Y-123827109D01*
X115396206Y-123619184D01*
X115740000Y-123619184D01*
X115740000Y-123875000D01*
X116477500Y-123875000D01*
X116477500Y-122925000D01*
X116434184Y-122925000D01*
X116332326Y-122935407D01*
X116167290Y-122990094D01*
X116167285Y-122990096D01*
X116019308Y-123081370D01*
X115896370Y-123204308D01*
X115805096Y-123352285D01*
X115805094Y-123352290D01*
X115750407Y-123517326D01*
X115740000Y-123619184D01*
X115396206Y-123619184D01*
X115394761Y-123598982D01*
X115394445Y-123590133D01*
X115394445Y-121630815D01*
X115740000Y-121630815D01*
X115750407Y-121732673D01*
X115805094Y-121897709D01*
X115805096Y-121897714D01*
X115896370Y-122045691D01*
X116019308Y-122168629D01*
X116167285Y-122259903D01*
X116167290Y-122259905D01*
X116332326Y-122314592D01*
X116434184Y-122324999D01*
X116434197Y-122325000D01*
X116477500Y-122325000D01*
X116477500Y-121375000D01*
X115740000Y-121375000D01*
X115740000Y-121630815D01*
X115394445Y-121630815D01*
X115394445Y-120619184D01*
X115740000Y-120619184D01*
X115740000Y-120875000D01*
X116477500Y-120875000D01*
X116477500Y-119925000D01*
X116977500Y-119925000D01*
X116977500Y-122325000D01*
X117020803Y-122325000D01*
X117020815Y-122324999D01*
X117122673Y-122314592D01*
X117287709Y-122259905D01*
X117287714Y-122259903D01*
X117435691Y-122168629D01*
X117558628Y-122045692D01*
X117559159Y-122044832D01*
X117559680Y-122044363D01*
X117563112Y-122040023D01*
X117563853Y-122040608D01*
X117611101Y-121998102D01*
X117680063Y-121986872D01*
X117744148Y-122014708D01*
X117766413Y-122040398D01*
X117766493Y-122040336D01*
X117767890Y-122042103D01*
X117770238Y-122044812D01*
X117770968Y-122045995D01*
X117770974Y-122046003D01*
X117893996Y-122169025D01*
X117894000Y-122169028D01*
X118042066Y-122260357D01*
X118042069Y-122260358D01*
X118042075Y-122260362D01*
X118207225Y-122315087D01*
X118309152Y-122325500D01*
X118309157Y-122325500D01*
X118895843Y-122325500D01*
X118895848Y-122325500D01*
X118997775Y-122315087D01*
X119162925Y-122260362D01*
X119311003Y-122169026D01*
X119434026Y-122046003D01*
X119441180Y-122034403D01*
X119493126Y-121987680D01*
X119546719Y-121975500D01*
X119654389Y-121975500D01*
X119654391Y-121975500D01*
X119829267Y-121938329D01*
X119992593Y-121865612D01*
X120137230Y-121760526D01*
X120143502Y-121753561D01*
X120163148Y-121731741D01*
X120256859Y-121627665D01*
X120346250Y-121472835D01*
X120401497Y-121302803D01*
X120420185Y-121125000D01*
X120401497Y-120947197D01*
X120346250Y-120777165D01*
X120256859Y-120622335D01*
X120210003Y-120570296D01*
X120137235Y-120489478D01*
X120137232Y-120489476D01*
X120137231Y-120489475D01*
X120137230Y-120489474D01*
X119992593Y-120384388D01*
X119829267Y-120311671D01*
X119829265Y-120311670D01*
X119701594Y-120284533D01*
X119654391Y-120274500D01*
X119654390Y-120274500D01*
X119546719Y-120274500D01*
X119479680Y-120254815D01*
X119441181Y-120215597D01*
X119434026Y-120203997D01*
X119311003Y-120080974D01*
X119310999Y-120080971D01*
X119162933Y-119989642D01*
X119162927Y-119989639D01*
X119162925Y-119989638D01*
X119162922Y-119989637D01*
X118997776Y-119934913D01*
X118895855Y-119924500D01*
X118895848Y-119924500D01*
X118309152Y-119924500D01*
X118309144Y-119924500D01*
X118207223Y-119934913D01*
X118042077Y-119989637D01*
X118042066Y-119989642D01*
X117894000Y-120080971D01*
X117893996Y-120080974D01*
X117770974Y-120203996D01*
X117770967Y-120204005D01*
X117770234Y-120205194D01*
X117769519Y-120205836D01*
X117766493Y-120209664D01*
X117765838Y-120209146D01*
X117718280Y-120251911D01*
X117649316Y-120263123D01*
X117585238Y-120235271D01*
X117563238Y-120209877D01*
X117563112Y-120209977D01*
X117560885Y-120207161D01*
X117559163Y-120205173D01*
X117558630Y-120204309D01*
X117435691Y-120081370D01*
X117287714Y-119990096D01*
X117287709Y-119990094D01*
X117122673Y-119935407D01*
X117020815Y-119925000D01*
X116977500Y-119925000D01*
X116477500Y-119925000D01*
X116434184Y-119925000D01*
X116332326Y-119935407D01*
X116167290Y-119990094D01*
X116167285Y-119990096D01*
X116019308Y-120081370D01*
X115896370Y-120204308D01*
X115805096Y-120352285D01*
X115805094Y-120352290D01*
X115750407Y-120517326D01*
X115740000Y-120619184D01*
X115394445Y-120619184D01*
X115394445Y-118630815D01*
X115740000Y-118630815D01*
X115750407Y-118732673D01*
X115805094Y-118897709D01*
X115805096Y-118897714D01*
X115896370Y-119045691D01*
X116019308Y-119168629D01*
X116167285Y-119259903D01*
X116167290Y-119259905D01*
X116332326Y-119314592D01*
X116434184Y-119324999D01*
X116434197Y-119325000D01*
X116477500Y-119325000D01*
X116477500Y-118375000D01*
X115740000Y-118375000D01*
X115740000Y-118630815D01*
X115394445Y-118630815D01*
X115394445Y-117619184D01*
X115740000Y-117619184D01*
X115740000Y-117875000D01*
X116477500Y-117875000D01*
X116477500Y-116925000D01*
X116977500Y-116925000D01*
X116977500Y-119325000D01*
X117020803Y-119325000D01*
X117020815Y-119324999D01*
X117122673Y-119314592D01*
X117287709Y-119259905D01*
X117287714Y-119259903D01*
X117435691Y-119168629D01*
X117558628Y-119045692D01*
X117559159Y-119044832D01*
X117559680Y-119044363D01*
X117563112Y-119040023D01*
X117563853Y-119040608D01*
X117611101Y-118998102D01*
X117680063Y-118986872D01*
X117744148Y-119014708D01*
X117766413Y-119040398D01*
X117766493Y-119040336D01*
X117767890Y-119042103D01*
X117770238Y-119044812D01*
X117770968Y-119045995D01*
X117770974Y-119046003D01*
X117893996Y-119169025D01*
X117894000Y-119169028D01*
X118042066Y-119260357D01*
X118042069Y-119260358D01*
X118042075Y-119260362D01*
X118207225Y-119315087D01*
X118309152Y-119325500D01*
X118309157Y-119325500D01*
X118895843Y-119325500D01*
X118895848Y-119325500D01*
X118997775Y-119315087D01*
X119162925Y-119260362D01*
X119311003Y-119169026D01*
X119434026Y-119046003D01*
X119441180Y-119034403D01*
X119493126Y-118987680D01*
X119546719Y-118975500D01*
X119634389Y-118975500D01*
X119634391Y-118975500D01*
X119809267Y-118938329D01*
X119972593Y-118865612D01*
X120117230Y-118760526D01*
X120236859Y-118627665D01*
X120326250Y-118472835D01*
X120381497Y-118302803D01*
X120400185Y-118125000D01*
X120381497Y-117947197D01*
X120326250Y-117777165D01*
X120236859Y-117622335D01*
X120177000Y-117555855D01*
X120117235Y-117489478D01*
X120117232Y-117489476D01*
X120117231Y-117489475D01*
X120117230Y-117489474D01*
X119972593Y-117384388D01*
X119809267Y-117311671D01*
X119809265Y-117311670D01*
X119681594Y-117284533D01*
X119634391Y-117274500D01*
X119634390Y-117274500D01*
X119546719Y-117274500D01*
X119479680Y-117254815D01*
X119441181Y-117215597D01*
X119434026Y-117203997D01*
X119311003Y-117080974D01*
X119310999Y-117080971D01*
X119162933Y-116989642D01*
X119162927Y-116989639D01*
X119162925Y-116989638D01*
X119143635Y-116983246D01*
X118997776Y-116934913D01*
X118895855Y-116924500D01*
X118895848Y-116924500D01*
X118309152Y-116924500D01*
X118309144Y-116924500D01*
X118207223Y-116934913D01*
X118042077Y-116989637D01*
X118042066Y-116989642D01*
X117894000Y-117080971D01*
X117893996Y-117080974D01*
X117770974Y-117203996D01*
X117770967Y-117204005D01*
X117770234Y-117205194D01*
X117769519Y-117205836D01*
X117766493Y-117209664D01*
X117765838Y-117209146D01*
X117718280Y-117251911D01*
X117649316Y-117263123D01*
X117585238Y-117235271D01*
X117563238Y-117209877D01*
X117563112Y-117209977D01*
X117560885Y-117207161D01*
X117559163Y-117205173D01*
X117558630Y-117204309D01*
X117435691Y-117081370D01*
X117287714Y-116990096D01*
X117287709Y-116990094D01*
X117122673Y-116935407D01*
X117020815Y-116925000D01*
X116977500Y-116925000D01*
X116477500Y-116925000D01*
X116434184Y-116925000D01*
X116332326Y-116935407D01*
X116167290Y-116990094D01*
X116167285Y-116990096D01*
X116019308Y-117081370D01*
X115896370Y-117204308D01*
X115805096Y-117352285D01*
X115805094Y-117352290D01*
X115750407Y-117517326D01*
X115740000Y-117619184D01*
X115394445Y-117619184D01*
X115394445Y-116689010D01*
X115414130Y-116621971D01*
X115466934Y-116576216D01*
X115536092Y-116566272D01*
X115561771Y-116572825D01*
X115692517Y-116621591D01*
X115752127Y-116628000D01*
X117147872Y-116627999D01*
X117207483Y-116621591D01*
X117342331Y-116571296D01*
X117457546Y-116485046D01*
X117543796Y-116369831D01*
X117594091Y-116234983D01*
X117600500Y-116175373D01*
X117600499Y-115467599D01*
X117620183Y-115400563D01*
X117672987Y-115354808D01*
X117742146Y-115344864D01*
X117805702Y-115373889D01*
X117823765Y-115393290D01*
X117862850Y-115445500D01*
X117879395Y-115467602D01*
X117892455Y-115485047D01*
X118007664Y-115571293D01*
X118007671Y-115571297D01*
X118035094Y-115581525D01*
X118142517Y-115621591D01*
X118202127Y-115628000D01*
X118625417Y-115627999D01*
X118692456Y-115647683D01*
X118738211Y-115700487D01*
X118748738Y-115764960D01*
X118735018Y-115895500D01*
X118729815Y-115945000D01*
X118732698Y-115972429D01*
X118748503Y-116122805D01*
X118748504Y-116122807D01*
X118803747Y-116292829D01*
X118803750Y-116292835D01*
X118893141Y-116447665D01*
X118926797Y-116485044D01*
X119012764Y-116580521D01*
X119012767Y-116580523D01*
X119012770Y-116580526D01*
X119157407Y-116685612D01*
X119320733Y-116758329D01*
X119495609Y-116795500D01*
X119495610Y-116795500D01*
X119674389Y-116795500D01*
X119674391Y-116795500D01*
X119849267Y-116758329D01*
X120012593Y-116685612D01*
X120104025Y-116619182D01*
X120169831Y-116595702D01*
X120176911Y-116595500D01*
X121779071Y-116595500D01*
X121863615Y-116578682D01*
X121904744Y-116570501D01*
X122023127Y-116521465D01*
X122129669Y-116450277D01*
X124181355Y-114398589D01*
X124242674Y-114365107D01*
X124312365Y-114370091D01*
X124368299Y-114411962D01*
X124392716Y-114477427D01*
X124391001Y-114508624D01*
X124359786Y-114678960D01*
X124340065Y-115005000D01*
X124359786Y-115331038D01*
X124418667Y-115652341D01*
X124515835Y-115964164D01*
X124515839Y-115964175D01*
X124649897Y-116262041D01*
X124649898Y-116262043D01*
X124818887Y-116541586D01*
X125020329Y-116798707D01*
X125025130Y-116803508D01*
X125058615Y-116864831D01*
X125053631Y-116934523D01*
X125011759Y-116990456D01*
X124946295Y-117014873D01*
X124924495Y-117014510D01*
X124924400Y-117014500D01*
X124924391Y-117014500D01*
X124745609Y-117014500D01*
X124714954Y-117021015D01*
X124570733Y-117051670D01*
X124570728Y-117051672D01*
X124407408Y-117124387D01*
X124262768Y-117229475D01*
X124143140Y-117362336D01*
X124053750Y-117517164D01*
X124053749Y-117517166D01*
X124029671Y-117591270D01*
X123999421Y-117640631D01*
X122179726Y-119460326D01*
X122108534Y-119566874D01*
X122059499Y-119685255D01*
X122059497Y-119685261D01*
X122034500Y-119810928D01*
X122034500Y-119810931D01*
X122034500Y-121909069D01*
X122034500Y-121909071D01*
X122034499Y-121909071D01*
X122059497Y-122034738D01*
X122059499Y-122034744D01*
X122108535Y-122153127D01*
X122119160Y-122169028D01*
X122179726Y-122259673D01*
X122179727Y-122259674D01*
X122596371Y-122676317D01*
X122629856Y-122737640D01*
X122632010Y-122751031D01*
X122638503Y-122812803D01*
X122638504Y-122812805D01*
X122638504Y-122812807D01*
X122693747Y-122982829D01*
X122693750Y-122982835D01*
X122783141Y-123137665D01*
X122824812Y-123183946D01*
X122902764Y-123270521D01*
X122902767Y-123270523D01*
X122902770Y-123270526D01*
X123047407Y-123375612D01*
X123210733Y-123448329D01*
X123385609Y-123485500D01*
X123385610Y-123485500D01*
X123564389Y-123485500D01*
X123564391Y-123485500D01*
X123739267Y-123448329D01*
X123902593Y-123375612D01*
X124047230Y-123270526D01*
X124061377Y-123254815D01*
X124078974Y-123235271D01*
X124166859Y-123137665D01*
X124256250Y-122982835D01*
X124311497Y-122812803D01*
X124330185Y-122635000D01*
X124311497Y-122457197D01*
X124268706Y-122325499D01*
X124256252Y-122287170D01*
X124256249Y-122287164D01*
X124240378Y-122259674D01*
X124166859Y-122132335D01*
X124120003Y-122080296D01*
X124047235Y-121999478D01*
X124047232Y-121999476D01*
X124047231Y-121999475D01*
X124047230Y-121999474D01*
X123902593Y-121894388D01*
X123739267Y-121821671D01*
X123739265Y-121821670D01*
X123602473Y-121792594D01*
X123574989Y-121786752D01*
X123513508Y-121753561D01*
X123513090Y-121753144D01*
X123371819Y-121611873D01*
X123338334Y-121550550D01*
X123335500Y-121524192D01*
X123335500Y-120195808D01*
X123355185Y-120128769D01*
X123371819Y-120108127D01*
X124728127Y-118751819D01*
X124789450Y-118718334D01*
X124815808Y-118715500D01*
X124924389Y-118715500D01*
X124924391Y-118715500D01*
X125099267Y-118678329D01*
X125262593Y-118605612D01*
X125407230Y-118500526D01*
X125526859Y-118367665D01*
X125555623Y-118317844D01*
X139175000Y-118317844D01*
X139181401Y-118377372D01*
X139181403Y-118377379D01*
X139231645Y-118512086D01*
X139231649Y-118512093D01*
X139317809Y-118627187D01*
X139317812Y-118627190D01*
X139432906Y-118713350D01*
X139432913Y-118713354D01*
X139567620Y-118763596D01*
X139567627Y-118763598D01*
X139627155Y-118769999D01*
X139627172Y-118770000D01*
X140175000Y-118770000D01*
X140675000Y-118770000D01*
X141222828Y-118770000D01*
X141222844Y-118769999D01*
X141282372Y-118763598D01*
X141282379Y-118763596D01*
X141417086Y-118713354D01*
X141417093Y-118713350D01*
X141532187Y-118627190D01*
X141532190Y-118627187D01*
X141618350Y-118512093D01*
X141618354Y-118512086D01*
X141668596Y-118377379D01*
X141668598Y-118377372D01*
X141674999Y-118317844D01*
X156675000Y-118317844D01*
X156681401Y-118377372D01*
X156681403Y-118377379D01*
X156731645Y-118512086D01*
X156731649Y-118512093D01*
X156817809Y-118627187D01*
X156817812Y-118627190D01*
X156932906Y-118713350D01*
X156932913Y-118713354D01*
X157067620Y-118763596D01*
X157067627Y-118763598D01*
X157127155Y-118769999D01*
X157127172Y-118770000D01*
X157675000Y-118770000D01*
X158175000Y-118770000D01*
X158722828Y-118770000D01*
X158722844Y-118769999D01*
X158782372Y-118763598D01*
X158782379Y-118763596D01*
X158917086Y-118713354D01*
X158917093Y-118713350D01*
X159032187Y-118627190D01*
X159032190Y-118627187D01*
X159118350Y-118512093D01*
X159118354Y-118512086D01*
X159168596Y-118377379D01*
X159168598Y-118377372D01*
X159174999Y-118317844D01*
X159175000Y-118317827D01*
X159175000Y-118070000D01*
X158175000Y-118070000D01*
X158175000Y-118770000D01*
X157675000Y-118770000D01*
X157675000Y-118070000D01*
X156675000Y-118070000D01*
X156675000Y-118317844D01*
X141674999Y-118317844D01*
X141675000Y-118317827D01*
X141675000Y-118070000D01*
X140675000Y-118070000D01*
X140675000Y-118770000D01*
X140175000Y-118770000D01*
X140175000Y-118070000D01*
X139175000Y-118070000D01*
X139175000Y-118317844D01*
X125555623Y-118317844D01*
X125616250Y-118212835D01*
X125671497Y-118042803D01*
X125690185Y-117865000D01*
X125671497Y-117687197D01*
X125628820Y-117555854D01*
X125626826Y-117486014D01*
X125662906Y-117426181D01*
X125725607Y-117395353D01*
X125795021Y-117403318D01*
X125797643Y-117404461D01*
X126085824Y-117534160D01*
X126085835Y-117534164D01*
X126397658Y-117631332D01*
X126718961Y-117690213D01*
X127045000Y-117709934D01*
X127371038Y-117690213D01*
X127692341Y-117631332D01*
X128004164Y-117534164D01*
X128004175Y-117534160D01*
X128302041Y-117400102D01*
X128302043Y-117400101D01*
X128581586Y-117231112D01*
X128769968Y-117083523D01*
X128769968Y-117083522D01*
X127627736Y-115941290D01*
X127761602Y-115844033D01*
X127884033Y-115721602D01*
X127981290Y-115587736D01*
X129123522Y-116729968D01*
X129123523Y-116729968D01*
X129271112Y-116541586D01*
X129440101Y-116262043D01*
X129440102Y-116262041D01*
X129546568Y-116025483D01*
X129592032Y-115972429D01*
X129658962Y-115952376D01*
X129726109Y-115971692D01*
X129740615Y-115983316D01*
X129740681Y-115983234D01*
X129746341Y-115987709D01*
X129746344Y-115987712D01*
X129895666Y-116079814D01*
X130062203Y-116134999D01*
X130164991Y-116145500D01*
X131165008Y-116145499D01*
X131165016Y-116145498D01*
X131165019Y-116145498D01*
X131221302Y-116139748D01*
X131267797Y-116134999D01*
X131434334Y-116079814D01*
X131583656Y-115987712D01*
X131649250Y-115922116D01*
X131710572Y-115888631D01*
X131762710Y-115888507D01*
X131795609Y-115895500D01*
X131795612Y-115895500D01*
X131974389Y-115895500D01*
X131974391Y-115895500D01*
X132149267Y-115858329D01*
X132312593Y-115785612D01*
X132457230Y-115680526D01*
X132466258Y-115670500D01*
X132486802Y-115647683D01*
X132576859Y-115547665D01*
X132666250Y-115392835D01*
X132721497Y-115222803D01*
X132740185Y-115045000D01*
X132721497Y-114867197D01*
X132682708Y-114747817D01*
X132680713Y-114677976D01*
X132716793Y-114618143D01*
X132779494Y-114587315D01*
X132800639Y-114585499D01*
X133345002Y-114585499D01*
X133345008Y-114585499D01*
X133447797Y-114574999D01*
X133456391Y-114572150D01*
X133526218Y-114569744D01*
X133586262Y-114605471D01*
X133617459Y-114667990D01*
X133618723Y-114702814D01*
X133616652Y-114722518D01*
X133614815Y-114740000D01*
X133618558Y-114775610D01*
X133633503Y-114917805D01*
X133633504Y-114917807D01*
X133688747Y-115087829D01*
X133688750Y-115087835D01*
X133778141Y-115242665D01*
X133807089Y-115274815D01*
X133897764Y-115375521D01*
X133897767Y-115375523D01*
X133897770Y-115375526D01*
X134042407Y-115480612D01*
X134205733Y-115553329D01*
X134243017Y-115561253D01*
X134304496Y-115594444D01*
X134304915Y-115594862D01*
X134325325Y-115615272D01*
X134325332Y-115615278D01*
X134380802Y-115652341D01*
X134431874Y-115686466D01*
X134501221Y-115715189D01*
X134550256Y-115735501D01*
X134550259Y-115735501D01*
X134550260Y-115735502D01*
X134675928Y-115760500D01*
X134675931Y-115760500D01*
X135634071Y-115760500D01*
X135718615Y-115743682D01*
X135759744Y-115735501D01*
X135878127Y-115686465D01*
X135902019Y-115670501D01*
X135984669Y-115615277D01*
X136835276Y-114764670D01*
X136906465Y-114658127D01*
X136955501Y-114539744D01*
X136958334Y-114525500D01*
X136980500Y-114414069D01*
X136980500Y-113070808D01*
X137000185Y-113003769D01*
X137016819Y-112983127D01*
X138962819Y-111037127D01*
X139024142Y-111003642D01*
X139093834Y-111008626D01*
X139149767Y-111050498D01*
X139174184Y-111115962D01*
X139174500Y-111124808D01*
X139174500Y-111785192D01*
X139154815Y-111852231D01*
X139102011Y-111897986D01*
X139076281Y-111906482D01*
X138910733Y-111941670D01*
X138910728Y-111941672D01*
X138747408Y-112014387D01*
X138602768Y-112119475D01*
X138483140Y-112252336D01*
X138393750Y-112407164D01*
X138393747Y-112407170D01*
X138338504Y-112577192D01*
X138338503Y-112577194D01*
X138319815Y-112755000D01*
X138338503Y-112932805D01*
X138338504Y-112932807D01*
X138393747Y-113102829D01*
X138393750Y-113102835D01*
X138483140Y-113257664D01*
X138547089Y-113328687D01*
X138577319Y-113391679D01*
X138568693Y-113461014D01*
X138547090Y-113494630D01*
X138513140Y-113532336D01*
X138423750Y-113687164D01*
X138423747Y-113687170D01*
X138368504Y-113857192D01*
X138368503Y-113857194D01*
X138349815Y-114035000D01*
X138368503Y-114212805D01*
X138368504Y-114212807D01*
X138423747Y-114382829D01*
X138423750Y-114382835D01*
X138513141Y-114537665D01*
X138546756Y-114574998D01*
X138632764Y-114670521D01*
X138632767Y-114670523D01*
X138632770Y-114670526D01*
X138777407Y-114775612D01*
X138940733Y-114848329D01*
X138940735Y-114848329D01*
X138940736Y-114848330D01*
X139007591Y-114862540D01*
X139076281Y-114877140D01*
X139137762Y-114910332D01*
X139171539Y-114971495D01*
X139174500Y-114998430D01*
X139174500Y-115777870D01*
X139174501Y-115777876D01*
X139180908Y-115837481D01*
X139193659Y-115871669D01*
X139198642Y-115941361D01*
X139193659Y-115958331D01*
X139180908Y-115992518D01*
X139174501Y-116052116D01*
X139174501Y-116052123D01*
X139174500Y-116052135D01*
X139174500Y-117047870D01*
X139174501Y-117047876D01*
X139180908Y-117107483D01*
X139193925Y-117142381D01*
X139198909Y-117212072D01*
X139193925Y-117229047D01*
X139181403Y-117262619D01*
X139181401Y-117262627D01*
X139175000Y-117322155D01*
X139175000Y-117570000D01*
X141675000Y-117570000D01*
X141675000Y-117323629D01*
X141694685Y-117256590D01*
X141747489Y-117210835D01*
X141778263Y-117202542D01*
X141778094Y-117201689D01*
X141884608Y-117180501D01*
X141909744Y-117175501D01*
X142028127Y-117126465D01*
X142056536Y-117107483D01*
X142056538Y-117107482D01*
X142096210Y-117080974D01*
X142134669Y-117055277D01*
X143080277Y-116109669D01*
X143151466Y-116003126D01*
X143184034Y-115924499D01*
X143200501Y-115884744D01*
X143219911Y-115787165D01*
X143225500Y-115759071D01*
X143225500Y-109572255D01*
X143245185Y-109505216D01*
X143297989Y-109459461D01*
X143367147Y-109449517D01*
X143430703Y-109478542D01*
X143441651Y-109489284D01*
X143442765Y-109490522D01*
X143442767Y-109490523D01*
X143442770Y-109490526D01*
X143587407Y-109595612D01*
X143750733Y-109668329D01*
X143759598Y-109670213D01*
X143821078Y-109703401D01*
X143851750Y-109753185D01*
X143898747Y-109897828D01*
X143898750Y-109897835D01*
X143988141Y-110052665D01*
X144029812Y-110098946D01*
X144107764Y-110185521D01*
X144107767Y-110185523D01*
X144107770Y-110185526D01*
X144252407Y-110290612D01*
X144415733Y-110363329D01*
X144590609Y-110400500D01*
X144590610Y-110400500D01*
X144769389Y-110400500D01*
X144769391Y-110400500D01*
X144874721Y-110378111D01*
X144944385Y-110383427D01*
X145000119Y-110425563D01*
X145024225Y-110491143D01*
X145024500Y-110499401D01*
X145024500Y-113014192D01*
X145004815Y-113081231D01*
X144988181Y-113101873D01*
X144486909Y-113603144D01*
X144425586Y-113636629D01*
X144425009Y-113636753D01*
X144260733Y-113671670D01*
X144260728Y-113671672D01*
X144097408Y-113744387D01*
X143952768Y-113849475D01*
X143833140Y-113982336D01*
X143743750Y-114137164D01*
X143743747Y-114137170D01*
X143688504Y-114307192D01*
X143688503Y-114307194D01*
X143669815Y-114485000D01*
X143688503Y-114662805D01*
X143688504Y-114662807D01*
X143743747Y-114832829D01*
X143743750Y-114832835D01*
X143833141Y-114987665D01*
X143874812Y-115033946D01*
X143952764Y-115120521D01*
X143952767Y-115120523D01*
X143952770Y-115120526D01*
X144097407Y-115225612D01*
X144260733Y-115298329D01*
X144435609Y-115335500D01*
X144435610Y-115335500D01*
X144614389Y-115335500D01*
X144614391Y-115335500D01*
X144789267Y-115298329D01*
X144952593Y-115225612D01*
X145035010Y-115165732D01*
X145100816Y-115142251D01*
X145168870Y-115158076D01*
X145200046Y-115183077D01*
X145242764Y-115230521D01*
X145242767Y-115230523D01*
X145242770Y-115230526D01*
X145387407Y-115335612D01*
X145550733Y-115408329D01*
X145725609Y-115445500D01*
X145725610Y-115445500D01*
X145904389Y-115445500D01*
X145904391Y-115445500D01*
X146079267Y-115408329D01*
X146242593Y-115335612D01*
X146249778Y-115330391D01*
X146320263Y-115279182D01*
X146386069Y-115255702D01*
X146393148Y-115255500D01*
X152679071Y-115255500D01*
X152782212Y-115234983D01*
X152804744Y-115230501D01*
X152923127Y-115181465D01*
X152926801Y-115179010D01*
X152934197Y-115174069D01*
X153014330Y-115120526D01*
X153029669Y-115110277D01*
X154600277Y-113539669D01*
X154671465Y-113433127D01*
X154720501Y-113314744D01*
X154723725Y-113298535D01*
X154745500Y-113189069D01*
X154745500Y-108395808D01*
X154765185Y-108328769D01*
X154781819Y-108308127D01*
X156013127Y-107076819D01*
X156074450Y-107043334D01*
X156100808Y-107040500D01*
X156550500Y-107040500D01*
X156617539Y-107060185D01*
X156663294Y-107112989D01*
X156674500Y-107164500D01*
X156674500Y-108157870D01*
X156674501Y-108157876D01*
X156680908Y-108217481D01*
X156693659Y-108251669D01*
X156698642Y-108321361D01*
X156693659Y-108338331D01*
X156680908Y-108372518D01*
X156676475Y-108413755D01*
X156674501Y-108432123D01*
X156674500Y-108432135D01*
X156674500Y-109427870D01*
X156674501Y-109427876D01*
X156680908Y-109487481D01*
X156693659Y-109521669D01*
X156698642Y-109591361D01*
X156693659Y-109608331D01*
X156680908Y-109642518D01*
X156677931Y-109670211D01*
X156674501Y-109702123D01*
X156674500Y-109702135D01*
X156674500Y-110697870D01*
X156674501Y-110697876D01*
X156680908Y-110757481D01*
X156693659Y-110791669D01*
X156698642Y-110861361D01*
X156693659Y-110878331D01*
X156680908Y-110912518D01*
X156679602Y-110924670D01*
X156674501Y-110972123D01*
X156674500Y-110972135D01*
X156674500Y-111967870D01*
X156674501Y-111967876D01*
X156680908Y-112027481D01*
X156693659Y-112061669D01*
X156698642Y-112131361D01*
X156693659Y-112148331D01*
X156682595Y-112177998D01*
X156678199Y-112189784D01*
X156676057Y-112188985D01*
X156647169Y-112239726D01*
X156585261Y-112272115D01*
X156561060Y-112274500D01*
X156535607Y-112274500D01*
X156504952Y-112281015D01*
X156360731Y-112311670D01*
X156360726Y-112311672D01*
X156197406Y-112384387D01*
X156052766Y-112489475D01*
X155933138Y-112622336D01*
X155843748Y-112777164D01*
X155843745Y-112777170D01*
X155788502Y-112947192D01*
X155788501Y-112947194D01*
X155769813Y-113125000D01*
X155788501Y-113302805D01*
X155788502Y-113302807D01*
X155843745Y-113472829D01*
X155843748Y-113472835D01*
X155933139Y-113627665D01*
X155941322Y-113636753D01*
X155942646Y-113638223D01*
X155972877Y-113701213D01*
X155974498Y-113721197D01*
X155974498Y-114939068D01*
X155995470Y-115044495D01*
X155995470Y-115044497D01*
X155999495Y-115064734D01*
X155999499Y-115064747D01*
X156045321Y-115175372D01*
X156048533Y-115183125D01*
X156070963Y-115216694D01*
X156091840Y-115283372D01*
X156073355Y-115350752D01*
X156032530Y-115390381D01*
X156032666Y-115390568D01*
X156031367Y-115391511D01*
X156029870Y-115392965D01*
X156027417Y-115394381D01*
X155882768Y-115499475D01*
X155763140Y-115632336D01*
X155673750Y-115787164D01*
X155673747Y-115787170D01*
X155618504Y-115957192D01*
X155618503Y-115957194D01*
X155599815Y-116135000D01*
X155618503Y-116312805D01*
X155618504Y-116312807D01*
X155673747Y-116482829D01*
X155673750Y-116482835D01*
X155763141Y-116637665D01*
X155804812Y-116683946D01*
X155882764Y-116770521D01*
X155882767Y-116770523D01*
X155882770Y-116770526D01*
X156027407Y-116875612D01*
X156190733Y-116948329D01*
X156190735Y-116948329D01*
X156190736Y-116948330D01*
X156247275Y-116960347D01*
X156355010Y-116983247D01*
X156416490Y-117016438D01*
X156416910Y-117016856D01*
X156460332Y-117060278D01*
X156559390Y-117126466D01*
X156559393Y-117126467D01*
X156566870Y-117131463D01*
X156566878Y-117131468D01*
X156604259Y-117146951D01*
X156658663Y-117190791D01*
X156680728Y-117257085D01*
X156680096Y-117274768D01*
X156675000Y-117322155D01*
X156675000Y-117570000D01*
X159175000Y-117570000D01*
X159175000Y-117322172D01*
X159174999Y-117322155D01*
X159168597Y-117262622D01*
X159168597Y-117262620D01*
X159156075Y-117229048D01*
X159151089Y-117159356D01*
X159156071Y-117142390D01*
X159169091Y-117107483D01*
X159175500Y-117047873D01*
X159175499Y-116052128D01*
X159169091Y-115992517D01*
X159156340Y-115958332D01*
X159151357Y-115888642D01*
X159156340Y-115871669D01*
X159169091Y-115837483D01*
X159175500Y-115777873D01*
X159175499Y-114782128D01*
X159169091Y-114722517D01*
X159156340Y-114688332D01*
X159151357Y-114618642D01*
X159156338Y-114601672D01*
X159169091Y-114567483D01*
X159175500Y-114507873D01*
X159175499Y-113512128D01*
X159169091Y-113452517D01*
X159156340Y-113418332D01*
X159151357Y-113348642D01*
X159156338Y-113331672D01*
X159169091Y-113297483D01*
X159175500Y-113237873D01*
X159175499Y-112242128D01*
X159169091Y-112182517D01*
X159156340Y-112148332D01*
X159151357Y-112078642D01*
X159156340Y-112061669D01*
X159169091Y-112027483D01*
X159175500Y-111967873D01*
X159175499Y-110972128D01*
X159169091Y-110912517D01*
X159156340Y-110878332D01*
X159151357Y-110808642D01*
X159156340Y-110791669D01*
X159169091Y-110757483D01*
X159175500Y-110697873D01*
X159175499Y-109702128D01*
X159169091Y-109642517D01*
X159156340Y-109608332D01*
X159151357Y-109538642D01*
X159156340Y-109521669D01*
X159169091Y-109487483D01*
X159175500Y-109427873D01*
X159175499Y-108432128D01*
X159169091Y-108372517D01*
X159156340Y-108338332D01*
X159151357Y-108268642D01*
X159156340Y-108251669D01*
X159169091Y-108217483D01*
X159175500Y-108157873D01*
X159175499Y-107162128D01*
X159169091Y-107102517D01*
X159156340Y-107068332D01*
X159151357Y-106998642D01*
X159156338Y-106981672D01*
X159169091Y-106947483D01*
X159175500Y-106887873D01*
X159175499Y-105892128D01*
X159169091Y-105832517D01*
X159156340Y-105798332D01*
X159151357Y-105728642D01*
X159156338Y-105711672D01*
X159169091Y-105677483D01*
X159175500Y-105617873D01*
X159175499Y-104622128D01*
X159171363Y-104583656D01*
X159183769Y-104514900D01*
X159231379Y-104463762D01*
X159247188Y-104455848D01*
X159318127Y-104426465D01*
X159334900Y-104415258D01*
X159334901Y-104415258D01*
X159423799Y-104355858D01*
X159424669Y-104355277D01*
X159581764Y-104198181D01*
X159643087Y-104164697D01*
X159712778Y-104169681D01*
G37*
%TD.AperFunction*%
%TA.AperFunction,Conductor*%
G36*
X122053712Y-109018745D02*
G01*
X122109646Y-109060616D01*
X122133700Y-109121965D01*
X122148503Y-109262804D01*
X122148504Y-109262807D01*
X122203747Y-109432829D01*
X122203750Y-109432835D01*
X122293141Y-109587665D01*
X122311749Y-109608331D01*
X122412764Y-109720521D01*
X122412767Y-109720523D01*
X122412770Y-109720526D01*
X122557407Y-109825612D01*
X122720733Y-109898329D01*
X122885012Y-109933247D01*
X122946493Y-109966439D01*
X122946911Y-109966856D01*
X123009724Y-110029669D01*
X123072066Y-110092011D01*
X123100332Y-110120277D01*
X123206866Y-110191461D01*
X123206872Y-110191464D01*
X123206873Y-110191465D01*
X123325256Y-110240501D01*
X123325260Y-110240501D01*
X123325261Y-110240502D01*
X123450928Y-110265500D01*
X123450931Y-110265500D01*
X125351710Y-110265500D01*
X125418749Y-110285185D01*
X125464504Y-110337989D01*
X125466271Y-110342047D01*
X125503757Y-110432547D01*
X125515721Y-110461429D01*
X125605964Y-110579036D01*
X125723571Y-110669279D01*
X125757493Y-110683330D01*
X125797628Y-110699955D01*
X125852031Y-110743796D01*
X125874096Y-110810090D01*
X125856817Y-110877790D01*
X125837856Y-110902197D01*
X121481873Y-115258181D01*
X121420550Y-115291666D01*
X121394192Y-115294500D01*
X120424500Y-115294500D01*
X120357461Y-115274815D01*
X120311706Y-115222011D01*
X120300500Y-115170500D01*
X120300499Y-113654629D01*
X120300499Y-113654628D01*
X120294091Y-113595017D01*
X120294090Y-113595016D01*
X120293380Y-113588404D01*
X120293381Y-113561893D01*
X120299999Y-113500342D01*
X120300000Y-113500327D01*
X120300000Y-113452500D01*
X120299948Y-113452448D01*
X120233085Y-113432815D01*
X120200859Y-113402813D01*
X120157546Y-113344954D01*
X120157544Y-113344952D01*
X120157543Y-113344951D01*
X120152773Y-113340181D01*
X120119288Y-113278858D01*
X120124272Y-113209166D01*
X120152773Y-113164819D01*
X120157542Y-113160048D01*
X120157546Y-113160046D01*
X120231190Y-113061671D01*
X120238289Y-113052188D01*
X120286105Y-113016394D01*
X120300000Y-113002500D01*
X120300000Y-112954682D01*
X120299999Y-112954664D01*
X120296068Y-112918102D01*
X120296068Y-112891594D01*
X120300500Y-112850373D01*
X120300499Y-112655053D01*
X120320183Y-112588015D01*
X120372987Y-112542260D01*
X120377029Y-112540500D01*
X120465234Y-112503965D01*
X120481454Y-112493127D01*
X120571776Y-112432777D01*
X121598505Y-111406048D01*
X121669694Y-111299505D01*
X121718730Y-111181122D01*
X121722832Y-111160500D01*
X121727119Y-111138947D01*
X121743729Y-111055449D01*
X121743729Y-109277578D01*
X121763414Y-109210539D01*
X121780039Y-109189906D01*
X121922702Y-109047242D01*
X121984020Y-109013761D01*
X122053712Y-109018745D01*
G37*
%TD.AperFunction*%
%TA.AperFunction,Conductor*%
G36*
X150660834Y-108660627D02*
G01*
X150705181Y-108689128D01*
X150721053Y-108705000D01*
X151506000Y-108705000D01*
X151573039Y-108724685D01*
X151618794Y-108777489D01*
X151630000Y-108829000D01*
X151630000Y-109613947D01*
X151645872Y-109629819D01*
X151679357Y-109691142D01*
X151674373Y-109760834D01*
X151645872Y-109805181D01*
X151630000Y-109821052D01*
X151630000Y-111138947D01*
X151645872Y-111154819D01*
X151679357Y-111216142D01*
X151674373Y-111285834D01*
X151645872Y-111330181D01*
X151630000Y-111346052D01*
X151630000Y-112131000D01*
X151610315Y-112198039D01*
X151557511Y-112243794D01*
X151506000Y-112255000D01*
X150721052Y-112255000D01*
X150705181Y-112270872D01*
X150643858Y-112304357D01*
X150574166Y-112299373D01*
X150529819Y-112270872D01*
X150513947Y-112255000D01*
X149196052Y-112255000D01*
X149180181Y-112270872D01*
X149118858Y-112304357D01*
X149049166Y-112299373D01*
X149004819Y-112270872D01*
X148988947Y-112255000D01*
X148204000Y-112255000D01*
X148136961Y-112235315D01*
X148091206Y-112182511D01*
X148080000Y-112131000D01*
X148080000Y-111975163D01*
X148942500Y-111975163D01*
X148942500Y-112034837D01*
X148965336Y-112089968D01*
X149007532Y-112132164D01*
X149062663Y-112155000D01*
X149122337Y-112155000D01*
X149177468Y-112132164D01*
X149219664Y-112089968D01*
X149242500Y-112034837D01*
X149242500Y-111975163D01*
X150467500Y-111975163D01*
X150467500Y-112034837D01*
X150490336Y-112089968D01*
X150532532Y-112132164D01*
X150587663Y-112155000D01*
X150647337Y-112155000D01*
X150702468Y-112132164D01*
X150744664Y-112089968D01*
X150767500Y-112034837D01*
X150767500Y-111975163D01*
X150744664Y-111920032D01*
X150702468Y-111877836D01*
X150647337Y-111855000D01*
X150587663Y-111855000D01*
X150532532Y-111877836D01*
X150490336Y-111920032D01*
X150467500Y-111975163D01*
X149242500Y-111975163D01*
X149219664Y-111920032D01*
X149177468Y-111877836D01*
X149122337Y-111855000D01*
X149062663Y-111855000D01*
X149007532Y-111877836D01*
X148965336Y-111920032D01*
X148942500Y-111975163D01*
X148080000Y-111975163D01*
X148080000Y-111346053D01*
X148064128Y-111330181D01*
X148030643Y-111268858D01*
X148034662Y-111212663D01*
X148180000Y-111212663D01*
X148180000Y-111272337D01*
X148202836Y-111327468D01*
X148245032Y-111369664D01*
X148300163Y-111392500D01*
X148359837Y-111392500D01*
X148414968Y-111369664D01*
X148457164Y-111327468D01*
X148480000Y-111272337D01*
X148480000Y-111242500D01*
X148683553Y-111242500D01*
X148740559Y-111299505D01*
X149092500Y-111651446D01*
X149501446Y-111242500D01*
X149471609Y-111212663D01*
X149705000Y-111212663D01*
X149705000Y-111272337D01*
X149727836Y-111327468D01*
X149770032Y-111369664D01*
X149825163Y-111392500D01*
X149884837Y-111392500D01*
X149939968Y-111369664D01*
X149982164Y-111327468D01*
X150005000Y-111272337D01*
X150005000Y-111242500D01*
X150208553Y-111242500D01*
X150265559Y-111299505D01*
X150617500Y-111651446D01*
X151026446Y-111242500D01*
X150996609Y-111212663D01*
X151230000Y-111212663D01*
X151230000Y-111272337D01*
X151252836Y-111327468D01*
X151295032Y-111369664D01*
X151350163Y-111392500D01*
X151409837Y-111392500D01*
X151464968Y-111369664D01*
X151507164Y-111327468D01*
X151530000Y-111272337D01*
X151530000Y-111212663D01*
X151507164Y-111157532D01*
X151464968Y-111115336D01*
X151409837Y-111092500D01*
X151350163Y-111092500D01*
X151295032Y-111115336D01*
X151252836Y-111157532D01*
X151230000Y-111212663D01*
X150996609Y-111212663D01*
X150672892Y-110888946D01*
X150617500Y-110833553D01*
X150562108Y-110888946D01*
X150562107Y-110888947D01*
X150208553Y-111242500D01*
X150005000Y-111242500D01*
X150005000Y-111212663D01*
X149982164Y-111157532D01*
X149939968Y-111115336D01*
X149884837Y-111092500D01*
X149825163Y-111092500D01*
X149770032Y-111115336D01*
X149727836Y-111157532D01*
X149705000Y-111212663D01*
X149471609Y-111212663D01*
X149147892Y-110888946D01*
X149092500Y-110833553D01*
X149037108Y-110888946D01*
X149037107Y-110888947D01*
X148683553Y-111242500D01*
X148480000Y-111242500D01*
X148480000Y-111212663D01*
X148457164Y-111157532D01*
X148414968Y-111115336D01*
X148359837Y-111092500D01*
X148300163Y-111092500D01*
X148245032Y-111115336D01*
X148202836Y-111157532D01*
X148180000Y-111212663D01*
X148034662Y-111212663D01*
X148035627Y-111199166D01*
X148064128Y-111154819D01*
X148079999Y-111138947D01*
X148080000Y-111138946D01*
X148080000Y-110730000D01*
X147255000Y-110730000D01*
X147255000Y-112627844D01*
X147261401Y-112687372D01*
X147261403Y-112687379D01*
X147311645Y-112822086D01*
X147311649Y-112822093D01*
X147397809Y-112937187D01*
X147397812Y-112937190D01*
X147483363Y-113001234D01*
X147525234Y-113057168D01*
X147530218Y-113126859D01*
X147496732Y-113188182D01*
X147435409Y-113221666D01*
X147409052Y-113224500D01*
X146946911Y-113224500D01*
X146879872Y-113204815D01*
X146874025Y-113200818D01*
X146782594Y-113134389D01*
X146782593Y-113134388D01*
X146619267Y-113061671D01*
X146619265Y-113061670D01*
X146444389Y-113024499D01*
X146437923Y-113023820D01*
X146438200Y-113021182D01*
X146382461Y-113004815D01*
X146336706Y-112952011D01*
X146325500Y-112900500D01*
X146325500Y-110450163D01*
X148942500Y-110450163D01*
X148942500Y-110509837D01*
X148965336Y-110564968D01*
X149007532Y-110607164D01*
X149062663Y-110630000D01*
X149122337Y-110630000D01*
X149177468Y-110607164D01*
X149219664Y-110564968D01*
X149242500Y-110509837D01*
X149242500Y-110450163D01*
X150467500Y-110450163D01*
X150467500Y-110509837D01*
X150490336Y-110564968D01*
X150532532Y-110607164D01*
X150587663Y-110630000D01*
X150647337Y-110630000D01*
X150702468Y-110607164D01*
X150744664Y-110564968D01*
X150767500Y-110509837D01*
X150767500Y-110450163D01*
X150744664Y-110395032D01*
X150702468Y-110352836D01*
X150647337Y-110330000D01*
X150587663Y-110330000D01*
X150532532Y-110352836D01*
X150490336Y-110395032D01*
X150467500Y-110450163D01*
X149242500Y-110450163D01*
X149219664Y-110395032D01*
X149177468Y-110352836D01*
X149122337Y-110330000D01*
X149062663Y-110330000D01*
X149007532Y-110352836D01*
X148965336Y-110395032D01*
X148942500Y-110450163D01*
X146325500Y-110450163D01*
X146325500Y-109935808D01*
X146345185Y-109868769D01*
X146361819Y-109848127D01*
X147043319Y-109166627D01*
X147104642Y-109133142D01*
X147174334Y-109138126D01*
X147230267Y-109179998D01*
X147254684Y-109245462D01*
X147255000Y-109254308D01*
X147255000Y-110230000D01*
X148080000Y-110230000D01*
X148080000Y-109821053D01*
X148064128Y-109805181D01*
X148030643Y-109743858D01*
X148034662Y-109687663D01*
X148180000Y-109687663D01*
X148180000Y-109747337D01*
X148202836Y-109802468D01*
X148245032Y-109844664D01*
X148300163Y-109867500D01*
X148359837Y-109867500D01*
X148414968Y-109844664D01*
X148457164Y-109802468D01*
X148480000Y-109747337D01*
X148480000Y-109717499D01*
X148683553Y-109717499D01*
X149092500Y-110126446D01*
X149501446Y-109717500D01*
X149471609Y-109687663D01*
X149705000Y-109687663D01*
X149705000Y-109747337D01*
X149727836Y-109802468D01*
X149770032Y-109844664D01*
X149825163Y-109867500D01*
X149884837Y-109867500D01*
X149939968Y-109844664D01*
X149982164Y-109802468D01*
X150005000Y-109747337D01*
X150005000Y-109717499D01*
X150208553Y-109717499D01*
X150617500Y-110126446D01*
X151026446Y-109717500D01*
X150996609Y-109687663D01*
X151230000Y-109687663D01*
X151230000Y-109747337D01*
X151252836Y-109802468D01*
X151295032Y-109844664D01*
X151350163Y-109867500D01*
X151409837Y-109867500D01*
X151464968Y-109844664D01*
X151507164Y-109802468D01*
X151530000Y-109747337D01*
X151530000Y-109687663D01*
X151507164Y-109632532D01*
X151464968Y-109590336D01*
X151409837Y-109567500D01*
X151350163Y-109567500D01*
X151295032Y-109590336D01*
X151252836Y-109632532D01*
X151230000Y-109687663D01*
X150996609Y-109687663D01*
X150654391Y-109345445D01*
X150617500Y-109308553D01*
X150580609Y-109345445D01*
X150580608Y-109345446D01*
X150208553Y-109717499D01*
X150005000Y-109717499D01*
X150005000Y-109687663D01*
X149982164Y-109632532D01*
X149939968Y-109590336D01*
X149884837Y-109567500D01*
X149825163Y-109567500D01*
X149770032Y-109590336D01*
X149727836Y-109632532D01*
X149705000Y-109687663D01*
X149471609Y-109687663D01*
X149129391Y-109345445D01*
X149092500Y-109308553D01*
X149055609Y-109345445D01*
X149055608Y-109345446D01*
X148683553Y-109717499D01*
X148480000Y-109717499D01*
X148480000Y-109687663D01*
X148457164Y-109632532D01*
X148414968Y-109590336D01*
X148359837Y-109567500D01*
X148300163Y-109567500D01*
X148245032Y-109590336D01*
X148202836Y-109632532D01*
X148180000Y-109687663D01*
X148034662Y-109687663D01*
X148035627Y-109674166D01*
X148064128Y-109629819D01*
X148079999Y-109613947D01*
X148080000Y-109613946D01*
X148080000Y-108925163D01*
X148942500Y-108925163D01*
X148942500Y-108984837D01*
X148965336Y-109039968D01*
X149007532Y-109082164D01*
X149062663Y-109105000D01*
X149122337Y-109105000D01*
X149177468Y-109082164D01*
X149219664Y-109039968D01*
X149242500Y-108984837D01*
X149242500Y-108925163D01*
X150467500Y-108925163D01*
X150467500Y-108984837D01*
X150490336Y-109039968D01*
X150532532Y-109082164D01*
X150587663Y-109105000D01*
X150647337Y-109105000D01*
X150702468Y-109082164D01*
X150744664Y-109039968D01*
X150767500Y-108984837D01*
X150767500Y-108925163D01*
X150744664Y-108870032D01*
X150702468Y-108827836D01*
X150647337Y-108805000D01*
X150587663Y-108805000D01*
X150532532Y-108827836D01*
X150490336Y-108870032D01*
X150467500Y-108925163D01*
X149242500Y-108925163D01*
X149219664Y-108870032D01*
X149177468Y-108827836D01*
X149122337Y-108805000D01*
X149062663Y-108805000D01*
X149007532Y-108827836D01*
X148965336Y-108870032D01*
X148942500Y-108925163D01*
X148080000Y-108925163D01*
X148080000Y-108829000D01*
X148099685Y-108761961D01*
X148152489Y-108716206D01*
X148204000Y-108705000D01*
X148988947Y-108705000D01*
X148988947Y-108704999D01*
X149004819Y-108689128D01*
X149066142Y-108655643D01*
X149135834Y-108660627D01*
X149180181Y-108689128D01*
X149196053Y-108705000D01*
X150513947Y-108705000D01*
X150513947Y-108704999D01*
X150529819Y-108689128D01*
X150591142Y-108655643D01*
X150660834Y-108660627D01*
G37*
%TD.AperFunction*%
%TA.AperFunction,Conductor*%
G36*
X131417539Y-110760184D02*
G01*
X131463294Y-110812988D01*
X131474500Y-110864499D01*
X131474500Y-111059069D01*
X131474500Y-111059071D01*
X131474499Y-111059071D01*
X131497364Y-111174011D01*
X131499498Y-111184740D01*
X131499500Y-111184747D01*
X131548532Y-111303123D01*
X131577216Y-111346052D01*
X131617302Y-111406046D01*
X131619726Y-111409673D01*
X131619727Y-111409674D01*
X132258181Y-112048126D01*
X132291666Y-112109449D01*
X132294500Y-112135807D01*
X132294500Y-112169362D01*
X132274815Y-112236401D01*
X132235598Y-112274899D01*
X132196073Y-112299279D01*
X132126345Y-112342287D01*
X132014929Y-112453703D01*
X131953606Y-112487187D01*
X131883914Y-112482203D01*
X131827981Y-112440331D01*
X131809543Y-112405028D01*
X131799814Y-112375666D01*
X131707712Y-112226344D01*
X131583656Y-112102288D01*
X131434334Y-112010186D01*
X131267797Y-111955001D01*
X131267795Y-111955000D01*
X131165016Y-111944500D01*
X131165009Y-111944500D01*
X130902701Y-111944500D01*
X130835662Y-111924815D01*
X130789907Y-111872011D01*
X130779963Y-111802853D01*
X130804323Y-111745015D01*
X130849279Y-111686429D01*
X130906009Y-111549472D01*
X130920500Y-111439401D01*
X130920499Y-110864498D01*
X130940183Y-110797460D01*
X130992987Y-110751705D01*
X131044499Y-110740499D01*
X131350500Y-110740499D01*
X131417539Y-110760184D01*
G37*
%TD.AperFunction*%
%TA.AperFunction,Conductor*%
G36*
X130077514Y-107049501D02*
G01*
X130077674Y-107048905D01*
X130085524Y-107051008D01*
X130085526Y-107051008D01*
X130085528Y-107051009D01*
X130195599Y-107065500D01*
X130220498Y-107065499D01*
X130287536Y-107085181D01*
X130333293Y-107137984D01*
X130344500Y-107189495D01*
X130344500Y-107214402D01*
X130358989Y-107324468D01*
X130361094Y-107332322D01*
X130357814Y-107333200D01*
X130363581Y-107387073D01*
X130360517Y-107397522D01*
X130361095Y-107397677D01*
X130358990Y-107405529D01*
X130344500Y-107515598D01*
X130344500Y-107714403D01*
X130358989Y-107824468D01*
X130361094Y-107832322D01*
X130357814Y-107833200D01*
X130363581Y-107887073D01*
X130360517Y-107897522D01*
X130361095Y-107897677D01*
X130358990Y-107905529D01*
X130344500Y-108015598D01*
X130344500Y-108214403D01*
X130358989Y-108324468D01*
X130361094Y-108332322D01*
X130357814Y-108333200D01*
X130363581Y-108387073D01*
X130360517Y-108397522D01*
X130361095Y-108397677D01*
X130358990Y-108405529D01*
X130344500Y-108515598D01*
X130344500Y-108714403D01*
X130358989Y-108824468D01*
X130361094Y-108832322D01*
X130357814Y-108833200D01*
X130363581Y-108887073D01*
X130360517Y-108897522D01*
X130361095Y-108897677D01*
X130358990Y-108905529D01*
X130344500Y-109015598D01*
X130344500Y-109214403D01*
X130358989Y-109324468D01*
X130361094Y-109332322D01*
X130357814Y-109333200D01*
X130363581Y-109387073D01*
X130360517Y-109397522D01*
X130361095Y-109397677D01*
X130358990Y-109405529D01*
X130344500Y-109515598D01*
X130344500Y-109714403D01*
X130358989Y-109824468D01*
X130361094Y-109832322D01*
X130357814Y-109833200D01*
X130363581Y-109887073D01*
X130360517Y-109897522D01*
X130361095Y-109897677D01*
X130358990Y-109905529D01*
X130344501Y-110015589D01*
X130344500Y-110015605D01*
X130344500Y-110040500D01*
X130324815Y-110107539D01*
X130272011Y-110153294D01*
X130220504Y-110164500D01*
X130195597Y-110164500D01*
X130085531Y-110178989D01*
X130077678Y-110181094D01*
X130076802Y-110177824D01*
X130022853Y-110183567D01*
X130012477Y-110180518D01*
X130012323Y-110181095D01*
X130004470Y-110178990D01*
X129894401Y-110164500D01*
X129695596Y-110164500D01*
X129585531Y-110178989D01*
X129577678Y-110181094D01*
X129576802Y-110177824D01*
X129522853Y-110183567D01*
X129512477Y-110180518D01*
X129512323Y-110181095D01*
X129504470Y-110178990D01*
X129394401Y-110164500D01*
X129195596Y-110164500D01*
X129085531Y-110178989D01*
X129077678Y-110181094D01*
X129076802Y-110177824D01*
X129022853Y-110183567D01*
X129012477Y-110180518D01*
X129012323Y-110181095D01*
X129004470Y-110178990D01*
X128894401Y-110164500D01*
X128695596Y-110164500D01*
X128585531Y-110178989D01*
X128577678Y-110181094D01*
X128576802Y-110177824D01*
X128522853Y-110183567D01*
X128512477Y-110180518D01*
X128512323Y-110181095D01*
X128504470Y-110178990D01*
X128394401Y-110164500D01*
X128195596Y-110164500D01*
X128085531Y-110178989D01*
X128077678Y-110181094D01*
X128076802Y-110177824D01*
X128022853Y-110183567D01*
X128012477Y-110180518D01*
X128012323Y-110181095D01*
X128004470Y-110178990D01*
X127894401Y-110164500D01*
X127695596Y-110164500D01*
X127585531Y-110178989D01*
X127577678Y-110181094D01*
X127576802Y-110177824D01*
X127522853Y-110183567D01*
X127512477Y-110180518D01*
X127512323Y-110181095D01*
X127504470Y-110178990D01*
X127394410Y-110164501D01*
X127394407Y-110164500D01*
X127394401Y-110164500D01*
X127394394Y-110164500D01*
X127369499Y-110164500D01*
X127302460Y-110144815D01*
X127256705Y-110092011D01*
X127245499Y-110040500D01*
X127245499Y-110015597D01*
X127234995Y-109935808D01*
X127231009Y-109905528D01*
X127231008Y-109905525D01*
X127228905Y-109897674D01*
X127232207Y-109896789D01*
X127226392Y-109843075D01*
X127229501Y-109832485D01*
X127228905Y-109832326D01*
X127231009Y-109824472D01*
X127233906Y-109802468D01*
X127245500Y-109714401D01*
X127245499Y-109515600D01*
X127245279Y-109513931D01*
X127234718Y-109433704D01*
X127231009Y-109405528D01*
X127231008Y-109405525D01*
X127228905Y-109397674D01*
X127232207Y-109396789D01*
X127226392Y-109343075D01*
X127229501Y-109332485D01*
X127228905Y-109332326D01*
X127231008Y-109324475D01*
X127231008Y-109324474D01*
X127231009Y-109324472D01*
X127245500Y-109214401D01*
X127245499Y-109015600D01*
X127231009Y-108905528D01*
X127231008Y-108905525D01*
X127228905Y-108897674D01*
X127232207Y-108896789D01*
X127226392Y-108843075D01*
X127229501Y-108832485D01*
X127228905Y-108832326D01*
X127231008Y-108824475D01*
X127231008Y-108824474D01*
X127231009Y-108824472D01*
X127245500Y-108714401D01*
X127245499Y-108515600D01*
X127245499Y-108515598D01*
X127245499Y-108515596D01*
X127231011Y-108405536D01*
X127228906Y-108397682D01*
X127232007Y-108396850D01*
X127226128Y-108342382D01*
X127229147Y-108332389D01*
X127228418Y-108332194D01*
X127230521Y-108324342D01*
X127241626Y-108240000D01*
X127213506Y-108240000D01*
X127146467Y-108220315D01*
X127115115Y-108191466D01*
X127114348Y-108190466D01*
X127089167Y-108125292D01*
X127103219Y-108056850D01*
X127114348Y-108039534D01*
X127115115Y-108038534D01*
X127171534Y-107997319D01*
X127213506Y-107990000D01*
X127241626Y-107990000D01*
X127230521Y-107905659D01*
X127228418Y-107897807D01*
X127232041Y-107896835D01*
X127225919Y-107844884D01*
X127229495Y-107832484D01*
X127228905Y-107832326D01*
X127231008Y-107824475D01*
X127231008Y-107824474D01*
X127231009Y-107824472D01*
X127245500Y-107714401D01*
X127245499Y-107515600D01*
X127244830Y-107510521D01*
X127237547Y-107455192D01*
X127231009Y-107405528D01*
X127231008Y-107405525D01*
X127228905Y-107397674D01*
X127232207Y-107396789D01*
X127226392Y-107343075D01*
X127229501Y-107332485D01*
X127228905Y-107332326D01*
X127231008Y-107324475D01*
X127231008Y-107324474D01*
X127231009Y-107324472D01*
X127245500Y-107214401D01*
X127245500Y-107189499D01*
X127265185Y-107122460D01*
X127317989Y-107076705D01*
X127369500Y-107065499D01*
X127394402Y-107065499D01*
X127434767Y-107060185D01*
X127504472Y-107051009D01*
X127504475Y-107051007D01*
X127512326Y-107048905D01*
X127513210Y-107052207D01*
X127566925Y-107046392D01*
X127577514Y-107049501D01*
X127577674Y-107048905D01*
X127585524Y-107051008D01*
X127585526Y-107051008D01*
X127585528Y-107051009D01*
X127695599Y-107065500D01*
X127894400Y-107065499D01*
X127894401Y-107065499D01*
X127911087Y-107063302D01*
X128004472Y-107051009D01*
X128004475Y-107051007D01*
X128012326Y-107048905D01*
X128013210Y-107052207D01*
X128066925Y-107046392D01*
X128077514Y-107049501D01*
X128077674Y-107048905D01*
X128085524Y-107051008D01*
X128085526Y-107051008D01*
X128085528Y-107051009D01*
X128195599Y-107065500D01*
X128394400Y-107065499D01*
X128394401Y-107065499D01*
X128411087Y-107063302D01*
X128504472Y-107051009D01*
X128504475Y-107051007D01*
X128512326Y-107048905D01*
X128513210Y-107052207D01*
X128566925Y-107046392D01*
X128577514Y-107049501D01*
X128577674Y-107048905D01*
X128585524Y-107051008D01*
X128585526Y-107051008D01*
X128585528Y-107051009D01*
X128695599Y-107065500D01*
X128894400Y-107065499D01*
X128894401Y-107065499D01*
X128911087Y-107063302D01*
X129004472Y-107051009D01*
X129004475Y-107051007D01*
X129012326Y-107048905D01*
X129013210Y-107052207D01*
X129066925Y-107046392D01*
X129077514Y-107049501D01*
X129077674Y-107048905D01*
X129085524Y-107051008D01*
X129085526Y-107051008D01*
X129085528Y-107051009D01*
X129195599Y-107065500D01*
X129394400Y-107065499D01*
X129394401Y-107065499D01*
X129411087Y-107063302D01*
X129504472Y-107051009D01*
X129504475Y-107051007D01*
X129512326Y-107048905D01*
X129513210Y-107052207D01*
X129566925Y-107046392D01*
X129577514Y-107049501D01*
X129577674Y-107048905D01*
X129585524Y-107051008D01*
X129585526Y-107051008D01*
X129585528Y-107051009D01*
X129695599Y-107065500D01*
X129894400Y-107065499D01*
X129894401Y-107065499D01*
X129911087Y-107063302D01*
X130004472Y-107051009D01*
X130004475Y-107051007D01*
X130012326Y-107048905D01*
X130013210Y-107052207D01*
X130066925Y-107046392D01*
X130077514Y-107049501D01*
G37*
%TD.AperFunction*%
%TA.AperFunction,Conductor*%
G36*
X136112966Y-103235881D02*
G01*
X136237153Y-103245657D01*
X136256364Y-103248701D01*
X136372733Y-103276641D01*
X136391228Y-103282651D01*
X136501803Y-103328456D01*
X136519122Y-103337281D01*
X136621173Y-103399823D01*
X136636900Y-103411250D01*
X136731956Y-103492440D01*
X136739096Y-103499042D01*
X136741519Y-103501465D01*
X136787174Y-103547124D01*
X136787175Y-103547124D01*
X136792535Y-103552485D01*
X136792569Y-103552515D01*
X138464888Y-105224835D01*
X138465039Y-105224971D01*
X138495922Y-105255856D01*
X138674414Y-105398203D01*
X138867721Y-105519670D01*
X139073414Y-105618729D01*
X139116940Y-105633959D01*
X139173714Y-105674680D01*
X139192165Y-105707664D01*
X139193657Y-105711664D01*
X139198643Y-105781356D01*
X139193659Y-105798331D01*
X139180908Y-105832518D01*
X139175002Y-105887456D01*
X139174501Y-105892123D01*
X139174500Y-105892135D01*
X139174500Y-105973198D01*
X139154815Y-106040237D01*
X139102011Y-106085992D01*
X139032853Y-106095936D01*
X139000070Y-106086480D01*
X138989268Y-106081671D01*
X138989265Y-106081670D01*
X138848104Y-106051666D01*
X138814391Y-106044500D01*
X138635609Y-106044500D01*
X138604954Y-106051015D01*
X138460733Y-106081670D01*
X138460728Y-106081672D01*
X138297408Y-106154387D01*
X138152768Y-106259475D01*
X138033140Y-106392336D01*
X137943750Y-106547164D01*
X137943747Y-106547170D01*
X137888504Y-106717192D01*
X137888503Y-106717194D01*
X137869815Y-106895000D01*
X137888503Y-107072805D01*
X137888504Y-107072807D01*
X137943747Y-107242829D01*
X137943750Y-107242835D01*
X138033141Y-107397665D01*
X138040222Y-107405529D01*
X138152764Y-107530521D01*
X138152767Y-107530523D01*
X138152770Y-107530526D01*
X138297407Y-107635612D01*
X138460733Y-107708329D01*
X138460735Y-107708329D01*
X138460736Y-107708330D01*
X138517275Y-107720347D01*
X138625010Y-107743247D01*
X138686490Y-107776438D01*
X138686909Y-107776855D01*
X139075324Y-108165271D01*
X139075327Y-108165274D01*
X139140144Y-108208583D01*
X139184949Y-108262195D01*
X139193656Y-108331520D01*
X139187436Y-108355014D01*
X139180909Y-108372513D01*
X139180908Y-108372517D01*
X139176475Y-108413755D01*
X139174501Y-108432123D01*
X139174500Y-108432135D01*
X139174500Y-108675191D01*
X139154815Y-108742230D01*
X139102011Y-108787985D01*
X139032853Y-108797929D01*
X138969297Y-108768904D01*
X138962819Y-108762872D01*
X138554673Y-108354726D01*
X138554669Y-108354723D01*
X138448127Y-108283535D01*
X138329744Y-108234499D01*
X138329740Y-108234498D01*
X138329733Y-108234496D01*
X138324265Y-108233408D01*
X138324261Y-108233408D01*
X138204071Y-108209500D01*
X138204069Y-108209500D01*
X137205931Y-108209500D01*
X137205929Y-108209500D01*
X137085738Y-108233408D01*
X137085737Y-108233407D01*
X137080266Y-108234496D01*
X137080253Y-108234500D01*
X136961874Y-108283534D01*
X136855326Y-108354726D01*
X136855325Y-108354727D01*
X136847181Y-108362872D01*
X136785858Y-108396357D01*
X136716166Y-108391373D01*
X136660233Y-108349501D01*
X136635816Y-108284037D01*
X136635500Y-108275191D01*
X136635500Y-104790928D01*
X136610502Y-104665261D01*
X136610501Y-104665260D01*
X136610501Y-104665256D01*
X136561465Y-104546873D01*
X136549078Y-104528334D01*
X136536642Y-104509722D01*
X136536641Y-104509722D01*
X136490276Y-104440330D01*
X136490274Y-104440328D01*
X136490272Y-104440325D01*
X136009672Y-103959725D01*
X136009664Y-103959719D01*
X135999489Y-103952920D01*
X135954683Y-103899308D01*
X135946682Y-103868761D01*
X135946415Y-103868819D01*
X135945152Y-103862918D01*
X135945021Y-103862418D01*
X135944999Y-103862203D01*
X135944998Y-103862200D01*
X135934873Y-103831646D01*
X135889814Y-103695666D01*
X135797712Y-103546344D01*
X135698549Y-103447181D01*
X135665064Y-103385858D01*
X135670048Y-103316166D01*
X135711920Y-103260233D01*
X135777384Y-103235816D01*
X135786230Y-103235500D01*
X136103236Y-103235500D01*
X136112966Y-103235881D01*
G37*
%TD.AperFunction*%
%TA.AperFunction,Conductor*%
G36*
X119054056Y-105674626D02*
G01*
X119089421Y-105699368D01*
X120306371Y-106916317D01*
X120339856Y-106977640D01*
X120342010Y-106991031D01*
X120348503Y-107052803D01*
X120348504Y-107052805D01*
X120348504Y-107052807D01*
X120403747Y-107222829D01*
X120403750Y-107222835D01*
X120493141Y-107377665D01*
X120518229Y-107405528D01*
X120612764Y-107510521D01*
X120612767Y-107510523D01*
X120612770Y-107510526D01*
X120757407Y-107615612D01*
X120920733Y-107688329D01*
X121095609Y-107725500D01*
X121095610Y-107725500D01*
X121105191Y-107725500D01*
X121172230Y-107745185D01*
X121217985Y-107797989D01*
X121227929Y-107867147D01*
X121198904Y-107930703D01*
X121192872Y-107937181D01*
X120587953Y-108542100D01*
X120542252Y-108610499D01*
X120542249Y-108610503D01*
X120515321Y-108650801D01*
X120461708Y-108695604D01*
X120392382Y-108704310D01*
X120329356Y-108674153D01*
X120296039Y-108625240D01*
X120290542Y-108610503D01*
X120243796Y-108485169D01*
X120243795Y-108485168D01*
X120243793Y-108485164D01*
X120157547Y-108369955D01*
X120157544Y-108369952D01*
X120042335Y-108283706D01*
X120042328Y-108283702D01*
X119907482Y-108233408D01*
X119907483Y-108233408D01*
X119847883Y-108227001D01*
X119847881Y-108227000D01*
X119847873Y-108227000D01*
X119847864Y-108227000D01*
X118202129Y-108227000D01*
X118202123Y-108227001D01*
X118142516Y-108233408D01*
X118007671Y-108283702D01*
X118007664Y-108283706D01*
X117892455Y-108369952D01*
X117823765Y-108461710D01*
X117767831Y-108503580D01*
X117698139Y-108508564D01*
X117636817Y-108475078D01*
X117603332Y-108413755D01*
X117600499Y-108387398D01*
X117600499Y-107679629D01*
X117600498Y-107679623D01*
X117594091Y-107620016D01*
X117543797Y-107485171D01*
X117543793Y-107485164D01*
X117457547Y-107369955D01*
X117457544Y-107369952D01*
X117342335Y-107283706D01*
X117342328Y-107283702D01*
X117207482Y-107233408D01*
X117207483Y-107233408D01*
X117147883Y-107227001D01*
X117147881Y-107227000D01*
X117147873Y-107227000D01*
X117147864Y-107227000D01*
X115752129Y-107227000D01*
X115752123Y-107227001D01*
X115692516Y-107233408D01*
X115561778Y-107282171D01*
X115492086Y-107287155D01*
X115430763Y-107253670D01*
X115397279Y-107192346D01*
X115394445Y-107165989D01*
X115394445Y-105838967D01*
X115414130Y-105771928D01*
X115466934Y-105726173D01*
X115536092Y-105716229D01*
X115591330Y-105738649D01*
X115662835Y-105790600D01*
X115736155Y-105843870D01*
X115871542Y-105912853D01*
X115960616Y-105958239D01*
X115960618Y-105958239D01*
X115960621Y-105958241D01*
X116200215Y-106036090D01*
X116449038Y-106075500D01*
X116449039Y-106075500D01*
X118000961Y-106075500D01*
X118000962Y-106075500D01*
X118249785Y-106036090D01*
X118489379Y-105958241D01*
X118713845Y-105843870D01*
X118917656Y-105695793D01*
X118917671Y-105695777D01*
X118921209Y-105692758D01*
X118984970Y-105664188D01*
X119054056Y-105674626D01*
G37*
%TD.AperFunction*%
%TA.AperFunction,Conductor*%
G36*
X122306354Y-105330376D02*
G01*
X122357556Y-105377917D01*
X122375000Y-105441335D01*
X122375000Y-106022844D01*
X122381401Y-106082372D01*
X122381403Y-106082379D01*
X122431645Y-106217086D01*
X122431649Y-106217093D01*
X122517809Y-106332187D01*
X122517812Y-106332190D01*
X122632906Y-106418350D01*
X122632913Y-106418354D01*
X122767620Y-106468596D01*
X122767627Y-106468598D01*
X122827155Y-106474999D01*
X122827172Y-106475000D01*
X123475000Y-106475000D01*
X123475000Y-105558012D01*
X123532007Y-105590925D01*
X123659174Y-105625000D01*
X123790826Y-105625000D01*
X123917993Y-105590925D01*
X123975000Y-105558012D01*
X123975000Y-106475000D01*
X124622828Y-106475000D01*
X124622844Y-106474999D01*
X124682372Y-106468598D01*
X124682379Y-106468596D01*
X124817086Y-106418354D01*
X124817093Y-106418350D01*
X124932186Y-106332190D01*
X125021979Y-106212244D01*
X125077913Y-106170373D01*
X125147605Y-106165389D01*
X125208927Y-106198874D01*
X125552972Y-106542918D01*
X125586457Y-106604241D01*
X125581473Y-106673932D01*
X125563668Y-106706084D01*
X125515720Y-106768571D01*
X125515719Y-106768573D01*
X125458991Y-106905527D01*
X125458990Y-106905529D01*
X125444500Y-107015598D01*
X125444500Y-107214403D01*
X125458989Y-107324468D01*
X125461094Y-107332322D01*
X125457814Y-107333200D01*
X125463581Y-107387073D01*
X125460517Y-107397522D01*
X125461095Y-107397677D01*
X125458990Y-107405529D01*
X125444500Y-107515598D01*
X125444500Y-107675192D01*
X125424815Y-107742231D01*
X125372011Y-107787986D01*
X125302853Y-107797930D01*
X125239297Y-107768905D01*
X125232819Y-107762873D01*
X124849674Y-107379727D01*
X124849673Y-107379726D01*
X124849669Y-107379723D01*
X124743127Y-107308535D01*
X124724716Y-107300909D01*
X124624744Y-107259499D01*
X124624738Y-107259497D01*
X124499071Y-107234500D01*
X124499069Y-107234500D01*
X122133131Y-107234500D01*
X122066092Y-107214815D01*
X122020337Y-107162011D01*
X122010393Y-107092853D01*
X122015201Y-107072180D01*
X122021495Y-107052809D01*
X122021494Y-107052809D01*
X122021497Y-107052803D01*
X122040185Y-106875000D01*
X122021497Y-106697197D01*
X121972750Y-106547170D01*
X121966252Y-106527170D01*
X121966249Y-106527164D01*
X121938034Y-106478294D01*
X121876859Y-106372335D01*
X121820388Y-106309618D01*
X121757235Y-106239478D01*
X121757232Y-106239476D01*
X121757231Y-106239475D01*
X121757230Y-106239474D01*
X121612593Y-106134388D01*
X121460741Y-106066779D01*
X121407504Y-106021529D01*
X121387183Y-105954680D01*
X121406228Y-105887456D01*
X121458594Y-105841201D01*
X121498576Y-105830142D01*
X121602696Y-105819505D01*
X121769119Y-105764358D01*
X121769124Y-105764356D01*
X121918345Y-105672315D01*
X122042315Y-105548345D01*
X122134356Y-105399124D01*
X122137408Y-105392579D01*
X122139402Y-105393509D01*
X122173063Y-105344889D01*
X122237577Y-105318064D01*
X122306354Y-105330376D01*
G37*
%TD.AperFunction*%
%TA.AperFunction,Conductor*%
G36*
X130878529Y-70909088D02*
G01*
X130924284Y-70961892D01*
X130934228Y-71031050D01*
X130908437Y-71090716D01*
X130908196Y-71091017D01*
X130908195Y-71091019D01*
X130853355Y-71159786D01*
X130744614Y-71296143D01*
X130613432Y-71523356D01*
X130517582Y-71767578D01*
X130517576Y-71767597D01*
X130459197Y-72023374D01*
X130459196Y-72023379D01*
X130439592Y-72284995D01*
X130439592Y-72285004D01*
X130459196Y-72546620D01*
X130459197Y-72546625D01*
X130517576Y-72802402D01*
X130517578Y-72802411D01*
X130517580Y-72802416D01*
X130613432Y-73046643D01*
X130744614Y-73273857D01*
X130863350Y-73422747D01*
X130908198Y-73478985D01*
X130951283Y-73518961D01*
X131100521Y-73657433D01*
X131127038Y-73675512D01*
X131137356Y-73682547D01*
X131181657Y-73736577D01*
X131189715Y-73805980D01*
X131158972Y-73868722D01*
X131137356Y-73887453D01*
X131100522Y-73912566D01*
X130908198Y-74091014D01*
X130744614Y-74296143D01*
X130613432Y-74523356D01*
X130517582Y-74767578D01*
X130517576Y-74767597D01*
X130459197Y-75023374D01*
X130459196Y-75023379D01*
X130439592Y-75284995D01*
X130439592Y-75285004D01*
X130459196Y-75546620D01*
X130459197Y-75546625D01*
X130517576Y-75802402D01*
X130517578Y-75802411D01*
X130517580Y-75802416D01*
X130613432Y-76046643D01*
X130744614Y-76273857D01*
X130837232Y-76389996D01*
X130908198Y-76478985D01*
X131045915Y-76606766D01*
X131100521Y-76657433D01*
X131317296Y-76805228D01*
X131317301Y-76805230D01*
X131317302Y-76805231D01*
X131317303Y-76805232D01*
X131438631Y-76863660D01*
X131553673Y-76919061D01*
X131553674Y-76919061D01*
X131553677Y-76919063D01*
X131804385Y-76996396D01*
X132063818Y-77035500D01*
X132326182Y-77035500D01*
X132585615Y-76996396D01*
X132836323Y-76919063D01*
X133072704Y-76805228D01*
X133289479Y-76657433D01*
X133481805Y-76478981D01*
X133645386Y-76273857D01*
X133776568Y-76046643D01*
X133872420Y-75802416D01*
X133930802Y-75546630D01*
X133950408Y-75285000D01*
X133936697Y-75102041D01*
X133930803Y-75023379D01*
X133930802Y-75023374D01*
X133930802Y-75023370D01*
X133872420Y-74767584D01*
X133776568Y-74523357D01*
X133645386Y-74296143D01*
X133481805Y-74091019D01*
X133481804Y-74091018D01*
X133481801Y-74091014D01*
X133289479Y-73912567D01*
X133260116Y-73892548D01*
X133252642Y-73887452D01*
X133208342Y-73833425D01*
X133200283Y-73764021D01*
X133231026Y-73701279D01*
X133252643Y-73682547D01*
X133289479Y-73657433D01*
X133481805Y-73478981D01*
X133645386Y-73273857D01*
X133776568Y-73046643D01*
X133872420Y-72802416D01*
X133930802Y-72546630D01*
X133930808Y-72546550D01*
X133950408Y-72285004D01*
X133950408Y-72284995D01*
X133930803Y-72023379D01*
X133930802Y-72023374D01*
X133930802Y-72023370D01*
X133872420Y-71767584D01*
X133776568Y-71523357D01*
X133645386Y-71296143D01*
X133481805Y-71091019D01*
X133481803Y-71091017D01*
X133481563Y-71090716D01*
X133455154Y-71026029D01*
X133467911Y-70957334D01*
X133515781Y-70906440D01*
X133578510Y-70889403D01*
X134811490Y-70889403D01*
X134878529Y-70909088D01*
X134924284Y-70961892D01*
X134934228Y-71031050D01*
X134908437Y-71090716D01*
X134908196Y-71091017D01*
X134908195Y-71091019D01*
X134853355Y-71159786D01*
X134744614Y-71296143D01*
X134613432Y-71523356D01*
X134517582Y-71767578D01*
X134517576Y-71767597D01*
X134459197Y-72023374D01*
X134459196Y-72023379D01*
X134439592Y-72284995D01*
X134439592Y-72285004D01*
X134459196Y-72546620D01*
X134459197Y-72546625D01*
X134517576Y-72802402D01*
X134517578Y-72802411D01*
X134517580Y-72802416D01*
X134613432Y-73046643D01*
X134744614Y-73273857D01*
X134863350Y-73422747D01*
X134908198Y-73478985D01*
X134951283Y-73518961D01*
X135100521Y-73657433D01*
X135127038Y-73675512D01*
X135137356Y-73682547D01*
X135181657Y-73736577D01*
X135189715Y-73805980D01*
X135158972Y-73868722D01*
X135137356Y-73887453D01*
X135100522Y-73912566D01*
X134908198Y-74091014D01*
X134744614Y-74296143D01*
X134613432Y-74523356D01*
X134517582Y-74767578D01*
X134517576Y-74767597D01*
X134459197Y-75023374D01*
X134459196Y-75023379D01*
X134439592Y-75284995D01*
X134439592Y-75285004D01*
X134459196Y-75546620D01*
X134459197Y-75546625D01*
X134517576Y-75802402D01*
X134517578Y-75802411D01*
X134517580Y-75802416D01*
X134613432Y-76046643D01*
X134744614Y-76273857D01*
X134837232Y-76389996D01*
X134908198Y-76478985D01*
X135045915Y-76606766D01*
X135100521Y-76657433D01*
X135317296Y-76805228D01*
X135317301Y-76805230D01*
X135317302Y-76805231D01*
X135317303Y-76805232D01*
X135438631Y-76863660D01*
X135553673Y-76919061D01*
X135553674Y-76919061D01*
X135553677Y-76919063D01*
X135804385Y-76996396D01*
X136063818Y-77035500D01*
X136326182Y-77035500D01*
X136585615Y-76996396D01*
X136836323Y-76919063D01*
X137072704Y-76805228D01*
X137289479Y-76657433D01*
X137481805Y-76478981D01*
X137645386Y-76273857D01*
X137776568Y-76046643D01*
X137872420Y-75802416D01*
X137930802Y-75546630D01*
X137950408Y-75285000D01*
X137936697Y-75102041D01*
X137930803Y-75023379D01*
X137930802Y-75023374D01*
X137930802Y-75023370D01*
X137872420Y-74767584D01*
X137776568Y-74523357D01*
X137645386Y-74296143D01*
X137481805Y-74091019D01*
X137481804Y-74091018D01*
X137481801Y-74091014D01*
X137289479Y-73912567D01*
X137260116Y-73892548D01*
X137252642Y-73887452D01*
X137208342Y-73833425D01*
X137200283Y-73764021D01*
X137231026Y-73701279D01*
X137252643Y-73682547D01*
X137289479Y-73657433D01*
X137481805Y-73478981D01*
X137645386Y-73273857D01*
X137776568Y-73046643D01*
X137872420Y-72802416D01*
X137930802Y-72546630D01*
X137930808Y-72546550D01*
X137950408Y-72285004D01*
X137950408Y-72284995D01*
X137930803Y-72023379D01*
X137930802Y-72023374D01*
X137930802Y-72023370D01*
X137872420Y-71767584D01*
X137776568Y-71523357D01*
X137645386Y-71296143D01*
X137481805Y-71091019D01*
X137481803Y-71091017D01*
X137481563Y-71090716D01*
X137455154Y-71026029D01*
X137467911Y-70957334D01*
X137515781Y-70906440D01*
X137578510Y-70889403D01*
X139101594Y-70889403D01*
X139168633Y-70909088D01*
X139189275Y-70925722D01*
X139870974Y-71607421D01*
X139839742Y-71620359D01*
X139716903Y-71702437D01*
X139612437Y-71806903D01*
X139530359Y-71929742D01*
X139517422Y-71960974D01*
X138792874Y-71236427D01*
X138745028Y-71296425D01*
X138613883Y-71523573D01*
X138518058Y-71767729D01*
X138459693Y-72023449D01*
X138459692Y-72023454D01*
X138440093Y-72284995D01*
X138440093Y-72285004D01*
X138459692Y-72546545D01*
X138459693Y-72546550D01*
X138518058Y-72802270D01*
X138613883Y-73046426D01*
X138613882Y-73046426D01*
X138745027Y-73273573D01*
X138792874Y-73333571D01*
X139517421Y-72609024D01*
X139530359Y-72640258D01*
X139612437Y-72763097D01*
X139716903Y-72867563D01*
X139839742Y-72949641D01*
X139870974Y-72962577D01*
X139145830Y-73687720D01*
X139146287Y-73692598D01*
X139182099Y-73736271D01*
X139190159Y-73805674D01*
X139159417Y-73868417D01*
X139137799Y-73887149D01*
X139100534Y-73912556D01*
X139100524Y-73912564D01*
X138908198Y-74091014D01*
X138744614Y-74296143D01*
X138613432Y-74523356D01*
X138517582Y-74767578D01*
X138517576Y-74767597D01*
X138459197Y-75023374D01*
X138459196Y-75023379D01*
X138439592Y-75284995D01*
X138439592Y-75285004D01*
X138459196Y-75546620D01*
X138459197Y-75546625D01*
X138517576Y-75802402D01*
X138517578Y-75802411D01*
X138517580Y-75802416D01*
X138613432Y-76046643D01*
X138744614Y-76273857D01*
X138837232Y-76389996D01*
X138908198Y-76478985D01*
X139045915Y-76606766D01*
X139100521Y-76657433D01*
X139317296Y-76805228D01*
X139317301Y-76805230D01*
X139317302Y-76805231D01*
X139317303Y-76805232D01*
X139438631Y-76863660D01*
X139553673Y-76919061D01*
X139553674Y-76919061D01*
X139553677Y-76919063D01*
X139804385Y-76996396D01*
X140063818Y-77035500D01*
X140326182Y-77035500D01*
X140585615Y-76996396D01*
X140836323Y-76919063D01*
X141072704Y-76805228D01*
X141289479Y-76657433D01*
X141481805Y-76478981D01*
X141645386Y-76273857D01*
X141776568Y-76046643D01*
X141872420Y-75802416D01*
X141930802Y-75546630D01*
X141950408Y-75285000D01*
X141936697Y-75102041D01*
X141930803Y-75023379D01*
X141930802Y-75023374D01*
X141930802Y-75023370D01*
X141872420Y-74767584D01*
X141776568Y-74523357D01*
X141645386Y-74296143D01*
X141481805Y-74091019D01*
X141481804Y-74091018D01*
X141481801Y-74091014D01*
X141357890Y-73976042D01*
X141289479Y-73912567D01*
X141260117Y-73892548D01*
X141252200Y-73887150D01*
X141207898Y-73833121D01*
X141199840Y-73763718D01*
X141230583Y-73700975D01*
X141244017Y-73689334D01*
X141244168Y-73687720D01*
X140519025Y-72962578D01*
X140550258Y-72949641D01*
X140673097Y-72867563D01*
X140777563Y-72763097D01*
X140859641Y-72640258D01*
X140872578Y-72609025D01*
X141597125Y-73333572D01*
X141644971Y-73273573D01*
X141776116Y-73046426D01*
X141871941Y-72802270D01*
X141930306Y-72546550D01*
X141930307Y-72546545D01*
X141949907Y-72285004D01*
X141949907Y-72284995D01*
X141930307Y-72023454D01*
X141930306Y-72023449D01*
X141871941Y-71767729D01*
X141776116Y-71523573D01*
X141776117Y-71523573D01*
X141644972Y-71296426D01*
X141597124Y-71236427D01*
X140872577Y-71960973D01*
X140859641Y-71929742D01*
X140777563Y-71806903D01*
X140673097Y-71702437D01*
X140550258Y-71620359D01*
X140519025Y-71607421D01*
X141200725Y-70925722D01*
X141262048Y-70892237D01*
X141288406Y-70889403D01*
X142811490Y-70889403D01*
X142878529Y-70909088D01*
X142924284Y-70961892D01*
X142934228Y-71031050D01*
X142908437Y-71090716D01*
X142908196Y-71091017D01*
X142908195Y-71091019D01*
X142853355Y-71159786D01*
X142744614Y-71296143D01*
X142613432Y-71523356D01*
X142517582Y-71767578D01*
X142517576Y-71767597D01*
X142459197Y-72023374D01*
X142459196Y-72023379D01*
X142439592Y-72284995D01*
X142439592Y-72285004D01*
X142459196Y-72546620D01*
X142459197Y-72546625D01*
X142517576Y-72802402D01*
X142517578Y-72802411D01*
X142517580Y-72802416D01*
X142613432Y-73046643D01*
X142744614Y-73273857D01*
X142863350Y-73422747D01*
X142908198Y-73478985D01*
X142951283Y-73518961D01*
X143100521Y-73657433D01*
X143127038Y-73675512D01*
X143137356Y-73682547D01*
X143181657Y-73736577D01*
X143189715Y-73805980D01*
X143158972Y-73868722D01*
X143137356Y-73887453D01*
X143100522Y-73912566D01*
X142908198Y-74091014D01*
X142744614Y-74296143D01*
X142613432Y-74523356D01*
X142517582Y-74767578D01*
X142517576Y-74767597D01*
X142459197Y-75023374D01*
X142459196Y-75023379D01*
X142439592Y-75284995D01*
X142439592Y-75285004D01*
X142459196Y-75546620D01*
X142459197Y-75546625D01*
X142517576Y-75802402D01*
X142517578Y-75802411D01*
X142517580Y-75802416D01*
X142613432Y-76046643D01*
X142744614Y-76273857D01*
X142837232Y-76389996D01*
X142908198Y-76478985D01*
X143045915Y-76606766D01*
X143100521Y-76657433D01*
X143317296Y-76805228D01*
X143317301Y-76805230D01*
X143317302Y-76805231D01*
X143317303Y-76805232D01*
X143438631Y-76863660D01*
X143553673Y-76919061D01*
X143553674Y-76919061D01*
X143553677Y-76919063D01*
X143804385Y-76996396D01*
X144063818Y-77035500D01*
X144326182Y-77035500D01*
X144585615Y-76996396D01*
X144836323Y-76919063D01*
X145072704Y-76805228D01*
X145289479Y-76657433D01*
X145481805Y-76478981D01*
X145645386Y-76273857D01*
X145776568Y-76046643D01*
X145872420Y-75802416D01*
X145930802Y-75546630D01*
X145950408Y-75285000D01*
X145936697Y-75102041D01*
X145930803Y-75023379D01*
X145930802Y-75023374D01*
X145930802Y-75023370D01*
X145872420Y-74767584D01*
X145776568Y-74523357D01*
X145645386Y-74296143D01*
X145481805Y-74091019D01*
X145481804Y-74091018D01*
X145481801Y-74091014D01*
X145289479Y-73912567D01*
X145260116Y-73892548D01*
X145252642Y-73887452D01*
X145208342Y-73833425D01*
X145200283Y-73764021D01*
X145231026Y-73701279D01*
X145252643Y-73682547D01*
X145289479Y-73657433D01*
X145481805Y-73478981D01*
X145645386Y-73273857D01*
X145776568Y-73046643D01*
X145872420Y-72802416D01*
X145930802Y-72546630D01*
X145930808Y-72546550D01*
X145950408Y-72285004D01*
X145950408Y-72284995D01*
X145930803Y-72023379D01*
X145930802Y-72023374D01*
X145930802Y-72023370D01*
X145872420Y-71767584D01*
X145776568Y-71523357D01*
X145645386Y-71296143D01*
X145481805Y-71091019D01*
X145481803Y-71091017D01*
X145481563Y-71090716D01*
X145455154Y-71026029D01*
X145467911Y-70957334D01*
X145515781Y-70906440D01*
X145578510Y-70889403D01*
X146811490Y-70889403D01*
X146878529Y-70909088D01*
X146924284Y-70961892D01*
X146934228Y-71031050D01*
X146908437Y-71090716D01*
X146908196Y-71091017D01*
X146908195Y-71091019D01*
X146853355Y-71159786D01*
X146744614Y-71296143D01*
X146613432Y-71523356D01*
X146517582Y-71767578D01*
X146517576Y-71767597D01*
X146459197Y-72023374D01*
X146459196Y-72023379D01*
X146439592Y-72284995D01*
X146439592Y-72285004D01*
X146459196Y-72546620D01*
X146459197Y-72546625D01*
X146517576Y-72802402D01*
X146517578Y-72802411D01*
X146517580Y-72802416D01*
X146613432Y-73046643D01*
X146744614Y-73273857D01*
X146863350Y-73422747D01*
X146908198Y-73478985D01*
X146951283Y-73518961D01*
X147100521Y-73657433D01*
X147127038Y-73675512D01*
X147137356Y-73682547D01*
X147181657Y-73736577D01*
X147189715Y-73805980D01*
X147158972Y-73868722D01*
X147137356Y-73887453D01*
X147100522Y-73912566D01*
X146908198Y-74091014D01*
X146744614Y-74296143D01*
X146613432Y-74523356D01*
X146517582Y-74767578D01*
X146517576Y-74767597D01*
X146459197Y-75023374D01*
X146459196Y-75023379D01*
X146439592Y-75284995D01*
X146439592Y-75285004D01*
X146459196Y-75546620D01*
X146459197Y-75546625D01*
X146517576Y-75802402D01*
X146517578Y-75802411D01*
X146517580Y-75802416D01*
X146613432Y-76046643D01*
X146744614Y-76273857D01*
X146837232Y-76389996D01*
X146908198Y-76478985D01*
X147045915Y-76606766D01*
X147100521Y-76657433D01*
X147317296Y-76805228D01*
X147317301Y-76805230D01*
X147317302Y-76805231D01*
X147317303Y-76805232D01*
X147438631Y-76863660D01*
X147553673Y-76919061D01*
X147553674Y-76919061D01*
X147553677Y-76919063D01*
X147804385Y-76996396D01*
X148063818Y-77035500D01*
X148326182Y-77035500D01*
X148585615Y-76996396D01*
X148836323Y-76919063D01*
X149072704Y-76805228D01*
X149289479Y-76657433D01*
X149481805Y-76478981D01*
X149645386Y-76273857D01*
X149776568Y-76046643D01*
X149872420Y-75802416D01*
X149930802Y-75546630D01*
X149950408Y-75285000D01*
X149936697Y-75102041D01*
X149930803Y-75023379D01*
X149930802Y-75023374D01*
X149930802Y-75023370D01*
X149872420Y-74767584D01*
X149776568Y-74523357D01*
X149645386Y-74296143D01*
X149481805Y-74091019D01*
X149481804Y-74091018D01*
X149481801Y-74091014D01*
X149289479Y-73912567D01*
X149260116Y-73892548D01*
X149252642Y-73887452D01*
X149208342Y-73833425D01*
X149200283Y-73764021D01*
X149231026Y-73701279D01*
X149252643Y-73682547D01*
X149289479Y-73657433D01*
X149481805Y-73478981D01*
X149645386Y-73273857D01*
X149776568Y-73046643D01*
X149872420Y-72802416D01*
X149930802Y-72546630D01*
X149930808Y-72546550D01*
X149950408Y-72285004D01*
X149950408Y-72284995D01*
X149930803Y-72023379D01*
X149930802Y-72023374D01*
X149930802Y-72023370D01*
X149872420Y-71767584D01*
X149776568Y-71523357D01*
X149645386Y-71296143D01*
X149481805Y-71091019D01*
X149481803Y-71091017D01*
X149481563Y-71090716D01*
X149455154Y-71026029D01*
X149467911Y-70957334D01*
X149515781Y-70906440D01*
X149578510Y-70889403D01*
X150320500Y-70889403D01*
X150387539Y-70909088D01*
X150433294Y-70961892D01*
X150444500Y-71013403D01*
X150444500Y-73582870D01*
X150444501Y-73582876D01*
X150450908Y-73642483D01*
X150501202Y-73777328D01*
X150501206Y-73777335D01*
X150587452Y-73892544D01*
X150587455Y-73892547D01*
X150702664Y-73978793D01*
X150702673Y-73978798D01*
X150749634Y-73996313D01*
X150769800Y-74003834D01*
X150825734Y-74045704D01*
X150850152Y-74111168D01*
X150835301Y-74179441D01*
X150823415Y-74197328D01*
X150744616Y-74296139D01*
X150613432Y-74523356D01*
X150517582Y-74767578D01*
X150517576Y-74767597D01*
X150459197Y-75023374D01*
X150459196Y-75023379D01*
X150439592Y-75284995D01*
X150439592Y-75285004D01*
X150459196Y-75546620D01*
X150459197Y-75546625D01*
X150517576Y-75802402D01*
X150517578Y-75802411D01*
X150517580Y-75802416D01*
X150613432Y-76046643D01*
X150744614Y-76273857D01*
X150837232Y-76389996D01*
X150908198Y-76478985D01*
X151045915Y-76606766D01*
X151100521Y-76657433D01*
X151317296Y-76805228D01*
X151317301Y-76805230D01*
X151317302Y-76805231D01*
X151317303Y-76805232D01*
X151438631Y-76863660D01*
X151553673Y-76919061D01*
X151553674Y-76919061D01*
X151553677Y-76919063D01*
X151804385Y-76996396D01*
X152063818Y-77035500D01*
X152326182Y-77035500D01*
X152585615Y-76996396D01*
X152836323Y-76919063D01*
X153072704Y-76805228D01*
X153289479Y-76657433D01*
X153481805Y-76478981D01*
X153645386Y-76273857D01*
X153776568Y-76046643D01*
X153872420Y-75802416D01*
X153930802Y-75546630D01*
X153950408Y-75285000D01*
X153936697Y-75102041D01*
X153930803Y-75023379D01*
X153930802Y-75023374D01*
X153930802Y-75023370D01*
X153872420Y-74767584D01*
X153776568Y-74523357D01*
X153645386Y-74296143D01*
X153566583Y-74197327D01*
X153540176Y-74132642D01*
X153552932Y-74063947D01*
X153600802Y-74013053D01*
X153620188Y-74003838D01*
X153687331Y-73978796D01*
X153802546Y-73892546D01*
X153877859Y-73791940D01*
X153933790Y-73750072D01*
X154003481Y-73745088D01*
X154064804Y-73778573D01*
X154098289Y-73839896D01*
X154100897Y-73858767D01*
X154119786Y-74171038D01*
X154178667Y-74492341D01*
X154275835Y-74804164D01*
X154275839Y-74804175D01*
X154409897Y-75102041D01*
X154409898Y-75102043D01*
X154578881Y-75381576D01*
X154726476Y-75569968D01*
X155868708Y-74427736D01*
X155965967Y-74561602D01*
X156088398Y-74684033D01*
X156222262Y-74781290D01*
X155080030Y-75923522D01*
X155080030Y-75923523D01*
X155268423Y-76071118D01*
X155547956Y-76240101D01*
X155547958Y-76240102D01*
X155845824Y-76374160D01*
X155845835Y-76374164D01*
X156157658Y-76471332D01*
X156478961Y-76530213D01*
X156804999Y-76549934D01*
X156935580Y-76542036D01*
X157003686Y-76557637D01*
X157051747Y-76606766D01*
X157068859Y-76569297D01*
X157127637Y-76531523D01*
X157140220Y-76528531D01*
X157452341Y-76471332D01*
X157764164Y-76374164D01*
X157764175Y-76374160D01*
X158062041Y-76240102D01*
X158062043Y-76240101D01*
X158341586Y-76071112D01*
X158529968Y-75923523D01*
X158529968Y-75923522D01*
X157387737Y-74781290D01*
X157521602Y-74684033D01*
X157644033Y-74561602D01*
X157741290Y-74427737D01*
X158883522Y-75569968D01*
X158883523Y-75569968D01*
X159031112Y-75381586D01*
X159200101Y-75102043D01*
X159200102Y-75102041D01*
X159334160Y-74804175D01*
X159334164Y-74804164D01*
X159431332Y-74492341D01*
X159490213Y-74171038D01*
X159509934Y-73845000D01*
X159490213Y-73518961D01*
X159431332Y-73197658D01*
X159334164Y-72885835D01*
X159334160Y-72885824D01*
X159200102Y-72587958D01*
X159200101Y-72587956D01*
X159031118Y-72308423D01*
X158883522Y-72120030D01*
X157741290Y-73262261D01*
X157644033Y-73128398D01*
X157521602Y-73005967D01*
X157387736Y-72908709D01*
X158529968Y-71766476D01*
X158341576Y-71618881D01*
X158062043Y-71449898D01*
X158062041Y-71449897D01*
X157764175Y-71315839D01*
X157764164Y-71315835D01*
X157452341Y-71218667D01*
X157131038Y-71159786D01*
X156805000Y-71140065D01*
X156478961Y-71159786D01*
X156157658Y-71218667D01*
X155845835Y-71315835D01*
X155845824Y-71315839D01*
X155547958Y-71449897D01*
X155547956Y-71449898D01*
X155268422Y-71618881D01*
X155268416Y-71618886D01*
X155080030Y-71766474D01*
X155080029Y-71766476D01*
X156222262Y-72908709D01*
X156088398Y-73005967D01*
X155965967Y-73128398D01*
X155868709Y-73262262D01*
X154726476Y-72120029D01*
X154726474Y-72120030D01*
X154578886Y-72308416D01*
X154578881Y-72308422D01*
X154409898Y-72587956D01*
X154409897Y-72587958D01*
X154275839Y-72885824D01*
X154275836Y-72885831D01*
X154187884Y-73168079D01*
X154149146Y-73226226D01*
X154085121Y-73254200D01*
X154016136Y-73243118D01*
X153964093Y-73196499D01*
X153945499Y-73131190D01*
X153945499Y-71013402D01*
X153965184Y-70946364D01*
X154017988Y-70900609D01*
X154069499Y-70889403D01*
X158088668Y-70889403D01*
X158097524Y-70889720D01*
X158119880Y-70891320D01*
X158326031Y-70906083D01*
X158343526Y-70908599D01*
X158563290Y-70956422D01*
X158580254Y-70961404D01*
X158790971Y-71040012D01*
X158807048Y-71047355D01*
X159004442Y-71155149D01*
X159019318Y-71164710D01*
X159135852Y-71251951D01*
X159199349Y-71299487D01*
X159212717Y-71311070D01*
X159371750Y-71470104D01*
X159383323Y-71483462D01*
X159518107Y-71663509D01*
X159527665Y-71678381D01*
X159613911Y-71836320D01*
X159635451Y-71875766D01*
X159642800Y-71891857D01*
X159721399Y-72102565D01*
X159726384Y-72119538D01*
X159774203Y-72339295D01*
X159776721Y-72356805D01*
X159793128Y-72585978D01*
X159793445Y-72594833D01*
X159793445Y-94664137D01*
X159773760Y-94731176D01*
X159720956Y-94776931D01*
X159651798Y-94786875D01*
X159588242Y-94757850D01*
X159581764Y-94751818D01*
X158994822Y-94164876D01*
X158961337Y-94103553D01*
X158962728Y-94045101D01*
X158968114Y-94025000D01*
X158980063Y-93980408D01*
X159000659Y-93745000D01*
X158980063Y-93509592D01*
X158918903Y-93281337D01*
X158819035Y-93067171D01*
X158806862Y-93049785D01*
X158683494Y-92873597D01*
X158516402Y-92706506D01*
X158516396Y-92706501D01*
X158330842Y-92576575D01*
X158287217Y-92521998D01*
X158280023Y-92452500D01*
X158311546Y-92390145D01*
X158330842Y-92373425D01*
X158375653Y-92342048D01*
X158516401Y-92243495D01*
X158683495Y-92076401D01*
X158819035Y-91882830D01*
X158918903Y-91668663D01*
X158980063Y-91440408D01*
X159000659Y-91205000D01*
X158980063Y-90969592D01*
X158918903Y-90741337D01*
X158819035Y-90527171D01*
X158786007Y-90480001D01*
X158683494Y-90333597D01*
X158516402Y-90166506D01*
X158516396Y-90166501D01*
X158330842Y-90036575D01*
X158287217Y-89981998D01*
X158280023Y-89912500D01*
X158311546Y-89850145D01*
X158330842Y-89833425D01*
X158406658Y-89780338D01*
X158516401Y-89703495D01*
X158683495Y-89536401D01*
X158819035Y-89342830D01*
X158918903Y-89128663D01*
X158980063Y-88900408D01*
X159000659Y-88665000D01*
X158980063Y-88429592D01*
X158927317Y-88232738D01*
X158918905Y-88201344D01*
X158918904Y-88201343D01*
X158918903Y-88201337D01*
X158819035Y-87987171D01*
X158740492Y-87875000D01*
X158683496Y-87793600D01*
X158643537Y-87753641D01*
X158561567Y-87671671D01*
X158528084Y-87610351D01*
X158533068Y-87540659D01*
X158574939Y-87484725D01*
X158605915Y-87467810D01*
X158737331Y-87418796D01*
X158852546Y-87332546D01*
X158938796Y-87217331D01*
X158989091Y-87082483D01*
X158995500Y-87022873D01*
X158995499Y-85227128D01*
X158989091Y-85167517D01*
X158970509Y-85117697D01*
X158938797Y-85032671D01*
X158938793Y-85032664D01*
X158852547Y-84917455D01*
X158852544Y-84917452D01*
X158737335Y-84831206D01*
X158737328Y-84831202D01*
X158602482Y-84780908D01*
X158602483Y-84780908D01*
X158542883Y-84774501D01*
X158542881Y-84774500D01*
X158542873Y-84774500D01*
X158542864Y-84774500D01*
X156747129Y-84774500D01*
X156747123Y-84774501D01*
X156687516Y-84780908D01*
X156552671Y-84831202D01*
X156552664Y-84831206D01*
X156437455Y-84917452D01*
X156437452Y-84917455D01*
X156351206Y-85032664D01*
X156351202Y-85032671D01*
X156300908Y-85167517D01*
X156294501Y-85227116D01*
X156294501Y-85227123D01*
X156294500Y-85227135D01*
X156294500Y-87022870D01*
X156294501Y-87022876D01*
X156300908Y-87082483D01*
X156351202Y-87217328D01*
X156351206Y-87217335D01*
X156437452Y-87332544D01*
X156437455Y-87332547D01*
X156552664Y-87418793D01*
X156552671Y-87418797D01*
X156684081Y-87467810D01*
X156740015Y-87509681D01*
X156764432Y-87575145D01*
X156749580Y-87643418D01*
X156728430Y-87671673D01*
X156606503Y-87793600D01*
X156470965Y-87987169D01*
X156470964Y-87987171D01*
X156371098Y-88201335D01*
X156371094Y-88201344D01*
X156309938Y-88429586D01*
X156309936Y-88429596D01*
X156289341Y-88664999D01*
X156289341Y-88665000D01*
X156309936Y-88900403D01*
X156309938Y-88900413D01*
X156371094Y-89128655D01*
X156371096Y-89128659D01*
X156371097Y-89128663D01*
X156464749Y-89329500D01*
X156470965Y-89342830D01*
X156470967Y-89342834D01*
X156531605Y-89429433D01*
X156584866Y-89505498D01*
X156606501Y-89536395D01*
X156606506Y-89536402D01*
X156773597Y-89703493D01*
X156773603Y-89703498D01*
X156959158Y-89833425D01*
X157002783Y-89888002D01*
X157009977Y-89957500D01*
X156978454Y-90019855D01*
X156959158Y-90036575D01*
X156773597Y-90166505D01*
X156606505Y-90333597D01*
X156470965Y-90527169D01*
X156470964Y-90527171D01*
X156371098Y-90741335D01*
X156371094Y-90741344D01*
X156309938Y-90969586D01*
X156309936Y-90969596D01*
X156289341Y-91204999D01*
X156289341Y-91205000D01*
X156309936Y-91440403D01*
X156309938Y-91440413D01*
X156327271Y-91505101D01*
X156325608Y-91574951D01*
X156295177Y-91624875D01*
X155389722Y-92530331D01*
X155389720Y-92530333D01*
X155363550Y-92569503D01*
X155363548Y-92569506D01*
X155318534Y-92636873D01*
X155269499Y-92755255D01*
X155269497Y-92755261D01*
X155244500Y-92880928D01*
X155244500Y-98686000D01*
X155224815Y-98753039D01*
X155172011Y-98798794D01*
X155139031Y-98805968D01*
X155135000Y-98810000D01*
X155135000Y-101310000D01*
X155141027Y-101316027D01*
X155187539Y-101329685D01*
X155233294Y-101382489D01*
X155244500Y-101434000D01*
X155244500Y-102384192D01*
X155224815Y-102451231D01*
X155208181Y-102471873D01*
X151661873Y-106018181D01*
X151600550Y-106051666D01*
X151574192Y-106054500D01*
X148024808Y-106054500D01*
X147957769Y-106034815D01*
X147912014Y-105982011D01*
X147902070Y-105912853D01*
X147931095Y-105849297D01*
X147937127Y-105842819D01*
X149320272Y-104459674D01*
X149320277Y-104459669D01*
X149391466Y-104353126D01*
X149423720Y-104275256D01*
X149440501Y-104234744D01*
X149458840Y-104142551D01*
X149465500Y-104109071D01*
X149465500Y-102291197D01*
X149485185Y-102224158D01*
X149497352Y-102208223D01*
X149506859Y-102197665D01*
X149596250Y-102042835D01*
X149651497Y-101872803D01*
X149670185Y-101695000D01*
X149651497Y-101517197D01*
X149637077Y-101472817D01*
X149635082Y-101402976D01*
X149671162Y-101343143D01*
X149733863Y-101312315D01*
X149755008Y-101310499D01*
X150302871Y-101310499D01*
X150302872Y-101310499D01*
X150362483Y-101304091D01*
X150396667Y-101291340D01*
X150466358Y-101286357D01*
X150483327Y-101291338D01*
X150517517Y-101304091D01*
X150577127Y-101310500D01*
X151572872Y-101310499D01*
X151632483Y-101304091D01*
X151666667Y-101291340D01*
X151736358Y-101286357D01*
X151753327Y-101291338D01*
X151787517Y-101304091D01*
X151847127Y-101310500D01*
X152842872Y-101310499D01*
X152902483Y-101304091D01*
X152936667Y-101291340D01*
X153006358Y-101286357D01*
X153023327Y-101291338D01*
X153057517Y-101304091D01*
X153117127Y-101310500D01*
X154112872Y-101310499D01*
X154172483Y-101304091D01*
X154207381Y-101291074D01*
X154277069Y-101286089D01*
X154294050Y-101291075D01*
X154327623Y-101303598D01*
X154387155Y-101309999D01*
X154387172Y-101310000D01*
X154635000Y-101310000D01*
X154635000Y-98810000D01*
X154387155Y-98810000D01*
X154327627Y-98816401D01*
X154327619Y-98816403D01*
X154294047Y-98828925D01*
X154224355Y-98833909D01*
X154207381Y-98828925D01*
X154172482Y-98815908D01*
X154172483Y-98815908D01*
X154112883Y-98809501D01*
X154112881Y-98809500D01*
X154112873Y-98809500D01*
X154112864Y-98809500D01*
X153117129Y-98809500D01*
X153117123Y-98809501D01*
X153057518Y-98815908D01*
X153023331Y-98828659D01*
X152953639Y-98833642D01*
X152936669Y-98828659D01*
X152917133Y-98821373D01*
X152902483Y-98815909D01*
X152902482Y-98815908D01*
X152842883Y-98809501D01*
X152842881Y-98809500D01*
X152842873Y-98809500D01*
X152842864Y-98809500D01*
X151847129Y-98809500D01*
X151847123Y-98809501D01*
X151787518Y-98815908D01*
X151753331Y-98828659D01*
X151683639Y-98833642D01*
X151666669Y-98828659D01*
X151647133Y-98821373D01*
X151632483Y-98815909D01*
X151632482Y-98815908D01*
X151632483Y-98815908D01*
X151578270Y-98810080D01*
X151513719Y-98783342D01*
X151473871Y-98725949D01*
X151468206Y-98673826D01*
X151470185Y-98655002D01*
X151468188Y-98635998D01*
X151451497Y-98477197D01*
X151414843Y-98364388D01*
X151396252Y-98307170D01*
X151396249Y-98307164D01*
X151387362Y-98291772D01*
X151329469Y-98191498D01*
X151312997Y-98123599D01*
X151335850Y-98057572D01*
X151390771Y-98014381D01*
X151436857Y-98005499D01*
X153162871Y-98005499D01*
X153162872Y-98005499D01*
X153222483Y-97999091D01*
X153357331Y-97948796D01*
X153472546Y-97862546D01*
X153558796Y-97747331D01*
X153609091Y-97612483D01*
X153615500Y-97552873D01*
X153615499Y-92957128D01*
X153609091Y-92897517D01*
X153600170Y-92873599D01*
X153558797Y-92762671D01*
X153558793Y-92762664D01*
X153472547Y-92647455D01*
X153472544Y-92647452D01*
X153357335Y-92561206D01*
X153357328Y-92561202D01*
X153222482Y-92510908D01*
X153222483Y-92510908D01*
X153162883Y-92504501D01*
X153162881Y-92504500D01*
X153162873Y-92504500D01*
X153162865Y-92504500D01*
X152889500Y-92504500D01*
X152822461Y-92484815D01*
X152776706Y-92432011D01*
X152765500Y-92380500D01*
X152765500Y-91490092D01*
X152785185Y-91423053D01*
X152795381Y-91409699D01*
X152796855Y-91407669D01*
X152796859Y-91407665D01*
X152886250Y-91252835D01*
X152941497Y-91082803D01*
X152960185Y-90905000D01*
X152941497Y-90727197D01*
X152911188Y-90633917D01*
X152886252Y-90557170D01*
X152886249Y-90557164D01*
X152868933Y-90527171D01*
X152796859Y-90402335D01*
X152734967Y-90333597D01*
X152677235Y-90269478D01*
X152677232Y-90269476D01*
X152677231Y-90269475D01*
X152677230Y-90269474D01*
X152532593Y-90164388D01*
X152369267Y-90091671D01*
X152369265Y-90091670D01*
X152241594Y-90064533D01*
X152194391Y-90054500D01*
X152015609Y-90054500D01*
X151984954Y-90061015D01*
X151840733Y-90091670D01*
X151840728Y-90091672D01*
X151677408Y-90164387D01*
X151532768Y-90269475D01*
X151413140Y-90402336D01*
X151323750Y-90557164D01*
X151323747Y-90557170D01*
X151268504Y-90727192D01*
X151268503Y-90727194D01*
X151249815Y-90905000D01*
X151268503Y-91082805D01*
X151268504Y-91082807D01*
X151323747Y-91252829D01*
X151323750Y-91252835D01*
X151413141Y-91407665D01*
X151432650Y-91429332D01*
X151462879Y-91492320D01*
X151464500Y-91512303D01*
X151464500Y-92380500D01*
X151444815Y-92447539D01*
X151392011Y-92493294D01*
X151340500Y-92504500D01*
X151067130Y-92504500D01*
X151067123Y-92504501D01*
X151007516Y-92510908D01*
X150872671Y-92561202D01*
X150872664Y-92561206D01*
X150757455Y-92647452D01*
X150757452Y-92647455D01*
X150671206Y-92762664D01*
X150671202Y-92762671D01*
X150620908Y-92897517D01*
X150617685Y-92927500D01*
X150614501Y-92957123D01*
X150614500Y-92957135D01*
X150614500Y-94480500D01*
X150594815Y-94547539D01*
X150542011Y-94593294D01*
X150490500Y-94604500D01*
X149559470Y-94604500D01*
X149492431Y-94584815D01*
X149453931Y-94545597D01*
X149449781Y-94538868D01*
X149392712Y-94446344D01*
X149268656Y-94322288D01*
X149265342Y-94320243D01*
X149263546Y-94318248D01*
X149262989Y-94317807D01*
X149263064Y-94317711D01*
X149218618Y-94268297D01*
X149207397Y-94199334D01*
X149235240Y-94135252D01*
X149265348Y-94109165D01*
X149268342Y-94107318D01*
X149392315Y-93983345D01*
X149484356Y-93834124D01*
X149484358Y-93834119D01*
X149539505Y-93667697D01*
X149539506Y-93667690D01*
X149549999Y-93564986D01*
X149550000Y-93564973D01*
X149550000Y-93427500D01*
X147100001Y-93427500D01*
X147100001Y-93564986D01*
X147110494Y-93667697D01*
X147165641Y-93834119D01*
X147165643Y-93834124D01*
X147257684Y-93983345D01*
X147381655Y-94107316D01*
X147381659Y-94107319D01*
X147384656Y-94109168D01*
X147386279Y-94110972D01*
X147387323Y-94111798D01*
X147387181Y-94111976D01*
X147431381Y-94161116D01*
X147442602Y-94230079D01*
X147414759Y-94294161D01*
X147384661Y-94320241D01*
X147381349Y-94322283D01*
X147381343Y-94322288D01*
X147257289Y-94446342D01*
X147165187Y-94595663D01*
X147165185Y-94595668D01*
X147158315Y-94616401D01*
X147110001Y-94762203D01*
X147110001Y-94762204D01*
X147110000Y-94762204D01*
X147099500Y-94864983D01*
X147099500Y-95640001D01*
X147099501Y-95640019D01*
X147110000Y-95742796D01*
X147110001Y-95742799D01*
X147142363Y-95840459D01*
X147165186Y-95909334D01*
X147257288Y-96058656D01*
X147381344Y-96182712D01*
X147530666Y-96274814D01*
X147697203Y-96329999D01*
X147799991Y-96340500D01*
X148850008Y-96340499D01*
X148850016Y-96340498D01*
X148850019Y-96340498D01*
X148943340Y-96330965D01*
X148952797Y-96329999D01*
X149119334Y-96274814D01*
X149268656Y-96182712D01*
X149392712Y-96058656D01*
X149450847Y-95964402D01*
X149502795Y-95917679D01*
X149556386Y-95905500D01*
X150490501Y-95905500D01*
X150557540Y-95925185D01*
X150603295Y-95977989D01*
X150614501Y-96029500D01*
X150614501Y-97435192D01*
X150594816Y-97502231D01*
X150542012Y-97547986D01*
X150472854Y-97557930D01*
X150409298Y-97528905D01*
X150402820Y-97522873D01*
X150389673Y-97509726D01*
X150389669Y-97509723D01*
X150283127Y-97438535D01*
X150275056Y-97435192D01*
X150164744Y-97389499D01*
X150164738Y-97389497D01*
X150039071Y-97364500D01*
X150039069Y-97364500D01*
X146775808Y-97364500D01*
X146708769Y-97344815D01*
X146688127Y-97328181D01*
X145109674Y-95749727D01*
X145109673Y-95749726D01*
X145099303Y-95742797D01*
X145003127Y-95678535D01*
X144967587Y-95663814D01*
X144884744Y-95629499D01*
X144884739Y-95629497D01*
X144785306Y-95609718D01*
X144723396Y-95577332D01*
X144688822Y-95516616D01*
X144685499Y-95488101D01*
X144685499Y-95457129D01*
X144685498Y-95457123D01*
X144685497Y-95457116D01*
X144679091Y-95397517D01*
X144666433Y-95363580D01*
X144628797Y-95262671D01*
X144628793Y-95262664D01*
X144542547Y-95147455D01*
X144542544Y-95147452D01*
X144427335Y-95061206D01*
X144427328Y-95061202D01*
X144292482Y-95010908D01*
X144292483Y-95010908D01*
X144232883Y-95004501D01*
X144232881Y-95004500D01*
X144232873Y-95004500D01*
X144232864Y-95004500D01*
X142637129Y-95004500D01*
X142637123Y-95004501D01*
X142577516Y-95010908D01*
X142442671Y-95061202D01*
X142442664Y-95061206D01*
X142327455Y-95147452D01*
X142327452Y-95147455D01*
X142241206Y-95262664D01*
X142241202Y-95262671D01*
X142190908Y-95397517D01*
X142185709Y-95445883D01*
X142184501Y-95457123D01*
X142184500Y-95457135D01*
X142184500Y-97052870D01*
X142184501Y-97052876D01*
X142190908Y-97112483D01*
X142241202Y-97247328D01*
X142241206Y-97247335D01*
X142327452Y-97362544D01*
X142327455Y-97362547D01*
X142442664Y-97448793D01*
X142442671Y-97448797D01*
X142577517Y-97499091D01*
X142577516Y-97499091D01*
X142584444Y-97499835D01*
X142637127Y-97505500D01*
X144232872Y-97505499D01*
X144292483Y-97499091D01*
X144427331Y-97448796D01*
X144542546Y-97362546D01*
X144602370Y-97282631D01*
X144658301Y-97240761D01*
X144727993Y-97235777D01*
X144789316Y-97269262D01*
X146040325Y-98520272D01*
X146040328Y-98520275D01*
X146075079Y-98543495D01*
X146130127Y-98580276D01*
X146130128Y-98580277D01*
X146130127Y-98580277D01*
X146133292Y-98582391D01*
X146178103Y-98635998D01*
X146186817Y-98705323D01*
X146156669Y-98768353D01*
X146097230Y-98805078D01*
X146064412Y-98809500D01*
X145497129Y-98809500D01*
X145497123Y-98809501D01*
X145437518Y-98815908D01*
X145403331Y-98828659D01*
X145333639Y-98833642D01*
X145316669Y-98828659D01*
X145297133Y-98821373D01*
X145282483Y-98815909D01*
X145282482Y-98815908D01*
X145222883Y-98809501D01*
X145222881Y-98809500D01*
X145222873Y-98809500D01*
X145222864Y-98809500D01*
X144227129Y-98809500D01*
X144227123Y-98809501D01*
X144167518Y-98815908D01*
X144133331Y-98828659D01*
X144063639Y-98833642D01*
X144046669Y-98828659D01*
X144027133Y-98821373D01*
X144012483Y-98815909D01*
X144012482Y-98815908D01*
X143952883Y-98809501D01*
X143952881Y-98809500D01*
X143952873Y-98809500D01*
X143952864Y-98809500D01*
X142957129Y-98809500D01*
X142957123Y-98809501D01*
X142897516Y-98815908D01*
X142762671Y-98866202D01*
X142762664Y-98866206D01*
X142647455Y-98952452D01*
X142647452Y-98952455D01*
X142561206Y-99067664D01*
X142561202Y-99067671D01*
X142510909Y-99202515D01*
X142510612Y-99205279D01*
X142509783Y-99207278D01*
X142509126Y-99210062D01*
X142508674Y-99209955D01*
X142483869Y-99269828D01*
X142426473Y-99309672D01*
X142356648Y-99312161D01*
X142299642Y-99279696D01*
X139889674Y-96869727D01*
X139889673Y-96869726D01*
X139825981Y-96827169D01*
X139783127Y-96798535D01*
X139664744Y-96749499D01*
X139664742Y-96749498D01*
X139664735Y-96749496D01*
X139660546Y-96748663D01*
X139660542Y-96748663D01*
X139654658Y-96747492D01*
X139647991Y-96746166D01*
X139586080Y-96713784D01*
X139551504Y-96653069D01*
X139555242Y-96583299D01*
X139584497Y-96536869D01*
X139824548Y-96296818D01*
X139885871Y-96263334D01*
X139912229Y-96260500D01*
X140490990Y-96260500D01*
X140491000Y-96260500D01*
X140598456Y-96248947D01*
X140601743Y-96248232D01*
X140621491Y-96245573D01*
X140622871Y-96245499D01*
X140622872Y-96245499D01*
X140682483Y-96239091D01*
X140817331Y-96188796D01*
X140932546Y-96102546D01*
X140987228Y-96029500D01*
X141018792Y-95987337D01*
X141018792Y-95987335D01*
X141018796Y-95987331D01*
X141030859Y-95954986D01*
X141059353Y-95910646D01*
X141325000Y-95645000D01*
X141325000Y-92790013D01*
X147100000Y-92790013D01*
X147100000Y-92927500D01*
X148075000Y-92927500D01*
X148575000Y-92927500D01*
X149549999Y-92927500D01*
X149549999Y-92790028D01*
X149549998Y-92790013D01*
X149539505Y-92687302D01*
X149484358Y-92520880D01*
X149484356Y-92520875D01*
X149392315Y-92371654D01*
X149268345Y-92247684D01*
X149119124Y-92155643D01*
X149119119Y-92155641D01*
X148952697Y-92100494D01*
X148952690Y-92100493D01*
X148849986Y-92090000D01*
X148575000Y-92090000D01*
X148575000Y-92927500D01*
X148075000Y-92927500D01*
X148075000Y-92090000D01*
X147800029Y-92090000D01*
X147800012Y-92090001D01*
X147697302Y-92100494D01*
X147530880Y-92155641D01*
X147530875Y-92155643D01*
X147381654Y-92247684D01*
X147257684Y-92371654D01*
X147165643Y-92520875D01*
X147165641Y-92520880D01*
X147110494Y-92687302D01*
X147110493Y-92687309D01*
X147100000Y-92790013D01*
X141325000Y-92790013D01*
X141325000Y-89252844D01*
X142185000Y-89252844D01*
X142191401Y-89312372D01*
X142191403Y-89312379D01*
X142241645Y-89447086D01*
X142241649Y-89447093D01*
X142327809Y-89562187D01*
X142327812Y-89562190D01*
X142442906Y-89648350D01*
X142442913Y-89648354D01*
X142577620Y-89698596D01*
X142577627Y-89698598D01*
X142637155Y-89704999D01*
X142637172Y-89705000D01*
X143185000Y-89705000D01*
X143685000Y-89705000D01*
X144232828Y-89705000D01*
X144232844Y-89704999D01*
X144292372Y-89698598D01*
X144292379Y-89698596D01*
X144427086Y-89648354D01*
X144427093Y-89648350D01*
X144542187Y-89562190D01*
X144542190Y-89562187D01*
X144628350Y-89447093D01*
X144628354Y-89447086D01*
X144678596Y-89312379D01*
X144678598Y-89312372D01*
X144684999Y-89252844D01*
X144685000Y-89252827D01*
X144685000Y-88705000D01*
X143685000Y-88705000D01*
X143685000Y-89705000D01*
X143185000Y-89705000D01*
X143185000Y-88705000D01*
X142185000Y-88705000D01*
X142185000Y-89252844D01*
X141325000Y-89252844D01*
X141325000Y-87657155D01*
X142185000Y-87657155D01*
X142185000Y-88205000D01*
X143185000Y-88205000D01*
X143685000Y-88205000D01*
X144685000Y-88205000D01*
X144685000Y-87657172D01*
X144684999Y-87657155D01*
X144678598Y-87597627D01*
X144678596Y-87597620D01*
X144628354Y-87462913D01*
X144628350Y-87462906D01*
X144542190Y-87347812D01*
X144542187Y-87347809D01*
X144427093Y-87261649D01*
X144427086Y-87261645D01*
X144292379Y-87211403D01*
X144292372Y-87211401D01*
X144232844Y-87205000D01*
X143685000Y-87205000D01*
X143685000Y-88205000D01*
X143185000Y-88205000D01*
X143185000Y-87205000D01*
X142637155Y-87205000D01*
X142577627Y-87211401D01*
X142577620Y-87211403D01*
X142442913Y-87261645D01*
X142442906Y-87261649D01*
X142327812Y-87347809D01*
X142327809Y-87347812D01*
X142241649Y-87462906D01*
X142241645Y-87462913D01*
X142191403Y-87597620D01*
X142191401Y-87597627D01*
X142185000Y-87657155D01*
X141325000Y-87657155D01*
X141325000Y-86314983D01*
X147099500Y-86314983D01*
X147099500Y-87090001D01*
X147099501Y-87090019D01*
X147110000Y-87192796D01*
X147110001Y-87192799D01*
X147165185Y-87359331D01*
X147165187Y-87359336D01*
X147177104Y-87378656D01*
X147257288Y-87508656D01*
X147381344Y-87632712D01*
X147530666Y-87724814D01*
X147697203Y-87779999D01*
X147799991Y-87790500D01*
X147999190Y-87790499D01*
X148066230Y-87810183D01*
X148086872Y-87826818D01*
X148248181Y-87988127D01*
X148281666Y-88049450D01*
X148284500Y-88075808D01*
X148284500Y-88408802D01*
X148264815Y-88475841D01*
X148252651Y-88491773D01*
X148243140Y-88502336D01*
X148153750Y-88657164D01*
X148153747Y-88657170D01*
X148098504Y-88827192D01*
X148098503Y-88827194D01*
X148079815Y-89005000D01*
X148098503Y-89182805D01*
X148098504Y-89182807D01*
X148153747Y-89352829D01*
X148153750Y-89352835D01*
X148243141Y-89507665D01*
X148263266Y-89530016D01*
X148362764Y-89640521D01*
X148362767Y-89640523D01*
X148362770Y-89640526D01*
X148507407Y-89745612D01*
X148670733Y-89818329D01*
X148845609Y-89855500D01*
X148845610Y-89855500D01*
X149024389Y-89855500D01*
X149024391Y-89855500D01*
X149199267Y-89818329D01*
X149362593Y-89745612D01*
X149507230Y-89640526D01*
X149511195Y-89636123D01*
X149554116Y-89588454D01*
X149626859Y-89507665D01*
X149716250Y-89352835D01*
X149771497Y-89182803D01*
X149790185Y-89005000D01*
X149771497Y-88827197D01*
X149731793Y-88705000D01*
X149716252Y-88657170D01*
X149716250Y-88657166D01*
X149716250Y-88657165D01*
X149696668Y-88623247D01*
X149680195Y-88555352D01*
X149703046Y-88489325D01*
X149716368Y-88473575D01*
X149869459Y-88320485D01*
X149869464Y-88320481D01*
X149879667Y-88310277D01*
X149879669Y-88310277D01*
X150402819Y-87787125D01*
X150464142Y-87753641D01*
X150533833Y-87758625D01*
X150589767Y-87800496D01*
X150614184Y-87865961D01*
X150614500Y-87874807D01*
X150614500Y-89052870D01*
X150614501Y-89052876D01*
X150620908Y-89112483D01*
X150671202Y-89247328D01*
X150671206Y-89247335D01*
X150757452Y-89362544D01*
X150757455Y-89362547D01*
X150872664Y-89448793D01*
X150872671Y-89448797D01*
X151007517Y-89499091D01*
X151007516Y-89499091D01*
X151014444Y-89499835D01*
X151067127Y-89505500D01*
X153162872Y-89505499D01*
X153222483Y-89499091D01*
X153357331Y-89448796D01*
X153472546Y-89362546D01*
X153558796Y-89247331D01*
X153609091Y-89112483D01*
X153615500Y-89052873D01*
X153615499Y-84457128D01*
X153609091Y-84397517D01*
X153601625Y-84377500D01*
X153558797Y-84262671D01*
X153558793Y-84262664D01*
X153472547Y-84147455D01*
X153472544Y-84147452D01*
X153357335Y-84061206D01*
X153357328Y-84061202D01*
X153222482Y-84010908D01*
X153222483Y-84010908D01*
X153162883Y-84004501D01*
X153162881Y-84004500D01*
X153162873Y-84004500D01*
X153162864Y-84004500D01*
X151067129Y-84004500D01*
X151067123Y-84004501D01*
X151007516Y-84010908D01*
X150872671Y-84061202D01*
X150872664Y-84061206D01*
X150757455Y-84147452D01*
X150757452Y-84147455D01*
X150671206Y-84262664D01*
X150671202Y-84262671D01*
X150620908Y-84397517D01*
X150614501Y-84457116D01*
X150614501Y-84457123D01*
X150614500Y-84457135D01*
X150614500Y-85980500D01*
X150594815Y-86047539D01*
X150542011Y-86093294D01*
X150490500Y-86104500D01*
X150450929Y-86104500D01*
X150325261Y-86129497D01*
X150325255Y-86129499D01*
X150206870Y-86178535D01*
X150100331Y-86249722D01*
X150100324Y-86249728D01*
X149762180Y-86587873D01*
X149700857Y-86621358D01*
X149631165Y-86616374D01*
X149575232Y-86574502D01*
X149550815Y-86509038D01*
X149550499Y-86500192D01*
X149550499Y-86314998D01*
X149550498Y-86314981D01*
X149539999Y-86212203D01*
X149539998Y-86212200D01*
X149536027Y-86200215D01*
X149484814Y-86045666D01*
X149392712Y-85896344D01*
X149268656Y-85772288D01*
X149265342Y-85770243D01*
X149263546Y-85768248D01*
X149262989Y-85767807D01*
X149263064Y-85767711D01*
X149218618Y-85718297D01*
X149207397Y-85649334D01*
X149235240Y-85585252D01*
X149265348Y-85559165D01*
X149268342Y-85557318D01*
X149392315Y-85433345D01*
X149484356Y-85284124D01*
X149484358Y-85284119D01*
X149539505Y-85117697D01*
X149539506Y-85117690D01*
X149549999Y-85014986D01*
X149550000Y-85014973D01*
X149550000Y-84877500D01*
X147100001Y-84877500D01*
X147100001Y-85014986D01*
X147110494Y-85117697D01*
X147165641Y-85284119D01*
X147165643Y-85284124D01*
X147257684Y-85433345D01*
X147381655Y-85557316D01*
X147381659Y-85557319D01*
X147384656Y-85559168D01*
X147386279Y-85560972D01*
X147387323Y-85561798D01*
X147387181Y-85561976D01*
X147431381Y-85611116D01*
X147442602Y-85680079D01*
X147414759Y-85744161D01*
X147384661Y-85770241D01*
X147381349Y-85772283D01*
X147381343Y-85772288D01*
X147257289Y-85896342D01*
X147165187Y-86045663D01*
X147165185Y-86045668D01*
X147145690Y-86104500D01*
X147110001Y-86212203D01*
X147110001Y-86212204D01*
X147110000Y-86212204D01*
X147099500Y-86314983D01*
X141325000Y-86314983D01*
X141325000Y-84240013D01*
X147100000Y-84240013D01*
X147100000Y-84377500D01*
X148075000Y-84377500D01*
X148575000Y-84377500D01*
X149549999Y-84377500D01*
X149549999Y-84240028D01*
X149549998Y-84240013D01*
X149539505Y-84137302D01*
X149484358Y-83970880D01*
X149484356Y-83970875D01*
X149392315Y-83821654D01*
X149268345Y-83697684D01*
X149119124Y-83605643D01*
X149119119Y-83605641D01*
X148952697Y-83550494D01*
X148952690Y-83550493D01*
X148849986Y-83540000D01*
X148575000Y-83540000D01*
X148575000Y-84377500D01*
X148075000Y-84377500D01*
X148075000Y-83540000D01*
X147800029Y-83540000D01*
X147800012Y-83540001D01*
X147697302Y-83550494D01*
X147530880Y-83605641D01*
X147530875Y-83605643D01*
X147381654Y-83697684D01*
X147257684Y-83821654D01*
X147165643Y-83970875D01*
X147165641Y-83970880D01*
X147110494Y-84137302D01*
X147110493Y-84137309D01*
X147100000Y-84240013D01*
X141325000Y-84240013D01*
X141325000Y-80535000D01*
X138075000Y-77285000D01*
X130806362Y-77285000D01*
X130772306Y-77275000D01*
X156579353Y-77275000D01*
X156599834Y-77417456D01*
X156659622Y-77548371D01*
X156659623Y-77548373D01*
X156753872Y-77657143D01*
X156874947Y-77734953D01*
X156874950Y-77734954D01*
X156874949Y-77734954D01*
X157013036Y-77775499D01*
X157013038Y-77775500D01*
X157013039Y-77775500D01*
X157156962Y-77775500D01*
X157156962Y-77775499D01*
X157295053Y-77734953D01*
X157416128Y-77657143D01*
X157510377Y-77548373D01*
X157570165Y-77417457D01*
X157590647Y-77275000D01*
X157570165Y-77132543D01*
X157510377Y-77001627D01*
X157416128Y-76892857D01*
X157295053Y-76815047D01*
X157295051Y-76815046D01*
X157295049Y-76815045D01*
X157295050Y-76815045D01*
X157156963Y-76774500D01*
X157148184Y-76773238D01*
X157148592Y-76770395D01*
X157095533Y-76754815D01*
X157054515Y-76707478D01*
X157041512Y-76741206D01*
X156985122Y-76782461D01*
X156978002Y-76784787D01*
X156874948Y-76815045D01*
X156753873Y-76892856D01*
X156659623Y-77001626D01*
X156659622Y-77001628D01*
X156599834Y-77132543D01*
X156579353Y-77275000D01*
X130772306Y-77275000D01*
X130739323Y-77265315D01*
X130718681Y-77248681D01*
X129921319Y-76451319D01*
X129887834Y-76389996D01*
X129885000Y-76363638D01*
X129885000Y-75761270D01*
X129888109Y-75733677D01*
X129905833Y-75656025D01*
X129930802Y-75546630D01*
X129950408Y-75285000D01*
X129936697Y-75102041D01*
X129930803Y-75023379D01*
X129930802Y-75023374D01*
X129930802Y-75023370D01*
X129888109Y-74836320D01*
X129885000Y-74808728D01*
X129885000Y-72761270D01*
X129888109Y-72733677D01*
X129930802Y-72546630D01*
X129930808Y-72546550D01*
X129950408Y-72285004D01*
X129950408Y-72284995D01*
X129930803Y-72023379D01*
X129930802Y-72023374D01*
X129930802Y-72023370D01*
X129888109Y-71836320D01*
X129885000Y-71808728D01*
X129885000Y-71276362D01*
X129904685Y-71209323D01*
X129921319Y-71188681D01*
X130184278Y-70925722D01*
X130245601Y-70892237D01*
X130271959Y-70889403D01*
X130811490Y-70889403D01*
X130878529Y-70909088D01*
G37*
%TD.AperFunction*%
%TA.AperFunction,Conductor*%
G36*
X134403633Y-100352952D02*
G01*
X134436603Y-100376549D01*
X135782873Y-101722819D01*
X135816358Y-101784142D01*
X135811374Y-101853834D01*
X135769502Y-101909767D01*
X135704038Y-101934184D01*
X135695192Y-101934500D01*
X133057314Y-101934500D01*
X133057261Y-101934497D01*
X133050254Y-101934497D01*
X133050253Y-101934497D01*
X133028331Y-101934497D01*
X133028294Y-101934487D01*
X132889257Y-101934492D01*
X132832536Y-101945777D01*
X132762944Y-101939551D01*
X132707765Y-101896690D01*
X132693780Y-101871612D01*
X132692999Y-101869727D01*
X132687379Y-101856158D01*
X132686147Y-101853183D01*
X132686142Y-101853175D01*
X132676861Y-101839285D01*
X132588685Y-101707325D01*
X132464643Y-101583289D01*
X132318785Y-101485836D01*
X132220961Y-101445320D01*
X132156716Y-101418711D01*
X131984672Y-101384496D01*
X131984668Y-101384496D01*
X131914500Y-101384499D01*
X131896958Y-101384500D01*
X131857314Y-101384500D01*
X131857261Y-101384497D01*
X131850254Y-101384497D01*
X131850253Y-101384497D01*
X131828331Y-101384497D01*
X131828294Y-101384487D01*
X131689257Y-101384492D01*
X131573195Y-101407583D01*
X131503603Y-101401357D01*
X131448425Y-101358496D01*
X131425178Y-101292607D01*
X131425000Y-101285966D01*
X131425000Y-100927275D01*
X131444685Y-100860236D01*
X131497489Y-100814481D01*
X131566647Y-100804537D01*
X131630203Y-100833562D01*
X131641150Y-100844303D01*
X131682764Y-100890521D01*
X131682767Y-100890523D01*
X131682770Y-100890526D01*
X131827407Y-100995612D01*
X131990733Y-101068329D01*
X132165609Y-101105500D01*
X132165610Y-101105500D01*
X132344389Y-101105500D01*
X132344391Y-101105500D01*
X132519267Y-101068329D01*
X132682593Y-100995612D01*
X132810287Y-100902836D01*
X132876094Y-100879356D01*
X132944148Y-100895181D01*
X132956057Y-100902835D01*
X132987407Y-100925612D01*
X133150733Y-100998329D01*
X133325609Y-101035500D01*
X133325610Y-101035500D01*
X133504389Y-101035500D01*
X133504391Y-101035500D01*
X133679267Y-100998329D01*
X133842593Y-100925612D01*
X133987230Y-100820526D01*
X133995808Y-100811000D01*
X134043830Y-100757665D01*
X134106859Y-100687665D01*
X134196250Y-100532835D01*
X134230991Y-100425912D01*
X134270428Y-100368237D01*
X134334786Y-100341038D01*
X134403633Y-100352952D01*
G37*
%TD.AperFunction*%
%TA.AperFunction,Conductor*%
G36*
X128844334Y-100258125D02*
G01*
X128900267Y-100299997D01*
X128924684Y-100365461D01*
X128925000Y-100374307D01*
X128925000Y-100435000D01*
X130301000Y-100435000D01*
X130368039Y-100454685D01*
X130413794Y-100507489D01*
X130425000Y-100559000D01*
X130425000Y-100811000D01*
X130405315Y-100878039D01*
X130352511Y-100923794D01*
X130301000Y-100935000D01*
X128925000Y-100935000D01*
X128925000Y-101482844D01*
X128931401Y-101542372D01*
X128931403Y-101542379D01*
X128981645Y-101677086D01*
X128981647Y-101677089D01*
X129025889Y-101736188D01*
X129050307Y-101801652D01*
X129035456Y-101869926D01*
X128986051Y-101919331D01*
X128926623Y-101934500D01*
X127595311Y-101934500D01*
X127528272Y-101914815D01*
X127482517Y-101862011D01*
X127472573Y-101792853D01*
X127487924Y-101748500D01*
X127529153Y-101677089D01*
X127566250Y-101612835D01*
X127621497Y-101442803D01*
X127624465Y-101414560D01*
X127651048Y-101349946D01*
X127660096Y-101339848D01*
X128713320Y-100286625D01*
X128774642Y-100253141D01*
X128844334Y-100258125D01*
G37*
%TD.AperFunction*%
%TA.AperFunction,Conductor*%
G36*
X139221231Y-98045185D02*
G01*
X139241873Y-98061819D01*
X140607236Y-99427182D01*
X140640721Y-99488505D01*
X140635737Y-99558197D01*
X140593865Y-99614130D01*
X140592445Y-99615178D01*
X140572769Y-99629474D01*
X140572764Y-99629478D01*
X140453143Y-99762332D01*
X140453139Y-99762337D01*
X140427728Y-99806350D01*
X140408023Y-99832029D01*
X139916872Y-100323181D01*
X139855549Y-100356666D01*
X139829192Y-100359500D01*
X139627130Y-100359500D01*
X139627123Y-100359501D01*
X139567511Y-100365909D01*
X139560670Y-100367526D01*
X139490901Y-100363785D01*
X139444477Y-100334531D01*
X139289669Y-100179723D01*
X139289668Y-100179722D01*
X139289667Y-100179721D01*
X139289666Y-100179720D01*
X139280607Y-100173667D01*
X139235802Y-100120054D01*
X139225499Y-100070566D01*
X139225499Y-99887129D01*
X139225498Y-99887123D01*
X139225497Y-99887116D01*
X139219091Y-99827517D01*
X139212405Y-99809592D01*
X139168797Y-99692671D01*
X139168793Y-99692664D01*
X139082547Y-99577455D01*
X139082544Y-99577452D01*
X138967335Y-99491206D01*
X138967328Y-99491202D01*
X138832482Y-99440908D01*
X138832483Y-99440908D01*
X138772883Y-99434501D01*
X138772881Y-99434500D01*
X138772873Y-99434500D01*
X138772864Y-99434500D01*
X137177129Y-99434500D01*
X137177123Y-99434501D01*
X137117516Y-99440908D01*
X136982671Y-99491202D01*
X136982664Y-99491206D01*
X136867455Y-99577452D01*
X136867452Y-99577455D01*
X136781206Y-99692664D01*
X136781202Y-99692671D01*
X136730908Y-99827517D01*
X136724501Y-99887116D01*
X136724501Y-99887123D01*
X136724500Y-99887135D01*
X136724500Y-100525191D01*
X136704815Y-100592230D01*
X136652011Y-100637985D01*
X136582853Y-100647929D01*
X136519297Y-100618904D01*
X136512819Y-100612872D01*
X134137128Y-98237181D01*
X134103643Y-98175858D01*
X134108627Y-98106166D01*
X134150499Y-98050233D01*
X134215963Y-98025816D01*
X134224809Y-98025500D01*
X139154192Y-98025500D01*
X139221231Y-98045185D01*
G37*
%TD.AperFunction*%
%TA.AperFunction,Conductor*%
G36*
X158084860Y-99407597D02*
G01*
X158140794Y-99449468D01*
X158148912Y-99461776D01*
X158233141Y-99607665D01*
X158274812Y-99653946D01*
X158352764Y-99740521D01*
X158352767Y-99740523D01*
X158352770Y-99740526D01*
X158497407Y-99845612D01*
X158590937Y-99887254D01*
X158644172Y-99932502D01*
X158664494Y-99999351D01*
X158664500Y-100000532D01*
X158664500Y-100235500D01*
X158644815Y-100302539D01*
X158592011Y-100348294D01*
X158540500Y-100359500D01*
X157329807Y-100359500D01*
X157262768Y-100339815D01*
X157217013Y-100287011D01*
X157207069Y-100217853D01*
X157236094Y-100154297D01*
X157242114Y-100147831D01*
X157953848Y-99436096D01*
X158015169Y-99402613D01*
X158084860Y-99407597D01*
G37*
%TD.AperFunction*%
%TA.AperFunction,Conductor*%
G36*
X118636846Y-93664685D02*
G01*
X118682601Y-93717489D01*
X118692545Y-93786647D01*
X118688468Y-93804995D01*
X118678252Y-93838670D01*
X118659901Y-94025000D01*
X118678252Y-94211331D01*
X118678253Y-94211333D01*
X118732604Y-94390502D01*
X118820862Y-94555623D01*
X118820864Y-94555626D01*
X118939642Y-94700357D01*
X119084373Y-94819135D01*
X119084376Y-94819137D01*
X119170149Y-94864983D01*
X119249499Y-94907396D01*
X119428666Y-94961746D01*
X119428668Y-94961747D01*
X119445374Y-94963392D01*
X119615000Y-94980099D01*
X119801331Y-94961747D01*
X119835535Y-94951370D01*
X119905400Y-94950746D01*
X119964513Y-94987993D01*
X119990191Y-95034035D01*
X120016186Y-95119728D01*
X120109086Y-95293532D01*
X120109090Y-95293539D01*
X120234116Y-95445883D01*
X120386460Y-95570909D01*
X120386467Y-95570913D01*
X120560266Y-95663811D01*
X120560269Y-95663811D01*
X120560273Y-95663814D01*
X120748868Y-95721024D01*
X120945000Y-95740341D01*
X121141132Y-95721024D01*
X121329727Y-95663814D01*
X121364926Y-95645000D01*
X121430933Y-95609718D01*
X121503538Y-95570910D01*
X121655883Y-95445883D01*
X121780910Y-95293538D01*
X121873814Y-95119727D01*
X121931024Y-94931132D01*
X121950341Y-94735000D01*
X121931024Y-94538868D01*
X121873814Y-94350273D01*
X121873811Y-94350269D01*
X121873811Y-94350266D01*
X121780913Y-94176467D01*
X121780909Y-94176460D01*
X121750335Y-94139206D01*
X121723022Y-94074896D01*
X121734813Y-94006029D01*
X121758504Y-93972863D01*
X122019549Y-93711819D01*
X122080872Y-93678334D01*
X122107230Y-93675500D01*
X122818793Y-93675500D01*
X122885832Y-93695185D01*
X122931587Y-93747989D01*
X122941531Y-93817147D01*
X122912506Y-93880703D01*
X122889917Y-93901075D01*
X122853594Y-93926508D01*
X122686505Y-94093597D01*
X122550965Y-94287169D01*
X122550964Y-94287171D01*
X122451098Y-94501335D01*
X122451094Y-94501344D01*
X122389938Y-94729586D01*
X122389936Y-94729596D01*
X122369341Y-94964999D01*
X122369341Y-94965000D01*
X122389936Y-95200403D01*
X122389938Y-95200413D01*
X122451094Y-95428655D01*
X122451096Y-95428659D01*
X122451097Y-95428663D01*
X122520423Y-95577332D01*
X122550965Y-95642830D01*
X122550967Y-95642834D01*
X122686501Y-95836395D01*
X122686506Y-95836402D01*
X122853597Y-96003493D01*
X122853603Y-96003498D01*
X123039158Y-96133425D01*
X123082783Y-96188002D01*
X123089977Y-96257500D01*
X123058454Y-96319855D01*
X123039158Y-96336575D01*
X122853597Y-96466505D01*
X122686505Y-96633597D01*
X122550965Y-96827169D01*
X122550964Y-96827171D01*
X122451098Y-97041335D01*
X122451094Y-97041344D01*
X122389938Y-97269586D01*
X122389936Y-97269596D01*
X122382573Y-97353753D01*
X122357120Y-97418821D01*
X122300528Y-97459799D01*
X122230766Y-97463676D01*
X122169983Y-97429222D01*
X122141338Y-97381946D01*
X122134356Y-97360877D01*
X122134356Y-97360875D01*
X122042315Y-97211654D01*
X121918345Y-97087684D01*
X121769124Y-96995643D01*
X121769119Y-96995641D01*
X121602697Y-96940494D01*
X121602690Y-96940493D01*
X121499986Y-96930000D01*
X121225000Y-96930000D01*
X121225000Y-97767500D01*
X122199998Y-97767500D01*
X122203654Y-97763844D01*
X122264976Y-97730358D01*
X122334668Y-97735342D01*
X122390602Y-97777212D01*
X122411111Y-97819431D01*
X122451094Y-97968655D01*
X122451096Y-97968659D01*
X122451097Y-97968663D01*
X122515216Y-98106166D01*
X122550965Y-98182830D01*
X122550967Y-98182834D01*
X122616007Y-98275720D01*
X122678093Y-98364388D01*
X122686501Y-98376395D01*
X122686506Y-98376402D01*
X122853597Y-98543493D01*
X122853603Y-98543498D01*
X123039158Y-98673425D01*
X123082783Y-98728002D01*
X123089977Y-98797500D01*
X123058454Y-98859855D01*
X123039158Y-98876575D01*
X122853597Y-99006505D01*
X122686505Y-99173597D01*
X122550965Y-99367169D01*
X122550964Y-99367171D01*
X122451098Y-99581335D01*
X122451092Y-99581350D01*
X122435104Y-99641018D01*
X122398739Y-99700678D01*
X122335892Y-99731206D01*
X122266516Y-99722911D01*
X122212639Y-99678425D01*
X122191972Y-99621521D01*
X122189999Y-99602204D01*
X122189998Y-99602200D01*
X122175417Y-99558197D01*
X122134814Y-99435666D01*
X122042712Y-99286344D01*
X121918656Y-99162288D01*
X121915342Y-99160243D01*
X121913546Y-99158248D01*
X121912989Y-99157807D01*
X121913064Y-99157711D01*
X121868618Y-99108297D01*
X121857397Y-99039334D01*
X121885240Y-98975252D01*
X121915348Y-98949165D01*
X121918342Y-98947318D01*
X122042315Y-98823345D01*
X122134356Y-98674124D01*
X122134358Y-98674119D01*
X122189505Y-98507697D01*
X122189506Y-98507690D01*
X122199999Y-98404986D01*
X122200000Y-98404973D01*
X122200000Y-98267500D01*
X119750001Y-98267500D01*
X119750001Y-98404986D01*
X119760494Y-98507697D01*
X119815641Y-98674119D01*
X119815643Y-98674124D01*
X119907684Y-98823345D01*
X120031655Y-98947316D01*
X120031659Y-98947319D01*
X120034656Y-98949168D01*
X120036279Y-98950972D01*
X120037323Y-98951798D01*
X120037181Y-98951976D01*
X120081381Y-99001116D01*
X120092602Y-99070079D01*
X120064759Y-99134161D01*
X120034661Y-99160241D01*
X120031349Y-99162283D01*
X120031343Y-99162288D01*
X119907288Y-99286343D01*
X119902807Y-99292011D01*
X119900984Y-99290569D01*
X119857335Y-99329825D01*
X119803752Y-99342000D01*
X119463580Y-99342000D01*
X119318592Y-99370840D01*
X119318582Y-99370843D01*
X119182011Y-99427412D01*
X119181995Y-99427421D01*
X119120828Y-99468291D01*
X119054151Y-99489168D01*
X118986771Y-99470683D01*
X118940081Y-99418703D01*
X118928906Y-99349733D01*
X118935755Y-99321860D01*
X118969091Y-99232483D01*
X118975500Y-99172873D01*
X118975499Y-97630013D01*
X119750000Y-97630013D01*
X119750000Y-97767500D01*
X120725000Y-97767500D01*
X120725000Y-96930000D01*
X120450029Y-96930000D01*
X120450012Y-96930001D01*
X120347302Y-96940494D01*
X120180880Y-96995641D01*
X120180875Y-96995643D01*
X120031654Y-97087684D01*
X119907684Y-97211654D01*
X119815643Y-97360875D01*
X119815641Y-97360880D01*
X119760494Y-97527302D01*
X119760493Y-97527309D01*
X119750000Y-97630013D01*
X118975499Y-97630013D01*
X118975499Y-97577128D01*
X118969091Y-97517517D01*
X118969089Y-97517514D01*
X118968330Y-97510445D01*
X118980736Y-97441685D01*
X119003935Y-97409512D01*
X119095793Y-97317656D01*
X119243870Y-97113845D01*
X119358241Y-96889379D01*
X119436090Y-96649785D01*
X119475500Y-96400962D01*
X119475500Y-96149038D01*
X119436090Y-95900215D01*
X119358241Y-95660621D01*
X119358239Y-95660618D01*
X119358239Y-95660616D01*
X119315803Y-95577332D01*
X119243870Y-95436155D01*
X119191141Y-95363580D01*
X119095798Y-95232350D01*
X119095794Y-95232345D01*
X118917654Y-95054205D01*
X118917649Y-95054201D01*
X118713848Y-94906132D01*
X118713847Y-94906131D01*
X118713845Y-94906130D01*
X118633105Y-94864991D01*
X118489383Y-94791760D01*
X118249785Y-94713910D01*
X118164215Y-94700357D01*
X118000962Y-94674500D01*
X116449038Y-94674500D01*
X116324626Y-94694205D01*
X116200214Y-94713910D01*
X115960616Y-94791760D01*
X115736151Y-94906132D01*
X115591330Y-95011350D01*
X115525524Y-95034830D01*
X115457470Y-95019004D01*
X115408775Y-94968898D01*
X115394445Y-94911032D01*
X115394445Y-93769000D01*
X115414130Y-93701961D01*
X115466934Y-93656206D01*
X115518445Y-93645000D01*
X118569807Y-93645000D01*
X118636846Y-93664685D01*
G37*
%TD.AperFunction*%
%TD*%
%TA.AperFunction,Conductor*%
%TO.N,GND*%
G36*
X121856362Y-89820500D02*
G01*
X121856365Y-89820500D01*
X125461000Y-89820500D01*
X125528039Y-89840185D01*
X125573794Y-89892989D01*
X125585000Y-89944500D01*
X125585000Y-92001000D01*
X125565315Y-92068039D01*
X125512511Y-92113794D01*
X125461000Y-92125000D01*
X121749000Y-92125000D01*
X121681961Y-92105315D01*
X121636206Y-92052511D01*
X121625000Y-92001000D01*
X121625000Y-89930338D01*
X121644685Y-89863299D01*
X121697489Y-89817544D01*
X121766643Y-89807600D01*
X121856362Y-89820500D01*
G37*
%TD.AperFunction*%
%TD*%
%TA.AperFunction,Conductor*%
%TO.N,/VoltageRegulatorESD/12v_fuse*%
G36*
X124958039Y-85214685D02*
G01*
X125003794Y-85267489D01*
X125015000Y-85319000D01*
X125015000Y-87335000D01*
X125685000Y-88005000D01*
X126243375Y-88005000D01*
X126280258Y-88010613D01*
X126356704Y-88034434D01*
X126423454Y-88040500D01*
X127945501Y-88040500D01*
X128012540Y-88060185D01*
X128058295Y-88112989D01*
X128069501Y-88164500D01*
X128069501Y-88855500D01*
X128049816Y-88922539D01*
X127997012Y-88968294D01*
X127945501Y-88979500D01*
X126423454Y-88979500D01*
X126405259Y-88981153D01*
X126356707Y-88985565D01*
X126356704Y-88985566D01*
X126344442Y-88989386D01*
X126307558Y-88995000D01*
X126174999Y-88995000D01*
X125891319Y-89278681D01*
X125829996Y-89312166D01*
X125803638Y-89315000D01*
X125055000Y-89315000D01*
X121856362Y-89315000D01*
X121789323Y-89295315D01*
X121768681Y-89278681D01*
X121651319Y-89161319D01*
X121617834Y-89099996D01*
X121615000Y-89073638D01*
X121615000Y-87826362D01*
X121634685Y-87759323D01*
X121651319Y-87738681D01*
X121698681Y-87691319D01*
X121760004Y-87657834D01*
X121786362Y-87655000D01*
X123325000Y-87655000D01*
X123325000Y-85319000D01*
X123344685Y-85251961D01*
X123397489Y-85206206D01*
X123449000Y-85195000D01*
X124891000Y-85195000D01*
X124958039Y-85214685D01*
G37*
%TD.AperFunction*%
%TD*%
%TA.AperFunction,Conductor*%
%TO.N,/VoltageRegulatorESD/SW*%
G36*
X133310677Y-89344685D02*
G01*
X133331319Y-89361319D01*
X133805000Y-89835000D01*
X136283692Y-89835000D01*
X136350731Y-89854685D01*
X136371373Y-89871319D01*
X136387512Y-89887458D01*
X136420997Y-89948781D01*
X136423152Y-89988100D01*
X136409815Y-90114999D01*
X136428503Y-90292805D01*
X136428504Y-90292807D01*
X136483748Y-90462832D01*
X136483750Y-90462835D01*
X136498387Y-90488187D01*
X136515000Y-90550187D01*
X136515000Y-95630500D01*
X136495315Y-95697539D01*
X136442511Y-95743294D01*
X136391000Y-95754500D01*
X133685862Y-95754500D01*
X133618823Y-95734815D01*
X133598181Y-95718181D01*
X133215000Y-95335000D01*
X130986362Y-95335000D01*
X130919323Y-95315315D01*
X130898681Y-95298681D01*
X130721319Y-95121319D01*
X130687834Y-95059996D01*
X130685000Y-95033638D01*
X130685000Y-93045000D01*
X130091319Y-92451319D01*
X130057834Y-92389996D01*
X130055000Y-92363638D01*
X130055000Y-90819956D01*
X130074685Y-90752917D01*
X130083812Y-90740488D01*
X130294447Y-90488186D01*
X130643543Y-90070030D01*
X130701617Y-90031184D01*
X130738730Y-90025499D01*
X131027872Y-90025499D01*
X131087483Y-90019091D01*
X131222331Y-89968796D01*
X131337546Y-89882546D01*
X131423796Y-89767331D01*
X131474091Y-89632483D01*
X131480500Y-89572873D01*
X131480500Y-89449000D01*
X131500185Y-89381961D01*
X131552989Y-89336206D01*
X131604500Y-89325000D01*
X133243638Y-89325000D01*
X133310677Y-89344685D01*
G37*
%TD.AperFunction*%
%TD*%
M02*
