%TF.GenerationSoftware,KiCad,Pcbnew,8.0.4*%
%TF.CreationDate,2024-10-02T02:15:58-03:00*%
%TF.ProjectId,DongleALIVEv2.0,446f6e67-6c65-4414-9c49-564576322e30,2.0*%
%TF.SameCoordinates,Original*%
%TF.FileFunction,Soldermask,Top*%
%TF.FilePolarity,Negative*%
%FSLAX46Y46*%
G04 Gerber Fmt 4.6, Leading zero omitted, Abs format (unit mm)*
G04 Created by KiCad (PCBNEW 8.0.4) date 2024-10-02 02:15:58*
%MOMM*%
%LPD*%
G01*
G04 APERTURE LIST*
G04 Aperture macros list*
%AMRoundRect*
0 Rectangle with rounded corners*
0 $1 Rounding radius*
0 $2 $3 $4 $5 $6 $7 $8 $9 X,Y pos of 4 corners*
0 Add a 4 corners polygon primitive as box body*
4,1,4,$2,$3,$4,$5,$6,$7,$8,$9,$2,$3,0*
0 Add four circle primitives for the rounded corners*
1,1,$1+$1,$2,$3*
1,1,$1+$1,$4,$5*
1,1,$1+$1,$6,$7*
1,1,$1+$1,$8,$9*
0 Add four rect primitives between the rounded corners*
20,1,$1+$1,$2,$3,$4,$5,0*
20,1,$1+$1,$4,$5,$6,$7,0*
20,1,$1+$1,$6,$7,$8,$9,0*
20,1,$1+$1,$8,$9,$2,$3,0*%
G04 Aperture macros list end*
%ADD10C,0.200000*%
%ADD11RoundRect,0.266170X-0.496830X0.359330X-0.496830X-0.359330X0.496830X-0.359330X0.496830X0.359330X0*%
%ADD12RoundRect,0.266170X0.496830X-0.359330X0.496830X0.359330X-0.496830X0.359330X-0.496830X-0.359330X0*%
%ADD13RoundRect,0.102000X-0.600000X-0.600000X0.600000X-0.600000X0.600000X0.600000X-0.600000X0.600000X0*%
%ADD14RoundRect,0.102000X-0.750000X-0.800000X0.750000X-0.800000X0.750000X0.800000X-0.750000X0.800000X0*%
%ADD15C,1.000000*%
%ADD16RoundRect,0.038000X0.850000X0.850000X-0.850000X0.850000X-0.850000X-0.850000X0.850000X-0.850000X0*%
%ADD17O,1.776000X1.776000*%
%ADD18RoundRect,0.038000X0.750000X0.750000X-0.750000X0.750000X-0.750000X-0.750000X0.750000X-0.750000X0*%
%ADD19RoundRect,0.265833X0.372167X0.472167X-0.372167X0.472167X-0.372167X-0.472167X0.372167X-0.472167X0*%
%ADD20RoundRect,0.221750X0.965250X0.665250X-0.965250X0.665250X-0.965250X-0.665250X0.965250X-0.665250X0*%
%ADD21C,1.076000*%
%ADD22RoundRect,0.265833X-0.472167X0.372167X-0.472167X-0.372167X0.472167X-0.372167X0.472167X0.372167X0*%
%ADD23RoundRect,0.038000X-1.200000X-2.850000X1.200000X-2.850000X1.200000X2.850000X-1.200000X2.850000X0*%
%ADD24RoundRect,0.217080X0.869920X0.184920X-0.869920X0.184920X-0.869920X-0.184920X0.869920X-0.184920X0*%
%ADD25RoundRect,0.102000X1.205000X1.650000X-1.205000X1.650000X-1.205000X-1.650000X1.205000X-1.650000X0*%
%ADD26RoundRect,0.102000X0.300000X-0.400000X0.300000X0.400000X-0.300000X0.400000X-0.300000X-0.400000X0*%
%ADD27RoundRect,0.038000X-0.690000X0.225000X-0.690000X-0.225000X0.690000X-0.225000X0.690000X0.225000X0*%
%ADD28RoundRect,0.038000X-0.650000X0.825000X-0.650000X-0.825000X0.650000X-0.825000X0.650000X0.825000X0*%
%ADD29RoundRect,0.038000X-0.775000X0.712500X-0.775000X-0.712500X0.775000X-0.712500X0.775000X0.712500X0*%
%ADD30RoundRect,0.038000X-0.950000X0.900000X-0.950000X-0.900000X0.950000X-0.900000X0.950000X0.900000X0*%
%ADD31RoundRect,0.038000X-0.950000X0.500000X-0.950000X-0.500000X0.950000X-0.500000X0.950000X0.500000X0*%
%ADD32RoundRect,0.265833X-0.372167X-0.472167X0.372167X-0.472167X0.372167X0.472167X-0.372167X0.472167X0*%
%ADD33RoundRect,0.038000X-0.750000X0.750000X-0.750000X-0.750000X0.750000X-0.750000X0.750000X0.750000X0*%
%ADD34RoundRect,0.038000X0.228600X-0.393700X0.228600X0.393700X-0.228600X0.393700X-0.228600X-0.393700X0*%
%ADD35RoundRect,0.266170X-0.359330X-0.496830X0.359330X-0.496830X0.359330X0.496830X-0.359330X0.496830X0*%
%ADD36O,3.576000X2.276000*%
%ADD37RoundRect,0.038000X-1.250000X0.750000X-1.250000X-0.750000X1.250000X-0.750000X1.250000X0.750000X0*%
%ADD38O,2.576000X1.576000*%
%ADD39C,0.776000*%
%ADD40C,4.476000*%
%ADD41RoundRect,0.262750X-0.262750X-0.475250X0.262750X-0.475250X0.262750X0.475250X-0.262750X0.475250X0*%
%ADD42RoundRect,0.102000X1.250000X1.250000X-1.250000X1.250000X-1.250000X-1.250000X1.250000X-1.250000X0*%
%ADD43C,2.704000*%
%ADD44RoundRect,0.038000X0.750000X0.450000X-0.750000X0.450000X-0.750000X-0.450000X0.750000X-0.450000X0*%
%ADD45RoundRect,0.038000X-0.450000X0.750000X-0.450000X-0.750000X0.450000X-0.750000X0.450000X0.750000X0*%
%ADD46C,0.676000*%
%ADD47RoundRect,0.038000X2.100000X2.100000X-2.100000X2.100000X-2.100000X-2.100000X2.100000X-2.100000X0*%
%ADD48RoundRect,0.038000X-1.000000X2.250000X-1.000000X-2.250000X1.000000X-2.250000X1.000000X2.250000X0*%
%ADD49RoundRect,0.102000X-0.300000X0.400000X-0.300000X-0.400000X0.300000X-0.400000X0.300000X0.400000X0*%
%ADD50RoundRect,0.038000X-1.244600X0.469900X-1.244600X-0.469900X1.244600X-0.469900X1.244600X0.469900X0*%
%ADD51RoundRect,0.038000X-3.403600X3.289300X-3.403600X-3.289300X3.403600X-3.289300X3.403600X3.289300X0*%
%ADD52RoundRect,0.081500X-0.356500X-0.081500X0.356500X-0.081500X0.356500X0.081500X-0.356500X0.081500X0*%
%ADD53RoundRect,0.081500X-0.081500X-0.356500X0.081500X-0.356500X0.081500X0.356500X-0.081500X0.356500X0*%
%ADD54RoundRect,0.038000X-1.675000X-1.675000X1.675000X-1.675000X1.675000X1.675000X-1.675000X1.675000X0*%
%ADD55RoundRect,0.519000X-0.519000X0.519000X-0.519000X-0.519000X0.519000X-0.519000X0.519000X0.519000X0*%
%ADD56C,2.076000*%
%ADD57RoundRect,0.038000X-0.850000X-0.850000X0.850000X-0.850000X0.850000X0.850000X-0.850000X0.850000X0*%
G04 APERTURE END LIST*
D10*
X156435000Y-119185000D02*
X141895000Y-119185000D01*
X141895000Y-117565000D01*
X156435000Y-117565000D01*
X156435000Y-119185000D01*
G36*
X156435000Y-119185000D02*
G01*
X141895000Y-119185000D01*
X141895000Y-117565000D01*
X156435000Y-117565000D01*
X156435000Y-119185000D01*
G37*
D11*
%TO.C,C9*%
X122565000Y-88507500D03*
X122565000Y-90582500D03*
%TD*%
D12*
%TO.C,C7*%
X120975000Y-100092500D03*
X120975000Y-98017500D03*
%TD*%
D13*
%TO.C,RV1*%
X134615000Y-80365000D03*
D14*
X137865000Y-81365000D03*
D13*
X134615000Y-82365000D03*
%TD*%
D15*
%TO.C,FID2*%
X122275000Y-124255000D03*
%TD*%
D11*
%TO.C,C10*%
X124665000Y-88507500D03*
X124665000Y-90582500D03*
%TD*%
%TO.C,C18*%
X148325000Y-93177500D03*
X148325000Y-95252500D03*
%TD*%
D16*
%TO.C,J2*%
X123725000Y-105125000D03*
D17*
X123725000Y-102585000D03*
X123725000Y-100045000D03*
X123725000Y-97505000D03*
X123725000Y-94965000D03*
%TD*%
D18*
%TO.C,SW1*%
X137975000Y-100685000D03*
X130175000Y-100685000D03*
%TD*%
D19*
%TO.C,R13*%
X136615000Y-84405000D03*
X134615000Y-84405000D03*
%TD*%
D20*
%TO.C,D3*%
X131980000Y-94355000D03*
X127850000Y-94355000D03*
%TD*%
D21*
%TO.C,TP1*%
X120945000Y-94735000D03*
%TD*%
D11*
%TO.C,C19*%
X148325000Y-84627500D03*
X148325000Y-86702500D03*
%TD*%
D22*
%TO.C,R12*%
X138605000Y-86435000D03*
X138605000Y-88435000D03*
%TD*%
D23*
%TO.C,L1*%
X135175000Y-92895000D03*
X139375000Y-92895000D03*
%TD*%
D19*
%TO.C,R7*%
X124165000Y-86115000D03*
X122165000Y-86115000D03*
%TD*%
D24*
%TO.C,U2*%
X132250000Y-89780000D03*
X132250000Y-88510000D03*
X132250000Y-87240000D03*
X132250000Y-85970000D03*
X127300000Y-85970000D03*
X127300000Y-87240000D03*
X127300000Y-88510000D03*
X127300000Y-89780000D03*
D25*
X129775000Y-87875000D03*
%TD*%
D22*
%TO.C,R17*%
X130665000Y-113045000D03*
X130665000Y-115045000D03*
%TD*%
D26*
%TO.C,Q3*%
X132885000Y-108195000D03*
X134785000Y-108195000D03*
X133835000Y-106175000D03*
%TD*%
D27*
%TO.C,J4*%
X119110000Y-110627500D03*
X119110000Y-111277500D03*
X119110000Y-111927500D03*
X119110000Y-112577500D03*
X119110000Y-113227500D03*
D28*
X116450000Y-108552500D03*
D29*
X119025000Y-109440000D03*
D30*
X116450000Y-110777500D03*
D31*
X116450000Y-113477500D03*
D29*
X119025000Y-114415000D03*
D28*
X116450000Y-115302500D03*
%TD*%
D32*
%TO.C,R8*%
X134615000Y-88505000D03*
X136615000Y-88505000D03*
%TD*%
D33*
%TO.C,SW2*%
X143435000Y-88455000D03*
X143435000Y-96255000D03*
%TD*%
D34*
%TO.C,D4*%
X120105000Y-82193100D03*
X120105000Y-79576900D03*
%TD*%
D35*
%TO.C,C6*%
X128770000Y-91695000D03*
X130845000Y-91695000D03*
%TD*%
D36*
%TO.C,SW3*%
X117225000Y-96275000D03*
X117225000Y-104475000D03*
D37*
X117225000Y-98375000D03*
D38*
X117225000Y-100375000D03*
X117225000Y-102375000D03*
%TD*%
D39*
%TO.C,H2*%
X125395000Y-115005000D03*
X125878274Y-113838274D03*
X125878274Y-116171726D03*
X127045000Y-113355000D03*
D40*
X127045000Y-115005000D03*
D39*
X127045000Y-116655000D03*
X128211726Y-113838274D03*
X128211726Y-116171726D03*
X128695000Y-115005000D03*
%TD*%
D19*
%TO.C,R18*%
X134855000Y-104465000D03*
X132855000Y-104465000D03*
%TD*%
D41*
%TO.C,D1*%
X116727500Y-121125000D03*
X118602500Y-121125000D03*
%TD*%
D11*
%TO.C,C8*%
X120975000Y-102667500D03*
X120975000Y-104742500D03*
%TD*%
D15*
%TO.C,FID3*%
X122275000Y-77275000D03*
%TD*%
D19*
%TO.C,R11*%
X119895000Y-84575000D03*
X117895000Y-84575000D03*
%TD*%
D42*
%TO.C,J1*%
X152195000Y-72285000D03*
D43*
X148195000Y-72285000D03*
X144195000Y-72285000D03*
X140195000Y-72285000D03*
X136195000Y-72285000D03*
X132195000Y-72285000D03*
X128195000Y-72285000D03*
X124195000Y-72285000D03*
X152195000Y-75285000D03*
X148195000Y-75285000D03*
X144195000Y-75285000D03*
X140195000Y-75285000D03*
X136195000Y-75285000D03*
X132195000Y-75285000D03*
X128195000Y-75285000D03*
X124195000Y-75285000D03*
%TD*%
D15*
%TO.C,FID1*%
X157085000Y-77275000D03*
%TD*%
D39*
%TO.C,H1*%
X155155000Y-73845000D03*
X155638274Y-72678274D03*
X155638274Y-75011726D03*
X156805000Y-72195000D03*
D40*
X156805000Y-73845000D03*
D39*
X156805000Y-75495000D03*
X157971726Y-72678274D03*
X157971726Y-75011726D03*
X158455000Y-73845000D03*
%TD*%
D44*
%TO.C,U1*%
X157925000Y-117820000D03*
X157925000Y-116550000D03*
X157925000Y-115280000D03*
X157925000Y-114010000D03*
X157925000Y-112740000D03*
X157925000Y-111470000D03*
X157925000Y-110200000D03*
X157925000Y-108930000D03*
X157925000Y-107660000D03*
X157925000Y-106390000D03*
X157925000Y-105120000D03*
X157925000Y-103850000D03*
X157925000Y-102580000D03*
X157925000Y-101310000D03*
D45*
X154885000Y-100060000D03*
X153615000Y-100060000D03*
X152345000Y-100060000D03*
X151075000Y-100060000D03*
X149805000Y-100060000D03*
X148535000Y-100060000D03*
X147265000Y-100060000D03*
X145995000Y-100060000D03*
X144725000Y-100060000D03*
X143455000Y-100060000D03*
D44*
X140425000Y-101310000D03*
X140425000Y-102580000D03*
X140425000Y-103850000D03*
X140425000Y-105120000D03*
X140425000Y-106390000D03*
X140425000Y-107660000D03*
X140425000Y-108930000D03*
X140425000Y-110200000D03*
X140425000Y-111470000D03*
X140425000Y-112740000D03*
X140425000Y-114010000D03*
X140425000Y-115280000D03*
X140425000Y-116550000D03*
X140425000Y-117820000D03*
D46*
X151380000Y-111242500D03*
X151380000Y-109717500D03*
X150617500Y-112005000D03*
X150617500Y-110480000D03*
X150617500Y-108955000D03*
X149855000Y-111242500D03*
D47*
X149855000Y-110480000D03*
D46*
X149855000Y-109717500D03*
X149092500Y-112005000D03*
X149092500Y-110480000D03*
X149092500Y-108955000D03*
X148330000Y-111242500D03*
X148330000Y-109717500D03*
%TD*%
D48*
%TO.C,Y1*%
X152115000Y-86755000D03*
X152115000Y-95255000D03*
%TD*%
D41*
%TO.C,D5*%
X116727500Y-118125000D03*
X118602500Y-118125000D03*
%TD*%
D49*
%TO.C,Q2*%
X134855000Y-109675000D03*
X132955000Y-109675000D03*
X133905000Y-111695000D03*
%TD*%
D35*
%TO.C,C11*%
X134597500Y-86435000D03*
X136672500Y-86435000D03*
%TD*%
D50*
%TO.C,Q1*%
X123349000Y-78834999D03*
D51*
X129821999Y-81125000D03*
D50*
X123349000Y-83415001D03*
%TD*%
D52*
%TO.C,U6*%
X126345000Y-107115000D03*
X126345000Y-107615000D03*
X126345000Y-108115000D03*
X126345000Y-108615000D03*
X126345000Y-109115000D03*
X126345000Y-109615000D03*
X126345000Y-110115000D03*
D53*
X127295000Y-111065000D03*
X127795000Y-111065000D03*
X128295000Y-111065000D03*
X128795000Y-111065000D03*
X129295000Y-111065000D03*
X129795000Y-111065000D03*
X130295000Y-111065000D03*
D52*
X131245000Y-110115000D03*
X131245000Y-109615000D03*
X131245000Y-109115000D03*
X131245000Y-108615000D03*
X131245000Y-108115000D03*
X131245000Y-107615000D03*
X131245000Y-107115000D03*
D53*
X130295000Y-106165000D03*
X129795000Y-106165000D03*
X129295000Y-106165000D03*
X128795000Y-106165000D03*
X128295000Y-106165000D03*
X127795000Y-106165000D03*
X127295000Y-106165000D03*
D54*
X128795000Y-108615000D03*
%TD*%
D55*
%TO.C,F1*%
X118665000Y-72125000D03*
X118665000Y-77125000D03*
D56*
X118665000Y-87125000D03*
X118665000Y-92125000D03*
%TD*%
D19*
%TO.C,R19*%
X134945000Y-113385000D03*
X132945000Y-113385000D03*
%TD*%
D41*
%TO.C,D2*%
X116727500Y-124125000D03*
X118602500Y-124125000D03*
%TD*%
D57*
%TO.C,J3*%
X157645000Y-86125000D03*
D17*
X157645000Y-88665000D03*
X157645000Y-91205000D03*
X157645000Y-93745000D03*
X157645000Y-96285000D03*
%TD*%
M02*
