%TF.GenerationSoftware,KiCad,Pcbnew,8.0.4*%
%TF.CreationDate,2024-09-21T14:56:58-03:00*%
%TF.ProjectId,DongleALIVEv2.0,446f6e67-6c65-4414-9c49-564576322e30,2.0*%
%TF.SameCoordinates,Original*%
%TF.FileFunction,Copper,L1,Top*%
%TF.FilePolarity,Positive*%
%FSLAX46Y46*%
G04 Gerber Fmt 4.6, Leading zero omitted, Abs format (unit mm)*
G04 Created by KiCad (PCBNEW 8.0.4) date 2024-09-21 14:56:58*
%MOMM*%
%LPD*%
G01*
G04 APERTURE LIST*
G04 Aperture macros list*
%AMRoundRect*
0 Rectangle with rounded corners*
0 $1 Rounding radius*
0 $2 $3 $4 $5 $6 $7 $8 $9 X,Y pos of 4 corners*
0 Add a 4 corners polygon primitive as box body*
4,1,4,$2,$3,$4,$5,$6,$7,$8,$9,$2,$3,0*
0 Add four circle primitives for the rounded corners*
1,1,$1+$1,$2,$3*
1,1,$1+$1,$4,$5*
1,1,$1+$1,$6,$7*
1,1,$1+$1,$8,$9*
0 Add four rect primitives between the rounded corners*
20,1,$1+$1,$2,$3,$4,$5,0*
20,1,$1+$1,$4,$5,$6,$7,0*
20,1,$1+$1,$6,$7,$8,$9,0*
20,1,$1+$1,$8,$9,$2,$3,0*%
G04 Aperture macros list end*
%TA.AperFunction,Conductor*%
%ADD10C,0.200000*%
%TD*%
%TA.AperFunction,SMDPad,CuDef*%
%ADD11RoundRect,0.250000X-0.475000X0.337500X-0.475000X-0.337500X0.475000X-0.337500X0.475000X0.337500X0*%
%TD*%
%TA.AperFunction,SMDPad,CuDef*%
%ADD12RoundRect,0.250000X0.475000X-0.337500X0.475000X0.337500X-0.475000X0.337500X-0.475000X-0.337500X0*%
%TD*%
%TA.AperFunction,SMDPad,CuDef*%
%ADD13R,1.200000X1.200000*%
%TD*%
%TA.AperFunction,SMDPad,CuDef*%
%ADD14R,1.500000X1.600000*%
%TD*%
%TA.AperFunction,SMDPad,CuDef*%
%ADD15C,0.500000*%
%TD*%
%TA.AperFunction,ComponentPad*%
%ADD16R,1.700000X1.700000*%
%TD*%
%TA.AperFunction,ComponentPad*%
%ADD17O,1.700000X1.700000*%
%TD*%
%TA.AperFunction,SMDPad,CuDef*%
%ADD18R,1.500000X1.500000*%
%TD*%
%TA.AperFunction,SMDPad,CuDef*%
%ADD19RoundRect,0.250000X0.350000X0.450000X-0.350000X0.450000X-0.350000X-0.450000X0.350000X-0.450000X0*%
%TD*%
%TA.AperFunction,SMDPad,CuDef*%
%ADD20RoundRect,0.196250X0.888750X0.588750X-0.888750X0.588750X-0.888750X-0.588750X0.888750X-0.588750X0*%
%TD*%
%TA.AperFunction,SMDPad,CuDef*%
%ADD21RoundRect,0.250000X-0.450000X0.350000X-0.450000X-0.350000X0.450000X-0.350000X0.450000X0.350000X0*%
%TD*%
%TA.AperFunction,SMDPad,CuDef*%
%ADD22R,2.400000X5.700000*%
%TD*%
%TA.AperFunction,SMDPad,CuDef*%
%ADD23RoundRect,0.162000X0.823000X0.138000X-0.823000X0.138000X-0.823000X-0.138000X0.823000X-0.138000X0*%
%TD*%
%TA.AperFunction,SMDPad,CuDef*%
%ADD24R,2.410000X3.300000*%
%TD*%
%TA.AperFunction,SMDPad,CuDef*%
%ADD25R,0.600000X0.800000*%
%TD*%
%TA.AperFunction,SMDPad,CuDef*%
%ADD26R,1.380000X0.450000*%
%TD*%
%TA.AperFunction,SMDPad,CuDef*%
%ADD27R,1.300000X1.650000*%
%TD*%
%TA.AperFunction,SMDPad,CuDef*%
%ADD28R,1.550000X1.425000*%
%TD*%
%TA.AperFunction,SMDPad,CuDef*%
%ADD29R,1.900000X1.800000*%
%TD*%
%TA.AperFunction,SMDPad,CuDef*%
%ADD30R,1.900000X1.000000*%
%TD*%
%TA.AperFunction,SMDPad,CuDef*%
%ADD31RoundRect,0.250000X-0.350000X-0.450000X0.350000X-0.450000X0.350000X0.450000X-0.350000X0.450000X0*%
%TD*%
%TA.AperFunction,SMDPad,CuDef*%
%ADD32R,0.457200X0.787400*%
%TD*%
%TA.AperFunction,SMDPad,CuDef*%
%ADD33RoundRect,0.250000X-0.337500X-0.475000X0.337500X-0.475000X0.337500X0.475000X-0.337500X0.475000X0*%
%TD*%
%TA.AperFunction,ComponentPad*%
%ADD34O,3.500000X2.200000*%
%TD*%
%TA.AperFunction,ComponentPad*%
%ADD35R,2.500000X1.500000*%
%TD*%
%TA.AperFunction,ComponentPad*%
%ADD36O,2.500000X1.500000*%
%TD*%
%TA.AperFunction,ComponentPad*%
%ADD37C,0.700000*%
%TD*%
%TA.AperFunction,ComponentPad*%
%ADD38C,4.400000*%
%TD*%
%TA.AperFunction,SMDPad,CuDef*%
%ADD39RoundRect,0.243750X-0.243750X-0.456250X0.243750X-0.456250X0.243750X0.456250X-0.243750X0.456250X0*%
%TD*%
%TA.AperFunction,ComponentPad*%
%ADD40R,2.500000X2.500000*%
%TD*%
%TA.AperFunction,ComponentPad*%
%ADD41C,2.500000*%
%TD*%
%TA.AperFunction,SMDPad,CuDef*%
%ADD42R,1.500000X0.900000*%
%TD*%
%TA.AperFunction,SMDPad,CuDef*%
%ADD43R,0.900000X1.500000*%
%TD*%
%TA.AperFunction,SMDPad,CuDef*%
%ADD44R,1.050000X1.050000*%
%TD*%
%TA.AperFunction,HeatsinkPad*%
%ADD45C,0.600000*%
%TD*%
%TA.AperFunction,SMDPad,CuDef*%
%ADD46R,4.200000X4.200000*%
%TD*%
%TA.AperFunction,SMDPad,CuDef*%
%ADD47R,2.000000X4.500000*%
%TD*%
%TA.AperFunction,SMDPad,CuDef*%
%ADD48R,2.489200X0.939800*%
%TD*%
%TA.AperFunction,SMDPad,CuDef*%
%ADD49R,6.807200X6.578600*%
%TD*%
%TA.AperFunction,SMDPad,CuDef*%
%ADD50RoundRect,0.062500X-0.337500X-0.062500X0.337500X-0.062500X0.337500X0.062500X-0.337500X0.062500X0*%
%TD*%
%TA.AperFunction,SMDPad,CuDef*%
%ADD51RoundRect,0.062500X-0.062500X-0.337500X0.062500X-0.337500X0.062500X0.337500X-0.062500X0.337500X0*%
%TD*%
%TA.AperFunction,HeatsinkPad*%
%ADD52R,3.350000X3.350000*%
%TD*%
%TA.AperFunction,ComponentPad*%
%ADD53RoundRect,0.500000X-0.500000X0.500000X-0.500000X-0.500000X0.500000X-0.500000X0.500000X0.500000X0*%
%TD*%
%TA.AperFunction,ComponentPad*%
%ADD54C,2.000000*%
%TD*%
%TA.AperFunction,ViaPad*%
%ADD55C,0.700000*%
%TD*%
%TA.AperFunction,ViaPad*%
%ADD56C,0.900000*%
%TD*%
%TA.AperFunction,Conductor*%
%ADD57C,0.300000*%
%TD*%
%TA.AperFunction,Conductor*%
%ADD58C,1.000000*%
%TD*%
%TA.AperFunction,Conductor*%
%ADD59C,0.500000*%
%TD*%
%TA.AperFunction,Conductor*%
%ADD60C,2.000000*%
%TD*%
G04 APERTURE END LIST*
D10*
%TO.N,GND*%
X197420000Y-118360000D02*
X182880000Y-118360000D01*
X182880000Y-116740000D01*
X197420000Y-116740000D01*
X197420000Y-118360000D01*
%TA.AperFunction,Conductor*%
G36*
X197420000Y-118360000D02*
G01*
X182880000Y-118360000D01*
X182880000Y-116740000D01*
X197420000Y-116740000D01*
X197420000Y-118360000D01*
G37*
%TD.AperFunction*%
%TD*%
D11*
%TO.P,C9,1*%
%TO.N,/VoltageRegulatorESD/12v_fuse*%
X163550000Y-87682500D03*
%TO.P,C9,2*%
%TO.N,GND*%
X163550000Y-89757500D03*
%TD*%
D12*
%TO.P,C7,1*%
%TO.N,/VoltageRegulatorESD/Vout*%
X161960000Y-99267500D03*
%TO.P,C7,2*%
%TO.N,GND*%
X161960000Y-97192500D03*
%TD*%
D13*
%TO.P,RV1,1,1*%
%TO.N,/VoltageRegulatorESD/Vout*%
X175600000Y-79540000D03*
D14*
%TO.P,RV1,2,2*%
X178850000Y-80540000D03*
D13*
%TO.P,RV1,3,3*%
%TO.N,/VoltageRegulatorESD/FB*%
X175600000Y-81540000D03*
%TD*%
D15*
%TO.P,FID2,*%
%TO.N,*%
X163260000Y-123430000D03*
%TD*%
D11*
%TO.P,C10,1*%
%TO.N,/VoltageRegulatorESD/12v_fuse*%
X165650000Y-87682500D03*
%TO.P,C10,2*%
%TO.N,GND*%
X165650000Y-89757500D03*
%TD*%
%TO.P,C18,1*%
%TO.N,GND*%
X189310000Y-92352500D03*
%TO.P,C18,2*%
%TO.N,/CAN_controller/osc1*%
X189310000Y-94427500D03*
%TD*%
D16*
%TO.P,J2,1,Pin_1*%
%TO.N,GND*%
X164710000Y-104300000D03*
D17*
%TO.P,J2,2,Pin_2*%
%TO.N,/Microcontroller/TX2*%
X164710000Y-101760000D03*
%TO.P,J2,3,Pin_3*%
%TO.N,/Microcontroller/RX2*%
X164710000Y-99220000D03*
%TO.P,J2,4,Pin_4*%
%TO.N,unconnected-(J2-Pin_4-Pad4)*%
X164710000Y-96680000D03*
%TO.P,J2,5,Pin_5*%
%TO.N,+3V3*%
X164710000Y-94140000D03*
%TD*%
D18*
%TO.P,SW1,1,1*%
%TO.N,IO0*%
X178960000Y-99860000D03*
%TO.P,SW1,2,2*%
%TO.N,GND*%
X171160000Y-99860000D03*
%TD*%
D19*
%TO.P,R13,1*%
%TO.N,GND*%
X177600000Y-83580000D03*
%TO.P,R13,2*%
%TO.N,/VoltageRegulatorESD/FB*%
X175600000Y-83580000D03*
%TD*%
D20*
%TO.P,D3,1,K*%
%TO.N,/VoltageRegulatorESD/SW*%
X172965000Y-93530000D03*
%TO.P,D3,2,A*%
%TO.N,GND*%
X168835000Y-93530000D03*
%TD*%
D11*
%TO.P,C19,1*%
%TO.N,GND*%
X189310000Y-83802500D03*
%TO.P,C19,2*%
%TO.N,/CAN_controller/osc2*%
X189310000Y-85877500D03*
%TD*%
D21*
%TO.P,R12,1*%
%TO.N,Net-(C11-Pad2)*%
X179590000Y-85610000D03*
%TO.P,R12,2*%
%TO.N,GND*%
X179590000Y-87610000D03*
%TD*%
D22*
%TO.P,L1,1*%
%TO.N,/VoltageRegulatorESD/SW*%
X176160000Y-92070000D03*
%TO.P,L1,2*%
%TO.N,/VoltageRegulatorESD/Vout*%
X180360000Y-92070000D03*
%TD*%
D19*
%TO.P,R7,1*%
%TO.N,/VoltageRegulatorESD/12v_fuse*%
X165150000Y-85290000D03*
%TO.P,R7,2*%
%TO.N,/VoltageRegulatorESD/EN*%
X163150000Y-85290000D03*
%TD*%
D23*
%TO.P,U2,1,SW*%
%TO.N,/VoltageRegulatorESD/SW*%
X173235000Y-88955000D03*
%TO.P,U2,2,EN*%
%TO.N,/VoltageRegulatorESD/EN*%
X173235000Y-87685000D03*
%TO.P,U2,3,COMP*%
%TO.N,/VoltageRegulatorESD/COMP*%
X173235000Y-86415000D03*
%TO.P,U2,4,FB*%
%TO.N,/VoltageRegulatorESD/FB*%
X173235000Y-85145000D03*
%TO.P,U2,5,GND*%
%TO.N,GND*%
X168285000Y-85145000D03*
%TO.P,U2,6,FREQ*%
%TO.N,/VoltageRegulatorESD/FREQ*%
X168285000Y-86415000D03*
%TO.P,U2,7,VIN*%
%TO.N,/VoltageRegulatorESD/12v_fuse*%
X168285000Y-87685000D03*
%TO.P,U2,8,BST*%
%TO.N,/VoltageRegulatorESD/BST*%
X168285000Y-88955000D03*
D24*
%TO.P,U2,9,GND*%
%TO.N,GND*%
X170760000Y-87050000D03*
%TD*%
D21*
%TO.P,R17,1*%
%TO.N,/MicroUSB_Port/RST*%
X171650000Y-112220000D03*
%TO.P,R17,2*%
%TO.N,+3V3*%
X171650000Y-114220000D03*
%TD*%
D25*
%TO.P,Q3,1*%
%TO.N,/MicroUSB_Port/rts_to_io0*%
X173870000Y-107370000D03*
%TO.P,Q3,2*%
%TO.N,IO0*%
X175770000Y-107370000D03*
%TO.P,Q3,3*%
%TO.N,/MicroUSB_Port/DTR*%
X174820000Y-105350000D03*
%TD*%
D26*
%TO.P,J4,1,VBUS*%
%TO.N,/MicroUSB_Port/VBUS*%
X160095000Y-109802500D03*
%TO.P,J4,2,D-*%
%TO.N,/MicroUSB_Port/D-*%
X160095000Y-110452500D03*
%TO.P,J4,3,D+*%
%TO.N,/MicroUSB_Port/D+*%
X160095000Y-111102500D03*
%TO.P,J4,4,ID*%
%TO.N,unconnected-(J4-ID-Pad4)*%
X160095000Y-111752500D03*
%TO.P,J4,5,GND*%
%TO.N,GND*%
X160095000Y-112402500D03*
D27*
%TO.P,J4,6,Shield*%
%TO.N,unconnected-(J4-Shield-Pad6)_5*%
X157435000Y-107727500D03*
D28*
%TO.N,unconnected-(J4-Shield-Pad6)*%
X160010000Y-108615000D03*
D29*
%TO.N,unconnected-(J4-Shield-Pad6)_4*%
X157435000Y-109952500D03*
D30*
%TO.N,unconnected-(J4-Shield-Pad6)_2*%
X157435000Y-112652500D03*
D28*
%TO.N,unconnected-(J4-Shield-Pad6)_3*%
X160010000Y-113590000D03*
D27*
%TO.N,unconnected-(J4-Shield-Pad6)_1*%
X157435000Y-114477500D03*
%TD*%
D31*
%TO.P,R8,1*%
%TO.N,/VoltageRegulatorESD/EN*%
X175600000Y-87680000D03*
%TO.P,R8,2*%
%TO.N,GND*%
X177600000Y-87680000D03*
%TD*%
D18*
%TO.P,SW2,1,1*%
%TO.N,GND*%
X184420000Y-87630000D03*
%TO.P,SW2,2,2*%
%TO.N,EN*%
X184420000Y-95430000D03*
%TD*%
D32*
%TO.P,D4,1,K*%
%TO.N,/VoltageRegulatorESD/12v_in*%
X161090000Y-81368100D03*
%TO.P,D4,2,A*%
%TO.N,/VoltageRegulatorESD/GND_resistence_protect*%
X161090000Y-78751900D03*
%TD*%
D33*
%TO.P,C6,1*%
%TO.N,/VoltageRegulatorESD/BST*%
X169755000Y-90870000D03*
%TO.P,C6,2*%
%TO.N,/VoltageRegulatorESD/SW*%
X171830000Y-90870000D03*
%TD*%
D34*
%TO.P,SW3,*%
%TO.N,*%
X158210000Y-95450000D03*
X158210000Y-103650000D03*
D35*
%TO.P,SW3,1,C*%
%TO.N,unconnected-(SW3-C-Pad1)*%
X158210000Y-97550000D03*
D36*
%TO.P,SW3,2,B*%
%TO.N,/VoltageRegulatorESD/Vout*%
X158210000Y-99550000D03*
%TO.P,SW3,3,A*%
%TO.N,5v*%
X158210000Y-101550000D03*
%TD*%
D37*
%TO.P,H2,1,1*%
%TO.N,GND*%
X166380000Y-114180000D03*
X166863274Y-113013274D03*
X166863274Y-115346726D03*
X168030000Y-112530000D03*
D38*
X168030000Y-114180000D03*
D37*
X168030000Y-115830000D03*
X169196726Y-113013274D03*
X169196726Y-115346726D03*
X169680000Y-114180000D03*
%TD*%
D19*
%TO.P,R18,1*%
%TO.N,/MicroUSB_Port/dtr_to_en*%
X175840000Y-103640000D03*
%TO.P,R18,2*%
%TO.N,/MicroUSB_Port/DTR*%
X173840000Y-103640000D03*
%TD*%
D39*
%TO.P,D1,1,K*%
%TO.N,GND*%
X157712500Y-120300000D03*
%TO.P,D1,2,A*%
%TO.N,/Microcontroller/can_led*%
X159587500Y-120300000D03*
%TD*%
D11*
%TO.P,C8,1*%
%TO.N,/VoltageRegulatorESD/Vout*%
X161960000Y-101842500D03*
%TO.P,C8,2*%
%TO.N,GND*%
X161960000Y-103917500D03*
%TD*%
D15*
%TO.P,FID3,*%
%TO.N,*%
X163260000Y-76450000D03*
%TD*%
D19*
%TO.P,R11,1*%
%TO.N,/VoltageRegulatorESD/FREQ*%
X160880000Y-83750000D03*
%TO.P,R11,2*%
%TO.N,GND*%
X158880000Y-83750000D03*
%TD*%
D40*
%TO.P,J1,1,1*%
%TO.N,unconnected-(J1-Pad1)*%
X193180000Y-71460000D03*
D41*
%TO.P,J1,2,2*%
%TO.N,unconnected-(J1-Pad2)*%
X189180000Y-71460000D03*
%TO.P,J1,3,3*%
%TO.N,unconnected-(J1-Pad3)*%
X185180000Y-71460000D03*
%TO.P,J1,4,GND*%
%TO.N,GND*%
X181180000Y-71460000D03*
%TO.P,J1,5,5*%
%TO.N,unconnected-(J1-Pad5)*%
X177180000Y-71460000D03*
%TO.P,J1,6,CAN_LOW*%
%TO.N,/CAN_controller/CAN_LOW*%
X173180000Y-71460000D03*
%TO.P,J1,7,7*%
%TO.N,unconnected-(J1-Pad7)*%
X169180000Y-71460000D03*
%TO.P,J1,8,8*%
%TO.N,unconnected-(J1-Pad8)*%
X165180000Y-71460000D03*
%TO.P,J1,9,9*%
%TO.N,unconnected-(J1-Pad9)*%
X193180000Y-74460000D03*
%TO.P,J1,10,10*%
%TO.N,unconnected-(J1-Pad10)*%
X189180000Y-74460000D03*
%TO.P,J1,11,11*%
%TO.N,unconnected-(J1-Pad11)*%
X185180000Y-74460000D03*
%TO.P,J1,12,12*%
%TO.N,unconnected-(J1-Pad12)*%
X181180000Y-74460000D03*
%TO.P,J1,13,13*%
%TO.N,unconnected-(J1-Pad13)*%
X177180000Y-74460000D03*
%TO.P,J1,14,CAN_HIGH*%
%TO.N,/CAN_controller/CAN_HIGH*%
X173180000Y-74460000D03*
%TO.P,J1,15,15*%
%TO.N,unconnected-(J1-Pad15)*%
X169180000Y-74460000D03*
%TO.P,J1,16,VIN*%
%TO.N,/VoltageRegulatorESD/Car_Battery_12v*%
X165180000Y-74460000D03*
%TD*%
D15*
%TO.P,FID1,*%
%TO.N,*%
X198070000Y-76450000D03*
%TD*%
D37*
%TO.P,H1,1,1*%
%TO.N,GND*%
X196140000Y-73020000D03*
X196623274Y-71853274D03*
X196623274Y-74186726D03*
X197790000Y-71370000D03*
D38*
X197790000Y-73020000D03*
D37*
X197790000Y-74670000D03*
X198956726Y-71853274D03*
X198956726Y-74186726D03*
X199440000Y-73020000D03*
%TD*%
D42*
%TO.P,U1,1,GND*%
%TO.N,GND*%
X198910000Y-116995000D03*
%TO.P,U1,2,VDD*%
%TO.N,+3V3*%
X198910000Y-115725000D03*
%TO.P,U1,3,EN*%
%TO.N,EN*%
X198910000Y-114455000D03*
%TO.P,U1,4,SENSOR_VP*%
%TO.N,unconnected-(U1-SENSOR_VP-Pad4)*%
X198910000Y-113185000D03*
%TO.P,U1,5,SENSOR_VN*%
%TO.N,unconnected-(U1-SENSOR_VN-Pad5)*%
X198910000Y-111915000D03*
%TO.P,U1,6,IO34*%
%TO.N,unconnected-(U1-IO34-Pad6)*%
X198910000Y-110645000D03*
%TO.P,U1,7,IO35*%
%TO.N,unconnected-(U1-IO35-Pad7)*%
X198910000Y-109375000D03*
%TO.P,U1,8,IO32*%
%TO.N,unconnected-(U1-IO32-Pad8)*%
X198910000Y-108105000D03*
%TO.P,U1,9,IO33*%
%TO.N,unconnected-(U1-IO33-Pad9)*%
X198910000Y-106835000D03*
%TO.P,U1,10,IO25*%
%TO.N,/Microcontroller/CAN_debug*%
X198910000Y-105565000D03*
%TO.P,U1,11,IO26*%
%TO.N,/Microcontroller/BLE_debug*%
X198910000Y-104295000D03*
%TO.P,U1,12,IO27*%
%TO.N,/CAN_controller/CAN_INT*%
X198910000Y-103025000D03*
%TO.P,U1,13,IO14*%
%TO.N,unconnected-(U1-IO14-Pad13)*%
X198910000Y-101755000D03*
%TO.P,U1,14,IO12*%
%TO.N,unconnected-(U1-IO12-Pad14)*%
X198910000Y-100485000D03*
D43*
%TO.P,U1,15,GND*%
%TO.N,GND*%
X195870000Y-99235000D03*
%TO.P,U1,16,IO13*%
%TO.N,unconnected-(U1-IO13-Pad16)*%
X194600000Y-99235000D03*
%TO.P,U1,17,SHD/SD2*%
%TO.N,unconnected-(U1-SHD{slash}SD2-Pad17)*%
X193330000Y-99235000D03*
%TO.P,U1,18,SWP/SD3*%
%TO.N,unconnected-(U1-SWP{slash}SD3-Pad18)*%
X192060000Y-99235000D03*
%TO.P,U1,19,SCS/CMD*%
%TO.N,unconnected-(U1-SCS{slash}CMD-Pad19)*%
X190790000Y-99235000D03*
%TO.P,U1,20,SCK/CLK*%
%TO.N,unconnected-(U1-SCK{slash}CLK-Pad20)*%
X189520000Y-99235000D03*
%TO.P,U1,21,SDO/SD0*%
%TO.N,unconnected-(U1-SDO{slash}SD0-Pad21)*%
X188250000Y-99235000D03*
%TO.P,U1,22,SDI/SD1*%
%TO.N,unconnected-(U1-SDI{slash}SD1-Pad22)*%
X186980000Y-99235000D03*
%TO.P,U1,23,IO15*%
%TO.N,unconnected-(U1-IO15-Pad23)*%
X185710000Y-99235000D03*
%TO.P,U1,24,IO2*%
%TO.N,unconnected-(U1-IO2-Pad24)*%
X184440000Y-99235000D03*
D42*
%TO.P,U1,25,IO0*%
%TO.N,IO0*%
X181410000Y-100485000D03*
%TO.P,U1,26,IO4*%
%TO.N,unconnected-(U1-IO4-Pad26)*%
X181410000Y-101755000D03*
%TO.P,U1,27,IO16*%
%TO.N,/Microcontroller/RX2*%
X181410000Y-103025000D03*
%TO.P,U1,28,IO17*%
%TO.N,/Microcontroller/TX2*%
X181410000Y-104295000D03*
%TO.P,U1,29,IO5*%
%TO.N,/CAN_controller/CAN_CS*%
X181410000Y-105565000D03*
%TO.P,U1,30,IO18*%
%TO.N,SCLK*%
X181410000Y-106835000D03*
%TO.P,U1,31,IO19*%
%TO.N,MISO*%
X181410000Y-108105000D03*
%TO.P,U1,32,NC*%
%TO.N,unconnected-(U1-NC-Pad32)*%
X181410000Y-109375000D03*
%TO.P,U1,33,IO21*%
%TO.N,/Microcontroller/SDA*%
X181410000Y-110645000D03*
%TO.P,U1,34,RXD0/IO3*%
%TO.N,/Microcontroller/RXD0*%
X181410000Y-111915000D03*
%TO.P,U1,35,TXD0/IO1*%
%TO.N,/Microcontroller/TXD0*%
X181410000Y-113185000D03*
%TO.P,U1,36,IO22*%
%TO.N,/Microcontroller/SCL*%
X181410000Y-114455000D03*
%TO.P,U1,37,IO23*%
%TO.N,MOSI*%
X181410000Y-115725000D03*
%TO.P,U1,38,GND*%
%TO.N,GND*%
X181410000Y-116995000D03*
D44*
%TO.P,U1,39,GND*%
X192365000Y-111180000D03*
D45*
X192365000Y-110417500D03*
D44*
X192365000Y-109655000D03*
D45*
X192365000Y-108892500D03*
D44*
X192365000Y-108130000D03*
D45*
X191602500Y-111180000D03*
X191602500Y-109655000D03*
X191602500Y-108130000D03*
D44*
X190840000Y-111180000D03*
D45*
X190840000Y-110417500D03*
D44*
X190840000Y-109655000D03*
D46*
X190840000Y-109655000D03*
D45*
X190840000Y-108892500D03*
D44*
X190840000Y-108130000D03*
D45*
X190077500Y-111180000D03*
X190077500Y-109655000D03*
X190077500Y-108130000D03*
D44*
X189315000Y-111180000D03*
D45*
X189315000Y-110417500D03*
D44*
X189315000Y-109655000D03*
D45*
X189315000Y-108892500D03*
D44*
X189315000Y-108130000D03*
%TD*%
D47*
%TO.P,Y1,1,1*%
%TO.N,/CAN_controller/osc2*%
X193100000Y-85930000D03*
%TO.P,Y1,2,2*%
%TO.N,/CAN_controller/osc1*%
X193100000Y-94430000D03*
%TD*%
D39*
%TO.P,D5,1,K*%
%TO.N,GND*%
X157712500Y-117300000D03*
%TO.P,D5,2,A*%
%TO.N,/VoltageRegulatorESD/power_led*%
X159587500Y-117300000D03*
%TD*%
D25*
%TO.P,Q2,1*%
%TO.N,/MicroUSB_Port/dtr_to_en*%
X175840000Y-108850000D03*
%TO.P,Q2,2*%
%TO.N,/MicroUSB_Port/RTS*%
X173940000Y-108850000D03*
%TO.P,Q2,3*%
%TO.N,EN*%
X174890000Y-110870000D03*
%TD*%
D33*
%TO.P,C11,1*%
%TO.N,/VoltageRegulatorESD/COMP*%
X175582500Y-85610000D03*
%TO.P,C11,2*%
%TO.N,Net-(C11-Pad2)*%
X177657500Y-85610000D03*
%TD*%
D48*
%TO.P,Q1,1,G*%
%TO.N,/VoltageRegulatorESD/GND_resistence_protect*%
X164334000Y-78009999D03*
D49*
%TO.P,Q1,2,D*%
%TO.N,/VoltageRegulatorESD/Car_Battery_12v*%
X170806999Y-80300000D03*
D48*
%TO.P,Q1,3,S*%
%TO.N,/VoltageRegulatorESD/12v_in*%
X164334000Y-82590001D03*
%TD*%
D50*
%TO.P,U6,1,~{DCD}*%
%TO.N,unconnected-(U6-~{DCD}-Pad1)*%
X167330000Y-106290000D03*
%TO.P,U6,2,~{RI}/CLK*%
%TO.N,unconnected-(U6-~{RI}{slash}CLK-Pad2)*%
X167330000Y-106790000D03*
%TO.P,U6,3,GND*%
%TO.N,GND*%
X167330000Y-107290000D03*
%TO.P,U6,4,D+*%
%TO.N,/MicroUSB_Port/D+*%
X167330000Y-107790000D03*
%TO.P,U6,5,D-*%
%TO.N,/MicroUSB_Port/D-*%
X167330000Y-108290000D03*
%TO.P,U6,6,VDD*%
%TO.N,+3V3*%
X167330000Y-108790000D03*
%TO.P,U6,7,VREGIN*%
X167330000Y-109290000D03*
D51*
%TO.P,U6,8,VBUS*%
%TO.N,/MicroUSB_Port/VBUS*%
X168280000Y-110240000D03*
%TO.P,U6,9,~{RST}*%
%TO.N,/MicroUSB_Port/RST*%
X168780000Y-110240000D03*
%TO.P,U6,10,NC*%
%TO.N,unconnected-(U6-NC-Pad10)*%
X169280000Y-110240000D03*
%TO.P,U6,11,~{SUSPEND}*%
%TO.N,unconnected-(U6-~{SUSPEND}-Pad11)*%
X169780000Y-110240000D03*
%TO.P,U6,12,SUSPEND*%
%TO.N,unconnected-(U6-SUSPEND-Pad12)*%
X170280000Y-110240000D03*
%TO.P,U6,13,CHREN*%
%TO.N,unconnected-(U6-CHREN-Pad13)*%
X170780000Y-110240000D03*
%TO.P,U6,14,CHR1*%
%TO.N,unconnected-(U6-CHR1-Pad14)*%
X171280000Y-110240000D03*
D50*
%TO.P,U6,15,CHR0*%
%TO.N,unconnected-(U6-CHR0-Pad15)*%
X172230000Y-109290000D03*
%TO.P,U6,16,~{WAKEUP}/GPIO.3*%
%TO.N,unconnected-(U6-~{WAKEUP}{slash}GPIO.3-Pad16)*%
X172230000Y-108790000D03*
%TO.P,U6,17,RS485/GPIO.2*%
%TO.N,unconnected-(U6-RS485{slash}GPIO.2-Pad17)*%
X172230000Y-108290000D03*
%TO.P,U6,18,~{RXT}/GPIO.1*%
%TO.N,unconnected-(U6-~{RXT}{slash}GPIO.1-Pad18)*%
X172230000Y-107790000D03*
%TO.P,U6,19,~{TXT}/GPIO.0*%
%TO.N,unconnected-(U6-~{TXT}{slash}GPIO.0-Pad19)*%
X172230000Y-107290000D03*
%TO.P,U6,20,GPIO.6*%
%TO.N,unconnected-(U6-GPIO.6-Pad20)*%
X172230000Y-106790000D03*
%TO.P,U6,21,GPIO.5*%
%TO.N,unconnected-(U6-GPIO.5-Pad21)*%
X172230000Y-106290000D03*
D51*
%TO.P,U6,22,GPIO.4*%
%TO.N,unconnected-(U6-GPIO.4-Pad22)*%
X171280000Y-105340000D03*
%TO.P,U6,23,~{CTS}*%
%TO.N,unconnected-(U6-~{CTS}-Pad23)*%
X170780000Y-105340000D03*
%TO.P,U6,24,~{RTS}*%
%TO.N,/MicroUSB_Port/RTS*%
X170280000Y-105340000D03*
%TO.P,U6,25,RXD*%
%TO.N,/MicroUSB_Port/RXD*%
X169780000Y-105340000D03*
%TO.P,U6,26,TXD*%
%TO.N,/MicroUSB_Port/TXD*%
X169280000Y-105340000D03*
%TO.P,U6,27,~{DSR}*%
%TO.N,unconnected-(U6-~{DSR}-Pad27)*%
X168780000Y-105340000D03*
%TO.P,U6,28,~{DTR}*%
%TO.N,/MicroUSB_Port/DTR*%
X168280000Y-105340000D03*
D52*
%TO.P,U6,29,GND*%
%TO.N,GND*%
X169780000Y-107790000D03*
%TD*%
D53*
%TO.P,F1,1*%
%TO.N,/VoltageRegulatorESD/12v_in*%
X159650000Y-71300000D03*
X159650000Y-76300000D03*
D54*
%TO.P,F1,2*%
%TO.N,/VoltageRegulatorESD/12v_fuse*%
X159650000Y-86300000D03*
X159650000Y-91300000D03*
%TD*%
D19*
%TO.P,R19,1*%
%TO.N,/MicroUSB_Port/rts_to_io0*%
X175930000Y-112560000D03*
%TO.P,R19,2*%
%TO.N,/MicroUSB_Port/RTS*%
X173930000Y-112560000D03*
%TD*%
D39*
%TO.P,D2,1,K*%
%TO.N,GND*%
X157712500Y-123300000D03*
%TO.P,D2,2,A*%
%TO.N,/Microcontroller/ble_led*%
X159587500Y-123300000D03*
%TD*%
D16*
%TO.P,J3,1,Pin_1*%
%TO.N,unconnected-(J3-Pin_1-Pad1)*%
X198630000Y-85300000D03*
D17*
%TO.P,J3,2,Pin_2*%
%TO.N,unconnected-(J3-Pin_2-Pad2)*%
X198630000Y-87840000D03*
%TO.P,J3,3,Pin_3*%
%TO.N,/Microcontroller/SDA*%
X198630000Y-90380000D03*
%TO.P,J3,4,Pin_4*%
%TO.N,/Microcontroller/SCL*%
X198630000Y-92920000D03*
%TO.P,J3,5,Pin_5*%
%TO.N,unconnected-(J3-Pin_5-Pad5)*%
X198630000Y-95460000D03*
%TD*%
D55*
%TO.N,GND*%
X183940000Y-97520000D03*
X187400000Y-92530000D03*
D56*
X191230000Y-117590000D03*
D55*
X198940000Y-99160000D03*
X188310000Y-90670000D03*
X185380000Y-110740000D03*
X196690000Y-86750000D03*
X187960000Y-115070000D03*
X191170000Y-89670000D03*
X165590000Y-80260000D03*
X159150000Y-115330000D03*
X172260000Y-110710000D03*
X191010000Y-72960000D03*
X176180000Y-118020000D03*
X157060000Y-105840000D03*
X187220000Y-72880000D03*
X163060000Y-80260000D03*
X174180000Y-118020000D03*
X165650000Y-90860000D03*
D56*
X168700000Y-106710000D03*
D55*
X164600000Y-114830000D03*
X189310000Y-89670000D03*
X190550000Y-92350000D03*
X170740000Y-85920000D03*
X175500000Y-100410000D03*
D56*
X186150000Y-117590000D03*
D55*
X193500000Y-82110000D03*
X157710000Y-118780000D03*
X173180000Y-118020000D03*
D56*
X168700000Y-108920000D03*
D55*
X177980000Y-106180000D03*
X194930000Y-91430000D03*
X187400000Y-89670000D03*
X171370000Y-72890000D03*
X185960000Y-115070000D03*
X177600000Y-82360000D03*
X175180000Y-70560000D03*
X165720000Y-122070000D03*
X175180000Y-118020000D03*
X178250000Y-89290000D03*
X190760000Y-84340000D03*
X163290000Y-112480000D03*
X165070000Y-115810000D03*
X170740000Y-88250000D03*
X188310000Y-89670000D03*
X193660000Y-102390000D03*
X188320000Y-88740000D03*
X179200000Y-72830000D03*
X174300000Y-114360000D03*
X186960000Y-115070000D03*
X194930000Y-90430000D03*
X198910000Y-117970000D03*
X172180000Y-118020000D03*
X187410000Y-88740000D03*
X194930000Y-88570000D03*
X163550000Y-106030000D03*
X168270000Y-84340000D03*
X161820000Y-95960000D03*
X187400000Y-90670000D03*
X165720000Y-124070000D03*
X159110000Y-93330000D03*
X180650000Y-99200000D03*
X187400000Y-91530000D03*
X165720000Y-123070000D03*
X177180000Y-118020000D03*
X165720000Y-121070000D03*
D56*
X183610000Y-117590000D03*
D55*
X181410000Y-117970000D03*
X157710000Y-121810000D03*
X183190000Y-72880000D03*
X190170000Y-89670000D03*
X195480000Y-95700000D03*
X169220000Y-100460000D03*
X178180000Y-118020000D03*
X179180000Y-118020000D03*
X167160000Y-72870000D03*
X162020000Y-112580000D03*
D56*
X188690000Y-117590000D03*
X193770000Y-117590000D03*
D55*
X189310000Y-90670000D03*
D56*
X157520000Y-83750000D03*
D55*
X190170000Y-90670000D03*
X191170000Y-90670000D03*
X196690000Y-89110000D03*
X179710000Y-108120000D03*
X194930000Y-89570000D03*
D56*
X196310000Y-117590000D03*
D55*
X184420000Y-88900000D03*
X163550000Y-90870000D03*
X170600000Y-93190000D03*
%TO.N,+3V3*%
X172870000Y-114220000D03*
X184510000Y-103110000D03*
X197440000Y-115310000D03*
X163970000Y-108260000D03*
%TO.N,IO0*%
X182130000Y-99440000D03*
X175970000Y-106260000D03*
%TO.N,EN*%
X191600000Y-97830000D03*
X197609998Y-112300000D03*
X185000000Y-108030000D03*
X174240000Y-109950000D03*
X189800000Y-100870000D03*
D56*
%TO.N,/VoltageRegulatorESD/Vout*%
X160600000Y-93200000D03*
D55*
%TO.N,5v*%
X162170000Y-106050000D03*
%TO.N,/CAN_controller/osc1*%
X193090000Y-90080000D03*
%TO.N,/CAN_controller/osc2*%
X189920000Y-88180000D03*
%TO.N,/MicroUSB_Port/VBUS*%
X158934999Y-109788478D03*
X160570000Y-115120000D03*
%TO.N,/VoltageRegulatorESD/power_led*%
X160530000Y-117300000D03*
D56*
%TO.N,/VoltageRegulatorESD/12v_in*%
X164330000Y-81420000D03*
D55*
%TO.N,/Microcontroller/SCL*%
X185510000Y-113660000D03*
X182640000Y-114460000D03*
%TO.N,/Microcontroller/SDA*%
X185665000Y-108725000D03*
X182680000Y-110640000D03*
%TO.N,/MicroUSB_Port/D-*%
X161378229Y-109546733D03*
X165100000Y-107760000D03*
%TO.N,/Microcontroller/TXD0*%
X180190000Y-113210000D03*
%TO.N,/MicroUSB_Port/TXD*%
X167454810Y-104359200D03*
X166790000Y-100270000D03*
X174400000Y-99360000D03*
X175650000Y-113910000D03*
X178560003Y-108720000D03*
%TO.N,/MicroUSB_Port/RXD*%
X167770000Y-100440000D03*
X167780000Y-103520000D03*
X177660000Y-108720000D03*
X173240000Y-99430000D03*
X177050000Y-110580000D03*
%TO.N,/Microcontroller/CAN_debug*%
X186800000Y-113770000D03*
%TO.N,/Microcontroller/BLE_debug*%
X165820000Y-117040000D03*
X187340000Y-113050000D03*
X164460000Y-121810000D03*
%TO.N,/VoltageRegulatorESD/EN*%
X161380000Y-85290000D03*
X176590000Y-86690000D03*
%TO.N,/VoltageRegulatorESD/FREQ*%
X166875000Y-85905000D03*
X162510000Y-83760000D03*
%TO.N,/CAN_controller/CAN_INT*%
X199910000Y-98280000D03*
%TO.N,/CAN_controller/CAN_CS*%
X185270000Y-100600000D03*
%TO.N,SCLK*%
X179710000Y-106070000D03*
%TO.N,MISO*%
X186320000Y-100590000D03*
%TO.N,MOSI*%
X187219492Y-100620320D03*
%TO.N,/Microcontroller/can_led*%
X160550000Y-120300000D03*
%TO.N,/Microcontroller/ble_led*%
X160560000Y-123300000D03*
D56*
%TO.N,/VoltageRegulatorESD/GND_resistence_protect*%
X164330000Y-79270000D03*
D55*
%TO.N,/Microcontroller/RXD0*%
X180160000Y-111930000D03*
%TD*%
D57*
%TO.N,/MicroUSB_Port/D+*%
X165420000Y-107060000D02*
X166150000Y-107790000D01*
X163150000Y-107060000D02*
X165420000Y-107060000D01*
X162078229Y-108131771D02*
X163150000Y-107060000D01*
X162078229Y-110166378D02*
X162078229Y-108131771D01*
X166150000Y-107790000D02*
X167330000Y-107790000D01*
X161142107Y-111102500D02*
X162078229Y-110166378D01*
X160095000Y-111102500D02*
X161142107Y-111102500D01*
%TO.N,GND*%
X178250000Y-89290000D02*
X178250000Y-89020000D01*
D58*
X157520000Y-83750000D02*
X158880000Y-83750000D01*
D59*
X169220000Y-100460000D02*
X169820000Y-99860000D01*
D58*
X161960000Y-96100000D02*
X161820000Y-95960000D01*
D59*
X163550000Y-90870000D02*
X163550000Y-89757500D01*
D58*
X161960000Y-97192500D02*
X161960000Y-96100000D01*
X170260000Y-93530000D02*
X170600000Y-93190000D01*
D59*
X161960000Y-104440000D02*
X161960000Y-103917500D01*
D58*
X179520000Y-87680000D02*
X179590000Y-87610000D01*
D57*
X160057500Y-112440000D02*
X160095000Y-112402500D01*
D59*
X163550000Y-106030000D02*
X161960000Y-104440000D01*
D58*
X190222500Y-83802500D02*
X189310000Y-83802500D01*
D57*
X169280000Y-107290000D02*
X169780000Y-107790000D01*
D58*
X188690000Y-117590000D02*
X186150000Y-117590000D01*
D59*
X169820000Y-99860000D02*
X171160000Y-99860000D01*
D57*
X162020000Y-112580000D02*
X161842500Y-112402500D01*
D58*
X177600000Y-87680000D02*
X179520000Y-87680000D01*
X168835000Y-93530000D02*
X170260000Y-93530000D01*
D57*
X177600000Y-88370000D02*
X177600000Y-87680000D01*
D58*
X184420000Y-88900000D02*
X184420000Y-87630000D01*
D57*
X168285000Y-84355000D02*
X168270000Y-84340000D01*
D59*
X181410000Y-117970000D02*
X181410000Y-116995000D01*
X175500000Y-100410000D02*
X172720000Y-100410000D01*
D57*
X167330000Y-107290000D02*
X169280000Y-107290000D01*
D59*
X170760000Y-86580000D02*
X170760000Y-87050000D01*
X170740000Y-85920000D02*
X170740000Y-86560000D01*
X170740000Y-86560000D02*
X170760000Y-86580000D01*
D57*
X168285000Y-85145000D02*
X168285000Y-84355000D01*
D59*
X172720000Y-100410000D02*
X172170000Y-99860000D01*
X198910000Y-117970000D02*
X198910000Y-116995000D01*
D57*
X161842500Y-112402500D02*
X160095000Y-112402500D01*
D58*
X190547500Y-92352500D02*
X190550000Y-92350000D01*
D59*
X172170000Y-99860000D02*
X171160000Y-99860000D01*
D58*
X189310000Y-92352500D02*
X190547500Y-92352500D01*
X193770000Y-117590000D02*
X191230000Y-117590000D01*
X195870000Y-99235000D02*
X195870000Y-96090000D01*
X195870000Y-96090000D02*
X195480000Y-95700000D01*
X177600000Y-83580000D02*
X177600000Y-82360000D01*
D59*
X170100000Y-85920000D02*
X170740000Y-85920000D01*
D58*
X196310000Y-117590000D02*
X193770000Y-117590000D01*
D57*
X178250000Y-89020000D02*
X177600000Y-88370000D01*
D58*
X186150000Y-117590000D02*
X183610000Y-117590000D01*
X191230000Y-117590000D02*
X188690000Y-117590000D01*
D59*
X165650000Y-90860000D02*
X165650000Y-89757500D01*
D58*
X190760000Y-84340000D02*
X190222500Y-83802500D01*
D57*
%TO.N,+3V3*%
X167110000Y-96550000D02*
X167110000Y-96540000D01*
X183010000Y-101160000D02*
X183010000Y-99100000D01*
X197440000Y-115310000D02*
X197860000Y-115730000D01*
X197860000Y-115730000D02*
X198905000Y-115730000D01*
X184510000Y-102660000D02*
X183010000Y-101160000D01*
X183010000Y-99100000D02*
X180460000Y-96550000D01*
X171650000Y-114220000D02*
X172870000Y-114220000D01*
X164500000Y-108790000D02*
X167330000Y-108790000D01*
X163970000Y-108260000D02*
X164500000Y-108790000D01*
X180460000Y-96550000D02*
X167110000Y-96550000D01*
X198905000Y-115730000D02*
X198910000Y-115725000D01*
X184510000Y-103110000D02*
X184510000Y-102660000D01*
X167330000Y-109290000D02*
X167330000Y-108790000D01*
X167110000Y-96540000D02*
X164710000Y-94140000D01*
%TO.N,IO0*%
X181880000Y-99440000D02*
X181410000Y-99910000D01*
X179860000Y-99860000D02*
X178960000Y-99860000D01*
X182130000Y-99440000D02*
X181880000Y-99440000D01*
X181410000Y-100485000D02*
X180485000Y-100485000D01*
X175970000Y-106260000D02*
X175770000Y-106460000D01*
X175770000Y-106460000D02*
X175770000Y-107370000D01*
X181410000Y-99910000D02*
X181410000Y-100485000D01*
X180485000Y-100485000D02*
X179860000Y-99860000D01*
%TO.N,EN*%
X189800000Y-103220000D02*
X187250000Y-105770000D01*
X185270000Y-107750000D02*
X185270000Y-107760000D01*
X174240000Y-109950000D02*
X174240000Y-110220000D01*
X191600000Y-97830000D02*
X190960000Y-97190000D01*
X197609998Y-112300000D02*
X197609998Y-114049998D01*
X174240000Y-110220000D02*
X174890000Y-110870000D01*
X187440000Y-97190000D02*
X185680000Y-95430000D01*
X197609998Y-114049998D02*
X198015000Y-114455000D01*
X185270000Y-107760000D02*
X185000000Y-108030000D01*
X198015000Y-114455000D02*
X198910000Y-114455000D01*
X187250000Y-105770000D02*
X185270000Y-107750000D01*
X185680000Y-95430000D02*
X184420000Y-95430000D01*
X189800000Y-100870000D02*
X189800000Y-103220000D01*
X190960000Y-97190000D02*
X187440000Y-97190000D01*
D59*
%TO.N,/VoltageRegulatorESD/BST*%
X168285000Y-88955000D02*
X168285000Y-90165000D01*
X168285000Y-90165000D02*
X168990000Y-90870000D01*
X168990000Y-90870000D02*
X169755000Y-90870000D01*
%TO.N,/VoltageRegulatorESD/Vout*%
X180360000Y-94860000D02*
X180360000Y-92070000D01*
X167050000Y-93390000D02*
X167050000Y-94750000D01*
X165760000Y-92100000D02*
X167050000Y-93390000D01*
X158210000Y-99550000D02*
X160240000Y-99550000D01*
X160240000Y-99550000D02*
X160522500Y-99267500D01*
X167980000Y-95680000D02*
X179540000Y-95680000D01*
X167050000Y-94750000D02*
X167980000Y-95680000D01*
X160600000Y-93200000D02*
X161700000Y-92100000D01*
X160522500Y-99267500D02*
X161960000Y-99267500D01*
X161960000Y-101842500D02*
X161960000Y-99267500D01*
X179540000Y-95680000D02*
X180360000Y-94860000D01*
X161700000Y-92100000D02*
X165760000Y-92100000D01*
%TO.N,/VoltageRegulatorESD/12v_fuse*%
X162302500Y-87682500D02*
X163550000Y-87682500D01*
X159650000Y-91300000D02*
X159650000Y-86300000D01*
X159650000Y-86300000D02*
X160920000Y-86300000D01*
X160920000Y-86300000D02*
X162302500Y-87682500D01*
%TO.N,Net-(C11-Pad2)*%
X177657500Y-85610000D02*
X179590000Y-85610000D01*
%TO.N,/VoltageRegulatorESD/COMP*%
X174255000Y-86415000D02*
X175060000Y-85610000D01*
X175060000Y-85610000D02*
X175582500Y-85610000D01*
X173235000Y-86415000D02*
X174255000Y-86415000D01*
D57*
%TO.N,5v*%
X160560000Y-102100000D02*
X160010000Y-101550000D01*
X160010000Y-101550000D02*
X158210000Y-101550000D01*
X160560000Y-104440000D02*
X160560000Y-102100000D01*
X162170000Y-106050000D02*
X160560000Y-104440000D01*
%TO.N,/CAN_controller/osc1*%
X189312500Y-94430000D02*
X189310000Y-94427500D01*
X193090000Y-90080000D02*
X193100000Y-90090000D01*
X193100000Y-94430000D02*
X189312500Y-94430000D01*
X193100000Y-90090000D02*
X193100000Y-94430000D01*
%TO.N,/CAN_controller/osc2*%
X189310000Y-86320000D02*
X189310000Y-85877500D01*
X189920000Y-86930000D02*
X189310000Y-86320000D01*
X189920000Y-87510000D02*
X190450000Y-86980000D01*
X190450000Y-86980000D02*
X191500000Y-85930000D01*
X189920000Y-88180000D02*
X189920000Y-87510000D01*
X189920000Y-87510000D02*
X189920000Y-86930000D01*
X191500000Y-85930000D02*
X193100000Y-85930000D01*
%TO.N,/MicroUSB_Port/VBUS*%
X167580000Y-110240000D02*
X168280000Y-110240000D01*
X158949021Y-109802500D02*
X160095000Y-109802500D01*
X160570000Y-115120000D02*
X162700000Y-115120000D01*
X162700000Y-115120000D02*
X167580000Y-110240000D01*
X158934999Y-109788478D02*
X158949021Y-109802500D01*
%TO.N,/VoltageRegulatorESD/power_led*%
X160530000Y-117300000D02*
X159587500Y-117300000D01*
D59*
%TO.N,/VoltageRegulatorESD/12v_in*%
X161090000Y-81368100D02*
X160508100Y-81368100D01*
X159650000Y-80510000D02*
X159650000Y-76300000D01*
X164334000Y-82590001D02*
X164334000Y-81424000D01*
X159650000Y-76300000D02*
X159650000Y-71300000D01*
X160508100Y-81368100D02*
X159650000Y-80510000D01*
X164334000Y-82590001D02*
X162780001Y-82590001D01*
X162780001Y-82590001D02*
X161558100Y-81368100D01*
X164334000Y-81424000D02*
X164330000Y-81420000D01*
X161558100Y-81368100D02*
X161090000Y-81368100D01*
D58*
%TO.N,/VoltageRegulatorESD/Car_Battery_12v*%
X165180000Y-74460000D02*
X165180000Y-74673001D01*
D60*
X165180000Y-74673001D02*
X170806999Y-80300000D01*
D57*
%TO.N,/Microcontroller/RX2*%
X166690000Y-97250000D02*
X164720000Y-99220000D01*
X179675000Y-103025000D02*
X178250000Y-101600000D01*
X181410000Y-103025000D02*
X179675000Y-103025000D01*
X178250000Y-101600000D02*
X173900000Y-97250000D01*
X173900000Y-97250000D02*
X166690000Y-97250000D01*
X164720000Y-99220000D02*
X164710000Y-99220000D01*
%TO.N,/Microcontroller/TX2*%
X181410000Y-104295000D02*
X179475000Y-104295000D01*
X173121989Y-102070000D02*
X173121989Y-102000000D01*
X172881989Y-101210000D02*
X172761989Y-101210000D01*
X172066927Y-101760000D02*
X164710000Y-101760000D01*
X173721989Y-102000000D02*
X173721989Y-102070000D01*
X172281989Y-101760000D02*
X172161989Y-101760000D01*
X179475000Y-104295000D02*
X176940000Y-101760000D01*
X173481989Y-102310000D02*
X173361989Y-102310000D01*
X172161989Y-101760000D02*
X172066927Y-101760000D01*
X176940000Y-101760000D02*
X173961989Y-101760000D01*
X172521989Y-101450000D02*
X172521989Y-101520000D01*
X173121989Y-102000000D02*
X173121989Y-101450000D01*
X173121989Y-101450000D02*
G75*
G03*
X172881989Y-101210011I-239989J0D01*
G01*
X173721989Y-102070000D02*
G75*
G02*
X173481989Y-102309989I-239989J0D01*
G01*
X173361989Y-102310000D02*
G75*
G02*
X173122000Y-102070000I11J240000D01*
G01*
X172761989Y-101210000D02*
G75*
G03*
X172522000Y-101450000I11J-240000D01*
G01*
X172521989Y-101520000D02*
G75*
G02*
X172281989Y-101759989I-239989J0D01*
G01*
X173961989Y-101760000D02*
G75*
G03*
X173722000Y-102000000I11J-240000D01*
G01*
%TO.N,/Microcontroller/SCL*%
X186660000Y-112510000D02*
X186660000Y-108790000D01*
X197460000Y-99170000D02*
X200330000Y-96300000D01*
X200330000Y-96300000D02*
X200330000Y-94610000D01*
X181410000Y-114455000D02*
X182635000Y-114455000D01*
X186660000Y-108790000D02*
X188710000Y-106740000D01*
X193317106Y-106740000D02*
X197460000Y-102597106D01*
X200330000Y-94610000D02*
X198640000Y-92920000D01*
X197460000Y-102597106D02*
X197460000Y-99170000D01*
X182635000Y-114455000D02*
X182640000Y-114460000D01*
X198640000Y-92920000D02*
X198630000Y-92920000D01*
X185510000Y-113660000D02*
X186660000Y-112510000D01*
X188710000Y-106740000D02*
X193317106Y-106740000D01*
%TO.N,/Microcontroller/SDA*%
X188510000Y-105880000D02*
X192880000Y-105880000D01*
X181410000Y-110645000D02*
X182675000Y-110645000D01*
X182675000Y-110645000D02*
X182680000Y-110640000D01*
X198620000Y-90380000D02*
X198630000Y-90380000D01*
X185665000Y-108725000D02*
X188510000Y-105880000D01*
X196880000Y-92120000D02*
X198620000Y-90380000D01*
X196880000Y-101880000D02*
X196880000Y-92120000D01*
X192880000Y-105880000D02*
X196880000Y-101880000D01*
%TO.N,/MicroUSB_Port/D-*%
X161085000Y-110452500D02*
X161378229Y-110159271D01*
X161378229Y-110159271D02*
X161378229Y-109546733D01*
X165630000Y-108290000D02*
X167330000Y-108290000D01*
X165100000Y-107760000D02*
X165630000Y-108290000D01*
X160095000Y-110452500D02*
X161085000Y-110452500D01*
%TO.N,/MicroUSB_Port/dtr_to_en*%
X176970000Y-108340000D02*
X176970000Y-104030000D01*
X176460000Y-108850000D02*
X176970000Y-108340000D01*
X176580000Y-103640000D02*
X175840000Y-103640000D01*
X176970000Y-104030000D02*
X176580000Y-103640000D01*
X175840000Y-108850000D02*
X176460000Y-108850000D01*
%TO.N,/MicroUSB_Port/RTS*%
X173110000Y-108520000D02*
X173440000Y-108850000D01*
X173110000Y-104890000D02*
X173110000Y-108520000D01*
X170280000Y-104610000D02*
X170590000Y-104300000D01*
X173930000Y-112560000D02*
X173930000Y-110990000D01*
X170280000Y-105340000D02*
X170280000Y-104610000D01*
X170590000Y-104300000D02*
X172520000Y-104300000D01*
X173930000Y-110990000D02*
X173110000Y-110170000D01*
X172520000Y-104300000D02*
X173110000Y-104890000D01*
X173110000Y-110170000D02*
X173110000Y-108520000D01*
X173930000Y-108860000D02*
X173940000Y-108850000D01*
X173440000Y-108850000D02*
X173940000Y-108850000D01*
%TO.N,/MicroUSB_Port/rts_to_io0*%
X174890000Y-109390000D02*
X174890000Y-107890000D01*
X175930000Y-110430000D02*
X174890000Y-109390000D01*
X174890000Y-107890000D02*
X174370000Y-107370000D01*
X175930000Y-112560000D02*
X175930000Y-110430000D01*
X174370000Y-107370000D02*
X173870000Y-107370000D01*
%TO.N,/MicroUSB_Port/DTR*%
X174820000Y-105350000D02*
X174820000Y-104620000D01*
X167540000Y-102730000D02*
X166570000Y-103700000D01*
X172770000Y-103640000D02*
X171860000Y-102730000D01*
X174820000Y-104620000D02*
X173840000Y-103640000D01*
X166570000Y-103700000D02*
X166570000Y-104830000D01*
X171860000Y-102730000D02*
X167540000Y-102730000D01*
X173840000Y-103640000D02*
X172770000Y-103640000D01*
X166570000Y-104830000D02*
X167080000Y-105340000D01*
X167080000Y-105340000D02*
X168280000Y-105340000D01*
%TO.N,/Microcontroller/TXD0*%
X181410000Y-113185000D02*
X180215000Y-113185000D01*
X180215000Y-113185000D02*
X180190000Y-113210000D01*
%TO.N,/MicroUSB_Port/TXD*%
X175650000Y-113910000D02*
X177160000Y-113910000D01*
X168872094Y-104359200D02*
X167454810Y-104359200D01*
X169280000Y-105340000D02*
X169280000Y-104767106D01*
X172820000Y-97780000D02*
X174400000Y-99360000D01*
X177360000Y-111600000D02*
X178560003Y-110399997D01*
X177360000Y-113710000D02*
X177360000Y-111600000D01*
X166790000Y-100270000D02*
X166790000Y-100260000D01*
X169280000Y-104767106D02*
X168926447Y-104413553D01*
X169270000Y-97780000D02*
X172820000Y-97780000D01*
X178560003Y-110399997D02*
X178560003Y-108720000D01*
X177160000Y-113910000D02*
X177360000Y-113710000D01*
X168926447Y-104413553D02*
X168872094Y-104359200D01*
X166790000Y-100260000D02*
X169270000Y-97780000D01*
%TO.N,/MicroUSB_Port/RXD*%
X168040000Y-103780000D02*
X169000000Y-103780000D01*
X167800000Y-100440000D02*
X169680000Y-98560000D01*
X167770000Y-100440000D02*
X167800000Y-100440000D01*
X169000000Y-103780000D02*
X169780000Y-104560000D01*
X172370000Y-98560000D02*
X173240000Y-99430000D01*
X169680000Y-98560000D02*
X172370000Y-98560000D01*
X177050000Y-110580000D02*
X177660000Y-109970000D01*
X169780000Y-104560000D02*
X169780000Y-105340000D01*
X167780000Y-103520000D02*
X168040000Y-103780000D01*
X177660000Y-109970000D02*
X177660000Y-108720000D01*
%TO.N,/Microcontroller/CAN_debug*%
X186800000Y-113770000D02*
X186810000Y-113780000D01*
X195080000Y-112300000D02*
X195080000Y-107250000D01*
X186810000Y-113780000D02*
X193600000Y-113780000D01*
X193600000Y-113780000D02*
X195080000Y-112300000D01*
X195080000Y-107250000D02*
X196765000Y-105565000D01*
X196765000Y-105565000D02*
X198910000Y-105565000D01*
%TO.N,/Microcontroller/BLE_debug*%
X163670000Y-119050000D02*
X165680000Y-117040000D01*
X165680000Y-117040000D02*
X165820000Y-117040000D01*
X196925000Y-104295000D02*
X198910000Y-104295000D01*
X194270000Y-111880000D02*
X194270000Y-106950000D01*
X164460000Y-121810000D02*
X163670000Y-121020000D01*
X163670000Y-121020000D02*
X163670000Y-119050000D01*
X194270000Y-106950000D02*
X196925000Y-104295000D01*
X193100000Y-113050000D02*
X194270000Y-111880000D01*
X187340000Y-113050000D02*
X193100000Y-113050000D01*
D59*
%TO.N,/VoltageRegulatorESD/EN*%
X175595000Y-87685000D02*
X175600000Y-87680000D01*
D57*
X175600000Y-87680000D02*
X176590000Y-86690000D01*
X161380000Y-85290000D02*
X163150000Y-85290000D01*
D59*
X173235000Y-87685000D02*
X175595000Y-87685000D01*
D57*
X175600000Y-87680000D02*
X175600000Y-87660745D01*
%TO.N,/VoltageRegulatorESD/FREQ*%
X162500000Y-83750000D02*
X160880000Y-83750000D01*
X166875000Y-85905000D02*
X167385000Y-86415000D01*
X162510000Y-83760000D02*
X162500000Y-83750000D01*
X167385000Y-86415000D02*
X168285000Y-86415000D01*
D59*
%TO.N,/VoltageRegulatorESD/FB*%
X173235000Y-85145000D02*
X174035000Y-85145000D01*
X174035000Y-85145000D02*
X175600000Y-83580000D01*
X175600000Y-83580000D02*
X175600000Y-81540000D01*
D57*
%TO.N,/MicroUSB_Port/RST*%
X170840000Y-112220000D02*
X169980000Y-111360000D01*
X168780000Y-110860000D02*
X168780000Y-110240000D01*
X169280000Y-111360000D02*
X168780000Y-110860000D01*
X169980000Y-111360000D02*
X169280000Y-111360000D01*
X171650000Y-112220000D02*
X170840000Y-112220000D01*
%TO.N,/CAN_controller/CAN_INT*%
X200300000Y-102720000D02*
X200300000Y-98670000D01*
X200300000Y-98670000D02*
X199910000Y-98280000D01*
X198910000Y-103025000D02*
X199995000Y-103025000D01*
X199995000Y-103025000D02*
X200300000Y-102720000D01*
%TO.N,/CAN_controller/CAN_CS*%
X185270000Y-100600000D02*
X185270000Y-103880000D01*
X183585000Y-105565000D02*
X181410000Y-105565000D01*
X185270000Y-103880000D02*
X183585000Y-105565000D01*
%TO.N,SCLK*%
X180475000Y-106835000D02*
X181410000Y-106835000D01*
X179710000Y-106070000D02*
X180475000Y-106835000D01*
%TO.N,MISO*%
X186320000Y-100590000D02*
X186320000Y-104190000D01*
X182405000Y-108105000D02*
X181410000Y-108105000D01*
X186320000Y-104190000D02*
X182405000Y-108105000D01*
%TO.N,MOSI*%
X187230000Y-104520000D02*
X187230000Y-100630828D01*
X181410000Y-115725000D02*
X182705000Y-115725000D01*
X182705000Y-115725000D02*
X183560000Y-114870000D01*
X183560000Y-108190000D02*
X187230000Y-104520000D01*
X187230000Y-100630828D02*
X187219492Y-100620320D01*
X183560000Y-114870000D02*
X183560000Y-108190000D01*
%TO.N,/Microcontroller/can_led*%
X159587500Y-120300000D02*
X160550000Y-120300000D01*
%TO.N,/Microcontroller/ble_led*%
X159587500Y-123300000D02*
X160560000Y-123300000D01*
D59*
%TO.N,/VoltageRegulatorESD/GND_resistence_protect*%
X164330000Y-79270000D02*
X164334000Y-79266000D01*
X161090000Y-78751900D02*
X161868100Y-78751900D01*
X164334000Y-79266000D02*
X164334000Y-78009999D01*
X162610001Y-78009999D02*
X164334000Y-78009999D01*
X161868100Y-78751900D02*
X162610001Y-78009999D01*
D57*
%TO.N,/Microcontroller/RXD0*%
X180175000Y-111915000D02*
X180160000Y-111930000D01*
X181395000Y-111900000D02*
X181410000Y-111915000D01*
X181410000Y-111915000D02*
X180175000Y-111915000D01*
%TD*%
%TA.AperFunction,Conductor*%
%TO.N,/VoltageRegulatorESD/Vout*%
G36*
X179375677Y-78769685D02*
G01*
X179396319Y-78786319D01*
X179803681Y-79193681D01*
X179837166Y-79255004D01*
X179840000Y-79281362D01*
X179840000Y-83030000D01*
X181563681Y-84753681D01*
X181597166Y-84815004D01*
X181600000Y-84841362D01*
X181600000Y-94806000D01*
X181580315Y-94873039D01*
X181527511Y-94918794D01*
X181476000Y-94930000D01*
X179271362Y-94930000D01*
X179204323Y-94910315D01*
X179183681Y-94893681D01*
X179176319Y-94886319D01*
X179142834Y-94824996D01*
X179140000Y-94798638D01*
X179140000Y-89254000D01*
X179159685Y-89186961D01*
X179212489Y-89141206D01*
X179264000Y-89130000D01*
X180320000Y-89130000D01*
X180910000Y-88540000D01*
X180910000Y-84970000D01*
X179011837Y-83030000D01*
X178732558Y-82744565D01*
X178699744Y-82682881D01*
X178697386Y-82664807D01*
X178650469Y-81830470D01*
X178650467Y-81830466D01*
X178370000Y-81550000D01*
X178226217Y-81550000D01*
X178159178Y-81530315D01*
X178157326Y-81529102D01*
X178073920Y-81473371D01*
X178073907Y-81473364D01*
X177891839Y-81397950D01*
X177891829Y-81397947D01*
X177808406Y-81381353D01*
X177746495Y-81348968D01*
X177744917Y-81347417D01*
X176757500Y-80360000D01*
X174971362Y-80360000D01*
X174904323Y-80340315D01*
X174883681Y-80323681D01*
X174836319Y-80276319D01*
X174802834Y-80214996D01*
X174800000Y-80188638D01*
X174800000Y-78921362D01*
X174819685Y-78854323D01*
X174836319Y-78833681D01*
X174883681Y-78786319D01*
X174945004Y-78752834D01*
X174971362Y-78750000D01*
X179308638Y-78750000D01*
X179375677Y-78769685D01*
G37*
%TD.AperFunction*%
%TD*%
%TA.AperFunction,Conductor*%
%TO.N,GND*%
G36*
X177077870Y-102831076D02*
G01*
X177117948Y-102857894D01*
X179060324Y-104800271D01*
X179060327Y-104800274D01*
X179156411Y-104864475D01*
X179156412Y-104864475D01*
X179156413Y-104864476D01*
X179166873Y-104871465D01*
X179285256Y-104920501D01*
X179285260Y-104920501D01*
X179285261Y-104920502D01*
X179410928Y-104945500D01*
X179410931Y-104945500D01*
X180035500Y-104945500D01*
X180102539Y-104965185D01*
X180148294Y-105017989D01*
X180159500Y-105069500D01*
X180159500Y-105148198D01*
X180139815Y-105215237D01*
X180087011Y-105260992D01*
X180017853Y-105270936D01*
X179985070Y-105261480D01*
X179974268Y-105256671D01*
X179974265Y-105256670D01*
X179833104Y-105226666D01*
X179799391Y-105219500D01*
X179620609Y-105219500D01*
X179589954Y-105226015D01*
X179445733Y-105256670D01*
X179445728Y-105256672D01*
X179282408Y-105329387D01*
X179137768Y-105434475D01*
X179018140Y-105567336D01*
X178928750Y-105722164D01*
X178928747Y-105722170D01*
X178873504Y-105892192D01*
X178873503Y-105892194D01*
X178854815Y-106070000D01*
X178873503Y-106247805D01*
X178873504Y-106247807D01*
X178928747Y-106417829D01*
X178928750Y-106417835D01*
X179018141Y-106572665D01*
X179025222Y-106580529D01*
X179137764Y-106705521D01*
X179137767Y-106705523D01*
X179137770Y-106705526D01*
X179282407Y-106810612D01*
X179445733Y-106883329D01*
X179445735Y-106883329D01*
X179445736Y-106883330D01*
X179502275Y-106895347D01*
X179610010Y-106918247D01*
X179671490Y-106951438D01*
X179671909Y-106951855D01*
X180060324Y-107340271D01*
X180060327Y-107340274D01*
X180125144Y-107383583D01*
X180169949Y-107437195D01*
X180178656Y-107506520D01*
X180172436Y-107530014D01*
X180165909Y-107547513D01*
X180165908Y-107547517D01*
X180161475Y-107588755D01*
X180159501Y-107607123D01*
X180159500Y-107607135D01*
X180159500Y-108602870D01*
X180159501Y-108602876D01*
X180165908Y-108662481D01*
X180178659Y-108696669D01*
X180183642Y-108766361D01*
X180178659Y-108783331D01*
X180165908Y-108817518D01*
X180162931Y-108845211D01*
X180159501Y-108877123D01*
X180159500Y-108877135D01*
X180159500Y-109872870D01*
X180159501Y-109872876D01*
X180165908Y-109932481D01*
X180178659Y-109966669D01*
X180183642Y-110036361D01*
X180178659Y-110053331D01*
X180165908Y-110087518D01*
X180159501Y-110147116D01*
X180159501Y-110147123D01*
X180159500Y-110147135D01*
X180159500Y-110960192D01*
X180139815Y-111027231D01*
X180087011Y-111072986D01*
X180061281Y-111081482D01*
X179895733Y-111116670D01*
X179895728Y-111116672D01*
X179732408Y-111189387D01*
X179587768Y-111294475D01*
X179468140Y-111427336D01*
X179378750Y-111582164D01*
X179378747Y-111582170D01*
X179323504Y-111752192D01*
X179323503Y-111752194D01*
X179304815Y-111930000D01*
X179323503Y-112107805D01*
X179323504Y-112107807D01*
X179378747Y-112277829D01*
X179378750Y-112277835D01*
X179468140Y-112432664D01*
X179532089Y-112503687D01*
X179562319Y-112566679D01*
X179553693Y-112636014D01*
X179532090Y-112669630D01*
X179498140Y-112707336D01*
X179408750Y-112862164D01*
X179408747Y-112862170D01*
X179353504Y-113032192D01*
X179353503Y-113032194D01*
X179334815Y-113210000D01*
X179353503Y-113387805D01*
X179353504Y-113387807D01*
X179408747Y-113557829D01*
X179408750Y-113557835D01*
X179498141Y-113712665D01*
X179531756Y-113749998D01*
X179617764Y-113845521D01*
X179617767Y-113845523D01*
X179617770Y-113845526D01*
X179762407Y-113950612D01*
X179925733Y-114023329D01*
X179925735Y-114023329D01*
X179925736Y-114023330D01*
X179992591Y-114037540D01*
X180061281Y-114052140D01*
X180122762Y-114085332D01*
X180156539Y-114146495D01*
X180159500Y-114173430D01*
X180159500Y-114952870D01*
X180159501Y-114952876D01*
X180165908Y-115012481D01*
X180178659Y-115046669D01*
X180183642Y-115116361D01*
X180178659Y-115133331D01*
X180165908Y-115167518D01*
X180159501Y-115227116D01*
X180159501Y-115227123D01*
X180159500Y-115227135D01*
X180159500Y-116222870D01*
X180159501Y-116222876D01*
X180165908Y-116282483D01*
X180178925Y-116317381D01*
X180183909Y-116387072D01*
X180178925Y-116404047D01*
X180166403Y-116437619D01*
X180166401Y-116437627D01*
X180160000Y-116497155D01*
X180160000Y-116745000D01*
X182660000Y-116745000D01*
X182660000Y-116498629D01*
X182679685Y-116431590D01*
X182732489Y-116385835D01*
X182763263Y-116377542D01*
X182763094Y-116376689D01*
X182869608Y-116355501D01*
X182894744Y-116350501D01*
X183013127Y-116301465D01*
X183041536Y-116282483D01*
X183041538Y-116282482D01*
X183081210Y-116255974D01*
X183119669Y-116230277D01*
X184065277Y-115284669D01*
X184136466Y-115178126D01*
X184169034Y-115099499D01*
X184185501Y-115059744D01*
X184204911Y-114962165D01*
X184210500Y-114934071D01*
X184210500Y-108747255D01*
X184230185Y-108680216D01*
X184282989Y-108634461D01*
X184352147Y-108624517D01*
X184415703Y-108653542D01*
X184426651Y-108664284D01*
X184427765Y-108665522D01*
X184427767Y-108665523D01*
X184427770Y-108665526D01*
X184572407Y-108770612D01*
X184735733Y-108843329D01*
X184744598Y-108845213D01*
X184806078Y-108878401D01*
X184836750Y-108928185D01*
X184883747Y-109072828D01*
X184883750Y-109072835D01*
X184973141Y-109227665D01*
X185009997Y-109268598D01*
X185092764Y-109360521D01*
X185092767Y-109360523D01*
X185092770Y-109360526D01*
X185237407Y-109465612D01*
X185400733Y-109538329D01*
X185575609Y-109575500D01*
X185575610Y-109575500D01*
X185754389Y-109575500D01*
X185754391Y-109575500D01*
X185859721Y-109553111D01*
X185929385Y-109558427D01*
X185985119Y-109600563D01*
X186009225Y-109666143D01*
X186009500Y-109674401D01*
X186009500Y-112189192D01*
X185989815Y-112256231D01*
X185973181Y-112276873D01*
X185471909Y-112778144D01*
X185410586Y-112811629D01*
X185410009Y-112811753D01*
X185245733Y-112846670D01*
X185245728Y-112846672D01*
X185082408Y-112919387D01*
X184937768Y-113024475D01*
X184818140Y-113157336D01*
X184728750Y-113312164D01*
X184728747Y-113312170D01*
X184673504Y-113482192D01*
X184673503Y-113482194D01*
X184654815Y-113660000D01*
X184673503Y-113837805D01*
X184673504Y-113837807D01*
X184728747Y-114007829D01*
X184728750Y-114007835D01*
X184818141Y-114162665D01*
X184859812Y-114208946D01*
X184937764Y-114295521D01*
X184937767Y-114295523D01*
X184937770Y-114295526D01*
X185082407Y-114400612D01*
X185245733Y-114473329D01*
X185420609Y-114510500D01*
X185420610Y-114510500D01*
X185599389Y-114510500D01*
X185599391Y-114510500D01*
X185774267Y-114473329D01*
X185937593Y-114400612D01*
X186020010Y-114340732D01*
X186085816Y-114317251D01*
X186153870Y-114333076D01*
X186185046Y-114358077D01*
X186227764Y-114405521D01*
X186227767Y-114405523D01*
X186227770Y-114405526D01*
X186372407Y-114510612D01*
X186535733Y-114583329D01*
X186710609Y-114620500D01*
X186710610Y-114620500D01*
X186889389Y-114620500D01*
X186889391Y-114620500D01*
X187064267Y-114583329D01*
X187227593Y-114510612D01*
X187234778Y-114505391D01*
X187305263Y-114454182D01*
X187371069Y-114430702D01*
X187378148Y-114430500D01*
X193664071Y-114430500D01*
X193767212Y-114409983D01*
X193789744Y-114405501D01*
X193908127Y-114356465D01*
X193939502Y-114335501D01*
X194014669Y-114285277D01*
X195585277Y-112714669D01*
X195656465Y-112608127D01*
X195705501Y-112489744D01*
X195708725Y-112473535D01*
X195730500Y-112364069D01*
X195730500Y-107570808D01*
X195750185Y-107503769D01*
X195766819Y-107483127D01*
X196998127Y-106251819D01*
X197059450Y-106218334D01*
X197085808Y-106215500D01*
X197535500Y-106215500D01*
X197602539Y-106235185D01*
X197648294Y-106287989D01*
X197659500Y-106339500D01*
X197659500Y-107332870D01*
X197659501Y-107332876D01*
X197665908Y-107392481D01*
X197678659Y-107426669D01*
X197683642Y-107496361D01*
X197678659Y-107513331D01*
X197665908Y-107547518D01*
X197661475Y-107588755D01*
X197659501Y-107607123D01*
X197659500Y-107607135D01*
X197659500Y-108602870D01*
X197659501Y-108602876D01*
X197665908Y-108662481D01*
X197678659Y-108696669D01*
X197683642Y-108766361D01*
X197678659Y-108783331D01*
X197665908Y-108817518D01*
X197662931Y-108845211D01*
X197659501Y-108877123D01*
X197659500Y-108877135D01*
X197659500Y-109872870D01*
X197659501Y-109872876D01*
X197665908Y-109932481D01*
X197678659Y-109966669D01*
X197683642Y-110036361D01*
X197678659Y-110053331D01*
X197665908Y-110087518D01*
X197659501Y-110147116D01*
X197659501Y-110147123D01*
X197659500Y-110147135D01*
X197659500Y-111142870D01*
X197659501Y-111142876D01*
X197665908Y-111202481D01*
X197678659Y-111236669D01*
X197683642Y-111306361D01*
X197678659Y-111323331D01*
X197667595Y-111352998D01*
X197663199Y-111364784D01*
X197661057Y-111363985D01*
X197632169Y-111414726D01*
X197570261Y-111447115D01*
X197546060Y-111449500D01*
X197520607Y-111449500D01*
X197489952Y-111456015D01*
X197345731Y-111486670D01*
X197345726Y-111486672D01*
X197182406Y-111559387D01*
X197037766Y-111664475D01*
X196918138Y-111797336D01*
X196828748Y-111952164D01*
X196828745Y-111952170D01*
X196773502Y-112122192D01*
X196773501Y-112122194D01*
X196754813Y-112300000D01*
X196773501Y-112477805D01*
X196773502Y-112477807D01*
X196828745Y-112647829D01*
X196828748Y-112647835D01*
X196918139Y-112802665D01*
X196926322Y-112811753D01*
X196927646Y-112813223D01*
X196957877Y-112876213D01*
X196959498Y-112896197D01*
X196959498Y-114114068D01*
X196980470Y-114219495D01*
X196980470Y-114219497D01*
X196984495Y-114239734D01*
X196984499Y-114239747D01*
X197032845Y-114356466D01*
X197033533Y-114358125D01*
X197055963Y-114391694D01*
X197076840Y-114458372D01*
X197058355Y-114525752D01*
X197017530Y-114565381D01*
X197017666Y-114565568D01*
X197016367Y-114566511D01*
X197014870Y-114567965D01*
X197012417Y-114569381D01*
X196867768Y-114674475D01*
X196748140Y-114807336D01*
X196658750Y-114962164D01*
X196658747Y-114962170D01*
X196603504Y-115132192D01*
X196603503Y-115132194D01*
X196584815Y-115310000D01*
X196603503Y-115487805D01*
X196603504Y-115487807D01*
X196658747Y-115657829D01*
X196658750Y-115657835D01*
X196748141Y-115812665D01*
X196789812Y-115858946D01*
X196867764Y-115945521D01*
X196867767Y-115945523D01*
X196867770Y-115945526D01*
X197012407Y-116050612D01*
X197175733Y-116123329D01*
X197175735Y-116123329D01*
X197175736Y-116123330D01*
X197232275Y-116135347D01*
X197340010Y-116158247D01*
X197401490Y-116191438D01*
X197401910Y-116191856D01*
X197445332Y-116235278D01*
X197544390Y-116301466D01*
X197544393Y-116301467D01*
X197551870Y-116306463D01*
X197551878Y-116306468D01*
X197589259Y-116321951D01*
X197643663Y-116365791D01*
X197665728Y-116432085D01*
X197665096Y-116449768D01*
X197660000Y-116497155D01*
X197660000Y-116745000D01*
X200160000Y-116745000D01*
X200160000Y-116497172D01*
X200159999Y-116497155D01*
X200153597Y-116437622D01*
X200153597Y-116437620D01*
X200141075Y-116404048D01*
X200136089Y-116334356D01*
X200141071Y-116317390D01*
X200154091Y-116282483D01*
X200160500Y-116222873D01*
X200160499Y-115227128D01*
X200154091Y-115167517D01*
X200141340Y-115133332D01*
X200136357Y-115063642D01*
X200141340Y-115046669D01*
X200154091Y-115012483D01*
X200160500Y-114952873D01*
X200160499Y-113957128D01*
X200154091Y-113897517D01*
X200141340Y-113863332D01*
X200136357Y-113793642D01*
X200141338Y-113776672D01*
X200154091Y-113742483D01*
X200160500Y-113682873D01*
X200160499Y-112687128D01*
X200154091Y-112627517D01*
X200141340Y-112593332D01*
X200136357Y-112523642D01*
X200141338Y-112506672D01*
X200154091Y-112472483D01*
X200160500Y-112412873D01*
X200160499Y-111417128D01*
X200154091Y-111357517D01*
X200141340Y-111323332D01*
X200136357Y-111253642D01*
X200141340Y-111236669D01*
X200154091Y-111202483D01*
X200160500Y-111142873D01*
X200160499Y-110147128D01*
X200154091Y-110087517D01*
X200141340Y-110053332D01*
X200136357Y-109983642D01*
X200141340Y-109966669D01*
X200154091Y-109932483D01*
X200160500Y-109872873D01*
X200160499Y-108877128D01*
X200154091Y-108817517D01*
X200141340Y-108783332D01*
X200136357Y-108713642D01*
X200141340Y-108696669D01*
X200154091Y-108662483D01*
X200160500Y-108602873D01*
X200160499Y-107607128D01*
X200154091Y-107547517D01*
X200141340Y-107513332D01*
X200136357Y-107443642D01*
X200141340Y-107426669D01*
X200154091Y-107392483D01*
X200160500Y-107332873D01*
X200160499Y-106337128D01*
X200154091Y-106277517D01*
X200141340Y-106243332D01*
X200136357Y-106173642D01*
X200141338Y-106156672D01*
X200154091Y-106122483D01*
X200160500Y-106062873D01*
X200160499Y-105067128D01*
X200154091Y-105007517D01*
X200141340Y-104973332D01*
X200136357Y-104903642D01*
X200141338Y-104886672D01*
X200154091Y-104852483D01*
X200160500Y-104792873D01*
X200160499Y-103797128D01*
X200156363Y-103758656D01*
X200168769Y-103689900D01*
X200216379Y-103638762D01*
X200232188Y-103630848D01*
X200303127Y-103601465D01*
X200319900Y-103590258D01*
X200319901Y-103590258D01*
X200408799Y-103530858D01*
X200409669Y-103530277D01*
X200566764Y-103373181D01*
X200628087Y-103339697D01*
X200697778Y-103344681D01*
X200753712Y-103386552D01*
X200778129Y-103452017D01*
X200778445Y-103460863D01*
X200778445Y-118421000D01*
X200758760Y-118488039D01*
X200705956Y-118533794D01*
X200654445Y-118545000D01*
X166160000Y-118545000D01*
X166160000Y-124345500D01*
X166140315Y-124412539D01*
X166087511Y-124458294D01*
X166036000Y-124469500D01*
X160469891Y-124469500D01*
X160402852Y-124449815D01*
X160357097Y-124397011D01*
X160347153Y-124327853D01*
X160376178Y-124264297D01*
X160382210Y-124257819D01*
X160419026Y-124221003D01*
X160426182Y-124209401D01*
X160478129Y-124162678D01*
X160531719Y-124150500D01*
X160649389Y-124150500D01*
X160649391Y-124150500D01*
X160824267Y-124113329D01*
X160987593Y-124040612D01*
X161132230Y-123935526D01*
X161136756Y-123930500D01*
X161179911Y-123882571D01*
X161251859Y-123802665D01*
X161341250Y-123647835D01*
X161396497Y-123477803D01*
X161401521Y-123430000D01*
X162754353Y-123430000D01*
X162774834Y-123572456D01*
X162809259Y-123647835D01*
X162834623Y-123703373D01*
X162928872Y-123812143D01*
X163049947Y-123889953D01*
X163049950Y-123889954D01*
X163049949Y-123889954D01*
X163188036Y-123930499D01*
X163188038Y-123930500D01*
X163188039Y-123930500D01*
X163331962Y-123930500D01*
X163331962Y-123930499D01*
X163470053Y-123889953D01*
X163591128Y-123812143D01*
X163685377Y-123703373D01*
X163745165Y-123572457D01*
X163765647Y-123430000D01*
X163745165Y-123287543D01*
X163685377Y-123156627D01*
X163591128Y-123047857D01*
X163470053Y-122970047D01*
X163470051Y-122970046D01*
X163470049Y-122970045D01*
X163470050Y-122970045D01*
X163331963Y-122929500D01*
X163331961Y-122929500D01*
X163188039Y-122929500D01*
X163188036Y-122929500D01*
X163049949Y-122970045D01*
X162928873Y-123047856D01*
X162834623Y-123156626D01*
X162834622Y-123156628D01*
X162774834Y-123287543D01*
X162754353Y-123430000D01*
X161401521Y-123430000D01*
X161415185Y-123300000D01*
X161396497Y-123122197D01*
X161357480Y-123002115D01*
X161341252Y-122952170D01*
X161341249Y-122952164D01*
X161315840Y-122908154D01*
X161251859Y-122797335D01*
X161183450Y-122721359D01*
X161132235Y-122664478D01*
X161132232Y-122664476D01*
X161132231Y-122664475D01*
X161132230Y-122664474D01*
X160987593Y-122559388D01*
X160824267Y-122486671D01*
X160824265Y-122486670D01*
X160696594Y-122459533D01*
X160649391Y-122449500D01*
X160531720Y-122449500D01*
X160464681Y-122429815D01*
X160426183Y-122390599D01*
X160419028Y-122379000D01*
X160419025Y-122378996D01*
X160296003Y-122255974D01*
X160295999Y-122255971D01*
X160147933Y-122164642D01*
X160147927Y-122164639D01*
X160147925Y-122164638D01*
X160127377Y-122157829D01*
X159982776Y-122109913D01*
X159880855Y-122099500D01*
X159880848Y-122099500D01*
X159294152Y-122099500D01*
X159294144Y-122099500D01*
X159192223Y-122109913D01*
X159027077Y-122164637D01*
X159027066Y-122164642D01*
X158879000Y-122255971D01*
X158878996Y-122255974D01*
X158755974Y-122378996D01*
X158755967Y-122379005D01*
X158755234Y-122380194D01*
X158754519Y-122380836D01*
X158751493Y-122384664D01*
X158750838Y-122384146D01*
X158703280Y-122426911D01*
X158634316Y-122438123D01*
X158570238Y-122410271D01*
X158548238Y-122384877D01*
X158548112Y-122384977D01*
X158545885Y-122382161D01*
X158544163Y-122380173D01*
X158543630Y-122379309D01*
X158420691Y-122256370D01*
X158272714Y-122165096D01*
X158272709Y-122165094D01*
X158107673Y-122110407D01*
X158005815Y-122100000D01*
X157962500Y-122100000D01*
X157962500Y-123426000D01*
X157942815Y-123493039D01*
X157890011Y-123538794D01*
X157838500Y-123550000D01*
X156708875Y-123550000D01*
X156683069Y-123564090D01*
X156613377Y-123559103D01*
X156557445Y-123517230D01*
X156547879Y-123502345D01*
X156537407Y-123483165D01*
X156530060Y-123467075D01*
X156451470Y-123256357D01*
X156446485Y-123239380D01*
X156428486Y-123156627D01*
X156398686Y-123019623D01*
X156396170Y-123002115D01*
X156393877Y-122970047D01*
X156381304Y-122794184D01*
X156725000Y-122794184D01*
X156725000Y-123050000D01*
X157462500Y-123050000D01*
X157462500Y-122100000D01*
X157419184Y-122100000D01*
X157317326Y-122110407D01*
X157152290Y-122165094D01*
X157152285Y-122165096D01*
X157004308Y-122256370D01*
X156881370Y-122379308D01*
X156790096Y-122527285D01*
X156790094Y-122527290D01*
X156735407Y-122692326D01*
X156725000Y-122794184D01*
X156381304Y-122794184D01*
X156379761Y-122772601D01*
X156379445Y-122763753D01*
X156379447Y-122721359D01*
X156379445Y-122721354D01*
X156379446Y-122712737D01*
X156379445Y-122712707D01*
X156379445Y-120805815D01*
X156725000Y-120805815D01*
X156735407Y-120907673D01*
X156790094Y-121072709D01*
X156790096Y-121072714D01*
X156881370Y-121220691D01*
X157004308Y-121343629D01*
X157152285Y-121434903D01*
X157152290Y-121434905D01*
X157317326Y-121489592D01*
X157419184Y-121499999D01*
X157419197Y-121500000D01*
X157462500Y-121500000D01*
X157462500Y-120550000D01*
X156725000Y-120550000D01*
X156725000Y-120805815D01*
X156379445Y-120805815D01*
X156379445Y-119794184D01*
X156725000Y-119794184D01*
X156725000Y-120050000D01*
X157462500Y-120050000D01*
X157462500Y-119100000D01*
X157962500Y-119100000D01*
X157962500Y-121500000D01*
X158005803Y-121500000D01*
X158005815Y-121499999D01*
X158107673Y-121489592D01*
X158272709Y-121434905D01*
X158272714Y-121434903D01*
X158420691Y-121343629D01*
X158543628Y-121220692D01*
X158544159Y-121219832D01*
X158544680Y-121219363D01*
X158548112Y-121215023D01*
X158548853Y-121215608D01*
X158596101Y-121173102D01*
X158665063Y-121161872D01*
X158729148Y-121189708D01*
X158751413Y-121215398D01*
X158751493Y-121215336D01*
X158752890Y-121217103D01*
X158755238Y-121219812D01*
X158755968Y-121220995D01*
X158755974Y-121221003D01*
X158878996Y-121344025D01*
X158879000Y-121344028D01*
X159027066Y-121435357D01*
X159027069Y-121435358D01*
X159027075Y-121435362D01*
X159192225Y-121490087D01*
X159294152Y-121500500D01*
X159294157Y-121500500D01*
X159880843Y-121500500D01*
X159880848Y-121500500D01*
X159982775Y-121490087D01*
X160147925Y-121435362D01*
X160296003Y-121344026D01*
X160419026Y-121221003D01*
X160426180Y-121209403D01*
X160478126Y-121162680D01*
X160531719Y-121150500D01*
X160639389Y-121150500D01*
X160639391Y-121150500D01*
X160814267Y-121113329D01*
X160977593Y-121040612D01*
X161122230Y-120935526D01*
X161128502Y-120928561D01*
X161148148Y-120906741D01*
X161241859Y-120802665D01*
X161331250Y-120647835D01*
X161386497Y-120477803D01*
X161405185Y-120300000D01*
X161386497Y-120122197D01*
X161331250Y-119952165D01*
X161241859Y-119797335D01*
X161195003Y-119745296D01*
X161122235Y-119664478D01*
X161122232Y-119664476D01*
X161122231Y-119664475D01*
X161122230Y-119664474D01*
X160977593Y-119559388D01*
X160814267Y-119486671D01*
X160814265Y-119486670D01*
X160686594Y-119459533D01*
X160639391Y-119449500D01*
X160639390Y-119449500D01*
X160531719Y-119449500D01*
X160464680Y-119429815D01*
X160426181Y-119390597D01*
X160419026Y-119378997D01*
X160296003Y-119255974D01*
X160295999Y-119255971D01*
X160147933Y-119164642D01*
X160147927Y-119164639D01*
X160147925Y-119164638D01*
X160147922Y-119164637D01*
X159982776Y-119109913D01*
X159880855Y-119099500D01*
X159880848Y-119099500D01*
X159294152Y-119099500D01*
X159294144Y-119099500D01*
X159192223Y-119109913D01*
X159027077Y-119164637D01*
X159027066Y-119164642D01*
X158879000Y-119255971D01*
X158878996Y-119255974D01*
X158755974Y-119378996D01*
X158755967Y-119379005D01*
X158755234Y-119380194D01*
X158754519Y-119380836D01*
X158751493Y-119384664D01*
X158750838Y-119384146D01*
X158703280Y-119426911D01*
X158634316Y-119438123D01*
X158570238Y-119410271D01*
X158548238Y-119384877D01*
X158548112Y-119384977D01*
X158545885Y-119382161D01*
X158544163Y-119380173D01*
X158543630Y-119379309D01*
X158420691Y-119256370D01*
X158272714Y-119165096D01*
X158272709Y-119165094D01*
X158107673Y-119110407D01*
X158005815Y-119100000D01*
X157962500Y-119100000D01*
X157462500Y-119100000D01*
X157419184Y-119100000D01*
X157317326Y-119110407D01*
X157152290Y-119165094D01*
X157152285Y-119165096D01*
X157004308Y-119256370D01*
X156881370Y-119379308D01*
X156790096Y-119527285D01*
X156790094Y-119527290D01*
X156735407Y-119692326D01*
X156725000Y-119794184D01*
X156379445Y-119794184D01*
X156379445Y-117805815D01*
X156725000Y-117805815D01*
X156735407Y-117907673D01*
X156790094Y-118072709D01*
X156790096Y-118072714D01*
X156881370Y-118220691D01*
X157004308Y-118343629D01*
X157152285Y-118434903D01*
X157152290Y-118434905D01*
X157317326Y-118489592D01*
X157419184Y-118499999D01*
X157419197Y-118500000D01*
X157462500Y-118500000D01*
X157462500Y-117550000D01*
X156725000Y-117550000D01*
X156725000Y-117805815D01*
X156379445Y-117805815D01*
X156379445Y-116794184D01*
X156725000Y-116794184D01*
X156725000Y-117050000D01*
X157462500Y-117050000D01*
X157462500Y-116100000D01*
X157962500Y-116100000D01*
X157962500Y-118500000D01*
X158005803Y-118500000D01*
X158005815Y-118499999D01*
X158107673Y-118489592D01*
X158272709Y-118434905D01*
X158272714Y-118434903D01*
X158420691Y-118343629D01*
X158543628Y-118220692D01*
X158544159Y-118219832D01*
X158544680Y-118219363D01*
X158548112Y-118215023D01*
X158548853Y-118215608D01*
X158596101Y-118173102D01*
X158665063Y-118161872D01*
X158729148Y-118189708D01*
X158751413Y-118215398D01*
X158751493Y-118215336D01*
X158752890Y-118217103D01*
X158755238Y-118219812D01*
X158755968Y-118220995D01*
X158755974Y-118221003D01*
X158878996Y-118344025D01*
X158879000Y-118344028D01*
X159027066Y-118435357D01*
X159027069Y-118435358D01*
X159027075Y-118435362D01*
X159192225Y-118490087D01*
X159294152Y-118500500D01*
X159294157Y-118500500D01*
X159880843Y-118500500D01*
X159880848Y-118500500D01*
X159982775Y-118490087D01*
X160147925Y-118435362D01*
X160296003Y-118344026D01*
X160419026Y-118221003D01*
X160426180Y-118209403D01*
X160478126Y-118162680D01*
X160531719Y-118150500D01*
X160619389Y-118150500D01*
X160619391Y-118150500D01*
X160794267Y-118113329D01*
X160957593Y-118040612D01*
X161102230Y-117935526D01*
X161221859Y-117802665D01*
X161311250Y-117647835D01*
X161366497Y-117477803D01*
X161385185Y-117300000D01*
X161366497Y-117122197D01*
X161311250Y-116952165D01*
X161221859Y-116797335D01*
X161162000Y-116730855D01*
X161102235Y-116664478D01*
X161102232Y-116664476D01*
X161102231Y-116664475D01*
X161102230Y-116664474D01*
X160957593Y-116559388D01*
X160794267Y-116486671D01*
X160794265Y-116486670D01*
X160666594Y-116459533D01*
X160619391Y-116449500D01*
X160619390Y-116449500D01*
X160531719Y-116449500D01*
X160464680Y-116429815D01*
X160426181Y-116390597D01*
X160419026Y-116378997D01*
X160296003Y-116255974D01*
X160295999Y-116255971D01*
X160147933Y-116164642D01*
X160147927Y-116164639D01*
X160147925Y-116164638D01*
X160128635Y-116158246D01*
X159982776Y-116109913D01*
X159880855Y-116099500D01*
X159880848Y-116099500D01*
X159294152Y-116099500D01*
X159294144Y-116099500D01*
X159192223Y-116109913D01*
X159027077Y-116164637D01*
X159027066Y-116164642D01*
X158879000Y-116255971D01*
X158878996Y-116255974D01*
X158755974Y-116378996D01*
X158755967Y-116379005D01*
X158755234Y-116380194D01*
X158754519Y-116380836D01*
X158751493Y-116384664D01*
X158750838Y-116384146D01*
X158703280Y-116426911D01*
X158634316Y-116438123D01*
X158570238Y-116410271D01*
X158548238Y-116384877D01*
X158548112Y-116384977D01*
X158545885Y-116382161D01*
X158544163Y-116380173D01*
X158543630Y-116379309D01*
X158420691Y-116256370D01*
X158272714Y-116165096D01*
X158272709Y-116165094D01*
X158107673Y-116110407D01*
X158005815Y-116100000D01*
X157962500Y-116100000D01*
X157462500Y-116100000D01*
X157419184Y-116100000D01*
X157317326Y-116110407D01*
X157152290Y-116165094D01*
X157152285Y-116165096D01*
X157004308Y-116256370D01*
X156881370Y-116379308D01*
X156790096Y-116527285D01*
X156790094Y-116527290D01*
X156735407Y-116692326D01*
X156725000Y-116794184D01*
X156379445Y-116794184D01*
X156379445Y-115864010D01*
X156399130Y-115796971D01*
X156451934Y-115751216D01*
X156521092Y-115741272D01*
X156546771Y-115747825D01*
X156677517Y-115796591D01*
X156737127Y-115803000D01*
X158132872Y-115802999D01*
X158192483Y-115796591D01*
X158327331Y-115746296D01*
X158442546Y-115660046D01*
X158528796Y-115544831D01*
X158579091Y-115409983D01*
X158585500Y-115350373D01*
X158585499Y-114642599D01*
X158605183Y-114575563D01*
X158657987Y-114529808D01*
X158727146Y-114519864D01*
X158790702Y-114548889D01*
X158808765Y-114568290D01*
X158847850Y-114620500D01*
X158864395Y-114642602D01*
X158877455Y-114660047D01*
X158992664Y-114746293D01*
X158992671Y-114746297D01*
X159020094Y-114756525D01*
X159127517Y-114796591D01*
X159187127Y-114803000D01*
X159610417Y-114802999D01*
X159677456Y-114822683D01*
X159723211Y-114875487D01*
X159733738Y-114939960D01*
X159720018Y-115070500D01*
X159714815Y-115120000D01*
X159717698Y-115147429D01*
X159733503Y-115297805D01*
X159733504Y-115297807D01*
X159788747Y-115467829D01*
X159788750Y-115467835D01*
X159878141Y-115622665D01*
X159911797Y-115660044D01*
X159997764Y-115755521D01*
X159997767Y-115755523D01*
X159997770Y-115755526D01*
X160142407Y-115860612D01*
X160305733Y-115933329D01*
X160480609Y-115970500D01*
X160480610Y-115970500D01*
X160659389Y-115970500D01*
X160659391Y-115970500D01*
X160834267Y-115933329D01*
X160997593Y-115860612D01*
X161089025Y-115794182D01*
X161154831Y-115770702D01*
X161161911Y-115770500D01*
X162764071Y-115770500D01*
X162848615Y-115753682D01*
X162889744Y-115745501D01*
X163008127Y-115696465D01*
X163114669Y-115625277D01*
X165166355Y-113573589D01*
X165227674Y-113540107D01*
X165297365Y-113545091D01*
X165353299Y-113586962D01*
X165377716Y-113652427D01*
X165376001Y-113683624D01*
X165344786Y-113853960D01*
X165325065Y-114180000D01*
X165344786Y-114506038D01*
X165403667Y-114827341D01*
X165500835Y-115139164D01*
X165500839Y-115139175D01*
X165634897Y-115437041D01*
X165634898Y-115437043D01*
X165803887Y-115716586D01*
X166005329Y-115973707D01*
X166010130Y-115978508D01*
X166043615Y-116039831D01*
X166038631Y-116109523D01*
X165996759Y-116165456D01*
X165931295Y-116189873D01*
X165909495Y-116189510D01*
X165909400Y-116189500D01*
X165909391Y-116189500D01*
X165730609Y-116189500D01*
X165699954Y-116196015D01*
X165555733Y-116226670D01*
X165555728Y-116226672D01*
X165392408Y-116299387D01*
X165247768Y-116404475D01*
X165128140Y-116537336D01*
X165038750Y-116692164D01*
X165038749Y-116692166D01*
X165014671Y-116766270D01*
X164984421Y-116815631D01*
X163164726Y-118635326D01*
X163093534Y-118741874D01*
X163044499Y-118860255D01*
X163044497Y-118860261D01*
X163019500Y-118985928D01*
X163019500Y-118985931D01*
X163019500Y-121084069D01*
X163019500Y-121084071D01*
X163019499Y-121084071D01*
X163044497Y-121209738D01*
X163044499Y-121209744D01*
X163093535Y-121328127D01*
X163104160Y-121344028D01*
X163164726Y-121434673D01*
X163164727Y-121434674D01*
X163581371Y-121851317D01*
X163614856Y-121912640D01*
X163617010Y-121926031D01*
X163623503Y-121987803D01*
X163623504Y-121987805D01*
X163623504Y-121987807D01*
X163678747Y-122157829D01*
X163678750Y-122157835D01*
X163768141Y-122312665D01*
X163809812Y-122358946D01*
X163887764Y-122445521D01*
X163887767Y-122445523D01*
X163887770Y-122445526D01*
X164032407Y-122550612D01*
X164195733Y-122623329D01*
X164370609Y-122660500D01*
X164370610Y-122660500D01*
X164549389Y-122660500D01*
X164549391Y-122660500D01*
X164724267Y-122623329D01*
X164887593Y-122550612D01*
X165032230Y-122445526D01*
X165046377Y-122429815D01*
X165063974Y-122410271D01*
X165151859Y-122312665D01*
X165241250Y-122157835D01*
X165296497Y-121987803D01*
X165315185Y-121810000D01*
X165296497Y-121632197D01*
X165253706Y-121500499D01*
X165241252Y-121462170D01*
X165241249Y-121462164D01*
X165225378Y-121434674D01*
X165151859Y-121307335D01*
X165105003Y-121255296D01*
X165032235Y-121174478D01*
X165032232Y-121174476D01*
X165032231Y-121174475D01*
X165032230Y-121174474D01*
X164887593Y-121069388D01*
X164724267Y-120996671D01*
X164724265Y-120996670D01*
X164587473Y-120967594D01*
X164559989Y-120961752D01*
X164498508Y-120928561D01*
X164498090Y-120928144D01*
X164356819Y-120786873D01*
X164323334Y-120725550D01*
X164320500Y-120699192D01*
X164320500Y-119370808D01*
X164340185Y-119303769D01*
X164356819Y-119283127D01*
X165713127Y-117926819D01*
X165774450Y-117893334D01*
X165800808Y-117890500D01*
X165909389Y-117890500D01*
X165909391Y-117890500D01*
X166084267Y-117853329D01*
X166247593Y-117780612D01*
X166392230Y-117675526D01*
X166511859Y-117542665D01*
X166540623Y-117492844D01*
X180160000Y-117492844D01*
X180166401Y-117552372D01*
X180166403Y-117552379D01*
X180216645Y-117687086D01*
X180216649Y-117687093D01*
X180302809Y-117802187D01*
X180302812Y-117802190D01*
X180417906Y-117888350D01*
X180417913Y-117888354D01*
X180552620Y-117938596D01*
X180552627Y-117938598D01*
X180612155Y-117944999D01*
X180612172Y-117945000D01*
X181160000Y-117945000D01*
X181660000Y-117945000D01*
X182207828Y-117945000D01*
X182207844Y-117944999D01*
X182267372Y-117938598D01*
X182267379Y-117938596D01*
X182402086Y-117888354D01*
X182402093Y-117888350D01*
X182517187Y-117802190D01*
X182517190Y-117802187D01*
X182603350Y-117687093D01*
X182603354Y-117687086D01*
X182653596Y-117552379D01*
X182653598Y-117552372D01*
X182659999Y-117492844D01*
X197660000Y-117492844D01*
X197666401Y-117552372D01*
X197666403Y-117552379D01*
X197716645Y-117687086D01*
X197716649Y-117687093D01*
X197802809Y-117802187D01*
X197802812Y-117802190D01*
X197917906Y-117888350D01*
X197917913Y-117888354D01*
X198052620Y-117938596D01*
X198052627Y-117938598D01*
X198112155Y-117944999D01*
X198112172Y-117945000D01*
X198660000Y-117945000D01*
X199160000Y-117945000D01*
X199707828Y-117945000D01*
X199707844Y-117944999D01*
X199767372Y-117938598D01*
X199767379Y-117938596D01*
X199902086Y-117888354D01*
X199902093Y-117888350D01*
X200017187Y-117802190D01*
X200017190Y-117802187D01*
X200103350Y-117687093D01*
X200103354Y-117687086D01*
X200153596Y-117552379D01*
X200153598Y-117552372D01*
X200159999Y-117492844D01*
X200160000Y-117492827D01*
X200160000Y-117245000D01*
X199160000Y-117245000D01*
X199160000Y-117945000D01*
X198660000Y-117945000D01*
X198660000Y-117245000D01*
X197660000Y-117245000D01*
X197660000Y-117492844D01*
X182659999Y-117492844D01*
X182660000Y-117492827D01*
X182660000Y-117245000D01*
X181660000Y-117245000D01*
X181660000Y-117945000D01*
X181160000Y-117945000D01*
X181160000Y-117245000D01*
X180160000Y-117245000D01*
X180160000Y-117492844D01*
X166540623Y-117492844D01*
X166601250Y-117387835D01*
X166656497Y-117217803D01*
X166675185Y-117040000D01*
X166656497Y-116862197D01*
X166613820Y-116730854D01*
X166611826Y-116661014D01*
X166647906Y-116601181D01*
X166710607Y-116570353D01*
X166780021Y-116578318D01*
X166782643Y-116579461D01*
X167070824Y-116709160D01*
X167070835Y-116709164D01*
X167382658Y-116806332D01*
X167703961Y-116865213D01*
X168030000Y-116884934D01*
X168356038Y-116865213D01*
X168677341Y-116806332D01*
X168989164Y-116709164D01*
X168989175Y-116709160D01*
X169287041Y-116575102D01*
X169287043Y-116575101D01*
X169566586Y-116406112D01*
X169754968Y-116258523D01*
X169754968Y-116258522D01*
X168612736Y-115116290D01*
X168746602Y-115019033D01*
X168869033Y-114896602D01*
X168966290Y-114762736D01*
X170108522Y-115904968D01*
X170108523Y-115904968D01*
X170256112Y-115716586D01*
X170425101Y-115437043D01*
X170425102Y-115437041D01*
X170531568Y-115200483D01*
X170577032Y-115147429D01*
X170643962Y-115127376D01*
X170711109Y-115146692D01*
X170725615Y-115158316D01*
X170725681Y-115158234D01*
X170731341Y-115162709D01*
X170731344Y-115162712D01*
X170880666Y-115254814D01*
X171047203Y-115309999D01*
X171149991Y-115320500D01*
X172150008Y-115320499D01*
X172150016Y-115320498D01*
X172150019Y-115320498D01*
X172206302Y-115314748D01*
X172252797Y-115309999D01*
X172419334Y-115254814D01*
X172568656Y-115162712D01*
X172634250Y-115097116D01*
X172695572Y-115063631D01*
X172747710Y-115063507D01*
X172780609Y-115070500D01*
X172780612Y-115070500D01*
X172959389Y-115070500D01*
X172959391Y-115070500D01*
X173134267Y-115033329D01*
X173297593Y-114960612D01*
X173442230Y-114855526D01*
X173561859Y-114722665D01*
X173651250Y-114567835D01*
X173706497Y-114397803D01*
X173725185Y-114220000D01*
X173706497Y-114042197D01*
X173667708Y-113922817D01*
X173665713Y-113852976D01*
X173701793Y-113793143D01*
X173764494Y-113762315D01*
X173785639Y-113760499D01*
X174330002Y-113760499D01*
X174330008Y-113760499D01*
X174432797Y-113749999D01*
X174599334Y-113694814D01*
X174617754Y-113683451D01*
X174685144Y-113665012D01*
X174751807Y-113685933D01*
X174796578Y-113739575D01*
X174806171Y-113801952D01*
X174794815Y-113909999D01*
X174794815Y-113910000D01*
X174800924Y-113968127D01*
X174813503Y-114087805D01*
X174813504Y-114087807D01*
X174868747Y-114257829D01*
X174868750Y-114257835D01*
X174958141Y-114412665D01*
X174991591Y-114449815D01*
X175077764Y-114545521D01*
X175077767Y-114545523D01*
X175077770Y-114545526D01*
X175222407Y-114650612D01*
X175385733Y-114723329D01*
X175560609Y-114760500D01*
X175560610Y-114760500D01*
X175739389Y-114760500D01*
X175739391Y-114760500D01*
X175914267Y-114723329D01*
X176077593Y-114650612D01*
X176169025Y-114584182D01*
X176234831Y-114560702D01*
X176241911Y-114560500D01*
X177224071Y-114560500D01*
X177308615Y-114543682D01*
X177349744Y-114535501D01*
X177468127Y-114486465D01*
X177470500Y-114484879D01*
X177471115Y-114484469D01*
X177547873Y-114433181D01*
X177574669Y-114415277D01*
X177865277Y-114124669D01*
X177936465Y-114018127D01*
X177957176Y-113968127D01*
X177985501Y-113899744D01*
X178006706Y-113793143D01*
X178010500Y-113774071D01*
X178010500Y-111920808D01*
X178030185Y-111853769D01*
X178046819Y-111833127D01*
X179065275Y-110814671D01*
X179065280Y-110814666D01*
X179136469Y-110708123D01*
X179185504Y-110589740D01*
X179185506Y-110589734D01*
X179187443Y-110579997D01*
X179210503Y-110464067D01*
X179210503Y-109316197D01*
X179230188Y-109249158D01*
X179242355Y-109233223D01*
X179251862Y-109222665D01*
X179341253Y-109067835D01*
X179396500Y-108897803D01*
X179415188Y-108720000D01*
X179396500Y-108542197D01*
X179367381Y-108452578D01*
X179341255Y-108372170D01*
X179341252Y-108372164D01*
X179251862Y-108217335D01*
X179200090Y-108159837D01*
X179132238Y-108084478D01*
X179132235Y-108084476D01*
X179132234Y-108084475D01*
X179132233Y-108084474D01*
X178987596Y-107979388D01*
X178824270Y-107906671D01*
X178824268Y-107906670D01*
X178695546Y-107879310D01*
X178649394Y-107869500D01*
X178470612Y-107869500D01*
X178439957Y-107876015D01*
X178295736Y-107906670D01*
X178160436Y-107966910D01*
X178091186Y-107976194D01*
X178059568Y-107966910D01*
X177924267Y-107906671D01*
X177924265Y-107906670D01*
X177795543Y-107879310D01*
X177749391Y-107869500D01*
X177749390Y-107869500D01*
X177744500Y-107869500D01*
X177677461Y-107849815D01*
X177631706Y-107797011D01*
X177620500Y-107745500D01*
X177620500Y-103965928D01*
X177595502Y-103840261D01*
X177595501Y-103840260D01*
X177595501Y-103840256D01*
X177546465Y-103721873D01*
X177534078Y-103703334D01*
X177521642Y-103684722D01*
X177521641Y-103684722D01*
X177475276Y-103615330D01*
X177475274Y-103615328D01*
X177475272Y-103615325D01*
X176994672Y-103134725D01*
X176994664Y-103134719D01*
X176984489Y-103127920D01*
X176939683Y-103074308D01*
X176931682Y-103043761D01*
X176931415Y-103043819D01*
X176930152Y-103037918D01*
X176930021Y-103037418D01*
X176929999Y-103037203D01*
X176919873Y-103006646D01*
X176912560Y-102984578D01*
X176910159Y-102914751D01*
X176945890Y-102854709D01*
X177008411Y-102823516D01*
X177077870Y-102831076D01*
G37*
%TD.AperFunction*%
%TA.AperFunction,Conductor*%
G36*
X163038712Y-108193745D02*
G01*
X163094646Y-108235616D01*
X163118700Y-108296965D01*
X163133503Y-108437804D01*
X163133504Y-108437807D01*
X163188747Y-108607829D01*
X163188750Y-108607835D01*
X163278141Y-108762665D01*
X163296749Y-108783331D01*
X163397764Y-108895521D01*
X163397767Y-108895523D01*
X163397770Y-108895526D01*
X163542407Y-109000612D01*
X163705733Y-109073329D01*
X163870012Y-109108247D01*
X163931493Y-109141439D01*
X163931911Y-109141856D01*
X163994724Y-109204669D01*
X164057066Y-109267011D01*
X164085332Y-109295277D01*
X164191866Y-109366461D01*
X164191872Y-109366464D01*
X164191873Y-109366465D01*
X164310256Y-109415501D01*
X164310260Y-109415501D01*
X164310261Y-109415502D01*
X164435928Y-109440500D01*
X164435931Y-109440500D01*
X166336710Y-109440500D01*
X166403749Y-109460185D01*
X166449504Y-109512989D01*
X166451271Y-109517047D01*
X166488757Y-109607547D01*
X166500721Y-109636429D01*
X166590964Y-109754036D01*
X166708571Y-109844279D01*
X166742493Y-109858330D01*
X166782628Y-109874955D01*
X166837031Y-109918796D01*
X166859096Y-109985090D01*
X166841817Y-110052790D01*
X166822856Y-110077197D01*
X162466873Y-114433181D01*
X162405550Y-114466666D01*
X162379192Y-114469500D01*
X161409500Y-114469500D01*
X161342461Y-114449815D01*
X161296706Y-114397011D01*
X161285500Y-114345500D01*
X161285499Y-112829629D01*
X161285499Y-112829628D01*
X161279091Y-112770017D01*
X161279090Y-112770016D01*
X161278380Y-112763404D01*
X161278381Y-112736893D01*
X161284999Y-112675342D01*
X161285000Y-112675327D01*
X161285000Y-112627500D01*
X161284948Y-112627448D01*
X161218085Y-112607815D01*
X161185859Y-112577813D01*
X161142546Y-112519954D01*
X161142544Y-112519952D01*
X161142543Y-112519951D01*
X161137773Y-112515181D01*
X161104288Y-112453858D01*
X161109272Y-112384166D01*
X161137773Y-112339819D01*
X161142542Y-112335048D01*
X161142546Y-112335046D01*
X161216190Y-112236671D01*
X161223289Y-112227188D01*
X161271105Y-112191394D01*
X161285000Y-112177500D01*
X161285000Y-112129682D01*
X161284999Y-112129664D01*
X161281068Y-112093102D01*
X161281068Y-112066594D01*
X161285500Y-112025373D01*
X161285499Y-111830053D01*
X161305183Y-111763015D01*
X161357987Y-111717260D01*
X161362029Y-111715500D01*
X161450234Y-111678965D01*
X161466454Y-111668127D01*
X161556776Y-111607777D01*
X162583505Y-110581048D01*
X162652274Y-110478127D01*
X162654693Y-110474507D01*
X162654694Y-110474505D01*
X162703730Y-110356122D01*
X162707747Y-110335928D01*
X162721359Y-110267500D01*
X162728729Y-110230449D01*
X162728729Y-108452578D01*
X162748414Y-108385539D01*
X162765039Y-108364906D01*
X162907702Y-108222242D01*
X162969020Y-108188761D01*
X163038712Y-108193745D01*
G37*
%TD.AperFunction*%
%TA.AperFunction,Conductor*%
G36*
X191645834Y-107835627D02*
G01*
X191690181Y-107864128D01*
X191706053Y-107880000D01*
X192491000Y-107880000D01*
X192558039Y-107899685D01*
X192603794Y-107952489D01*
X192615000Y-108004000D01*
X192615000Y-108788947D01*
X192630872Y-108804819D01*
X192664357Y-108866142D01*
X192659373Y-108935834D01*
X192630872Y-108980181D01*
X192615000Y-108996052D01*
X192615000Y-110313947D01*
X192630872Y-110329819D01*
X192664357Y-110391142D01*
X192659373Y-110460834D01*
X192630872Y-110505181D01*
X192615000Y-110521052D01*
X192615000Y-111306000D01*
X192595315Y-111373039D01*
X192542511Y-111418794D01*
X192491000Y-111430000D01*
X191706052Y-111430000D01*
X191690181Y-111445872D01*
X191628858Y-111479357D01*
X191559166Y-111474373D01*
X191514819Y-111445872D01*
X191498947Y-111430000D01*
X190181052Y-111430000D01*
X190165181Y-111445872D01*
X190103858Y-111479357D01*
X190034166Y-111474373D01*
X189989819Y-111445872D01*
X189973947Y-111430000D01*
X189189000Y-111430000D01*
X189121961Y-111410315D01*
X189076206Y-111357511D01*
X189065000Y-111306000D01*
X189065000Y-111150163D01*
X189927500Y-111150163D01*
X189927500Y-111209837D01*
X189950336Y-111264968D01*
X189992532Y-111307164D01*
X190047663Y-111330000D01*
X190107337Y-111330000D01*
X190162468Y-111307164D01*
X190204664Y-111264968D01*
X190227500Y-111209837D01*
X190227500Y-111150163D01*
X191452500Y-111150163D01*
X191452500Y-111209837D01*
X191475336Y-111264968D01*
X191517532Y-111307164D01*
X191572663Y-111330000D01*
X191632337Y-111330000D01*
X191687468Y-111307164D01*
X191729664Y-111264968D01*
X191752500Y-111209837D01*
X191752500Y-111150163D01*
X191729664Y-111095032D01*
X191687468Y-111052836D01*
X191632337Y-111030000D01*
X191572663Y-111030000D01*
X191517532Y-111052836D01*
X191475336Y-111095032D01*
X191452500Y-111150163D01*
X190227500Y-111150163D01*
X190204664Y-111095032D01*
X190162468Y-111052836D01*
X190107337Y-111030000D01*
X190047663Y-111030000D01*
X189992532Y-111052836D01*
X189950336Y-111095032D01*
X189927500Y-111150163D01*
X189065000Y-111150163D01*
X189065000Y-110521053D01*
X189049128Y-110505181D01*
X189015643Y-110443858D01*
X189019662Y-110387663D01*
X189165000Y-110387663D01*
X189165000Y-110447337D01*
X189187836Y-110502468D01*
X189230032Y-110544664D01*
X189285163Y-110567500D01*
X189344837Y-110567500D01*
X189399968Y-110544664D01*
X189442164Y-110502468D01*
X189465000Y-110447337D01*
X189465000Y-110417500D01*
X189668553Y-110417500D01*
X189715120Y-110464066D01*
X190077500Y-110826446D01*
X190486446Y-110417500D01*
X190456609Y-110387663D01*
X190690000Y-110387663D01*
X190690000Y-110447337D01*
X190712836Y-110502468D01*
X190755032Y-110544664D01*
X190810163Y-110567500D01*
X190869837Y-110567500D01*
X190924968Y-110544664D01*
X190967164Y-110502468D01*
X190990000Y-110447337D01*
X190990000Y-110417500D01*
X191193553Y-110417500D01*
X191240120Y-110464066D01*
X191602500Y-110826446D01*
X192011446Y-110417500D01*
X191981609Y-110387663D01*
X192215000Y-110387663D01*
X192215000Y-110447337D01*
X192237836Y-110502468D01*
X192280032Y-110544664D01*
X192335163Y-110567500D01*
X192394837Y-110567500D01*
X192449968Y-110544664D01*
X192492164Y-110502468D01*
X192515000Y-110447337D01*
X192515000Y-110387663D01*
X192492164Y-110332532D01*
X192449968Y-110290336D01*
X192394837Y-110267500D01*
X192335163Y-110267500D01*
X192280032Y-110290336D01*
X192237836Y-110332532D01*
X192215000Y-110387663D01*
X191981609Y-110387663D01*
X191657892Y-110063946D01*
X191602500Y-110008553D01*
X191547108Y-110063946D01*
X191547107Y-110063947D01*
X191193553Y-110417500D01*
X190990000Y-110417500D01*
X190990000Y-110387663D01*
X190967164Y-110332532D01*
X190924968Y-110290336D01*
X190869837Y-110267500D01*
X190810163Y-110267500D01*
X190755032Y-110290336D01*
X190712836Y-110332532D01*
X190690000Y-110387663D01*
X190456609Y-110387663D01*
X190132892Y-110063946D01*
X190077500Y-110008553D01*
X190022108Y-110063946D01*
X190022107Y-110063947D01*
X189668553Y-110417500D01*
X189465000Y-110417500D01*
X189465000Y-110387663D01*
X189442164Y-110332532D01*
X189399968Y-110290336D01*
X189344837Y-110267500D01*
X189285163Y-110267500D01*
X189230032Y-110290336D01*
X189187836Y-110332532D01*
X189165000Y-110387663D01*
X189019662Y-110387663D01*
X189020627Y-110374166D01*
X189049128Y-110329819D01*
X189064999Y-110313947D01*
X189065000Y-110313946D01*
X189065000Y-109905000D01*
X188240000Y-109905000D01*
X188240000Y-111802844D01*
X188246401Y-111862372D01*
X188246403Y-111862379D01*
X188296645Y-111997086D01*
X188296649Y-111997093D01*
X188382809Y-112112187D01*
X188382812Y-112112190D01*
X188468363Y-112176234D01*
X188510234Y-112232168D01*
X188515218Y-112301859D01*
X188481732Y-112363182D01*
X188420409Y-112396666D01*
X188394052Y-112399500D01*
X187931911Y-112399500D01*
X187864872Y-112379815D01*
X187859025Y-112375818D01*
X187767594Y-112309389D01*
X187767593Y-112309388D01*
X187604267Y-112236671D01*
X187604265Y-112236670D01*
X187429389Y-112199499D01*
X187422923Y-112198820D01*
X187423200Y-112196182D01*
X187367461Y-112179815D01*
X187321706Y-112127011D01*
X187310500Y-112075500D01*
X187310500Y-109625163D01*
X189927500Y-109625163D01*
X189927500Y-109684837D01*
X189950336Y-109739968D01*
X189992532Y-109782164D01*
X190047663Y-109805000D01*
X190107337Y-109805000D01*
X190162468Y-109782164D01*
X190204664Y-109739968D01*
X190227500Y-109684837D01*
X190227500Y-109625163D01*
X191452500Y-109625163D01*
X191452500Y-109684837D01*
X191475336Y-109739968D01*
X191517532Y-109782164D01*
X191572663Y-109805000D01*
X191632337Y-109805000D01*
X191687468Y-109782164D01*
X191729664Y-109739968D01*
X191752500Y-109684837D01*
X191752500Y-109625163D01*
X191729664Y-109570032D01*
X191687468Y-109527836D01*
X191632337Y-109505000D01*
X191572663Y-109505000D01*
X191517532Y-109527836D01*
X191475336Y-109570032D01*
X191452500Y-109625163D01*
X190227500Y-109625163D01*
X190204664Y-109570032D01*
X190162468Y-109527836D01*
X190107337Y-109505000D01*
X190047663Y-109505000D01*
X189992532Y-109527836D01*
X189950336Y-109570032D01*
X189927500Y-109625163D01*
X187310500Y-109625163D01*
X187310500Y-109110808D01*
X187330185Y-109043769D01*
X187346819Y-109023127D01*
X188028319Y-108341627D01*
X188089642Y-108308142D01*
X188159334Y-108313126D01*
X188215267Y-108354998D01*
X188239684Y-108420462D01*
X188240000Y-108429308D01*
X188240000Y-109405000D01*
X189065000Y-109405000D01*
X189065000Y-108996053D01*
X189049128Y-108980181D01*
X189015643Y-108918858D01*
X189019662Y-108862663D01*
X189165000Y-108862663D01*
X189165000Y-108922337D01*
X189187836Y-108977468D01*
X189230032Y-109019664D01*
X189285163Y-109042500D01*
X189344837Y-109042500D01*
X189399968Y-109019664D01*
X189442164Y-108977468D01*
X189465000Y-108922337D01*
X189465000Y-108892499D01*
X189668553Y-108892499D01*
X190077500Y-109301446D01*
X190486446Y-108892500D01*
X190456609Y-108862663D01*
X190690000Y-108862663D01*
X190690000Y-108922337D01*
X190712836Y-108977468D01*
X190755032Y-109019664D01*
X190810163Y-109042500D01*
X190869837Y-109042500D01*
X190924968Y-109019664D01*
X190967164Y-108977468D01*
X190990000Y-108922337D01*
X190990000Y-108892499D01*
X191193553Y-108892499D01*
X191602500Y-109301446D01*
X192011446Y-108892500D01*
X191981609Y-108862663D01*
X192215000Y-108862663D01*
X192215000Y-108922337D01*
X192237836Y-108977468D01*
X192280032Y-109019664D01*
X192335163Y-109042500D01*
X192394837Y-109042500D01*
X192449968Y-109019664D01*
X192492164Y-108977468D01*
X192515000Y-108922337D01*
X192515000Y-108862663D01*
X192492164Y-108807532D01*
X192449968Y-108765336D01*
X192394837Y-108742500D01*
X192335163Y-108742500D01*
X192280032Y-108765336D01*
X192237836Y-108807532D01*
X192215000Y-108862663D01*
X191981609Y-108862663D01*
X191639391Y-108520445D01*
X191602500Y-108483553D01*
X191565609Y-108520445D01*
X191565608Y-108520446D01*
X191193553Y-108892499D01*
X190990000Y-108892499D01*
X190990000Y-108862663D01*
X190967164Y-108807532D01*
X190924968Y-108765336D01*
X190869837Y-108742500D01*
X190810163Y-108742500D01*
X190755032Y-108765336D01*
X190712836Y-108807532D01*
X190690000Y-108862663D01*
X190456609Y-108862663D01*
X190114391Y-108520445D01*
X190077500Y-108483553D01*
X190040609Y-108520445D01*
X190040608Y-108520446D01*
X189668553Y-108892499D01*
X189465000Y-108892499D01*
X189465000Y-108862663D01*
X189442164Y-108807532D01*
X189399968Y-108765336D01*
X189344837Y-108742500D01*
X189285163Y-108742500D01*
X189230032Y-108765336D01*
X189187836Y-108807532D01*
X189165000Y-108862663D01*
X189019662Y-108862663D01*
X189020627Y-108849166D01*
X189049128Y-108804819D01*
X189064999Y-108788947D01*
X189065000Y-108788946D01*
X189065000Y-108100163D01*
X189927500Y-108100163D01*
X189927500Y-108159837D01*
X189950336Y-108214968D01*
X189992532Y-108257164D01*
X190047663Y-108280000D01*
X190107337Y-108280000D01*
X190162468Y-108257164D01*
X190204664Y-108214968D01*
X190227500Y-108159837D01*
X190227500Y-108100163D01*
X191452500Y-108100163D01*
X191452500Y-108159837D01*
X191475336Y-108214968D01*
X191517532Y-108257164D01*
X191572663Y-108280000D01*
X191632337Y-108280000D01*
X191687468Y-108257164D01*
X191729664Y-108214968D01*
X191752500Y-108159837D01*
X191752500Y-108100163D01*
X191729664Y-108045032D01*
X191687468Y-108002836D01*
X191632337Y-107980000D01*
X191572663Y-107980000D01*
X191517532Y-108002836D01*
X191475336Y-108045032D01*
X191452500Y-108100163D01*
X190227500Y-108100163D01*
X190204664Y-108045032D01*
X190162468Y-108002836D01*
X190107337Y-107980000D01*
X190047663Y-107980000D01*
X189992532Y-108002836D01*
X189950336Y-108045032D01*
X189927500Y-108100163D01*
X189065000Y-108100163D01*
X189065000Y-108004000D01*
X189084685Y-107936961D01*
X189137489Y-107891206D01*
X189189000Y-107880000D01*
X189973947Y-107880000D01*
X189973947Y-107879999D01*
X189989819Y-107864128D01*
X190051142Y-107830643D01*
X190120834Y-107835627D01*
X190165181Y-107864128D01*
X190181053Y-107880000D01*
X191498947Y-107880000D01*
X191498947Y-107879999D01*
X191514819Y-107864128D01*
X191576142Y-107830643D01*
X191645834Y-107835627D01*
G37*
%TD.AperFunction*%
%TA.AperFunction,Conductor*%
G36*
X172402539Y-109935184D02*
G01*
X172448294Y-109987988D01*
X172459500Y-110039499D01*
X172459500Y-110234071D01*
X172478137Y-110327761D01*
X172478137Y-110327762D01*
X172484497Y-110359736D01*
X172484499Y-110359744D01*
X172532035Y-110474507D01*
X172533535Y-110478127D01*
X172602304Y-110581048D01*
X172604726Y-110584673D01*
X172604727Y-110584674D01*
X173243181Y-111223126D01*
X173276666Y-111284449D01*
X173279500Y-111310807D01*
X173279500Y-111344362D01*
X173259815Y-111411401D01*
X173220598Y-111449899D01*
X173180921Y-111474373D01*
X173111345Y-111517287D01*
X172999929Y-111628703D01*
X172938606Y-111662187D01*
X172868914Y-111657203D01*
X172812981Y-111615331D01*
X172794543Y-111580028D01*
X172784814Y-111550666D01*
X172692712Y-111401344D01*
X172568656Y-111277288D01*
X172419334Y-111185186D01*
X172252797Y-111130001D01*
X172252795Y-111130000D01*
X172150016Y-111119500D01*
X172150009Y-111119500D01*
X171887701Y-111119500D01*
X171820662Y-111099815D01*
X171774907Y-111047011D01*
X171764963Y-110977853D01*
X171789323Y-110920015D01*
X171834279Y-110861429D01*
X171891009Y-110724472D01*
X171905500Y-110614401D01*
X171905499Y-110039498D01*
X171925183Y-109972460D01*
X171977987Y-109926705D01*
X172029499Y-109915499D01*
X172335500Y-109915499D01*
X172402539Y-109935184D01*
G37*
%TD.AperFunction*%
%TA.AperFunction,Conductor*%
G36*
X171062514Y-106224501D02*
G01*
X171062674Y-106223905D01*
X171070524Y-106226008D01*
X171070526Y-106226008D01*
X171070528Y-106226009D01*
X171180599Y-106240500D01*
X171205498Y-106240499D01*
X171272536Y-106260181D01*
X171318293Y-106312984D01*
X171329500Y-106364495D01*
X171329500Y-106389402D01*
X171343989Y-106499468D01*
X171346094Y-106507322D01*
X171342814Y-106508200D01*
X171348581Y-106562073D01*
X171345517Y-106572522D01*
X171346095Y-106572677D01*
X171343990Y-106580529D01*
X171329500Y-106690598D01*
X171329500Y-106889403D01*
X171343989Y-106999468D01*
X171346094Y-107007322D01*
X171342814Y-107008200D01*
X171348581Y-107062073D01*
X171345517Y-107072522D01*
X171346095Y-107072677D01*
X171343990Y-107080529D01*
X171329500Y-107190598D01*
X171329500Y-107389403D01*
X171343989Y-107499468D01*
X171346094Y-107507322D01*
X171342814Y-107508200D01*
X171348581Y-107562073D01*
X171345517Y-107572522D01*
X171346095Y-107572677D01*
X171343990Y-107580529D01*
X171329500Y-107690598D01*
X171329500Y-107889403D01*
X171343989Y-107999468D01*
X171346094Y-108007322D01*
X171342814Y-108008200D01*
X171348581Y-108062073D01*
X171345517Y-108072522D01*
X171346095Y-108072677D01*
X171343990Y-108080529D01*
X171329500Y-108190598D01*
X171329500Y-108389403D01*
X171343989Y-108499468D01*
X171346094Y-108507322D01*
X171342814Y-108508200D01*
X171348581Y-108562073D01*
X171345517Y-108572522D01*
X171346095Y-108572677D01*
X171343990Y-108580529D01*
X171329500Y-108690598D01*
X171329500Y-108889403D01*
X171343989Y-108999468D01*
X171346094Y-109007322D01*
X171342814Y-109008200D01*
X171348581Y-109062073D01*
X171345517Y-109072522D01*
X171346095Y-109072677D01*
X171343990Y-109080529D01*
X171329501Y-109190589D01*
X171329500Y-109190605D01*
X171329500Y-109215500D01*
X171309815Y-109282539D01*
X171257011Y-109328294D01*
X171205504Y-109339500D01*
X171180597Y-109339500D01*
X171070531Y-109353989D01*
X171062678Y-109356094D01*
X171061802Y-109352824D01*
X171007853Y-109358567D01*
X170997477Y-109355518D01*
X170997323Y-109356095D01*
X170989470Y-109353990D01*
X170879401Y-109339500D01*
X170680596Y-109339500D01*
X170570531Y-109353989D01*
X170562678Y-109356094D01*
X170561802Y-109352824D01*
X170507853Y-109358567D01*
X170497477Y-109355518D01*
X170497323Y-109356095D01*
X170489470Y-109353990D01*
X170379401Y-109339500D01*
X170180596Y-109339500D01*
X170070531Y-109353989D01*
X170062678Y-109356094D01*
X170061802Y-109352824D01*
X170007853Y-109358567D01*
X169997477Y-109355518D01*
X169997323Y-109356095D01*
X169989470Y-109353990D01*
X169879401Y-109339500D01*
X169680596Y-109339500D01*
X169570531Y-109353989D01*
X169562678Y-109356094D01*
X169561802Y-109352824D01*
X169507853Y-109358567D01*
X169497477Y-109355518D01*
X169497323Y-109356095D01*
X169489470Y-109353990D01*
X169379401Y-109339500D01*
X169180596Y-109339500D01*
X169070531Y-109353989D01*
X169062678Y-109356094D01*
X169061802Y-109352824D01*
X169007853Y-109358567D01*
X168997477Y-109355518D01*
X168997323Y-109356095D01*
X168989470Y-109353990D01*
X168879401Y-109339500D01*
X168680596Y-109339500D01*
X168570531Y-109353989D01*
X168562678Y-109356094D01*
X168561802Y-109352824D01*
X168507853Y-109358567D01*
X168497477Y-109355518D01*
X168497323Y-109356095D01*
X168489470Y-109353990D01*
X168379410Y-109339501D01*
X168379407Y-109339500D01*
X168379401Y-109339500D01*
X168379394Y-109339500D01*
X168354499Y-109339500D01*
X168287460Y-109319815D01*
X168241705Y-109267011D01*
X168230499Y-109215500D01*
X168230499Y-109190597D01*
X168219995Y-109110808D01*
X168216009Y-109080528D01*
X168216008Y-109080525D01*
X168213905Y-109072674D01*
X168217207Y-109071789D01*
X168211392Y-109018075D01*
X168214501Y-109007485D01*
X168213905Y-109007326D01*
X168216009Y-108999472D01*
X168218906Y-108977468D01*
X168230500Y-108889401D01*
X168230499Y-108690600D01*
X168230279Y-108688931D01*
X168219718Y-108608704D01*
X168216009Y-108580528D01*
X168216008Y-108580525D01*
X168213905Y-108572674D01*
X168217207Y-108571789D01*
X168211392Y-108518075D01*
X168214501Y-108507485D01*
X168213905Y-108507326D01*
X168216008Y-108499475D01*
X168216008Y-108499474D01*
X168216009Y-108499472D01*
X168230500Y-108389401D01*
X168230499Y-108190600D01*
X168216009Y-108080528D01*
X168216008Y-108080525D01*
X168213905Y-108072674D01*
X168217207Y-108071789D01*
X168211392Y-108018075D01*
X168214501Y-108007485D01*
X168213905Y-108007326D01*
X168216008Y-107999475D01*
X168216008Y-107999474D01*
X168216009Y-107999472D01*
X168230500Y-107889401D01*
X168230499Y-107690600D01*
X168230499Y-107690598D01*
X168230499Y-107690596D01*
X168216011Y-107580536D01*
X168213906Y-107572682D01*
X168217007Y-107571850D01*
X168211128Y-107517382D01*
X168214147Y-107507389D01*
X168213418Y-107507194D01*
X168215521Y-107499342D01*
X168226626Y-107415000D01*
X168198506Y-107415000D01*
X168131467Y-107395315D01*
X168100115Y-107366466D01*
X168099348Y-107365466D01*
X168074167Y-107300292D01*
X168088219Y-107231850D01*
X168099348Y-107214534D01*
X168100115Y-107213534D01*
X168156534Y-107172319D01*
X168198506Y-107165000D01*
X168226626Y-107165000D01*
X168215521Y-107080659D01*
X168213418Y-107072807D01*
X168217041Y-107071835D01*
X168210919Y-107019884D01*
X168214495Y-107007484D01*
X168213905Y-107007326D01*
X168216008Y-106999475D01*
X168216008Y-106999474D01*
X168216009Y-106999472D01*
X168230500Y-106889401D01*
X168230499Y-106690600D01*
X168229830Y-106685521D01*
X168222547Y-106630192D01*
X168216009Y-106580528D01*
X168216008Y-106580525D01*
X168213905Y-106572674D01*
X168217207Y-106571789D01*
X168211392Y-106518075D01*
X168214501Y-106507485D01*
X168213905Y-106507326D01*
X168216008Y-106499475D01*
X168216008Y-106499474D01*
X168216009Y-106499472D01*
X168230500Y-106389401D01*
X168230500Y-106364499D01*
X168250185Y-106297460D01*
X168302989Y-106251705D01*
X168354500Y-106240499D01*
X168379402Y-106240499D01*
X168419767Y-106235185D01*
X168489472Y-106226009D01*
X168489475Y-106226007D01*
X168497326Y-106223905D01*
X168498210Y-106227207D01*
X168551925Y-106221392D01*
X168562514Y-106224501D01*
X168562674Y-106223905D01*
X168570524Y-106226008D01*
X168570526Y-106226008D01*
X168570528Y-106226009D01*
X168680599Y-106240500D01*
X168879400Y-106240499D01*
X168879401Y-106240499D01*
X168896087Y-106238302D01*
X168989472Y-106226009D01*
X168989475Y-106226007D01*
X168997326Y-106223905D01*
X168998210Y-106227207D01*
X169051925Y-106221392D01*
X169062514Y-106224501D01*
X169062674Y-106223905D01*
X169070524Y-106226008D01*
X169070526Y-106226008D01*
X169070528Y-106226009D01*
X169180599Y-106240500D01*
X169379400Y-106240499D01*
X169379401Y-106240499D01*
X169396087Y-106238302D01*
X169489472Y-106226009D01*
X169489475Y-106226007D01*
X169497326Y-106223905D01*
X169498210Y-106227207D01*
X169551925Y-106221392D01*
X169562514Y-106224501D01*
X169562674Y-106223905D01*
X169570524Y-106226008D01*
X169570526Y-106226008D01*
X169570528Y-106226009D01*
X169680599Y-106240500D01*
X169879400Y-106240499D01*
X169879401Y-106240499D01*
X169896087Y-106238302D01*
X169989472Y-106226009D01*
X169989475Y-106226007D01*
X169997326Y-106223905D01*
X169998210Y-106227207D01*
X170051925Y-106221392D01*
X170062514Y-106224501D01*
X170062674Y-106223905D01*
X170070524Y-106226008D01*
X170070526Y-106226008D01*
X170070528Y-106226009D01*
X170180599Y-106240500D01*
X170379400Y-106240499D01*
X170379401Y-106240499D01*
X170396087Y-106238302D01*
X170489472Y-106226009D01*
X170489475Y-106226007D01*
X170497326Y-106223905D01*
X170498210Y-106227207D01*
X170551925Y-106221392D01*
X170562514Y-106224501D01*
X170562674Y-106223905D01*
X170570524Y-106226008D01*
X170570526Y-106226008D01*
X170570528Y-106226009D01*
X170680599Y-106240500D01*
X170879400Y-106240499D01*
X170879401Y-106240499D01*
X170896087Y-106238302D01*
X170989472Y-106226009D01*
X170989475Y-106226007D01*
X170997326Y-106223905D01*
X170998210Y-106227207D01*
X171051925Y-106221392D01*
X171062514Y-106224501D01*
G37*
%TD.AperFunction*%
%TA.AperFunction,Conductor*%
G36*
X160039056Y-104849626D02*
G01*
X160074421Y-104874368D01*
X161291371Y-106091317D01*
X161324856Y-106152640D01*
X161327010Y-106166031D01*
X161333503Y-106227803D01*
X161333504Y-106227805D01*
X161333504Y-106227807D01*
X161388747Y-106397829D01*
X161388750Y-106397835D01*
X161478141Y-106552665D01*
X161503229Y-106580528D01*
X161597764Y-106685521D01*
X161597767Y-106685523D01*
X161597770Y-106685526D01*
X161742407Y-106790612D01*
X161905733Y-106863329D01*
X162080609Y-106900500D01*
X162080610Y-106900500D01*
X162090191Y-106900500D01*
X162157230Y-106920185D01*
X162202985Y-106972989D01*
X162212929Y-107042147D01*
X162183904Y-107105703D01*
X162177872Y-107112181D01*
X161572953Y-107717100D01*
X161527252Y-107785499D01*
X161527249Y-107785503D01*
X161500321Y-107825801D01*
X161446708Y-107870604D01*
X161377382Y-107879310D01*
X161314356Y-107849153D01*
X161281039Y-107800240D01*
X161275542Y-107785503D01*
X161228796Y-107660169D01*
X161228795Y-107660168D01*
X161228793Y-107660164D01*
X161142547Y-107544955D01*
X161142544Y-107544952D01*
X161027335Y-107458706D01*
X161027328Y-107458702D01*
X160892482Y-107408408D01*
X160892483Y-107408408D01*
X160832883Y-107402001D01*
X160832881Y-107402000D01*
X160832873Y-107402000D01*
X160832864Y-107402000D01*
X159187129Y-107402000D01*
X159187123Y-107402001D01*
X159127516Y-107408408D01*
X158992671Y-107458702D01*
X158992664Y-107458706D01*
X158877455Y-107544952D01*
X158808765Y-107636710D01*
X158752831Y-107678580D01*
X158683139Y-107683564D01*
X158621817Y-107650078D01*
X158588332Y-107588755D01*
X158585499Y-107562398D01*
X158585499Y-106854629D01*
X158585498Y-106854623D01*
X158579091Y-106795016D01*
X158528797Y-106660171D01*
X158528793Y-106660164D01*
X158442547Y-106544955D01*
X158442544Y-106544952D01*
X158327335Y-106458706D01*
X158327328Y-106458702D01*
X158192482Y-106408408D01*
X158192483Y-106408408D01*
X158132883Y-106402001D01*
X158132881Y-106402000D01*
X158132873Y-106402000D01*
X158132864Y-106402000D01*
X156737129Y-106402000D01*
X156737123Y-106402001D01*
X156677516Y-106408408D01*
X156546778Y-106457171D01*
X156477086Y-106462155D01*
X156415763Y-106428670D01*
X156382279Y-106367346D01*
X156379445Y-106340989D01*
X156379445Y-105013967D01*
X156399130Y-104946928D01*
X156451934Y-104901173D01*
X156521092Y-104891229D01*
X156576330Y-104913649D01*
X156647264Y-104965185D01*
X156721155Y-105018870D01*
X156856542Y-105087853D01*
X156945616Y-105133239D01*
X156945618Y-105133239D01*
X156945621Y-105133241D01*
X157185215Y-105211090D01*
X157434038Y-105250500D01*
X157434039Y-105250500D01*
X158985961Y-105250500D01*
X158985962Y-105250500D01*
X159234785Y-105211090D01*
X159474379Y-105133241D01*
X159698845Y-105018870D01*
X159902656Y-104870793D01*
X159902671Y-104870777D01*
X159906209Y-104867758D01*
X159969970Y-104839188D01*
X160039056Y-104849626D01*
G37*
%TD.AperFunction*%
%TA.AperFunction,Conductor*%
G36*
X163291354Y-104505376D02*
G01*
X163342556Y-104552917D01*
X163360000Y-104616335D01*
X163360000Y-105197844D01*
X163366401Y-105257372D01*
X163366403Y-105257379D01*
X163416645Y-105392086D01*
X163416649Y-105392093D01*
X163502809Y-105507187D01*
X163502812Y-105507190D01*
X163617906Y-105593350D01*
X163617913Y-105593354D01*
X163752620Y-105643596D01*
X163752627Y-105643598D01*
X163812155Y-105649999D01*
X163812172Y-105650000D01*
X164460000Y-105650000D01*
X164460000Y-104733012D01*
X164517007Y-104765925D01*
X164644174Y-104800000D01*
X164775826Y-104800000D01*
X164902993Y-104765925D01*
X164960000Y-104733012D01*
X164960000Y-105650000D01*
X165607828Y-105650000D01*
X165607844Y-105649999D01*
X165667372Y-105643598D01*
X165667379Y-105643596D01*
X165802086Y-105593354D01*
X165802093Y-105593350D01*
X165917186Y-105507190D01*
X166006979Y-105387244D01*
X166062913Y-105345373D01*
X166132605Y-105340389D01*
X166193927Y-105373874D01*
X166537972Y-105717918D01*
X166571457Y-105779241D01*
X166566473Y-105848932D01*
X166548668Y-105881084D01*
X166500720Y-105943571D01*
X166500719Y-105943573D01*
X166443991Y-106080527D01*
X166443990Y-106080529D01*
X166429500Y-106190598D01*
X166429500Y-106389403D01*
X166443989Y-106499468D01*
X166446094Y-106507322D01*
X166442814Y-106508200D01*
X166448581Y-106562073D01*
X166445517Y-106572522D01*
X166446095Y-106572677D01*
X166443990Y-106580529D01*
X166429500Y-106690598D01*
X166429500Y-106850192D01*
X166409815Y-106917231D01*
X166357011Y-106962986D01*
X166287853Y-106972930D01*
X166224297Y-106943905D01*
X166217819Y-106937873D01*
X165834674Y-106554727D01*
X165834673Y-106554726D01*
X165834669Y-106554723D01*
X165728127Y-106483535D01*
X165709716Y-106475909D01*
X165609744Y-106434499D01*
X165609738Y-106434497D01*
X165484071Y-106409500D01*
X165484069Y-106409500D01*
X163118131Y-106409500D01*
X163051092Y-106389815D01*
X163005337Y-106337011D01*
X162995393Y-106267853D01*
X163000201Y-106247180D01*
X163006495Y-106227809D01*
X163006494Y-106227809D01*
X163006497Y-106227803D01*
X163025185Y-106050000D01*
X163006497Y-105872197D01*
X162957750Y-105722170D01*
X162951252Y-105702170D01*
X162951249Y-105702164D01*
X162923034Y-105653294D01*
X162861859Y-105547335D01*
X162805388Y-105484618D01*
X162742235Y-105414478D01*
X162742232Y-105414476D01*
X162742231Y-105414475D01*
X162742230Y-105414474D01*
X162597593Y-105309388D01*
X162445741Y-105241779D01*
X162392504Y-105196529D01*
X162372183Y-105129680D01*
X162391228Y-105062456D01*
X162443594Y-105016201D01*
X162483576Y-105005142D01*
X162587696Y-104994505D01*
X162754119Y-104939358D01*
X162754124Y-104939356D01*
X162903345Y-104847315D01*
X163027315Y-104723345D01*
X163119356Y-104574124D01*
X163122408Y-104567579D01*
X163124402Y-104568509D01*
X163158063Y-104519889D01*
X163222577Y-104493064D01*
X163291354Y-104505376D01*
G37*
%TD.AperFunction*%
%TA.AperFunction,Conductor*%
G36*
X171863529Y-70084088D02*
G01*
X171909284Y-70136892D01*
X171919228Y-70206050D01*
X171893437Y-70265716D01*
X171893196Y-70266017D01*
X171893195Y-70266019D01*
X171791399Y-70393667D01*
X171729614Y-70471143D01*
X171598432Y-70698356D01*
X171502582Y-70942578D01*
X171502576Y-70942597D01*
X171444197Y-71198374D01*
X171444196Y-71198379D01*
X171424592Y-71459995D01*
X171424592Y-71460004D01*
X171444196Y-71721620D01*
X171444197Y-71721625D01*
X171502576Y-71977402D01*
X171502578Y-71977411D01*
X171502580Y-71977416D01*
X171598432Y-72221643D01*
X171729614Y-72448857D01*
X171848350Y-72597747D01*
X171893198Y-72653985D01*
X171936283Y-72693961D01*
X172085521Y-72832433D01*
X172112038Y-72850512D01*
X172122356Y-72857547D01*
X172166657Y-72911577D01*
X172174715Y-72980980D01*
X172143972Y-73043722D01*
X172122356Y-73062453D01*
X172085522Y-73087566D01*
X171893198Y-73266014D01*
X171729614Y-73471143D01*
X171598432Y-73698356D01*
X171502582Y-73942578D01*
X171502576Y-73942597D01*
X171444197Y-74198374D01*
X171444196Y-74198379D01*
X171424592Y-74459995D01*
X171424592Y-74460004D01*
X171444196Y-74721620D01*
X171444197Y-74721625D01*
X171502576Y-74977402D01*
X171502578Y-74977411D01*
X171502580Y-74977416D01*
X171598432Y-75221643D01*
X171729614Y-75448857D01*
X171822232Y-75564996D01*
X171893198Y-75653985D01*
X172030915Y-75781766D01*
X172085521Y-75832433D01*
X172302296Y-75980228D01*
X172302301Y-75980230D01*
X172302302Y-75980231D01*
X172302303Y-75980232D01*
X172423631Y-76038660D01*
X172538673Y-76094061D01*
X172538674Y-76094061D01*
X172538677Y-76094063D01*
X172789385Y-76171396D01*
X173048818Y-76210500D01*
X173311182Y-76210500D01*
X173570615Y-76171396D01*
X173821323Y-76094063D01*
X174057704Y-75980228D01*
X174274479Y-75832433D01*
X174466805Y-75653981D01*
X174630386Y-75448857D01*
X174761568Y-75221643D01*
X174857420Y-74977416D01*
X174915802Y-74721630D01*
X174935408Y-74460000D01*
X174921697Y-74277041D01*
X174915803Y-74198379D01*
X174915802Y-74198374D01*
X174915802Y-74198370D01*
X174857420Y-73942584D01*
X174761568Y-73698357D01*
X174630386Y-73471143D01*
X174466805Y-73266019D01*
X174466804Y-73266018D01*
X174466801Y-73266014D01*
X174274479Y-73087567D01*
X174245116Y-73067548D01*
X174237642Y-73062452D01*
X174193342Y-73008425D01*
X174185283Y-72939021D01*
X174216026Y-72876279D01*
X174237643Y-72857547D01*
X174274479Y-72832433D01*
X174466805Y-72653981D01*
X174630386Y-72448857D01*
X174761568Y-72221643D01*
X174857420Y-71977416D01*
X174915802Y-71721630D01*
X174915808Y-71721550D01*
X174935408Y-71460004D01*
X174935408Y-71459995D01*
X174915803Y-71198379D01*
X174915802Y-71198374D01*
X174915802Y-71198370D01*
X174857420Y-70942584D01*
X174761568Y-70698357D01*
X174630386Y-70471143D01*
X174466805Y-70266019D01*
X174466803Y-70266017D01*
X174466563Y-70265716D01*
X174440154Y-70201029D01*
X174452911Y-70132334D01*
X174500781Y-70081440D01*
X174563510Y-70064403D01*
X175796490Y-70064403D01*
X175863529Y-70084088D01*
X175909284Y-70136892D01*
X175919228Y-70206050D01*
X175893437Y-70265716D01*
X175893196Y-70266017D01*
X175893195Y-70266019D01*
X175791399Y-70393667D01*
X175729614Y-70471143D01*
X175598432Y-70698356D01*
X175502582Y-70942578D01*
X175502576Y-70942597D01*
X175444197Y-71198374D01*
X175444196Y-71198379D01*
X175424592Y-71459995D01*
X175424592Y-71460004D01*
X175444196Y-71721620D01*
X175444197Y-71721625D01*
X175502576Y-71977402D01*
X175502578Y-71977411D01*
X175502580Y-71977416D01*
X175598432Y-72221643D01*
X175729614Y-72448857D01*
X175848350Y-72597747D01*
X175893198Y-72653985D01*
X175936283Y-72693961D01*
X176085521Y-72832433D01*
X176112038Y-72850512D01*
X176122356Y-72857547D01*
X176166657Y-72911577D01*
X176174715Y-72980980D01*
X176143972Y-73043722D01*
X176122356Y-73062453D01*
X176085522Y-73087566D01*
X175893198Y-73266014D01*
X175729614Y-73471143D01*
X175598432Y-73698356D01*
X175502582Y-73942578D01*
X175502576Y-73942597D01*
X175444197Y-74198374D01*
X175444196Y-74198379D01*
X175424592Y-74459995D01*
X175424592Y-74460004D01*
X175444196Y-74721620D01*
X175444197Y-74721625D01*
X175502576Y-74977402D01*
X175502578Y-74977411D01*
X175502580Y-74977416D01*
X175598432Y-75221643D01*
X175729614Y-75448857D01*
X175822232Y-75564996D01*
X175893198Y-75653985D01*
X176030915Y-75781766D01*
X176085521Y-75832433D01*
X176302296Y-75980228D01*
X176302301Y-75980230D01*
X176302302Y-75980231D01*
X176302303Y-75980232D01*
X176423631Y-76038660D01*
X176538673Y-76094061D01*
X176538674Y-76094061D01*
X176538677Y-76094063D01*
X176789385Y-76171396D01*
X177048818Y-76210500D01*
X177311182Y-76210500D01*
X177570615Y-76171396D01*
X177821323Y-76094063D01*
X178057704Y-75980228D01*
X178274479Y-75832433D01*
X178466805Y-75653981D01*
X178630386Y-75448857D01*
X178761568Y-75221643D01*
X178857420Y-74977416D01*
X178915802Y-74721630D01*
X178935408Y-74460000D01*
X178921697Y-74277041D01*
X178915803Y-74198379D01*
X178915802Y-74198374D01*
X178915802Y-74198370D01*
X178857420Y-73942584D01*
X178761568Y-73698357D01*
X178630386Y-73471143D01*
X178466805Y-73266019D01*
X178466804Y-73266018D01*
X178466801Y-73266014D01*
X178274479Y-73087567D01*
X178245116Y-73067548D01*
X178237642Y-73062452D01*
X178193342Y-73008425D01*
X178185283Y-72939021D01*
X178216026Y-72876279D01*
X178237643Y-72857547D01*
X178274479Y-72832433D01*
X178466805Y-72653981D01*
X178630386Y-72448857D01*
X178761568Y-72221643D01*
X178857420Y-71977416D01*
X178915802Y-71721630D01*
X178915808Y-71721550D01*
X178935408Y-71460004D01*
X178935408Y-71459995D01*
X178915803Y-71198379D01*
X178915802Y-71198374D01*
X178915802Y-71198370D01*
X178857420Y-70942584D01*
X178761568Y-70698357D01*
X178630386Y-70471143D01*
X178466805Y-70266019D01*
X178466803Y-70266017D01*
X178466563Y-70265716D01*
X178440154Y-70201029D01*
X178452911Y-70132334D01*
X178500781Y-70081440D01*
X178563510Y-70064403D01*
X180086594Y-70064403D01*
X180153633Y-70084088D01*
X180174275Y-70100722D01*
X180855974Y-70782421D01*
X180824742Y-70795359D01*
X180701903Y-70877437D01*
X180597437Y-70981903D01*
X180515359Y-71104742D01*
X180502422Y-71135974D01*
X179777875Y-70411427D01*
X179777874Y-70411427D01*
X179730028Y-70471425D01*
X179598883Y-70698573D01*
X179503058Y-70942729D01*
X179444693Y-71198449D01*
X179444692Y-71198454D01*
X179425093Y-71459995D01*
X179425093Y-71460004D01*
X179444692Y-71721545D01*
X179444693Y-71721550D01*
X179503058Y-71977270D01*
X179598883Y-72221426D01*
X179598882Y-72221426D01*
X179730027Y-72448573D01*
X179777874Y-72508571D01*
X180502421Y-71784024D01*
X180515359Y-71815258D01*
X180597437Y-71938097D01*
X180701903Y-72042563D01*
X180824742Y-72124641D01*
X180855974Y-72137577D01*
X180130830Y-72862720D01*
X180131287Y-72867598D01*
X180167099Y-72911271D01*
X180175159Y-72980674D01*
X180144417Y-73043417D01*
X180122799Y-73062149D01*
X180085534Y-73087556D01*
X180085524Y-73087564D01*
X179893198Y-73266014D01*
X179729614Y-73471143D01*
X179598432Y-73698356D01*
X179502582Y-73942578D01*
X179502576Y-73942597D01*
X179444197Y-74198374D01*
X179444196Y-74198379D01*
X179424592Y-74459995D01*
X179424592Y-74460004D01*
X179444196Y-74721620D01*
X179444197Y-74721625D01*
X179502576Y-74977402D01*
X179502578Y-74977411D01*
X179502580Y-74977416D01*
X179598432Y-75221643D01*
X179729614Y-75448857D01*
X179822232Y-75564996D01*
X179893198Y-75653985D01*
X180030915Y-75781766D01*
X180085521Y-75832433D01*
X180302296Y-75980228D01*
X180302301Y-75980230D01*
X180302302Y-75980231D01*
X180302303Y-75980232D01*
X180423631Y-76038660D01*
X180538673Y-76094061D01*
X180538674Y-76094061D01*
X180538677Y-76094063D01*
X180789385Y-76171396D01*
X181048818Y-76210500D01*
X181311182Y-76210500D01*
X181570615Y-76171396D01*
X181821323Y-76094063D01*
X182057704Y-75980228D01*
X182274479Y-75832433D01*
X182466805Y-75653981D01*
X182630386Y-75448857D01*
X182761568Y-75221643D01*
X182857420Y-74977416D01*
X182915802Y-74721630D01*
X182935408Y-74460000D01*
X182921697Y-74277041D01*
X182915803Y-74198379D01*
X182915802Y-74198374D01*
X182915802Y-74198370D01*
X182857420Y-73942584D01*
X182761568Y-73698357D01*
X182630386Y-73471143D01*
X182466805Y-73266019D01*
X182466804Y-73266018D01*
X182466801Y-73266014D01*
X182342890Y-73151042D01*
X182274479Y-73087567D01*
X182245117Y-73067548D01*
X182237200Y-73062150D01*
X182192898Y-73008121D01*
X182184840Y-72938718D01*
X182215583Y-72875975D01*
X182229017Y-72864334D01*
X182229168Y-72862720D01*
X181504025Y-72137578D01*
X181535258Y-72124641D01*
X181658097Y-72042563D01*
X181762563Y-71938097D01*
X181844641Y-71815258D01*
X181857578Y-71784025D01*
X182582125Y-72508572D01*
X182629971Y-72448573D01*
X182761116Y-72221426D01*
X182856941Y-71977270D01*
X182915306Y-71721550D01*
X182915307Y-71721545D01*
X182934907Y-71460004D01*
X182934907Y-71459995D01*
X182915307Y-71198454D01*
X182915306Y-71198449D01*
X182856941Y-70942729D01*
X182761116Y-70698573D01*
X182761117Y-70698573D01*
X182629972Y-70471426D01*
X182582124Y-70411427D01*
X181857577Y-71135973D01*
X181844641Y-71104742D01*
X181762563Y-70981903D01*
X181658097Y-70877437D01*
X181535258Y-70795359D01*
X181504025Y-70782421D01*
X182185725Y-70100722D01*
X182247048Y-70067237D01*
X182273406Y-70064403D01*
X183796490Y-70064403D01*
X183863529Y-70084088D01*
X183909284Y-70136892D01*
X183919228Y-70206050D01*
X183893437Y-70265716D01*
X183893196Y-70266017D01*
X183893195Y-70266019D01*
X183791399Y-70393667D01*
X183729614Y-70471143D01*
X183598432Y-70698356D01*
X183502582Y-70942578D01*
X183502576Y-70942597D01*
X183444197Y-71198374D01*
X183444196Y-71198379D01*
X183424592Y-71459995D01*
X183424592Y-71460004D01*
X183444196Y-71721620D01*
X183444197Y-71721625D01*
X183502576Y-71977402D01*
X183502578Y-71977411D01*
X183502580Y-71977416D01*
X183598432Y-72221643D01*
X183729614Y-72448857D01*
X183848350Y-72597747D01*
X183893198Y-72653985D01*
X183936283Y-72693961D01*
X184085521Y-72832433D01*
X184112038Y-72850512D01*
X184122356Y-72857547D01*
X184166657Y-72911577D01*
X184174715Y-72980980D01*
X184143972Y-73043722D01*
X184122356Y-73062453D01*
X184085522Y-73087566D01*
X183893198Y-73266014D01*
X183729614Y-73471143D01*
X183598432Y-73698356D01*
X183502582Y-73942578D01*
X183502576Y-73942597D01*
X183444197Y-74198374D01*
X183444196Y-74198379D01*
X183424592Y-74459995D01*
X183424592Y-74460004D01*
X183444196Y-74721620D01*
X183444197Y-74721625D01*
X183502576Y-74977402D01*
X183502578Y-74977411D01*
X183502580Y-74977416D01*
X183598432Y-75221643D01*
X183729614Y-75448857D01*
X183822232Y-75564996D01*
X183893198Y-75653985D01*
X184030915Y-75781766D01*
X184085521Y-75832433D01*
X184302296Y-75980228D01*
X184302301Y-75980230D01*
X184302302Y-75980231D01*
X184302303Y-75980232D01*
X184423631Y-76038660D01*
X184538673Y-76094061D01*
X184538674Y-76094061D01*
X184538677Y-76094063D01*
X184789385Y-76171396D01*
X185048818Y-76210500D01*
X185311182Y-76210500D01*
X185570615Y-76171396D01*
X185821323Y-76094063D01*
X186057704Y-75980228D01*
X186274479Y-75832433D01*
X186466805Y-75653981D01*
X186630386Y-75448857D01*
X186761568Y-75221643D01*
X186857420Y-74977416D01*
X186915802Y-74721630D01*
X186935408Y-74460000D01*
X186921697Y-74277041D01*
X186915803Y-74198379D01*
X186915802Y-74198374D01*
X186915802Y-74198370D01*
X186857420Y-73942584D01*
X186761568Y-73698357D01*
X186630386Y-73471143D01*
X186466805Y-73266019D01*
X186466804Y-73266018D01*
X186466801Y-73266014D01*
X186274479Y-73087567D01*
X186245116Y-73067548D01*
X186237642Y-73062452D01*
X186193342Y-73008425D01*
X186185283Y-72939021D01*
X186216026Y-72876279D01*
X186237643Y-72857547D01*
X186274479Y-72832433D01*
X186466805Y-72653981D01*
X186630386Y-72448857D01*
X186761568Y-72221643D01*
X186857420Y-71977416D01*
X186915802Y-71721630D01*
X186915808Y-71721550D01*
X186935408Y-71460004D01*
X186935408Y-71459995D01*
X186915803Y-71198379D01*
X186915802Y-71198374D01*
X186915802Y-71198370D01*
X186857420Y-70942584D01*
X186761568Y-70698357D01*
X186630386Y-70471143D01*
X186466805Y-70266019D01*
X186466803Y-70266017D01*
X186466563Y-70265716D01*
X186440154Y-70201029D01*
X186452911Y-70132334D01*
X186500781Y-70081440D01*
X186563510Y-70064403D01*
X187796490Y-70064403D01*
X187863529Y-70084088D01*
X187909284Y-70136892D01*
X187919228Y-70206050D01*
X187893437Y-70265716D01*
X187893196Y-70266017D01*
X187893195Y-70266019D01*
X187791399Y-70393667D01*
X187729614Y-70471143D01*
X187598432Y-70698356D01*
X187502582Y-70942578D01*
X187502576Y-70942597D01*
X187444197Y-71198374D01*
X187444196Y-71198379D01*
X187424592Y-71459995D01*
X187424592Y-71460004D01*
X187444196Y-71721620D01*
X187444197Y-71721625D01*
X187502576Y-71977402D01*
X187502578Y-71977411D01*
X187502580Y-71977416D01*
X187598432Y-72221643D01*
X187729614Y-72448857D01*
X187848350Y-72597747D01*
X187893198Y-72653985D01*
X187936283Y-72693961D01*
X188085521Y-72832433D01*
X188112038Y-72850512D01*
X188122356Y-72857547D01*
X188166657Y-72911577D01*
X188174715Y-72980980D01*
X188143972Y-73043722D01*
X188122356Y-73062453D01*
X188085522Y-73087566D01*
X187893198Y-73266014D01*
X187729614Y-73471143D01*
X187598432Y-73698356D01*
X187502582Y-73942578D01*
X187502576Y-73942597D01*
X187444197Y-74198374D01*
X187444196Y-74198379D01*
X187424592Y-74459995D01*
X187424592Y-74460004D01*
X187444196Y-74721620D01*
X187444197Y-74721625D01*
X187502576Y-74977402D01*
X187502578Y-74977411D01*
X187502580Y-74977416D01*
X187598432Y-75221643D01*
X187729614Y-75448857D01*
X187822232Y-75564996D01*
X187893198Y-75653985D01*
X188030915Y-75781766D01*
X188085521Y-75832433D01*
X188302296Y-75980228D01*
X188302301Y-75980230D01*
X188302302Y-75980231D01*
X188302303Y-75980232D01*
X188423631Y-76038660D01*
X188538673Y-76094061D01*
X188538674Y-76094061D01*
X188538677Y-76094063D01*
X188789385Y-76171396D01*
X189048818Y-76210500D01*
X189311182Y-76210500D01*
X189570615Y-76171396D01*
X189821323Y-76094063D01*
X190057704Y-75980228D01*
X190274479Y-75832433D01*
X190466805Y-75653981D01*
X190630386Y-75448857D01*
X190761568Y-75221643D01*
X190857420Y-74977416D01*
X190915802Y-74721630D01*
X190935408Y-74460000D01*
X190921697Y-74277041D01*
X190915803Y-74198379D01*
X190915802Y-74198374D01*
X190915802Y-74198370D01*
X190857420Y-73942584D01*
X190761568Y-73698357D01*
X190630386Y-73471143D01*
X190466805Y-73266019D01*
X190466804Y-73266018D01*
X190466801Y-73266014D01*
X190274479Y-73087567D01*
X190245116Y-73067548D01*
X190237642Y-73062452D01*
X190193342Y-73008425D01*
X190185283Y-72939021D01*
X190216026Y-72876279D01*
X190237643Y-72857547D01*
X190274479Y-72832433D01*
X190466805Y-72653981D01*
X190630386Y-72448857D01*
X190761568Y-72221643D01*
X190857420Y-71977416D01*
X190915802Y-71721630D01*
X190915808Y-71721550D01*
X190935408Y-71460004D01*
X190935408Y-71459995D01*
X190915803Y-71198379D01*
X190915802Y-71198374D01*
X190915802Y-71198370D01*
X190857420Y-70942584D01*
X190761568Y-70698357D01*
X190630386Y-70471143D01*
X190466805Y-70266019D01*
X190466803Y-70266017D01*
X190466563Y-70265716D01*
X190440154Y-70201029D01*
X190452911Y-70132334D01*
X190500781Y-70081440D01*
X190563510Y-70064403D01*
X191305500Y-70064403D01*
X191372539Y-70084088D01*
X191418294Y-70136892D01*
X191429500Y-70188403D01*
X191429500Y-72757870D01*
X191429501Y-72757876D01*
X191435908Y-72817483D01*
X191486202Y-72952328D01*
X191486206Y-72952335D01*
X191572452Y-73067544D01*
X191572455Y-73067547D01*
X191687664Y-73153793D01*
X191687673Y-73153798D01*
X191734634Y-73171313D01*
X191754800Y-73178834D01*
X191810734Y-73220704D01*
X191835152Y-73286168D01*
X191820301Y-73354441D01*
X191808415Y-73372328D01*
X191729616Y-73471139D01*
X191598432Y-73698356D01*
X191502582Y-73942578D01*
X191502576Y-73942597D01*
X191444197Y-74198374D01*
X191444196Y-74198379D01*
X191424592Y-74459995D01*
X191424592Y-74460004D01*
X191444196Y-74721620D01*
X191444197Y-74721625D01*
X191502576Y-74977402D01*
X191502578Y-74977411D01*
X191502580Y-74977416D01*
X191598432Y-75221643D01*
X191729614Y-75448857D01*
X191822232Y-75564996D01*
X191893198Y-75653985D01*
X192030915Y-75781766D01*
X192085521Y-75832433D01*
X192302296Y-75980228D01*
X192302301Y-75980230D01*
X192302302Y-75980231D01*
X192302303Y-75980232D01*
X192423631Y-76038660D01*
X192538673Y-76094061D01*
X192538674Y-76094061D01*
X192538677Y-76094063D01*
X192789385Y-76171396D01*
X193048818Y-76210500D01*
X193311182Y-76210500D01*
X193570615Y-76171396D01*
X193821323Y-76094063D01*
X194057704Y-75980228D01*
X194274479Y-75832433D01*
X194466805Y-75653981D01*
X194630386Y-75448857D01*
X194761568Y-75221643D01*
X194857420Y-74977416D01*
X194915802Y-74721630D01*
X194935408Y-74460000D01*
X194921697Y-74277041D01*
X194915803Y-74198379D01*
X194915802Y-74198374D01*
X194915802Y-74198370D01*
X194857420Y-73942584D01*
X194761568Y-73698357D01*
X194630386Y-73471143D01*
X194551583Y-73372327D01*
X194525176Y-73307642D01*
X194537932Y-73238947D01*
X194585802Y-73188053D01*
X194605188Y-73178838D01*
X194672331Y-73153796D01*
X194787546Y-73067546D01*
X194862859Y-72966940D01*
X194918790Y-72925072D01*
X194988481Y-72920088D01*
X195049804Y-72953573D01*
X195083289Y-73014896D01*
X195085897Y-73033767D01*
X195104786Y-73346038D01*
X195163667Y-73667341D01*
X195260835Y-73979164D01*
X195260839Y-73979175D01*
X195394897Y-74277041D01*
X195394898Y-74277043D01*
X195563881Y-74556576D01*
X195711476Y-74744968D01*
X196853708Y-73602736D01*
X196950967Y-73736602D01*
X197073398Y-73859033D01*
X197207262Y-73956290D01*
X196065030Y-75098522D01*
X196065030Y-75098523D01*
X196253423Y-75246118D01*
X196532956Y-75415101D01*
X196532958Y-75415102D01*
X196830824Y-75549160D01*
X196830835Y-75549164D01*
X197142658Y-75646332D01*
X197463961Y-75705213D01*
X197789999Y-75724934D01*
X197920580Y-75717036D01*
X197988686Y-75732637D01*
X198036747Y-75781766D01*
X198053859Y-75744297D01*
X198112637Y-75706523D01*
X198125220Y-75703531D01*
X198437341Y-75646332D01*
X198749164Y-75549164D01*
X198749175Y-75549160D01*
X199047041Y-75415102D01*
X199047043Y-75415101D01*
X199326586Y-75246112D01*
X199514968Y-75098523D01*
X199514968Y-75098522D01*
X198372737Y-73956290D01*
X198506602Y-73859033D01*
X198629033Y-73736602D01*
X198726290Y-73602737D01*
X199868522Y-74744968D01*
X199868523Y-74744968D01*
X200016112Y-74556586D01*
X200185101Y-74277043D01*
X200185102Y-74277041D01*
X200319160Y-73979175D01*
X200319164Y-73979164D01*
X200416332Y-73667341D01*
X200475213Y-73346038D01*
X200494934Y-73020000D01*
X200475213Y-72693961D01*
X200416332Y-72372658D01*
X200319164Y-72060835D01*
X200319160Y-72060824D01*
X200185102Y-71762958D01*
X200185101Y-71762956D01*
X200016118Y-71483423D01*
X199868522Y-71295030D01*
X198726290Y-72437262D01*
X198629033Y-72303398D01*
X198506602Y-72180967D01*
X198372736Y-72083709D01*
X199514968Y-70941476D01*
X199326576Y-70793881D01*
X199047043Y-70624898D01*
X199047041Y-70624897D01*
X198749175Y-70490839D01*
X198749164Y-70490835D01*
X198437341Y-70393667D01*
X198116038Y-70334786D01*
X197790000Y-70315065D01*
X197463961Y-70334786D01*
X197142658Y-70393667D01*
X196830835Y-70490835D01*
X196830824Y-70490839D01*
X196532958Y-70624897D01*
X196532956Y-70624898D01*
X196253422Y-70793881D01*
X196253416Y-70793886D01*
X196065030Y-70941474D01*
X196065029Y-70941476D01*
X197207262Y-72083709D01*
X197073398Y-72180967D01*
X196950967Y-72303398D01*
X196853709Y-72437262D01*
X195711476Y-71295029D01*
X195711474Y-71295030D01*
X195563886Y-71483416D01*
X195563881Y-71483422D01*
X195394898Y-71762956D01*
X195394897Y-71762958D01*
X195260839Y-72060824D01*
X195260836Y-72060831D01*
X195172884Y-72343079D01*
X195134146Y-72401226D01*
X195070121Y-72429200D01*
X195001136Y-72418118D01*
X194949093Y-72371499D01*
X194930499Y-72306190D01*
X194930499Y-70188402D01*
X194950184Y-70121364D01*
X195002988Y-70075609D01*
X195054499Y-70064403D01*
X199073668Y-70064403D01*
X199082524Y-70064720D01*
X199117675Y-70067237D01*
X199311028Y-70081082D01*
X199328532Y-70083599D01*
X199548311Y-70131424D01*
X199565261Y-70136402D01*
X199775997Y-70215013D01*
X199792073Y-70222355D01*
X199989472Y-70330149D01*
X200004346Y-70339709D01*
X200184391Y-70474492D01*
X200197759Y-70486075D01*
X200356788Y-70645097D01*
X200368372Y-70658465D01*
X200398237Y-70698357D01*
X200503155Y-70838500D01*
X200512720Y-70853381D01*
X200557980Y-70936257D01*
X200598973Y-71011320D01*
X200620518Y-71050770D01*
X200627863Y-71066851D01*
X200676931Y-71198374D01*
X200706476Y-71277569D01*
X200711461Y-71294541D01*
X200759290Y-71514303D01*
X200761809Y-71531812D01*
X200778128Y-71759591D01*
X200778445Y-71768452D01*
X200778445Y-93839137D01*
X200758760Y-93906176D01*
X200705956Y-93951931D01*
X200636798Y-93961875D01*
X200573242Y-93932850D01*
X200566764Y-93926818D01*
X199979822Y-93339876D01*
X199946337Y-93278553D01*
X199947728Y-93220101D01*
X199953114Y-93200000D01*
X199965063Y-93155408D01*
X199985659Y-92920000D01*
X199965063Y-92684592D01*
X199903903Y-92456337D01*
X199804035Y-92242171D01*
X199791862Y-92224785D01*
X199668494Y-92048597D01*
X199501402Y-91881506D01*
X199501396Y-91881501D01*
X199315842Y-91751575D01*
X199272217Y-91696998D01*
X199265023Y-91627500D01*
X199296546Y-91565145D01*
X199315842Y-91548425D01*
X199360653Y-91517048D01*
X199501401Y-91418495D01*
X199668495Y-91251401D01*
X199804035Y-91057830D01*
X199903903Y-90843663D01*
X199965063Y-90615408D01*
X199985659Y-90380000D01*
X199965063Y-90144592D01*
X199903903Y-89916337D01*
X199804035Y-89702171D01*
X199771007Y-89655001D01*
X199668494Y-89508597D01*
X199501402Y-89341506D01*
X199501396Y-89341501D01*
X199315842Y-89211575D01*
X199272217Y-89156998D01*
X199265023Y-89087500D01*
X199296546Y-89025145D01*
X199315842Y-89008425D01*
X199391658Y-88955338D01*
X199501401Y-88878495D01*
X199668495Y-88711401D01*
X199804035Y-88517830D01*
X199903903Y-88303663D01*
X199965063Y-88075408D01*
X199985659Y-87840000D01*
X199965063Y-87604592D01*
X199912317Y-87407738D01*
X199903905Y-87376344D01*
X199903904Y-87376343D01*
X199903903Y-87376337D01*
X199804035Y-87162171D01*
X199725492Y-87050000D01*
X199668496Y-86968600D01*
X199628537Y-86928641D01*
X199546567Y-86846671D01*
X199513084Y-86785351D01*
X199518068Y-86715659D01*
X199559939Y-86659725D01*
X199590915Y-86642810D01*
X199722331Y-86593796D01*
X199837546Y-86507546D01*
X199923796Y-86392331D01*
X199974091Y-86257483D01*
X199980500Y-86197873D01*
X199980499Y-84402128D01*
X199974091Y-84342517D01*
X199955509Y-84292697D01*
X199923797Y-84207671D01*
X199923793Y-84207664D01*
X199837547Y-84092455D01*
X199837544Y-84092452D01*
X199722335Y-84006206D01*
X199722328Y-84006202D01*
X199587482Y-83955908D01*
X199587483Y-83955908D01*
X199527883Y-83949501D01*
X199527881Y-83949500D01*
X199527873Y-83949500D01*
X199527864Y-83949500D01*
X197732129Y-83949500D01*
X197732123Y-83949501D01*
X197672516Y-83955908D01*
X197537671Y-84006202D01*
X197537664Y-84006206D01*
X197422455Y-84092452D01*
X197422452Y-84092455D01*
X197336206Y-84207664D01*
X197336202Y-84207671D01*
X197285908Y-84342517D01*
X197279501Y-84402116D01*
X197279501Y-84402123D01*
X197279500Y-84402135D01*
X197279500Y-86197870D01*
X197279501Y-86197876D01*
X197285908Y-86257483D01*
X197336202Y-86392328D01*
X197336206Y-86392335D01*
X197422452Y-86507544D01*
X197422455Y-86507547D01*
X197537664Y-86593793D01*
X197537671Y-86593797D01*
X197669081Y-86642810D01*
X197725015Y-86684681D01*
X197749432Y-86750145D01*
X197734580Y-86818418D01*
X197713430Y-86846673D01*
X197591503Y-86968600D01*
X197455965Y-87162169D01*
X197455964Y-87162171D01*
X197356098Y-87376335D01*
X197356094Y-87376344D01*
X197294938Y-87604586D01*
X197294936Y-87604596D01*
X197274341Y-87839999D01*
X197274341Y-87840000D01*
X197294936Y-88075403D01*
X197294938Y-88075413D01*
X197356094Y-88303655D01*
X197356096Y-88303659D01*
X197356097Y-88303663D01*
X197449749Y-88504500D01*
X197455965Y-88517830D01*
X197455967Y-88517834D01*
X197516605Y-88604433D01*
X197569866Y-88680498D01*
X197591501Y-88711395D01*
X197591506Y-88711402D01*
X197758597Y-88878493D01*
X197758603Y-88878498D01*
X197944158Y-89008425D01*
X197987783Y-89063002D01*
X197994977Y-89132500D01*
X197963454Y-89194855D01*
X197944158Y-89211575D01*
X197758597Y-89341505D01*
X197591505Y-89508597D01*
X197455965Y-89702169D01*
X197455964Y-89702171D01*
X197356098Y-89916335D01*
X197356094Y-89916344D01*
X197294938Y-90144586D01*
X197294936Y-90144596D01*
X197274341Y-90379999D01*
X197274341Y-90380000D01*
X197294936Y-90615403D01*
X197294938Y-90615413D01*
X197312271Y-90680101D01*
X197310608Y-90749951D01*
X197280177Y-90799875D01*
X196374722Y-91705331D01*
X196374720Y-91705333D01*
X196348550Y-91744503D01*
X196348548Y-91744506D01*
X196303534Y-91811873D01*
X196254499Y-91930255D01*
X196254497Y-91930261D01*
X196229500Y-92055928D01*
X196229500Y-97861000D01*
X196209815Y-97928039D01*
X196157011Y-97973794D01*
X196124031Y-97980968D01*
X196120000Y-97985000D01*
X196120000Y-100485000D01*
X196126027Y-100491027D01*
X196172539Y-100504685D01*
X196218294Y-100557489D01*
X196229500Y-100609000D01*
X196229500Y-101559192D01*
X196209815Y-101626231D01*
X196193181Y-101646873D01*
X192646873Y-105193181D01*
X192585550Y-105226666D01*
X192559192Y-105229500D01*
X189009808Y-105229500D01*
X188942769Y-105209815D01*
X188897014Y-105157011D01*
X188887070Y-105087853D01*
X188916095Y-105024297D01*
X188922127Y-105017819D01*
X190305272Y-103634674D01*
X190305277Y-103634669D01*
X190376466Y-103528126D01*
X190408720Y-103450256D01*
X190425501Y-103409744D01*
X190443840Y-103317551D01*
X190450500Y-103284071D01*
X190450500Y-101466197D01*
X190470185Y-101399158D01*
X190482352Y-101383223D01*
X190491859Y-101372665D01*
X190581250Y-101217835D01*
X190636497Y-101047803D01*
X190655185Y-100870000D01*
X190636497Y-100692197D01*
X190622077Y-100647817D01*
X190620082Y-100577976D01*
X190656162Y-100518143D01*
X190718863Y-100487315D01*
X190740008Y-100485499D01*
X191287871Y-100485499D01*
X191287872Y-100485499D01*
X191347483Y-100479091D01*
X191381667Y-100466340D01*
X191451358Y-100461357D01*
X191468327Y-100466338D01*
X191502517Y-100479091D01*
X191562127Y-100485500D01*
X192557872Y-100485499D01*
X192617483Y-100479091D01*
X192651667Y-100466340D01*
X192721358Y-100461357D01*
X192738327Y-100466338D01*
X192772517Y-100479091D01*
X192832127Y-100485500D01*
X193827872Y-100485499D01*
X193887483Y-100479091D01*
X193921667Y-100466340D01*
X193991358Y-100461357D01*
X194008327Y-100466338D01*
X194042517Y-100479091D01*
X194102127Y-100485500D01*
X195097872Y-100485499D01*
X195157483Y-100479091D01*
X195192381Y-100466074D01*
X195262069Y-100461089D01*
X195279050Y-100466075D01*
X195312623Y-100478598D01*
X195372155Y-100484999D01*
X195372172Y-100485000D01*
X195620000Y-100485000D01*
X195620000Y-97985000D01*
X195372155Y-97985000D01*
X195312627Y-97991401D01*
X195312619Y-97991403D01*
X195279047Y-98003925D01*
X195209355Y-98008909D01*
X195192381Y-98003925D01*
X195157482Y-97990908D01*
X195157483Y-97990908D01*
X195097883Y-97984501D01*
X195097881Y-97984500D01*
X195097873Y-97984500D01*
X195097864Y-97984500D01*
X194102129Y-97984500D01*
X194102123Y-97984501D01*
X194042518Y-97990908D01*
X194008331Y-98003659D01*
X193938639Y-98008642D01*
X193921669Y-98003659D01*
X193902133Y-97996373D01*
X193887483Y-97990909D01*
X193887482Y-97990908D01*
X193827883Y-97984501D01*
X193827881Y-97984500D01*
X193827873Y-97984500D01*
X193827864Y-97984500D01*
X192832129Y-97984500D01*
X192832123Y-97984501D01*
X192772518Y-97990908D01*
X192738331Y-98003659D01*
X192668639Y-98008642D01*
X192651669Y-98003659D01*
X192632133Y-97996373D01*
X192617483Y-97990909D01*
X192617482Y-97990908D01*
X192617483Y-97990908D01*
X192563270Y-97985080D01*
X192498719Y-97958342D01*
X192458871Y-97900949D01*
X192453206Y-97848826D01*
X192455185Y-97830002D01*
X192453189Y-97811009D01*
X192436497Y-97652197D01*
X192399843Y-97539388D01*
X192381252Y-97482170D01*
X192381249Y-97482164D01*
X192372362Y-97466772D01*
X192314469Y-97366498D01*
X192297997Y-97298599D01*
X192320850Y-97232572D01*
X192375771Y-97189381D01*
X192421857Y-97180499D01*
X194147871Y-97180499D01*
X194147872Y-97180499D01*
X194207483Y-97174091D01*
X194342331Y-97123796D01*
X194457546Y-97037546D01*
X194543796Y-96922331D01*
X194594091Y-96787483D01*
X194600500Y-96727873D01*
X194600499Y-92132128D01*
X194594091Y-92072517D01*
X194585170Y-92048599D01*
X194543797Y-91937671D01*
X194543793Y-91937664D01*
X194457547Y-91822455D01*
X194457544Y-91822452D01*
X194342335Y-91736206D01*
X194342328Y-91736202D01*
X194207482Y-91685908D01*
X194207483Y-91685908D01*
X194147883Y-91679501D01*
X194147881Y-91679500D01*
X194147873Y-91679500D01*
X194147865Y-91679500D01*
X193874500Y-91679500D01*
X193807461Y-91659815D01*
X193761706Y-91607011D01*
X193750500Y-91555500D01*
X193750500Y-90665092D01*
X193770185Y-90598053D01*
X193780381Y-90584699D01*
X193781855Y-90582669D01*
X193781859Y-90582665D01*
X193871250Y-90427835D01*
X193926497Y-90257803D01*
X193945185Y-90080000D01*
X193926497Y-89902197D01*
X193896188Y-89808917D01*
X193871252Y-89732170D01*
X193871249Y-89732164D01*
X193853933Y-89702171D01*
X193781859Y-89577335D01*
X193719967Y-89508597D01*
X193662235Y-89444478D01*
X193662232Y-89444476D01*
X193662231Y-89444475D01*
X193662230Y-89444474D01*
X193517593Y-89339388D01*
X193354267Y-89266671D01*
X193354265Y-89266670D01*
X193226594Y-89239533D01*
X193179391Y-89229500D01*
X193000609Y-89229500D01*
X192969954Y-89236015D01*
X192825733Y-89266670D01*
X192825728Y-89266672D01*
X192662408Y-89339387D01*
X192517768Y-89444475D01*
X192398140Y-89577336D01*
X192308750Y-89732164D01*
X192308747Y-89732170D01*
X192253504Y-89902192D01*
X192253503Y-89902194D01*
X192234815Y-90080000D01*
X192253503Y-90257805D01*
X192253504Y-90257807D01*
X192308747Y-90427829D01*
X192308750Y-90427835D01*
X192398141Y-90582665D01*
X192417650Y-90604332D01*
X192447879Y-90667320D01*
X192449500Y-90687303D01*
X192449500Y-91555500D01*
X192429815Y-91622539D01*
X192377011Y-91668294D01*
X192325500Y-91679500D01*
X192052130Y-91679500D01*
X192052123Y-91679501D01*
X191992516Y-91685908D01*
X191857671Y-91736202D01*
X191857664Y-91736206D01*
X191742455Y-91822452D01*
X191742452Y-91822455D01*
X191656206Y-91937664D01*
X191656202Y-91937671D01*
X191605908Y-92072517D01*
X191602685Y-92102500D01*
X191599501Y-92132123D01*
X191599500Y-92132135D01*
X191599500Y-93655500D01*
X191579815Y-93722539D01*
X191527011Y-93768294D01*
X191475500Y-93779500D01*
X190544470Y-93779500D01*
X190477431Y-93759815D01*
X190438931Y-93720597D01*
X190377712Y-93621344D01*
X190253656Y-93497288D01*
X190250342Y-93495243D01*
X190248546Y-93493248D01*
X190247989Y-93492807D01*
X190248064Y-93492711D01*
X190203618Y-93443297D01*
X190192397Y-93374334D01*
X190220240Y-93310252D01*
X190250348Y-93284165D01*
X190253342Y-93282318D01*
X190377315Y-93158345D01*
X190469356Y-93009124D01*
X190469358Y-93009119D01*
X190524505Y-92842697D01*
X190524506Y-92842690D01*
X190534999Y-92739986D01*
X190535000Y-92739973D01*
X190535000Y-92602500D01*
X188085001Y-92602500D01*
X188085001Y-92739986D01*
X188095494Y-92842697D01*
X188150641Y-93009119D01*
X188150643Y-93009124D01*
X188242684Y-93158345D01*
X188366655Y-93282316D01*
X188366659Y-93282319D01*
X188369656Y-93284168D01*
X188371279Y-93285972D01*
X188372323Y-93286798D01*
X188372181Y-93286976D01*
X188416381Y-93336116D01*
X188427602Y-93405079D01*
X188399759Y-93469161D01*
X188369661Y-93495241D01*
X188366349Y-93497283D01*
X188366343Y-93497288D01*
X188242289Y-93621342D01*
X188150187Y-93770663D01*
X188150185Y-93770668D01*
X188143315Y-93791401D01*
X188095001Y-93937203D01*
X188095001Y-93937204D01*
X188095000Y-93937204D01*
X188084500Y-94039983D01*
X188084500Y-94815001D01*
X188084501Y-94815019D01*
X188095000Y-94917796D01*
X188095001Y-94917799D01*
X188127363Y-95015459D01*
X188150186Y-95084334D01*
X188242288Y-95233656D01*
X188366344Y-95357712D01*
X188515666Y-95449814D01*
X188682203Y-95504999D01*
X188784991Y-95515500D01*
X189835008Y-95515499D01*
X189835016Y-95515498D01*
X189835019Y-95515498D01*
X189928340Y-95505965D01*
X189937797Y-95504999D01*
X190104334Y-95449814D01*
X190253656Y-95357712D01*
X190377712Y-95233656D01*
X190435847Y-95139402D01*
X190487795Y-95092679D01*
X190541386Y-95080500D01*
X191475501Y-95080500D01*
X191542540Y-95100185D01*
X191588295Y-95152989D01*
X191599501Y-95204500D01*
X191599501Y-96610192D01*
X191579816Y-96677231D01*
X191527012Y-96722986D01*
X191457854Y-96732930D01*
X191394298Y-96703905D01*
X191387820Y-96697873D01*
X191374673Y-96684726D01*
X191374669Y-96684723D01*
X191268127Y-96613535D01*
X191260056Y-96610192D01*
X191149744Y-96564499D01*
X191149738Y-96564497D01*
X191024071Y-96539500D01*
X191024069Y-96539500D01*
X187760808Y-96539500D01*
X187693769Y-96519815D01*
X187673127Y-96503181D01*
X186094674Y-94924727D01*
X186094673Y-94924726D01*
X186084303Y-94917797D01*
X185988127Y-94853535D01*
X185901937Y-94817834D01*
X185869744Y-94804499D01*
X185869739Y-94804497D01*
X185770306Y-94784718D01*
X185708396Y-94752332D01*
X185673822Y-94691616D01*
X185670499Y-94663101D01*
X185670499Y-94632129D01*
X185670498Y-94632123D01*
X185670497Y-94632116D01*
X185664091Y-94572517D01*
X185651433Y-94538580D01*
X185613797Y-94437671D01*
X185613793Y-94437664D01*
X185527547Y-94322455D01*
X185527544Y-94322452D01*
X185412335Y-94236206D01*
X185412328Y-94236202D01*
X185277482Y-94185908D01*
X185277483Y-94185908D01*
X185217883Y-94179501D01*
X185217881Y-94179500D01*
X185217873Y-94179500D01*
X185217864Y-94179500D01*
X183622129Y-94179500D01*
X183622123Y-94179501D01*
X183562516Y-94185908D01*
X183427671Y-94236202D01*
X183427664Y-94236206D01*
X183312455Y-94322452D01*
X183312452Y-94322455D01*
X183226206Y-94437664D01*
X183226202Y-94437671D01*
X183175908Y-94572517D01*
X183169501Y-94632116D01*
X183169501Y-94632123D01*
X183169500Y-94632135D01*
X183169500Y-96227870D01*
X183169501Y-96227876D01*
X183175908Y-96287483D01*
X183226202Y-96422328D01*
X183226206Y-96422335D01*
X183312452Y-96537544D01*
X183312455Y-96537547D01*
X183427664Y-96623793D01*
X183427671Y-96623797D01*
X183562517Y-96674091D01*
X183562516Y-96674091D01*
X183569444Y-96674835D01*
X183622127Y-96680500D01*
X185217872Y-96680499D01*
X185277483Y-96674091D01*
X185412331Y-96623796D01*
X185527546Y-96537546D01*
X185587370Y-96457631D01*
X185643301Y-96415761D01*
X185712993Y-96410777D01*
X185774316Y-96444262D01*
X187025325Y-97695272D01*
X187025328Y-97695275D01*
X187025331Y-97695277D01*
X187093338Y-97740717D01*
X187098453Y-97744135D01*
X187118302Y-97757397D01*
X187163107Y-97811009D01*
X187171816Y-97880334D01*
X187141662Y-97943361D01*
X187082219Y-97980081D01*
X187049412Y-97984500D01*
X186482129Y-97984500D01*
X186482123Y-97984501D01*
X186422518Y-97990908D01*
X186388331Y-98003659D01*
X186318639Y-98008642D01*
X186301669Y-98003659D01*
X186282133Y-97996373D01*
X186267483Y-97990909D01*
X186267482Y-97990908D01*
X186207883Y-97984501D01*
X186207881Y-97984500D01*
X186207873Y-97984500D01*
X186207864Y-97984500D01*
X185212129Y-97984500D01*
X185212123Y-97984501D01*
X185152518Y-97990908D01*
X185118331Y-98003659D01*
X185048639Y-98008642D01*
X185031669Y-98003659D01*
X185012133Y-97996373D01*
X184997483Y-97990909D01*
X184997482Y-97990908D01*
X184937883Y-97984501D01*
X184937881Y-97984500D01*
X184937873Y-97984500D01*
X184937864Y-97984500D01*
X183942129Y-97984500D01*
X183942123Y-97984501D01*
X183882516Y-97990908D01*
X183747671Y-98041202D01*
X183747664Y-98041206D01*
X183632455Y-98127452D01*
X183632452Y-98127455D01*
X183546206Y-98242664D01*
X183546202Y-98242671D01*
X183495909Y-98377515D01*
X183495612Y-98380279D01*
X183494783Y-98382278D01*
X183494126Y-98385062D01*
X183493674Y-98384955D01*
X183468869Y-98444828D01*
X183411473Y-98484672D01*
X183341648Y-98487161D01*
X183284642Y-98454696D01*
X180874674Y-96044727D01*
X180874673Y-96044726D01*
X180810981Y-96002169D01*
X180768127Y-95973535D01*
X180649744Y-95924499D01*
X180649742Y-95924498D01*
X180649735Y-95924496D01*
X180645546Y-95923663D01*
X180645542Y-95923663D01*
X180639658Y-95922492D01*
X180632991Y-95921166D01*
X180571080Y-95888784D01*
X180536504Y-95828069D01*
X180540242Y-95758299D01*
X180569497Y-95711869D01*
X180809548Y-95471818D01*
X180870871Y-95438334D01*
X180897229Y-95435500D01*
X181475990Y-95435500D01*
X181476000Y-95435500D01*
X181583456Y-95423947D01*
X181586743Y-95423232D01*
X181606491Y-95420573D01*
X181607871Y-95420499D01*
X181607872Y-95420499D01*
X181667483Y-95414091D01*
X181802331Y-95363796D01*
X181917546Y-95277546D01*
X181972228Y-95204500D01*
X182003792Y-95162337D01*
X182003792Y-95162335D01*
X182003796Y-95162331D01*
X182015859Y-95129986D01*
X182044353Y-95085646D01*
X182310000Y-94820000D01*
X182310000Y-91965013D01*
X188085000Y-91965013D01*
X188085000Y-92102500D01*
X189060000Y-92102500D01*
X189560000Y-92102500D01*
X190534999Y-92102500D01*
X190534999Y-91965028D01*
X190534998Y-91965013D01*
X190524505Y-91862302D01*
X190469358Y-91695880D01*
X190469356Y-91695875D01*
X190377315Y-91546654D01*
X190253345Y-91422684D01*
X190104124Y-91330643D01*
X190104119Y-91330641D01*
X189937697Y-91275494D01*
X189937690Y-91275493D01*
X189834986Y-91265000D01*
X189560000Y-91265000D01*
X189560000Y-92102500D01*
X189060000Y-92102500D01*
X189060000Y-91265000D01*
X188785029Y-91265000D01*
X188785012Y-91265001D01*
X188682302Y-91275494D01*
X188515880Y-91330641D01*
X188515875Y-91330643D01*
X188366654Y-91422684D01*
X188242684Y-91546654D01*
X188150643Y-91695875D01*
X188150641Y-91695880D01*
X188095494Y-91862302D01*
X188095493Y-91862309D01*
X188085000Y-91965013D01*
X182310000Y-91965013D01*
X182310000Y-88427844D01*
X183170000Y-88427844D01*
X183176401Y-88487372D01*
X183176403Y-88487379D01*
X183226645Y-88622086D01*
X183226649Y-88622093D01*
X183312809Y-88737187D01*
X183312812Y-88737190D01*
X183427906Y-88823350D01*
X183427913Y-88823354D01*
X183562620Y-88873596D01*
X183562627Y-88873598D01*
X183622155Y-88879999D01*
X183622172Y-88880000D01*
X184170000Y-88880000D01*
X184670000Y-88880000D01*
X185217828Y-88880000D01*
X185217844Y-88879999D01*
X185277372Y-88873598D01*
X185277379Y-88873596D01*
X185412086Y-88823354D01*
X185412093Y-88823350D01*
X185527187Y-88737190D01*
X185527190Y-88737187D01*
X185613350Y-88622093D01*
X185613354Y-88622086D01*
X185663596Y-88487379D01*
X185663598Y-88487372D01*
X185669999Y-88427844D01*
X185670000Y-88427827D01*
X185670000Y-87880000D01*
X184670000Y-87880000D01*
X184670000Y-88880000D01*
X184170000Y-88880000D01*
X184170000Y-87880000D01*
X183170000Y-87880000D01*
X183170000Y-88427844D01*
X182310000Y-88427844D01*
X182310000Y-86832155D01*
X183170000Y-86832155D01*
X183170000Y-87380000D01*
X184170000Y-87380000D01*
X184670000Y-87380000D01*
X185670000Y-87380000D01*
X185670000Y-86832172D01*
X185669999Y-86832155D01*
X185663598Y-86772627D01*
X185663596Y-86772620D01*
X185613354Y-86637913D01*
X185613350Y-86637906D01*
X185527190Y-86522812D01*
X185527187Y-86522809D01*
X185412093Y-86436649D01*
X185412086Y-86436645D01*
X185277379Y-86386403D01*
X185277372Y-86386401D01*
X185217844Y-86380000D01*
X184670000Y-86380000D01*
X184670000Y-87380000D01*
X184170000Y-87380000D01*
X184170000Y-86380000D01*
X183622155Y-86380000D01*
X183562627Y-86386401D01*
X183562620Y-86386403D01*
X183427913Y-86436645D01*
X183427906Y-86436649D01*
X183312812Y-86522809D01*
X183312809Y-86522812D01*
X183226649Y-86637906D01*
X183226645Y-86637913D01*
X183176403Y-86772620D01*
X183176401Y-86772627D01*
X183170000Y-86832155D01*
X182310000Y-86832155D01*
X182310000Y-85489983D01*
X188084500Y-85489983D01*
X188084500Y-86265001D01*
X188084501Y-86265019D01*
X188095000Y-86367796D01*
X188095001Y-86367799D01*
X188150185Y-86534331D01*
X188150187Y-86534336D01*
X188162104Y-86553656D01*
X188242288Y-86683656D01*
X188366344Y-86807712D01*
X188515666Y-86899814D01*
X188682203Y-86954999D01*
X188784991Y-86965500D01*
X188984190Y-86965499D01*
X189051230Y-86985183D01*
X189071872Y-87001818D01*
X189233181Y-87163127D01*
X189266666Y-87224450D01*
X189269500Y-87250808D01*
X189269500Y-87583802D01*
X189249815Y-87650841D01*
X189237651Y-87666773D01*
X189228140Y-87677336D01*
X189138750Y-87832164D01*
X189138747Y-87832170D01*
X189083504Y-88002192D01*
X189083503Y-88002194D01*
X189064815Y-88180000D01*
X189083503Y-88357805D01*
X189083504Y-88357807D01*
X189138747Y-88527829D01*
X189138750Y-88527835D01*
X189228141Y-88682665D01*
X189248266Y-88705016D01*
X189347764Y-88815521D01*
X189347767Y-88815523D01*
X189347770Y-88815526D01*
X189492407Y-88920612D01*
X189655733Y-88993329D01*
X189830609Y-89030500D01*
X189830610Y-89030500D01*
X190009389Y-89030500D01*
X190009391Y-89030500D01*
X190184267Y-88993329D01*
X190347593Y-88920612D01*
X190492230Y-88815526D01*
X190496195Y-88811123D01*
X190539116Y-88763454D01*
X190611859Y-88682665D01*
X190701250Y-88527835D01*
X190756497Y-88357803D01*
X190775185Y-88180000D01*
X190756497Y-88002197D01*
X190716793Y-87880000D01*
X190701252Y-87832170D01*
X190701250Y-87832166D01*
X190701250Y-87832165D01*
X190681668Y-87798247D01*
X190665195Y-87730352D01*
X190688046Y-87664325D01*
X190701368Y-87648575D01*
X190854459Y-87495485D01*
X190854464Y-87495481D01*
X190864667Y-87485277D01*
X190864669Y-87485277D01*
X191387819Y-86962125D01*
X191449142Y-86928641D01*
X191518833Y-86933625D01*
X191574767Y-86975496D01*
X191599184Y-87040961D01*
X191599500Y-87049807D01*
X191599500Y-88227870D01*
X191599501Y-88227876D01*
X191605908Y-88287483D01*
X191656202Y-88422328D01*
X191656206Y-88422335D01*
X191742452Y-88537544D01*
X191742455Y-88537547D01*
X191857664Y-88623793D01*
X191857671Y-88623797D01*
X191992517Y-88674091D01*
X191992516Y-88674091D01*
X191999444Y-88674835D01*
X192052127Y-88680500D01*
X194147872Y-88680499D01*
X194207483Y-88674091D01*
X194342331Y-88623796D01*
X194457546Y-88537546D01*
X194543796Y-88422331D01*
X194594091Y-88287483D01*
X194600500Y-88227873D01*
X194600499Y-83632128D01*
X194594091Y-83572517D01*
X194586625Y-83552500D01*
X194543797Y-83437671D01*
X194543793Y-83437664D01*
X194457547Y-83322455D01*
X194457544Y-83322452D01*
X194342335Y-83236206D01*
X194342328Y-83236202D01*
X194207482Y-83185908D01*
X194207483Y-83185908D01*
X194147883Y-83179501D01*
X194147881Y-83179500D01*
X194147873Y-83179500D01*
X194147864Y-83179500D01*
X192052129Y-83179500D01*
X192052123Y-83179501D01*
X191992516Y-83185908D01*
X191857671Y-83236202D01*
X191857664Y-83236206D01*
X191742455Y-83322452D01*
X191742452Y-83322455D01*
X191656206Y-83437664D01*
X191656202Y-83437671D01*
X191605908Y-83572517D01*
X191599501Y-83632116D01*
X191599501Y-83632123D01*
X191599500Y-83632135D01*
X191599500Y-85155500D01*
X191579815Y-85222539D01*
X191527011Y-85268294D01*
X191475500Y-85279500D01*
X191435929Y-85279500D01*
X191310261Y-85304497D01*
X191310255Y-85304499D01*
X191191870Y-85353535D01*
X191085331Y-85424722D01*
X191085324Y-85424728D01*
X190747180Y-85762873D01*
X190685857Y-85796358D01*
X190616165Y-85791374D01*
X190560232Y-85749502D01*
X190535815Y-85684038D01*
X190535499Y-85675192D01*
X190535499Y-85489998D01*
X190535498Y-85489981D01*
X190524999Y-85387203D01*
X190524998Y-85387200D01*
X190521027Y-85375215D01*
X190469814Y-85220666D01*
X190377712Y-85071344D01*
X190253656Y-84947288D01*
X190250342Y-84945243D01*
X190248546Y-84943248D01*
X190247989Y-84942807D01*
X190248064Y-84942711D01*
X190203618Y-84893297D01*
X190192397Y-84824334D01*
X190220240Y-84760252D01*
X190250348Y-84734165D01*
X190253342Y-84732318D01*
X190377315Y-84608345D01*
X190469356Y-84459124D01*
X190469358Y-84459119D01*
X190524505Y-84292697D01*
X190524506Y-84292690D01*
X190534999Y-84189986D01*
X190535000Y-84189973D01*
X190535000Y-84052500D01*
X188085001Y-84052500D01*
X188085001Y-84189986D01*
X188095494Y-84292697D01*
X188150641Y-84459119D01*
X188150643Y-84459124D01*
X188242684Y-84608345D01*
X188366655Y-84732316D01*
X188366659Y-84732319D01*
X188369656Y-84734168D01*
X188371279Y-84735972D01*
X188372323Y-84736798D01*
X188372181Y-84736976D01*
X188416381Y-84786116D01*
X188427602Y-84855079D01*
X188399759Y-84919161D01*
X188369661Y-84945241D01*
X188366349Y-84947283D01*
X188366343Y-84947288D01*
X188242289Y-85071342D01*
X188150187Y-85220663D01*
X188150185Y-85220668D01*
X188130690Y-85279500D01*
X188095001Y-85387203D01*
X188095001Y-85387204D01*
X188095000Y-85387204D01*
X188084500Y-85489983D01*
X182310000Y-85489983D01*
X182310000Y-83415013D01*
X188085000Y-83415013D01*
X188085000Y-83552500D01*
X189060000Y-83552500D01*
X189560000Y-83552500D01*
X190534999Y-83552500D01*
X190534999Y-83415028D01*
X190534998Y-83415013D01*
X190524505Y-83312302D01*
X190469358Y-83145880D01*
X190469356Y-83145875D01*
X190377315Y-82996654D01*
X190253345Y-82872684D01*
X190104124Y-82780643D01*
X190104119Y-82780641D01*
X189937697Y-82725494D01*
X189937690Y-82725493D01*
X189834986Y-82715000D01*
X189560000Y-82715000D01*
X189560000Y-83552500D01*
X189060000Y-83552500D01*
X189060000Y-82715000D01*
X188785029Y-82715000D01*
X188785012Y-82715001D01*
X188682302Y-82725494D01*
X188515880Y-82780641D01*
X188515875Y-82780643D01*
X188366654Y-82872684D01*
X188242684Y-82996654D01*
X188150643Y-83145875D01*
X188150641Y-83145880D01*
X188095494Y-83312302D01*
X188095493Y-83312309D01*
X188085000Y-83415013D01*
X182310000Y-83415013D01*
X182310000Y-79710000D01*
X179060000Y-76460000D01*
X171791362Y-76460000D01*
X171757306Y-76450000D01*
X197564353Y-76450000D01*
X197584834Y-76592456D01*
X197644622Y-76723371D01*
X197644623Y-76723373D01*
X197738872Y-76832143D01*
X197859947Y-76909953D01*
X197859950Y-76909954D01*
X197859949Y-76909954D01*
X197998036Y-76950499D01*
X197998038Y-76950500D01*
X197998039Y-76950500D01*
X198141962Y-76950500D01*
X198141962Y-76950499D01*
X198280053Y-76909953D01*
X198401128Y-76832143D01*
X198495377Y-76723373D01*
X198555165Y-76592457D01*
X198575647Y-76450000D01*
X198555165Y-76307543D01*
X198495377Y-76176627D01*
X198401128Y-76067857D01*
X198280053Y-75990047D01*
X198280051Y-75990046D01*
X198280049Y-75990045D01*
X198280050Y-75990045D01*
X198141963Y-75949500D01*
X198133184Y-75948238D01*
X198133592Y-75945395D01*
X198080533Y-75929815D01*
X198039515Y-75882478D01*
X198026512Y-75916206D01*
X197970122Y-75957461D01*
X197963002Y-75959787D01*
X197859948Y-75990045D01*
X197738873Y-76067856D01*
X197644623Y-76176626D01*
X197644622Y-76176628D01*
X197584834Y-76307543D01*
X197564353Y-76450000D01*
X171757306Y-76450000D01*
X171724323Y-76440315D01*
X171703681Y-76423681D01*
X170906319Y-75626319D01*
X170872834Y-75564996D01*
X170870000Y-75538638D01*
X170870000Y-74936270D01*
X170873109Y-74908677D01*
X170890833Y-74831025D01*
X170915802Y-74721630D01*
X170935408Y-74460000D01*
X170921697Y-74277041D01*
X170915803Y-74198379D01*
X170915802Y-74198374D01*
X170915802Y-74198370D01*
X170873109Y-74011320D01*
X170870000Y-73983728D01*
X170870000Y-71936270D01*
X170873109Y-71908677D01*
X170915802Y-71721630D01*
X170915808Y-71721550D01*
X170935408Y-71460004D01*
X170935408Y-71459995D01*
X170915803Y-71198379D01*
X170915802Y-71198374D01*
X170915802Y-71198370D01*
X170873109Y-71011320D01*
X170870000Y-70983728D01*
X170870000Y-70451361D01*
X170889685Y-70384322D01*
X170906314Y-70363685D01*
X171108922Y-70161078D01*
X171169278Y-70100720D01*
X171230600Y-70067237D01*
X171256958Y-70064403D01*
X171796490Y-70064403D01*
X171863529Y-70084088D01*
G37*
%TD.AperFunction*%
%TA.AperFunction,Conductor*%
G36*
X175354295Y-99633617D02*
G01*
X175387270Y-99657216D01*
X176627873Y-100897819D01*
X176661358Y-100959142D01*
X176656374Y-101028834D01*
X176614502Y-101084767D01*
X176549038Y-101109184D01*
X176540192Y-101109500D01*
X174042314Y-101109500D01*
X174042261Y-101109497D01*
X174035254Y-101109497D01*
X174035253Y-101109497D01*
X174013331Y-101109497D01*
X174013294Y-101109487D01*
X173874257Y-101109492D01*
X173817536Y-101120777D01*
X173747944Y-101114551D01*
X173692765Y-101071690D01*
X173678780Y-101046612D01*
X173677999Y-101044727D01*
X173672379Y-101031158D01*
X173671147Y-101028183D01*
X173671142Y-101028175D01*
X173661861Y-101014285D01*
X173573685Y-100882325D01*
X173449643Y-100758289D01*
X173303785Y-100660836D01*
X173205961Y-100620320D01*
X173141716Y-100593711D01*
X172969672Y-100559496D01*
X172969668Y-100559496D01*
X172899500Y-100559499D01*
X172881958Y-100559500D01*
X172842314Y-100559500D01*
X172842261Y-100559497D01*
X172835254Y-100559497D01*
X172835253Y-100559497D01*
X172813331Y-100559497D01*
X172813294Y-100559487D01*
X172674257Y-100559492D01*
X172558195Y-100582583D01*
X172488603Y-100576357D01*
X172433425Y-100533496D01*
X172410178Y-100467607D01*
X172410000Y-100460966D01*
X172410000Y-100102275D01*
X172429685Y-100035236D01*
X172482489Y-99989481D01*
X172551647Y-99979537D01*
X172615203Y-100008562D01*
X172626150Y-100019303D01*
X172667764Y-100065521D01*
X172667767Y-100065523D01*
X172667770Y-100065526D01*
X172812407Y-100170612D01*
X172975733Y-100243329D01*
X173150609Y-100280500D01*
X173150610Y-100280500D01*
X173329389Y-100280500D01*
X173329391Y-100280500D01*
X173504267Y-100243329D01*
X173667593Y-100170612D01*
X173795287Y-100077836D01*
X173861094Y-100054356D01*
X173929148Y-100070181D01*
X173941057Y-100077835D01*
X173972407Y-100100612D01*
X174135733Y-100173329D01*
X174310609Y-100210500D01*
X174310610Y-100210500D01*
X174489389Y-100210500D01*
X174489391Y-100210500D01*
X174664267Y-100173329D01*
X174827593Y-100100612D01*
X174972230Y-99995526D01*
X174980808Y-99986000D01*
X175010533Y-99952986D01*
X175091859Y-99862665D01*
X175181250Y-99707835D01*
X175181656Y-99706584D01*
X175182086Y-99705954D01*
X175183896Y-99701892D01*
X175184638Y-99702222D01*
X175221090Y-99648908D01*
X175285448Y-99621706D01*
X175354295Y-99633617D01*
G37*
%TD.AperFunction*%
%TA.AperFunction,Conductor*%
G36*
X169829334Y-99433125D02*
G01*
X169885267Y-99474997D01*
X169909684Y-99540461D01*
X169910000Y-99549307D01*
X169910000Y-99610000D01*
X171286000Y-99610000D01*
X171353039Y-99629685D01*
X171398794Y-99682489D01*
X171410000Y-99734000D01*
X171410000Y-99986000D01*
X171390315Y-100053039D01*
X171337511Y-100098794D01*
X171286000Y-100110000D01*
X169910000Y-100110000D01*
X169910000Y-100657844D01*
X169916401Y-100717372D01*
X169916403Y-100717379D01*
X169966645Y-100852086D01*
X169966647Y-100852089D01*
X170010889Y-100911188D01*
X170035307Y-100976652D01*
X170020456Y-101044926D01*
X169971051Y-101094331D01*
X169911623Y-101109500D01*
X168580311Y-101109500D01*
X168513272Y-101089815D01*
X168467517Y-101037011D01*
X168457573Y-100967853D01*
X168472924Y-100923500D01*
X168514153Y-100852089D01*
X168551250Y-100787835D01*
X168606497Y-100617803D01*
X168609465Y-100589560D01*
X168636048Y-100524946D01*
X168645096Y-100514848D01*
X169698320Y-99461625D01*
X169759642Y-99428141D01*
X169829334Y-99433125D01*
G37*
%TD.AperFunction*%
%TA.AperFunction,Conductor*%
G36*
X180206231Y-97220185D02*
G01*
X180226873Y-97236819D01*
X181592236Y-98602182D01*
X181625721Y-98663505D01*
X181620737Y-98733197D01*
X181578865Y-98789130D01*
X181577445Y-98790178D01*
X181557769Y-98804474D01*
X181557764Y-98804478D01*
X181438143Y-98937332D01*
X181438139Y-98937337D01*
X181412728Y-98981350D01*
X181393023Y-99007029D01*
X180901872Y-99498181D01*
X180840549Y-99531666D01*
X180814192Y-99534500D01*
X180612130Y-99534500D01*
X180612123Y-99534501D01*
X180552511Y-99540909D01*
X180545670Y-99542526D01*
X180475901Y-99538785D01*
X180429477Y-99509531D01*
X180274669Y-99354723D01*
X180274668Y-99354722D01*
X180274667Y-99354721D01*
X180274666Y-99354720D01*
X180265607Y-99348667D01*
X180220802Y-99295054D01*
X180210499Y-99245566D01*
X180210499Y-99062129D01*
X180210498Y-99062123D01*
X180210497Y-99062116D01*
X180204091Y-99002517D01*
X180197405Y-98984592D01*
X180153797Y-98867671D01*
X180153793Y-98867664D01*
X180067547Y-98752455D01*
X180067544Y-98752452D01*
X179952335Y-98666206D01*
X179952328Y-98666202D01*
X179817482Y-98615908D01*
X179817483Y-98615908D01*
X179757883Y-98609501D01*
X179757881Y-98609500D01*
X179757873Y-98609500D01*
X179757864Y-98609500D01*
X178162129Y-98609500D01*
X178162123Y-98609501D01*
X178102516Y-98615908D01*
X177967671Y-98666202D01*
X177967664Y-98666206D01*
X177852455Y-98752452D01*
X177852452Y-98752455D01*
X177766206Y-98867664D01*
X177766202Y-98867671D01*
X177715908Y-99002517D01*
X177709501Y-99062116D01*
X177709501Y-99062123D01*
X177709500Y-99062135D01*
X177709500Y-99840192D01*
X177689815Y-99907231D01*
X177637011Y-99952986D01*
X177567853Y-99962930D01*
X177504297Y-99933905D01*
X177497819Y-99927873D01*
X174982127Y-97412181D01*
X174948642Y-97350858D01*
X174953626Y-97281166D01*
X174995498Y-97225233D01*
X175060962Y-97200816D01*
X175069808Y-97200500D01*
X180139192Y-97200500D01*
X180206231Y-97220185D01*
G37*
%TD.AperFunction*%
%TA.AperFunction,Conductor*%
G36*
X199069860Y-98582597D02*
G01*
X199125794Y-98624468D01*
X199133912Y-98636776D01*
X199218141Y-98782665D01*
X199259812Y-98828946D01*
X199337764Y-98915521D01*
X199337767Y-98915523D01*
X199337770Y-98915526D01*
X199482407Y-99020612D01*
X199575937Y-99062254D01*
X199629172Y-99107502D01*
X199649494Y-99174351D01*
X199649500Y-99175532D01*
X199649500Y-99410500D01*
X199629815Y-99477539D01*
X199577011Y-99523294D01*
X199525500Y-99534500D01*
X198314807Y-99534500D01*
X198247768Y-99514815D01*
X198202013Y-99462011D01*
X198192069Y-99392853D01*
X198221094Y-99329297D01*
X198227114Y-99322831D01*
X198938848Y-98611096D01*
X199000169Y-98577613D01*
X199069860Y-98582597D01*
G37*
%TD.AperFunction*%
%TA.AperFunction,Conductor*%
G36*
X159621846Y-92839685D02*
G01*
X159667601Y-92892489D01*
X159677545Y-92961647D01*
X159673468Y-92979995D01*
X159663252Y-93013670D01*
X159644901Y-93200000D01*
X159663252Y-93386331D01*
X159663253Y-93386333D01*
X159717604Y-93565502D01*
X159805862Y-93730623D01*
X159805864Y-93730626D01*
X159924642Y-93875357D01*
X160069373Y-93994135D01*
X160069376Y-93994137D01*
X160155149Y-94039983D01*
X160234499Y-94082396D01*
X160413666Y-94136746D01*
X160413668Y-94136747D01*
X160430374Y-94138392D01*
X160600000Y-94155099D01*
X160786331Y-94136747D01*
X160965501Y-94082396D01*
X161130625Y-93994136D01*
X161275357Y-93875357D01*
X161394136Y-93730625D01*
X161482396Y-93565501D01*
X161536747Y-93386331D01*
X161539139Y-93362035D01*
X161565297Y-93297248D01*
X161574852Y-93286514D01*
X161974549Y-92886819D01*
X162035872Y-92853334D01*
X162062230Y-92850500D01*
X163803793Y-92850500D01*
X163870832Y-92870185D01*
X163916587Y-92922989D01*
X163926531Y-92992147D01*
X163897506Y-93055703D01*
X163874917Y-93076075D01*
X163838594Y-93101508D01*
X163671505Y-93268597D01*
X163535965Y-93462169D01*
X163535964Y-93462171D01*
X163436098Y-93676335D01*
X163436094Y-93676344D01*
X163374938Y-93904586D01*
X163374936Y-93904596D01*
X163354341Y-94139999D01*
X163354341Y-94140000D01*
X163374936Y-94375403D01*
X163374938Y-94375413D01*
X163436094Y-94603655D01*
X163436096Y-94603659D01*
X163436097Y-94603663D01*
X163505423Y-94752332D01*
X163535965Y-94817830D01*
X163535967Y-94817834D01*
X163671501Y-95011395D01*
X163671506Y-95011402D01*
X163838597Y-95178493D01*
X163838603Y-95178498D01*
X164024158Y-95308425D01*
X164067783Y-95363002D01*
X164074977Y-95432500D01*
X164043454Y-95494855D01*
X164024158Y-95511575D01*
X163838597Y-95641505D01*
X163671505Y-95808597D01*
X163535965Y-96002169D01*
X163535964Y-96002171D01*
X163436098Y-96216335D01*
X163436094Y-96216344D01*
X163374938Y-96444586D01*
X163374936Y-96444596D01*
X163367573Y-96528753D01*
X163342120Y-96593821D01*
X163285528Y-96634799D01*
X163215766Y-96638676D01*
X163154983Y-96604222D01*
X163126338Y-96556946D01*
X163119356Y-96535877D01*
X163119356Y-96535875D01*
X163027315Y-96386654D01*
X162903345Y-96262684D01*
X162754124Y-96170643D01*
X162754119Y-96170641D01*
X162587697Y-96115494D01*
X162587690Y-96115493D01*
X162484986Y-96105000D01*
X162210000Y-96105000D01*
X162210000Y-96942500D01*
X163184998Y-96942500D01*
X163188654Y-96938844D01*
X163249976Y-96905358D01*
X163319668Y-96910342D01*
X163375602Y-96952212D01*
X163396111Y-96994431D01*
X163436094Y-97143655D01*
X163436096Y-97143659D01*
X163436097Y-97143663D01*
X163500216Y-97281166D01*
X163535965Y-97357830D01*
X163535967Y-97357834D01*
X163601007Y-97450720D01*
X163663093Y-97539388D01*
X163671501Y-97551395D01*
X163671506Y-97551402D01*
X163838597Y-97718493D01*
X163838603Y-97718498D01*
X164024158Y-97848425D01*
X164067783Y-97903002D01*
X164074977Y-97972500D01*
X164043454Y-98034855D01*
X164024158Y-98051575D01*
X163838597Y-98181505D01*
X163671505Y-98348597D01*
X163535965Y-98542169D01*
X163535964Y-98542171D01*
X163436098Y-98756335D01*
X163436092Y-98756350D01*
X163420104Y-98816018D01*
X163383739Y-98875678D01*
X163320892Y-98906206D01*
X163251516Y-98897911D01*
X163197639Y-98853425D01*
X163176972Y-98796521D01*
X163174999Y-98777204D01*
X163174998Y-98777200D01*
X163160417Y-98733197D01*
X163119814Y-98610666D01*
X163027712Y-98461344D01*
X162903656Y-98337288D01*
X162900342Y-98335243D01*
X162898546Y-98333248D01*
X162897989Y-98332807D01*
X162898064Y-98332711D01*
X162853618Y-98283297D01*
X162842397Y-98214334D01*
X162870240Y-98150252D01*
X162900348Y-98124165D01*
X162903342Y-98122318D01*
X163027315Y-97998345D01*
X163119356Y-97849124D01*
X163119358Y-97849119D01*
X163174505Y-97682697D01*
X163174506Y-97682690D01*
X163184999Y-97579986D01*
X163185000Y-97579973D01*
X163185000Y-97442500D01*
X160735001Y-97442500D01*
X160735001Y-97579986D01*
X160745494Y-97682697D01*
X160800641Y-97849119D01*
X160800643Y-97849124D01*
X160892684Y-97998345D01*
X161016655Y-98122316D01*
X161016659Y-98122319D01*
X161019656Y-98124168D01*
X161021279Y-98125972D01*
X161022323Y-98126798D01*
X161022181Y-98126976D01*
X161066381Y-98176116D01*
X161077602Y-98245079D01*
X161049759Y-98309161D01*
X161019661Y-98335241D01*
X161016349Y-98337283D01*
X161016343Y-98337288D01*
X160892288Y-98461343D01*
X160887807Y-98467011D01*
X160885984Y-98465569D01*
X160842335Y-98504825D01*
X160788752Y-98517000D01*
X160448580Y-98517000D01*
X160303592Y-98545840D01*
X160303582Y-98545843D01*
X160167011Y-98602412D01*
X160166995Y-98602421D01*
X160105828Y-98643291D01*
X160039151Y-98664168D01*
X159971771Y-98645683D01*
X159925081Y-98593703D01*
X159913906Y-98524733D01*
X159920755Y-98496860D01*
X159954091Y-98407483D01*
X159960500Y-98347873D01*
X159960499Y-96805013D01*
X160735000Y-96805013D01*
X160735000Y-96942500D01*
X161710000Y-96942500D01*
X161710000Y-96105000D01*
X161435029Y-96105000D01*
X161435012Y-96105001D01*
X161332302Y-96115494D01*
X161165880Y-96170641D01*
X161165875Y-96170643D01*
X161016654Y-96262684D01*
X160892684Y-96386654D01*
X160800643Y-96535875D01*
X160800641Y-96535880D01*
X160745494Y-96702302D01*
X160745493Y-96702309D01*
X160735000Y-96805013D01*
X159960499Y-96805013D01*
X159960499Y-96752128D01*
X159954091Y-96692517D01*
X159954089Y-96692514D01*
X159953330Y-96685445D01*
X159965736Y-96616685D01*
X159988935Y-96584512D01*
X160080793Y-96492656D01*
X160228870Y-96288845D01*
X160343241Y-96064379D01*
X160421090Y-95824785D01*
X160460500Y-95575962D01*
X160460500Y-95324038D01*
X160421090Y-95075215D01*
X160343241Y-94835621D01*
X160343239Y-94835618D01*
X160343239Y-94835616D01*
X160300803Y-94752332D01*
X160228870Y-94611155D01*
X160176141Y-94538580D01*
X160080798Y-94407350D01*
X160080794Y-94407345D01*
X159902654Y-94229205D01*
X159902649Y-94229201D01*
X159698848Y-94081132D01*
X159698847Y-94081131D01*
X159698845Y-94081130D01*
X159618105Y-94039991D01*
X159474383Y-93966760D01*
X159234785Y-93888910D01*
X159149215Y-93875357D01*
X158985962Y-93849500D01*
X157434038Y-93849500D01*
X157309626Y-93869205D01*
X157185214Y-93888910D01*
X156945616Y-93966760D01*
X156721151Y-94081132D01*
X156576330Y-94186350D01*
X156510524Y-94209830D01*
X156442470Y-94194004D01*
X156393775Y-94143898D01*
X156379445Y-94086032D01*
X156379445Y-92944000D01*
X156399130Y-92876961D01*
X156451934Y-92831206D01*
X156503445Y-92820000D01*
X159554807Y-92820000D01*
X159621846Y-92839685D01*
G37*
%TD.AperFunction*%
%TD*%
%TA.AperFunction,Conductor*%
%TO.N,GND*%
G36*
X162841362Y-88995500D02*
G01*
X162841365Y-88995500D01*
X166446000Y-88995500D01*
X166513039Y-89015185D01*
X166558794Y-89067989D01*
X166570000Y-89119500D01*
X166570000Y-91176000D01*
X166550315Y-91243039D01*
X166497511Y-91288794D01*
X166446000Y-91300000D01*
X162734000Y-91300000D01*
X162666961Y-91280315D01*
X162621206Y-91227511D01*
X162610000Y-91176000D01*
X162610000Y-89105338D01*
X162629685Y-89038299D01*
X162682489Y-88992544D01*
X162751643Y-88982600D01*
X162841362Y-88995500D01*
G37*
%TD.AperFunction*%
%TD*%
%TA.AperFunction,Conductor*%
%TO.N,/VoltageRegulatorESD/12v_fuse*%
G36*
X165943039Y-84389685D02*
G01*
X165988794Y-84442489D01*
X166000000Y-84494000D01*
X166000000Y-86510000D01*
X166670000Y-87180000D01*
X167228375Y-87180000D01*
X167265258Y-87185613D01*
X167341704Y-87209434D01*
X167408454Y-87215500D01*
X168930501Y-87215500D01*
X168997540Y-87235185D01*
X169043295Y-87287989D01*
X169054501Y-87339500D01*
X169054501Y-88030500D01*
X169034816Y-88097539D01*
X168982012Y-88143294D01*
X168930501Y-88154500D01*
X167408454Y-88154500D01*
X167390259Y-88156153D01*
X167341707Y-88160565D01*
X167341704Y-88160566D01*
X167329442Y-88164386D01*
X167292558Y-88170000D01*
X167159999Y-88170000D01*
X166876319Y-88453681D01*
X166814996Y-88487166D01*
X166788638Y-88490000D01*
X166040000Y-88490000D01*
X162841362Y-88490000D01*
X162774323Y-88470315D01*
X162753681Y-88453681D01*
X162636319Y-88336319D01*
X162602834Y-88274996D01*
X162600000Y-88248638D01*
X162600000Y-87001362D01*
X162619685Y-86934323D01*
X162636319Y-86913681D01*
X162683681Y-86866319D01*
X162745004Y-86832834D01*
X162771362Y-86830000D01*
X164310000Y-86830000D01*
X164310000Y-84494000D01*
X164329685Y-84426961D01*
X164382489Y-84381206D01*
X164434000Y-84370000D01*
X165876000Y-84370000D01*
X165943039Y-84389685D01*
G37*
%TD.AperFunction*%
%TD*%
%TA.AperFunction,Conductor*%
%TO.N,/VoltageRegulatorESD/SW*%
G36*
X174295677Y-88519685D02*
G01*
X174316319Y-88536319D01*
X174790000Y-89010000D01*
X177268692Y-89010000D01*
X177335731Y-89029685D01*
X177356373Y-89046319D01*
X177372512Y-89062458D01*
X177405997Y-89123781D01*
X177408152Y-89163100D01*
X177394815Y-89289999D01*
X177413503Y-89467805D01*
X177413504Y-89467807D01*
X177468748Y-89637832D01*
X177468750Y-89637835D01*
X177483387Y-89663187D01*
X177500000Y-89725187D01*
X177500000Y-94805500D01*
X177480315Y-94872539D01*
X177427511Y-94918294D01*
X177376000Y-94929500D01*
X174670862Y-94929500D01*
X174603823Y-94909815D01*
X174583181Y-94893181D01*
X174200000Y-94510000D01*
X171971362Y-94510000D01*
X171904323Y-94490315D01*
X171883681Y-94473681D01*
X171706319Y-94296319D01*
X171672834Y-94234996D01*
X171670000Y-94208638D01*
X171670000Y-92220000D01*
X171076319Y-91626319D01*
X171042834Y-91564996D01*
X171040000Y-91538638D01*
X171040000Y-89994956D01*
X171059685Y-89927917D01*
X171068812Y-89915488D01*
X171279447Y-89663186D01*
X171628543Y-89245030D01*
X171686617Y-89206184D01*
X171723730Y-89200499D01*
X172012872Y-89200499D01*
X172072483Y-89194091D01*
X172207331Y-89143796D01*
X172322546Y-89057546D01*
X172408796Y-88942331D01*
X172459091Y-88807483D01*
X172465500Y-88747873D01*
X172465500Y-88624000D01*
X172485185Y-88556961D01*
X172537989Y-88511206D01*
X172589500Y-88500000D01*
X174228638Y-88500000D01*
X174295677Y-88519685D01*
G37*
%TD.AperFunction*%
%TD*%
M02*
