%TF.GenerationSoftware,KiCad,Pcbnew,8.0.4*%
%TF.CreationDate,2024-10-05T16:08:08-03:00*%
%TF.ProjectId,DongleALIVEv2.0,446f6e67-6c65-4414-9c49-564576322e30,2.0*%
%TF.SameCoordinates,Original*%
%TF.FileFunction,Legend,Top*%
%TF.FilePolarity,Positive*%
%FSLAX46Y46*%
G04 Gerber Fmt 4.6, Leading zero omitted, Abs format (unit mm)*
G04 Created by KiCad (PCBNEW 8.0.4) date 2024-10-05 16:08:08*
%MOMM*%
%LPD*%
G01*
G04 APERTURE LIST*
%ADD10C,0.100000*%
%ADD11C,0.128000*%
%ADD12C,0.150000*%
%ADD13C,0.120000*%
%ADD14C,0.127000*%
%ADD15C,0.200000*%
%ADD16C,0.152400*%
%ADD17C,0.000000*%
G04 APERTURE END LIST*
D10*
X153705000Y-76785000D02*
X153809023Y-76889023D01*
X153705000Y-76785000D02*
X151175000Y-76785000D01*
X153705000Y-76785000D02*
X153705000Y-75785000D01*
X146015000Y-76825000D02*
X145015000Y-76825000D01*
X153705000Y-74825000D02*
X153705000Y-73825000D01*
X148015000Y-76825000D02*
X147015000Y-76825000D01*
X150015000Y-76825000D02*
X149015000Y-76825000D01*
D11*
G36*
X155995057Y-84516091D02*
G01*
X155823110Y-84516091D01*
X155909396Y-84295999D01*
X155995057Y-84516091D01*
G37*
G36*
X157675748Y-84857315D02*
G01*
X155525654Y-84857315D01*
X155525654Y-84776200D01*
X155596765Y-84776200D01*
X155724631Y-84776200D01*
X155777466Y-84636141D01*
X156041170Y-84636141D01*
X156091816Y-84776200D01*
X156219682Y-84776200D01*
X156094836Y-84449969D01*
X156279707Y-84449969D01*
X156281207Y-84486029D01*
X156285706Y-84520428D01*
X156293204Y-84553167D01*
X156303702Y-84584244D01*
X156317198Y-84613661D01*
X156333695Y-84641417D01*
X156353190Y-84667511D01*
X156375685Y-84691945D01*
X156400573Y-84714037D01*
X156427171Y-84733183D01*
X156455479Y-84749384D01*
X156485496Y-84762639D01*
X156517224Y-84772949D01*
X156550660Y-84780313D01*
X156585807Y-84784731D01*
X156622663Y-84786204D01*
X156637834Y-84785967D01*
X156672003Y-84783578D01*
X156704452Y-84778616D01*
X156735181Y-84771080D01*
X156768193Y-84759317D01*
X156796469Y-84745444D01*
X156825493Y-84727487D01*
X156850967Y-84708845D01*
X156876990Y-84687202D01*
X156903562Y-84662558D01*
X156820090Y-84575803D01*
X156803650Y-84591096D01*
X156778251Y-84612325D01*
X156751008Y-84631444D01*
X156722392Y-84646770D01*
X156719609Y-84647963D01*
X156687800Y-84658582D01*
X156656992Y-84664261D01*
X156624383Y-84666153D01*
X156605024Y-84665474D01*
X156571583Y-84660828D01*
X156539947Y-84651779D01*
X156510116Y-84638329D01*
X156500678Y-84632928D01*
X156474821Y-84614516D01*
X156450411Y-84590171D01*
X156430551Y-84561735D01*
X156422446Y-84546102D01*
X156411317Y-84516231D01*
X156404640Y-84484135D01*
X156402425Y-84449969D01*
X156978124Y-84449969D01*
X156979624Y-84486029D01*
X156984123Y-84520428D01*
X156991621Y-84553167D01*
X157002119Y-84584244D01*
X157015616Y-84613661D01*
X157032112Y-84641417D01*
X157051607Y-84667511D01*
X157074102Y-84691945D01*
X157098990Y-84714037D01*
X157125588Y-84733183D01*
X157153896Y-84749384D01*
X157183914Y-84762639D01*
X157215641Y-84772949D01*
X157249078Y-84780313D01*
X157284224Y-84784731D01*
X157321080Y-84786204D01*
X157336251Y-84785967D01*
X157370421Y-84783578D01*
X157402870Y-84778616D01*
X157433598Y-84771080D01*
X157466610Y-84759317D01*
X157494886Y-84745444D01*
X157523911Y-84727487D01*
X157549384Y-84708845D01*
X157575407Y-84687202D01*
X157601979Y-84662558D01*
X157518507Y-84575803D01*
X157502067Y-84591096D01*
X157476668Y-84612325D01*
X157449426Y-84631444D01*
X157420810Y-84646770D01*
X157418026Y-84647963D01*
X157386218Y-84658582D01*
X157355409Y-84664261D01*
X157322800Y-84666153D01*
X157303441Y-84665474D01*
X157270000Y-84660828D01*
X157238364Y-84651779D01*
X157208533Y-84638329D01*
X157199095Y-84632928D01*
X157173238Y-84614516D01*
X157148829Y-84590171D01*
X157128969Y-84561735D01*
X157120863Y-84546102D01*
X157109735Y-84516231D01*
X157103058Y-84484135D01*
X157100832Y-84449813D01*
X157103063Y-84416890D01*
X157109757Y-84386000D01*
X157123206Y-84352531D01*
X157142728Y-84321830D01*
X157164296Y-84297718D01*
X157172362Y-84290241D01*
X157197923Y-84270705D01*
X157225529Y-84255510D01*
X157255179Y-84244656D01*
X157286873Y-84238144D01*
X157320612Y-84235973D01*
X157334262Y-84236326D01*
X157367641Y-84240297D01*
X157399951Y-84248679D01*
X157431193Y-84261473D01*
X157461366Y-84278678D01*
X157490471Y-84300295D01*
X157518507Y-84326324D01*
X157604637Y-84244883D01*
X157590913Y-84229853D01*
X157565356Y-84205688D01*
X157537839Y-84184246D01*
X157508363Y-84165527D01*
X157476927Y-84149531D01*
X157458311Y-84141654D01*
X157425286Y-84130397D01*
X157391692Y-84122356D01*
X157357530Y-84117531D01*
X157322800Y-84115923D01*
X157311086Y-84116100D01*
X157276531Y-84118747D01*
X157242854Y-84124570D01*
X157210057Y-84133570D01*
X157178140Y-84145746D01*
X157147101Y-84161098D01*
X157137069Y-84166840D01*
X157108736Y-84185435D01*
X157083052Y-84206085D01*
X157060017Y-84228790D01*
X157039630Y-84253551D01*
X157021893Y-84280367D01*
X157016593Y-84289712D01*
X157002744Y-84318752D01*
X156991973Y-84349298D01*
X156984279Y-84381349D01*
X156979663Y-84414906D01*
X156978124Y-84449969D01*
X156402425Y-84449969D01*
X156402415Y-84449813D01*
X156404646Y-84416890D01*
X156411339Y-84386000D01*
X156424788Y-84352531D01*
X156444311Y-84321830D01*
X156465879Y-84297718D01*
X156473945Y-84290241D01*
X156499506Y-84270705D01*
X156527112Y-84255510D01*
X156556762Y-84244656D01*
X156588456Y-84238144D01*
X156622194Y-84235973D01*
X156635845Y-84236326D01*
X156669224Y-84240297D01*
X156701534Y-84248679D01*
X156732776Y-84261473D01*
X156762949Y-84278678D01*
X156792053Y-84300295D01*
X156820090Y-84326324D01*
X156906219Y-84244883D01*
X156892495Y-84229853D01*
X156866939Y-84205688D01*
X156839422Y-84184246D01*
X156809946Y-84165527D01*
X156778510Y-84149531D01*
X156759893Y-84141654D01*
X156726868Y-84130397D01*
X156693275Y-84122356D01*
X156659113Y-84117531D01*
X156624383Y-84115923D01*
X156612669Y-84116100D01*
X156578113Y-84118747D01*
X156544437Y-84124570D01*
X156511640Y-84133570D01*
X156479722Y-84145746D01*
X156448684Y-84161098D01*
X156438651Y-84166840D01*
X156410318Y-84185435D01*
X156384634Y-84206085D01*
X156361599Y-84228790D01*
X156341213Y-84253551D01*
X156323475Y-84280367D01*
X156318175Y-84289712D01*
X156304327Y-84318752D01*
X156293556Y-84349298D01*
X156285862Y-84381349D01*
X156281246Y-84414906D01*
X156279707Y-84449969D01*
X156094836Y-84449969D01*
X155970828Y-84125927D01*
X155846088Y-84125927D01*
X155696494Y-84516091D01*
X155596765Y-84776200D01*
X155525654Y-84776200D01*
X155525654Y-84044812D01*
X157675748Y-84044812D01*
X157675748Y-84857315D01*
G37*
G36*
X154029680Y-77046283D02*
G01*
X154060867Y-77049104D01*
X154090997Y-77058483D01*
X154112803Y-77080328D01*
X154120072Y-77112099D01*
X154119820Y-77118545D01*
X154109755Y-77148208D01*
X154107054Y-77151791D01*
X154081305Y-77169623D01*
X154049984Y-77174974D01*
X154017060Y-77176032D01*
X153977981Y-77176032D01*
X153977981Y-77045978D01*
X154012683Y-77045978D01*
X154029680Y-77046283D01*
G37*
G36*
X155331125Y-77045984D02*
G01*
X155363002Y-77047087D01*
X155395762Y-77052699D01*
X155400256Y-77054514D01*
X155425149Y-77074740D01*
X155428346Y-77079660D01*
X155436248Y-77110848D01*
X155433126Y-77134318D01*
X155414051Y-77161026D01*
X155398659Y-77168280D01*
X155366168Y-77174567D01*
X155332923Y-77176032D01*
X155294157Y-77176032D01*
X155294157Y-77045978D01*
X155328077Y-77045978D01*
X155331125Y-77045984D01*
G37*
G36*
X155656796Y-77647311D02*
G01*
X153783850Y-77647311D01*
X153783850Y-77176032D01*
X153854961Y-77176032D01*
X153854961Y-77576200D01*
X153977981Y-77576200D01*
X153977981Y-77296082D01*
X154011214Y-77295731D01*
X154044790Y-77294431D01*
X154076312Y-77291774D01*
X154107723Y-77286078D01*
X154126058Y-77279947D01*
X154155945Y-77265583D01*
X154181826Y-77246941D01*
X154203700Y-77224021D01*
X154215759Y-77206518D01*
X154229170Y-77177275D01*
X154236966Y-77144447D01*
X154239184Y-77112255D01*
X154238946Y-77101036D01*
X154235381Y-77069208D01*
X154226402Y-77037062D01*
X154212141Y-77008306D01*
X154193301Y-76983497D01*
X154168099Y-76961637D01*
X154138204Y-76945467D01*
X154118595Y-76938826D01*
X154085969Y-76932110D01*
X154051346Y-76928236D01*
X154017157Y-76926404D01*
X153985484Y-76925927D01*
X154307650Y-76925927D01*
X154453961Y-77576200D01*
X154570885Y-77576200D01*
X154687809Y-77155867D01*
X154807078Y-77576200D01*
X154925252Y-77576200D01*
X155014809Y-77176032D01*
X155171137Y-77176032D01*
X155171137Y-77576200D01*
X155294157Y-77576200D01*
X155294157Y-77296082D01*
X155305724Y-77296082D01*
X155451254Y-77576200D01*
X155585685Y-77576200D01*
X155432652Y-77282483D01*
X155443927Y-77278198D01*
X155474469Y-77263168D01*
X155502633Y-77242639D01*
X155524722Y-77218081D01*
X155531903Y-77207127D01*
X155545666Y-77176898D01*
X155552936Y-77146221D01*
X155555360Y-77112255D01*
X155555117Y-77101113D01*
X155551469Y-77069383D01*
X155542283Y-77037116D01*
X155527692Y-77007993D01*
X155508644Y-76982900D01*
X155483636Y-76960975D01*
X155454380Y-76944998D01*
X155435152Y-76938517D01*
X155402760Y-76931961D01*
X155368086Y-76928181D01*
X155333663Y-76926393D01*
X155301660Y-76925927D01*
X155171137Y-76925927D01*
X155171137Y-77176032D01*
X155014809Y-77176032D01*
X155070782Y-76925927D01*
X154949481Y-76925927D01*
X154857099Y-77340945D01*
X154740175Y-76925927D01*
X154637788Y-76925927D01*
X154522115Y-77340945D01*
X154428951Y-76925927D01*
X154307650Y-76925927D01*
X153985484Y-76925927D01*
X153854961Y-76925927D01*
X153854961Y-77176032D01*
X153783850Y-77176032D01*
X153783850Y-76854816D01*
X155656796Y-76854816D01*
X155656796Y-77647311D01*
G37*
D12*
X120798333Y-96212323D02*
X120767857Y-96242800D01*
X120767857Y-96242800D02*
X120676428Y-96273276D01*
X120676428Y-96273276D02*
X120615476Y-96273276D01*
X120615476Y-96273276D02*
X120524047Y-96242800D01*
X120524047Y-96242800D02*
X120463095Y-96181847D01*
X120463095Y-96181847D02*
X120432618Y-96120895D01*
X120432618Y-96120895D02*
X120402142Y-95998990D01*
X120402142Y-95998990D02*
X120402142Y-95907561D01*
X120402142Y-95907561D02*
X120432618Y-95785657D01*
X120432618Y-95785657D02*
X120463095Y-95724704D01*
X120463095Y-95724704D02*
X120524047Y-95663752D01*
X120524047Y-95663752D02*
X120615476Y-95633276D01*
X120615476Y-95633276D02*
X120676428Y-95633276D01*
X120676428Y-95633276D02*
X120767857Y-95663752D01*
X120767857Y-95663752D02*
X120798333Y-95694228D01*
X121011666Y-95633276D02*
X121438333Y-95633276D01*
X121438333Y-95633276D02*
X121164047Y-96273276D01*
X135844048Y-79243276D02*
X135630714Y-78938514D01*
X135478333Y-79243276D02*
X135478333Y-78603276D01*
X135478333Y-78603276D02*
X135722143Y-78603276D01*
X135722143Y-78603276D02*
X135783095Y-78633752D01*
X135783095Y-78633752D02*
X135813572Y-78664228D01*
X135813572Y-78664228D02*
X135844048Y-78725180D01*
X135844048Y-78725180D02*
X135844048Y-78816609D01*
X135844048Y-78816609D02*
X135813572Y-78877561D01*
X135813572Y-78877561D02*
X135783095Y-78908038D01*
X135783095Y-78908038D02*
X135722143Y-78938514D01*
X135722143Y-78938514D02*
X135478333Y-78938514D01*
X136026905Y-78603276D02*
X136240238Y-79243276D01*
X136240238Y-79243276D02*
X136453572Y-78603276D01*
X137002143Y-79243276D02*
X136636428Y-79243276D01*
X136819285Y-79243276D02*
X136819285Y-78603276D01*
X136819285Y-78603276D02*
X136758333Y-78694704D01*
X136758333Y-78694704D02*
X136697381Y-78755657D01*
X136697381Y-78755657D02*
X136636428Y-78786133D01*
X147122323Y-95686428D02*
X147152800Y-95716904D01*
X147152800Y-95716904D02*
X147183276Y-95808333D01*
X147183276Y-95808333D02*
X147183276Y-95869285D01*
X147183276Y-95869285D02*
X147152800Y-95960714D01*
X147152800Y-95960714D02*
X147091847Y-96021666D01*
X147091847Y-96021666D02*
X147030895Y-96052143D01*
X147030895Y-96052143D02*
X146908990Y-96082619D01*
X146908990Y-96082619D02*
X146817561Y-96082619D01*
X146817561Y-96082619D02*
X146695657Y-96052143D01*
X146695657Y-96052143D02*
X146634704Y-96021666D01*
X146634704Y-96021666D02*
X146573752Y-95960714D01*
X146573752Y-95960714D02*
X146543276Y-95869285D01*
X146543276Y-95869285D02*
X146543276Y-95808333D01*
X146543276Y-95808333D02*
X146573752Y-95716904D01*
X146573752Y-95716904D02*
X146604228Y-95686428D01*
X147183276Y-95076904D02*
X147183276Y-95442619D01*
X147183276Y-95259762D02*
X146543276Y-95259762D01*
X146543276Y-95259762D02*
X146634704Y-95320714D01*
X146634704Y-95320714D02*
X146695657Y-95381666D01*
X146695657Y-95381666D02*
X146726133Y-95442619D01*
X146817561Y-94711190D02*
X146787085Y-94772142D01*
X146787085Y-94772142D02*
X146756609Y-94802619D01*
X146756609Y-94802619D02*
X146695657Y-94833095D01*
X146695657Y-94833095D02*
X146665180Y-94833095D01*
X146665180Y-94833095D02*
X146604228Y-94802619D01*
X146604228Y-94802619D02*
X146573752Y-94772142D01*
X146573752Y-94772142D02*
X146543276Y-94711190D01*
X146543276Y-94711190D02*
X146543276Y-94589285D01*
X146543276Y-94589285D02*
X146573752Y-94528333D01*
X146573752Y-94528333D02*
X146604228Y-94497857D01*
X146604228Y-94497857D02*
X146665180Y-94467380D01*
X146665180Y-94467380D02*
X146695657Y-94467380D01*
X146695657Y-94467380D02*
X146756609Y-94497857D01*
X146756609Y-94497857D02*
X146787085Y-94528333D01*
X146787085Y-94528333D02*
X146817561Y-94589285D01*
X146817561Y-94589285D02*
X146817561Y-94711190D01*
X146817561Y-94711190D02*
X146848038Y-94772142D01*
X146848038Y-94772142D02*
X146878514Y-94802619D01*
X146878514Y-94802619D02*
X146939466Y-94833095D01*
X146939466Y-94833095D02*
X147061371Y-94833095D01*
X147061371Y-94833095D02*
X147122323Y-94802619D01*
X147122323Y-94802619D02*
X147152800Y-94772142D01*
X147152800Y-94772142D02*
X147183276Y-94711190D01*
X147183276Y-94711190D02*
X147183276Y-94589285D01*
X147183276Y-94589285D02*
X147152800Y-94528333D01*
X147152800Y-94528333D02*
X147122323Y-94497857D01*
X147122323Y-94497857D02*
X147061371Y-94467380D01*
X147061371Y-94467380D02*
X146939466Y-94467380D01*
X146939466Y-94467380D02*
X146878514Y-94497857D01*
X146878514Y-94497857D02*
X146848038Y-94528333D01*
X146848038Y-94528333D02*
X146817561Y-94589285D01*
X124621667Y-106503276D02*
X124621667Y-106960419D01*
X124621667Y-106960419D02*
X124591190Y-107051847D01*
X124591190Y-107051847D02*
X124530238Y-107112800D01*
X124530238Y-107112800D02*
X124438809Y-107143276D01*
X124438809Y-107143276D02*
X124377857Y-107143276D01*
X124895952Y-106564228D02*
X124926428Y-106533752D01*
X124926428Y-106533752D02*
X124987381Y-106503276D01*
X124987381Y-106503276D02*
X125139762Y-106503276D01*
X125139762Y-106503276D02*
X125200714Y-106533752D01*
X125200714Y-106533752D02*
X125231190Y-106564228D01*
X125231190Y-106564228D02*
X125261667Y-106625180D01*
X125261667Y-106625180D02*
X125261667Y-106686133D01*
X125261667Y-106686133D02*
X125231190Y-106777561D01*
X125231190Y-106777561D02*
X124865476Y-107143276D01*
X124865476Y-107143276D02*
X125261667Y-107143276D01*
X134811666Y-98592800D02*
X134903095Y-98623276D01*
X134903095Y-98623276D02*
X135055476Y-98623276D01*
X135055476Y-98623276D02*
X135116428Y-98592800D01*
X135116428Y-98592800D02*
X135146904Y-98562323D01*
X135146904Y-98562323D02*
X135177381Y-98501371D01*
X135177381Y-98501371D02*
X135177381Y-98440419D01*
X135177381Y-98440419D02*
X135146904Y-98379466D01*
X135146904Y-98379466D02*
X135116428Y-98348990D01*
X135116428Y-98348990D02*
X135055476Y-98318514D01*
X135055476Y-98318514D02*
X134933571Y-98288038D01*
X134933571Y-98288038D02*
X134872619Y-98257561D01*
X134872619Y-98257561D02*
X134842142Y-98227085D01*
X134842142Y-98227085D02*
X134811666Y-98166133D01*
X134811666Y-98166133D02*
X134811666Y-98105180D01*
X134811666Y-98105180D02*
X134842142Y-98044228D01*
X134842142Y-98044228D02*
X134872619Y-98013752D01*
X134872619Y-98013752D02*
X134933571Y-97983276D01*
X134933571Y-97983276D02*
X135085952Y-97983276D01*
X135085952Y-97983276D02*
X135177381Y-98013752D01*
X135390714Y-97983276D02*
X135543095Y-98623276D01*
X135543095Y-98623276D02*
X135665000Y-98166133D01*
X135665000Y-98166133D02*
X135786905Y-98623276D01*
X135786905Y-98623276D02*
X135939286Y-97983276D01*
X136518334Y-98623276D02*
X136152619Y-98623276D01*
X136335476Y-98623276D02*
X136335476Y-97983276D01*
X136335476Y-97983276D02*
X136274524Y-98074704D01*
X136274524Y-98074704D02*
X136213572Y-98135657D01*
X136213572Y-98135657D02*
X136152619Y-98166133D01*
X146972323Y-86076428D02*
X147002800Y-86106904D01*
X147002800Y-86106904D02*
X147033276Y-86198333D01*
X147033276Y-86198333D02*
X147033276Y-86259285D01*
X147033276Y-86259285D02*
X147002800Y-86350714D01*
X147002800Y-86350714D02*
X146941847Y-86411666D01*
X146941847Y-86411666D02*
X146880895Y-86442143D01*
X146880895Y-86442143D02*
X146758990Y-86472619D01*
X146758990Y-86472619D02*
X146667561Y-86472619D01*
X146667561Y-86472619D02*
X146545657Y-86442143D01*
X146545657Y-86442143D02*
X146484704Y-86411666D01*
X146484704Y-86411666D02*
X146423752Y-86350714D01*
X146423752Y-86350714D02*
X146393276Y-86259285D01*
X146393276Y-86259285D02*
X146393276Y-86198333D01*
X146393276Y-86198333D02*
X146423752Y-86106904D01*
X146423752Y-86106904D02*
X146454228Y-86076428D01*
X147033276Y-85466904D02*
X147033276Y-85832619D01*
X147033276Y-85649762D02*
X146393276Y-85649762D01*
X146393276Y-85649762D02*
X146484704Y-85710714D01*
X146484704Y-85710714D02*
X146545657Y-85771666D01*
X146545657Y-85771666D02*
X146576133Y-85832619D01*
X147033276Y-85162142D02*
X147033276Y-85040238D01*
X147033276Y-85040238D02*
X147002800Y-84979285D01*
X147002800Y-84979285D02*
X146972323Y-84948809D01*
X146972323Y-84948809D02*
X146880895Y-84887857D01*
X146880895Y-84887857D02*
X146758990Y-84857380D01*
X146758990Y-84857380D02*
X146515180Y-84857380D01*
X146515180Y-84857380D02*
X146454228Y-84887857D01*
X146454228Y-84887857D02*
X146423752Y-84918333D01*
X146423752Y-84918333D02*
X146393276Y-84979285D01*
X146393276Y-84979285D02*
X146393276Y-85101190D01*
X146393276Y-85101190D02*
X146423752Y-85162142D01*
X146423752Y-85162142D02*
X146454228Y-85192619D01*
X146454228Y-85192619D02*
X146515180Y-85223095D01*
X146515180Y-85223095D02*
X146667561Y-85223095D01*
X146667561Y-85223095D02*
X146728514Y-85192619D01*
X146728514Y-85192619D02*
X146758990Y-85162142D01*
X146758990Y-85162142D02*
X146789466Y-85101190D01*
X146789466Y-85101190D02*
X146789466Y-84979285D01*
X146789466Y-84979285D02*
X146758990Y-84918333D01*
X146758990Y-84918333D02*
X146728514Y-84887857D01*
X146728514Y-84887857D02*
X146667561Y-84857380D01*
X137138333Y-93213276D02*
X136833571Y-93213276D01*
X136833571Y-93213276D02*
X136833571Y-92573276D01*
X137686905Y-93213276D02*
X137321190Y-93213276D01*
X137504047Y-93213276D02*
X137504047Y-92573276D01*
X137504047Y-92573276D02*
X137443095Y-92664704D01*
X137443095Y-92664704D02*
X137382143Y-92725657D01*
X137382143Y-92725657D02*
X137321190Y-92756133D01*
X125233276Y-85972619D02*
X125751371Y-85972619D01*
X125751371Y-85972619D02*
X125812323Y-85942142D01*
X125812323Y-85942142D02*
X125842800Y-85911666D01*
X125842800Y-85911666D02*
X125873276Y-85850714D01*
X125873276Y-85850714D02*
X125873276Y-85728809D01*
X125873276Y-85728809D02*
X125842800Y-85667857D01*
X125842800Y-85667857D02*
X125812323Y-85637380D01*
X125812323Y-85637380D02*
X125751371Y-85606904D01*
X125751371Y-85606904D02*
X125233276Y-85606904D01*
X125294228Y-85332619D02*
X125263752Y-85302143D01*
X125263752Y-85302143D02*
X125233276Y-85241190D01*
X125233276Y-85241190D02*
X125233276Y-85088809D01*
X125233276Y-85088809D02*
X125263752Y-85027857D01*
X125263752Y-85027857D02*
X125294228Y-84997381D01*
X125294228Y-84997381D02*
X125355180Y-84966904D01*
X125355180Y-84966904D02*
X125416133Y-84966904D01*
X125416133Y-84966904D02*
X125507561Y-84997381D01*
X125507561Y-84997381D02*
X125873276Y-85363095D01*
X125873276Y-85363095D02*
X125873276Y-84966904D01*
X130253571Y-117093276D02*
X130040237Y-116788514D01*
X129887856Y-117093276D02*
X129887856Y-116453276D01*
X129887856Y-116453276D02*
X130131666Y-116453276D01*
X130131666Y-116453276D02*
X130192618Y-116483752D01*
X130192618Y-116483752D02*
X130223095Y-116514228D01*
X130223095Y-116514228D02*
X130253571Y-116575180D01*
X130253571Y-116575180D02*
X130253571Y-116666609D01*
X130253571Y-116666609D02*
X130223095Y-116727561D01*
X130223095Y-116727561D02*
X130192618Y-116758038D01*
X130192618Y-116758038D02*
X130131666Y-116788514D01*
X130131666Y-116788514D02*
X129887856Y-116788514D01*
X130863095Y-117093276D02*
X130497380Y-117093276D01*
X130680237Y-117093276D02*
X130680237Y-116453276D01*
X130680237Y-116453276D02*
X130619285Y-116544704D01*
X130619285Y-116544704D02*
X130558333Y-116605657D01*
X130558333Y-116605657D02*
X130497380Y-116636133D01*
X131076428Y-116453276D02*
X131503095Y-116453276D01*
X131503095Y-116453276D02*
X131228809Y-117093276D01*
X116841667Y-106343276D02*
X116841667Y-106800419D01*
X116841667Y-106800419D02*
X116811190Y-106891847D01*
X116811190Y-106891847D02*
X116750238Y-106952800D01*
X116750238Y-106952800D02*
X116658809Y-106983276D01*
X116658809Y-106983276D02*
X116597857Y-106983276D01*
X117420714Y-106556609D02*
X117420714Y-106983276D01*
X117268333Y-106312800D02*
X117115952Y-106769942D01*
X117115952Y-106769942D02*
X117512143Y-106769942D01*
X143692800Y-93248333D02*
X143723276Y-93156904D01*
X143723276Y-93156904D02*
X143723276Y-93004523D01*
X143723276Y-93004523D02*
X143692800Y-92943571D01*
X143692800Y-92943571D02*
X143662323Y-92913095D01*
X143662323Y-92913095D02*
X143601371Y-92882618D01*
X143601371Y-92882618D02*
X143540419Y-92882618D01*
X143540419Y-92882618D02*
X143479466Y-92913095D01*
X143479466Y-92913095D02*
X143448990Y-92943571D01*
X143448990Y-92943571D02*
X143418514Y-93004523D01*
X143418514Y-93004523D02*
X143388038Y-93126428D01*
X143388038Y-93126428D02*
X143357561Y-93187380D01*
X143357561Y-93187380D02*
X143327085Y-93217857D01*
X143327085Y-93217857D02*
X143266133Y-93248333D01*
X143266133Y-93248333D02*
X143205180Y-93248333D01*
X143205180Y-93248333D02*
X143144228Y-93217857D01*
X143144228Y-93217857D02*
X143113752Y-93187380D01*
X143113752Y-93187380D02*
X143083276Y-93126428D01*
X143083276Y-93126428D02*
X143083276Y-92974047D01*
X143083276Y-92974047D02*
X143113752Y-92882618D01*
X143083276Y-92669285D02*
X143723276Y-92516904D01*
X143723276Y-92516904D02*
X143266133Y-92394999D01*
X143266133Y-92394999D02*
X143723276Y-92273094D01*
X143723276Y-92273094D02*
X143083276Y-92120714D01*
X143144228Y-91907380D02*
X143113752Y-91876904D01*
X143113752Y-91876904D02*
X143083276Y-91815951D01*
X143083276Y-91815951D02*
X143083276Y-91663570D01*
X143083276Y-91663570D02*
X143113752Y-91602618D01*
X143113752Y-91602618D02*
X143144228Y-91572142D01*
X143144228Y-91572142D02*
X143205180Y-91541665D01*
X143205180Y-91541665D02*
X143266133Y-91541665D01*
X143266133Y-91541665D02*
X143357561Y-91572142D01*
X143357561Y-91572142D02*
X143723276Y-91937856D01*
X143723276Y-91937856D02*
X143723276Y-91541665D01*
X119667295Y-82967800D02*
X119857771Y-82967800D01*
X119781580Y-83158276D02*
X119857771Y-82967800D01*
X119857771Y-82967800D02*
X119781580Y-82777323D01*
X120010152Y-83082085D02*
X119857771Y-82967800D01*
X119857771Y-82967800D02*
X120010152Y-82853514D01*
X115811666Y-94472800D02*
X115903095Y-94503276D01*
X115903095Y-94503276D02*
X116055476Y-94503276D01*
X116055476Y-94503276D02*
X116116428Y-94472800D01*
X116116428Y-94472800D02*
X116146904Y-94442323D01*
X116146904Y-94442323D02*
X116177381Y-94381371D01*
X116177381Y-94381371D02*
X116177381Y-94320419D01*
X116177381Y-94320419D02*
X116146904Y-94259466D01*
X116146904Y-94259466D02*
X116116428Y-94228990D01*
X116116428Y-94228990D02*
X116055476Y-94198514D01*
X116055476Y-94198514D02*
X115933571Y-94168038D01*
X115933571Y-94168038D02*
X115872619Y-94137561D01*
X115872619Y-94137561D02*
X115842142Y-94107085D01*
X115842142Y-94107085D02*
X115811666Y-94046133D01*
X115811666Y-94046133D02*
X115811666Y-93985180D01*
X115811666Y-93985180D02*
X115842142Y-93924228D01*
X115842142Y-93924228D02*
X115872619Y-93893752D01*
X115872619Y-93893752D02*
X115933571Y-93863276D01*
X115933571Y-93863276D02*
X116085952Y-93863276D01*
X116085952Y-93863276D02*
X116177381Y-93893752D01*
X116390714Y-93863276D02*
X116543095Y-94503276D01*
X116543095Y-94503276D02*
X116665000Y-94046133D01*
X116665000Y-94046133D02*
X116786905Y-94503276D01*
X116786905Y-94503276D02*
X116939286Y-93863276D01*
X117122143Y-93863276D02*
X117518334Y-93863276D01*
X117518334Y-93863276D02*
X117305000Y-94107085D01*
X117305000Y-94107085D02*
X117396429Y-94107085D01*
X117396429Y-94107085D02*
X117457381Y-94137561D01*
X117457381Y-94137561D02*
X117487857Y-94168038D01*
X117487857Y-94168038D02*
X117518334Y-94228990D01*
X117518334Y-94228990D02*
X117518334Y-94381371D01*
X117518334Y-94381371D02*
X117487857Y-94442323D01*
X117487857Y-94442323D02*
X117457381Y-94472800D01*
X117457381Y-94472800D02*
X117396429Y-94503276D01*
X117396429Y-94503276D02*
X117213572Y-94503276D01*
X117213572Y-94503276D02*
X117152619Y-94472800D01*
X117152619Y-94472800D02*
X117122143Y-94442323D01*
X137163276Y-105616428D02*
X136858514Y-105829762D01*
X137163276Y-105982143D02*
X136523276Y-105982143D01*
X136523276Y-105982143D02*
X136523276Y-105738333D01*
X136523276Y-105738333D02*
X136553752Y-105677381D01*
X136553752Y-105677381D02*
X136584228Y-105646904D01*
X136584228Y-105646904D02*
X136645180Y-105616428D01*
X136645180Y-105616428D02*
X136736609Y-105616428D01*
X136736609Y-105616428D02*
X136797561Y-105646904D01*
X136797561Y-105646904D02*
X136828038Y-105677381D01*
X136828038Y-105677381D02*
X136858514Y-105738333D01*
X136858514Y-105738333D02*
X136858514Y-105982143D01*
X137163276Y-105006904D02*
X137163276Y-105372619D01*
X137163276Y-105189762D02*
X136523276Y-105189762D01*
X136523276Y-105189762D02*
X136614704Y-105250714D01*
X136614704Y-105250714D02*
X136675657Y-105311666D01*
X136675657Y-105311666D02*
X136706133Y-105372619D01*
X136797561Y-104641190D02*
X136767085Y-104702142D01*
X136767085Y-104702142D02*
X136736609Y-104732619D01*
X136736609Y-104732619D02*
X136675657Y-104763095D01*
X136675657Y-104763095D02*
X136645180Y-104763095D01*
X136645180Y-104763095D02*
X136584228Y-104732619D01*
X136584228Y-104732619D02*
X136553752Y-104702142D01*
X136553752Y-104702142D02*
X136523276Y-104641190D01*
X136523276Y-104641190D02*
X136523276Y-104519285D01*
X136523276Y-104519285D02*
X136553752Y-104458333D01*
X136553752Y-104458333D02*
X136584228Y-104427857D01*
X136584228Y-104427857D02*
X136645180Y-104397380D01*
X136645180Y-104397380D02*
X136675657Y-104397380D01*
X136675657Y-104397380D02*
X136736609Y-104427857D01*
X136736609Y-104427857D02*
X136767085Y-104458333D01*
X136767085Y-104458333D02*
X136797561Y-104519285D01*
X136797561Y-104519285D02*
X136797561Y-104641190D01*
X136797561Y-104641190D02*
X136828038Y-104702142D01*
X136828038Y-104702142D02*
X136858514Y-104732619D01*
X136858514Y-104732619D02*
X136919466Y-104763095D01*
X136919466Y-104763095D02*
X137041371Y-104763095D01*
X137041371Y-104763095D02*
X137102323Y-104732619D01*
X137102323Y-104732619D02*
X137132800Y-104702142D01*
X137132800Y-104702142D02*
X137163276Y-104641190D01*
X137163276Y-104641190D02*
X137163276Y-104519285D01*
X137163276Y-104519285D02*
X137132800Y-104458333D01*
X137132800Y-104458333D02*
X137102323Y-104427857D01*
X137102323Y-104427857D02*
X137041371Y-104397380D01*
X137041371Y-104397380D02*
X136919466Y-104397380D01*
X136919466Y-104397380D02*
X136858514Y-104427857D01*
X136858514Y-104427857D02*
X136828038Y-104458333D01*
X136828038Y-104458333D02*
X136797561Y-104519285D01*
X120702618Y-121413276D02*
X120702618Y-120773276D01*
X120702618Y-120773276D02*
X120854999Y-120773276D01*
X120854999Y-120773276D02*
X120946428Y-120803752D01*
X120946428Y-120803752D02*
X121007380Y-120864704D01*
X121007380Y-120864704D02*
X121037857Y-120925657D01*
X121037857Y-120925657D02*
X121068333Y-121047561D01*
X121068333Y-121047561D02*
X121068333Y-121138990D01*
X121068333Y-121138990D02*
X121037857Y-121260895D01*
X121037857Y-121260895D02*
X121007380Y-121321847D01*
X121007380Y-121321847D02*
X120946428Y-121382800D01*
X120946428Y-121382800D02*
X120854999Y-121413276D01*
X120854999Y-121413276D02*
X120702618Y-121413276D01*
X121677857Y-121413276D02*
X121312142Y-121413276D01*
X121494999Y-121413276D02*
X121494999Y-120773276D01*
X121494999Y-120773276D02*
X121434047Y-120864704D01*
X121434047Y-120864704D02*
X121373095Y-120925657D01*
X121373095Y-120925657D02*
X121312142Y-120956133D01*
X118768333Y-106912323D02*
X118737857Y-106942800D01*
X118737857Y-106942800D02*
X118646428Y-106973276D01*
X118646428Y-106973276D02*
X118585476Y-106973276D01*
X118585476Y-106973276D02*
X118494047Y-106942800D01*
X118494047Y-106942800D02*
X118433095Y-106881847D01*
X118433095Y-106881847D02*
X118402618Y-106820895D01*
X118402618Y-106820895D02*
X118372142Y-106698990D01*
X118372142Y-106698990D02*
X118372142Y-106607561D01*
X118372142Y-106607561D02*
X118402618Y-106485657D01*
X118402618Y-106485657D02*
X118433095Y-106424704D01*
X118433095Y-106424704D02*
X118494047Y-106363752D01*
X118494047Y-106363752D02*
X118585476Y-106333276D01*
X118585476Y-106333276D02*
X118646428Y-106333276D01*
X118646428Y-106333276D02*
X118737857Y-106363752D01*
X118737857Y-106363752D02*
X118768333Y-106394228D01*
X119134047Y-106607561D02*
X119073095Y-106577085D01*
X119073095Y-106577085D02*
X119042618Y-106546609D01*
X119042618Y-106546609D02*
X119012142Y-106485657D01*
X119012142Y-106485657D02*
X119012142Y-106455180D01*
X119012142Y-106455180D02*
X119042618Y-106394228D01*
X119042618Y-106394228D02*
X119073095Y-106363752D01*
X119073095Y-106363752D02*
X119134047Y-106333276D01*
X119134047Y-106333276D02*
X119255952Y-106333276D01*
X119255952Y-106333276D02*
X119316904Y-106363752D01*
X119316904Y-106363752D02*
X119347380Y-106394228D01*
X119347380Y-106394228D02*
X119377857Y-106455180D01*
X119377857Y-106455180D02*
X119377857Y-106485657D01*
X119377857Y-106485657D02*
X119347380Y-106546609D01*
X119347380Y-106546609D02*
X119316904Y-106577085D01*
X119316904Y-106577085D02*
X119255952Y-106607561D01*
X119255952Y-106607561D02*
X119134047Y-106607561D01*
X119134047Y-106607561D02*
X119073095Y-106638038D01*
X119073095Y-106638038D02*
X119042618Y-106668514D01*
X119042618Y-106668514D02*
X119012142Y-106729466D01*
X119012142Y-106729466D02*
X119012142Y-106851371D01*
X119012142Y-106851371D02*
X119042618Y-106912323D01*
X119042618Y-106912323D02*
X119073095Y-106942800D01*
X119073095Y-106942800D02*
X119134047Y-106973276D01*
X119134047Y-106973276D02*
X119255952Y-106973276D01*
X119255952Y-106973276D02*
X119316904Y-106942800D01*
X119316904Y-106942800D02*
X119347380Y-106912323D01*
X119347380Y-106912323D02*
X119377857Y-106851371D01*
X119377857Y-106851371D02*
X119377857Y-106729466D01*
X119377857Y-106729466D02*
X119347380Y-106668514D01*
X119347380Y-106668514D02*
X119316904Y-106638038D01*
X119316904Y-106638038D02*
X119255952Y-106607561D01*
X117483571Y-83463276D02*
X117270237Y-83158514D01*
X117117856Y-83463276D02*
X117117856Y-82823276D01*
X117117856Y-82823276D02*
X117361666Y-82823276D01*
X117361666Y-82823276D02*
X117422618Y-82853752D01*
X117422618Y-82853752D02*
X117453095Y-82884228D01*
X117453095Y-82884228D02*
X117483571Y-82945180D01*
X117483571Y-82945180D02*
X117483571Y-83036609D01*
X117483571Y-83036609D02*
X117453095Y-83097561D01*
X117453095Y-83097561D02*
X117422618Y-83128038D01*
X117422618Y-83128038D02*
X117361666Y-83158514D01*
X117361666Y-83158514D02*
X117117856Y-83158514D01*
X118093095Y-83463276D02*
X117727380Y-83463276D01*
X117910237Y-83463276D02*
X117910237Y-82823276D01*
X117910237Y-82823276D02*
X117849285Y-82914704D01*
X117849285Y-82914704D02*
X117788333Y-82975657D01*
X117788333Y-82975657D02*
X117727380Y-83006133D01*
X118702619Y-83463276D02*
X118336904Y-83463276D01*
X118519761Y-83463276D02*
X118519761Y-82823276D01*
X118519761Y-82823276D02*
X118458809Y-82914704D01*
X118458809Y-82914704D02*
X118397857Y-82975657D01*
X118397857Y-82975657D02*
X118336904Y-83006133D01*
X148687380Y-115843276D02*
X148687380Y-116361371D01*
X148687380Y-116361371D02*
X148717857Y-116422323D01*
X148717857Y-116422323D02*
X148748333Y-116452800D01*
X148748333Y-116452800D02*
X148809285Y-116483276D01*
X148809285Y-116483276D02*
X148931190Y-116483276D01*
X148931190Y-116483276D02*
X148992142Y-116452800D01*
X148992142Y-116452800D02*
X149022619Y-116422323D01*
X149022619Y-116422323D02*
X149053095Y-116361371D01*
X149053095Y-116361371D02*
X149053095Y-115843276D01*
X149693095Y-116483276D02*
X149327380Y-116483276D01*
X149510237Y-116483276D02*
X149510237Y-115843276D01*
X149510237Y-115843276D02*
X149449285Y-115934704D01*
X149449285Y-115934704D02*
X149388333Y-115995657D01*
X149388333Y-115995657D02*
X149327380Y-116026133D01*
X155478514Y-91309761D02*
X155783276Y-91309761D01*
X155143276Y-91523094D02*
X155478514Y-91309761D01*
X155478514Y-91309761D02*
X155143276Y-91096427D01*
X155783276Y-90547856D02*
X155783276Y-90913571D01*
X155783276Y-90730714D02*
X155143276Y-90730714D01*
X155143276Y-90730714D02*
X155234704Y-90791666D01*
X155234704Y-90791666D02*
X155295657Y-90852618D01*
X155295657Y-90852618D02*
X155326133Y-90913571D01*
X120702618Y-118413276D02*
X120702618Y-117773276D01*
X120702618Y-117773276D02*
X120854999Y-117773276D01*
X120854999Y-117773276D02*
X120946428Y-117803752D01*
X120946428Y-117803752D02*
X121007380Y-117864704D01*
X121007380Y-117864704D02*
X121037857Y-117925657D01*
X121037857Y-117925657D02*
X121068333Y-118047561D01*
X121068333Y-118047561D02*
X121068333Y-118138990D01*
X121068333Y-118138990D02*
X121037857Y-118260895D01*
X121037857Y-118260895D02*
X121007380Y-118321847D01*
X121007380Y-118321847D02*
X120946428Y-118382800D01*
X120946428Y-118382800D02*
X120854999Y-118413276D01*
X120854999Y-118413276D02*
X120702618Y-118413276D01*
X121647380Y-117773276D02*
X121342618Y-117773276D01*
X121342618Y-117773276D02*
X121312142Y-118078038D01*
X121312142Y-118078038D02*
X121342618Y-118047561D01*
X121342618Y-118047561D02*
X121403571Y-118017085D01*
X121403571Y-118017085D02*
X121555952Y-118017085D01*
X121555952Y-118017085D02*
X121616904Y-118047561D01*
X121616904Y-118047561D02*
X121647380Y-118078038D01*
X121647380Y-118078038D02*
X121677857Y-118138990D01*
X121677857Y-118138990D02*
X121677857Y-118291371D01*
X121677857Y-118291371D02*
X121647380Y-118352323D01*
X121647380Y-118352323D02*
X121616904Y-118382800D01*
X121616904Y-118382800D02*
X121555952Y-118413276D01*
X121555952Y-118413276D02*
X121403571Y-118413276D01*
X121403571Y-118413276D02*
X121342618Y-118382800D01*
X121342618Y-118382800D02*
X121312142Y-118352323D01*
X125924228Y-81195952D02*
X125893752Y-81256904D01*
X125893752Y-81256904D02*
X125832800Y-81317857D01*
X125832800Y-81317857D02*
X125741371Y-81409285D01*
X125741371Y-81409285D02*
X125710895Y-81470238D01*
X125710895Y-81470238D02*
X125710895Y-81531190D01*
X125863276Y-81500714D02*
X125832800Y-81561666D01*
X125832800Y-81561666D02*
X125771847Y-81622619D01*
X125771847Y-81622619D02*
X125649942Y-81653095D01*
X125649942Y-81653095D02*
X125436609Y-81653095D01*
X125436609Y-81653095D02*
X125314704Y-81622619D01*
X125314704Y-81622619D02*
X125253752Y-81561666D01*
X125253752Y-81561666D02*
X125223276Y-81500714D01*
X125223276Y-81500714D02*
X125223276Y-81378809D01*
X125223276Y-81378809D02*
X125253752Y-81317857D01*
X125253752Y-81317857D02*
X125314704Y-81256904D01*
X125314704Y-81256904D02*
X125436609Y-81226428D01*
X125436609Y-81226428D02*
X125649942Y-81226428D01*
X125649942Y-81226428D02*
X125771847Y-81256904D01*
X125771847Y-81256904D02*
X125832800Y-81317857D01*
X125832800Y-81317857D02*
X125863276Y-81378809D01*
X125863276Y-81378809D02*
X125863276Y-81500714D01*
X125863276Y-80616904D02*
X125863276Y-80982619D01*
X125863276Y-80799762D02*
X125223276Y-80799762D01*
X125223276Y-80799762D02*
X125314704Y-80860714D01*
X125314704Y-80860714D02*
X125375657Y-80921666D01*
X125375657Y-80921666D02*
X125406133Y-80982619D01*
X126427380Y-111693276D02*
X126427380Y-112211371D01*
X126427380Y-112211371D02*
X126457857Y-112272323D01*
X126457857Y-112272323D02*
X126488333Y-112302800D01*
X126488333Y-112302800D02*
X126549285Y-112333276D01*
X126549285Y-112333276D02*
X126671190Y-112333276D01*
X126671190Y-112333276D02*
X126732142Y-112302800D01*
X126732142Y-112302800D02*
X126762619Y-112272323D01*
X126762619Y-112272323D02*
X126793095Y-112211371D01*
X126793095Y-112211371D02*
X126793095Y-111693276D01*
X127372142Y-111693276D02*
X127250237Y-111693276D01*
X127250237Y-111693276D02*
X127189285Y-111723752D01*
X127189285Y-111723752D02*
X127158809Y-111754228D01*
X127158809Y-111754228D02*
X127097856Y-111845657D01*
X127097856Y-111845657D02*
X127067380Y-111967561D01*
X127067380Y-111967561D02*
X127067380Y-112211371D01*
X127067380Y-112211371D02*
X127097856Y-112272323D01*
X127097856Y-112272323D02*
X127128333Y-112302800D01*
X127128333Y-112302800D02*
X127189285Y-112333276D01*
X127189285Y-112333276D02*
X127311190Y-112333276D01*
X127311190Y-112333276D02*
X127372142Y-112302800D01*
X127372142Y-112302800D02*
X127402618Y-112272323D01*
X127402618Y-112272323D02*
X127433095Y-112211371D01*
X127433095Y-112211371D02*
X127433095Y-112058990D01*
X127433095Y-112058990D02*
X127402618Y-111998038D01*
X127402618Y-111998038D02*
X127372142Y-111967561D01*
X127372142Y-111967561D02*
X127311190Y-111937085D01*
X127311190Y-111937085D02*
X127189285Y-111937085D01*
X127189285Y-111937085D02*
X127128333Y-111967561D01*
X127128333Y-111967561D02*
X127097856Y-111998038D01*
X127097856Y-111998038D02*
X127067380Y-112058990D01*
X116818038Y-81568332D02*
X116818038Y-81781666D01*
X117153276Y-81781666D02*
X116513276Y-81781666D01*
X116513276Y-81781666D02*
X116513276Y-81476904D01*
X117153276Y-80897856D02*
X117153276Y-81263571D01*
X117153276Y-81080714D02*
X116513276Y-81080714D01*
X116513276Y-81080714D02*
X116604704Y-81141666D01*
X116604704Y-81141666D02*
X116665657Y-81202618D01*
X116665657Y-81202618D02*
X116696133Y-81263571D01*
X133533571Y-116453276D02*
X133320237Y-116148514D01*
X133167856Y-116453276D02*
X133167856Y-115813276D01*
X133167856Y-115813276D02*
X133411666Y-115813276D01*
X133411666Y-115813276D02*
X133472618Y-115843752D01*
X133472618Y-115843752D02*
X133503095Y-115874228D01*
X133503095Y-115874228D02*
X133533571Y-115935180D01*
X133533571Y-115935180D02*
X133533571Y-116026609D01*
X133533571Y-116026609D02*
X133503095Y-116087561D01*
X133503095Y-116087561D02*
X133472618Y-116118038D01*
X133472618Y-116118038D02*
X133411666Y-116148514D01*
X133411666Y-116148514D02*
X133167856Y-116148514D01*
X134143095Y-116453276D02*
X133777380Y-116453276D01*
X133960237Y-116453276D02*
X133960237Y-115813276D01*
X133960237Y-115813276D02*
X133899285Y-115904704D01*
X133899285Y-115904704D02*
X133838333Y-115965657D01*
X133838333Y-115965657D02*
X133777380Y-115996133D01*
X134447857Y-116453276D02*
X134569761Y-116453276D01*
X134569761Y-116453276D02*
X134630714Y-116422800D01*
X134630714Y-116422800D02*
X134661190Y-116392323D01*
X134661190Y-116392323D02*
X134722142Y-116300895D01*
X134722142Y-116300895D02*
X134752619Y-116178990D01*
X134752619Y-116178990D02*
X134752619Y-115935180D01*
X134752619Y-115935180D02*
X134722142Y-115874228D01*
X134722142Y-115874228D02*
X134691666Y-115843752D01*
X134691666Y-115843752D02*
X134630714Y-115813276D01*
X134630714Y-115813276D02*
X134508809Y-115813276D01*
X134508809Y-115813276D02*
X134447857Y-115843752D01*
X134447857Y-115843752D02*
X134417380Y-115874228D01*
X134417380Y-115874228D02*
X134386904Y-115935180D01*
X134386904Y-115935180D02*
X134386904Y-116087561D01*
X134386904Y-116087561D02*
X134417380Y-116148514D01*
X134417380Y-116148514D02*
X134447857Y-116178990D01*
X134447857Y-116178990D02*
X134508809Y-116209466D01*
X134508809Y-116209466D02*
X134630714Y-116209466D01*
X134630714Y-116209466D02*
X134691666Y-116178990D01*
X134691666Y-116178990D02*
X134722142Y-116148514D01*
X134722142Y-116148514D02*
X134752619Y-116087561D01*
X119152618Y-122913276D02*
X119152618Y-122273276D01*
X119152618Y-122273276D02*
X119304999Y-122273276D01*
X119304999Y-122273276D02*
X119396428Y-122303752D01*
X119396428Y-122303752D02*
X119457380Y-122364704D01*
X119457380Y-122364704D02*
X119487857Y-122425657D01*
X119487857Y-122425657D02*
X119518333Y-122547561D01*
X119518333Y-122547561D02*
X119518333Y-122638990D01*
X119518333Y-122638990D02*
X119487857Y-122760895D01*
X119487857Y-122760895D02*
X119457380Y-122821847D01*
X119457380Y-122821847D02*
X119396428Y-122882800D01*
X119396428Y-122882800D02*
X119304999Y-122913276D01*
X119304999Y-122913276D02*
X119152618Y-122913276D01*
X119762142Y-122334228D02*
X119792618Y-122303752D01*
X119792618Y-122303752D02*
X119853571Y-122273276D01*
X119853571Y-122273276D02*
X120005952Y-122273276D01*
X120005952Y-122273276D02*
X120066904Y-122303752D01*
X120066904Y-122303752D02*
X120097380Y-122334228D01*
X120097380Y-122334228D02*
X120127857Y-122395180D01*
X120127857Y-122395180D02*
X120127857Y-122456133D01*
X120127857Y-122456133D02*
X120097380Y-122547561D01*
X120097380Y-122547561D02*
X119731666Y-122913276D01*
X119731666Y-122913276D02*
X120127857Y-122913276D01*
D13*
%TO.C,C9*%
X121830000Y-89283748D02*
X121830000Y-89806252D01*
X123300000Y-89283748D02*
X123300000Y-89806252D01*
%TO.C,C7*%
X120240000Y-99316252D02*
X120240000Y-98793748D01*
X121710000Y-99316252D02*
X121710000Y-98793748D01*
D14*
%TO.C,RV1*%
X135535000Y-79865000D02*
X137415000Y-79865000D01*
X135535000Y-82865000D02*
X137415000Y-82865000D01*
X137415000Y-79865000D02*
X137615000Y-79965000D01*
X137415000Y-82865000D02*
X137615000Y-82765000D01*
X137615000Y-79965000D02*
X137615000Y-80245000D01*
X137615000Y-82765000D02*
X137615000Y-82485000D01*
D15*
X134315000Y-78865000D02*
G75*
G02*
X134115000Y-78865000I-100000J0D01*
G01*
X134115000Y-78865000D02*
G75*
G02*
X134315000Y-78865000I100000J0D01*
G01*
D13*
%TO.C,C10*%
X123930000Y-89283748D02*
X123930000Y-89806252D01*
X125400000Y-89283748D02*
X125400000Y-89806252D01*
%TO.C,C18*%
X147590000Y-93953748D02*
X147590000Y-94476252D01*
X149060000Y-93953748D02*
X149060000Y-94476252D01*
%TO.C,J2*%
X122395000Y-103855000D02*
X122395000Y-93635000D01*
X122395000Y-106455000D02*
X122395000Y-105125000D01*
X123725000Y-106455000D02*
X122395000Y-106455000D01*
X125055000Y-93635000D02*
X122395000Y-93635000D01*
X125055000Y-103855000D02*
X122395000Y-103855000D01*
X125055000Y-103855000D02*
X125055000Y-93635000D01*
%TO.C,SW1*%
X131015000Y-98835000D02*
X137135000Y-98835000D01*
X131015000Y-102535000D02*
X131015000Y-98835000D01*
X137135000Y-98835000D02*
X137135000Y-102535000D01*
X137135000Y-102535000D02*
X131015000Y-102535000D01*
%TO.C,R13*%
X135842064Y-83670000D02*
X135387936Y-83670000D01*
X135842064Y-85140000D02*
X135387936Y-85140000D01*
D14*
%TO.C,D3*%
X127792500Y-93022500D02*
X127792500Y-93250000D01*
X127792500Y-93022500D02*
X132037500Y-93022500D01*
X127792500Y-95687500D02*
X127792500Y-95460000D01*
X132037500Y-93022500D02*
X132037500Y-93250000D01*
X132037500Y-95460000D02*
X132037500Y-95687500D01*
X132037500Y-95687500D02*
X127792500Y-95687500D01*
D15*
X130515000Y-94355000D02*
G75*
G02*
X130315000Y-94355000I-100000J0D01*
G01*
X130315000Y-94355000D02*
G75*
G02*
X130515000Y-94355000I100000J0D01*
G01*
D13*
%TO.C,TP1*%
X121645000Y-94735000D02*
G75*
G02*
X120245000Y-94735000I-700000J0D01*
G01*
X120245000Y-94735000D02*
G75*
G02*
X121645000Y-94735000I700000J0D01*
G01*
%TO.C,C19*%
X147590000Y-85403748D02*
X147590000Y-85926252D01*
X149060000Y-85403748D02*
X149060000Y-85926252D01*
%TO.C,R12*%
X137870000Y-87207936D02*
X137870000Y-87662064D01*
X139340000Y-87207936D02*
X139340000Y-87662064D01*
%TO.C,L1*%
X134015000Y-89635000D02*
X134015000Y-89785000D01*
X134015000Y-89635000D02*
X140535000Y-89635000D01*
X134015000Y-96155000D02*
X134015000Y-96005000D01*
X134015000Y-96155000D02*
X140535000Y-96155000D01*
X140535000Y-89635000D02*
X140535000Y-89785000D01*
X140535000Y-96155000D02*
X140535000Y-96005000D01*
%TO.C,R7*%
X123392064Y-85380000D02*
X122937936Y-85380000D01*
X123392064Y-86850000D02*
X122937936Y-86850000D01*
D14*
%TO.C,U2*%
X127775000Y-85475000D02*
X127775000Y-85375000D01*
X127775000Y-90375000D02*
X127775000Y-90275000D01*
X131775000Y-85375000D02*
X127775000Y-85375000D01*
X131775000Y-85475000D02*
X131775000Y-85375000D01*
X131775000Y-90375000D02*
X127775000Y-90375000D01*
X131775000Y-90375000D02*
X131775000Y-90275000D01*
D15*
X130375000Y-89975000D02*
G75*
G02*
X130175000Y-89975000I-100000J0D01*
G01*
X130175000Y-89975000D02*
G75*
G02*
X130375000Y-89975000I100000J0D01*
G01*
D13*
%TO.C,R17*%
X129930000Y-113817936D02*
X129930000Y-114272064D01*
X131400000Y-113817936D02*
X131400000Y-114272064D01*
D14*
%TO.C,Q3*%
X132385000Y-107475000D02*
X132385000Y-106535000D01*
X133215000Y-106535000D02*
X132385000Y-106535000D01*
X135285000Y-106535000D02*
X134455000Y-106535000D01*
X135285000Y-106535000D02*
X135285000Y-107475000D01*
D15*
X132935000Y-107185000D02*
G75*
G02*
X132735000Y-107185000I-100000J0D01*
G01*
X132735000Y-107185000D02*
G75*
G02*
X132935000Y-107185000I100000J0D01*
G01*
D13*
%TO.C,J4*%
X115050000Y-108117500D02*
X115310000Y-108117500D01*
X115310000Y-115737500D02*
X115050000Y-115737500D01*
X117590000Y-108117500D02*
X119360000Y-108117500D01*
X119360000Y-108117500D02*
X119360000Y-108497500D01*
X119360000Y-115737500D02*
X117590000Y-115737500D01*
X119360000Y-115737500D02*
X119360000Y-115357500D01*
%TO.C,R8*%
X135387936Y-87770000D02*
X135842064Y-87770000D01*
X135387936Y-89240000D02*
X135842064Y-89240000D01*
%TO.C,SW2*%
X141585000Y-89295000D02*
X145285000Y-89295000D01*
X141585000Y-95415000D02*
X141585000Y-89295000D01*
X145285000Y-89295000D02*
X145285000Y-95415000D01*
X145285000Y-95415000D02*
X141585000Y-95415000D01*
D16*
%TO.C,D4*%
X119304900Y-79856300D02*
X119304900Y-81913700D01*
X120905100Y-81913700D02*
X120905100Y-79856300D01*
D13*
%TO.C,C6*%
X129546248Y-90960000D02*
X130068752Y-90960000D01*
X129546248Y-92430000D02*
X130068752Y-92430000D01*
%TO.C,SW3*%
X114925000Y-96075000D02*
X114925000Y-98275000D01*
X114925000Y-102375000D02*
X114925000Y-104675000D01*
X119525000Y-96075000D02*
X119525000Y-104675000D01*
%TO.C,R18*%
X134082064Y-103730000D02*
X133627936Y-103730000D01*
X134082064Y-105200000D02*
X133627936Y-105200000D01*
%TO.C,D1*%
X115980000Y-120165000D02*
X115980000Y-122085000D01*
X115980000Y-122085000D02*
X118665000Y-122085000D01*
X118665000Y-120165000D02*
X115980000Y-120165000D01*
%TO.C,C8*%
X120240000Y-103443748D02*
X120240000Y-103966252D01*
X121710000Y-103443748D02*
X121710000Y-103966252D01*
%TO.C,R11*%
X119122064Y-83840000D02*
X118667936Y-83840000D01*
X119122064Y-85310000D02*
X118667936Y-85310000D01*
D14*
%TO.C,J1*%
X117545000Y-49535000D02*
X158845000Y-49535000D01*
X117545000Y-70035000D02*
X117545000Y-49535000D01*
X158845000Y-49535000D02*
X158845000Y-70035000D01*
X158845000Y-70035000D02*
X117545000Y-70035000D01*
D15*
X154295000Y-72285000D02*
G75*
G02*
X154095000Y-72285000I-100000J0D01*
G01*
X154095000Y-72285000D02*
G75*
G02*
X154295000Y-72285000I100000J0D01*
G01*
D13*
%TO.C,U1*%
X158300000Y-119045000D02*
X158300000Y-118545000D01*
X158800000Y-118545000D01*
X158300000Y-119045000D01*
G36*
X158300000Y-119045000D02*
G01*
X158300000Y-118545000D01*
X158800000Y-118545000D01*
X158300000Y-119045000D01*
G37*
X158295000Y-125430000D02*
X158295000Y-119270000D01*
X158295000Y-125430000D02*
X140055000Y-125430000D01*
X158295000Y-100470000D02*
X158295000Y-99690000D01*
X158295000Y-99690000D02*
X157295000Y-99690000D01*
X140055000Y-125430000D02*
X140055000Y-119015000D01*
X140055000Y-100470000D02*
X140055000Y-99690000D01*
X140055000Y-99690000D02*
X141055000Y-99690000D01*
%TO.C,Y1*%
X149565000Y-84305000D02*
X149565000Y-96905000D01*
X154665000Y-84305000D02*
X149565000Y-84305000D01*
X154665000Y-96905000D02*
X154665000Y-84305000D01*
%TO.C,D5*%
X115980000Y-117165000D02*
X115980000Y-119085000D01*
X115980000Y-119085000D02*
X118665000Y-119085000D01*
X118665000Y-117165000D02*
X115980000Y-117165000D01*
D14*
%TO.C,Q2*%
X132455000Y-111335000D02*
X132455000Y-110395000D01*
X132455000Y-111335000D02*
X133285000Y-111335000D01*
X134525000Y-111335000D02*
X135355000Y-111335000D01*
X135355000Y-110395000D02*
X135355000Y-111335000D01*
D15*
X135005000Y-110685000D02*
G75*
G02*
X134805000Y-110685000I-100000J0D01*
G01*
X134805000Y-110685000D02*
G75*
G02*
X135005000Y-110685000I100000J0D01*
G01*
D13*
%TO.C,C11*%
X135373748Y-85700000D02*
X135896252Y-85700000D01*
X135373748Y-87170000D02*
X135896252Y-87170000D01*
D16*
%TO.C,Q1*%
X126085659Y-78390500D02*
X124949199Y-78390500D01*
X126085659Y-79279500D02*
X124949199Y-79279500D01*
X126085659Y-82970500D02*
X124949199Y-82970500D01*
X126085659Y-83859500D02*
X124949199Y-83859500D01*
D13*
%TO.C,U6*%
X126185000Y-106730000D02*
X126185000Y-106245000D01*
X126185000Y-111225000D02*
X126185000Y-110500000D01*
X126910000Y-106005000D02*
X126485000Y-106005000D01*
X126910000Y-111225000D02*
X126185000Y-111225000D01*
X130680000Y-106005000D02*
X131405000Y-106005000D01*
X130680000Y-111225000D02*
X131405000Y-111225000D01*
X131405000Y-106005000D02*
X131405000Y-106730000D01*
X131405000Y-111225000D02*
X131405000Y-110500000D01*
X126185000Y-106005000D02*
X125945000Y-105675000D01*
X126425000Y-105675000D01*
X126185000Y-106005000D01*
G36*
X126185000Y-106005000D02*
G01*
X125945000Y-105675000D01*
X126425000Y-105675000D01*
X126185000Y-106005000D01*
G37*
%TO.C,F1*%
X116015000Y-71625000D02*
X117565000Y-71625000D01*
X116015000Y-77625000D02*
X116015000Y-71625000D01*
X116015000Y-77625000D02*
X117565000Y-77625000D01*
X116015000Y-86625000D02*
X116015000Y-92625000D01*
X116015000Y-86625000D02*
X117565000Y-86625000D01*
X116165000Y-86625000D02*
X116165000Y-77625000D01*
X117565000Y-92625000D02*
X116015000Y-92625000D01*
X119765000Y-92625000D02*
X121315000Y-92625000D01*
X121165000Y-86625000D02*
X121165000Y-77625000D01*
X121315000Y-71625000D02*
X119765000Y-71625000D01*
X121315000Y-77625000D02*
X119765000Y-77625000D01*
X121315000Y-77625000D02*
X121315000Y-71625000D01*
X121315000Y-86625000D02*
X119765000Y-86625000D01*
X121315000Y-92625000D02*
X121315000Y-86625000D01*
%TO.C,R19*%
X134172064Y-112650000D02*
X133717936Y-112650000D01*
X134172064Y-114120000D02*
X133717936Y-114120000D01*
%TO.C,D2*%
X115980000Y-123165000D02*
X115980000Y-125085000D01*
X115980000Y-125085000D02*
X118665000Y-125085000D01*
X118665000Y-123165000D02*
X115980000Y-123165000D01*
D17*
%TO.C,G\u002A\u002A\u002A*%
G36*
X148193822Y-79142431D02*
G01*
X148235576Y-79185444D01*
X148263454Y-79265367D01*
X148280048Y-79402303D01*
X148287942Y-79616355D01*
X148289749Y-79887547D01*
X148289749Y-80572151D01*
X148143661Y-80589188D01*
X148017900Y-80587652D01*
X147956548Y-80565199D01*
X147940099Y-80494276D01*
X147926793Y-80333227D01*
X147918127Y-80107059D01*
X147915523Y-79878726D01*
X147918684Y-79581983D01*
X147929884Y-79379882D01*
X147951701Y-79252047D01*
X147986712Y-79178104D01*
X148006708Y-79157600D01*
X148117378Y-79113022D01*
X148193822Y-79142431D01*
G37*
G36*
X145242168Y-79112757D02*
G01*
X145295088Y-79135159D01*
X145330748Y-79192777D01*
X145354549Y-79307491D01*
X145371895Y-79501180D01*
X145382296Y-79680357D01*
X145411083Y-80226711D01*
X146417915Y-80255499D01*
X146781513Y-80266690D01*
X147046110Y-80277801D01*
X147227828Y-80291028D01*
X147342792Y-80308569D01*
X147407121Y-80332622D01*
X147436942Y-80365382D01*
X147446102Y-80395627D01*
X147449645Y-80481547D01*
X147414537Y-80546842D01*
X147328066Y-80594214D01*
X147177516Y-80626363D01*
X146950176Y-80645995D01*
X146633330Y-80655810D01*
X146214265Y-80658511D01*
X146209370Y-80658511D01*
X145837352Y-80657980D01*
X145563548Y-80655122D01*
X145371029Y-80648035D01*
X145242864Y-80634820D01*
X145162122Y-80613579D01*
X145111872Y-80582411D01*
X145075183Y-80539418D01*
X145068908Y-80530555D01*
X145021732Y-80423678D01*
X144993184Y-80253107D01*
X144980524Y-79998084D01*
X144979283Y-79850679D01*
X144989075Y-79523040D01*
X145021111Y-79297895D01*
X145079380Y-79164047D01*
X145167871Y-79110299D01*
X145242168Y-79112757D01*
G37*
G36*
X148983492Y-79142740D02*
G01*
X149105936Y-79245103D01*
X149264614Y-79390478D01*
X149438427Y-79558220D01*
X149606272Y-79727687D01*
X149747047Y-79878236D01*
X149839651Y-79989223D01*
X149863420Y-80028539D01*
X149907588Y-80077999D01*
X149988417Y-80059743D01*
X150114664Y-79967627D01*
X150295086Y-79795504D01*
X150492771Y-79586918D01*
X150697320Y-79369983D01*
X150843464Y-79228771D01*
X150946950Y-79150909D01*
X151023516Y-79124023D01*
X151073839Y-79130211D01*
X151167379Y-79183370D01*
X151193639Y-79269229D01*
X151148248Y-79397075D01*
X151026836Y-79576192D01*
X150825030Y-79815864D01*
X150672288Y-79983203D01*
X150469471Y-80197122D01*
X150286686Y-80382459D01*
X150142017Y-80521389D01*
X150053552Y-80596087D01*
X150045163Y-80601245D01*
X149981825Y-80614133D01*
X149901168Y-80579639D01*
X149785376Y-80485343D01*
X149616632Y-80318832D01*
X149568464Y-80269020D01*
X149276218Y-79961709D01*
X149058608Y-79723427D01*
X148907443Y-79543211D01*
X148814528Y-79410103D01*
X148771671Y-79313139D01*
X148770680Y-79241363D01*
X148781055Y-79215568D01*
X148860721Y-79125850D01*
X148918386Y-79104031D01*
X148983492Y-79142740D01*
G37*
G36*
X155144583Y-80309874D02*
G01*
X155390744Y-80457067D01*
X155595558Y-80675207D01*
X155737087Y-80942208D01*
X155789646Y-81172385D01*
X155776535Y-81526743D01*
X155667315Y-81829321D01*
X155527994Y-82011775D01*
X155245540Y-82227429D01*
X154939821Y-82340611D01*
X154627038Y-82346911D01*
X154457278Y-82303007D01*
X154212387Y-82170912D01*
X153987864Y-81975523D01*
X153821402Y-81752727D01*
X153775885Y-81654216D01*
X153707296Y-81464537D01*
X149402889Y-81464537D01*
X148595079Y-81464421D01*
X147894663Y-81463951D01*
X147293892Y-81462945D01*
X146785012Y-81461223D01*
X146360275Y-81458601D01*
X146011927Y-81454899D01*
X145732217Y-81449934D01*
X145513396Y-81443525D01*
X145347709Y-81435490D01*
X145227408Y-81425646D01*
X145144738Y-81413812D01*
X145091952Y-81399807D01*
X145061296Y-81383449D01*
X145045019Y-81364555D01*
X145043763Y-81362296D01*
X145023440Y-81214820D01*
X145044599Y-81160790D01*
X145060604Y-81142379D01*
X145091684Y-81126387D01*
X145145463Y-81112642D01*
X145229565Y-81100977D01*
X145351617Y-81091223D01*
X145519246Y-81083210D01*
X145740076Y-81076771D01*
X146021731Y-81071734D01*
X146371839Y-81067932D01*
X146798025Y-81065195D01*
X147307914Y-81063355D01*
X147909132Y-81062243D01*
X148609304Y-81061690D01*
X149416056Y-81061525D01*
X149523388Y-81061523D01*
X150377916Y-81061896D01*
X151123672Y-81063083D01*
X151767032Y-81065186D01*
X152314365Y-81068307D01*
X152772048Y-81072551D01*
X153146450Y-81078016D01*
X153443947Y-81084809D01*
X153670910Y-81093029D01*
X153833713Y-81102781D01*
X153938730Y-81114166D01*
X153992333Y-81127287D01*
X154001165Y-81133490D01*
X154050772Y-81232092D01*
X154107472Y-81389525D01*
X154122864Y-81440771D01*
X154222683Y-81673247D01*
X154380377Y-81825296D01*
X154570392Y-81910754D01*
X154828923Y-81946711D01*
X155071714Y-81871608D01*
X155196834Y-81787260D01*
X155305140Y-81673011D01*
X155363023Y-81523457D01*
X155384852Y-81372209D01*
X155393022Y-81183132D01*
X155362302Y-81052373D01*
X155277965Y-80925668D01*
X155256705Y-80899998D01*
X155036077Y-80723219D01*
X154852774Y-80652422D01*
X154661928Y-80573057D01*
X154569165Y-80471102D01*
X154572991Y-80369167D01*
X154671908Y-80289870D01*
X154864422Y-80255823D01*
X154879016Y-80255714D01*
X155144583Y-80309874D01*
G37*
G36*
X153292198Y-79105278D02*
G01*
X153584743Y-79109819D01*
X153793267Y-79118855D01*
X153933324Y-79133590D01*
X154020468Y-79155225D01*
X154070250Y-79184963D01*
X154079873Y-79195218D01*
X154124440Y-79306000D01*
X154095110Y-79382331D01*
X154058664Y-79418075D01*
X153989940Y-79444611D01*
X153872484Y-79463694D01*
X153689846Y-79477077D01*
X153425573Y-79486515D01*
X153063213Y-79493763D01*
X153047736Y-79494011D01*
X152680824Y-79501351D01*
X152414426Y-79510880D01*
X152233908Y-79524071D01*
X152124640Y-79542399D01*
X152071991Y-79567337D01*
X152060801Y-79593405D01*
X152078304Y-79624779D01*
X152140570Y-79648350D01*
X152262229Y-79665591D01*
X152457912Y-79677974D01*
X152742252Y-79686975D01*
X153047736Y-79692799D01*
X153414033Y-79699999D01*
X153681637Y-79709325D01*
X153866998Y-79722531D01*
X153986568Y-79741372D01*
X154056801Y-79767602D01*
X154094147Y-79802975D01*
X154095110Y-79804479D01*
X154121434Y-79917731D01*
X154079873Y-79991593D01*
X154035092Y-80025850D01*
X153955257Y-80050551D01*
X153823744Y-80067142D01*
X153623928Y-80077072D01*
X153339180Y-80081787D01*
X153032498Y-80082779D01*
X152670564Y-80084156D01*
X152408701Y-80089169D01*
X152231860Y-80099134D01*
X152124990Y-80115367D01*
X152073040Y-80139186D01*
X152060801Y-80167810D01*
X152077099Y-80199107D01*
X152135712Y-80222689D01*
X152251222Y-80239991D01*
X152438210Y-80252451D01*
X152711257Y-80261507D01*
X153082728Y-80268563D01*
X153448016Y-80274600D01*
X153714232Y-80281277D01*
X153897438Y-80290835D01*
X154013696Y-80305515D01*
X154079071Y-80327559D01*
X154109624Y-80359210D01*
X154121418Y-80402707D01*
X154123040Y-80413732D01*
X154103853Y-80526724D01*
X153991488Y-80600183D01*
X153989752Y-80600846D01*
X153876075Y-80621943D01*
X153675271Y-80637907D01*
X153410833Y-80648785D01*
X153106257Y-80654625D01*
X152785036Y-80655475D01*
X152470664Y-80651382D01*
X152186636Y-80642394D01*
X151956445Y-80628558D01*
X151803587Y-80609922D01*
X151758541Y-80596327D01*
X151713942Y-80555585D01*
X151684571Y-80481319D01*
X151667426Y-80352493D01*
X151659508Y-80148067D01*
X151657788Y-79889925D01*
X151664522Y-79546122D01*
X151684542Y-79310435D01*
X151717572Y-79185707D01*
X151726876Y-79173119D01*
X151797228Y-79146154D01*
X151952314Y-79126244D01*
X152200127Y-79112920D01*
X152548661Y-79105712D01*
X152900080Y-79104031D01*
X153292198Y-79105278D01*
G37*
D13*
%TO.C,J3*%
X156315000Y-87395000D02*
X156315000Y-97615000D01*
X156315000Y-87395000D02*
X158975000Y-87395000D01*
X156315000Y-97615000D02*
X158975000Y-97615000D01*
X157645000Y-84795000D02*
X158975000Y-84795000D01*
X158975000Y-84795000D02*
X158975000Y-86125000D01*
X158975000Y-87395000D02*
X158975000Y-97615000D01*
%TD*%
M02*
