%TF.GenerationSoftware,KiCad,Pcbnew,8.0.4*%
%TF.CreationDate,2024-09-21T14:55:01-03:00*%
%TF.ProjectId,DongleALIVEv2.0,446f6e67-6c65-4414-9c49-564576322e30,2.0*%
%TF.SameCoordinates,Original*%
%TF.FileFunction,Legend,Top*%
%TF.FilePolarity,Positive*%
%FSLAX46Y46*%
G04 Gerber Fmt 4.6, Leading zero omitted, Abs format (unit mm)*
G04 Created by KiCad (PCBNEW 8.0.4) date 2024-09-21 14:55:01*
%MOMM*%
%LPD*%
G01*
G04 APERTURE LIST*
%ADD10C,0.128000*%
%ADD11C,0.100000*%
%ADD12C,0.150000*%
%ADD13C,0.120000*%
%ADD14C,0.127000*%
%ADD15C,0.200000*%
%ADD16C,0.152400*%
%ADD17C,0.000000*%
%ADD18C,0.350000*%
%ADD19C,0.300000*%
G04 APERTURE END LIST*
D10*
G36*
X196980057Y-83691091D02*
G01*
X196808110Y-83691091D01*
X196894396Y-83470999D01*
X196980057Y-83691091D01*
G37*
G36*
X198660748Y-84032315D02*
G01*
X196510654Y-84032315D01*
X196510654Y-83951200D01*
X196581765Y-83951200D01*
X196709631Y-83951200D01*
X196762466Y-83811141D01*
X197026170Y-83811141D01*
X197076816Y-83951200D01*
X197204682Y-83951200D01*
X197079836Y-83624969D01*
X197264707Y-83624969D01*
X197266207Y-83661029D01*
X197270706Y-83695428D01*
X197278204Y-83728167D01*
X197288702Y-83759244D01*
X197302198Y-83788661D01*
X197318695Y-83816417D01*
X197338190Y-83842511D01*
X197360685Y-83866945D01*
X197385573Y-83889037D01*
X197412171Y-83908183D01*
X197440479Y-83924384D01*
X197470496Y-83937639D01*
X197502224Y-83947949D01*
X197535660Y-83955313D01*
X197570807Y-83959731D01*
X197607663Y-83961204D01*
X197622834Y-83960967D01*
X197657003Y-83958578D01*
X197689452Y-83953616D01*
X197720181Y-83946080D01*
X197753193Y-83934317D01*
X197781469Y-83920444D01*
X197810493Y-83902487D01*
X197835967Y-83883845D01*
X197861990Y-83862202D01*
X197888562Y-83837558D01*
X197805090Y-83750803D01*
X197788650Y-83766096D01*
X197763251Y-83787325D01*
X197736008Y-83806444D01*
X197707392Y-83821770D01*
X197704609Y-83822963D01*
X197672800Y-83833582D01*
X197641992Y-83839261D01*
X197609383Y-83841153D01*
X197590024Y-83840474D01*
X197556583Y-83835828D01*
X197524947Y-83826779D01*
X197495116Y-83813329D01*
X197485678Y-83807928D01*
X197459821Y-83789516D01*
X197435411Y-83765171D01*
X197415551Y-83736735D01*
X197407446Y-83721102D01*
X197396317Y-83691231D01*
X197389640Y-83659135D01*
X197387425Y-83624969D01*
X197963124Y-83624969D01*
X197964624Y-83661029D01*
X197969123Y-83695428D01*
X197976621Y-83728167D01*
X197987119Y-83759244D01*
X198000616Y-83788661D01*
X198017112Y-83816417D01*
X198036607Y-83842511D01*
X198059102Y-83866945D01*
X198083990Y-83889037D01*
X198110588Y-83908183D01*
X198138896Y-83924384D01*
X198168914Y-83937639D01*
X198200641Y-83947949D01*
X198234078Y-83955313D01*
X198269224Y-83959731D01*
X198306080Y-83961204D01*
X198321251Y-83960967D01*
X198355421Y-83958578D01*
X198387870Y-83953616D01*
X198418598Y-83946080D01*
X198451610Y-83934317D01*
X198479886Y-83920444D01*
X198508911Y-83902487D01*
X198534384Y-83883845D01*
X198560407Y-83862202D01*
X198586979Y-83837558D01*
X198503507Y-83750803D01*
X198487067Y-83766096D01*
X198461668Y-83787325D01*
X198434426Y-83806444D01*
X198405810Y-83821770D01*
X198403026Y-83822963D01*
X198371218Y-83833582D01*
X198340409Y-83839261D01*
X198307800Y-83841153D01*
X198288441Y-83840474D01*
X198255000Y-83835828D01*
X198223364Y-83826779D01*
X198193533Y-83813329D01*
X198184095Y-83807928D01*
X198158238Y-83789516D01*
X198133829Y-83765171D01*
X198113969Y-83736735D01*
X198105863Y-83721102D01*
X198094735Y-83691231D01*
X198088058Y-83659135D01*
X198085832Y-83624813D01*
X198088063Y-83591890D01*
X198094757Y-83561000D01*
X198108206Y-83527531D01*
X198127728Y-83496830D01*
X198149296Y-83472718D01*
X198157362Y-83465241D01*
X198182923Y-83445705D01*
X198210529Y-83430510D01*
X198240179Y-83419656D01*
X198271873Y-83413144D01*
X198305612Y-83410973D01*
X198319262Y-83411326D01*
X198352641Y-83415297D01*
X198384951Y-83423679D01*
X198416193Y-83436473D01*
X198446366Y-83453678D01*
X198475471Y-83475295D01*
X198503507Y-83501324D01*
X198589637Y-83419883D01*
X198575913Y-83404853D01*
X198550356Y-83380688D01*
X198522839Y-83359246D01*
X198493363Y-83340527D01*
X198461927Y-83324531D01*
X198443311Y-83316654D01*
X198410286Y-83305397D01*
X198376692Y-83297356D01*
X198342530Y-83292531D01*
X198307800Y-83290923D01*
X198296086Y-83291100D01*
X198261531Y-83293747D01*
X198227854Y-83299570D01*
X198195057Y-83308570D01*
X198163140Y-83320746D01*
X198132101Y-83336098D01*
X198122069Y-83341840D01*
X198093736Y-83360435D01*
X198068052Y-83381085D01*
X198045017Y-83403790D01*
X198024630Y-83428551D01*
X198006893Y-83455367D01*
X198001593Y-83464712D01*
X197987744Y-83493752D01*
X197976973Y-83524298D01*
X197969279Y-83556349D01*
X197964663Y-83589906D01*
X197963124Y-83624969D01*
X197387425Y-83624969D01*
X197387415Y-83624813D01*
X197389646Y-83591890D01*
X197396339Y-83561000D01*
X197409788Y-83527531D01*
X197429311Y-83496830D01*
X197450879Y-83472718D01*
X197458945Y-83465241D01*
X197484506Y-83445705D01*
X197512112Y-83430510D01*
X197541762Y-83419656D01*
X197573456Y-83413144D01*
X197607194Y-83410973D01*
X197620845Y-83411326D01*
X197654224Y-83415297D01*
X197686534Y-83423679D01*
X197717776Y-83436473D01*
X197747949Y-83453678D01*
X197777053Y-83475295D01*
X197805090Y-83501324D01*
X197891219Y-83419883D01*
X197877495Y-83404853D01*
X197851939Y-83380688D01*
X197824422Y-83359246D01*
X197794946Y-83340527D01*
X197763510Y-83324531D01*
X197744893Y-83316654D01*
X197711868Y-83305397D01*
X197678275Y-83297356D01*
X197644113Y-83292531D01*
X197609383Y-83290923D01*
X197597669Y-83291100D01*
X197563113Y-83293747D01*
X197529437Y-83299570D01*
X197496640Y-83308570D01*
X197464722Y-83320746D01*
X197433684Y-83336098D01*
X197423651Y-83341840D01*
X197395318Y-83360435D01*
X197369634Y-83381085D01*
X197346599Y-83403790D01*
X197326213Y-83428551D01*
X197308475Y-83455367D01*
X197303175Y-83464712D01*
X197289327Y-83493752D01*
X197278556Y-83524298D01*
X197270862Y-83556349D01*
X197266246Y-83589906D01*
X197264707Y-83624969D01*
X197079836Y-83624969D01*
X196955828Y-83300927D01*
X196831088Y-83300927D01*
X196681494Y-83691091D01*
X196581765Y-83951200D01*
X196510654Y-83951200D01*
X196510654Y-83219812D01*
X198660748Y-83219812D01*
X198660748Y-84032315D01*
G37*
G36*
X195014680Y-76221283D02*
G01*
X195045867Y-76224104D01*
X195075997Y-76233483D01*
X195097803Y-76255328D01*
X195105072Y-76287099D01*
X195104820Y-76293545D01*
X195094755Y-76323208D01*
X195092054Y-76326791D01*
X195066305Y-76344623D01*
X195034984Y-76349974D01*
X195002060Y-76351032D01*
X194962981Y-76351032D01*
X194962981Y-76220978D01*
X194997683Y-76220978D01*
X195014680Y-76221283D01*
G37*
G36*
X196316125Y-76220984D02*
G01*
X196348002Y-76222087D01*
X196380762Y-76227699D01*
X196385256Y-76229514D01*
X196410149Y-76249740D01*
X196413346Y-76254660D01*
X196421248Y-76285848D01*
X196418126Y-76309318D01*
X196399051Y-76336026D01*
X196383659Y-76343280D01*
X196351168Y-76349567D01*
X196317923Y-76351032D01*
X196279157Y-76351032D01*
X196279157Y-76220978D01*
X196313077Y-76220978D01*
X196316125Y-76220984D01*
G37*
G36*
X196641796Y-76822311D02*
G01*
X194768850Y-76822311D01*
X194768850Y-76351032D01*
X194839961Y-76351032D01*
X194839961Y-76751200D01*
X194962981Y-76751200D01*
X194962981Y-76471082D01*
X194996214Y-76470731D01*
X195029790Y-76469431D01*
X195061312Y-76466774D01*
X195092723Y-76461078D01*
X195111058Y-76454947D01*
X195140945Y-76440583D01*
X195166826Y-76421941D01*
X195188700Y-76399021D01*
X195200759Y-76381518D01*
X195214170Y-76352275D01*
X195221966Y-76319447D01*
X195224184Y-76287255D01*
X195223946Y-76276036D01*
X195220381Y-76244208D01*
X195211402Y-76212062D01*
X195197141Y-76183306D01*
X195178301Y-76158497D01*
X195153099Y-76136637D01*
X195123204Y-76120467D01*
X195103595Y-76113826D01*
X195070969Y-76107110D01*
X195036346Y-76103236D01*
X195002157Y-76101404D01*
X194970484Y-76100927D01*
X195292650Y-76100927D01*
X195438961Y-76751200D01*
X195555885Y-76751200D01*
X195672809Y-76330867D01*
X195792078Y-76751200D01*
X195910252Y-76751200D01*
X195999809Y-76351032D01*
X196156137Y-76351032D01*
X196156137Y-76751200D01*
X196279157Y-76751200D01*
X196279157Y-76471082D01*
X196290724Y-76471082D01*
X196436254Y-76751200D01*
X196570685Y-76751200D01*
X196417652Y-76457483D01*
X196428927Y-76453198D01*
X196459469Y-76438168D01*
X196487633Y-76417639D01*
X196509722Y-76393081D01*
X196516903Y-76382127D01*
X196530666Y-76351898D01*
X196537936Y-76321221D01*
X196540360Y-76287255D01*
X196540117Y-76276113D01*
X196536469Y-76244383D01*
X196527283Y-76212116D01*
X196512692Y-76182993D01*
X196493644Y-76157900D01*
X196468636Y-76135975D01*
X196439380Y-76119998D01*
X196420152Y-76113517D01*
X196387760Y-76106961D01*
X196353086Y-76103181D01*
X196318663Y-76101393D01*
X196286660Y-76100927D01*
X196156137Y-76100927D01*
X196156137Y-76351032D01*
X195999809Y-76351032D01*
X196055782Y-76100927D01*
X195934481Y-76100927D01*
X195842099Y-76515945D01*
X195725175Y-76100927D01*
X195622788Y-76100927D01*
X195507115Y-76515945D01*
X195413951Y-76100927D01*
X195292650Y-76100927D01*
X194970484Y-76100927D01*
X194839961Y-76100927D01*
X194839961Y-76351032D01*
X194768850Y-76351032D01*
X194768850Y-76029816D01*
X196641796Y-76029816D01*
X196641796Y-76822311D01*
G37*
D11*
X194690000Y-75960000D02*
X194794023Y-76064023D01*
X194690000Y-75960000D02*
X192160000Y-75960000D01*
X194690000Y-75960000D02*
X194690000Y-74960000D01*
X187000000Y-76000000D02*
X186000000Y-76000000D01*
X194690000Y-74000000D02*
X194690000Y-73000000D01*
X189000000Y-76000000D02*
X188000000Y-76000000D01*
X191000000Y-76000000D02*
X190000000Y-76000000D01*
D12*
X161793333Y-94917323D02*
X161762857Y-94947800D01*
X161762857Y-94947800D02*
X161671428Y-94978276D01*
X161671428Y-94978276D02*
X161610476Y-94978276D01*
X161610476Y-94978276D02*
X161519047Y-94947800D01*
X161519047Y-94947800D02*
X161458095Y-94886847D01*
X161458095Y-94886847D02*
X161427618Y-94825895D01*
X161427618Y-94825895D02*
X161397142Y-94703990D01*
X161397142Y-94703990D02*
X161397142Y-94612561D01*
X161397142Y-94612561D02*
X161427618Y-94490657D01*
X161427618Y-94490657D02*
X161458095Y-94429704D01*
X161458095Y-94429704D02*
X161519047Y-94368752D01*
X161519047Y-94368752D02*
X161610476Y-94338276D01*
X161610476Y-94338276D02*
X161671428Y-94338276D01*
X161671428Y-94338276D02*
X161762857Y-94368752D01*
X161762857Y-94368752D02*
X161793333Y-94399228D01*
X162006666Y-94338276D02*
X162433333Y-94338276D01*
X162433333Y-94338276D02*
X162159047Y-94978276D01*
X176829048Y-78418276D02*
X176615714Y-78113514D01*
X176463333Y-78418276D02*
X176463333Y-77778276D01*
X176463333Y-77778276D02*
X176707143Y-77778276D01*
X176707143Y-77778276D02*
X176768095Y-77808752D01*
X176768095Y-77808752D02*
X176798572Y-77839228D01*
X176798572Y-77839228D02*
X176829048Y-77900180D01*
X176829048Y-77900180D02*
X176829048Y-77991609D01*
X176829048Y-77991609D02*
X176798572Y-78052561D01*
X176798572Y-78052561D02*
X176768095Y-78083038D01*
X176768095Y-78083038D02*
X176707143Y-78113514D01*
X176707143Y-78113514D02*
X176463333Y-78113514D01*
X177011905Y-77778276D02*
X177225238Y-78418276D01*
X177225238Y-78418276D02*
X177438572Y-77778276D01*
X177987143Y-78418276D02*
X177621428Y-78418276D01*
X177804285Y-78418276D02*
X177804285Y-77778276D01*
X177804285Y-77778276D02*
X177743333Y-77869704D01*
X177743333Y-77869704D02*
X177682381Y-77930657D01*
X177682381Y-77930657D02*
X177621428Y-77961133D01*
X188107323Y-94861428D02*
X188137800Y-94891904D01*
X188137800Y-94891904D02*
X188168276Y-94983333D01*
X188168276Y-94983333D02*
X188168276Y-95044285D01*
X188168276Y-95044285D02*
X188137800Y-95135714D01*
X188137800Y-95135714D02*
X188076847Y-95196666D01*
X188076847Y-95196666D02*
X188015895Y-95227143D01*
X188015895Y-95227143D02*
X187893990Y-95257619D01*
X187893990Y-95257619D02*
X187802561Y-95257619D01*
X187802561Y-95257619D02*
X187680657Y-95227143D01*
X187680657Y-95227143D02*
X187619704Y-95196666D01*
X187619704Y-95196666D02*
X187558752Y-95135714D01*
X187558752Y-95135714D02*
X187528276Y-95044285D01*
X187528276Y-95044285D02*
X187528276Y-94983333D01*
X187528276Y-94983333D02*
X187558752Y-94891904D01*
X187558752Y-94891904D02*
X187589228Y-94861428D01*
X188168276Y-94251904D02*
X188168276Y-94617619D01*
X188168276Y-94434762D02*
X187528276Y-94434762D01*
X187528276Y-94434762D02*
X187619704Y-94495714D01*
X187619704Y-94495714D02*
X187680657Y-94556666D01*
X187680657Y-94556666D02*
X187711133Y-94617619D01*
X187802561Y-93886190D02*
X187772085Y-93947142D01*
X187772085Y-93947142D02*
X187741609Y-93977619D01*
X187741609Y-93977619D02*
X187680657Y-94008095D01*
X187680657Y-94008095D02*
X187650180Y-94008095D01*
X187650180Y-94008095D02*
X187589228Y-93977619D01*
X187589228Y-93977619D02*
X187558752Y-93947142D01*
X187558752Y-93947142D02*
X187528276Y-93886190D01*
X187528276Y-93886190D02*
X187528276Y-93764285D01*
X187528276Y-93764285D02*
X187558752Y-93703333D01*
X187558752Y-93703333D02*
X187589228Y-93672857D01*
X187589228Y-93672857D02*
X187650180Y-93642380D01*
X187650180Y-93642380D02*
X187680657Y-93642380D01*
X187680657Y-93642380D02*
X187741609Y-93672857D01*
X187741609Y-93672857D02*
X187772085Y-93703333D01*
X187772085Y-93703333D02*
X187802561Y-93764285D01*
X187802561Y-93764285D02*
X187802561Y-93886190D01*
X187802561Y-93886190D02*
X187833038Y-93947142D01*
X187833038Y-93947142D02*
X187863514Y-93977619D01*
X187863514Y-93977619D02*
X187924466Y-94008095D01*
X187924466Y-94008095D02*
X188046371Y-94008095D01*
X188046371Y-94008095D02*
X188107323Y-93977619D01*
X188107323Y-93977619D02*
X188137800Y-93947142D01*
X188137800Y-93947142D02*
X188168276Y-93886190D01*
X188168276Y-93886190D02*
X188168276Y-93764285D01*
X188168276Y-93764285D02*
X188137800Y-93703333D01*
X188137800Y-93703333D02*
X188107323Y-93672857D01*
X188107323Y-93672857D02*
X188046371Y-93642380D01*
X188046371Y-93642380D02*
X187924466Y-93642380D01*
X187924466Y-93642380D02*
X187863514Y-93672857D01*
X187863514Y-93672857D02*
X187833038Y-93703333D01*
X187833038Y-93703333D02*
X187802561Y-93764285D01*
X165606667Y-105678276D02*
X165606667Y-106135419D01*
X165606667Y-106135419D02*
X165576190Y-106226847D01*
X165576190Y-106226847D02*
X165515238Y-106287800D01*
X165515238Y-106287800D02*
X165423809Y-106318276D01*
X165423809Y-106318276D02*
X165362857Y-106318276D01*
X165880952Y-105739228D02*
X165911428Y-105708752D01*
X165911428Y-105708752D02*
X165972381Y-105678276D01*
X165972381Y-105678276D02*
X166124762Y-105678276D01*
X166124762Y-105678276D02*
X166185714Y-105708752D01*
X166185714Y-105708752D02*
X166216190Y-105739228D01*
X166216190Y-105739228D02*
X166246667Y-105800180D01*
X166246667Y-105800180D02*
X166246667Y-105861133D01*
X166246667Y-105861133D02*
X166216190Y-105952561D01*
X166216190Y-105952561D02*
X165850476Y-106318276D01*
X165850476Y-106318276D02*
X166246667Y-106318276D01*
X175796666Y-97767800D02*
X175888095Y-97798276D01*
X175888095Y-97798276D02*
X176040476Y-97798276D01*
X176040476Y-97798276D02*
X176101428Y-97767800D01*
X176101428Y-97767800D02*
X176131904Y-97737323D01*
X176131904Y-97737323D02*
X176162381Y-97676371D01*
X176162381Y-97676371D02*
X176162381Y-97615419D01*
X176162381Y-97615419D02*
X176131904Y-97554466D01*
X176131904Y-97554466D02*
X176101428Y-97523990D01*
X176101428Y-97523990D02*
X176040476Y-97493514D01*
X176040476Y-97493514D02*
X175918571Y-97463038D01*
X175918571Y-97463038D02*
X175857619Y-97432561D01*
X175857619Y-97432561D02*
X175827142Y-97402085D01*
X175827142Y-97402085D02*
X175796666Y-97341133D01*
X175796666Y-97341133D02*
X175796666Y-97280180D01*
X175796666Y-97280180D02*
X175827142Y-97219228D01*
X175827142Y-97219228D02*
X175857619Y-97188752D01*
X175857619Y-97188752D02*
X175918571Y-97158276D01*
X175918571Y-97158276D02*
X176070952Y-97158276D01*
X176070952Y-97158276D02*
X176162381Y-97188752D01*
X176375714Y-97158276D02*
X176528095Y-97798276D01*
X176528095Y-97798276D02*
X176650000Y-97341133D01*
X176650000Y-97341133D02*
X176771905Y-97798276D01*
X176771905Y-97798276D02*
X176924286Y-97158276D01*
X177503334Y-97798276D02*
X177137619Y-97798276D01*
X177320476Y-97798276D02*
X177320476Y-97158276D01*
X177320476Y-97158276D02*
X177259524Y-97249704D01*
X177259524Y-97249704D02*
X177198572Y-97310657D01*
X177198572Y-97310657D02*
X177137619Y-97341133D01*
X187957323Y-85251428D02*
X187987800Y-85281904D01*
X187987800Y-85281904D02*
X188018276Y-85373333D01*
X188018276Y-85373333D02*
X188018276Y-85434285D01*
X188018276Y-85434285D02*
X187987800Y-85525714D01*
X187987800Y-85525714D02*
X187926847Y-85586666D01*
X187926847Y-85586666D02*
X187865895Y-85617143D01*
X187865895Y-85617143D02*
X187743990Y-85647619D01*
X187743990Y-85647619D02*
X187652561Y-85647619D01*
X187652561Y-85647619D02*
X187530657Y-85617143D01*
X187530657Y-85617143D02*
X187469704Y-85586666D01*
X187469704Y-85586666D02*
X187408752Y-85525714D01*
X187408752Y-85525714D02*
X187378276Y-85434285D01*
X187378276Y-85434285D02*
X187378276Y-85373333D01*
X187378276Y-85373333D02*
X187408752Y-85281904D01*
X187408752Y-85281904D02*
X187439228Y-85251428D01*
X188018276Y-84641904D02*
X188018276Y-85007619D01*
X188018276Y-84824762D02*
X187378276Y-84824762D01*
X187378276Y-84824762D02*
X187469704Y-84885714D01*
X187469704Y-84885714D02*
X187530657Y-84946666D01*
X187530657Y-84946666D02*
X187561133Y-85007619D01*
X188018276Y-84337142D02*
X188018276Y-84215238D01*
X188018276Y-84215238D02*
X187987800Y-84154285D01*
X187987800Y-84154285D02*
X187957323Y-84123809D01*
X187957323Y-84123809D02*
X187865895Y-84062857D01*
X187865895Y-84062857D02*
X187743990Y-84032380D01*
X187743990Y-84032380D02*
X187500180Y-84032380D01*
X187500180Y-84032380D02*
X187439228Y-84062857D01*
X187439228Y-84062857D02*
X187408752Y-84093333D01*
X187408752Y-84093333D02*
X187378276Y-84154285D01*
X187378276Y-84154285D02*
X187378276Y-84276190D01*
X187378276Y-84276190D02*
X187408752Y-84337142D01*
X187408752Y-84337142D02*
X187439228Y-84367619D01*
X187439228Y-84367619D02*
X187500180Y-84398095D01*
X187500180Y-84398095D02*
X187652561Y-84398095D01*
X187652561Y-84398095D02*
X187713514Y-84367619D01*
X187713514Y-84367619D02*
X187743990Y-84337142D01*
X187743990Y-84337142D02*
X187774466Y-84276190D01*
X187774466Y-84276190D02*
X187774466Y-84154285D01*
X187774466Y-84154285D02*
X187743990Y-84093333D01*
X187743990Y-84093333D02*
X187713514Y-84062857D01*
X187713514Y-84062857D02*
X187652561Y-84032380D01*
X178123333Y-92388276D02*
X177818571Y-92388276D01*
X177818571Y-92388276D02*
X177818571Y-91748276D01*
X178671905Y-92388276D02*
X178306190Y-92388276D01*
X178489047Y-92388276D02*
X178489047Y-91748276D01*
X178489047Y-91748276D02*
X178428095Y-91839704D01*
X178428095Y-91839704D02*
X178367143Y-91900657D01*
X178367143Y-91900657D02*
X178306190Y-91931133D01*
X166218276Y-85147619D02*
X166736371Y-85147619D01*
X166736371Y-85147619D02*
X166797323Y-85117142D01*
X166797323Y-85117142D02*
X166827800Y-85086666D01*
X166827800Y-85086666D02*
X166858276Y-85025714D01*
X166858276Y-85025714D02*
X166858276Y-84903809D01*
X166858276Y-84903809D02*
X166827800Y-84842857D01*
X166827800Y-84842857D02*
X166797323Y-84812380D01*
X166797323Y-84812380D02*
X166736371Y-84781904D01*
X166736371Y-84781904D02*
X166218276Y-84781904D01*
X166279228Y-84507619D02*
X166248752Y-84477143D01*
X166248752Y-84477143D02*
X166218276Y-84416190D01*
X166218276Y-84416190D02*
X166218276Y-84263809D01*
X166218276Y-84263809D02*
X166248752Y-84202857D01*
X166248752Y-84202857D02*
X166279228Y-84172381D01*
X166279228Y-84172381D02*
X166340180Y-84141904D01*
X166340180Y-84141904D02*
X166401133Y-84141904D01*
X166401133Y-84141904D02*
X166492561Y-84172381D01*
X166492561Y-84172381D02*
X166858276Y-84538095D01*
X166858276Y-84538095D02*
X166858276Y-84141904D01*
X171238571Y-116268276D02*
X171025237Y-115963514D01*
X170872856Y-116268276D02*
X170872856Y-115628276D01*
X170872856Y-115628276D02*
X171116666Y-115628276D01*
X171116666Y-115628276D02*
X171177618Y-115658752D01*
X171177618Y-115658752D02*
X171208095Y-115689228D01*
X171208095Y-115689228D02*
X171238571Y-115750180D01*
X171238571Y-115750180D02*
X171238571Y-115841609D01*
X171238571Y-115841609D02*
X171208095Y-115902561D01*
X171208095Y-115902561D02*
X171177618Y-115933038D01*
X171177618Y-115933038D02*
X171116666Y-115963514D01*
X171116666Y-115963514D02*
X170872856Y-115963514D01*
X171848095Y-116268276D02*
X171482380Y-116268276D01*
X171665237Y-116268276D02*
X171665237Y-115628276D01*
X171665237Y-115628276D02*
X171604285Y-115719704D01*
X171604285Y-115719704D02*
X171543333Y-115780657D01*
X171543333Y-115780657D02*
X171482380Y-115811133D01*
X172061428Y-115628276D02*
X172488095Y-115628276D01*
X172488095Y-115628276D02*
X172213809Y-116268276D01*
X157826667Y-105518276D02*
X157826667Y-105975419D01*
X157826667Y-105975419D02*
X157796190Y-106066847D01*
X157796190Y-106066847D02*
X157735238Y-106127800D01*
X157735238Y-106127800D02*
X157643809Y-106158276D01*
X157643809Y-106158276D02*
X157582857Y-106158276D01*
X158405714Y-105731609D02*
X158405714Y-106158276D01*
X158253333Y-105487800D02*
X158100952Y-105944942D01*
X158100952Y-105944942D02*
X158497143Y-105944942D01*
X184677800Y-92423333D02*
X184708276Y-92331904D01*
X184708276Y-92331904D02*
X184708276Y-92179523D01*
X184708276Y-92179523D02*
X184677800Y-92118571D01*
X184677800Y-92118571D02*
X184647323Y-92088095D01*
X184647323Y-92088095D02*
X184586371Y-92057618D01*
X184586371Y-92057618D02*
X184525419Y-92057618D01*
X184525419Y-92057618D02*
X184464466Y-92088095D01*
X184464466Y-92088095D02*
X184433990Y-92118571D01*
X184433990Y-92118571D02*
X184403514Y-92179523D01*
X184403514Y-92179523D02*
X184373038Y-92301428D01*
X184373038Y-92301428D02*
X184342561Y-92362380D01*
X184342561Y-92362380D02*
X184312085Y-92392857D01*
X184312085Y-92392857D02*
X184251133Y-92423333D01*
X184251133Y-92423333D02*
X184190180Y-92423333D01*
X184190180Y-92423333D02*
X184129228Y-92392857D01*
X184129228Y-92392857D02*
X184098752Y-92362380D01*
X184098752Y-92362380D02*
X184068276Y-92301428D01*
X184068276Y-92301428D02*
X184068276Y-92149047D01*
X184068276Y-92149047D02*
X184098752Y-92057618D01*
X184068276Y-91844285D02*
X184708276Y-91691904D01*
X184708276Y-91691904D02*
X184251133Y-91569999D01*
X184251133Y-91569999D02*
X184708276Y-91448094D01*
X184708276Y-91448094D02*
X184068276Y-91295714D01*
X184129228Y-91082380D02*
X184098752Y-91051904D01*
X184098752Y-91051904D02*
X184068276Y-90990951D01*
X184068276Y-90990951D02*
X184068276Y-90838570D01*
X184068276Y-90838570D02*
X184098752Y-90777618D01*
X184098752Y-90777618D02*
X184129228Y-90747142D01*
X184129228Y-90747142D02*
X184190180Y-90716665D01*
X184190180Y-90716665D02*
X184251133Y-90716665D01*
X184251133Y-90716665D02*
X184342561Y-90747142D01*
X184342561Y-90747142D02*
X184708276Y-91112856D01*
X184708276Y-91112856D02*
X184708276Y-90716665D01*
X160652295Y-82142800D02*
X160842771Y-82142800D01*
X160766580Y-82333276D02*
X160842771Y-82142800D01*
X160842771Y-82142800D02*
X160766580Y-81952323D01*
X160995152Y-82257085D02*
X160842771Y-82142800D01*
X160842771Y-82142800D02*
X160995152Y-82028514D01*
X156796666Y-93647800D02*
X156888095Y-93678276D01*
X156888095Y-93678276D02*
X157040476Y-93678276D01*
X157040476Y-93678276D02*
X157101428Y-93647800D01*
X157101428Y-93647800D02*
X157131904Y-93617323D01*
X157131904Y-93617323D02*
X157162381Y-93556371D01*
X157162381Y-93556371D02*
X157162381Y-93495419D01*
X157162381Y-93495419D02*
X157131904Y-93434466D01*
X157131904Y-93434466D02*
X157101428Y-93403990D01*
X157101428Y-93403990D02*
X157040476Y-93373514D01*
X157040476Y-93373514D02*
X156918571Y-93343038D01*
X156918571Y-93343038D02*
X156857619Y-93312561D01*
X156857619Y-93312561D02*
X156827142Y-93282085D01*
X156827142Y-93282085D02*
X156796666Y-93221133D01*
X156796666Y-93221133D02*
X156796666Y-93160180D01*
X156796666Y-93160180D02*
X156827142Y-93099228D01*
X156827142Y-93099228D02*
X156857619Y-93068752D01*
X156857619Y-93068752D02*
X156918571Y-93038276D01*
X156918571Y-93038276D02*
X157070952Y-93038276D01*
X157070952Y-93038276D02*
X157162381Y-93068752D01*
X157375714Y-93038276D02*
X157528095Y-93678276D01*
X157528095Y-93678276D02*
X157650000Y-93221133D01*
X157650000Y-93221133D02*
X157771905Y-93678276D01*
X157771905Y-93678276D02*
X157924286Y-93038276D01*
X158107143Y-93038276D02*
X158503334Y-93038276D01*
X158503334Y-93038276D02*
X158290000Y-93282085D01*
X158290000Y-93282085D02*
X158381429Y-93282085D01*
X158381429Y-93282085D02*
X158442381Y-93312561D01*
X158442381Y-93312561D02*
X158472857Y-93343038D01*
X158472857Y-93343038D02*
X158503334Y-93403990D01*
X158503334Y-93403990D02*
X158503334Y-93556371D01*
X158503334Y-93556371D02*
X158472857Y-93617323D01*
X158472857Y-93617323D02*
X158442381Y-93647800D01*
X158442381Y-93647800D02*
X158381429Y-93678276D01*
X158381429Y-93678276D02*
X158198572Y-93678276D01*
X158198572Y-93678276D02*
X158137619Y-93647800D01*
X158137619Y-93647800D02*
X158107143Y-93617323D01*
X178148276Y-104791428D02*
X177843514Y-105004762D01*
X178148276Y-105157143D02*
X177508276Y-105157143D01*
X177508276Y-105157143D02*
X177508276Y-104913333D01*
X177508276Y-104913333D02*
X177538752Y-104852381D01*
X177538752Y-104852381D02*
X177569228Y-104821904D01*
X177569228Y-104821904D02*
X177630180Y-104791428D01*
X177630180Y-104791428D02*
X177721609Y-104791428D01*
X177721609Y-104791428D02*
X177782561Y-104821904D01*
X177782561Y-104821904D02*
X177813038Y-104852381D01*
X177813038Y-104852381D02*
X177843514Y-104913333D01*
X177843514Y-104913333D02*
X177843514Y-105157143D01*
X178148276Y-104181904D02*
X178148276Y-104547619D01*
X178148276Y-104364762D02*
X177508276Y-104364762D01*
X177508276Y-104364762D02*
X177599704Y-104425714D01*
X177599704Y-104425714D02*
X177660657Y-104486666D01*
X177660657Y-104486666D02*
X177691133Y-104547619D01*
X177782561Y-103816190D02*
X177752085Y-103877142D01*
X177752085Y-103877142D02*
X177721609Y-103907619D01*
X177721609Y-103907619D02*
X177660657Y-103938095D01*
X177660657Y-103938095D02*
X177630180Y-103938095D01*
X177630180Y-103938095D02*
X177569228Y-103907619D01*
X177569228Y-103907619D02*
X177538752Y-103877142D01*
X177538752Y-103877142D02*
X177508276Y-103816190D01*
X177508276Y-103816190D02*
X177508276Y-103694285D01*
X177508276Y-103694285D02*
X177538752Y-103633333D01*
X177538752Y-103633333D02*
X177569228Y-103602857D01*
X177569228Y-103602857D02*
X177630180Y-103572380D01*
X177630180Y-103572380D02*
X177660657Y-103572380D01*
X177660657Y-103572380D02*
X177721609Y-103602857D01*
X177721609Y-103602857D02*
X177752085Y-103633333D01*
X177752085Y-103633333D02*
X177782561Y-103694285D01*
X177782561Y-103694285D02*
X177782561Y-103816190D01*
X177782561Y-103816190D02*
X177813038Y-103877142D01*
X177813038Y-103877142D02*
X177843514Y-103907619D01*
X177843514Y-103907619D02*
X177904466Y-103938095D01*
X177904466Y-103938095D02*
X178026371Y-103938095D01*
X178026371Y-103938095D02*
X178087323Y-103907619D01*
X178087323Y-103907619D02*
X178117800Y-103877142D01*
X178117800Y-103877142D02*
X178148276Y-103816190D01*
X178148276Y-103816190D02*
X178148276Y-103694285D01*
X178148276Y-103694285D02*
X178117800Y-103633333D01*
X178117800Y-103633333D02*
X178087323Y-103602857D01*
X178087323Y-103602857D02*
X178026371Y-103572380D01*
X178026371Y-103572380D02*
X177904466Y-103572380D01*
X177904466Y-103572380D02*
X177843514Y-103602857D01*
X177843514Y-103602857D02*
X177813038Y-103633333D01*
X177813038Y-103633333D02*
X177782561Y-103694285D01*
X161687618Y-120588276D02*
X161687618Y-119948276D01*
X161687618Y-119948276D02*
X161839999Y-119948276D01*
X161839999Y-119948276D02*
X161931428Y-119978752D01*
X161931428Y-119978752D02*
X161992380Y-120039704D01*
X161992380Y-120039704D02*
X162022857Y-120100657D01*
X162022857Y-120100657D02*
X162053333Y-120222561D01*
X162053333Y-120222561D02*
X162053333Y-120313990D01*
X162053333Y-120313990D02*
X162022857Y-120435895D01*
X162022857Y-120435895D02*
X161992380Y-120496847D01*
X161992380Y-120496847D02*
X161931428Y-120557800D01*
X161931428Y-120557800D02*
X161839999Y-120588276D01*
X161839999Y-120588276D02*
X161687618Y-120588276D01*
X162662857Y-120588276D02*
X162297142Y-120588276D01*
X162479999Y-120588276D02*
X162479999Y-119948276D01*
X162479999Y-119948276D02*
X162419047Y-120039704D01*
X162419047Y-120039704D02*
X162358095Y-120100657D01*
X162358095Y-120100657D02*
X162297142Y-120131133D01*
X159753333Y-106087323D02*
X159722857Y-106117800D01*
X159722857Y-106117800D02*
X159631428Y-106148276D01*
X159631428Y-106148276D02*
X159570476Y-106148276D01*
X159570476Y-106148276D02*
X159479047Y-106117800D01*
X159479047Y-106117800D02*
X159418095Y-106056847D01*
X159418095Y-106056847D02*
X159387618Y-105995895D01*
X159387618Y-105995895D02*
X159357142Y-105873990D01*
X159357142Y-105873990D02*
X159357142Y-105782561D01*
X159357142Y-105782561D02*
X159387618Y-105660657D01*
X159387618Y-105660657D02*
X159418095Y-105599704D01*
X159418095Y-105599704D02*
X159479047Y-105538752D01*
X159479047Y-105538752D02*
X159570476Y-105508276D01*
X159570476Y-105508276D02*
X159631428Y-105508276D01*
X159631428Y-105508276D02*
X159722857Y-105538752D01*
X159722857Y-105538752D02*
X159753333Y-105569228D01*
X160119047Y-105782561D02*
X160058095Y-105752085D01*
X160058095Y-105752085D02*
X160027618Y-105721609D01*
X160027618Y-105721609D02*
X159997142Y-105660657D01*
X159997142Y-105660657D02*
X159997142Y-105630180D01*
X159997142Y-105630180D02*
X160027618Y-105569228D01*
X160027618Y-105569228D02*
X160058095Y-105538752D01*
X160058095Y-105538752D02*
X160119047Y-105508276D01*
X160119047Y-105508276D02*
X160240952Y-105508276D01*
X160240952Y-105508276D02*
X160301904Y-105538752D01*
X160301904Y-105538752D02*
X160332380Y-105569228D01*
X160332380Y-105569228D02*
X160362857Y-105630180D01*
X160362857Y-105630180D02*
X160362857Y-105660657D01*
X160362857Y-105660657D02*
X160332380Y-105721609D01*
X160332380Y-105721609D02*
X160301904Y-105752085D01*
X160301904Y-105752085D02*
X160240952Y-105782561D01*
X160240952Y-105782561D02*
X160119047Y-105782561D01*
X160119047Y-105782561D02*
X160058095Y-105813038D01*
X160058095Y-105813038D02*
X160027618Y-105843514D01*
X160027618Y-105843514D02*
X159997142Y-105904466D01*
X159997142Y-105904466D02*
X159997142Y-106026371D01*
X159997142Y-106026371D02*
X160027618Y-106087323D01*
X160027618Y-106087323D02*
X160058095Y-106117800D01*
X160058095Y-106117800D02*
X160119047Y-106148276D01*
X160119047Y-106148276D02*
X160240952Y-106148276D01*
X160240952Y-106148276D02*
X160301904Y-106117800D01*
X160301904Y-106117800D02*
X160332380Y-106087323D01*
X160332380Y-106087323D02*
X160362857Y-106026371D01*
X160362857Y-106026371D02*
X160362857Y-105904466D01*
X160362857Y-105904466D02*
X160332380Y-105843514D01*
X160332380Y-105843514D02*
X160301904Y-105813038D01*
X160301904Y-105813038D02*
X160240952Y-105782561D01*
X158468571Y-82638276D02*
X158255237Y-82333514D01*
X158102856Y-82638276D02*
X158102856Y-81998276D01*
X158102856Y-81998276D02*
X158346666Y-81998276D01*
X158346666Y-81998276D02*
X158407618Y-82028752D01*
X158407618Y-82028752D02*
X158438095Y-82059228D01*
X158438095Y-82059228D02*
X158468571Y-82120180D01*
X158468571Y-82120180D02*
X158468571Y-82211609D01*
X158468571Y-82211609D02*
X158438095Y-82272561D01*
X158438095Y-82272561D02*
X158407618Y-82303038D01*
X158407618Y-82303038D02*
X158346666Y-82333514D01*
X158346666Y-82333514D02*
X158102856Y-82333514D01*
X159078095Y-82638276D02*
X158712380Y-82638276D01*
X158895237Y-82638276D02*
X158895237Y-81998276D01*
X158895237Y-81998276D02*
X158834285Y-82089704D01*
X158834285Y-82089704D02*
X158773333Y-82150657D01*
X158773333Y-82150657D02*
X158712380Y-82181133D01*
X159687619Y-82638276D02*
X159321904Y-82638276D01*
X159504761Y-82638276D02*
X159504761Y-81998276D01*
X159504761Y-81998276D02*
X159443809Y-82089704D01*
X159443809Y-82089704D02*
X159382857Y-82150657D01*
X159382857Y-82150657D02*
X159321904Y-82181133D01*
X189672380Y-115018276D02*
X189672380Y-115536371D01*
X189672380Y-115536371D02*
X189702857Y-115597323D01*
X189702857Y-115597323D02*
X189733333Y-115627800D01*
X189733333Y-115627800D02*
X189794285Y-115658276D01*
X189794285Y-115658276D02*
X189916190Y-115658276D01*
X189916190Y-115658276D02*
X189977142Y-115627800D01*
X189977142Y-115627800D02*
X190007619Y-115597323D01*
X190007619Y-115597323D02*
X190038095Y-115536371D01*
X190038095Y-115536371D02*
X190038095Y-115018276D01*
X190678095Y-115658276D02*
X190312380Y-115658276D01*
X190495237Y-115658276D02*
X190495237Y-115018276D01*
X190495237Y-115018276D02*
X190434285Y-115109704D01*
X190434285Y-115109704D02*
X190373333Y-115170657D01*
X190373333Y-115170657D02*
X190312380Y-115201133D01*
X196463514Y-90484761D02*
X196768276Y-90484761D01*
X196128276Y-90698094D02*
X196463514Y-90484761D01*
X196463514Y-90484761D02*
X196128276Y-90271427D01*
X196768276Y-89722856D02*
X196768276Y-90088571D01*
X196768276Y-89905714D02*
X196128276Y-89905714D01*
X196128276Y-89905714D02*
X196219704Y-89966666D01*
X196219704Y-89966666D02*
X196280657Y-90027618D01*
X196280657Y-90027618D02*
X196311133Y-90088571D01*
X161687618Y-117588276D02*
X161687618Y-116948276D01*
X161687618Y-116948276D02*
X161839999Y-116948276D01*
X161839999Y-116948276D02*
X161931428Y-116978752D01*
X161931428Y-116978752D02*
X161992380Y-117039704D01*
X161992380Y-117039704D02*
X162022857Y-117100657D01*
X162022857Y-117100657D02*
X162053333Y-117222561D01*
X162053333Y-117222561D02*
X162053333Y-117313990D01*
X162053333Y-117313990D02*
X162022857Y-117435895D01*
X162022857Y-117435895D02*
X161992380Y-117496847D01*
X161992380Y-117496847D02*
X161931428Y-117557800D01*
X161931428Y-117557800D02*
X161839999Y-117588276D01*
X161839999Y-117588276D02*
X161687618Y-117588276D01*
X162632380Y-116948276D02*
X162327618Y-116948276D01*
X162327618Y-116948276D02*
X162297142Y-117253038D01*
X162297142Y-117253038D02*
X162327618Y-117222561D01*
X162327618Y-117222561D02*
X162388571Y-117192085D01*
X162388571Y-117192085D02*
X162540952Y-117192085D01*
X162540952Y-117192085D02*
X162601904Y-117222561D01*
X162601904Y-117222561D02*
X162632380Y-117253038D01*
X162632380Y-117253038D02*
X162662857Y-117313990D01*
X162662857Y-117313990D02*
X162662857Y-117466371D01*
X162662857Y-117466371D02*
X162632380Y-117527323D01*
X162632380Y-117527323D02*
X162601904Y-117557800D01*
X162601904Y-117557800D02*
X162540952Y-117588276D01*
X162540952Y-117588276D02*
X162388571Y-117588276D01*
X162388571Y-117588276D02*
X162327618Y-117557800D01*
X162327618Y-117557800D02*
X162297142Y-117527323D01*
X166909228Y-80370952D02*
X166878752Y-80431904D01*
X166878752Y-80431904D02*
X166817800Y-80492857D01*
X166817800Y-80492857D02*
X166726371Y-80584285D01*
X166726371Y-80584285D02*
X166695895Y-80645238D01*
X166695895Y-80645238D02*
X166695895Y-80706190D01*
X166848276Y-80675714D02*
X166817800Y-80736666D01*
X166817800Y-80736666D02*
X166756847Y-80797619D01*
X166756847Y-80797619D02*
X166634942Y-80828095D01*
X166634942Y-80828095D02*
X166421609Y-80828095D01*
X166421609Y-80828095D02*
X166299704Y-80797619D01*
X166299704Y-80797619D02*
X166238752Y-80736666D01*
X166238752Y-80736666D02*
X166208276Y-80675714D01*
X166208276Y-80675714D02*
X166208276Y-80553809D01*
X166208276Y-80553809D02*
X166238752Y-80492857D01*
X166238752Y-80492857D02*
X166299704Y-80431904D01*
X166299704Y-80431904D02*
X166421609Y-80401428D01*
X166421609Y-80401428D02*
X166634942Y-80401428D01*
X166634942Y-80401428D02*
X166756847Y-80431904D01*
X166756847Y-80431904D02*
X166817800Y-80492857D01*
X166817800Y-80492857D02*
X166848276Y-80553809D01*
X166848276Y-80553809D02*
X166848276Y-80675714D01*
X166848276Y-79791904D02*
X166848276Y-80157619D01*
X166848276Y-79974762D02*
X166208276Y-79974762D01*
X166208276Y-79974762D02*
X166299704Y-80035714D01*
X166299704Y-80035714D02*
X166360657Y-80096666D01*
X166360657Y-80096666D02*
X166391133Y-80157619D01*
X167412380Y-110868276D02*
X167412380Y-111386371D01*
X167412380Y-111386371D02*
X167442857Y-111447323D01*
X167442857Y-111447323D02*
X167473333Y-111477800D01*
X167473333Y-111477800D02*
X167534285Y-111508276D01*
X167534285Y-111508276D02*
X167656190Y-111508276D01*
X167656190Y-111508276D02*
X167717142Y-111477800D01*
X167717142Y-111477800D02*
X167747619Y-111447323D01*
X167747619Y-111447323D02*
X167778095Y-111386371D01*
X167778095Y-111386371D02*
X167778095Y-110868276D01*
X168357142Y-110868276D02*
X168235237Y-110868276D01*
X168235237Y-110868276D02*
X168174285Y-110898752D01*
X168174285Y-110898752D02*
X168143809Y-110929228D01*
X168143809Y-110929228D02*
X168082856Y-111020657D01*
X168082856Y-111020657D02*
X168052380Y-111142561D01*
X168052380Y-111142561D02*
X168052380Y-111386371D01*
X168052380Y-111386371D02*
X168082856Y-111447323D01*
X168082856Y-111447323D02*
X168113333Y-111477800D01*
X168113333Y-111477800D02*
X168174285Y-111508276D01*
X168174285Y-111508276D02*
X168296190Y-111508276D01*
X168296190Y-111508276D02*
X168357142Y-111477800D01*
X168357142Y-111477800D02*
X168387618Y-111447323D01*
X168387618Y-111447323D02*
X168418095Y-111386371D01*
X168418095Y-111386371D02*
X168418095Y-111233990D01*
X168418095Y-111233990D02*
X168387618Y-111173038D01*
X168387618Y-111173038D02*
X168357142Y-111142561D01*
X168357142Y-111142561D02*
X168296190Y-111112085D01*
X168296190Y-111112085D02*
X168174285Y-111112085D01*
X168174285Y-111112085D02*
X168113333Y-111142561D01*
X168113333Y-111142561D02*
X168082856Y-111173038D01*
X168082856Y-111173038D02*
X168052380Y-111233990D01*
X157803038Y-80743332D02*
X157803038Y-80956666D01*
X158138276Y-80956666D02*
X157498276Y-80956666D01*
X157498276Y-80956666D02*
X157498276Y-80651904D01*
X158138276Y-80072856D02*
X158138276Y-80438571D01*
X158138276Y-80255714D02*
X157498276Y-80255714D01*
X157498276Y-80255714D02*
X157589704Y-80316666D01*
X157589704Y-80316666D02*
X157650657Y-80377618D01*
X157650657Y-80377618D02*
X157681133Y-80438571D01*
X174518571Y-115628276D02*
X174305237Y-115323514D01*
X174152856Y-115628276D02*
X174152856Y-114988276D01*
X174152856Y-114988276D02*
X174396666Y-114988276D01*
X174396666Y-114988276D02*
X174457618Y-115018752D01*
X174457618Y-115018752D02*
X174488095Y-115049228D01*
X174488095Y-115049228D02*
X174518571Y-115110180D01*
X174518571Y-115110180D02*
X174518571Y-115201609D01*
X174518571Y-115201609D02*
X174488095Y-115262561D01*
X174488095Y-115262561D02*
X174457618Y-115293038D01*
X174457618Y-115293038D02*
X174396666Y-115323514D01*
X174396666Y-115323514D02*
X174152856Y-115323514D01*
X175128095Y-115628276D02*
X174762380Y-115628276D01*
X174945237Y-115628276D02*
X174945237Y-114988276D01*
X174945237Y-114988276D02*
X174884285Y-115079704D01*
X174884285Y-115079704D02*
X174823333Y-115140657D01*
X174823333Y-115140657D02*
X174762380Y-115171133D01*
X175432857Y-115628276D02*
X175554761Y-115628276D01*
X175554761Y-115628276D02*
X175615714Y-115597800D01*
X175615714Y-115597800D02*
X175646190Y-115567323D01*
X175646190Y-115567323D02*
X175707142Y-115475895D01*
X175707142Y-115475895D02*
X175737619Y-115353990D01*
X175737619Y-115353990D02*
X175737619Y-115110180D01*
X175737619Y-115110180D02*
X175707142Y-115049228D01*
X175707142Y-115049228D02*
X175676666Y-115018752D01*
X175676666Y-115018752D02*
X175615714Y-114988276D01*
X175615714Y-114988276D02*
X175493809Y-114988276D01*
X175493809Y-114988276D02*
X175432857Y-115018752D01*
X175432857Y-115018752D02*
X175402380Y-115049228D01*
X175402380Y-115049228D02*
X175371904Y-115110180D01*
X175371904Y-115110180D02*
X175371904Y-115262561D01*
X175371904Y-115262561D02*
X175402380Y-115323514D01*
X175402380Y-115323514D02*
X175432857Y-115353990D01*
X175432857Y-115353990D02*
X175493809Y-115384466D01*
X175493809Y-115384466D02*
X175615714Y-115384466D01*
X175615714Y-115384466D02*
X175676666Y-115353990D01*
X175676666Y-115353990D02*
X175707142Y-115323514D01*
X175707142Y-115323514D02*
X175737619Y-115262561D01*
X160137618Y-122088276D02*
X160137618Y-121448276D01*
X160137618Y-121448276D02*
X160289999Y-121448276D01*
X160289999Y-121448276D02*
X160381428Y-121478752D01*
X160381428Y-121478752D02*
X160442380Y-121539704D01*
X160442380Y-121539704D02*
X160472857Y-121600657D01*
X160472857Y-121600657D02*
X160503333Y-121722561D01*
X160503333Y-121722561D02*
X160503333Y-121813990D01*
X160503333Y-121813990D02*
X160472857Y-121935895D01*
X160472857Y-121935895D02*
X160442380Y-121996847D01*
X160442380Y-121996847D02*
X160381428Y-122057800D01*
X160381428Y-122057800D02*
X160289999Y-122088276D01*
X160289999Y-122088276D02*
X160137618Y-122088276D01*
X160747142Y-121509228D02*
X160777618Y-121478752D01*
X160777618Y-121478752D02*
X160838571Y-121448276D01*
X160838571Y-121448276D02*
X160990952Y-121448276D01*
X160990952Y-121448276D02*
X161051904Y-121478752D01*
X161051904Y-121478752D02*
X161082380Y-121509228D01*
X161082380Y-121509228D02*
X161112857Y-121570180D01*
X161112857Y-121570180D02*
X161112857Y-121631133D01*
X161112857Y-121631133D02*
X161082380Y-121722561D01*
X161082380Y-121722561D02*
X160716666Y-122088276D01*
X160716666Y-122088276D02*
X161112857Y-122088276D01*
D13*
%TO.C,C9*%
X162815000Y-88458748D02*
X162815000Y-88981252D01*
X164285000Y-88458748D02*
X164285000Y-88981252D01*
%TO.C,C7*%
X161225000Y-98491252D02*
X161225000Y-97968748D01*
X162695000Y-98491252D02*
X162695000Y-97968748D01*
D14*
%TO.C,RV1*%
X176520000Y-79040000D02*
X178400000Y-79040000D01*
X176520000Y-82040000D02*
X178400000Y-82040000D01*
X178400000Y-79040000D02*
X178600000Y-79140000D01*
X178400000Y-82040000D02*
X178600000Y-81940000D01*
X178600000Y-79140000D02*
X178600000Y-79420000D01*
X178600000Y-81940000D02*
X178600000Y-81660000D01*
D15*
X175300000Y-78040000D02*
G75*
G02*
X175100000Y-78040000I-100000J0D01*
G01*
X175100000Y-78040000D02*
G75*
G02*
X175300000Y-78040000I100000J0D01*
G01*
D13*
%TO.C,C10*%
X164915000Y-88458748D02*
X164915000Y-88981252D01*
X166385000Y-88458748D02*
X166385000Y-88981252D01*
%TO.C,C18*%
X188575000Y-93128748D02*
X188575000Y-93651252D01*
X190045000Y-93128748D02*
X190045000Y-93651252D01*
%TO.C,J2*%
X163380000Y-103030000D02*
X163380000Y-92810000D01*
X163380000Y-105630000D02*
X163380000Y-104300000D01*
X164710000Y-105630000D02*
X163380000Y-105630000D01*
X166040000Y-92810000D02*
X163380000Y-92810000D01*
X166040000Y-103030000D02*
X163380000Y-103030000D01*
X166040000Y-103030000D02*
X166040000Y-92810000D01*
%TO.C,SW1*%
X172000000Y-98010000D02*
X178120000Y-98010000D01*
X172000000Y-101710000D02*
X172000000Y-98010000D01*
X178120000Y-98010000D02*
X178120000Y-101710000D01*
X178120000Y-101710000D02*
X172000000Y-101710000D01*
%TO.C,R13*%
X176827064Y-82845000D02*
X176372936Y-82845000D01*
X176827064Y-84315000D02*
X176372936Y-84315000D01*
D14*
%TO.C,D3*%
X168777500Y-92197500D02*
X168777500Y-92425000D01*
X168777500Y-92197500D02*
X173022500Y-92197500D01*
X168777500Y-94862500D02*
X168777500Y-94635000D01*
X173022500Y-92197500D02*
X173022500Y-92425000D01*
X173022500Y-94635000D02*
X173022500Y-94862500D01*
X173022500Y-94862500D02*
X168777500Y-94862500D01*
D15*
X171500000Y-93530000D02*
G75*
G02*
X171300000Y-93530000I-100000J0D01*
G01*
X171300000Y-93530000D02*
G75*
G02*
X171500000Y-93530000I100000J0D01*
G01*
D13*
%TO.C,C19*%
X188575000Y-84578748D02*
X188575000Y-85101252D01*
X190045000Y-84578748D02*
X190045000Y-85101252D01*
%TO.C,R12*%
X178855000Y-86382936D02*
X178855000Y-86837064D01*
X180325000Y-86382936D02*
X180325000Y-86837064D01*
%TO.C,L1*%
X175000000Y-88810000D02*
X175000000Y-88960000D01*
X175000000Y-88810000D02*
X181520000Y-88810000D01*
X175000000Y-95330000D02*
X175000000Y-95180000D01*
X175000000Y-95330000D02*
X181520000Y-95330000D01*
X181520000Y-88810000D02*
X181520000Y-88960000D01*
X181520000Y-95330000D02*
X181520000Y-95180000D01*
%TO.C,R7*%
X164377064Y-84555000D02*
X163922936Y-84555000D01*
X164377064Y-86025000D02*
X163922936Y-86025000D01*
D14*
%TO.C,U2*%
X168760000Y-84650000D02*
X168760000Y-84550000D01*
X168760000Y-89550000D02*
X168760000Y-89450000D01*
X172760000Y-84550000D02*
X168760000Y-84550000D01*
X172760000Y-84650000D02*
X172760000Y-84550000D01*
X172760000Y-89550000D02*
X168760000Y-89550000D01*
X172760000Y-89550000D02*
X172760000Y-89450000D01*
D15*
X171360000Y-89150000D02*
G75*
G02*
X171160000Y-89150000I-100000J0D01*
G01*
X171160000Y-89150000D02*
G75*
G02*
X171360000Y-89150000I100000J0D01*
G01*
D13*
%TO.C,R17*%
X170915000Y-112992936D02*
X170915000Y-113447064D01*
X172385000Y-112992936D02*
X172385000Y-113447064D01*
D14*
%TO.C,Q3*%
X173370000Y-106650000D02*
X173370000Y-105710000D01*
X174200000Y-105710000D02*
X173370000Y-105710000D01*
X176270000Y-105710000D02*
X175440000Y-105710000D01*
X176270000Y-105710000D02*
X176270000Y-106650000D01*
D15*
X173920000Y-106360000D02*
G75*
G02*
X173720000Y-106360000I-100000J0D01*
G01*
X173720000Y-106360000D02*
G75*
G02*
X173920000Y-106360000I100000J0D01*
G01*
D13*
%TO.C,J4*%
X156035000Y-107292500D02*
X156295000Y-107292500D01*
X156295000Y-114912500D02*
X156035000Y-114912500D01*
X158575000Y-107292500D02*
X160345000Y-107292500D01*
X160345000Y-107292500D02*
X160345000Y-107672500D01*
X160345000Y-114912500D02*
X158575000Y-114912500D01*
X160345000Y-114912500D02*
X160345000Y-114532500D01*
%TO.C,R8*%
X176372936Y-86945000D02*
X176827064Y-86945000D01*
X176372936Y-88415000D02*
X176827064Y-88415000D01*
%TO.C,SW2*%
X182570000Y-88470000D02*
X186270000Y-88470000D01*
X182570000Y-94590000D02*
X182570000Y-88470000D01*
X186270000Y-88470000D02*
X186270000Y-94590000D01*
X186270000Y-94590000D02*
X182570000Y-94590000D01*
D16*
%TO.C,D4*%
X160289900Y-79031300D02*
X160289900Y-81088700D01*
X161890100Y-81088700D02*
X161890100Y-79031300D01*
D13*
%TO.C,C6*%
X170531248Y-90135000D02*
X171053752Y-90135000D01*
X170531248Y-91605000D02*
X171053752Y-91605000D01*
%TO.C,SW3*%
X155910000Y-95250000D02*
X155910000Y-97450000D01*
X155910000Y-101550000D02*
X155910000Y-103850000D01*
X160510000Y-95250000D02*
X160510000Y-103850000D01*
%TO.C,R18*%
X175067064Y-102905000D02*
X174612936Y-102905000D01*
X175067064Y-104375000D02*
X174612936Y-104375000D01*
%TO.C,D1*%
X156965000Y-119340000D02*
X156965000Y-121260000D01*
X156965000Y-121260000D02*
X159650000Y-121260000D01*
X159650000Y-119340000D02*
X156965000Y-119340000D01*
%TO.C,C8*%
X161225000Y-102618748D02*
X161225000Y-103141252D01*
X162695000Y-102618748D02*
X162695000Y-103141252D01*
%TO.C,R11*%
X160107064Y-83015000D02*
X159652936Y-83015000D01*
X160107064Y-84485000D02*
X159652936Y-84485000D01*
D14*
%TO.C,J1*%
X158530000Y-48710000D02*
X199830000Y-48710000D01*
X158530000Y-69210000D02*
X158530000Y-48710000D01*
X199830000Y-48710000D02*
X199830000Y-69210000D01*
X199830000Y-69210000D02*
X158530000Y-69210000D01*
D15*
X195280000Y-71460000D02*
G75*
G02*
X195080000Y-71460000I-100000J0D01*
G01*
X195080000Y-71460000D02*
G75*
G02*
X195280000Y-71460000I100000J0D01*
G01*
D13*
%TO.C,U1*%
X181040000Y-98865000D02*
X182040000Y-98865000D01*
X181040000Y-99645000D02*
X181040000Y-98865000D01*
X181040000Y-124605000D02*
X181040000Y-118190000D01*
X199280000Y-98865000D02*
X198280000Y-98865000D01*
X199280000Y-99645000D02*
X199280000Y-98865000D01*
X199280000Y-124605000D02*
X181040000Y-124605000D01*
X199280000Y-124605000D02*
X199280000Y-118445000D01*
X199285000Y-118220000D02*
X199285000Y-117720000D01*
X199785000Y-117720000D01*
X199285000Y-118220000D01*
G36*
X199285000Y-118220000D02*
G01*
X199285000Y-117720000D01*
X199785000Y-117720000D01*
X199285000Y-118220000D01*
G37*
%TO.C,Y1*%
X190550000Y-83480000D02*
X190550000Y-96080000D01*
X195650000Y-83480000D02*
X190550000Y-83480000D01*
X195650000Y-96080000D02*
X195650000Y-83480000D01*
%TO.C,D5*%
X156965000Y-116340000D02*
X156965000Y-118260000D01*
X156965000Y-118260000D02*
X159650000Y-118260000D01*
X159650000Y-116340000D02*
X156965000Y-116340000D01*
D14*
%TO.C,Q2*%
X173440000Y-110510000D02*
X173440000Y-109570000D01*
X173440000Y-110510000D02*
X174270000Y-110510000D01*
X175510000Y-110510000D02*
X176340000Y-110510000D01*
X176340000Y-109570000D02*
X176340000Y-110510000D01*
D15*
X175990000Y-109860000D02*
G75*
G02*
X175790000Y-109860000I-100000J0D01*
G01*
X175790000Y-109860000D02*
G75*
G02*
X175990000Y-109860000I100000J0D01*
G01*
D13*
%TO.C,C11*%
X176358748Y-84875000D02*
X176881252Y-84875000D01*
X176358748Y-86345000D02*
X176881252Y-86345000D01*
D16*
%TO.C,Q1*%
X167070659Y-77565500D02*
X165934199Y-77565500D01*
X167070659Y-78454500D02*
X165934199Y-78454500D01*
X167070659Y-82145500D02*
X165934199Y-82145500D01*
X167070659Y-83034500D02*
X165934199Y-83034500D01*
D13*
%TO.C,U6*%
X167170000Y-105905000D02*
X167170000Y-105420000D01*
X167170000Y-110400000D02*
X167170000Y-109675000D01*
X167895000Y-105180000D02*
X167470000Y-105180000D01*
X167895000Y-110400000D02*
X167170000Y-110400000D01*
X171665000Y-105180000D02*
X172390000Y-105180000D01*
X171665000Y-110400000D02*
X172390000Y-110400000D01*
X172390000Y-105180000D02*
X172390000Y-105905000D01*
X172390000Y-110400000D02*
X172390000Y-109675000D01*
X167170000Y-105180000D02*
X166930000Y-104850000D01*
X167410000Y-104850000D01*
X167170000Y-105180000D01*
G36*
X167170000Y-105180000D02*
G01*
X166930000Y-104850000D01*
X167410000Y-104850000D01*
X167170000Y-105180000D01*
G37*
%TO.C,F1*%
X157000000Y-70800000D02*
X158550000Y-70800000D01*
X157000000Y-76800000D02*
X157000000Y-70800000D01*
X157000000Y-76800000D02*
X158550000Y-76800000D01*
X157000000Y-85800000D02*
X157000000Y-91800000D01*
X157000000Y-85800000D02*
X158550000Y-85800000D01*
X157150000Y-85800000D02*
X157150000Y-76800000D01*
X158550000Y-91800000D02*
X157000000Y-91800000D01*
X160750000Y-91800000D02*
X162300000Y-91800000D01*
X162150000Y-85800000D02*
X162150000Y-76800000D01*
X162300000Y-70800000D02*
X160750000Y-70800000D01*
X162300000Y-76800000D02*
X160750000Y-76800000D01*
X162300000Y-76800000D02*
X162300000Y-70800000D01*
X162300000Y-85800000D02*
X160750000Y-85800000D01*
X162300000Y-91800000D02*
X162300000Y-85800000D01*
%TO.C,R19*%
X175157064Y-111825000D02*
X174702936Y-111825000D01*
X175157064Y-113295000D02*
X174702936Y-113295000D01*
%TO.C,D2*%
X156965000Y-122340000D02*
X156965000Y-124260000D01*
X156965000Y-124260000D02*
X159650000Y-124260000D01*
X159650000Y-122340000D02*
X156965000Y-122340000D01*
D17*
%TO.C,G\u002A\u002A\u002A*%
G36*
X189178822Y-78317431D02*
G01*
X189220576Y-78360444D01*
X189248454Y-78440367D01*
X189265048Y-78577303D01*
X189272942Y-78791355D01*
X189274749Y-79062547D01*
X189274749Y-79747151D01*
X189128661Y-79764188D01*
X189002900Y-79762652D01*
X188941548Y-79740199D01*
X188925099Y-79669276D01*
X188911793Y-79508227D01*
X188903127Y-79282059D01*
X188900523Y-79053726D01*
X188903684Y-78756983D01*
X188914884Y-78554882D01*
X188936701Y-78427047D01*
X188971712Y-78353104D01*
X188991708Y-78332600D01*
X189102378Y-78288022D01*
X189178822Y-78317431D01*
G37*
G36*
X186227168Y-78287757D02*
G01*
X186280088Y-78310159D01*
X186315748Y-78367777D01*
X186339549Y-78482491D01*
X186356895Y-78676180D01*
X186367296Y-78855357D01*
X186396083Y-79401711D01*
X187402915Y-79430499D01*
X187766513Y-79441690D01*
X188031110Y-79452801D01*
X188212828Y-79466028D01*
X188327792Y-79483569D01*
X188392121Y-79507622D01*
X188421942Y-79540382D01*
X188431102Y-79570627D01*
X188434645Y-79656547D01*
X188399537Y-79721842D01*
X188313066Y-79769214D01*
X188162516Y-79801363D01*
X187935176Y-79820995D01*
X187618330Y-79830810D01*
X187199265Y-79833511D01*
X187194370Y-79833511D01*
X186822352Y-79832980D01*
X186548548Y-79830122D01*
X186356029Y-79823035D01*
X186227864Y-79809820D01*
X186147122Y-79788579D01*
X186096872Y-79757411D01*
X186060183Y-79714418D01*
X186053908Y-79705555D01*
X186006732Y-79598678D01*
X185978184Y-79428107D01*
X185965524Y-79173084D01*
X185964283Y-79025679D01*
X185974075Y-78698040D01*
X186006111Y-78472895D01*
X186064380Y-78339047D01*
X186152871Y-78285299D01*
X186227168Y-78287757D01*
G37*
G36*
X189968492Y-78317740D02*
G01*
X190090936Y-78420103D01*
X190249614Y-78565478D01*
X190423427Y-78733220D01*
X190591272Y-78902687D01*
X190732047Y-79053236D01*
X190824651Y-79164223D01*
X190848420Y-79203539D01*
X190892588Y-79252999D01*
X190973417Y-79234743D01*
X191099664Y-79142627D01*
X191280086Y-78970504D01*
X191477771Y-78761918D01*
X191682320Y-78544983D01*
X191828464Y-78403771D01*
X191931950Y-78325909D01*
X192008516Y-78299023D01*
X192058839Y-78305211D01*
X192152379Y-78358370D01*
X192178639Y-78444229D01*
X192133248Y-78572075D01*
X192011836Y-78751192D01*
X191810030Y-78990864D01*
X191657288Y-79158203D01*
X191454471Y-79372122D01*
X191271686Y-79557459D01*
X191127017Y-79696389D01*
X191038552Y-79771087D01*
X191030163Y-79776245D01*
X190966825Y-79789133D01*
X190886168Y-79754639D01*
X190770376Y-79660343D01*
X190601632Y-79493832D01*
X190553464Y-79444020D01*
X190261218Y-79136709D01*
X190043608Y-78898427D01*
X189892443Y-78718211D01*
X189799528Y-78585103D01*
X189756671Y-78488139D01*
X189755680Y-78416363D01*
X189766055Y-78390568D01*
X189845721Y-78300850D01*
X189903386Y-78279031D01*
X189968492Y-78317740D01*
G37*
G36*
X196129583Y-79484874D02*
G01*
X196375744Y-79632067D01*
X196580558Y-79850207D01*
X196722087Y-80117208D01*
X196774646Y-80347385D01*
X196761535Y-80701743D01*
X196652315Y-81004321D01*
X196512994Y-81186775D01*
X196230540Y-81402429D01*
X195924821Y-81515611D01*
X195612038Y-81521911D01*
X195442278Y-81478007D01*
X195197387Y-81345912D01*
X194972864Y-81150523D01*
X194806402Y-80927727D01*
X194760885Y-80829216D01*
X194692296Y-80639537D01*
X190387889Y-80639537D01*
X189580079Y-80639421D01*
X188879663Y-80638951D01*
X188278892Y-80637945D01*
X187770012Y-80636223D01*
X187345275Y-80633601D01*
X186996927Y-80629899D01*
X186717217Y-80624934D01*
X186498396Y-80618525D01*
X186332709Y-80610490D01*
X186212408Y-80600646D01*
X186129738Y-80588812D01*
X186076952Y-80574807D01*
X186046296Y-80558449D01*
X186030019Y-80539555D01*
X186028763Y-80537296D01*
X186008440Y-80389820D01*
X186029599Y-80335790D01*
X186045604Y-80317379D01*
X186076684Y-80301387D01*
X186130463Y-80287642D01*
X186214565Y-80275977D01*
X186336617Y-80266223D01*
X186504246Y-80258210D01*
X186725076Y-80251771D01*
X187006731Y-80246734D01*
X187356839Y-80242932D01*
X187783025Y-80240195D01*
X188292914Y-80238355D01*
X188894132Y-80237243D01*
X189594304Y-80236690D01*
X190401056Y-80236525D01*
X190508388Y-80236523D01*
X191362916Y-80236896D01*
X192108672Y-80238083D01*
X192752032Y-80240186D01*
X193299365Y-80243307D01*
X193757048Y-80247551D01*
X194131450Y-80253016D01*
X194428947Y-80259809D01*
X194655910Y-80268029D01*
X194818713Y-80277781D01*
X194923730Y-80289166D01*
X194977333Y-80302287D01*
X194986165Y-80308490D01*
X195035772Y-80407092D01*
X195092472Y-80564525D01*
X195107864Y-80615771D01*
X195207683Y-80848247D01*
X195365377Y-81000296D01*
X195555392Y-81085754D01*
X195813923Y-81121711D01*
X196056714Y-81046608D01*
X196181834Y-80962260D01*
X196290140Y-80848011D01*
X196348023Y-80698457D01*
X196369852Y-80547209D01*
X196378022Y-80358132D01*
X196347302Y-80227373D01*
X196262965Y-80100668D01*
X196241705Y-80074998D01*
X196021077Y-79898219D01*
X195837774Y-79827422D01*
X195646928Y-79748057D01*
X195554165Y-79646102D01*
X195557991Y-79544167D01*
X195656908Y-79464870D01*
X195849422Y-79430823D01*
X195864016Y-79430714D01*
X196129583Y-79484874D01*
G37*
G36*
X194277198Y-78280278D02*
G01*
X194569743Y-78284819D01*
X194778267Y-78293855D01*
X194918324Y-78308590D01*
X195005468Y-78330225D01*
X195055250Y-78359963D01*
X195064873Y-78370218D01*
X195109440Y-78481000D01*
X195080110Y-78557331D01*
X195043664Y-78593075D01*
X194974940Y-78619611D01*
X194857484Y-78638694D01*
X194674846Y-78652077D01*
X194410573Y-78661515D01*
X194048213Y-78668763D01*
X194032736Y-78669011D01*
X193665824Y-78676351D01*
X193399426Y-78685880D01*
X193218908Y-78699071D01*
X193109640Y-78717399D01*
X193056991Y-78742337D01*
X193045801Y-78768405D01*
X193063304Y-78799779D01*
X193125570Y-78823350D01*
X193247229Y-78840591D01*
X193442912Y-78852974D01*
X193727252Y-78861975D01*
X194032736Y-78867799D01*
X194399033Y-78874999D01*
X194666637Y-78884325D01*
X194851998Y-78897531D01*
X194971568Y-78916372D01*
X195041801Y-78942602D01*
X195079147Y-78977975D01*
X195080110Y-78979479D01*
X195106434Y-79092731D01*
X195064873Y-79166593D01*
X195020092Y-79200850D01*
X194940257Y-79225551D01*
X194808744Y-79242142D01*
X194608928Y-79252072D01*
X194324180Y-79256787D01*
X194017498Y-79257779D01*
X193655564Y-79259156D01*
X193393701Y-79264169D01*
X193216860Y-79274134D01*
X193109990Y-79290367D01*
X193058040Y-79314186D01*
X193045801Y-79342810D01*
X193062099Y-79374107D01*
X193120712Y-79397689D01*
X193236222Y-79414991D01*
X193423210Y-79427451D01*
X193696257Y-79436507D01*
X194067728Y-79443563D01*
X194433016Y-79449600D01*
X194699232Y-79456277D01*
X194882438Y-79465835D01*
X194998696Y-79480515D01*
X195064071Y-79502559D01*
X195094624Y-79534210D01*
X195106418Y-79577707D01*
X195108040Y-79588732D01*
X195088853Y-79701724D01*
X194976488Y-79775183D01*
X194974752Y-79775846D01*
X194861075Y-79796943D01*
X194660271Y-79812907D01*
X194395833Y-79823785D01*
X194091257Y-79829625D01*
X193770036Y-79830475D01*
X193455664Y-79826382D01*
X193171636Y-79817394D01*
X192941445Y-79803558D01*
X192788587Y-79784922D01*
X192743541Y-79771327D01*
X192698942Y-79730585D01*
X192669571Y-79656319D01*
X192652426Y-79527493D01*
X192644508Y-79323067D01*
X192642788Y-79064925D01*
X192649522Y-78721122D01*
X192669542Y-78485435D01*
X192702572Y-78360707D01*
X192711876Y-78348119D01*
X192782228Y-78321154D01*
X192937314Y-78301244D01*
X193185127Y-78287920D01*
X193533661Y-78280712D01*
X193885080Y-78279031D01*
X194277198Y-78280278D01*
G37*
D13*
%TO.C,J3*%
X197300000Y-86570000D02*
X197300000Y-96790000D01*
X197300000Y-86570000D02*
X199960000Y-86570000D01*
X197300000Y-96790000D02*
X199960000Y-96790000D01*
X198630000Y-83970000D02*
X199960000Y-83970000D01*
X199960000Y-83970000D02*
X199960000Y-85300000D01*
X199960000Y-86570000D02*
X199960000Y-96790000D01*
%TD*%
D18*
X164710000Y-104300000D03*
X164710000Y-101760000D03*
X164710000Y-99220000D03*
X164710000Y-96680000D03*
X164710000Y-94140000D03*
X158210000Y-95450000D03*
X158210000Y-103650000D03*
X158210000Y-97550000D03*
X158210000Y-99550000D03*
X158210000Y-101550000D03*
X166380000Y-114180000D03*
X166863274Y-113013274D03*
X166863274Y-115346726D03*
X168030000Y-112530000D03*
X168030000Y-114180000D03*
X168030000Y-115830000D03*
X169196726Y-113013274D03*
X169196726Y-115346726D03*
X169680000Y-114180000D03*
X193180000Y-71460000D03*
X189180000Y-71460000D03*
X185180000Y-71460000D03*
X181180000Y-71460000D03*
X177180000Y-71460000D03*
X173180000Y-71460000D03*
X169180000Y-71460000D03*
X165180000Y-71460000D03*
X193180000Y-74460000D03*
X189180000Y-74460000D03*
X185180000Y-74460000D03*
X181180000Y-74460000D03*
X177180000Y-74460000D03*
X173180000Y-74460000D03*
X169180000Y-74460000D03*
X165180000Y-74460000D03*
X196140000Y-73020000D03*
X196623274Y-71853274D03*
X196623274Y-74186726D03*
X197790000Y-71370000D03*
X197790000Y-73020000D03*
X197790000Y-74670000D03*
X198956726Y-71853274D03*
X198956726Y-74186726D03*
X199440000Y-73020000D03*
D19*
X192365000Y-110417500D03*
X192365000Y-108892500D03*
X191602500Y-111180000D03*
X191602500Y-109655000D03*
X191602500Y-108130000D03*
X190840000Y-110417500D03*
X190840000Y-108892500D03*
X190077500Y-111180000D03*
X190077500Y-109655000D03*
X190077500Y-108130000D03*
X189315000Y-110417500D03*
X189315000Y-108892500D03*
D18*
X159650000Y-71300000D03*
X159650000Y-76300000D03*
X159650000Y-86300000D03*
X159650000Y-91300000D03*
X198630000Y-85300000D03*
X198630000Y-87840000D03*
X198630000Y-90380000D03*
X198630000Y-92920000D03*
X198630000Y-95460000D03*
M02*
